<?xml version="1.0" encoding="utf-8"?>
<!-- Generator: Adobe Illustrator 25.2.2, SVG Export Plug-In . SVG Version: 6.00 Build 0)  -->
<svg version="1.1" id="Layer_1" xmlns="http://www.w3.org/2000/svg" xmlns:xlink="http://www.w3.org/1999/xlink" x="0px" y="0px"
	 viewBox="0 0 522.56 229.11" style="enable-background:new 0 0 522.56 229.11;" xml:space="preserve">
<style type="text/css">
	.st0{opacity:0.15;}
	.st1{clip-path:url(#SVGID_2_);}
	.st2{fill:none;stroke:#BE2020;stroke-width:2;stroke-miterlimit:10;}
</style>
<g class="st0">
	<defs>
		
			<rect id="SVGID_1_" x="0.43" y="0.5" transform="matrix(-1 -5.120583e-11 5.120583e-11 -1 519.9602 228.6648)" class="st0" width="519.1" height="227.67"/>
	</defs>
	<clipPath id="SVGID_2_">
		<use xlink:href="#SVGID_1_"  style="overflow:visible;"/>
	</clipPath>
	<g class="st1">
		<path class="st2" d="M-56.59-46.63c0,0,84.72,38.54,69.66,133.77C-3.82,193.91,94.02,239.8,160.85,213.35
			c66.83-26.45,62.2-124.51,189.2-127.52c129.85-3.08,157.2-126.41,157.2-126.41"/>
		<path class="st2" d="M41.31-75.35c0,0,36.71,81.39,23.53,162.37C51.66,168,110.91,177.47,134.49,168
			c48.95-19.65,58.36-124.7,137.43-131.5c59.44-5.11,139.31,35.52,181.67-56.68"/>
		<path class="st2" d="M80.84-39.07c0,0-13.22,83.19,45.18,68.34c66.94-17.02,65.89-57,150.61-19.22
			c30.13,13.44,151.55,17.38,127.08-56.68"/>
		<ellipse class="st2" cx="123.2" cy="101.88" rx="25.42" ry="37.41"/>
	</g>
</g>
</svg>
