<?xml version="1.0" encoding="utf-8"?>
<!-- Generator: Adobe Illustrator 25.2.3, SVG Export Plug-In . SVG Version: 6.00 Build 0)  -->
<svg version="1.1" id="Layer_1" xmlns="http://www.w3.org/2000/svg" xmlns:xlink="http://www.w3.org/1999/xlink" x="0px" y="0px"
	 viewBox="0 0 322.6 341.9" style="enable-background:new 0 0 322.6 341.9;" xml:space="preserve">
<style type="text/css">
	.st0{fill:#F0F1FF;}
	.st1{fill:#8A98FF;}
	.st2{fill:url(#SVGID_1_);}
	.st3{fill:url(#SVGID_2_);}
	.st4{fill:url(#SVGID_3_);}
	.st5{fill:url(#SVGID_4_);}
	.st6{fill:#D8DAFF;}
	.st7{fill:#BE2020;}
	.st8{fill:#D4E5FF;}
	.st9{fill:#C0C2FF;}
	
		.st10{fill:none;stroke:#8182EE;stroke-width:2.3887;stroke-linecap:round;stroke-linejoin:round;stroke-miterlimit:10;stroke-dasharray:0,5.9719;}
	.st11{fill:url(#SVGID_5_);}
	.st12{fill:#DEDFFF;}
	.st13{fill:none;stroke:#DEDFFF;stroke-width:1.1944;stroke-miterlimit:10;}
	.st14{fill:none;stroke:#C0C2FF;stroke-width:1.1944;stroke-miterlimit:10;}
	.st15{fill:#EC7C68;}
	.st16{fill:#FBA181;}
	.st17{fill:#023C5D;}
	.st18{fill:#915CD5;}
	.st19{fill:#808080;}
	.st20{fill:#024470;}
	.st21{fill:#666666;}
	.st22{fill:none;stroke:#694D98;stroke-width:1.1944;stroke-miterlimit:10;}
</style>
<g>
	<g>
		<g>
			<path class="st0" d="M28.5,47.2v82c0,4,3.2,7.2,7.2,7.2H177c4,0,7.2-3.2,7.2-7.2v-82H28.5z"/>
			<path class="st1" d="M177,30.9H35.7c-4,0-7.2,3.2-7.2,7.2v14.6h155.7V38.1C184.2,34.1,181,30.9,177,30.9z"/>
			<g>
				<linearGradient id="SVGID_1_" gradientUnits="userSpaceOnUse" x1="44.9648" y1="-4.4631" x2="44.9648" y2="61.2371">
					<stop  offset="0" style="stop-color:#D8E2F6"/>
					<stop  offset="9.710491e-03" style="stop-color:#DAE3F6"/>
					<stop  offset="0.1219" style="stop-color:#EBF0FA"/>
					<stop  offset="0.2609" style="stop-color:#F6F9FD"/>
					<stop  offset="0.4566" style="stop-color:#FDFEFF"/>
					<stop  offset="1" style="stop-color:#FFFFFF"/>
				</linearGradient>
				<path class="st2" d="M45,41.8L45,41.8c-1.9,0-3.5-1.6-3.5-3.5V26c0-1.9,1.6-3.5,3.5-3.5l0,0c1.9,0,3.5,1.6,3.5,3.5v12.3
					C48.4,40.2,46.9,41.8,45,41.8z"/>
				<linearGradient id="SVGID_2_" gradientUnits="userSpaceOnUse" x1="85.9058" y1="-4.4631" x2="85.9058" y2="61.2371">
					<stop  offset="0" style="stop-color:#D8E2F6"/>
					<stop  offset="9.710491e-03" style="stop-color:#DAE3F6"/>
					<stop  offset="0.1219" style="stop-color:#EBF0FA"/>
					<stop  offset="0.2609" style="stop-color:#F6F9FD"/>
					<stop  offset="0.4566" style="stop-color:#FDFEFF"/>
					<stop  offset="1" style="stop-color:#FFFFFF"/>
				</linearGradient>
				<path class="st3" d="M85.9,41.8L85.9,41.8c-1.9,0-3.5-1.6-3.5-3.5V26c0-1.9,1.6-3.5,3.5-3.5l0,0c1.9,0,3.5,1.6,3.5,3.5v12.3
					C89.4,40.2,87.8,41.8,85.9,41.8z"/>
				<linearGradient id="SVGID_3_" gradientUnits="userSpaceOnUse" x1="126.8468" y1="-4.4631" x2="126.8468" y2="61.2371">
					<stop  offset="0" style="stop-color:#D8E2F6"/>
					<stop  offset="9.710491e-03" style="stop-color:#DAE3F6"/>
					<stop  offset="0.1219" style="stop-color:#EBF0FA"/>
					<stop  offset="0.2609" style="stop-color:#F6F9FD"/>
					<stop  offset="0.4566" style="stop-color:#FDFEFF"/>
					<stop  offset="1" style="stop-color:#FFFFFF"/>
				</linearGradient>
				<path class="st4" d="M126.8,41.8L126.8,41.8c-1.9,0-3.5-1.6-3.5-3.5V26c0-1.9,1.6-3.5,3.5-3.5l0,0c1.9,0,3.5,1.6,3.5,3.5v12.3
					C130.3,40.2,128.8,41.8,126.8,41.8z"/>
				<linearGradient id="SVGID_4_" gradientUnits="userSpaceOnUse" x1="167.7878" y1="-4.4631" x2="167.7878" y2="61.2371">
					<stop  offset="0" style="stop-color:#D8E2F6"/>
					<stop  offset="9.710491e-03" style="stop-color:#DAE3F6"/>
					<stop  offset="0.1219" style="stop-color:#EBF0FA"/>
					<stop  offset="0.2609" style="stop-color:#F6F9FD"/>
					<stop  offset="0.4566" style="stop-color:#FDFEFF"/>
					<stop  offset="1" style="stop-color:#FFFFFF"/>
				</linearGradient>
				<path class="st5" d="M167.8,41.8L167.8,41.8c-1.9,0-3.5-1.6-3.5-3.5V26c0-1.9,1.6-3.5,3.5-3.5l0,0c1.9,0,3.5,1.6,3.5,3.5v12.3
					C171.3,40.2,169.7,41.8,167.8,41.8z"/>
			</g>
		</g>
		<g>
			<g>
				<g>
					<path class="st6" d="M66.3,81.2H49.7c-0.7,0-1.2-0.5-1.2-1.2V63.4c0-0.7,0.5-1.2,1.2-1.2h16.5c0.7,0,1.2,0.5,1.2,1.2V80
						C67.5,80.7,66.9,81.2,66.3,81.2z"/>
					<path class="st6" d="M90.5,81.2H73.9c-0.7,0-1.2-0.5-1.2-1.2V63.4c0-0.7,0.5-1.2,1.2-1.2h16.5c0.7,0,1.2,0.5,1.2,1.2V80
						C91.7,80.7,91.1,81.2,90.5,81.2z"/>
					<path class="st6" d="M114.6,81.2H98.1c-0.7,0-1.2-0.5-1.2-1.2V63.4c0-0.7,0.5-1.2,1.2-1.2h16.5c0.7,0,1.2,0.5,1.2,1.2V80
						C115.9,80.7,115.3,81.2,114.6,81.2z"/>
					<path class="st6" d="M138.8,81.2h-16.5c-0.7,0-1.2-0.5-1.2-1.2V63.4c0-0.7,0.5-1.2,1.2-1.2h16.5c0.7,0,1.2,0.5,1.2,1.2V80
						C140,80.7,139.5,81.2,138.8,81.2z"/>
					<path class="st6" d="M163,81.2h-16.5c-0.7,0-1.2-0.5-1.2-1.2V63.4c0-0.7,0.5-1.2,1.2-1.2H163c0.7,0,1.2,0.5,1.2,1.2V80
						C164.2,80.7,163.7,81.2,163,81.2z"/>
				</g>
			</g>
			<g>
				<path class="st6" d="M66.3,104.2H49.7c-0.7,0-1.2-0.5-1.2-1.2V86.4c0-0.7,0.5-1.2,1.2-1.2h16.5c0.7,0,1.2,0.5,1.2,1.2V103
					C67.5,103.6,66.9,104.2,66.3,104.2z"/>
				<path class="st7" d="M90.5,104.2H73.9c-0.7,0-1.2-0.5-1.2-1.2V86.4c0-0.7,0.5-1.2,1.2-1.2h16.5c0.7,0,1.2,0.5,1.2,1.2V103
					C91.7,103.6,91.1,104.2,90.5,104.2z"/>
				<path class="st6" d="M114.6,104.2H98.1c-0.7,0-1.2-0.5-1.2-1.2V86.4c0-0.7,0.5-1.2,1.2-1.2h16.5c0.7,0,1.2,0.5,1.2,1.2V103
					C115.9,103.6,115.3,104.2,114.6,104.2z"/>
				<path class="st8" d="M138.8,104.2h-16.5c-0.7,0-1.2-0.5-1.2-1.2V86.4c0-0.7,0.5-1.2,1.2-1.2h16.5c0.7,0,1.2,0.5,1.2,1.2V103
					C140,103.6,139.5,104.2,138.8,104.2z"/>
				<path class="st6" d="M163,104.2h-16.5c-0.7,0-1.2-0.5-1.2-1.2V86.4c0-0.7,0.5-1.2,1.2-1.2H163c0.7,0,1.2,0.5,1.2,1.2V103
					C164.2,103.6,163.7,104.2,163,104.2z"/>
			</g>
			<g>
				<g>
					<path class="st6" d="M66.3,127.1H49.7c-0.7,0-1.2-0.5-1.2-1.2v-16.5c0-0.7,0.5-1.2,1.2-1.2h16.5c0.7,0,1.2,0.5,1.2,1.2v16.5
						C67.5,126.6,66.9,127.1,66.3,127.1z"/>
					<path class="st6" d="M90.5,127.1H73.9c-0.7,0-1.2-0.5-1.2-1.2v-16.5c0-0.7,0.5-1.2,1.2-1.2h16.5c0.7,0,1.2,0.5,1.2,1.2v16.5
						C91.7,126.6,91.1,127.1,90.5,127.1z"/>
					<path class="st6" d="M114.6,127.1H98.1c-0.7,0-1.2-0.5-1.2-1.2v-16.5c0-0.7,0.5-1.2,1.2-1.2h16.5c0.7,0,1.2,0.5,1.2,1.2v16.5
						C115.9,126.6,115.3,127.1,114.6,127.1z"/>
					<path class="st6" d="M138.8,127.1h-16.5c-0.7,0-1.2-0.5-1.2-1.2v-16.5c0-0.7,0.5-1.2,1.2-1.2h16.5c0.7,0,1.2,0.5,1.2,1.2v16.5
						C140,126.6,139.5,127.1,138.8,127.1z"/>
					<path class="st6" d="M163,127.1h-16.5c-0.7,0-1.2-0.5-1.2-1.2v-16.5c0-0.7,0.5-1.2,1.2-1.2H163c0.7,0,1.2,0.5,1.2,1.2v16.5
						C164.2,126.6,163.7,127.1,163,127.1z"/>
				</g>
			</g>
		</g>
	</g>
	<g>
		<circle class="st9" cx="62.7" cy="188.1" r="41.1"/>
		<path class="st10" d="M38.7,232.8c-16-8.6-26.8-25.4-26.8-44.8"/>
		<linearGradient id="SVGID_5_" gradientUnits="userSpaceOnUse" x1="50.0862" y1="241.3253" x2="68.5032" y2="163.4716">
			<stop  offset="0" style="stop-color:#D8E2F6"/>
			<stop  offset="9.710491e-03" style="stop-color:#DAE3F6"/>
			<stop  offset="0.1219" style="stop-color:#EBF0FA"/>
			<stop  offset="0.2609" style="stop-color:#F6F9FD"/>
			<stop  offset="0.4566" style="stop-color:#FDFEFF"/>
			<stop  offset="1" style="stop-color:#FFFFFF"/>
		</linearGradient>
		<circle class="st11" cx="62.7" cy="188.1" r="34"/>
		<path class="st9" d="M62.2,193.1c-0.2,0-0.4,0-0.6-0.1c-0.5-0.2-0.9-0.8-0.9-1.3v-26.9c0-0.8,0.7-1.5,1.5-1.5
			c0.8,0,1.5,0.7,1.5,1.5v23.4l9.9-9.9c0.6-0.6,1.5-0.6,2.1,0c0.6,0.6,0.6,1.5,0,2.1l-12.4,12.4C62.9,192.9,62.6,193.1,62.2,193.1z"
			/>
	</g>
	<path class="st12" d="M268.6,155.8h-76.4c-3.7,0-6.4-3.5-5.4-7.1l12.3-44c1.3-4.7,5.6-8,10.6-8h76.4c3.7,0,6.4,3.5,5.4,7.1
		l-12.3,44C277.7,152.6,273.5,155.8,268.6,155.8z"/>
	<path class="st13" d="M272.9,159.2h-76.4c-3.7,0-6.4-3.5-5.4-7.1l12.3-44c1.3-4.7,5.6-8,10.6-8h76.4c3.7,0,6.4,3.5,5.4,7.1
		l-12.3,44C282.1,156,277.8,159.2,272.9,159.2z"/>
	<path class="st14" d="M259.5,148.7h-13.6c-1,0-1.7-0.9-1.4-1.9l12-43.1c0.1-0.5,0.6-0.9,1.1-0.9h17.2l-12.1,43.4
		C262.3,147.7,261,148.7,259.5,148.7z"/>
	<path class="st7" d="M220.4,117.1h-13.9c-0.7,0-1.2-0.6-1-1.3l2.2-8c0.2-0.9,1-1.5,1.9-1.5h13.9c0.7,0,1.2,0.6,1,1.3l-2.2,8
		C222.1,116.5,221.3,117.1,220.4,117.1z"/>
	<path class="st9" d="M241.3,117.1h-13.9c-0.7,0-1.2-0.6-1-1.3l2.2-8c0.2-0.9,1-1.5,1.9-1.5h13.9c0.7,0,1.2,0.6,1,1.3l-2.2,8
		C243,116.5,242.2,117.1,241.3,117.1z"/>
	<path class="st9" d="M237.7,130.9h-13.9c-0.7,0-1.2-0.6-1-1.3l2.2-8c0.2-0.9,1-1.5,1.9-1.5h13.9c0.7,0,1.2,0.6,1,1.3l-2.2,8
		C239.4,130.3,238.6,130.9,237.7,130.9z"/>
	<g>
		<g>
			<path class="st15" d="M137.5,101.2c0,0,2.5,4.2,2.2,6c-0.4,1.8-3.3,1.3-3.3,1.3L137.5,101.2z"/>
			<g>
				<g>
					<path class="st16" d="M135.9,88.8c0,0,2.2,3.3,2.2,6.3c0,3.1,1.2,18.1-0.8,20c-2,1.8-10.2-0.2-10.2-0.2s-3.9-1-5.5-6.7
						c-1.6-5.7,3.3-15.7,3.3-15.7L135.9,88.8z"/>
					<path class="st16" d="M131.1,114.2c0,0-0.9,5,1.8,9.4c0,0-9-0.7-14.2-0.2c0,0,1.1-8.7,0.9-11.2
						C119.5,109.6,127.8,111.4,131.1,114.2z"/>
					<path class="st17" d="M116.2,86.7c0,0,4.7-3.7,9.7-3.2c5,0.6,9.4,2.5,11,1.9c1.7-0.6-0.3,4.4-2.5,5.1c-2.2,0.7-1.2,5.8-1.8,7.7
						c-0.6,1.9-0.8,1.5-1.1,2.8s0.6,3,0.6,3.9c0,0.8-1.4,0.8-1.4,0.8s-1-3.2-1.7-3.3c-0.7-0.1-1.9-0.4-2.9,2.2c-1,2.6,1,5.8,1.1,7.3
						c0.1,1.5-1.2,2.9-3.2,3.3c-1.9,0.4-5.2,0.4-6.9-0.6c-1.7-1-1.4-2.9-2.8-4.8c-1.4-1.9-4-3.7-4.7-9.8c-0.7-6.1,3.2-7.5,3.2-7.5
						S113,88,116.2,86.7z"/>
				</g>
				<path class="st15" d="M130,103.9c0,0-0.2-3.8-2-2.8c-1.8,0.9-1.3,6.9,0.7,7.3C130.7,108.9,130.2,104.8,130,103.9z"/>
			</g>
			<g>
				<path class="st15" d="M205.3,125.5c0,0-1.2-4.1-0.6-5.2c0.6-1.1,3.6-1.3,3.6-1.3S207.6,123.7,205.3,125.5z"/>
				<path class="st16" d="M199.1,130.2l5.9-5.3c0,0,2.7-11,8.4-16.2l0,0c1.2,0.4,1.8,1.8,1.1,2.9c-1.2,1.9-2.8,4.5-3,6.3
					c0,0,5.7,1.2,7.8,3.5c1,1.6,0,6.3-0.4,7c-0.4,0.8-2.3,0.8-2.3,0.8s-1.4,3.1-2.5,4.1c-1.2,1-5.7,0.6-5.7,0.6l-2.3,3.3
					C206,137.3,200.3,135.3,199.1,130.2z"/>
				<path class="st18" d="M106,124.8c0,0-5.3,0.8-5.8,11.8c-0.4,11-3.8,27.4-3.8,36.7c0,9.3,11.4,39.2,14.3,41.3
					c0,0,3.4-1.3,6.7-3.4c0,0-2.9-19.8-4.2-28.7c-1.3-8.8,1.3-36.2,2.9-41.3C117.9,136.2,119.3,122.7,106,124.8z"/>
				<path class="st19" d="M153.1,333.5c0.7-0.3,1-0.8,0.7-1.5c-0.7-1.8-4.9-2.4-7.7-3.2s-4.6-2.8-4.6-2.8s0,0-1-1.4
					c-1-1.4-2.2-1.1-2.2-1.1s-7.7,0.8-8.8,0.9c-1.1,0.1-1.2,2.3-1.8,4.6c-0.4,1.7-0.6,3.6,0.3,4.6H153.1z"/>
				<path class="st16" d="M128.1,315.3c0,0,1.3,5.1,0.8,9.1c-0.2,2.7,3.8,2.3,6.7,2.1c2.9-0.2,3.8-0.8,3.8-1.7
					c0-0.8-2.9-2.9-3.2-7.4C136.1,313,131.7,313.2,128.1,315.3z"/>
				<path class="st16" d="M154.4,314.2c0,0-1.4,4.5-0.8,6.7c0.6,2.2,3.9,3.7,1.7,4.5c-2.2,0.8-8.7-0.6-11.2-2.5
					c-2-2,1.1-3.1,1.7-4.5c0.6-1.4,1.1-7.6,1.1-7.6L154.4,314.2z"/>
				<path class="st20" d="M137,198.4c0,0,1.3,5.4,1.1,10.7c-0.1,2.8,0.7,103.4,1.1,107.9c0.5,2.8-10.4,3.7-13.1,1.9
					c0,0-2.5-23.1-4.8-36.2c-2.3-13-4.6-40.1-7.1-49.2c-2.5-9.1-7-23.3-7.1-34.6C107.2,198.9,118.5,182.5,137,198.4z"/>
				<path class="st17" d="M151,197.3l3.9,7.3c0,0,17.4,41.6,20.2,54.5c2.8,12.9-19.1,57.3-19.1,57.3s-12-0.5-10.7-5.6
					c0.6-2.2,10.7-48.3,10.7-48.3s-16.9-29.2-19.7-34.3c-2.8-5.1-14.6-9.6-19.1-25.8L151,197.3z"/>
				<path class="st18" d="M116.8,118.3c4.2-0.5,12.4-1.1,17,1l3.4,2.9l-23.9,1l0.4-2C113.9,119.7,115.2,118.5,116.8,118.3z"/>
				<path class="st18" d="M153.7,196c-1.9,2.2-1.9,5.4-4.7,5.9c-8.3,1.4-24.7,2.7-38.6,1.2c-3.1-0.3-5.4-3.1-5.1-6.2
					c0.8-8.6,2.3-24.9,2-28.3c-0.4-4.6-4.2-27-5.1-33.7c-0.8-6.7,3.8-10.1,3.8-10.1l6.7-2.5l18.5-0.8c0,0,11,0,15.6,3.8
					c4.6,3.8,6.3,11.8,6.3,18.1c0,0,1.8,11.6,1.8,21.4S156.8,192.4,153.7,196z"/>
				<path class="st19" d="M141.3,328.4c0.8,1.8,5.7,4,9.4,5.1h18.3c0.6-0.7,0.8-1.5-0.1-1.7c-1.7,0-7.6-2.5-9.3-3.7
					c-1.7-1.1-1.7-3.9-3.9-4.8c-8.7,1.7-11.8-2.8-11.8-2.8c-1.4,2.2-1.1,3.4-1.1,3.4S140.4,326.5,141.3,328.4z"/>
				<path class="st21" d="M150.6,333.5h4.2c-0.6-0.4-1.2-0.8-1.6-1.3c-3.6-4-8.4-5.3-11.2-4.8c-0.4,0.1-0.7,0.2-0.9,0.3
					c0,0.3,0.1,0.6,0.2,0.8C142,330.2,147,332.5,150.6,333.5z"/>
				<path class="st18" d="M140.2,143.4c0,0,29.9,15.6,37.9,17.7c5.1,1.3,30.8-26.1,30.8-26.1s-0.3-9-8.3-7.8l-22,16.6
					c0,0-17.3-9.7-21.9-12.2c-4.6-2.5-12.2-9.7-15.2-8.4C138.5,124.4,128.9,134.5,140.2,143.4z"/>
			</g>
		</g>
		<path class="st22" d="M106.7,145.2c0,0,1.7,24.2,1.9,28.6c0.2,4.4-1.5,25.2-1.5,25.2"/>
	</g>
	<g>
		<path class="st9" d="M73.5,246.6H36.7c-1.1,0-2.1-0.9-2.1-2.1l0,0c0-1.1,0.9-2.1,2.1-2.1h36.8c1.1,0,2.1,0.9,2.1,2.1l0,0
			C75.5,245.7,74.6,246.6,73.5,246.6z"/>
		<path class="st9" d="M50.3,255.1H36.7c-1.1,0-2.1-0.9-2.1-2.1l0,0c0-1.1,0.9-2.1,2.1-2.1h13.6c1.1,0,2.1,0.9,2.1,2.1l0,0
			C52.4,254.2,51.5,255.1,50.3,255.1z"/>
	</g>
	<g>
		<path class="st9" d="M282.9,178.7h-36.8c-1.1,0-2.1-0.9-2.1-2.1l0,0c0-1.1,0.9-2.1,2.1-2.1h36.8c1.1,0,2.1,0.9,2.1,2.1l0,0
			C285,177.7,284,178.7,282.9,178.7z"/>
		<path class="st9" d="M259.8,187.1h-13.6c-1.1,0-2.1-0.9-2.1-2.1l0,0c0-1.1,0.9-2.1,2.1-2.1h13.6c1.1,0,2.1,0.9,2.1,2.1l0,0
			C261.8,186.2,260.9,187.1,259.8,187.1z"/>
	</g>
	<g>
		<g>
			<path class="st12" d="M290.3,249.9h-94.9c-2.4,0-4.3-1.9-4.3-4.3v-17.8c0-2.4,1.9-4.3,4.3-4.3h94.9c2.4,0,4.3,1.9,4.3,4.3v17.8
				C294.5,248,292.6,249.9,290.3,249.9z"/>
			<path class="st9" d="M279.2,234.4h-70.9c-1.1,0-2.1-0.9-2.1-2.1l0,0c0-1.1,0.9-2.1,2.1-2.1h70.9c1.1,0,2.1,0.9,2.1,2.1l0,0
				C281.3,233.5,280.4,234.4,279.2,234.4z"/>
			<path class="st9" d="M221.9,242.8h-13.6c-1.1,0-2.1-0.9-2.1-2.1l0,0c0-1.1,0.9-2.1,2.1-2.1h13.6c1.1,0,2.1,0.9,2.1,2.1l0,0
				C224,241.9,223.1,242.8,221.9,242.8z"/>
		</g>
		<g>
			<path class="st12" d="M259.2,286.3h-94.9c-2.4,0-4.3-1.9-4.3-4.3v-17.8c0-2.4,1.9-4.3,4.3-4.3h94.9c2.4,0,4.3,1.9,4.3,4.3V282
				C263.5,284.4,261.6,286.3,259.2,286.3z"/>
			<path class="st9" d="M214.1,270.8h-36.8c-1.1,0-2.1-0.9-2.1-2.1l0,0c0-1.1,0.9-2.1,2.1-2.1h36.8c1.1,0,2.1,0.9,2.1,2.1l0,0
				C216.1,269.8,215.2,270.8,214.1,270.8z"/>
			<path class="st9" d="M190.9,279.2h-13.6c-1.1,0-2.1-0.9-2.1-2.1l0,0c0-1.1,0.9-2.1,2.1-2.1h13.6c1.1,0,2.1,0.9,2.1,2.1l0,0
				C193,278.3,192.1,279.2,190.9,279.2z"/>
		</g>
	</g>
	<g>
		<path class="st9" d="M14.6,114.6H7.8c-1.3,0-2.4-1.1-2.4-2.4v-6.8c0-1.3,1.1-2.4,2.4-2.4h6.8c1.3,0,2.4,1.1,2.4,2.4v6.8
			C17,113.5,15.9,114.6,14.6,114.6z"/>
		<path class="st9" d="M305.4,158.2h-6.8c-1.3,0-2.4-1.1-2.4-2.4V149c0-1.3,1.1-2.4,2.4-2.4h6.8c1.3,0,2.4,1.1,2.4,2.4v6.8
			C307.9,157.2,306.8,158.2,305.4,158.2z"/>
		<path class="st9" d="M103.3,278.5h-6.8c-1.3,0-2.4-1.1-2.4-2.4v-6.8c0-1.3,1.1-2.4,2.4-2.4h6.8c1.3,0,2.4,1.1,2.4,2.4v6.8
			C105.7,277.4,104.6,278.5,103.3,278.5z"/>
		<path class="st9" d="M89.4,289.4h-4.2c-0.8,0-1.5-0.7-1.5-1.5v-4.2c0-0.8,0.7-1.5,1.5-1.5h4.2c0.8,0,1.5,0.7,1.5,1.5v4.2
			C90.9,288.7,90.2,289.4,89.4,289.4z"/>
		<path class="st9" d="M29.8,130.9h-6.8c-1.3,0-2.4-1.1-2.4-2.4v-6.8c0-1.3,1.1-2.4,2.4-2.4h6.8c1.3,0,2.4,1.1,2.4,2.4v6.8
			C32.3,129.8,31.2,130.9,29.8,130.9z"/>
	</g>
	<path class="st10" d="M272.7,276.8h32.4c4.2,0,7.6-3.4,7.6-7.6v-26.9c0-4.2-3.4-7.6-7.6-7.6h-4"/>
	<g>
		<rect x="193.5" y="66.1" class="st14" width="29.6" height="5.8"/>
		<rect x="193.5" y="77.3" class="st14" width="8.5" height="5.8"/>
	</g>
</g>
</svg>
