<svg xmlns="http://www.w3.org/2000/svg" width="79.206" height="72.319" viewBox="0 0 79.206 72.319"><defs><style>.a{opacity:0.499;}.b{fill:#6c6c6c;}</style></defs><g class="a"><g transform="translate(0 0)"><path class="b" d="M125.987,92.221H115.071l-6.3-6.888H84.662V95.664H74.331V106H64v34.437a6.908,6.908,0,0,0,6.888,6.888h55.1a6.908,6.908,0,0,0,6.888-6.888V99.108A6.908,6.908,0,0,0,125.987,92.221Zm-27.55,44.769a17.219,17.219,0,1,1,17.219-17.219A17.225,17.225,0,0,1,98.437,136.989Z" transform="translate(-53.669 -75.002)"/><path class="b" d="M10.331,48.883h6.888V38.552H27.55V31.664H17.219V21.333H10.331V31.664H0v6.888H10.331Z" transform="translate(0 -21.333)"/><path class="b" d="M220.086,230.4a11.008,11.008,0,0,0-11.02,11.02h0a11.02,11.02,0,1,0,11.02-11.02Z" transform="translate(-175.317 -196.651)"/></g></g></svg>