<svg xmlns="http://www.w3.org/2000/svg" width="16" height="16" viewBox="0 0 16 16">
  <g id="Group_16730" data-name="Group 16730" transform="translate(-7 -7)">
    <circle id="Ellipse_227" data-name="Ellipse 227" cx="3.204" cy="3.204" r="3.204" transform="translate(16.068 7.524)" fill="#27bbee"/>
    <rect id="Rectangle_5237" data-name="Rectangle 5237" width="2.136" height="1.068" rx="0.534" transform="translate(18.204 19.272)" fill="#49ae31"/>
    <path id="Path_24770" data-name="Path 24770" d="M10.75,7a3.75,3.75,0,1,0,3.75,3.75A3.75,3.75,0,0,0,10.75,7Zm0,6.5a2.75,2.75,0,1,1,2.75-2.75A2.75,2.75,0,0,1,10.75,13.5ZM20,8.5H17A1.5,1.5,0,0,0,15.5,10v4.5H20A1.5,1.5,0,0,0,21.5,13V10A1.5,1.5,0,0,0,20,8.5Zm.5,4.5a.5.5,0,0,1-.5.5H16.5V10a.5.5,0,0,1,.5-.5h3a.5.5,0,0,1,.5.5ZM9.77,15.5A1.27,1.27,0,0,0,8.5,16.77v3.46A1.27,1.27,0,0,0,9.77,21.5h3.46a1.27,1.27,0,0,0,1.27-1.27V15.5Zm3.73,4.73a.27.27,0,0,1-.27.27H9.77a.27.27,0,0,1-.27-.27V16.77a.27.27,0,0,1,.27-.27H13.5Zm8-4.73h-6v6A1.5,1.5,0,0,0,17,23h4.5A1.5,1.5,0,0,0,23,21.5V17A1.5,1.5,0,0,0,21.5,15.5Zm.5,6a.5.5,0,0,1-.5.5H17a.5.5,0,0,1-.5-.5v-5h5a.5.5,0,0,1,.5.5Z" transform="translate(0 0)" fill="#fff"/>
  </g>
</svg>
