<svg xmlns="http://www.w3.org/2000/svg" xmlns:xlink="http://www.w3.org/1999/xlink" width="55.013" height="50" viewBox="0 0 55.013 50">
  <defs>
    <clipPath id="clip-path">
      <path id="Path_27199" data-name="Path 27199" d="M1.584,91.5c5.279,12.164,21.4,14.948,32.253,12.211,2.131-.537,17.265-4.629,20.573-18.98A25.241,25.241,0,0,0,44.323,58.844c-10.917-7.653-25.14-3.7-33.315,3.186C3.609,68.258-3.173,80.535,1.584,91.5Z" transform="translate(0 -54.672)"/>
    </clipPath>
  </defs>
  <g id="Layer_2" transform="translate(0 -54.672)">
    <g id="Group_18420" data-name="Group 18420" transform="translate(0 54.672)">
      <path id="Path_27197" data-name="Path 27197" d="M2.829,92.554C8.1,104.693,24.186,107.471,35.016,104.74c2.126-.536,17.229-4.62,20.531-18.941A25.188,25.188,0,0,0,45.48,59.97c-10.894-7.637-25.088-3.689-33.247,3.179C4.85,69.364-1.918,81.616,2.829,92.554Z" transform="translate(-1.192 -55.755)" fill="#c2e5ff"/>
      <g id="Group_18419" data-name="Group 18419" transform="translate(0 0)">
        <g id="Group_18399" data-name="Group 18399" clip-path="url(#clip-path)">
          <path id="Path_27198" data-name="Path 27198" d="M35.4,207.556c-.059,0-.117,0-.175,0a6.477,6.477,0,0,0-11.484-2.389,8.287,8.287,0,1,0,.194,15.29,5.647,5.647,0,0,0,8.762-.543,6.477,6.477,0,1,0,2.7-12.362Z" transform="translate(-11.78 -195.798)" fill="#fff"/>
        </g>
        <g id="Group_18400" data-name="Group 18400" clip-path="url(#clip-path)">
          <path id="Path_27200" data-name="Path 27200" d="M706.033,285.366c.046,0,.092,0,.139,0a5.118,5.118,0,0,0,9.076,1.888,6.549,6.549,0,1,0-.154-12.083,4.463,4.463,0,0,0-6.924.429,5.118,5.118,0,1,0-2.137,9.77Z" transform="translate(-668.782 -263.679)" fill="#fff"/>
        </g>
        <g id="Group_18401" data-name="Group 18401" clip-path="url(#clip-path)">
          <path id="Path_27202" data-name="Path 27202" d="M51.3,498.6s10.5-26.75,15.89-28.191C72,469.12,84.918,488.136,84.918,488.136s5.5-8.313,9.294-11.737a2.067,2.067,0,0,1,3.058.326A117.445,117.445,0,0,1,109.594,498.6Z" transform="translate(-48.945 -451.287)" fill="#ffbe55"/>
        </g>
        <g id="Group_18402" data-name="Group 18402" clip-path="url(#clip-path)">
          <path id="Path_27204" data-name="Path 27204" d="M51.3,498.6s10.5-26.75,15.89-28.191C72,469.12,84.918,488.136,84.918,488.136s5.5-8.313,9.294-11.737a2.067,2.067,0,0,1,3.058.326A117.445,117.445,0,0,1,109.594,498.6Z" transform="translate(-48.945 -451.287)" fill="#282828" opacity="0.25"/>
        </g>
        <g id="Group_18403" data-name="Group 18403" clip-path="url(#clip-path)">
          <path id="Path_27206" data-name="Path 27206" d="M228.124,878.262l-3.935,12.744H228.9Z" transform="translate(-213.911 -840.505)" fill="#ffbe55"/>
        </g>
        <g id="Group_18404" data-name="Group 18404" clip-path="url(#clip-path)">
          <path id="Path_27208" data-name="Path 27208" d="M331.571,778.474c-3.034-2.37-5.619-4.31-7.535-5.724-6.895-5.091-16.557-11.831-24.049-12.385a15.65,15.65,0,0,0-2.078-.013c-1.9.123-6.414.414-9.179,3.782-4.507,5.49-.439,13.976-.265,14.34h43.107Z" transform="translate(-273.474 -727.973)" fill="#ffbe55"/>
        </g>
        <g id="Group_18405" data-name="Group 18405" clip-path="url(#clip-path)">
          <path id="Path_27210" data-name="Path 27210" d="M331.571,778.474c-3.034-2.37-5.619-4.31-7.535-5.724-6.895-5.091-16.557-11.831-24.049-12.385a15.65,15.65,0,0,0-2.078-.013c-1.9.123-6.414.414-9.179,3.782-4.507,5.49-.439,13.976-.265,14.34h43.107Z" transform="translate(-273.474 -727.973)" fill="#fff" opacity="0.5"/>
        </g>
        <g id="Group_18406" data-name="Group 18406" clip-path="url(#clip-path)">
          <path id="Path_27212" data-name="Path 27212" d="M432.872,939.966l9.471,9.915h5.5l-12.385-9.915Z" transform="translate(-413.027 -899.381)" fill="#0b4870" opacity="0.5"/>
        </g>
        <g id="Group_18407" data-name="Group 18407" clip-path="url(#clip-path)">
          <path id="Path_27214" data-name="Path 27214" d="M588.882,939.966l12.973,9.915h5.5l-15.887-9.915Z" transform="translate(-561.885 -899.381)" fill="#0b4870" opacity="0.5"/>
        </g>
        <g id="Group_18408" data-name="Group 18408" clip-path="url(#clip-path)">
          <path id="Path_27216" data-name="Path 27216" d="M639.458,819.589,656.1,831.832a18.049,18.049,0,0,1,7.989,0l-23.935-12.243Z" transform="translate(-610.143 -784.522)" fill="#0b4870" opacity="0.5"/>
        </g>
        <g id="Group_18409" data-name="Group 18409" clip-path="url(#clip-path)">
          <path id="Path_27218" data-name="Path 27218" d="M639.458,308.487V283.93h.7v24.557a.454.454,0,0,1-.38.186A.44.44,0,0,1,639.458,308.487Z" transform="translate(-610.143 -273.42)" fill="#0b4870"/>
        </g>
        <g id="Group_18416" data-name="Group 18416" clip-path="url(#clip-path)">
          <path id="Path_27220" data-name="Path 27220" d="M548.913,432.541a4.726,4.726,0,0,0,.354-.581c.247-.481.628-1.221.33-1.675a.711.711,0,0,0-.315-.255l-.058.178c-.371,1.139-.513,1.389-.473,1.79A1.556,1.556,0,0,0,548.913,432.541Z" transform="translate(-523.588 -412.822)" fill="#0b4870"/>
          <path id="Path_27221" data-name="Path 27221" d="M521.947,473.775c-.24.859-1.4.9-1.4.9" transform="translate(-496.687 -454.562)" fill="#efb68f"/>
          <path id="Path_27222" data-name="Path 27222" d="M487.727,498.787a16.608,16.608,0,0,0-1.714.672s1.938,2.043,4.77-.072a3.325,3.325,0,0,0-.571-.278,9.719,9.719,0,0,0-1.264-.48Z" transform="translate(-463.732 -478.276)" fill="#efb68f"/>
          <path id="Path_27223" data-name="Path 27223" d="M522.064,472.694l.09.589,1.236-.049.2-1.531h-.3Z" transform="translate(-498.131 -452.585)" fill="#efb68f"/>
          <path id="Path_27224" data-name="Path 27224" d="M546.581,455.814a.615.615,0,0,1-.312.357c-.428.213-.528-.331-.343-.579C546.146,455.3,546.711,455.4,546.581,455.814Z" transform="translate(-520.814 -437.052)" fill="#efb68f"/>
          <path id="Path_27225" data-name="Path 27225" d="M486.65,501.706s.754.936,1.88-.133a4.174,4.174,0,0,1,.633.188,3.472,3.472,0,0,1,.781.327l-.149,6.786h-4.209l-.452-6.584a4.442,4.442,0,0,1,.6-.342A4.584,4.584,0,0,1,486.65,501.706Z" transform="translate(-462.893 -481.085)" fill="#ffbe55"/>
          <path id="Path_27226" data-name="Path 27226" d="M492.291,663.017a1.449,1.449,0,0,1-.815.65,6.211,6.211,0,0,1-.638.038c-.3.013-.606.02-.931.019q-.282,0-.553-.008a7.638,7.638,0,0,1-.97-.05,1.528,1.528,0,0,1-.912-.793l.334-2.015h4.218Z" transform="translate(-465.124 -633.067)" fill="#0b4870"/>
          <g id="Group_18410" data-name="Group 18410" transform="translate(26.997 37.757)">
            <path id="Path_27227" data-name="Path 27227" d="M590.041,880.334l-.334-2.072-.825.112.332,2.069Z" transform="translate(-588.882 -878.262)" fill="#ffbe55"/>
          </g>
          <g id="Group_18411" data-name="Group 18411" transform="translate(27.051 39.554)">
            <path id="Path_27228" data-name="Path 27228" d="M590.216,917.681l-.147.65h2.581v-.019a.388.388,0,0,0-.221-.35l-1.2-.478a.114.114,0,0,0-.131.015.518.518,0,0,1-.8.141A.059.059,0,0,0,590.216,917.681Z" transform="translate(-590.069 -917.47)" fill="#0b4870"/>
            <rect id="Rectangle_6282" data-name="Rectangle 6282" width="2.581" height="0.17" transform="translate(0 0.861)" fill="#ffbe55"/>
          </g>
          <path id="Path_27229" data-name="Path 27229" d="M541.727,687.177l1.679-.222-.462-4.1a1.03,1.03,0,0,0-1.159-.906h0a1.911,1.911,0,0,0-1.194,1.181Z" transform="translate(-515.808 -653.188)" fill="#0b4870"/>
          <path id="Path_27230" data-name="Path 27230" d="M560.3,750.542l1.413-.187-.786-6.471a.91.91,0,0,0-1.023-.792h0a.91.91,0,0,0-.779,1.049Z" transform="translate(-533.484 -711.525)" fill="#0b4870"/>
          <g id="Group_18412" data-name="Group 18412" transform="translate(21.379 37.757)">
            <path id="Path_27231" data-name="Path 27231" d="M466.336,880.334l.334-2.072.825.112-.332,2.069Z" transform="translate(-466.336 -878.262)" fill="#ffbe55"/>
          </g>
          <path id="Path_27232" data-name="Path 27232" d="M480.147,687.177l-1.642-.222.425-4.1a1.03,1.03,0,0,1,1.159-.906h0a1.051,1.051,0,0,1,.28.081,1.025,1.025,0,0,1,.594,1.146A30.931,30.931,0,0,1,480.147,687.177Z" transform="translate(-456.568 -653.188)" fill="#0b4870"/>
          <path id="Path_27233" data-name="Path 27233" d="M466.078,750.542l-1.413-.187.786-6.471a.91.91,0,0,1,1.023-.792h0a.91.91,0,0,1,.779,1.049Z" transform="translate(-443.363 -711.525)" fill="#0b4870"/>
          <g id="Group_18413" data-name="Group 18413" transform="translate(26.107 24.355)">
            <path id="Path_27234" data-name="Path 27234" d="M570,650.714a.288.288,0,0,1,.182-.013h0a.172.172,0,0,1,.268-.026l.056.056a.224.224,0,0,1,.022.283l0,0a1.858,1.858,0,0,1-.353.554c-.316.339-.605.333-.692.215s.272-.532.4-.69l-.2.065a.058.058,0,0,1-.067-.028.074.074,0,0,1,.007-.085l.157-.181A.515.515,0,0,1,570,650.714Z" transform="translate(-569.469 -647.657)" fill="#efb68f"/>
            <path id="Path_27235" data-name="Path 27235" d="M587.025,588.9l1.641-2.766a.4.4,0,0,1,.634-.089h0a.514.514,0,0,1,.038.665l-2.019,2.47Z" transform="translate(-586.22 -585.927)" fill="#efb68f"/>
          </g>
          <path id="Path_27236" data-name="Path 27236" d="M571,514.943a15.754,15.754,0,0,1,1.779,2.652,1.093,1.093,0,0,1,.163.769.666.666,0,0,1-.175.3.925.925,0,0,1-.357-.133,1.1,1.1,0,0,1-.343-.35l-2.212-2.668a.655.655,0,0,1,.065-.871C570.145,514.446,570.819,514.693,571,514.943Z" transform="translate(-543.605 -493.487)" fill="#efb68f"/>
          <path id="Path_27237" data-name="Path 27237" d="M562,503.472a3.4,3.4,0,0,1,.958.263,3.735,3.735,0,0,1,1.778,1.745l-.973,1.233a7.424,7.424,0,0,1-.625-.607,4.164,4.164,0,0,1-.966-1.4A3.013,3.013,0,0,1,562,503.472Z" transform="translate(-536.233 -482.897)" fill="#ffbe55"/>
          <g id="Group_18414" data-name="Group 18414" transform="translate(20.237 24.355)">
            <path id="Path_27238" data-name="Path 27238" d="M488,650.714a.285.285,0,0,0-.181-.013h0a.171.171,0,0,0-.266-.026l-.056.056a.225.225,0,0,0-.022.283l0,0a1.861,1.861,0,0,0,.351.554c.314.339.6.333.688.215s-.271-.532-.4-.69l.2.065a.057.057,0,0,0,.067-.028.074.074,0,0,0-.007-.085l-.157-.181A.512.512,0,0,0,488,650.714Z" transform="translate(-485.325 -647.657)" fill="#efb68f"/>
            <path id="Path_27239" data-name="Path 27239" d="M443.841,588.9l-1.631-2.766a.394.394,0,0,0-.63-.089h0a.516.516,0,0,0-.038.665l2.007,2.47Z" transform="translate(-441.438 -585.927)" fill="#efb68f"/>
          </g>
          <path id="Path_27240" data-name="Path 27240" d="M442.6,514.943a15.754,15.754,0,0,0-1.768,2.652,1.1,1.1,0,0,0-.162.769.667.667,0,0,0,.174.3.915.915,0,0,0,.355-.133,1.1,1.1,0,0,0,.342-.35l2.2-2.668a.658.658,0,0,0-.064-.871C443.455,514.446,442.785,514.693,442.6,514.943Z" transform="translate(-420.447 -493.487)" fill="#efb68f"/>
          <path id="Path_27241" data-name="Path 27241" d="M462.477,503.472a3.366,3.366,0,0,0-.958.263,3.68,3.68,0,0,0-1.74,1.7l.99,1.407a6.924,6.924,0,0,0,.554-.572,4.508,4.508,0,0,0,.983-1.558A3.489,3.489,0,0,0,462.477,503.472Z" transform="translate(-438.701 -482.897)" fill="#ffbe55"/>
          <g id="Group_18415" data-name="Group 18415" transform="translate(19.845 39.554)">
            <path id="Path_27242" data-name="Path 27242" d="M435.307,917.681l.147.65h-2.581v-.019a.388.388,0,0,1,.221-.35l1.2-.478a.114.114,0,0,1,.131.015.517.517,0,0,0,.8.141A.059.059,0,0,1,435.307,917.681Z" transform="translate(-432.872 -917.47)" fill="#0b4870"/>
            <rect id="Rectangle_6283" data-name="Rectangle 6283" width="2.581" height="0.17" transform="translate(2.581 1.031) rotate(180)" fill="#ffbe55"/>
          </g>
          <path id="Path_27243" data-name="Path 27243" d="M522.064,474.671a.4.4,0,0,0,.215.168c.306.082.656-.355.8-.531a2.246,2.246,0,0,0,.316-.533C523.323,473.883,523.235,474,522.064,474.671Z" transform="translate(-498.131 -454.562)" fill="#e0a882"/>
          <path id="Path_27244" data-name="Path 27244" d="M503.745,419.607a1.527,1.527,0,0,0-2-.222,1.458,1.458,0,0,0-.387.848,2.7,2.7,0,0,0,.212,1.81c.17.314.318.4.421.436a.874.874,0,0,0,.589-.064,1.7,1.7,0,0,0,.68-.451C503.654,421.545,504.353,420.351,503.745,419.607Z" transform="translate(-478.305 -402.4)" fill="#efb68f"/>
          <path id="Path_27245" data-name="Path 27245" d="M541.35,424.082a.818.818,0,0,1,.371,1.138l.232.032s.05-.345.353-.294c0,0,.246-1.213-.373-1.508Z" transform="translate(-516.532 -406.543)" fill="#0b4870"/>
          <path id="Path_27246" data-name="Path 27246" d="M500.616,412.213a1.661,1.661,0,0,0-1.459-.213.66.66,0,0,1-.36-.221.723.723,0,0,1-.053-.768,2.275,2.275,0,0,0,.284.087,1.484,1.484,0,0,0,.509.021,3.637,3.637,0,0,1,.929.011,1.389,1.389,0,0,1,.734.451.43.43,0,1,1-.583.633Z" transform="translate(-475.798 -394.674)" fill="#0b4870"/>
          <path id="Path_27247" data-name="Path 27247" d="M502.233,430.224a2.394,2.394,0,0,0-.35.9s.058-.957.276-1.006S502.233,430.224,502.233,430.224Z" transform="translate(-478.875 -412.899)" fill="#0b4870"/>
        </g>
        <g id="Group_18417" data-name="Group 18417" clip-path="url(#clip-path)">
          <path id="Path_27249" data-name="Path 27249" d="M647.856,260.2a12.51,12.51,0,0,0-3.584-.146c-2.165.228-3.021.907-4.865.975a8.811,8.811,0,0,1-3.97-.829v-7.015a7.6,7.6,0,0,0,4.236.988c1.42-.121,2.056-.653,3.7-.988a11.59,11.59,0,0,1,4.48,0Z" transform="translate(-606.306 -243.88)" fill="#ffbe55"/>
        </g>
        <g id="Group_18418" data-name="Group 18418" clip-path="url(#clip-path)">
          <path id="Path_27251" data-name="Path 27251" d="M728.5,296.67l.66,1.337,1.475.214-1.067,1.04.252,1.469-1.319-.694-1.319.694.252-1.469-1.067-1.04,1.475-.214Z" transform="translate(-693.063 -285.576)" fill="#fff"/>
        </g>
      </g>
    </g>
  </g>
</svg>
