<svg xmlns="http://www.w3.org/2000/svg" xmlns:xlink="http://www.w3.org/1999/xlink" width="153.557" height="100" viewBox="0 0 153.557 100">
  <defs>
    <clipPath id="clip-path">
      <rect id="Rectangle_5025" data-name="Rectangle 5025" width="153.557" height="100" fill="none"/>
    </clipPath>
    <clipPath id="clip-path-2">
      <path id="Path_24147" data-name="Path 24147" d="M126.19.306C114.5,2.214,110.574,16.989,100.383,16.177S86.786-7.293,69.491,4.267C61.333,9.721,55.567,5.51,50.636,11.286,35.253,29.305,54.746,36.135,45.691,38.9c-9.834,3-3.716,16.246,1.817,20.074S57.157,65.1,49.3,69.016,40.06,77.256,43.356,84.3s9.542,9.26,35.5,9.677,76.217-.468,89.928-4.474,3.716-14.315,9.48-22.016,6.9-12.222-1.93-19.692-3.8-15.2-1.148-20.652,4.69-15.34-5.95-18.16c-4.823-1.279-10,.335-14.722,1.949-5.691,1.946-10.714,3.892-13.639.767C136.1,6.593,137.458.005,129.5,0a20.659,20.659,0,0,0-3.308.3" transform="translate(-40.483 -0.005)" fill="none"/>
    </clipPath>
    <linearGradient id="linear-gradient" x1="0.017" y1="1.055" x2="0.017" y2="1.055" gradientUnits="objectBoundingBox">
      <stop offset="0" stop-color="#dae3fe"/>
      <stop offset="1" stop-color="#e9effd"/>
    </linearGradient>
    <clipPath id="clip-path-4">
      <rect id="Rectangle_4998" data-name="Rectangle 4998" width="31.426" height="87.693" fill="none"/>
    </clipPath>
    <clipPath id="clip-path-5">
      <rect id="Rectangle_4999" data-name="Rectangle 4999" width="25.123" height="79.802" fill="none"/>
    </clipPath>
    <clipPath id="clip-path-6">
      <path id="Rectangle_5002" data-name="Rectangle 5002" d="M6.236,0h0a6.235,6.235,0,0,1,6.235,6.235V39.054a6.235,6.235,0,0,1-6.235,6.235h0A6.235,6.235,0,0,1,0,39.054V6.236A6.236,6.236,0,0,1,6.236,0Z" fill="none"/>
    </clipPath>
    <linearGradient id="linear-gradient-2" x1="-0.363" y1="1.505" x2="-0.361" y2="1.505" gradientUnits="objectBoundingBox">
      <stop offset="0" stop-color="#fe7062"/>
      <stop offset="1" stop-color="#ff928e"/>
    </linearGradient>
    <clipPath id="clip-path-7">
      <path id="Path_24153" data-name="Path 24153" d="M925.384,687.074a1.387,1.387,0,0,0-1.272,1.449v47.758a1.435,1.435,0,0,0,1.272,1.5h9.927a1.572,1.572,0,0,0,1.436-1.5V688.523a1.525,1.525,0,0,0-1.436-1.449Z" transform="translate(-924.112 -687.074)" fill="none"/>
    </clipPath>
    <linearGradient id="linear-gradient-3" x1="-0.886" y1="1.559" x2="-0.885" y2="1.559" xlink:href="#linear-gradient-2"/>
    <clipPath id="clip-path-8">
      <path id="Rectangle_5005" data-name="Rectangle 5005" d="M6.236,0h0a6.236,6.236,0,0,1,6.236,6.236V53.166A6.235,6.235,0,0,1,6.236,59.4h0A6.235,6.235,0,0,1,0,53.166V6.236A6.236,6.236,0,0,1,6.236,0Z" fill="none"/>
    </clipPath>
    <linearGradient id="linear-gradient-4" x1="-0.425" y1="1.65" x2="-0.423" y2="1.65" xlink:href="#linear-gradient-2"/>
    <clipPath id="clip-path-9">
      <path id="Rectangle_5007" data-name="Rectangle 5007" d="M6.235,0h0a6.235,6.235,0,0,1,6.235,6.235V73.349a6.235,6.235,0,0,1-6.235,6.235h0A6.236,6.236,0,0,1,0,73.349V6.235A6.235,6.235,0,0,1,6.235,0Z" fill="none"/>
    </clipPath>
    <linearGradient id="linear-gradient-5" x1="-0.871" y1="1.803" x2="-0.87" y2="1.803" xlink:href="#linear-gradient-2"/>
    <clipPath id="clip-path-10">
      <path id="Rectangle_5009" data-name="Rectangle 5009" d="M6.236,0h0a6.235,6.235,0,0,1,6.235,6.235v56.12a6.236,6.236,0,0,1-6.236,6.236h0A6.236,6.236,0,0,1,0,62.355V6.236A6.236,6.236,0,0,1,6.236,0Z" fill="none"/>
    </clipPath>
    <linearGradient id="linear-gradient-6" x1="-0.815" y1="1.726" x2="-0.814" y2="1.726" xlink:href="#linear-gradient-2"/>
    <clipPath id="clip-path-12">
      <rect id="Rectangle_5010" data-name="Rectangle 5010" width="30.678" height="54.423" fill="none"/>
    </clipPath>
    <clipPath id="clip-path-13">
      <path id="Path_24156" data-name="Path 24156" d="M1358.526,212.25l-24.459,29.81a1.027,1.027,0,0,0,.794,1.678h4.7L1316.614,287.7l2.778,8.657h7.892a3.626,3.626,0,0,0,3.292-2.106l22.77-49.311,3.278.375a2.913,2.913,0,0,0,3.239-2.722l1.719-29.151a1.722,1.722,0,0,0-1.74-1.831,1.678,1.678,0,0,0-1.316.635" transform="translate(-1316.614 -211.615)" fill="none"/>
    </clipPath>
    <linearGradient id="linear-gradient-7" x1="-1.999" y1="0.996" x2="-1.998" y2="0.996" gradientUnits="objectBoundingBox">
      <stop offset="0" stop-color="#4042e2"/>
      <stop offset="1" stop-color="#4f52ff"/>
    </linearGradient>
    <clipPath id="clip-path-14">
      <path id="Path_24157" data-name="Path 24157" d="M1051.4,763.559l16.2,35.989a5.941,5.941,0,0,0,5.418,3.5h8.352a3.05,3.05,0,0,0,2.667-1.57l.3-.535a2.388,2.388,0,0,1-2.127-1.3l-21.586-42.3Z" transform="translate(-1051.402 -757.347)" fill="none"/>
    </clipPath>
    <linearGradient id="linear-gradient-8" x1="-2.106" y1="0.986" x2="-2.104" y2="0.986" xlink:href="#linear-gradient-7"/>
    <clipPath id="clip-path-15">
      <path id="Path_24158" data-name="Path 24158" d="M629.032,701.611c-5.708,5.136-27.853,39.092-27.853,39.092l2.728,7.858h3.352a10.29,10.29,0,0,0,8.566-4.589l23.82-35.789a3.543,3.543,0,0,1,5.145-.818l-1.179-2.857a9.352,9.352,0,0,0-3.292-4.147,7.791,7.791,0,0,0-4.511-1.448,11.358,11.358,0,0,0-6.777,2.7" transform="translate(-601.179 -698.913)" fill="none"/>
    </clipPath>
    <linearGradient id="linear-gradient-9" x1="-0.651" y1="0.99" x2="-0.65" y2="0.99" xlink:href="#linear-gradient-7"/>
    <clipPath id="clip-path-16">
      <path id="Path_24159" data-name="Path 24159" d="M239.038,912.886c3.5,1.228,15.138,16.951,20.828,24.861a10.775,10.775,0,0,0,8.748,4.482h3.15a8.588,8.588,0,0,0,7.357-4.157l.471-.783c-5.695,3.263-10.548-2.711-17.859-15.812s-10.981-14.351-10.981-14.351a17.991,17.991,0,0,0-11.714,5.759" transform="translate(-239.038 -907.127)" fill="none"/>
    </clipPath>
    <linearGradient id="linear-gradient-10" x1="-0.331" y1="0.935" x2="-0.329" y2="0.935" xlink:href="#linear-gradient-7"/>
    <clipPath id="clip-path-18">
      <rect id="Rectangle_5016" data-name="Rectangle 5016" width="44.681" height="55.78" fill="none"/>
    </clipPath>
    <clipPath id="clip-path-19">
      <path id="Path_24168" data-name="Path 24168" d="M602.276,210.248l-.026.015-13.248,13-15.429-6.782-16.6,9.069.236.432,16.385-8.953,15.513,6.819,13.443-13.186,15.53-9.165-.25-.424Z" transform="translate(-556.975 -201.067)" fill="none"/>
    </clipPath>
    <linearGradient id="linear-gradient-11" x1="-0.652" y1="1.709" x2="-0.651" y2="1.709" gradientUnits="objectBoundingBox">
      <stop offset="0" stop-color="#09005d"/>
      <stop offset="1" stop-color="#1a0f91"/>
    </linearGradient>
    <clipPath id="clip-path-20">
      <path id="Path_24169" data-name="Path 24169" d="M533.672,523.064a1.785,1.785,0,1,0,1.785-1.785,1.785,1.785,0,0,0-1.785,1.785" transform="translate(-533.672 -521.279)" fill="none"/>
    </clipPath>
    <linearGradient id="linear-gradient-12" x1="-7.416" y1="12.567" x2="-7.402" y2="12.567" xlink:href="#linear-gradient-11"/>
    <clipPath id="clip-path-21">
      <path id="Path_24170" data-name="Path 24170" d="M764.183,397.115a1.785,1.785,0,1,0,1.785-1.785,1.785,1.785,0,0,0-1.785,1.785" transform="translate(-764.183 -395.33)" fill="none"/>
    </clipPath>
    <linearGradient id="linear-gradient-13" x1="-10.682" y1="14.351" x2="-10.668" y2="14.351" xlink:href="#linear-gradient-11"/>
    <clipPath id="clip-path-22">
      <path id="Path_24171" data-name="Path 24171" d="M980.435,487.419a1.785,1.785,0,1,0,1.785-1.785,1.785,1.785,0,0,0-1.785,1.785" transform="translate(-980.435 -485.634)" fill="none"/>
    </clipPath>
    <linearGradient id="linear-gradient-14" x1="-13.747" y1="13.072" x2="-13.732" y2="13.072" xlink:href="#linear-gradient-11"/>
    <clipPath id="clip-path-23">
      <path id="Path_24172" data-name="Path 24172" d="M1161.041,309.189a1.785,1.785,0,1,0,1.785-1.785,1.785,1.785,0,0,0-1.785,1.785" transform="translate(-1161.041 -307.404)" fill="none"/>
    </clipPath>
    <linearGradient id="linear-gradient-15" x1="-16.306" y1="15.597" x2="-16.291" y2="15.597" xlink:href="#linear-gradient-11"/>
    <clipPath id="clip-path-24">
      <path id="Path_24173" data-name="Path 24173" d="M1384.422,180.863a1.785,1.785,0,1,0,1.785-1.785,1.785,1.785,0,0,0-1.785,1.785" transform="translate(-1384.422 -179.078)" fill="none"/>
    </clipPath>
    <linearGradient id="linear-gradient-16" x1="-19.471" y1="17.416" x2="-19.457" y2="17.416" xlink:href="#linear-gradient-11"/>
  </defs>
  <g id="Group_16293" data-name="Group 16293" clip-path="url(#clip-path)">
    <g id="Group_16238" data-name="Group 16238" transform="translate(2.896 0)">
      <g id="Group_16237" data-name="Group 16237" clip-path="url(#clip-path-2)">
        <rect id="Rectangle_4996" data-name="Rectangle 4996" width="149.907" height="101.685" transform="translate(-5.23 -7.298)" fill="url(#linear-gradient)"/>
      </g>
    </g>
    <g id="Group_16249" data-name="Group 16249" transform="translate(0 0)">
      <g id="Group_16248" data-name="Group 16248" clip-path="url(#clip-path)">
        <g id="Group_16244" data-name="Group 16244" transform="translate(92.441 8.944)" opacity="0.81">
          <g id="Group_16243" data-name="Group 16243">
            <g id="Group_16242" data-name="Group 16242" clip-path="url(#clip-path-4)">
              <path id="Path_24149" data-name="Path 24149" d="M1303.712,212.717s-36.24-37.51,19.483-87.693a68.759,68.759,0,0,1-10.173,43.094c-13.487,21.53-14.973,34.384-9.31,44.6" transform="translate(-1292.129 -125.024)" fill="#bdd0fb"/>
              <path id="Path_24150" data-name="Path 24150" d="M1387.763,410.908a53.34,53.34,0,0,0-5.046,6.726c-.76,1.178-1.486,2.378-2.166,3.6s-1.332,2.465-1.936,3.728a63.282,63.282,0,0,0-5.225,15.9c-.256,1.374-.467,2.757-.618,4.146s-.269,2.783-.325,4.18c-.04.7-.04,1.4-.057,2.1.007.7,0,1.4.027,2.1.033,1.4.127,2.8.255,4.189a69.022,69.022,0,0,0,3.715,16.374.082.082,0,0,1-.153.058,66.145,66.145,0,0,1-2.67-8.029,59.717,59.717,0,0,1-1.56-8.333,57.555,57.555,0,0,1,.57-16.93q.378-2.092.919-4.151t1.213-4.073c.449-1.344.959-2.667,1.5-3.974s1.134-2.6,1.772-3.859,1.313-2.508,2.03-3.727,1.484-2.408,2.283-3.574,1.65-2.3,2.535-3.4a37.3,37.3,0,0,1,2.816-3.165.082.082,0,0,1,.119.113Z" transform="translate(-1365.943 -390.326)" fill="#dce5fe"/>
            </g>
          </g>
        </g>
        <g id="Group_16247" data-name="Group 16247" transform="translate(29.851 16.459)" opacity="0.88">
          <g id="Group_16246" data-name="Group 16246">
            <g id="Group_16245" data-name="Group 16245" clip-path="url(#clip-path-5)">
              <path id="Path_24151" data-name="Path 24151" d="M422.1,230.628a1.218,1.218,0,0,0-2.236.813c.9,6.676,1.961,18.328-.139,25.944-3.087,11.2-8.636,44.136,22.662,52.474,0,0-2.981-51.779-20.287-79.231" transform="translate(-417.261 -230.057)" fill="#bdd0fb"/>
              <path id="Path_24152" data-name="Path 24152" d="M511.49,429.958a13.55,13.55,0,0,1,.856,2.021c.24.691.435,1.4.617,2.1a34.869,34.869,0,0,1,.745,4.323l.1,1.093c.033.365.045.73.069,1.1.052.731.06,1.462.071,2.194,0,.183.008.366,0,.549l-.013.548-.027,1.1c0,.366-.038.73-.056,1.1l-.067,1.1c-.1,1.465-.31,2.915-.513,4.353l-.631,4.295a61.279,61.279,0,0,0-.7,8.553,34.945,34.945,0,0,0,1,8.44c.192.682.357,1.374.595,2.043.114.336.215.677.34,1.009l.386.993c.066.165.126.332.2.5l.216.487.433.976c.156.32.322.635.482.953s.312.641.5.946l.535.928c.09.154.176.311.27.463l.291.45.579.9.144.226.155.219.311.438.623.876c.21.291.44.566.66.85l.666.847c.226.279.465.548.7.822a67.193,67.193,0,0,0,6.067,6.171.082.082,0,0,1,.007.116.083.083,0,0,1-.111.011,53.908,53.908,0,0,1-6.511-5.8c-.25-.266-.509-.524-.752-.8l-.715-.832c-.236-.279-.482-.55-.709-.837l-.675-.867-.338-.434-.168-.217-.158-.225-.63-.9-.313-.453c-.1-.153-.195-.312-.292-.467l-.58-.938a32.265,32.265,0,0,1-3.46-8.119,34.051,34.051,0,0,1-1.129-8.766,55.758,55.758,0,0,1,.742-8.755c.432-2.881,1.013-5.717,1.318-8.559l.1-1.071c.031-.357.079-.714.094-1.072l.065-1.074.033-.537c.01-.179.01-.358.016-.537.017-.717.052-1.434.035-2.151-.005-.358,0-.718-.013-1.076l-.048-1.075a37.636,37.636,0,0,0-.459-4.279c-.124-.707-.26-1.414-.443-2.109a14.817,14.817,0,0,0-.651-2.051l0-.005a.082.082,0,0,1,.148-.07" transform="translate(-503.876 -415.618)" fill="#dce5fe"/>
            </g>
          </g>
        </g>
      </g>
    </g>
    <g id="Group_16251" data-name="Group 16251" transform="translate(34.278 54.569)">
      <g id="Group_16250" data-name="Group 16250" clip-path="url(#clip-path-6)">
        <rect id="Rectangle_5001" data-name="Rectangle 5001" width="46.948" height="22.662" transform="translate(-10.244 42.84) rotate(-76.551)" fill="url(#linear-gradient-2)"/>
      </g>
    </g>
    <g id="Group_16253" data-name="Group 16253" transform="translate(66.112 49.154)">
      <g id="Group_16252" data-name="Group 16252" clip-path="url(#clip-path-7)">
        <rect id="Rectangle_5003" data-name="Rectangle 5003" width="52.253" height="24.081" transform="translate(-11.469 47.962) rotate(-76.551)" fill="url(#linear-gradient-3)"/>
      </g>
    </g>
    <g id="Group_16255" data-name="Group 16255" transform="translate(49.867 40.457)">
      <g id="Group_16254" data-name="Group 16254" clip-path="url(#clip-path-8)">
        <rect id="Rectangle_5004" data-name="Rectangle 5004" width="60.673" height="25.944" transform="matrix(0.233, -0.973, 0.973, 0.233, -13.436, 56.188)" fill="url(#linear-gradient-4)"/>
      </g>
    </g>
    <g id="Group_16257" data-name="Group 16257" transform="translate(103.854 20.274)">
      <g id="Group_16256" data-name="Group 16256" clip-path="url(#clip-path-9)">
        <rect id="Rectangle_5006" data-name="Rectangle 5006" width="80.303" height="30.638" transform="translate(-18.002 75.28) rotate(-76.551)" fill="url(#linear-gradient-5)"/>
      </g>
    </g>
    <g id="Group_16259" data-name="Group 16259" transform="translate(85.311 31.268)">
      <g id="Group_16258" data-name="Group 16258" clip-path="url(#clip-path-10)">
        <rect id="Rectangle_5008" data-name="Rectangle 5008" width="69.61" height="28.081" transform="translate(-15.515 64.88) rotate(-76.551)" fill="url(#linear-gradient-6)"/>
      </g>
    </g>
    <g id="Group_16264" data-name="Group 16264" transform="translate(0 0)">
      <g id="Group_16263" data-name="Group 16263" clip-path="url(#clip-path)">
        <g id="Group_16262" data-name="Group 16262" transform="translate(15.563 45.409)" opacity="0.8">
          <g id="Group_16261" data-name="Group 16261">
            <g id="Group_16260" data-name="Group 16260" clip-path="url(#clip-path-12)">
              <path id="Path_24154" data-name="Path 24154" d="M247.467,688.414s-14.057,4.867-24.558-10.512c-9.865-14.446-3.937-32.508.415-42.827a.578.578,0,0,1,1.1.139c1.306,8.688,7.38,42.661,23.791,53.172Z" transform="translate(-217.54 -634.722)" fill="#91b3fa"/>
              <path id="Path_24155" data-name="Path 24155" d="M320.294,966.995a22.283,22.283,0,0,1-5.188-1.483,26.689,26.689,0,0,1-8.935-6.054,29.487,29.487,0,0,1-3.4-4.251,34.391,34.391,0,0,1-2.524-4.822l-.488-1.27-.238-.637-.2-.649-.4-1.3c-.115-.438-.219-.878-.324-1.319a38.78,38.78,0,0,1-.967-10.737.082.082,0,0,1,.164,0v0q.14,1.338.251,2.669l.174,1.326c.058.441.1.884.172,1.323s.151.876.223,1.314.135.877.242,1.308c.2.864.345,1.739.6,2.588l.341,1.282.4,1.262.2.631.238.618.469,1.238a33.906,33.906,0,0,0,2.423,4.693,28.646,28.646,0,0,0,3.231,4.172,26.838,26.838,0,0,0,3.962,3.5,29.05,29.05,0,0,0,4.567,2.7,24.258,24.258,0,0,0,5.027,1.741h.005a.082.082,0,0,1-.029.161" transform="translate(-291.857 -912.957)" fill="#fff"/>
            </g>
          </g>
        </g>
      </g>
    </g>
    <g id="Group_16266" data-name="Group 16266" transform="translate(94.193 15.139)">
      <g id="Group_16265" data-name="Group 16265" clip-path="url(#clip-path-13)">
        <rect id="Rectangle_5012" data-name="Rectangle 5012" width="46.696" height="85.618" transform="matrix(1, -0.02, 0.02, 1, -1.672, 0.033)" fill="url(#linear-gradient-7)"/>
      </g>
    </g>
    <g id="Group_16268" data-name="Group 16268" transform="translate(75.219 54.182)">
      <g id="Group_16267" data-name="Group 16267" clip-path="url(#clip-path-14)">
        <rect id="Rectangle_5013" data-name="Rectangle 5013" width="35.189" height="47.3" transform="translate(-2.292 0.115) rotate(-2.878)" fill="url(#linear-gradient-8)"/>
      </g>
    </g>
    <g id="Group_16270" data-name="Group 16270" transform="translate(43.009 50.001)">
      <g id="Group_16269" data-name="Group 16269" clip-path="url(#clip-path-15)">
        <rect id="Rectangle_5014" data-name="Rectangle 5014" width="56.314" height="51.387" transform="translate(-8.284 48.224) rotate(-80.253)" fill="url(#linear-gradient-9)"/>
      </g>
    </g>
    <g id="Group_16272" data-name="Group 16272" transform="translate(17.101 64.897)">
      <g id="Group_16271" data-name="Group 16271" clip-path="url(#clip-path-16)">
        <rect id="Rectangle_5015" data-name="Rectangle 5015" width="44.997" height="40.348" transform="matrix(0.99, -0.138, 0.138, 0.99, -4.783, 0.664)" fill="url(#linear-gradient-10)"/>
      </g>
    </g>
    <g id="Group_16280" data-name="Group 16280" transform="translate(0 0)">
      <g id="Group_16279" data-name="Group 16279" clip-path="url(#clip-path)">
        <path id="Path_24160" data-name="Path 24160" d="M1903.393,341.446l-.028,0a.246.246,0,0,1-.217-.272l.161-1.423a.246.246,0,1,1,.489.055l-.161,1.423a.246.246,0,0,1-.244.218" transform="translate(-1766.993 -315.239)" fill="#91b3fa"/>
        <path id="Path_24161" data-name="Path 24161" d="M1618,267.333a.246.246,0,0,1-.2-.4l20.2-26.243a.866.866,0,0,1,1.547.626l-.356,3.146a.246.246,0,1,1-.489-.055l.356-3.146a.374.374,0,0,0-.667-.27l-20.2,26.243a.245.245,0,0,1-.2.1" transform="translate(-1502.02 -223.16)" fill="#91b3fa"/>
        <path id="Path_24162" data-name="Path 24162" d="M977.552,785.453a.246.246,0,0,1-.2-.384l10.445-15.483a1.86,1.86,0,0,1,3.223.245.246.246,0,0,1-.445.211,1.368,1.368,0,0,0-2.37-.18l-10.445,15.483a.246.246,0,0,1-.2.108" transform="translate(-907.388 -713.768)" fill="#91b3fa"/>
        <path id="Path_24163" data-name="Path 24163" d="M939.61,1038.978a.243.243,0,0,1-.137-.042.246.246,0,0,1-.066-.342l.67-.993a.246.246,0,0,1,.408.275l-.67.993a.246.246,0,0,1-.2.109" transform="translate(-872.16 -963.27)" fill="#91b3fa"/>
        <g id="Group_16275" data-name="Group 16275" transform="translate(106.354 43.376)" opacity="0.81">
          <g id="Group_16274" data-name="Group 16274">
            <g id="Group_16273" data-name="Group 16273" clip-path="url(#clip-path-18)">
              <path id="Path_24164" data-name="Path 24164" d="M1530.392,606.365c-9.115,4.041-33.328,18.026-43.781,55.721,0,0,14.1.236,24.682-22.379,9.048-19.34,14.251-27.154,19.792-32.3a.635.635,0,0,0-.693-1.044" transform="translate(-1486.611 -606.305)" fill="#91b3fa"/>
              <path id="Path_24165" data-name="Path 24165" d="M1511.007,754.526c.4-1.131.838-2.245,1.294-3.353s.934-2.207,1.43-3.3,1-2.177,1.533-3.251q.392-.809.8-1.61c.269-.536.547-1.067.827-1.6,1.112-2.124,2.293-4.212,3.521-6.271s2.537-4.072,3.881-6.059a102.652,102.652,0,0,1,8.877-11.32l1.228-1.316c.411-.436.841-.856,1.261-1.284l.633-.639.652-.62c.439-.409.87-.826,1.316-1.227a66.923,66.923,0,0,1,5.586-4.523.082.082,0,0,1,.1.13h0c-1.856,1.5-3.659,3.066-5.368,4.729-1.691,1.681-3.348,3.393-4.9,5.2a114.591,114.591,0,0,0-8.657,11.361q-2,2.965-3.839,6.03c-1.232,2.041-2.415,4.11-3.57,6.2-2.3,4.178-4.464,8.436-6.446,12.783v0a.082.082,0,0,1-.152-.061" transform="translate(-1509.257 -700.857)" fill="#dce5fe"/>
            </g>
          </g>
        </g>
      </g>
    </g>
    <g id="Group_16282" data-name="Group 16282" transform="translate(39.847 14.385)">
      <g id="Group_16281" data-name="Group 16281" clip-path="url(#clip-path-19)">
        <rect id="Rectangle_5019" data-name="Rectangle 5019" width="61.101" height="60.538" transform="translate(-12.452 12.181) rotate(-44.37)" fill="url(#linear-gradient-11)"/>
      </g>
    </g>
    <g id="Group_16284" data-name="Group 16284" transform="translate(38.18 37.293)">
      <g id="Group_16283" data-name="Group 16283" clip-path="url(#clip-path-20)">
        <rect id="Rectangle_5020" data-name="Rectangle 5020" width="5.049" height="5.049" transform="matrix(0.715, -0.699, 0.699, 0.715, -1.785, 1.746)" fill="url(#linear-gradient-12)"/>
      </g>
    </g>
    <g id="Group_16286" data-name="Group 16286" transform="translate(54.671 28.283)">
      <g id="Group_16285" data-name="Group 16285" clip-path="url(#clip-path-21)">
        <rect id="Rectangle_5021" data-name="Rectangle 5021" width="5.049" height="5.049" transform="matrix(0.715, -0.699, 0.699, 0.715, -1.785, 1.746)" fill="url(#linear-gradient-13)"/>
      </g>
    </g>
    <g id="Group_16288" data-name="Group 16288" transform="translate(70.142 34.743)">
      <g id="Group_16287" data-name="Group 16287" clip-path="url(#clip-path-22)">
        <rect id="Rectangle_5022" data-name="Rectangle 5022" width="5.049" height="5.049" transform="matrix(0.715, -0.699, 0.699, 0.715, -1.785, 1.746)" fill="url(#linear-gradient-14)"/>
      </g>
    </g>
    <g id="Group_16290" data-name="Group 16290" transform="translate(83.063 21.992)">
      <g id="Group_16289" data-name="Group 16289" clip-path="url(#clip-path-23)">
        <rect id="Rectangle_5023" data-name="Rectangle 5023" width="5.049" height="5.049" transform="translate(-1.785 1.746) rotate(-44.37)" fill="url(#linear-gradient-15)"/>
      </g>
    </g>
    <g id="Group_16292" data-name="Group 16292" transform="translate(99.044 12.812)">
      <g id="Group_16291" data-name="Group 16291" clip-path="url(#clip-path-24)">
        <rect id="Rectangle_5024" data-name="Rectangle 5024" width="5.049" height="5.049" transform="translate(-1.785 1.746) rotate(-44.37)" fill="url(#linear-gradient-16)"/>
      </g>
    </g>
  </g>
</svg>
