<?xml version="1.0" encoding="utf-8"?>
<!-- Generator: Adobe Illustrator 25.2.2, SVG Export Plug-In . SVG Version: 6.00 Build 0)  -->
<svg version="1.1" id="Layer_1" xmlns="http://www.w3.org/2000/svg" xmlns:xlink="http://www.w3.org/1999/xlink" x="0px" y="0px"
	 viewBox="0 0 72 72" style="enable-background:new 0 0 72 72;" xml:space="preserve">
<style type="text/css">
	.st0{fill:#6D6D6D;}
	.st1{fill:#2BC389;}
</style>
<g>
	<g>
		<g>
			<path class="st0" d="M63.1,24.9C63.1,24.9,63.1,24.9,63.1,24.9c0-0.1,0-0.2-0.1-0.3c0-0.1,0-0.1-0.1-0.2c0-0.1-0.1-0.1-0.1-0.2
				c0-0.1-0.1-0.1-0.1-0.2c0,0,0,0,0,0L53,16.6V8.8c0-1.7-1.4-3-3-3H39.1l-4.4-3.4c-1.1-0.8-2.6-0.8-3.7,0l-4.4,3.4H15.7
				c-1.7,0-3,1.4-3,3v7.8l-9.7,7.5c0,0,0,0,0,0c-0.1,0-0.1,0.1-0.1,0.2c0,0-0.1,0.1-0.1,0.2c0,0.1,0,0.1-0.1,0.2c0,0.1,0,0.1,0,0.2
				c0,0,0,0,0,0.1v34.3c0,0.3,0.1,0.6,0.2,1c-0.2,0.3-0.2,0.8,0,1.1c0.2,0.3,0.7,0.5,1.1,0.4c0.5,0.4,1.1,0.6,1.7,0.6h54.5
				c0.6,0,1.2-0.2,1.8-0.6c0.1,0,0.2,0,0.3,0c0.4,0,0.7-0.2,0.9-0.5c0.2-0.3,0.2-0.7,0-1c0.1-0.3,0.2-0.6,0.2-1L63.1,24.9L63.1,24.9
				z M32.2,3.9c0.4-0.3,0.9-0.3,1.2,0l2.3,1.8h-5.9L32.2,3.9z M5.8,60.3l26.4-20.5c0.4-0.3,0.9-0.3,1.2,0l26.4,20.5H5.8z M61.1,58.7
				L34.7,38.2c-1.1-0.8-2.6-0.8-3.7,0L4.6,58.7V26.5l16.5,12.8c0.4,0.3,1.1,0.3,1.4-0.2c0.3-0.4,0.3-1.1-0.2-1.4l-16.8-13l7.1-5.5
				v7.8c0,0.6,0.5,1,1,1c0.6,0,1-0.5,1-1V8.8c0-0.6,0.5-1,1-1H50c0.6,0,1,0.5,1,1v18.2c0,0.6,0.5,1,1,1s1-0.5,1-1v-7.8l7.1,5.5
				L43.3,37.7c-0.4,0.3-0.5,1-0.2,1.4c0.3,0.4,1,0.5,1.4,0.2l16.6-12.9V58.7z"/>
			<path class="st1" d="M22.7,14.8h20.2c0.6,0,1-0.5,1-1c0-0.6-0.5-1-1-1H22.7c-0.6,0-1,0.5-1,1C21.7,14.4,22.2,14.8,22.7,14.8z"/>
			<path class="st1" d="M43.9,19.9c0-0.6-0.5-1-1-1H22.7c-0.6,0-1,0.5-1,1c0,0.6,0.5,1,1,1h20.2C43.5,20.9,43.9,20.4,43.9,19.9z"/>
			<path class="st1" d="M43.9,25.9c0-0.6-0.5-1-1-1h-9.1c-0.6,0-1,0.5-1,1s0.5,1,1,1h9.1C43.5,26.9,43.9,26.5,43.9,25.9z"/>
		</g>
	</g>
	<circle class="st1" cx="57.4" cy="57.5" r="11"/>
	<path class="st0" d="M63.1,53.5c0.4,0.4,0.4,1,0,1.4l-6.7,6.7c-0.4,0.4-1,0.4-1.4,0l-3.2-3.2c-0.4-0.4-0.4-1,0-1.4
		c0.4-0.4,1-0.4,1.4,0l2.5,2.5l6-6C62,53.1,62.7,53.1,63.1,53.5z M70.2,57.6c0,7.1-5.7,12.8-12.8,12.8c-7.1,0-12.8-5.7-12.8-12.8
		c0-7.1,5.7-12.8,12.8-12.8C64.5,44.8,70.2,50.5,70.2,57.6z M68.2,57.6c0-6-4.8-10.8-10.8-10.8c-6,0-10.8,4.8-10.8,10.8
		c0,6,4.8,10.8,10.8,10.8C63.4,68.4,68.2,63.6,68.2,57.6z"/>
</g>
</svg>
