<svg id="Group_16157" data-name="Group 16157" xmlns="http://www.w3.org/2000/svg" xmlns:xlink="http://www.w3.org/1999/xlink" width="125.916" height="100" viewBox="0 0 125.916 100">
  <defs>
    <clipPath id="clip-path">
      <rect id="Rectangle_4964" data-name="Rectangle 4964" width="125.915" height="100" fill="none"/>
    </clipPath>
    <clipPath id="clip-path-3">
      <rect id="Rectangle_4954" data-name="Rectangle 4954" width="98.163" height="69.287" fill="none"/>
    </clipPath>
    <clipPath id="clip-path-4">
      <rect id="Rectangle_4955" data-name="Rectangle 4955" width="87.853" height="18.358" fill="none"/>
    </clipPath>
    <clipPath id="clip-path-5">
      <rect id="Rectangle_4956" data-name="Rectangle 4956" width="95.906" height="21.529" fill="none"/>
    </clipPath>
    <clipPath id="clip-path-6">
      <rect id="Rectangle_4957" data-name="Rectangle 4957" width="40.714" height="11.558" fill="none"/>
    </clipPath>
    <clipPath id="clip-path-7">
      <rect id="Rectangle_4958" data-name="Rectangle 4958" width="26.399" height="7.494" fill="none"/>
    </clipPath>
    <clipPath id="clip-path-8">
      <rect id="Rectangle_4959" data-name="Rectangle 4959" width="38.877" height="11.036" fill="none"/>
    </clipPath>
    <clipPath id="clip-path-9">
      <rect id="Rectangle_4960" data-name="Rectangle 4960" width="117.005" height="6.664" fill="none"/>
    </clipPath>
  </defs>
  <g id="Group_16156" data-name="Group 16156" clip-path="url(#clip-path)">
    <g id="Group_16155" data-name="Group 16155">
      <g id="Group_16154" data-name="Group 16154" clip-path="url(#clip-path)">
        <g id="Group_16135" data-name="Group 16135" transform="translate(22.54 22.417)" opacity="0.6">
          <g id="Group_16134" data-name="Group 16134">
            <g id="Group_16133" data-name="Group 16133" clip-path="url(#clip-path-3)">
              <path id="Path_23949" data-name="Path 23949" d="M156.716,98.8V98.8a36.1,36.1,0,0,1-4.938,12.536,36.566,36.566,0,0,1-30.923,17.021H96.2a36.531,36.531,0,0,1-26.443-11.325q-.446-.466-.875-.951A36.924,36.924,0,0,1,60.81,101.1a36.264,36.264,0,0,1-1.038-5.641l-.014-.136a63.8,63.8,0,0,1-.273-9.977c.4-7.029,2.169-13.134,5.6-17.686,3.989-5.3,10.221-8.49,19.138-8.589.37,0,.743,0,1.121,0,24.57.37,23.752,11.574,43.876,16.491A87.382,87.382,0,0,0,146.85,77.75c.165.006.328.014.488.025,10.308.66,11.416,10.319,9.378,21.023" transform="translate(-59.398 -59.073)" fill="#d1e3f1"/>
            </g>
          </g>
        </g>
        <g id="Group_16138" data-name="Group 16138" transform="translate(22.627 30.336)" opacity="0.5" style="mix-blend-mode: screen;isolation: isolate">
          <g id="Group_16137" data-name="Group 16137">
            <g id="Group_16136" data-name="Group 16136" clip-path="url(#clip-path-4)">
              <path id="Path_23950" data-name="Path 23950" d="M147.479,90.725a54.341,54.341,0,0,1-30.941,6.108C96.655,94.681,71.625,90.516,59.626,98.3c.4-7.029,2.169-13.134,5.6-17.686,4.2-.975,9.541-1.015,16.286.727,14.616,3.775,33.594,7.9,47.848,7.177A87.416,87.416,0,0,0,146.991,90.7c.165.006.328.014.489.025" transform="translate(-59.626 -79.943)" fill="#fff"/>
            </g>
          </g>
        </g>
        <g id="Group_16141" data-name="Group 16141" transform="translate(23.951 58.849)" opacity="0.5" style="mix-blend-mode: screen;isolation: isolate">
          <g id="Group_16140" data-name="Group 16140">
            <g id="Group_16139" data-name="Group 16139" clip-path="url(#clip-path-5)">
              <path id="Path_23951" data-name="Path 23951" d="M159.022,158.379a36.089,36.089,0,0,1-4.938,12.536c-5.034,1.515-11.73,2.072-20.4.178-21.193-4.63-44.437-4.546-61.611,5.518q-.446-.466-.875-.951a36.925,36.925,0,0,1-8.076-14.979,62.7,62.7,0,0,1,40.408-3.943c20.433,4.663,43.857,8.37,55.5,1.642" transform="translate(-63.117 -155.08)" fill="#fff"/>
            </g>
          </g>
        </g>
        <g id="Group_16144" data-name="Group 16144" opacity="0.6">
          <g id="Group_16143" data-name="Group 16143">
            <g id="Group_16142" data-name="Group 16142" clip-path="url(#clip-path-6)">
              <path id="Path_23952" data-name="Path 23952" d="M0,9.816a1.749,1.749,0,0,0,1.74,1.742H38.974A1.739,1.739,0,0,0,40.2,8.586a1.722,1.722,0,0,0-1.228-.512h-1.76a4.539,4.539,0,0,0-7.387-1.406,6.306,6.306,0,0,0-7.265-2.839A7.207,7.207,0,0,0,9.251,5.284a4.539,4.539,0,0,0-6.39,2.79H1.74A1.746,1.746,0,0,0,0,9.816" fill="#d1e3f1"/>
            </g>
          </g>
        </g>
        <g id="Group_16147" data-name="Group 16147" transform="translate(52.753 11.558)" opacity="0.6">
          <g id="Group_16146" data-name="Group 16146">
            <g id="Group_16145" data-name="Group 16145" clip-path="url(#clip-path-7)">
              <path id="Path_23953" data-name="Path 23953" d="M165.414,36.822a1.134,1.134,0,0,1-1.128,1.129H140.143a1.132,1.132,0,0,1-1.128-1.129,1.134,1.134,0,0,1,1.128-1.129h1.141a2.943,2.943,0,0,1,4.79-.912,4.089,4.089,0,0,1,4.71-1.841,4.673,4.673,0,0,1,8.631.943,2.943,2.943,0,0,1,4.144,1.809h.727a1.132,1.132,0,0,1,1.128,1.129" transform="translate(-139.015 -30.457)" fill="#d1e3f1"/>
            </g>
          </g>
        </g>
        <path id="Path_23954" data-name="Path 23954" d="M265.361,69.585l.307-1.566-1.467-.288a3.582,3.582,0,0,0-.194-1.146l1.209-.812-.89-1.325-1.157.778a3.572,3.572,0,0,0-1.188-.8l.288-1.468L260.7,62.65l-.3,1.513a3.545,3.545,0,0,0-.953.186l-.812-1.209-1.325.89.778,1.157a3.578,3.578,0,0,0-.8,1.188l-1.283-.252-.307,1.566,1.328.261a3.561,3.561,0,0,0,.282,1.209l-1.157.778.89,1.325,1.209-.812a3.577,3.577,0,0,0,1.167.678l-.29,1.477,1.566.307.314-1.6a3.557,3.557,0,0,0,1.014-.268L262.8,72.2l1.325-.89-.812-1.209a3.57,3.57,0,0,0,.532-.812Zm-3.934-.627a1.463,1.463,0,1,1,.4-2.03,1.465,1.465,0,0,1-.4,2.03" transform="translate(-158.67 -38.876)" fill="#d1e3f1"/>
        <path id="Path_23955" data-name="Path 23955" d="M46.514,74.557l.307-1.566L45.354,72.7a3.583,3.583,0,0,0-.194-1.146l1.209-.812-.89-1.325-1.157.778a3.572,3.572,0,0,0-1.188-.8l.288-1.468-1.566-.307-.3,1.513a3.545,3.545,0,0,0-.953.186l-.812-1.209L38.468,69l.778,1.157a3.578,3.578,0,0,0-.8,1.188l-1.283-.252-.307,1.566,1.328.261a3.561,3.561,0,0,0,.282,1.209l-1.157.778.89,1.325,1.209-.812a3.57,3.57,0,0,0,1.167.678l-.29,1.477,1.566.307.314-1.6a3.545,3.545,0,0,0,1.014-.268l.778,1.157,1.325-.89-.812-1.209A3.572,3.572,0,0,0,45,74.259Zm-3.934-.627a1.463,1.463,0,1,1,.4-2.03,1.464,1.464,0,0,1-.4,2.03" transform="translate(-22.87 -41.961)" fill="#d1e3f1"/>
        <path id="Path_23956" data-name="Path 23956" d="M294.708,79.63l.168-.856-.8-.157a1.96,1.96,0,0,0-.106-.627l.661-.444-.486-.724-.633.425a1.947,1.947,0,0,0-.649-.437l.158-.8-.856-.168-.162.827a1.95,1.95,0,0,0-.521.1l-.444-.661-.724.486.425.633a1.947,1.947,0,0,0-.437.649l-.7-.138-.168.856.726.142a1.949,1.949,0,0,0,.154.661l-.633.425.486.724.661-.444a1.946,1.946,0,0,0,.638.371l-.159.807.856.168.172-.875a1.938,1.938,0,0,0,.554-.146l.425.633.724-.486-.444-.661a1.937,1.937,0,0,0,.291-.444Zm-2.15-.343a.8.8,0,1,1,.218-1.11.8.8,0,0,1-.218,1.11" transform="translate(-179.599 -47.061)" fill="#d1e3f1"/>
        <g id="Group_16150" data-name="Group 16150" transform="translate(87.024 3.319)" opacity="0.6">
          <g id="Group_16149" data-name="Group 16149">
            <g id="Group_16148" data-name="Group 16148" clip-path="url(#clip-path-8)">
              <path id="Path_23957" data-name="Path 23957" d="M229.327,18.118a1.67,1.67,0,0,0,1.661,1.663h35.554a1.66,1.66,0,0,0,1.172-2.837,1.643,1.643,0,0,0-1.172-.489h-1.68a4.334,4.334,0,0,0-7.054-1.343,6.019,6.019,0,0,0-6.936-2.71,6.881,6.881,0,0,0-12.711,1.389,4.334,4.334,0,0,0-6.1,2.664h-1.07a1.667,1.667,0,0,0-1.661,1.663" transform="translate(-229.327 -8.745)" fill="#d1e3f1"/>
            </g>
          </g>
        </g>
        <g id="Group_16153" data-name="Group 16153" transform="translate(8.911 93.336)" opacity="0.6">
          <g id="Group_16152" data-name="Group 16152">
            <g id="Group_16151" data-name="Group 16151" clip-path="url(#clip-path-9)">
              <path id="Path_23958" data-name="Path 23958" d="M140.486,249.292c0,1.84-26.192,3.332-58.5,3.332s-58.5-1.492-58.5-3.332,26.193-3.332,58.5-3.332,58.5,1.492,58.5,3.332" transform="translate(-23.481 -245.96)" fill="#d1e3f1"/>
            </g>
          </g>
        </g>
        <path id="Path_23959" data-name="Path 23959" d="M51.511,210.029h1.015l-3.756-9.756a12.274,12.274,0,0,1,1.411-3.58c1.552-2.711,2.723-5.874.737-5.655-1.724.19-2.94,3.84-2.856,7.394l-1.35-3.505a17.828,17.828,0,0,1-.459-4.664c.25-4.308-.307-8.434-2.391-7.309S42.87,191.162,46,195.716l.694,1.8c-2.223-3.358-6.467-6.089-8.1-4.913s1.37,2.731,4.339,3.7a11.152,11.152,0,0,1,4.184,2.314l3.28,8.519c-3.536-5.308-10.239-9.612-12.819-7.75s2.174,4.332,6.884,5.873a17.743,17.743,0,0,1,6.618,3.653Z" transform="translate(-22.87 -113.412)" fill="#1c47c1"/>
        <path id="Path_23960" data-name="Path 23960" d="M263.562,221.738a4.494,4.494,0,0,0-.291-2.8c-1.084-2.386.3-3.177,2.094-4.389s1.521-3.61-.287-5.263.351-3.758-1.2-6.5-4.321-.1-4.438,2.756c-.084,2.054-2.726,2.181-3.129,4.909-.351,2.368,2.835,3.8-.127,5.488a2.94,2.94,0,0,0-1.438,2.412,4.661,4.661,0,0,0,1.008,3.383Z" transform="translate(-158.063 -125.12)" fill="#1c47c1"/>
        <path id="Path_23961" data-name="Path 23961" d="M266.342,229.227l2.67-15.235a.245.245,0,1,0-.482-.084l-2.685,15.319Z" transform="translate(-164.964 -132.61)" fill="#0036ac"/>
        <path id="Path_23962" data-name="Path 23962" d="M280.724,219.411a5.488,5.488,0,0,0,.027-.643c-.056-3.336,1.965-3.558,4.672-4.064s3.607-3.445,2.335-6.293,2.316-4.211,1.9-8.2-5-2.311-6.582.968c-1.14,2.357-4.29,1.165-6.144,4.146-1.611,2.588,1.382,5.879-2.932,6.347a3.742,3.742,0,0,0-2.9,2.087,5.978,5.978,0,0,0-.082,5.648Z" transform="translate(-167.755 -122.794)" fill="#0172d0"/>
        <path id="Path_23963" data-name="Path 23963" d="M282.214,228.054,292.609,212.3a.311.311,0,1,0-.52-.343l-10.621,16.1Z" transform="translate(-174.658 -131.436)" fill="#1c47c1"/>
        <path id="Path_23964" data-name="Path 23964" d="M80.387,187.967a131.92,131.92,0,0,0-3.892-20.086c-2.009-6.509-4.522-10.822-7.469-12.82a.427.427,0,1,0-.48.707c5.152,3.493,8.97,14.826,11.058,32.795Z" transform="translate(-42.418 -96.173)" fill="#1c47c1"/>
        <path id="Path_23965" data-name="Path 23965" d="M82.239,162.94s3.505-.69,2.051-6.805c0,0-5.066,2.578-2.051,6.805" transform="translate(-50.437 -96.886)" fill="#0172d0"/>
        <path id="Path_23966" data-name="Path 23966" d="M75.286,177.952s-.494-3.538-6.68-2.427c0,0,2.292,5.2,6.68,2.427" transform="translate(-42.572 -108.784)" fill="#0172d0"/>
        <path id="Path_23967" data-name="Path 23967" d="M65.722,153.483s.714-3.5-5.489-4.515c0,0,.427,5.668,5.489,4.515" transform="translate(-37.376 -92.438)" fill="#0172d0"/>
        <path id="Path_23968" data-name="Path 23968" d="M91.188,189.3s3.532.537,4.232-5.71c0,0-5.639.712-4.232,5.71" transform="translate(-56.445 -113.92)" fill="#0172d0"/>
        <path id="Path_23969" data-name="Path 23969" d="M82.668,201.566s.126-3.57-6.16-3.546c0,0,1.358,5.519,6.16,3.546" transform="translate(-47.475 -122.876)" fill="#0172d0"/>
        <path id="Path_23970" data-name="Path 23970" d="M95.227,209.952s3.521.6,4.34-5.629c0,0-5.652.605-4.34,5.629" transform="translate(-58.968 -126.788)" fill="#0172d0"/>
        <path id="Path_23971" data-name="Path 23971" d="M157.2,157.977l-.012.022-7.617,14.453-2.9-5.276L110.749,186.9l-5.8-10.555L72.638,194.093H60.175L107.324,168.2l5.8,10.555,30.666-16.839-2.9-5.276Z" transform="translate(-37.34 -97.201)" fill="#ffac00"/>
        <path id="Path_23972" data-name="Path 23972" d="M165.9,160.218l-7.617,14.453-2.9-5.276-35.924,19.726-5.8-10.555L81.354,196.312H74.222l40.317-22.14,5.8,10.555Z" transform="translate(-46.056 -99.419)" fill="#fa8a00"/>
        <path id="Path_23973" data-name="Path 23973" d="M136.262,189.441l-2.087,1.436a3.24,3.24,0,0,0,.812,1.97l2.466-1.63Z" transform="translate(-83.259 -117.553)" fill="#fda893"/>
        <path id="Path_23974" data-name="Path 23974" d="M130.4,193.594a.807.807,0,0,1,.134,1.135,16.137,16.137,0,0,0-.575,4.654c.167,1.005-.591,1.078-1.008,1.037s-2.634-7.537-2.634-7.537a12.137,12.137,0,0,1,2.857-1.012c.754-.007.8,1.048,1.225,1.724" transform="translate(-78.382 -119.06)" fill="#0172d0"/>
        <path id="Path_23975" data-name="Path 23975" d="M155.013,132.221s-.227,12.244-1.529,14.661-13.769,8.229-13.769,8.229a5.58,5.58,0,0,1-1.135-2.388s3.514-3.087,4.9-4.484a30.154,30.154,0,0,1,5.17-3.912l-.317-13.913Z" transform="translate(-85.992 -80.925)" fill="#001f37"/>
        <path id="Path_23976" data-name="Path 23976" d="M137.827,187.472a7.5,7.5,0,0,0-1.164.852s.705,2.343,1.912,2.624l.9-.573a10.285,10.285,0,0,1-1.651-2.9" transform="translate(-84.803 -116.331)" fill="#043c62"/>
        <path id="Path_23977" data-name="Path 23977" d="M235.286,176.082l1.307,2.17a3.24,3.24,0,0,0,2.015-.691L237.131,175Z" transform="translate(-146.001 -108.592)" fill="#fda893"/>
        <path id="Path_23978" data-name="Path 23978" d="M239.772,179.792a.807.807,0,0,1,1.1-.3,16.118,16.118,0,0,0,4.687-.13c.969-.316,1.543.638,1.176.841-1.976,1.095-7.056,3.735-7.056,3.735a12.152,12.152,0,0,1-1.43-2.673c-.12-.745.917-.944,1.521-1.469" transform="translate(-147.835 -111.257)" fill="#0172d0"/>
        <path id="Path_23979" data-name="Path 23979" d="M168.924,116.835s13.728,5.295,15.519,7.392,7.789,15.086,7.789,15.086-1.007,1.833-2.428,1.469c0,0-3.06-4.508-4.143-6.242-1.132-1.813-3.787-3.983-5.073-7.891a125,125,0,0,1-12.925-1.173c-3.76-.612-6.37-3.313-5.457-7.012,0-.008,0-.018.009-.029a.65.65,0,0,1,.5-.435Z" transform="translate(-100.539 -72.499)" fill="#043c62"/>
        <path id="Path_23980" data-name="Path 23980" d="M233.369,175.508a6.258,6.258,0,0,0,.748,1.061,5.139,5.139,0,0,0,2.673-1.844l-.463-.915a15.788,15.788,0,0,1-2.958,1.7" transform="translate(-144.811 -107.853)" fill="#005982"/>
        <path id="Path_23981" data-name="Path 23981" d="M246.111,50.979c-.435-.1-2.229.989-2.307,1.008s-.442-.08-.81-.1-.578.105-.847.614a7.461,7.461,0,0,0-.476,1.379c-.171.082-.362.17-.566.261q.46.82.976,1.607c.308-.2.586-.385.819-.543a.9.9,0,0,0,.532.025c.442-.129.817-.272,1.035-.36l.206-.088.007,0a.958.958,0,0,0,.657-.043c.455-.153.746-.507.738-.734s-.28-.341-.28-.341a.559.559,0,0,0,.159-.417c-.026-.241-.455-.447-.455-.447a.42.42,0,0,0-.007-.491c-.18-.224-.729.021-.775.04.077-.054,1.818-1.277,1.393-1.371" transform="translate(-149.612 -31.63)" fill="#fda893"/>
        <path id="Path_23982" data-name="Path 23982" d="M245.293,55.624a.1.1,0,0,1-.1-.144l.2-.431a.1.1,0,0,1,.142-.046,1.314,1.314,0,0,0,.9.137.368.368,0,0,0,.241-.172.218.218,0,0,0,0-.164.1.1,0,0,1,.046-.135.1.1,0,0,1,.135.044.414.414,0,0,1,.011.331.546.546,0,0,1-.368.289,1.413,1.413,0,0,1-.964-.1l-.154.336a.1.1,0,0,1-.086.059" transform="translate(-152.144 -33.917)" fill="#fd896b"/>
        <path id="Path_23983" data-name="Path 23983" d="M249.248,57.73l-.008,0s-.075.033-.206.087a1.054,1.054,0,0,1-.246-.658.752.752,0,0,0-.145-.45.63.63,0,0,1-.172-.367.9.9,0,0,1,.022-.334c.009-.036.018-.069.028-.1a1,1,0,0,1,.053-.129.1.1,0,1,1,.181.092l-.01.022a.881.881,0,0,0-.075.384.453.453,0,0,0,.121.29.922.922,0,0,1,.2.566.777.777,0,0,0,.257.6" transform="translate(-154.179 -34.576)" fill="#fd896b"/>
        <path id="Path_23984" data-name="Path 23984" d="M246.508,57.314a.1.1,0,0,1-.056-.19,1.238,1.238,0,0,0,.611-.91.1.1,0,1,1,.2.008,1.42,1.42,0,0,1-.716,1.08.1.1,0,0,1-.043.013" transform="translate(-152.897 -34.822)" fill="#fd896b"/>
        <path id="Path_23985" data-name="Path 23985" d="M213.645,60.019s-5.645,3.616-7.271,3.9-6.62-.439-6.62-.439a14.291,14.291,0,0,1-1.514-.186,4.551,4.551,0,0,1-2.918-1.435c-.867-1.093-.346-2.675.144-3.929,0,0,.787.623,4.741,1.453,0,0,5.622,1.093,5.924,1.151,0,0,4.234-1.374,6.577-2.414,0,0,.507,1.612.936,1.9" transform="translate(-120.914 -35.946)" fill="#0172d0"/>
        <path id="Path_23986" data-name="Path 23986" d="M240.767,57.926l-.754.336,1.131,2.286.707-.392Z" transform="translate(-148.934 -35.944)" fill="#0056c5"/>
        <path id="Path_23987" data-name="Path 23987" d="M198.461,64.3a4.549,4.549,0,0,1-2.917-1.435c-.335-1.395-.543-2.928.015-3.309a48.3,48.3,0,0,0,2.9,4.744" transform="translate(-121.134 -36.959)" fill="#1c47c1"/>
        <path id="Path_23988" data-name="Path 23988" d="M112.774,109.017l-5.416,11.8a.926.926,0,0,1-1.228.455l-19.2-8.816a.926.926,0,0,1-.455-1.228l5.416-11.8a.925.925,0,0,1,1.228-.455l19.2,8.816a.926.926,0,0,1,.455,1.228" transform="translate(-53.605 -61.363)" fill="#001f37"/>
        <path id="Path_23989" data-name="Path 23989" d="M114.028,115.415l2.937-6.4a.926.926,0,0,0-.455-1.228l-19.2-8.816a.925.925,0,0,0-1.228.455l-2.937,6.4Z" transform="translate(-57.796 -61.363)" fill="#043c62"/>
        <path id="Path_23990" data-name="Path 23990" d="M128.4,103.991l-.859,1.871-.949-.435.834-1.819-.922-.423-.046-.021-.56-.257-.069-.031-2.43-1.116-.836,1.819-.949-.436.859-1.871a.988.988,0,0,1,1.308-.486l2.28,1.046.171.079.317.146.066.03,1.3.6a.988.988,0,0,1,.485,1.308" transform="translate(-75.462 -62.484)" fill="#ffac00"/>
        <path id="Path_23991" data-name="Path 23991" d="M133.348,105.02l-.56-.257-.069-.032a8.243,8.243,0,0,1,.233-1.045l.171.079.317.146a4.971,4.971,0,0,0-.091,1.109" transform="translate(-82.355 -64.34)" fill="#fa8a00"/>
        <rect id="Rectangle_4961" data-name="Rectangle 4961" width="0.74" height="1.045" transform="translate(46.148 40.658) rotate(-65.34)" fill="#fa8a00"/>
        <rect id="Rectangle_4962" data-name="Rectangle 4962" width="0.74" height="1.045" transform="matrix(0.417, -0.909, 0.909, 0.417, 51.126, 42.943)" fill="#fa8a00"/>
        <path id="Path_23992" data-name="Path 23992" d="M104.51,119.875l-.858,1.869a.2.2,0,0,1-.267.1l-.959-.44a.2.2,0,0,1-.1-.266l.858-1.869a.2.2,0,0,1,.267-.1l.959.44a.2.2,0,0,1,.1.268" transform="translate(-63.486 -73.935)" fill="#fa8a00"/>
        <path id="Path_23993" data-name="Path 23993" d="M105.242,119.875l-.429.934-1.324-.608.429-.934a.2.2,0,0,1,.267-.1l.959.44a.2.2,0,0,1,.1.268" transform="translate(-64.218 -73.935)" fill="#ffac00"/>
        <path id="Path_23994" data-name="Path 23994" d="M135.367,134.039l-.858,1.869a.2.2,0,0,1-.267.1l-.96-.441a.2.2,0,0,1-.1-.267l.858-1.869a.2.2,0,0,1,.267-.1l.96.441a.2.2,0,0,1,.1.268" transform="translate(-82.632 -82.724)" fill="#fa8a00"/>
        <path id="Path_23995" data-name="Path 23995" d="M136.1,134.039l-.429.934-1.326-.608.429-.934a.2.2,0,0,1,.267-.1l.96.441a.2.2,0,0,1,.1.268" transform="translate(-83.364 -82.724)" fill="#ffac00"/>
        <path id="Path_23996" data-name="Path 23996" d="M131.292,97.182a6.28,6.28,0,0,1-.611-.28.252.252,0,0,0-.039-.213.261.261,0,0,0-.425,0,2.127,2.127,0,0,0-.325.987l.275.14s-.251.311-.472.258a.362.362,0,0,1-.26-.4s-.153.271-.382.178a.421.421,0,0,1-.231-.369.349.349,0,0,1-.526-.2s-.377.147-.45-.18a3.725,3.725,0,0,1,.41-1.319,10.677,10.677,0,0,1,1.5-2.594c.129-.286.286-.627.461-1,.384.271.785.519,1.17.786l.7.481c-.35.464-.642.842-.83,1.083a4.6,4.6,0,0,1-.007.788c-.06.467.25,1.351.05,1.854" transform="translate(-79.326 -57.206)" fill="#fda893"/>
        <path id="Path_23997" data-name="Path 23997" d="M144.3,63.745l5.025-2.056s2.09-3.6.824-5.98c0,0-5.172,2.378-7.815,3.86,0,0-3.951,2.139-5.275,3.6l-4.112,6.967s1.233,1.416,2.079,1.325a54.429,54.429,0,0,0,4.066-6.03Z" transform="translate(-82.495 -34.569)" fill="#0172d0"/>
        <path id="Path_23998" data-name="Path 23998" d="M132.519,92.46a1.292,1.292,0,0,0-.556.867l2.278,1.489a2.77,2.77,0,0,0,.609-.832Z" transform="translate(-81.886 -57.374)" fill="#0056c5"/>
        <path id="Path_23999" data-name="Path 23999" d="M174.985,75.6a12.887,12.887,0,0,0,0,3.5c-2.05-.814-5.107-2.345-8.027-1.061a7.883,7.883,0,0,1-4.68.447,18.351,18.351,0,0,1,.452-5.393c.683-2.705,1.358-6.091,1.6-7.425.2-1.127.4-2.193.587-3.185q.179-.934.351-1.775h0c.66-3.215.951-5.973,1.46-6.394a20.684,20.684,0,0,1,4.759-2.36l2.228.622s2.382,1.841,2.358,3.181c-.211,11.826-.524,11.908-.753,15.5a33.2,33.2,0,0,1-.33,4.339" transform="translate(-100.673 -32.237)" fill="#0172d0"/>
        <path id="Path_24000" data-name="Path 24000" d="M168.462,102.343l-.07,0a.152.152,0,0,1,.023-.3l.039,0a14.4,14.4,0,0,0,5.138-.552,9.973,9.973,0,0,0,4.076-2.957.152.152,0,0,1,.242.182,10.084,10.084,0,0,1-4.213,3.059,14.4,14.4,0,0,1-5.236.573" transform="translate(-104.406 -61.102)" fill="#1c47c1"/>
        <path id="Path_24001" data-name="Path 24001" d="M176.994,108.843a.15.15,0,0,0-.223-.132,9.706,9.706,0,0,1-5.883,1.257.152.152,0,1,0-.044.3,7.545,7.545,0,0,0,.91.079,10.55,10.55,0,0,0,5.163-1.371.15.15,0,0,0,.077-.132" transform="translate(-105.933 -67.446)" fill="#1c47c1"/>
        <path id="Path_24002" data-name="Path 24002" d="M173.787,70.263a16.227,16.227,0,0,1-4.288,3.158c.12-.622.251-1.265.365-1.825l.245-.088Z" transform="translate(-105.178 -43.6)" fill="#1c47c1"/>
        <path id="Path_24003" data-name="Path 24003" d="M190.3,76.509l-1.363,4.011-1.676-3.83,1.212-13.1.033-.511.614-.065.06.692Z" transform="translate(-116.201 -39.101)" fill="#fff"/>
        <path id="Path_24004" data-name="Path 24004" d="M191.164,63.7l-.307.355-.4-.472.032-.511.614-.065Z" transform="translate(-118.184 -39.101)" fill="#ededed"/>
        <path id="Path_24005" data-name="Path 24005" d="M190.369,58.114l-.734,1.588L188.489,58l1.146-1.395Z" transform="translate(-116.962 -35.126)" fill="#fff"/>
        <path id="Path_24006" data-name="Path 24006" d="M184.07,53.742a2.889,2.889,0,0,1-.03-1.409,1.141,1.141,0,0,1,.113-.317c.283-.454.926-.248.926-.248a2.8,2.8,0,0,0,1.751,1.807l-1.372,2.208s-.915-.3-1.387-2.042" transform="translate(-114.156 -32.094)" fill="#1c47c1"/>
        <path id="Path_24007" data-name="Path 24007" d="M192.372,53.43a2.024,2.024,0,0,1,.6,1.774l-.389,1.639-1.076-2.208a4.729,4.729,0,0,0,.862-1.206" transform="translate(-118.837 -33.155)" fill="#1c47c1"/>
        <path id="Path_24008" data-name="Path 24008" d="M189.994,48.074l-.457,1.418-.292.905c-.052.161-.293.548-.461.541a2.821,2.821,0,0,1-2.132-1.189l.314-2.205a8.483,8.483,0,0,1,1.248-.124h0Z" transform="translate(-115.822 -29.426)" fill="#fda893"/>
        <path id="Path_24009" data-name="Path 24009" d="M192.245,48.074l-.457,1.418a3.4,3.4,0,0,1-1.508-2.065l.186-.006Z" transform="translate(-118.074 -29.426)" fill="#fd896b"/>
        <path id="Path_24010" data-name="Path 24010" d="M190.326,32.593a18.389,18.389,0,0,1,.206,2.4.034.034,0,0,0,0,.009v0c0,.184-.006.357-.02.516-.008.093-.018.189-.031.29-.022.181-.036.384-.053.6l0,.035a8.427,8.427,0,0,1-.113.949v0a3.7,3.7,0,0,1-.1.407c-.024.074-.049.147-.079.217-.384.933-.666,1.677-3.024.1-1.085-.724-2.309-.493-2.823-1.812l-.009-.023,0,0a13.566,13.566,0,0,1-.67-2.52,1.983,1.983,0,0,1,.674-1.846,5.28,5.28,0,0,1,4.439-.993,1.976,1.976,0,0,1,1.607,1.669" transform="translate(-113.915 -19.118)" fill="#fda893"/>
        <path id="Path_24011" data-name="Path 24011" d="M199.881,48.992c-.023.074-.049.147-.079.217a.686.686,0,0,1-.108,0,1.089,1.089,0,0,1-.491-.182.1.1,0,0,1-.023-.145.1.1,0,0,1,.144-.023.882.882,0,0,0,.387.143.639.639,0,0,0,.17-.011" transform="translate(-123.584 -30.306)" fill="#fd896b"/>
        <path id="Path_24012" data-name="Path 24012" d="M189.666,43.228a1.2,1.2,0,0,0,.679-.5s-.088,1.064-.94,1.057Z" transform="translate(-117.531 -26.513)" fill="#fd896b"/>
        <path id="Path_24013" data-name="Path 24013" d="M188.4,26.929c.7-.754.7-1.99-.365-2.157-1.8-.285-2.834-.641-3.927-.68s-1.638,1.2-2.763,1.511-1.836,2.276-1.476,3.393c.054.167.105.321.156.467a14.03,14.03,0,0,0,2.169,3.992l.1.134c.066.09.626.227,1.166-.666a2.545,2.545,0,0,0,.434-1.324c-1.073-.143-1.88-1.474-1.4-2.176a.851.851,0,0,1,.5-.274,1.221,1.221,0,0,1,1.281.715c.132.4.224.688.224.688l.62.05a9.589,9.589,0,0,1-.32-1.392c-.015-.371.547-.237.45-.94s-.706-.792-.443-1.064a4.18,4.18,0,0,1,2.562.235c.518.29,1.038-.512,1.038-.512" transform="translate(-111.553 -14.949)" fill="#20363c"/>
        <path id="Path_24014" data-name="Path 24014" d="M188.847,39.946a.089.089,0,0,1-.1-.049,1.4,1.4,0,0,0-.925-.67.09.09,0,0,1,.031-.178,1.554,1.554,0,0,1,1.055.768.091.091,0,0,1-.064.129" transform="translate(-116.504 -24.23)" fill="#fd896b"/>
        <path id="Path_24015" data-name="Path 24015" d="M188.722,40.18a.089.089,0,0,1-.05,0,.09.09,0,0,1-.05-.118.823.823,0,0,1,.282-.332.09.09,0,1,1,.1.148.656.656,0,0,0-.218.251.09.09,0,0,1-.067.055" transform="translate(-117.04 -24.641)" fill="#fd896b"/>
        <path id="Path_24016" data-name="Path 24016" d="M199.413,38.279c.038.2-.034.381-.161.4s-.26-.118-.3-.317.034-.38.161-.4.26.118.3.317" transform="translate(-123.45 -23.554)" fill="#20363c"/>
        <path id="Path_24017" data-name="Path 24017" d="M196.237,35.883a2.615,2.615,0,0,1,1.679-.381l0,.423a4.8,4.8,0,0,0-1.6.438.721.721,0,0,1-.085-.479" transform="translate(-121.763 -22.008)" fill="#20363c"/>
        <path id="Path_24018" data-name="Path 24018" d="M201.432,38.532a6.637,6.637,0,0,1,.7,1.707c.025.307-.8.513-.8.513Z" transform="translate(-124.929 -23.91)" fill="#fda893"/>
        <path id="Path_24019" data-name="Path 24019" d="M199.523,45.571l0,.035a8.617,8.617,0,0,1-.113.949l-.072,0a1.081,1.081,0,0,1-1.1-.938Z" transform="translate(-123.01 -28.278)" fill="#fff"/>
        <path id="Path_24020" data-name="Path 24020" d="M243.247,92.347a1.475,1.475,0,1,1,1.475-1.475,1.477,1.477,0,0,1-1.475,1.475m0-2.487a1.012,1.012,0,1,0,1.012,1.012,1.013,1.013,0,0,0-1.012-1.012" transform="translate(-150.026 -55.473)" fill="#0172d0"/>
        <path id="Path_24021" data-name="Path 24021" d="M257.238,105.982a1.475,1.475,0,1,1,1.475-1.475,1.477,1.477,0,0,1-1.475,1.475m0-2.487a1.012,1.012,0,1,0,1.012,1.012,1.013,1.013,0,0,0-1.012-1.012" transform="translate(-158.707 -63.934)" fill="#ffac00"/>
        <path id="Path_24022" data-name="Path 24022" d="M264.072,121.008a.231.231,0,0,1-.231-.231v-1.02a.231.231,0,1,1,.463,0v1.02a.231.231,0,0,1-.231.231" transform="translate(-163.719 -74.168)" fill="#0172d0"/>
        <path id="Path_24023" data-name="Path 24023" d="M264.072,125.713a.231.231,0,0,1-.231-.231v-1.02a.231.231,0,0,1,.463,0v1.02a.231.231,0,0,1-.231.231" transform="translate(-163.719 -77.088)" fill="#0172d0"/>
        <path id="Path_24024" data-name="Path 24024" d="M266.347,123.685h-.916a.231.231,0,1,1,0-.463h.916a.231.231,0,1,1,0,.463" transform="translate(-164.563 -76.462)" fill="#0172d0"/>
        <path id="Path_24025" data-name="Path 24025" d="M261.215,123.685H260.3a.231.231,0,1,1,0-.463h.916a.231.231,0,1,1,0,.463" transform="translate(-161.378 -76.462)" fill="#0172d0"/>
        <path id="Path_24026" data-name="Path 24026" d="M242.612,105.944a.231.231,0,0,1-.231-.231v-1.02a.231.231,0,0,1,.463,0v1.02a.231.231,0,0,1-.231.231" transform="translate(-150.403 -64.821)" fill="#ffac00"/>
        <path id="Path_24027" data-name="Path 24027" d="M242.612,110.648a.231.231,0,0,1-.231-.231V109.4a.231.231,0,0,1,.463,0v1.02a.231.231,0,0,1-.231.231" transform="translate(-150.403 -67.74)" fill="#ffac00"/>
        <path id="Path_24028" data-name="Path 24028" d="M244.887,108.621h-.916a.231.231,0,1,1,0-.463h.916a.231.231,0,1,1,0,.463" transform="translate(-151.246 -67.115)" fill="#ffac00"/>
        <path id="Path_24029" data-name="Path 24029" d="M239.755,108.621h-.916a.231.231,0,1,1,0-.463h.916a.231.231,0,1,1,0,.463" transform="translate(-148.062 -67.115)" fill="#ffac00"/>
        <path id="Path_24030" data-name="Path 24030" d="M99.518,37.2a1.475,1.475,0,1,1,1.475-1.475A1.477,1.477,0,0,1,99.518,37.2m0-.463a1.012,1.012,0,1,0-1.012-1.012,1.013,1.013,0,0,0,1.012,1.012" transform="translate(-60.838 -21.251)" fill="#0172d0"/>
        <path id="Path_24031" data-name="Path 24031" d="M113.673,50.033a1.475,1.475,0,1,1,1.475-1.475,1.476,1.476,0,0,1-1.475,1.475m0-.463a1.012,1.012,0,1,0-1.012-1.012,1.013,1.013,0,0,0,1.012,1.012" transform="translate(-69.622 -29.217)" fill="#ffac00"/>
        <path id="Path_24032" data-name="Path 24032" d="M118.786,32.263a.231.231,0,0,0-.231-.231h-1.02a.231.231,0,1,0,0,.463h1.02a.231.231,0,0,0,.231-.231" transform="translate(-72.789 -19.877)" fill="#0172d0"/>
        <path id="Path_24033" data-name="Path 24033" d="M123.491,32.263a.231.231,0,0,0-.231-.231h-1.02a.231.231,0,0,0,0,.463h1.02a.231.231,0,0,0,.231-.231" transform="translate(-75.709 -19.877)" fill="#0172d0"/>
        <path id="Path_24034" data-name="Path 24034" d="M121.463,34.538v-.916a.231.231,0,1,0-.463,0v.916a.231.231,0,1,0,.463,0" transform="translate(-75.084 -20.719)" fill="#0172d0"/>
        <path id="Path_24035" data-name="Path 24035" d="M121.463,29.406v-.916a.231.231,0,1,0-.463,0v.916a.231.231,0,1,0,.463,0" transform="translate(-75.084 -17.535)" fill="#0172d0"/>
        <path id="Path_24036" data-name="Path 24036" d="M90.318,53.258a.232.232,0,0,0-.232-.231h-1.02a.231.231,0,0,0,0,.463h1.02a.232.232,0,0,0,.232-.231" transform="translate(-55.124 -32.905)" fill="#ffac00"/>
        <path id="Path_24037" data-name="Path 24037" d="M95.022,53.258a.231.231,0,0,0-.231-.231H93.77a.231.231,0,0,0,0,.463h1.02a.231.231,0,0,0,.231-.231" transform="translate(-58.043 -32.905)" fill="#ffac00"/>
        <path id="Path_24038" data-name="Path 24038" d="M92.995,55.534v-.916a.231.231,0,1,0-.463,0v.916a.231.231,0,1,0,.463,0" transform="translate(-57.418 -33.748)" fill="#ffac00"/>
        <path id="Path_24039" data-name="Path 24039" d="M92.995,50.4v-.916a.231.231,0,1,0-.463,0V50.4a.231.231,0,1,0,.463,0" transform="translate(-57.418 -30.563)" fill="#ffac00"/>
        <path id="Path_24040" data-name="Path 24040" d="M228.694,20.578h-3.016a2.714,2.714,0,0,1-2.714-2.714V14.849a2.714,2.714,0,0,1,2.714-2.714h3.016a2.714,2.714,0,0,1,2.714,2.714v3.016a2.714,2.714,0,0,1-2.714,2.714" transform="translate(-138.355 -7.53)" fill="#ffac00"/>
        <path id="Path_24041" data-name="Path 24041" d="M226.969,18.658a1.137,1.137,0,1,1,2.271,0,1.137,1.137,0,1,1-2.271,0m3.646-1.13h1.032l-2.92,4.274H227.7Zm-2.242,1.13c0-.409-.134-.531-.268-.531s-.269.122-.269.531.135.531.269.531.268-.122.268-.531m1.729,2.015a1.137,1.137,0,1,1,1.135,1.191,1.095,1.095,0,0,1-1.135-1.191m1.4,0c0-.409-.134-.531-.268-.531s-.268.122-.268.531.134.531.268.531.268-.122.268-.531" transform="translate(-140.84 -10.839)" fill="#fff"/>
        <path id="Path_24042" data-name="Path 24042" d="M60.888,112.219H57.873a2.714,2.714,0,0,1-2.714-2.714V106.49a2.714,2.714,0,0,1,2.714-2.714h3.016A2.714,2.714,0,0,1,63.6,106.49v3.016a2.714,2.714,0,0,1-2.714,2.714" transform="translate(-34.228 -64.396)" fill="#ffac00"/>
        <path id="Path_24043" data-name="Path 24043" d="M63.75,112.507v.649h-.825v-.62a3.442,3.442,0,0,1-1.5-.408l.444-1.006a2.807,2.807,0,0,0,1.351.373c.392,0,.532-.082.532-.223,0-.515-2.263-.1-2.264-1.623,0-.661.478-1.217,1.437-1.352v-.637h.825v.625a3.055,3.055,0,0,1,1.187.338l-.414,1a2.525,2.525,0,0,0-1.14-.3c-.4,0-.532.117-.532.258,0,.491,2.263.08,2.264,1.588,0,.631-.455,1.181-1.361,1.34" transform="translate(-38.115 -66.806)" fill="#fff"/>
      </g>
    </g>
  </g>
</svg>
