<svg id="Group_18091" data-name="Group 18091" xmlns="http://www.w3.org/2000/svg" xmlns:xlink="http://www.w3.org/1999/xlink" width="30.82" height="35" viewBox="0 0 30.82 35">
  <defs>
    <clipPath id="clip-path">
      <rect id="Rectangle_6197" data-name="Rectangle 6197" width="30.82" height="35" fill="none"/>
    </clipPath>
  </defs>
  <g id="Group_18091-2" data-name="Group 18091" clip-path="url(#clip-path)">
    <path id="Path_25574" data-name="Path 25574" d="M27.832,0H3.018A3,3,0,0,0,.023,2.994V32.005A2.994,2.994,0,0,0,3.018,35H27.832a2.994,2.994,0,0,0,2.994-2.995V2.994A2.994,2.994,0,0,0,27.832,0" transform="translate(-0.006)" fill="#e49a61"/>
    <rect id="Rectangle_6189" data-name="Rectangle 6189" width="20.781" height="23.516" transform="translate(5.02 4.458)" fill="#e2e2e2"/>
    <path id="Path_25575" data-name="Path 25575" d="M39.742,9.044a1.1,1.1,0,0,0-1.094,1.094v4a1.093,1.093,0,0,0,1.094,1.094h1.545V9.044Z" transform="translate(-10.467 -2.449)" fill="#7a8e9b"/>
    <path id="Path_25576" data-name="Path 25576" d="M38.648,28.415v4A1.094,1.094,0,0,0,39.742,33.5h1.545V27.321H39.742a1.094,1.094,0,0,0-1.094,1.094" transform="translate(-10.467 -7.399)" fill="#7a8e9b"/>
    <path id="Path_25577" data-name="Path 25577" d="M1.545,27.321H0V33.5H1.545A1.093,1.093,0,0,0,2.639,32.41v-4a1.093,1.093,0,0,0-1.094-1.094" transform="translate(0 -7.399)" fill="#7a8e9b"/>
    <path id="Path_25578" data-name="Path 25578" d="M1.545,9.044H0v6.183H1.545a1.093,1.093,0,0,0,1.094-1.094v-4A1.094,1.094,0,0,0,1.545,9.044" transform="translate(0 -2.449)" fill="#7a8e9b"/>
    <path id="Path_25579" data-name="Path 25579" d="M20.536,41.331a1.641,1.641,0,1,0,1.641,1.641,1.64,1.64,0,0,0-1.641-1.641" transform="translate(-5.117 -11.194)" fill="#fddc85"/>
    <path id="Path_25580" data-name="Path 25580" d="M14.469,42.831H12.478a.547.547,0,0,0,0,1.094h1.991a.547.547,0,0,0,0-1.094" transform="translate(-3.231 -11.6)" fill="#fddc85"/>
    <path id="Path_25581" data-name="Path 25581" d="M7.922,42.831H5.931a.547.547,0,0,0,0,1.094H7.922a.547.547,0,0,0,0-1.094" transform="translate(-1.458 -11.6)" fill="#fddc85"/>
    <path id="Path_25582" data-name="Path 25582" d="M28.667,42.831H26.677a.547.547,0,0,0,0,1.094h1.991a.547.547,0,1,0,0-1.094" transform="translate(-7.077 -11.6)" fill="#fddc85"/>
    <path id="Path_25583" data-name="Path 25583" d="M35.215,42.831H33.224a.547.547,0,1,0,0,1.094h1.991a.547.547,0,1,0,0-1.094" transform="translate(-8.85 -11.6)" fill="#fddc85"/>
    <rect id="Rectangle_6190" data-name="Rectangle 6190" width="10.506" height="1.094" transform="translate(7.512 8.028)" fill="#525c6b"/>
    <rect id="Rectangle_6191" data-name="Rectangle 6191" width="4.858" height="1.094" transform="translate(7.512 11.915)" fill="#525c6b"/>
    <rect id="Rectangle_6192" data-name="Rectangle 6192" width="8.686" height="1.094" transform="translate(14.622 11.915)" fill="#525c6b"/>
    <rect id="Rectangle_6193" data-name="Rectangle 6193" width="8.458" height="1.094" transform="translate(7.512 15.803)" fill="#525c6b"/>
    <rect id="Rectangle_6194" data-name="Rectangle 6194" width="3.535" height="1.094" transform="translate(18.451 15.803)" fill="#525c6b"/>
    <rect id="Rectangle_6195" data-name="Rectangle 6195" width="5.069" height="1.094" transform="translate(7.512 19.69)" fill="#525c6b"/>
    <rect id="Rectangle_6196" data-name="Rectangle 6196" width="7.992" height="1.094" transform="translate(15.315 19.69)" fill="#525c6b"/>
    <path id="Path_25584" data-name="Path 25584" d="M14.125,34.881H23.96a1.213,1.213,0,1,0,0-2.425H14.125a1.213,1.213,0,1,0,0,2.425" transform="translate(-3.497 -8.79)" fill="#525c6b"/>
  </g>
</svg>
