<svg xmlns="http://www.w3.org/2000/svg" xmlns:xlink="http://www.w3.org/1999/xlink" width="625.38" height="583.846" viewBox="0 0 625.38 583.846">
  <defs>
    <clipPath id="clip-path">
      <rect id="Rectangle_6526" data-name="Rectangle 6526" width="625.38" height="583.845" fill="none"/>
    </clipPath>
  </defs>
  <g id="Group_18912" data-name="Group 18912" transform="translate(0 -0.005)" opacity="0.4">
    <g id="Group_18911" data-name="Group 18911" transform="translate(0 0.005)" clip-path="url(#clip-path)">
      <path id="Path_28007" data-name="Path 28007" d="M376.854,191.158s-5.983-16.528.991-27.881,32.048-27.473,24.973-41.406-25.327-13.419-31.629-5.405-1.306,15.134-6.057,16.71-32.912,6.537-32.9-9.985S347.47,81.7,371.543,77.861s56.266-7.628,67.264,22.966.659,44.486-15.4,54.793-5.753,27.755-11.631,31.082-33.483,9.858-34.921,4.456" transform="translate(-200.798 -45.518)" fill="#ff8548"/>
      <path id="Path_28008" data-name="Path 28008" d="M439.8,413.352c.2-13.263,6.772-22.363,18.454-23.854s22.181,3.276,27.039,17.935c3.706,11.179-9.957,22.883-21.64,24.373s-24.027-6.678-23.854-18.454" transform="translate(-265.815 -235.257)" fill="#ff8548"/>
      <path id="Path_28009" data-name="Path 28009" d="M425.249,105.693C420.328,92,410.893,83.987,396.4,81.194c-12.382-2.389-26.414-.514-38.591,1.428a41.579,41.579,0,0,0-4.328.934c-21.865,5.985-35.117,29.18-35.121,44.557a10.089,10.089,0,0,0,4.229,8.668c4.328,3.125,11.156,3.56,16.125,3.374a55.1,55.1,0,0,0,12.758-1.907,3.1,3.1,0,0,0,1.772-1.345,9.166,9.166,0,0,0,.763-4.209c.131-3.117.289-7,3.6-11.207a15.107,15.107,0,0,1,8.414-5,21.146,21.146,0,0,1,6.979-.463,19.737,19.737,0,0,1,15.966,10.847c4.835,9.522-5.582,20.152-14.771,29.528-4.13,4.213-8.031,8.2-10.195,11.722-6.88,11.2-1.155,27.6-1.009,28.012a2.411,2.411,0,0,0,1.546,1.511,12.887,12.887,0,0,0,4.723.673c9,0,24.832-4.257,28.883-6.551a3.1,3.1,0,0,0,.269-.17c2.022-1.4,1.943-4.6,1.84-8.608-.17-6.721-.4-15.931,9.53-22.308,9.53-6.116,15.053-12.244,17.913-19.867,3.493-9.328,2.694-20.813-2.449-35.114m2.148,35c-2.832,7.556-8.316,13.632-17.787,19.709-10.084,6.476-9.85,15.788-9.676,22.585.1,4.071.186,7.287-1.947,8.494-.379.214-.835.439-1.357.669-5.72,2.528-19.4,5.835-27.368,5.831a12.692,12.692,0,0,1-4.6-.641,2.117,2.117,0,0,1-1.361-1.305l0-.012c-.059-.166-5.875-16.588.977-27.743,2.144-3.493,6.033-7.461,10.151-11.662,9.265-9.455,19.768-20.172,14.827-29.9a20.045,20.045,0,0,0-16.22-11.017c-.724-.071-1.44-.107-2.152-.107a21.214,21.214,0,0,0-3.98.372,15.81,15.81,0,0,0-9.546,5.321c-3.375,4.292-3.545,8.395-3.668,11.393-.075,1.844-.134,3.335-.886,4.3a2.874,2.874,0,0,1-1.428.961,55.23,55.23,0,0,1-12.672,1.887c-4.917.182-11.674-.241-15.923-3.311a9.8,9.8,0,0,1-4.1-8.41c.008-14.756,12.3-36.763,32.724-43.587a40.038,40.038,0,0,1,6.46-1.586c26.937-4.3,56.555-6.432,67.086,22.862,5.115,14.23,5.914,25.643,2.449,34.9" transform="translate(-192.418 -48.396)" fill="#66192d"/>
      <path id="Path_28010" data-name="Path 28010" d="M471.736,412.3c-4.411-13.312-14.075-19.721-27.209-18.043-.653.083-1.29.19-1.915.324a19.411,19.411,0,0,0-11.73,7.247c-3.141,4.138-4.854,9.823-4.953,16.437a17.1,17.1,0,0,0,6,13.075,22.986,22.986,0,0,0,15.2,5.72,22.711,22.711,0,0,0,2.836-.178,27.427,27.427,0,0,0,9.277-3.078,28.39,28.39,0,0,0,10.547-9.463c2.544-4.043,3.22-8.209,1.946-12.042m-2.215,11.872a28.5,28.5,0,0,1-11.848,10.068,26.225,26.225,0,0,1-7.75,2.322,22.692,22.692,0,0,1-17.786-5.459,16.8,16.8,0,0,1-5.887-12.833c.1-6.547,1.788-12.165,4.89-16.247a18.949,18.949,0,0,1,10.468-6.879,23.44,23.44,0,0,1,2.959-.57,30.931,30.931,0,0,1,3.948-.257c10.954,0,19.016,6.306,22.917,18.083,1.242,3.742.582,7.813-1.911,11.773" transform="translate(-257.43 -238.133)" fill="#66192d"/>
      <path id="Path_28011" data-name="Path 28011" d="M897.35,89.787s-1.639-14.044,5.913-21.65,30.157-15.608,27.184-27.822-17.36-15.174-23.771-10.059-3.811,11.61-7.822,11.969-26.976-.945-23.927-13.881S894.506-1.336,914.065.091s45.464,4.393,48.44,30.376-7.68,34.956-22.155,40.068-9.618,20.674-14.835,22.2-28.035,1.55-28.166-2.944" transform="translate(-528.637 -0.005)" fill="#553e93"/>
      <path id="Path_28012" data-name="Path 28012" d="M912.221,266.727c2.6-10.349,9.422-16.264,18.846-15.278s16.765,6.651,17.869,19.025c.842,9.437-12.013,16.084-21.436,15.1s-17.584-9.656-15.278-18.846" transform="translate(-551.108 -151.913)" fill="#553e93"/>
      <path id="Path_28013" data-name="Path 28013" d="M950.944,31.818c-1.333-11.627-7.244-19.642-18.079-24.5-9.253-4.15-20.587-5.269-30.481-5.989a32.818,32.818,0,0,0-3.576-.063c-18.217.661-32.863,16.374-35.695,28.416a8.118,8.118,0,0,0,1.716,7.568c5.182,5.974,18.918,6.777,22.347,6.468a2.463,2.463,0,0,0,1.634-.728,7.351,7.351,0,0,0,1.373-3.153c.676-2.417,1.515-5.428,4.882-8.114a12.138,12.138,0,0,1,7.52-2.37,16.989,16.989,0,0,1,5.542.926,15.866,15.866,0,0,1,10.5,11.433c2.033,8.347-8.082,14.752-17.007,20.4-4.007,2.54-7.8,4.937-10.143,7.3-3.924,3.956-5.337,9.661-5.823,13.755a38.016,38.016,0,0,0-.127,8,1.934,1.934,0,0,0,.934,1.468c2.524,1.84,9.712,2.512,16.216,2.512,4.846,0,9.313-.376,11.18-.922a2.326,2.326,0,0,0,.233-.083c1.851-.716,2.378-3.24,3.038-6.4,1.1-5.3,2.619-12.552,11.571-15.713,8.589-3.034,14.044-6.812,17.688-12.256,4.454-6.662,5.946-15.8,4.553-27.949m-4.767,27.8c-3.612,5.4-9.027,9.146-17.561,12.161-9.091,3.208-10.622,10.543-11.737,15.9-.669,3.208-1.2,5.74-3.09,6.294a11.883,11.883,0,0,1-1.195.273c-6.148,1.147-22.13.977-25.979-1.824a1.7,1.7,0,0,1-.827-1.274v-.012a37.844,37.844,0,0,1,.123-7.944c.486-4.051,1.879-9.7,5.752-13.6,2.326-2.342,6.1-4.731,10.1-7.263,9-5.7,19.195-12.153,17.122-20.678a16.134,16.134,0,0,0-10.673-11.619,17.252,17.252,0,0,0-4.846-.922c-.238-.012-.471-.016-.7-.016a12.437,12.437,0,0,0-7.754,2.425,14.382,14.382,0,0,0-4.973,8.244c-.4,1.432-.724,2.591-1.491,3.208a2.3,2.3,0,0,1-1.29.487c-3.4.3-17.015-.479-22.13-6.381a7.888,7.888,0,0,1-1.661-7.342c2.718-11.544,16.381-26.5,33.618-28.1,0,0,0,0,0,0a32.082,32.082,0,0,1,5.38-.055c21.889,1.594,45.474,5.38,48.323,30.263,1.385,12.082-.091,21.165-4.51,27.771" transform="translate(-521.495 -0.754)" fill="#66192d"/>
      <path id="Path_28014" data-name="Path 28014" d="M937.378,271.841c-1-11.239-7.39-18.035-17.984-19.143-.534-.055-1.057-.087-1.575-.095,0,0,0,0,0,0-8.458-.19-14.9,5.491-17.406,15.472a13.753,13.753,0,0,0,2.287,11.342,18.389,18.389,0,0,0,15.052,7.762,23.965,23.965,0,0,0,15.888-6.266c2.738-2.7,4.031-5.835,3.742-9.071m-3.924,8.889a22.952,22.952,0,0,1-11.129,5.7,21.129,21.129,0,0,1-6.5.4,18.259,18.259,0,0,1-12.92-7.552,13.514,13.514,0,0,1-2.247-11.136c1.282-5.107,3.64-9.194,6.82-11.821a15.192,15.192,0,0,1,9.443-3.45c.158-.008.324-.012.487-.012a18.255,18.255,0,0,1,1.958.1c10.46,1.092,16.766,7.809,17.755,18.906.281,3.161-.985,6.227-3.667,8.869" transform="translate(-543.968 -152.672)" fill="#66192d"/>
      <path id="Path_28015" data-name="Path 28015" d="M1148.569,389.564s-.6-14.127,7.489-21.156,31.223-13.35,29.155-25.748-16.2-16.41-22.967-11.78-4.654,11.3-8.681,11.36-26.833-2.925-22.842-15.6,21.708-28.159,41.109-25.3,45.018,7.723,46.076,33.855-10.229,34.3-25.041,38.331-11.112,19.911-16.426,21.046-28.073-.515-27.873-5.007" transform="translate(-683.127 -181.922)" fill="#ffba41"/>
      <path id="Path_28016" data-name="Path 28016" d="M1151.73,564.951c3.35-10.131,10.593-15.527,19.918-13.852s16.231,7.866,16.422,20.287c.146,9.473-13.163,15.157-22.488,13.482s-16.826-10.923-13.852-19.918" transform="translate(-695.705 -332.904)" fill="#ffba41"/>
      <path id="Path_28017" data-name="Path 28017" d="M1206.266,335.7c-.475-11.694-5.784-20.12-16.228-25.762-8.925-4.818-20.144-6.769-29.959-8.213a33.4,33.4,0,0,0-3.517-.328c-18.237-.7-34.018,13.909-37.732,25.714a8.12,8.12,0,0,0,1.155,7.675c4.727,6.341,18.376,8.153,21.809,8.094a2.48,2.48,0,0,0,1.685-.605,7.379,7.379,0,0,0,1.6-3.042c.854-2.362,1.911-5.3,5.467-7.734a12.164,12.164,0,0,1,7.675-1.812,17.014,17.014,0,0,1,5.459,1.329,15.874,15.874,0,0,1,9.633,12.177c1.416,8.474-9.142,14.119-18.459,19.1-4.186,2.239-8.141,4.352-10.654,6.535-4.205,3.655-6.029,9.241-6.82,13.288a38.336,38.336,0,0,0-.712,7.963,1.939,1.939,0,0,0,.823,1.535c3.188,2.7,14.863,3.936,22.146,3.936a27.918,27.918,0,0,0,5.06-.336,2.078,2.078,0,0,0,.237-.063c1.9-.582,2.607-3.062,3.5-6.163,1.491-5.2,3.533-12.327,12.695-14.823,8.79-2.393,14.507-5.76,18.538-10.923,4.937-6.314,7.093-15.322,6.6-27.538m-6.8,27.38c-4,5.115-9.672,8.458-18.4,10.836-9.3,2.532-11.37,9.736-12.877,15-.9,3.149-1.614,5.633-3.541,6.045a12.362,12.362,0,0,1-1.23.19c-6.231.684-22.13-.661-25.758-3.734a1.689,1.689,0,0,1-.732-1.329v-.012a38.176,38.176,0,0,1,.708-7.916c.783-4,2.587-9.53,6.737-13.138,2.492-2.164,6.432-4.269,10.606-6.5,9.392-5.02,20.037-10.709,18.593-19.369a16.133,16.133,0,0,0-9.791-12.366A17.151,17.151,0,0,0,1159,329.5h0a15.3,15.3,0,0,0-1.84-.111,11.994,11.994,0,0,0-6.761,1.891,14.4,14.4,0,0,0-5.562,7.861c-.5,1.4-.91,2.524-1.721,3.086a2.3,2.3,0,0,1-1.325.392c-3.422.059-16.932-1.729-21.6-7.991a7.872,7.872,0,0,1-1.116-7.441c3.564-11.322,18.312-25.251,35.64-25.552a32.406,32.406,0,0,1,5.325.34c21.711,3.2,44.956,8.711,45.969,33.733.491,12.153-1.65,21.105-6.543,27.368" transform="translate(-675.935 -182.149)" fill="#66192d"/>
      <path id="Path_28018" data-name="Path 28018" d="M1159.9,551.5c-.522-.091-1.036-.162-1.547-.214-8.43-.815-15.278,4.375-18.514,14.155a13.759,13.759,0,0,0,1.444,11.48,18.54,18.54,0,0,0,12.505,8.6,20.085,20.085,0,0,0,3.477.3,23.914,23.914,0,0,0,4.379-.415,22.874,22.874,0,0,0,10.385-4.719c2.927-2.488,4.451-5.523,4.4-8.774-.174-11.279-6.041-18.53-16.528-20.413m11.963,28.99a22.946,22.946,0,0,1-11.54,4.866,21.049,21.049,0,0,1-6.488-.083,18.262,18.262,0,0,1-12.331-8.486,14.13,14.13,0,0,1-2.069-7.24,12.765,12.765,0,0,1,.649-4.027c1.654-5,4.3-8.9,7.671-11.286a15.11,15.11,0,0,1,8.873-2.773c.273,0,.546.008.823.02a19.634,19.634,0,0,1,2.405.273c10.349,1.859,16.144,9.02,16.315,20.164.051,3.173-1.44,6.136-4.308,8.573" transform="translate(-688.517 -333.146)" fill="#66192d"/>
      <path id="Path_28019" data-name="Path 28019" d="M1301.542,102.445s-.364-8.543,4.529-12.794,18.881-8.073,17.631-15.57-9.8-9.923-13.889-7.124-2.814,6.832-5.249,6.87-16.226-1.769-13.813-9.435,13.128-17.028,24.859-15.3,27.223,4.671,27.863,20.473-6.185,20.74-15.142,23.18-6.72,12.04-9.933,12.726-16.976-.311-16.855-3.028" transform="translate(-779.958 -29.548)" fill="#ff8548"/>
      <path id="Path_28020" data-name="Path 28020" d="M1303.454,208.506c2.026-6.126,6.406-9.389,12.044-8.376s9.815,4.756,9.931,12.268c.089,5.729-7.959,9.166-13.6,8.153s-10.175-6.6-8.376-12.044" transform="translate(-787.565 -120.85)" fill="#ff8548"/>
      <path id="Path_28021" data-name="Path 28021" d="M1336.433,69.876c-.288-7.073-3.5-12.169-9.815-15.579-5.4-2.916-12.18-4.094-18.114-4.969a20.356,20.356,0,0,0-2.168-.2h0c-11.01-.4-20.528,8.422-22.775,15.551a4.917,4.917,0,0,0,.7,4.64c2.86,3.833,11.116,4.929,13.189,4.894a1.47,1.47,0,0,0,1.017-.368,4.445,4.445,0,0,0,.969-1.84,8.465,8.465,0,0,1,3.3-4.676,7.356,7.356,0,0,1,4.64-1.092,10.245,10.245,0,0,1,3.3.8,9.6,9.6,0,0,1,5.827,7.362c.854,5.123-5.53,8.537-11.164,11.548A37.654,37.654,0,0,0,1298.9,89.9c-2.544,2.207-3.647,5.59-4.126,8.035a23.167,23.167,0,0,0-.431,4.818,1.173,1.173,0,0,0,.5.926c1.927,1.634,8.988,2.382,13.391,2.382a16.813,16.813,0,0,0,3.062-.206,1.419,1.419,0,0,0,.139-.04c1.147-.344,1.578-1.847,2.12-3.727.9-3.145,2.136-7.453,7.678-8.96,5.313-1.448,8.771-3.485,11.208-6.607,2.986-3.818,4.288-9.265,3.991-16.651m-4.114,16.556c-2.413,3.094-5.847,5.111-11.128,6.551-5.625,1.531-6.875,5.887-7.785,9.067-.546,1.907-.977,3.41-2.144,3.659a7.087,7.087,0,0,1-.732.111c-3.758.419-13.387-.4-15.587-2.255a1.033,1.033,0,0,1-.443-.807v0a23.072,23.072,0,0,1,.431-4.791c.471-2.417,1.563-5.76,4.071-7.944a38.108,38.108,0,0,1,6.413-3.928c5.681-3.038,12.117-6.476,11.247-11.714a9.752,9.752,0,0,0-5.922-7.477,10.429,10.429,0,0,0-2.888-.771,9.7,9.7,0,0,0-1.116-.067,7.24,7.24,0,0,0-4.086,1.143,8.7,8.7,0,0,0-3.363,4.751,3.812,3.812,0,0,1-1.036,1.867,1.412,1.412,0,0,1-.807.237h-.091c-2.2,0-10.187-1.1-12.972-4.834a4.76,4.76,0,0,1-.672-4.5c2.152-6.844,11.053-15.25,21.513-15.448a18.965,18.965,0,0,1,3.26.2c13.126,1.934,27.186,5.265,27.795,20.4.3,7.35-.993,12.762-3.956,16.552" transform="translate(-775.609 -29.689)" fill="#66192d"/>
      <path id="Path_28022" data-name="Path 28022" d="M1308.4,200.373c-.312-.055-.625-.1-.93-.131-5.1-.495-9.249,2.643-11.2,8.557a8.333,8.333,0,0,0,.874,6.943,11.2,11.2,0,0,0,7.564,5.2,11.82,11.82,0,0,0,2.1.182,14.207,14.207,0,0,0,2.631-.253,13.78,13.78,0,0,0,6.3-2.852,6.8,6.8,0,0,0,2.662-5.3c-.107-6.82-3.655-11.207-10-12.343m7.236,17.529a13.879,13.879,0,0,1-6.97,2.939,12.813,12.813,0,0,1-3.932-.047,11.05,11.05,0,0,1-7.457-5.131,8.168,8.168,0,0,1-.858-6.812,13.258,13.258,0,0,1,4.636-6.828,9.137,9.137,0,0,1,5.368-1.677c.166,0,.336,0,.5.012a11.434,11.434,0,0,1,1.448.166c6.258,1.124,9.763,5.455,9.866,12.192a6.639,6.639,0,0,1-2.6,5.186" transform="translate(-783.219 -120.998)" fill="#66192d"/>
      <path id="Path_28023" data-name="Path 28023" d="M356.956,696s-6.84-9.841-4.235-18.545,16.3-23.721,9.195-31.661-19.041-4.4-21.788,1.985,1.793,10.2-1.061,12.072-20.539,10.078-23.431-.809,2.769-30.009,17.957-36.762,35.736-14.892,48.347,3.338,8.234,29.2-.54,38.8,1.076,19.3-2.214,22.519S358.85,699.3,356.956,696" transform="translate(-190.328 -371.402)" fill="#ffba41"/>
      <path id="Path_28024" data-name="Path 28024" d="M431.016,844.28c-2.2-8.773.541-15.922,7.977-18.953s15.189-1.731,20.961,7.076c4.4,6.717-2.548,16.823-9.985,19.854s-17-.187-18.953-7.977" transform="translate(-260.061 -497.938)" fill="#ffba41"/>
      <path id="Path_28025" data-name="Path 28025" d="M373.9,631.146c-5.646-8.157-13.264-11.781-23.3-11.085-8.577.6-17.493,4.292-25.176,7.71a27.614,27.614,0,0,0-2.706,1.389c-13.347,7.781-18,25.374-15.313,35.5a6.886,6.886,0,0,0,4.312,4.969c3.395,1.3,7.972.392,11.212-.6a37.75,37.75,0,0,0,8.074-3.5,2.114,2.114,0,0,0,.93-1.195,6.271,6.271,0,0,0-.233-2.908,11.835,11.835,0,0,1,.407-8.015,10.268,10.268,0,0,1,4.668-4.771,14.453,14.453,0,0,1,4.513-1.531A13.439,13.439,0,0,1,353.7,651.46c4.858,5.424-.142,14.253-4.553,22.047-1.982,3.5-3.853,6.8-4.664,9.51-2.567,8.585,4.079,18.388,4.249,18.633a1.645,1.645,0,0,0,1.286.724,4.312,4.312,0,0,0,.569.036c2.951,0,8.3-2.488,10.567-3.612,4.3-2.132,8.494-4.735,9.973-6.187a1.718,1.718,0,0,0,.142-.158c1.092-1.278.479-3.374-.292-6-1.29-4.4-3.058-10.424,2.369-16.37,5.206-5.7,7.774-10.7,8.319-16.232.665-6.757-1.875-14.186-7.769-22.707m7.552,22.688c-.542,5.475-3.09,10.44-8.264,16.1-5.511,6.033-3.723,12.129-2.417,16.58.783,2.662,1.4,4.767.21,5.934a9.764,9.764,0,0,1-.819.708,59.5,59.5,0,0,1-9.1,5.44c-5.091,2.528-9.106,3.826-11.013,3.556a1.443,1.443,0,0,1-1.128-.617l0-.012c-.067-.095-6.781-9.9-4.221-18.451.8-2.678,2.67-5.974,4.644-9.463,4.447-7.857,9.487-16.758,4.526-22.3a13.584,13.584,0,0,0-10.242-4.613,14.744,14.744,0,0,0-2.378.2,14.588,14.588,0,0,0-4,1.25,10.765,10.765,0,0,0-5.352,5.178,12.191,12.191,0,0,0-.419,8.149,5.275,5.275,0,0,1,.17,2.991,1.953,1.953,0,0,1-.771.882,37.352,37.352,0,0,1-8.019,3.469c-3.208.981-7.734,1.887-11.072.609a6.68,6.68,0,0,1-4.174-4.822c-2.587-9.728,1.658-26.4,13.937-34.473a27.587,27.587,0,0,1,3.956-2.164c17-7.556,36.139-14.155,48.216,3.3,5.863,8.478,8.391,15.856,7.73,22.561" transform="translate(-185.348 -374.716)" fill="#66192d"/>
      <path id="Path_28026" data-name="Path 28026" d="M451.919,837.949c-5.242-8-12.73-10.523-21.093-7.117-.412.17-.815.352-1.2.546-4.925,2.488-7.576,7.1-7.576,12.94a23.11,23.11,0,0,0,.732,5.594,11.665,11.665,0,0,0,6.243,7.564,15.431,15.431,0,0,0,6.955,1.634,15.651,15.651,0,0,0,5.906-1.147,18.576,18.576,0,0,0,5.554-3.636,0,0,0,0,0,0,0,19.336,19.336,0,0,0,5.305-8.1,9.506,9.506,0,0,0-.831-8.276m.621,8.213a19.4,19.4,0,0,1-6.049,8.715,17.816,17.816,0,0,1-4.687,2.884,15.484,15.484,0,0,1-12.679-.479A11.455,11.455,0,0,1,423,849.861a18.611,18.611,0,0,1,.372-11.563,12.91,12.91,0,0,1,5.684-6.365,16.137,16.137,0,0,1,1.855-.9c8.252-3.363,15.65-.866,20.828,7.034a9.3,9.3,0,0,1,.8,8.094" transform="translate(-255.087 -501.264)" fill="#66192d"/>
      <path id="Path_28027" data-name="Path 28027" d="M1396.4,795.708s3.438-7.829,9.7-9.489,20.506,1.074,22.688-6.207-4.42-13.224-9.328-12.515-5.538,4.893-7.74,3.854-13.786-8.739-8.241-14.557,19.288-9.5,29.058-2.777,22.379,16.19,15.989,30.656-14.693,15.892-23.808,14.134-11.338,7.847-14.525,7.047-15.1-7.761-13.8-10.146" transform="translate(-843.926 -453.547)" fill="#ff8548"/>
      <path id="Path_28028" data-name="Path 28028" d="M1363.7,885.608c4.518-4.606,9.888-5.606,14.5-2.211s6.714,8.6,3.508,15.389c-2.445,5.181-11.185,4.72-15.8,1.326s-6.223-10.413-2.211-14.5" transform="translate(-822.838 -532.709)" fill="#ff8548"/>
      <path id="Path_28029" data-name="Path 28029" d="M1440.068,763.562c-3.561-5-9.131-9.044-14.075-12.444a19.56,19.56,0,0,0-1.845-1.124c-9.706-5.225-22.154-1.5-27.311,3.912a4.9,4.9,0,0,0-1.416,4.471c.875,4.7,7.8,9.32,9.681,10.209a1.488,1.488,0,0,0,1.078.117,4.421,4.421,0,0,0,1.677-1.224,8.426,8.426,0,0,1,5.027-2.74,7.342,7.342,0,0,1,4.644,1.063,10.145,10.145,0,0,1,2.612,2.174,9.588,9.588,0,0,1,1.986,9.176c-1.491,4.977-8.727,5.227-15.109,5.447a37.747,37.747,0,0,0-7.522.708c-3.261.864-5.738,3.412-7.245,5.4a23.127,23.127,0,0,0-2.509,4.134,1.175,1.175,0,0,0,.036,1.052c1.32,3.018,11.135,8.534,13.809,9.2.054.013.109.022.16.031a.706.706,0,0,0,.09.013c1.142.108,2.167-1.023,3.44-2.429,2.2-2.423,5.2-5.747,10.84-4.662,5.409,1.044,9.411.738,12.976-.987,4.36-2.111,7.931-6.427,10.918-13.19,2.861-6.473,2.226-12.461-1.942-18.307m1.8,18.246c-2.972,6.725-6.52,11.015-10.843,13.11-3.535,1.712-7.506,2.013-12.879.976-5.722-1.1-8.765,2.259-10.987,4.712-1.327,1.468-2.374,2.624-3.535,2.336a6.878,6.878,0,0,1-.706-.222c-3.559-1.278-11.842-6.257-13-8.893a1.035,1.035,0,0,1-.044-.918l0,0a22.739,22.739,0,0,1,2.494-4.108c1.489-1.965,3.94-4.487,7.156-5.34a37.932,37.932,0,0,1,7.489-.7c6.438-.222,13.73-.471,15.255-5.556a9.756,9.756,0,0,0-2.016-9.322,10.49,10.49,0,0,0-2.266-1.97,8.358,8.358,0,0,0-3.7-1.351,5.978,5.978,0,0,0-1.429.028,8.713,8.713,0,0,0-5.115,2.783,3.735,3.735,0,0,1-1.756,1.217,1.368,1.368,0,0,1-.825-.138c-1.864-.879-8.728-5.45-9.6-10.094a4.776,4.776,0,0,1,1.38-4.34c4.949-5.2,16.652-8.821,26.131-4.382a19.366,19.366,0,0,1,2.823,1.614c10.932,7.522,22.08,16.709,15.963,30.563" transform="translate(-839.894 -451.78)" fill="#66192d"/>
      <path id="Path_28030" data-name="Path 28030" d="M1371.656,880.544c-.26-.192-.525-.371-.792-.532a9.64,9.64,0,0,0-4.191-1.441c-3.238-.306-6.606,1.116-9.623,4.193a8.322,8.322,0,0,0-2.278,6.615,11.2,11.2,0,0,0,4.5,8,13.217,13.217,0,0,0,4.291,2.027,15.147,15.147,0,0,0,2.636.487,12.678,12.678,0,0,0,4.266-.28,6.791,6.791,0,0,0,4.726-3.587c2.912-6.17,1.655-11.669-3.532-15.485m3.391,15.416a6.644,6.644,0,0,1-4.626,3.5,13.872,13.872,0,0,1-7.545-.427,12.716,12.716,0,0,1-3.515-1.783,11.036,11.036,0,0,1-4.432-7.889,8.175,8.175,0,0,1,2.231-6.5,13.3,13.3,0,0,1,7.173-4.083,9.216,9.216,0,0,1,5.989,1.086,11.713,11.713,0,0,1,1.24.8c5.123,3.766,6.363,9.2,3.486,15.29" transform="translate(-818.805 -530.985)" fill="#66192d"/>
      <path id="Path_28031" data-name="Path 28031" d="M1438.1,481.236s4.642-7.181,11.092-7.819,20.072,4.331,23.388-2.51-2.254-13.759-7.213-13.842-6.247,3.947-8.255,2.57-12.216-10.826-5.814-15.685,20.556-6.3,29.128,1.892,19.51,19.551,10.9,32.814S1474.278,492,1465.56,488.812s-12.444,5.938-15.463,4.64-13.67-10.07-12-12.216" transform="translate(-869.077 -265.937)" fill="#553e93"/>
      <path id="Path_28032" data-name="Path 28032" d="M1400,561.916c5.2-3.827,10.655-3.957,14.67.13s5.258,9.556,1.009,15.752c-3.24,4.725-11.794,2.876-15.809-1.211s-4.483-11.272.13-14.67" transform="translate(-844.165 -337.869)" fill="#553e93"/>
      <path id="Path_28033" data-name="Path 28033" d="M1486.3,456.485c-2.718-5.5-7.572-10.384-11.908-14.53a19.432,19.432,0,0,0-1.638-1.4c-8.751-6.709-21.631-5.016-27.589-.495a4.91,4.91,0,0,0-2.116,4.189c.119,4.783,6.215,10.444,7.932,11.619a1.5,1.5,0,0,0,1.044.293,4.43,4.43,0,0,0,1.852-.945,8.489,8.489,0,0,1,5.4-1.9,7.326,7.326,0,0,1,4.419,1.792,10.306,10.306,0,0,1,2.227,2.563,9.588,9.588,0,0,1,.495,9.376c-2.263,4.676-9.447,3.766-15.784,2.967a37.855,37.855,0,0,0-7.54-.5c-6.365.633-11.029,7.675-11.148,7.853a1.177,1.177,0,0,0-.131,1.044c.823,3.193,9.629,10.2,12.165,11.29.051.02.1.04.15.055a1.569,1.569,0,0,0,.5.079c.993,0,2.069-.862,3.37-1.9,2.552-2.045,6.053-4.842,11.445-2.872,5.174,1.891,9.174,2.231,12.968,1.092,4.64-1.389,8.854-5.08,12.881-11.279,3.857-5.934,4.186-11.947,1-18.384m-1.131,18.3c-4.008,6.167-8.193,9.835-12.8,11.215-3.758,1.123-7.726.787-12.869-1.092-5.475-2-9.012.831-11.6,2.9-1.547,1.238-2.769,2.215-3.861,1.745a7.072,7.072,0,0,1-.672-.336c-3.311-1.836-10.689-8.062-11.405-10.847a1.016,1.016,0,0,1,.107-.91l0-.008c.047-.071,4.7-7.156,11.033-7.785.4-.04.839-.055,1.294-.055a53.443,53.443,0,0,1,6.211.558c6.389.807,13.632,1.721,15.947-3.054a9.755,9.755,0,0,0-.506-9.526,10.33,10.33,0,0,0-1.911-2.294,7.667,7.667,0,0,0-4.866-2.132c-.052,0-.1,0-.15,0a8.736,8.736,0,0,0-5.341,1.935,3.731,3.731,0,0,1-1.931.922,1.418,1.418,0,0,1-.791-.269c-1.7-1.167-7.746-6.773-7.861-11.5a4.762,4.762,0,0,1,2.049-4.063c5.716-4.336,17.849-6.053,26.505-.154h0a19.964,19.964,0,0,1,2.52,2.041c9.589,9.17,19.131,20.013,10.883,32.716" transform="translate(-865.354 -263.571)" fill="#66192d"/>
      <path id="Path_28034" data-name="Path 28034" d="M1408.646,558.2c-.222-.225-.447-.439-.681-.641a9.433,9.433,0,0,0-6.278-2.4,13.332,13.332,0,0,0-7.813,2.9,8.317,8.317,0,0,0-3.3,6.171,11.21,11.21,0,0,0,3.161,8.616,13.3,13.3,0,0,0,3.928,2.694,14.3,14.3,0,0,0,5.827,1.337c.316,0,.629-.012.938-.039a6.8,6.8,0,0,0,5.237-2.789c3.857-5.629,3.5-11.255-1.016-15.852m.89,15.761a6.652,6.652,0,0,1-5.127,2.726,13.847,13.847,0,0,1-7.386-1.63,12.906,12.906,0,0,1-3.181-2.318,11.049,11.049,0,0,1-3.118-8.494,8.171,8.171,0,0,1,3.24-6.057,13.27,13.27,0,0,1,7.73-2.888,9.2,9.2,0,0,1,5.748,2.033,11.369,11.369,0,0,1,1.092.977c4.454,4.534,4.811,10.092,1,15.65" transform="translate(-840.44 -335.543)" fill="#66192d"/>
      <path id="Path_28035" data-name="Path 28035" d="M140.15,431.735s-4.88-7.022-3.022-13.231,11.629-16.924,6.56-22.589-13.585-3.14-15.545,1.416,1.279,7.277-.758,8.613-14.653,7.19-16.717-.578,1.976-21.41,12.812-26.228,25.5-10.625,34.494,2.382,5.875,20.83-.386,27.685.768,13.767-1.58,16.067-14.507,8.822-15.858,6.463" transform="translate(-66.574 -225.797)" fill="#553e93"/>
      <path id="Path_28036" data-name="Path 28036" d="M192.989,537.528c-1.567-6.259.386-11.36,5.691-13.522s10.836-1.235,14.954,5.048c3.141,4.792-1.818,12-7.124,14.165s-12.13-.134-13.522-5.691" transform="translate(-116.325 -316.075)" fill="#553e93"/>
      <path id="Path_28037" data-name="Path 28037" d="M152.238,385.466c-4.027-5.819-9.467-8.407-16.627-7.908-6.12.427-12.481,3.062-17.964,5.5a19.1,19.1,0,0,0-1.9.973c-9.542,5.546-12.873,18.118-10.95,25.346a4.907,4.907,0,0,0,3.074,3.549c2.421.926,5.689.277,8-.431a26.867,26.867,0,0,0,5.76-2.492,1.493,1.493,0,0,0,.665-.858,4.451,4.451,0,0,0-.167-2.069,8.469,8.469,0,0,1,.289-5.72,7.341,7.341,0,0,1,3.323-3.4,10.211,10.211,0,0,1,3.228-1.1,9.6,9.6,0,0,1,8.866,3.1c3.465,3.873-.1,10.175-3.252,15.729a37.972,37.972,0,0,0-3.327,6.789c-1.832,6.124,2.912,13.118,3.031,13.292a1.175,1.175,0,0,0,.917.518,3.321,3.321,0,0,0,.415.028c3.608,0,12.755-5.139,14.649-6.994a.862.862,0,0,0,.1-.111c.783-.91.34-2.409-.206-4.28-.922-3.137-2.183-7.437,1.689-11.678,3.715-4.067,5.542-7.639,5.934-11.579.475-4.822-1.337-10.123-5.542-16.2m5.388,16.188c-.388,3.9-2.207,7.449-5.894,11.488-3.933,4.308-2.659,8.656-1.725,11.828.557,1.9,1,3.4.146,4.237a7,7,0,0,1-.553.483s-.008,0-.012.008a42.264,42.264,0,0,1-6.512,3.893c-3.628,1.8-6.492,2.726-7.857,2.54a1.032,1.032,0,0,1-.8-.443l0,0c-.047-.071-4.834-7.065-3.01-13.166a37.621,37.621,0,0,1,3.315-6.753c3.173-5.606,6.769-11.955,3.228-15.911a9.692,9.692,0,0,0-7.311-3.287,10.551,10.551,0,0,0-4.549,1.036,7.671,7.671,0,0,0-3.814,3.687,8.708,8.708,0,0,0-.3,5.815,3.723,3.723,0,0,1,.118,2.136,1.4,1.4,0,0,1-.546.629,26.782,26.782,0,0,1-5.72,2.473c-2.291.7-5.519,1.345-7.9.435a4.754,4.754,0,0,1-2.979-3.442c-1.843-6.939,1.183-18.827,9.937-24.591a20.048,20.048,0,0,1,2.829-1.547c12.125-5.388,25.781-10.1,34.4,2.358,4.185,6.045,5.989,11.314,5.519,16.1" transform="translate(-63.022 -228.161)" fill="#66192d"/>
      <path id="Path_28038" data-name="Path 28038" d="M207.9,533.01c-3.738-5.7-9.083-7.508-15.049-5.08a9.378,9.378,0,0,0-.854.392,9.785,9.785,0,0,0-5.408,9.233,16.575,16.575,0,0,0,.522,3.992,8.33,8.33,0,0,0,4.454,5.4,11.035,11.035,0,0,0,4.965,1.163,11.164,11.164,0,0,0,4.209-.815,13.344,13.344,0,0,0,3.98-2.611,13.722,13.722,0,0,0,3.77-5.764,6.791,6.791,0,0,0-.589-5.906m.443,5.859a13.854,13.854,0,0,1-4.312,6.215,12.775,12.775,0,0,1-3.351,2.061,11.038,11.038,0,0,1-9.043-.34,8.764,8.764,0,0,1-2.817-2.223,7.805,7.805,0,0,1-1.555-3.074,13.253,13.253,0,0,1,.265-8.248,9.166,9.166,0,0,1,4.051-4.534,10.9,10.9,0,0,1,1.329-.649,13.112,13.112,0,0,1,4.949-1.04c3.869,0,7.287,2.057,9.91,6.061a6.63,6.63,0,0,1,.574,5.772" transform="translate(-112.776 -318.446)" fill="#66192d"/>
      <path id="Path_28039" data-name="Path 28039" d="M618.282,297.723c-1.258-.067-2.552-.1-3.841-.1h-.067a.39.39,0,0,0,0,.779h.067c1.278,0,2.556.032,3.8.1h.024a.388.388,0,0,0,.02-.775m-7.813,0c-1.286.067-2.6.166-3.9.3a.389.389,0,0,0,.04.775h.04c1.29-.131,2.591-.229,3.861-.293a.39.39,0,0,0-.04-.779m15.583.882c-1.266-.225-2.567-.411-3.873-.562a.39.39,0,1,0-.087.775c1.29.142,2.575.328,3.822.55a.442.442,0,0,0,.067.008.389.389,0,0,0,.383-.324.383.383,0,0,0-.312-.447m-23.36-.111c-1.274.186-2.571.4-3.853.645a.388.388,0,0,0-.313.455.394.394,0,0,0,.384.316.438.438,0,0,0,.071-.008c1.274-.241,2.56-.455,3.821-.637a.39.39,0,0,0-.11-.771m30.952,1.994c-1.226-.4-2.492-.76-3.766-1.076a.389.389,0,0,0-.186.756c1.254.309,2.5.665,3.711,1.06a.433.433,0,0,0,.123.016.387.387,0,0,0,.119-.756m-38.164-.253a.39.39,0,0,0-.467-.293c-1.266.3-2.54.621-3.786.965a.389.389,0,0,0,.1.764.3.3,0,0,0,.1-.016c1.238-.34,2.5-.661,3.758-.953a.386.386,0,0,0,.289-.467m-7.508,2.045a.386.386,0,0,0-.491-.249c-2.322.756-3.64,1.3-3.695,1.321a.391.391,0,0,0-.21.51.386.386,0,0,0,.36.241.39.39,0,0,0,.146-.032c.012,0,1.349-.558,3.64-1.3a.387.387,0,0,0,.249-.491m52.916,1.183-.2-.1c-1.092-.546-2.227-1.06-3.37-1.531a.392.392,0,0,0-.506.214.384.384,0,0,0,.214.506c1.123.463,2.239.969,3.315,1.507l.19.095a.359.359,0,0,0,.178.044.384.384,0,0,0,.344-.21.392.392,0,0,0-.166-.526m5.768,5.38a12.216,12.216,0,0,0-2.489-3.129.388.388,0,1,0-.522.574,11.536,11.536,0,0,1,2.33,2.931.391.391,0,0,0,.34.2.358.358,0,0,0,.186-.051.387.387,0,0,0,.154-.526M648,312.605a.385.385,0,0,0-.455-.309.389.389,0,0,0-.309.455,14.969,14.969,0,0,1,.258,2.817c0,.313-.008.637-.028.957a.39.39,0,0,0,.368.411h.02a.393.393,0,0,0,.392-.368c.016-.336.027-.673.027-1a15.9,15.9,0,0,0-.273-2.963m-.621,7.406a.384.384,0,0,0-.467.289,29.8,29.8,0,0,1-1.116,3.671.391.391,0,0,0,.229.5.42.42,0,0,0,.135.024.4.4,0,0,0,.368-.253,31.588,31.588,0,0,0,1.139-3.766.384.384,0,0,0-.289-.467m-1.052,5.483h0c-1.282.012-2.6.059-3.909.15a.385.385,0,0,0-.364.415.391.391,0,0,0,.388.36h.028c1.3-.087,2.595-.138,3.865-.146a.392.392,0,0,0,.384-.4.385.385,0,0,0-.388-.384m7.809.443c-1.274-.158-2.587-.277-3.9-.352a.4.4,0,0,0-.411.368.389.389,0,0,0,.368.407c1.3.075,2.591.19,3.845.348a.225.225,0,0,0,.051,0,.389.389,0,0,0,.047-.775m-15.618.079c-1.274.158-2.575.352-3.869.582a.389.389,0,0,0,.067.771.349.349,0,0,0,.067-.008c1.282-.225,2.571-.415,3.829-.574a.389.389,0,1,0-.095-.771M661.8,327.5c-1.234-.356-2.516-.669-3.806-.93a.389.389,0,1,0-.154.763c1.27.257,2.528.562,3.746.914a.488.488,0,0,0,.107.012.393.393,0,0,0,.376-.281.389.389,0,0,0-.269-.479m-30.521.162a.39.39,0,0,0-.467-.293c-1.254.281-2.527.6-3.789.949a.389.389,0,0,0,.107.763.325.325,0,0,0,.1-.016c1.246-.34,2.508-.657,3.75-.942a.388.388,0,0,0,.3-.463m37.835,2.631c-1.163-.566-2.374-1.088-3.6-1.555a.389.389,0,0,0-.277.728c1.2.455,2.389.969,3.533,1.527a.381.381,0,0,0,.17.04.388.388,0,0,0,.352-.218.4.4,0,0,0-.182-.522m-45.344-.605a.387.387,0,0,0-.49-.249c-1.23.4-2.473.827-3.691,1.282a.388.388,0,0,0,.135.752.4.4,0,0,0,.135-.024c1.211-.451,2.441-.878,3.659-1.27a.392.392,0,0,0,.253-.491m21.022-2.354a.39.39,0,0,0-.522.178c-.538,1.116-1.155,2.263-1.824,3.4a.394.394,0,0,0,.142.534.375.375,0,0,0,.194.051.386.386,0,0,0,.336-.19c.68-1.159,1.3-2.322,1.851-3.458a.384.384,0,0,0-.178-.518m-28.329,5.028a.39.39,0,0,0-.51-.206c-1.2.5-2.4,1.036-3.572,1.586a.388.388,0,0,0,.166.74.415.415,0,0,0,.166-.036c1.163-.546,2.354-1.076,3.541-1.574a.391.391,0,0,0,.21-.51m59.356,1.99c-1.049-.775-2.144-1.511-3.26-2.184a.389.389,0,1,0-.4.665c1.1.665,2.171,1.385,3.2,2.144a.4.4,0,0,0,.233.075.388.388,0,0,0,.229-.7m-34.9-.273a.393.393,0,0,0-.542.107c-.708,1.044-1.468,2.1-2.263,3.137a.39.39,0,0,0,.071.546.393.393,0,0,0,.546-.071c.8-1.052,1.575-2.12,2.291-3.177a.389.389,0,0,0-.1-.542m-31.518,1.567a.392.392,0,0,0-.526-.166c-1.163.609-2.314,1.246-3.422,1.891a.391.391,0,0,0,.2.728.379.379,0,0,0,.194-.055c1.1-.641,2.239-1.27,3.394-1.875a.386.386,0,0,0,.162-.522m72.276,3.9c-.9-.953-1.847-1.871-2.817-2.73a.384.384,0,0,0-.546.032.389.389,0,0,0,.032.55c.949.843,1.879,1.745,2.765,2.682a.386.386,0,0,0,.281.119.4.4,0,0,0,.269-.1.392.392,0,0,0,.016-.55m-79.013-.012a.387.387,0,0,0-.538-.115c-1.116.724-2.2,1.476-3.224,2.223a.391.391,0,0,0,.233.7.417.417,0,0,0,.23-.075c1.009-.744,2.081-1.483,3.185-2.2a.394.394,0,0,0,.115-.538m33.563.752a.385.385,0,0,0-.546.047c-.827.969-1.7,1.942-2.583,2.884a.39.39,0,0,0,.28.657.406.406,0,0,0,.285-.123c.894-.953,1.772-1.934,2.611-2.916a.39.39,0,0,0-.047-.55m-39.857,3.822a.389.389,0,0,0-.55-.047c-1.048.882-2.022,1.772-2.9,2.647a.39.39,0,0,0,.273.665.4.4,0,0,0,.277-.115c.859-.858,1.816-1.733,2.849-2.6a.393.393,0,0,0,.047-.55m34.556,1.875a.385.385,0,0,0-.55-.012c-.926.894-1.887,1.776-2.852,2.623a.388.388,0,0,0-.036.55.4.4,0,0,0,.293.135.38.38,0,0,0,.257-.1c.974-.855,1.943-1.745,2.88-2.647a.388.388,0,0,0,.008-.55m-40.074,3.6a.389.389,0,0,0-.546.067,18.372,18.372,0,0,0-2.12,3.355.392.392,0,0,0,.186.518.419.419,0,0,0,.166.036.392.392,0,0,0,.352-.222,17.559,17.559,0,0,1,2.029-3.208.389.389,0,0,0-.067-.546m34.247,1.563a.391.391,0,0,0-.55-.063c-1.017.807-2.057,1.59-3.094,2.326a.388.388,0,0,0,.451.633c1.045-.744,2.1-1.535,3.13-2.35a.393.393,0,0,0,.063-.546m-6.322,4.538a.391.391,0,0,0-.538-.123c-1.108.7-2.231,1.357-3.335,1.954a.388.388,0,0,0-.158.526.39.39,0,0,0,.53.158c1.116-.609,2.255-1.274,3.378-1.982a.386.386,0,0,0,.123-.534M589.565,360a4.3,4.3,0,0,1-1.527-3.121.386.386,0,0,0-.4-.372.4.4,0,0,0-.372.407,5.031,5.031,0,0,0,1.788,3.667.375.375,0,0,0,.257.1.388.388,0,0,0,.257-.68m22.4-.574a.389.389,0,0,0-.514-.194c-1.207.542-2.409,1.025-3.58,1.432a.39.39,0,0,0-.241.495.386.386,0,0,0,.368.261.5.5,0,0,0,.131-.02c1.191-.415,2.417-.906,3.64-1.46a.39.39,0,0,0,.2-.514m-7.323,2.6a.38.38,0,0,0-.463-.289,28.58,28.58,0,0,1-3.782.617.39.39,0,0,0-.352.423.385.385,0,0,0,.388.352h.036a28.866,28.866,0,0,0,3.885-.637.384.384,0,0,0,.289-.467m-8.062.356a17.773,17.773,0,0,1-3.734-.7.383.383,0,0,0-.483.257.389.389,0,0,0,.257.487,18.754,18.754,0,0,0,3.9.728.087.087,0,0,0,.032,0,.39.39,0,0,0,.032-.779" transform="translate(-352.695 -179.883)" fill="#66192d"/>
      <path id="Path_28040" data-name="Path 28040" d="M224.656,136.852a.389.389,0,0,0-.483-.265c-.277.083-.558.166-.831.253a.388.388,0,0,0,.115.76.4.4,0,0,0,.115-.016c.273-.087.546-.17.823-.249a.387.387,0,0,0,.261-.483m-4.514,1.484a.386.386,0,0,0-.5-.225c-1.218.463-2.437.965-3.612,1.5a.388.388,0,0,0-.19.514.382.382,0,0,0,.352.229.387.387,0,0,0,.162-.036c1.159-.526,2.358-1.025,3.564-1.48a.391.391,0,0,0,.225-.5m-7.093,3.169a.394.394,0,0,0-.526-.158c-1.147.621-2.287,1.286-3.378,1.978a.388.388,0,0,0,.206.716.4.4,0,0,0,.21-.059c1.08-.684,2.2-1.337,3.331-1.946a.391.391,0,0,0,.158-.53m-6.595,4.11a.386.386,0,0,0-.542-.083c-1.052.775-2.081,1.594-3.062,2.437a.39.39,0,0,0-.044.55.381.381,0,0,0,.3.134.391.391,0,0,0,.253-.091c.965-.831,1.982-1.642,3.018-2.405a.386.386,0,0,0,.079-.542m-5.93,5.016a.384.384,0,0,0-.55,0c-.922.918-1.82,1.883-2.666,2.868a.389.389,0,0,0,.044.55A.382.382,0,0,0,197.9,154c.835-.969,1.717-1.919,2.627-2.825a.392.392,0,0,0,0-.55m-5.111,5.851a.387.387,0,0,0-.542.083c-.771,1.052-1.511,2.144-2.2,3.248a.39.39,0,0,0,.332.593.383.383,0,0,0,.328-.186c.676-1.084,1.4-2.16,2.16-3.192a.391.391,0,0,0-.083-.546m-4.146,6.571a.387.387,0,0,0-.522.166c-.6,1.159-1.159,2.354-1.662,3.553a.387.387,0,0,0,.21.506.332.332,0,0,0,.15.032.4.4,0,0,0,.36-.237c.495-1.179,1.04-2.354,1.63-3.5a.387.387,0,0,0-.166-.522m-3.062,7.141a.387.387,0,0,0-.491.249c-.407,1.238-.767,2.508-1.068,3.77a.384.384,0,0,0,.289.467.337.337,0,0,0,.091.012.388.388,0,0,0,.376-.3c.3-1.242.653-2.488,1.052-3.711a.387.387,0,0,0-.249-.491m-1.871,7.54a.394.394,0,0,0-.443.324c-.2,1.294-.34,2.607-.423,3.9a.383.383,0,0,0,.36.411c.008,0,.02,0,.028,0a.392.392,0,0,0,.388-.364c.083-1.274.225-2.564.419-3.833a.391.391,0,0,0-.328-.443m-.178,8.126a.388.388,0,0,0-.4-.38.394.394,0,0,0-.38.4c.028,1.309.119,2.627.265,3.913a.389.389,0,0,0,.388.344h.044a.393.393,0,0,0,.344-.431c-.146-1.262-.233-2.556-.265-3.845m1.867,11.358c-.384-1.207-.716-2.457-.985-3.715a.388.388,0,1,0-.76.158c.273,1.286.613,2.563,1,3.794a.389.389,0,0,0,.372.269.408.408,0,0,0,.119-.016.387.387,0,0,0,.249-.491m60.353,1.183a8.875,8.875,0,0,0-3.857,1.163.389.389,0,1,0,.372.684,8.106,8.106,0,0,1,3.517-1.072.388.388,0,0,0-.032-.775m6.223,4.514a7.148,7.148,0,0,0-2.33-3.319.394.394,0,0,0-.546.075.39.39,0,0,0,.071.546,6.37,6.37,0,0,1,2.073,2.959.391.391,0,0,0,.368.257.389.389,0,0,0,.364-.518m-63.482,1.329a35.678,35.678,0,0,1-1.733-3.43.389.389,0,0,0-.712.313,36.335,36.335,0,0,0,1.772,3.505.386.386,0,0,0,.336.2.379.379,0,0,0,.194-.055.385.385,0,0,0,.142-.53m50.744-2.306a.388.388,0,0,0-.55-.024,24.11,24.11,0,0,0-2.666,2.912.39.39,0,0,0,.067.546.387.387,0,0,0,.546-.067,23.162,23.162,0,0,1,2.579-2.817.388.388,0,0,0,.024-.55m12.9,4.549a.389.389,0,0,0-.411.364,11.75,11.75,0,0,1-.839,3.651.391.391,0,0,0,.218.506.371.371,0,0,0,.146.028.383.383,0,0,0,.36-.245,12.479,12.479,0,0,0,.89-3.893.387.387,0,0,0-.364-.411m-59.095,3.932a33.906,33.906,0,0,1-2.453-2.959.389.389,0,1,0-.625.463,34.729,34.729,0,0,0,2.508,3.026.393.393,0,0,0,.55.02.388.388,0,0,0,.02-.55m41.293-2.476a.387.387,0,0,0-.53.135,38.869,38.869,0,0,0-1.824,3.481.386.386,0,0,0,.19.514.335.335,0,0,0,.162.036.394.394,0,0,0,.356-.225,36.758,36.758,0,0,1,1.784-3.406.392.392,0,0,0-.138-.534M201.5,215.4a33.756,33.756,0,0,1-3.054-2.326.39.39,0,0,0-.506.593,35.326,35.326,0,0,0,3.125,2.378.371.371,0,0,0,.218.067.389.389,0,0,0,.324-.17.394.394,0,0,0-.107-.542m50.688-1.705a.387.387,0,0,0-.546.075A16.743,16.743,0,0,1,249,216.486a.385.385,0,0,0-.051.546.389.389,0,0,0,.546.055,17.192,17.192,0,0,0,2.765-2.844.39.39,0,0,0-.071-.546m-18.562,1.258a.389.389,0,0,0-.5.233c-.431,1.2-.827,2.461-1.175,3.738a.383.383,0,0,0,.269.475.326.326,0,0,0,.1.016.389.389,0,0,0,.376-.285c.344-1.258.736-2.5,1.159-3.683a.383.383,0,0,0-.233-.495m-25.338,4.039a36.436,36.436,0,0,1-3.489-1.618.392.392,0,0,0-.526.166.386.386,0,0,0,.162.522,36.948,36.948,0,0,0,3.56,1.65.389.389,0,1,0,.293-.72m38.077-.233a.386.386,0,0,0-.526-.154,25.806,25.806,0,0,1-3.489,1.567.387.387,0,0,0,.135.752.3.3,0,0,0,.131-.024,25.511,25.511,0,0,0,3.6-1.614.385.385,0,0,0,.154-.526m-30.7,2.421c-1.274-.257-2.532-.57-3.738-.926a.39.39,0,1,0-.222.748c1.23.36,2.508.676,3.806.938a.243.243,0,0,0,.075.008.393.393,0,0,0,.384-.313.388.388,0,0,0-.3-.455m23.475.368a.394.394,0,0,0-.467-.293c-1.2.281-2.476.51-3.786.68a.389.389,0,0,0,.047.775.227.227,0,0,0,.051,0c1.337-.174,2.635-.407,3.861-.692a.394.394,0,0,0,.293-.467m-15.816.617c-1.25-.095-2.548-.222-3.853-.38a.39.39,0,0,0-.431.34.382.382,0,0,0,.336.431c1.321.162,2.627.289,3.889.384h.032a.388.388,0,0,0,.028-.775m8.185.265a.328.328,0,0,0-.138,0,.384.384,0,0,0-.324-.146q-1.869.095-3.861.059a.394.394,0,0,0-.4.384.389.389,0,0,0,.384.4c1.309.02,2.583,0,3.814-.059-.225,1.159-.419,2.346-.578,3.533a.386.386,0,0,0,.332.439.227.227,0,0,0,.051,0,.385.385,0,0,0,.384-.336c.174-1.286.388-2.567.637-3.814a.382.382,0,0,0-.3-.455m-1.088,7.694a.389.389,0,0,0-.415.36c-.095,1.286-.154,2.6-.174,3.909a.389.389,0,0,0,.384.4h0a.385.385,0,0,0,.388-.384c.024-1.294.079-2.591.174-3.865a.389.389,0,0,0-.36-.415m.233,8.145a.388.388,0,1,0-.775.032c.051,1.29.138,2.6.261,3.9a.387.387,0,0,0,.388.352h.036a.39.39,0,0,0,.352-.423c-.123-1.286-.21-2.583-.261-3.861m1.381,11.512c-.249-1.262-.475-2.548-.661-3.814a.388.388,0,0,0-.767.115c.186,1.278.411,2.575.669,3.853a.389.389,0,0,0,.38.313.484.484,0,0,0,.075-.008.388.388,0,0,0,.3-.459m1.895,7.5c-.376-1.23-.728-2.484-1.04-3.727a.388.388,0,1,0-.752.19c.316,1.254.669,2.52,1.048,3.766a.389.389,0,0,0,.372.273.382.382,0,0,0,.115-.016.389.389,0,0,0,.257-.487m2.623,7.279c-.495-1.191-.965-2.405-1.4-3.608a.389.389,0,0,0-.732.265c.439,1.214.914,2.441,1.412,3.643a.392.392,0,0,0,.36.237.4.4,0,0,0,.15-.028.391.391,0,0,0,.21-.51m3.3,7c-.605-1.139-1.187-2.306-1.733-3.461a.388.388,0,0,0-.7.328c.55,1.171,1.139,2.346,1.749,3.5a.384.384,0,0,0,.344.206.438.438,0,0,0,.182-.044.392.392,0,0,0,.162-.526m3.92,6.67c-.7-1.08-1.385-2.188-2.037-3.291a.383.383,0,0,0-.53-.138.389.389,0,0,0-.138.534c.657,1.112,1.345,2.231,2.053,3.319a.394.394,0,0,0,.328.178.372.372,0,0,0,.21-.063.385.385,0,0,0,.115-.538m4.49,6.31c-.791-1.021-1.571-2.065-2.314-3.109a.389.389,0,0,0-.633.451c.752,1.056,1.535,2.109,2.334,3.133a.382.382,0,0,0,.3.15.4.4,0,0,0,.237-.079.391.391,0,0,0,.071-.546m4.992,5.914-.095-.1c-.839-.922-1.665-1.863-2.461-2.8a.385.385,0,0,0-.546-.047.389.389,0,0,0-.047.55c.8.949,1.634,1.9,2.48,2.825l.095.107a.4.4,0,0,0,.289.127.39.39,0,0,0,.285-.653m134.579,1.733a.388.388,0,0,0-.491-.245c-.012,0-1.349.451-3.715,1.175a.389.389,0,1,0,.226.744c2.378-.724,3.723-1.175,3.734-1.179a.388.388,0,0,0,.245-.494m-7.453,2.306a.391.391,0,0,0-.483-.265c-1.226.36-2.488.716-3.742,1.068a.389.389,0,0,0,.1.763.333.333,0,0,0,.107-.016c1.258-.348,2.52-.708,3.75-1.068a.389.389,0,0,0,.265-.483M259.01,295.543c-1.048-.756-2.065-1.563-3.011-2.393a.388.388,0,1,0-.514.582c.965.851,2,1.673,3.074,2.445a.391.391,0,0,0,.226.071.388.388,0,0,0,.225-.7M372.872,296.6a.389.389,0,0,0-.475-.277q-1.8.481-3.762.985a.388.388,0,0,0,.095.763.392.392,0,0,0,.095-.012c1.313-.332,2.571-.665,3.774-.985a.386.386,0,0,0,.273-.475m-7.544,1.934a.386.386,0,0,0-.467-.285c-1.226.3-2.488.6-3.786.9a.389.389,0,0,0,.087.767.359.359,0,0,0,.091-.012c1.3-.3,2.564-.6,3.79-.9a.388.388,0,0,0,.285-.471m-99.687.934c-1.175-.57-2.318-1.183-3.4-1.82a.388.388,0,1,0-.4.669c1.1.649,2.263,1.27,3.454,1.851a.423.423,0,0,0,.17.036.388.388,0,0,0,.17-.736m92.108.839a.4.4,0,0,0-.467-.3q-1.863.415-3.8.819a.39.39,0,0,0,.083.771.6.6,0,0,0,.079-.008q1.94-.409,3.81-.823a.389.389,0,0,0,.3-.463M272.8,302.339c-1.246-.407-2.469-.851-3.632-1.313a.388.388,0,1,0-.289.72c1.179.471,2.417.922,3.675,1.333a.345.345,0,0,0,.123.02.389.389,0,0,0,.123-.76m76.865-.736c-1.27.253-2.556.5-3.818.732a.389.389,0,0,0,.071.771.438.438,0,0,0,.071-.008c1.266-.233,2.552-.479,3.825-.732a.387.387,0,0,0,.309-.455.393.393,0,0,0-.459-.309m-7.643,1.416c-1.282.218-2.575.431-3.837.633a.39.39,0,0,0,.059.775.307.307,0,0,0,.063-.008c1.266-.2,2.56-.415,3.845-.637a.389.389,0,0,0,.316-.447.383.383,0,0,0-.447-.316m-61.753,1.321c-1.282-.273-2.548-.578-3.762-.9a.389.389,0,0,0-.2.752c1.226.328,2.508.633,3.8.91a.3.3,0,0,0,.083.012.39.39,0,0,0,.079-.771m54.075-.1c-1.294.186-2.591.364-3.853.526a.39.39,0,0,0,.051.775.244.244,0,0,0,.051,0c1.262-.162,2.564-.34,3.861-.53a.388.388,0,1,0-.111-.767m-46.44,1.4c-1.3-.166-2.587-.356-3.833-.566a.387.387,0,1,0-.127.764c1.254.214,2.552.4,3.861.574.016,0,.036,0,.051,0a.389.389,0,0,0,.047-.775m38.729-.4c-1.286.146-2.583.285-3.857.411a.389.389,0,0,0,.04.775.109.109,0,0,0,.036,0c1.278-.123,2.579-.261,3.873-.407a.39.39,0,0,0-.091-.775m-7.726.752c-1.3.107-2.6.2-3.877.277a.388.388,0,0,0,.024.775h.024c1.278-.079,2.587-.17,3.893-.277a.384.384,0,0,0,.356-.415.388.388,0,0,0-.419-.36m-23.285.364c-1.305-.079-2.6-.178-3.865-.293a.385.385,0,0,0-.423.352.39.39,0,0,0,.352.423c1.27.115,2.575.214,3.889.3h.024a.39.39,0,0,0,.024-.779m15.523.111c-1.305.051-2.615.091-3.889.115a.388.388,0,0,0,.008.775h.008c1.278-.024,2.6-.063,3.9-.115a.388.388,0,1,0-.032-.775m-7.77.138c-1.309-.008-2.615-.032-3.881-.071a.39.39,0,0,0-.024.779c1.27.04,2.583.063,3.9.071a.39.39,0,0,0,0-.779" transform="translate(-112.044 -82.546)" fill="#66192d"/>
      <path id="Path_28041" data-name="Path 28041" d="M246.323,529.447a.389.389,0,0,0-.542-.095c-.012.008-1.187.843-3.153,2.354a.39.39,0,0,0-.071.546.4.4,0,0,0,.309.15.407.407,0,0,0,.237-.079c1.95-1.5,3.113-2.326,3.125-2.334a.389.389,0,0,0,.095-.542m-6.223,4.731a.39.39,0,0,0-.546-.063c-1,.8-2.018,1.634-3.026,2.469a.388.388,0,0,0,.249.688.38.38,0,0,0,.245-.087c1.009-.835,2.022-1.665,3.018-2.461a.389.389,0,0,0,.059-.546m-6.005,4.969a.389.389,0,0,0-.55-.04c-.985.843-1.97,1.709-2.939,2.567a.39.39,0,0,0,.261.68.382.382,0,0,0,.257-.1c.961-.858,1.946-1.717,2.927-2.56a.393.393,0,0,0,.044-.55m-5.831,5.17a.388.388,0,0,0-.55-.02c-.957.882-1.915,1.78-2.848,2.67a.392.392,0,0,0-.012.55.4.4,0,0,0,.281.119.387.387,0,0,0,.269-.107c.93-.886,1.883-1.784,2.836-2.662a.388.388,0,0,0,.024-.55m-5.641,5.372a.388.388,0,0,0-.55,0c-.93.918-1.851,1.851-2.745,2.773a.388.388,0,0,0,.008.55.387.387,0,0,0,.55-.008c.89-.918,1.812-1.847,2.734-2.765a.388.388,0,0,0,0-.55m-5.432,5.582a.388.388,0,0,0-.55.02c-.894.961-1.78,1.934-2.627,2.888a.389.389,0,0,0,.032.55.4.4,0,0,0,.257.1.409.409,0,0,0,.293-.13c.843-.953,1.725-1.919,2.615-2.876a.392.392,0,0,0-.02-.55M212,561.079a.385.385,0,0,0-.546.047c-.851,1-1.689,2.014-2.488,3.007a.389.389,0,0,0,.059.546.385.385,0,0,0,.546-.059c.8-.989,1.63-1.994,2.476-2.991a.389.389,0,0,0-.047-.55m-4.894,6.049a.391.391,0,0,0-.546.075c-.8,1.044-1.574,2.1-2.314,3.141a.383.383,0,0,0,.091.542.368.368,0,0,0,.225.075.4.4,0,0,0,.316-.162c.736-1.033,1.511-2.085,2.3-3.125a.391.391,0,0,0-.075-.546m-4.541,6.33a.392.392,0,0,0-.542.107c-.728,1.1-1.436,2.207-2.1,3.291a.387.387,0,0,0,.131.534.374.374,0,0,0,.2.059.394.394,0,0,0,.332-.186c.661-1.076,1.365-2.176,2.089-3.268a.388.388,0,0,0-.107-.538m-4.094,6.618a.387.387,0,0,0-.53.15c-.645,1.155-1.262,2.314-1.832,3.45a.389.389,0,1,0,.7.348c.562-1.123,1.175-2.275,1.816-3.418a.392.392,0,0,0-.15-.53m-3.517,6.939a.388.388,0,0,0-.514.2c-.534,1.211-1.029,2.429-1.48,3.62a.391.391,0,0,0,.229.5.4.4,0,0,0,.135.024.383.383,0,0,0,.364-.253c.443-1.179.938-2.382,1.464-3.58a.385.385,0,0,0-.2-.51m-2.769,7.263a.389.389,0,0,0-.487.257c-.384,1.266-.724,2.54-1.013,3.782a.39.39,0,0,0,.293.467.338.338,0,0,0,.087.008.385.385,0,0,0,.38-.3c.281-1.222.617-2.48,1-3.727a.394.394,0,0,0-.261-.487m-1.784,7.56a.392.392,0,0,0-.443.332c-.19,1.313-.32,2.631-.388,3.9a.392.392,0,0,0,.372.407h.02a.39.39,0,0,0,.388-.368c.063-1.25.19-2.54.38-3.833a.389.389,0,0,0-.328-.443m-.047,8.118a.388.388,0,0,0-.775.044,33.008,33.008,0,0,0,.443,3.9.389.389,0,0,0,.384.32.361.361,0,0,0,.067,0,.392.392,0,0,0,.316-.451,32.208,32.208,0,0,1-.435-3.814m2.718,11.112a28.62,28.62,0,0,1-1.381-3.572.389.389,0,0,0-.744.229,29.357,29.357,0,0,0,1.42,3.671.392.392,0,0,0,.352.222.36.36,0,0,0,.166-.036.386.386,0,0,0,.186-.514m4.146,6.425a28.42,28.42,0,0,1-2.291-3.074.389.389,0,1,0-.653.423,29.5,29.5,0,0,0,2.35,3.153.389.389,0,0,0,.593-.5m5.665,5.151a33.089,33.089,0,0,1-2.991-2.4.388.388,0,1,0-.522.574,32.792,32.792,0,0,0,3.062,2.461.372.372,0,0,0,.225.071.383.383,0,0,0,.316-.162.387.387,0,0,0-.091-.542m43.453,2.294a.387.387,0,0,0-.534-.13c-.807.495-1.658.961-2.536,1.389a.39.39,0,0,0,.17.74.413.413,0,0,0,.17-.04c.9-.439,1.776-.918,2.6-1.424a.387.387,0,0,0,.127-.534m-36.747,1.452a38.32,38.32,0,0,1-3.454-1.7.39.39,0,1,0-.38.68,38.783,38.783,0,0,0,3.525,1.729.359.359,0,0,0,.154.032.388.388,0,0,0,.154-.744m30.627,1.519a.39.39,0,0,0-.5-.241,36.54,36.54,0,0,1-3.691,1.072.39.39,0,0,0-.289.471.384.384,0,0,0,.376.3.353.353,0,0,0,.091-.008,37.764,37.764,0,0,0,3.77-1.1.387.387,0,0,0,.241-.494m-23.3.839c-1.258-.281-2.508-.621-3.719-1.009a.388.388,0,1,0-.237.74c1.23.4,2.5.744,3.786,1.029a.309.309,0,0,0,.087.008.385.385,0,0,0,.376-.3.39.39,0,0,0-.293-.467m7.635,1.021c-1.278-.059-2.571-.174-3.841-.344a.385.385,0,0,0-.435.336.39.39,0,0,0,.332.435c1.294.17,2.607.289,3.909.348h.02a.388.388,0,0,0,.016-.775m7.694-.332c-1.258.17-2.548.285-3.837.336a.39.39,0,0,0,.016.779h.016c1.313-.055,2.627-.17,3.909-.344a.389.389,0,0,0-.1-.771" transform="translate(-114.576 -319.899)" fill="#66192d"/>
      <path id="Path_28042" data-name="Path 28042" d="M82.737,301.355c-1.3-.123-2.611-.2-3.913-.218a.379.379,0,0,0-.4.38.392.392,0,0,0,.384.4c1.278.024,2.576.095,3.854.214a.109.109,0,0,0,.036,0,.388.388,0,0,0,.036-.775m-7.829-.134c-1.294.075-2.6.206-3.9.38a.39.39,0,0,0,.052.775.227.227,0,0,0,.051,0c1.278-.174,2.567-.3,3.841-.376a.388.388,0,1,0-.047-.775m15.547,1.46c-1.27-.32-2.559-.589-3.833-.811a.39.39,0,0,0-.135.767c1.258.218,2.528.483,3.778.8a.388.388,0,1,0,.189-.752m-22.842-.107a.39.39,0,0,0-.462-.3c-1.258.269-2.536.585-3.8.949a.387.387,0,0,0,.106.76.5.5,0,0,0,.107-.012c1.242-.36,2.5-.673,3.746-.938a.388.388,0,0,0,.3-.459m30.275,2.556c-1.206-.495-2.44-.953-3.671-1.361a.39.39,0,1,0-.245.74c1.214.4,2.433.851,3.619,1.341a.405.405,0,0,0,.151.028.388.388,0,0,0,.146-.748m-37.76-.467a.392.392,0,0,0-.5-.233c-1.207.435-2.429.926-3.636,1.448a.39.39,0,0,0,.154.748.366.366,0,0,0,.158-.036c1.187-.514,2.4-1,3.588-1.428a.391.391,0,0,0,.233-.5m44.774,3.948c-1.116-.657-2.275-1.282-3.446-1.863a.388.388,0,1,0-.345.7c1.151.574,2.295,1.191,3.4,1.84a.391.391,0,0,0,.2.051.388.388,0,0,0,.194-.724m-51.923-.894a.388.388,0,0,0-.522-.17c-.546.277-1.1.57-1.65.866-.593.324-1.191.669-1.777,1.029a.387.387,0,0,0-.13.534.394.394,0,0,0,.332.186.376.376,0,0,0,.2-.059c.573-.352,1.159-.688,1.745-1,.542-.293,1.088-.582,1.63-.858a.388.388,0,0,0,.17-.522m58.355,5.416a33.359,33.359,0,0,0-3.125-2.409.391.391,0,0,0-.447.641,33.3,33.3,0,0,1,3.05,2.346.392.392,0,0,0,.261.1.375.375,0,0,0,.288-.127.385.385,0,0,0-.028-.55m-65-1.408a.391.391,0,0,0-.546-.075c-1.025.771-2.042,1.614-3.018,2.5a.385.385,0,0,0-.028.55.391.391,0,0,0,.289.127.375.375,0,0,0,.257-.1c.965-.874,1.962-1.7,2.967-2.457a.391.391,0,0,0,.079-.546m-5.811,5.155a.385.385,0,0,0-.55.016c-.874.93-1.74,1.923-2.575,2.951a.385.385,0,0,0,.059.546.379.379,0,0,0,.245.087.384.384,0,0,0,.3-.142c.819-1.013,1.673-1.994,2.536-2.908a.392.392,0,0,0-.016-.55m-4.945,5.993a.392.392,0,0,0-.542.095c-.736,1.04-1.46,2.14-2.156,3.264a.388.388,0,0,0,.328.593.4.4,0,0,0,.333-.186c.688-1.108,1.4-2.192,2.132-3.224a.389.389,0,0,0-.095-.542m-4.138,6.583a.39.39,0,0,0-.53.154c-.613,1.12-1.214,2.291-1.788,3.473a.391.391,0,0,0,.182.522.409.409,0,0,0,.166.04.392.392,0,0,0,.352-.221c.566-1.171,1.163-2.33,1.772-3.442a.39.39,0,0,0-.154-.526m-3.426,6.982a.391.391,0,0,0-.51.2c-.506,1.183-1,2.4-1.46,3.624a.383.383,0,0,0,.225.5.335.335,0,0,0,.139.028.381.381,0,0,0,.36-.253c.463-1.211.949-2.421,1.448-3.588a.388.388,0,0,0-.2-.51m-2.789,7.255a.387.387,0,0,0-.491.249c-.407,1.215-.8,2.469-1.167,3.727a.391.391,0,0,0,.265.483.358.358,0,0,0,.111.016.392.392,0,0,0,.372-.281c.364-1.246.752-2.492,1.155-3.7a.391.391,0,0,0-.245-.495m-2.211,7.465a.384.384,0,0,0-.471.281c-.316,1.25-.617,2.532-.89,3.806a.39.39,0,0,0,.3.463.593.593,0,0,0,.083.008.385.385,0,0,0,.38-.3c.273-1.266.57-2.54.886-3.782a.39.39,0,0,0-.285-.471m-1.665,7.6a.389.389,0,0,0-.451.316c-.229,1.274-.435,2.571-.621,3.853a.386.386,0,0,0,.328.439.282.282,0,0,0,.055,0,.388.388,0,0,0,.388-.332c.182-1.274.388-2.563.617-3.829a.392.392,0,0,0-.316-.451m-1.131,7.7a.387.387,0,0,0-.427.344c-.138,1.3-.257,2.607-.348,3.893a.389.389,0,0,0,.36.415h.028a.386.386,0,0,0,.388-.36c.091-1.274.21-2.575.348-3.861a.4.4,0,0,0-.348-.431M16.49,376.516a18.543,18.543,0,0,0-3.964.134.39.39,0,0,0,.056.775.284.284,0,0,0,.055,0,17.475,17.475,0,0,1,3.794-.131.389.389,0,0,0,.059-.775m7.54,2.279a19.261,19.261,0,0,0-3.647-1.547.391.391,0,0,0-.411.119c0-.9.02-1.828.051-2.745a.39.39,0,0,0-.779-.024c-.032,1.017-.047,2.037-.047,3.03,0,.293,0,.585,0,.874a.388.388,0,0,0,.388.388h0a.389.389,0,0,0,.384-.4c0-.206,0-.415,0-.625a.4.4,0,0,0,.186.123,18.665,18.665,0,0,1,3.5,1.483.352.352,0,0,0,.186.047.387.387,0,0,0,.34-.2.392.392,0,0,0-.15-.53m-14.811-.831a.385.385,0,0,0-.518-.178,12.22,12.22,0,0,0-3.236,2.342.39.39,0,0,0,.273.665.4.4,0,0,0,.277-.115,11.3,11.3,0,0,1,3.031-2.192.392.392,0,0,0,.174-.522m20.935,5.776a25.719,25.719,0,0,0-2.852-2.73.391.391,0,0,0-.55.059.386.386,0,0,0,.059.546,24.757,24.757,0,0,1,2.762,2.643.389.389,0,0,0,.55.032.392.392,0,0,0,.032-.55M20.1,382.363a.388.388,0,0,0-.775.044c.075,1.333.186,2.643.324,3.9a.389.389,0,0,0,.384.348.148.148,0,0,0,.044,0,.387.387,0,0,0,.344-.427c-.138-1.242-.245-2.54-.32-3.857m-16.508.8a.388.388,0,0,0-.53.142,20.359,20.359,0,0,0-1.622,3.612.392.392,0,0,0,.245.495.446.446,0,0,0,.127.02.394.394,0,0,0,.368-.265,19.615,19.615,0,0,1,1.555-3.473.388.388,0,0,0-.142-.53m30.952,7.1a29.25,29.25,0,0,0-1.974-3.41.394.394,0,0,0-.542-.107.388.388,0,0,0-.107.538,28.344,28.344,0,0,1,1.922,3.323.4.4,0,0,0,.349.218.446.446,0,0,0,.174-.04.393.393,0,0,0,.178-.522m-12.738,3.545c-.316-1.175-.6-2.441-.835-3.766a.388.388,0,0,0-.764.138c.241,1.345.526,2.635.851,3.829a.385.385,0,0,0,.376.289.288.288,0,0,0,.1-.016.382.382,0,0,0,.273-.475M.915,390.417a.392.392,0,0,0-.451.316,32.3,32.3,0,0,0-.455,3.909.389.389,0,0,0,.368.407H.4a.389.389,0,0,0,.388-.364,30.677,30.677,0,0,1,.443-3.814.394.394,0,0,0-.316-.455m35.114,3.5a.389.389,0,1,0-.74.237,20.364,20.364,0,0,1,.843,3.719.385.385,0,0,0,.383.34h.048a.394.394,0,0,0,.34-.435,20.925,20.925,0,0,0-.874-3.861m-11.267,6.915a19.83,19.83,0,0,1-1.741-3.382.389.389,0,0,0-.72.293,20.263,20.263,0,0,0,1.812,3.517.389.389,0,0,0,.324.174.375.375,0,0,0,.214-.063.386.386,0,0,0,.111-.538m-23.985-2.3a.382.382,0,0,0-.407-.368A.389.389,0,0,0,0,398.57c.063,1.286.194,2.6.387,3.909a.391.391,0,0,0,.384.332c.02,0,.036,0,.055,0a.389.389,0,0,0,.329-.443c-.19-1.282-.316-2.571-.38-3.833M36.5,401.316a.39.39,0,0,0-.467.3,4.343,4.343,0,0,1-1.851,2.943.388.388,0,1,0,.407.661,5.077,5.077,0,0,0,2.2-3.438.386.386,0,0,0-.293-.463m-5.811,3.659a11.334,11.334,0,0,1-1.729-.487,6.885,6.885,0,0,1-1.677-.91.387.387,0,0,0-.542.083.391.391,0,0,0,.083.546,7.687,7.687,0,0,0,1.872,1.009,11.809,11.809,0,0,0,1.851.526.426.426,0,0,0,.071,0,.389.389,0,0,0,.071-.771m-27.712,4.87c-.415-1.211-.779-2.457-1.08-3.7a.388.388,0,0,0-.471-.285.384.384,0,0,0-.285.467c.3,1.27.676,2.536,1.1,3.77a.392.392,0,0,0,.368.261.441.441,0,0,0,.123-.02.392.392,0,0,0,.245-.495m3.157,7.014c-.629-1.1-1.214-2.255-1.745-3.43a.388.388,0,1,0-.708.316c.538,1.2,1.135,2.378,1.776,3.5a.392.392,0,0,0,.34.2.372.372,0,0,0,.19-.051.386.386,0,0,0,.146-.53m57.493,1.7a.392.392,0,0,0-.5.229,16.886,16.886,0,0,1-1.713,3.382.388.388,0,0,0,.114.538.374.374,0,0,0,.21.063.386.386,0,0,0,.329-.174,17.784,17.784,0,0,0,1.788-3.537.393.393,0,0,0-.225-.5M10.607,423.1a36.444,36.444,0,0,1-2.4-3,.387.387,0,0,0-.542-.091.391.391,0,0,0-.091.542,37.465,37.465,0,0,0,2.452,3.07.406.406,0,0,0,.293.127.388.388,0,0,0,.289-.645m48.967,2.029a.388.388,0,0,0-.55.008,24.279,24.279,0,0,1-2.88,2.52.391.391,0,0,0-.08.546.4.4,0,0,0,.313.154.378.378,0,0,0,.233-.079,25.132,25.132,0,0,0,2.971-2.6.388.388,0,0,0-.008-.55m-43.235,3.062a31.948,31.948,0,0,1-3.014-2.378.389.389,0,1,0-.518.582,32.8,32.8,0,0,0,3.086,2.433.4.4,0,0,0,.222.071.383.383,0,0,0,.32-.17.387.387,0,0,0-.095-.538M53.455,429.9a.391.391,0,0,0-.53-.15,33.687,33.687,0,0,1-3.454,1.705.389.389,0,0,0,.305.716,36.093,36.093,0,0,0,3.532-1.741.389.389,0,0,0,.147-.53m-30.339,1.855a30.915,30.915,0,0,1-3.5-1.574.388.388,0,0,0-.36.688,32.08,32.08,0,0,0,3.584,1.614.406.406,0,0,0,.138.024.388.388,0,0,0,.138-.752m23.206,1.254a.386.386,0,0,0-.463-.293c-1.278.285-2.552.522-3.794.708a.39.39,0,0,0,.055.775c.019,0,.04,0,.059,0,1.258-.19,2.556-.431,3.849-.72a.39.39,0,0,0,.293-.467m-15.773.6a33.79,33.79,0,0,1-3.774-.712.394.394,0,0,0-.471.285.391.391,0,0,0,.285.471,35.106,35.106,0,0,0,3.857.728.241.241,0,0,0,.051,0,.389.389,0,0,0,.051-.775m7.683.229c-1.306.083-2.6.111-3.85.075a.388.388,0,1,0-.023.775c.38.012.764.016,1.151.016.906,0,1.839-.028,2.773-.091a.389.389,0,0,0-.051-.775" transform="translate(0 -182.009)" fill="#66192d"/>
      <path id="Path_28043" data-name="Path 28043" d="M767.993,42.488c-1.305-.067-2.635-.071-3.924-.012a.39.39,0,0,0-.372.407.384.384,0,0,0,.407.368c1.266-.055,2.567-.051,3.849.012h.02a.388.388,0,0,0,.02-.775m7.762,1.1c-1.27-.3-2.567-.546-3.857-.728a.389.389,0,1,0-.107.771c1.266.178,2.54.419,3.786.712a.329.329,0,0,0,.087.012.389.389,0,0,0,.091-.767m-15.595-.744a36,36,0,0,0-3.849.764.388.388,0,0,0,.095.764.39.39,0,0,0,.095-.012,37.815,37.815,0,0,1,3.77-.748.388.388,0,1,0-.111-.767m-7.1,2.168a.391.391,0,0,0-.5-.229,33.345,33.345,0,0,0-3.588,1.61.389.389,0,0,0,.182.732.424.424,0,0,0,.182-.044,32.159,32.159,0,0,1,3.5-1.571.386.386,0,0,0,.225-.5m-6.907,3.521a.389.389,0,0,0-.542-.1,29.53,29.53,0,0,0-3.066,2.476.388.388,0,0,0-.02.55.392.392,0,0,0,.285.123.4.4,0,0,0,.265-.1,27.952,27.952,0,0,1,2.983-2.409.387.387,0,0,0,.095-.538m-5.756,5.19a.39.39,0,0,0-.55.055,29.173,29.173,0,0,0-2.275,3.208.388.388,0,1,0,.661.407,28.7,28.7,0,0,1,2.215-3.125.385.385,0,0,0-.051-.546m-4.142,6.551a.39.39,0,0,0-.514.194,33.188,33.188,0,0,0-1.381,3.683.389.389,0,0,0,.257.487.382.382,0,0,0,.115.016.389.389,0,0,0,.372-.273,31.567,31.567,0,0,1,1.349-3.592.392.392,0,0,0-.2-.514m-2.393,7.378a.39.39,0,0,0-.455.3c-.241,1.254-.431,2.56-.562,3.885a.39.39,0,0,0,.352.423h.036a.39.39,0,0,0,.388-.348c.127-1.3.313-2.583.55-3.81a.385.385,0,0,0-.309-.455m-.423,8.1a.4.4,0,0,0-.4-.384.388.388,0,0,0-.384.392,31.54,31.54,0,0,0,.289,3.92.387.387,0,0,0,.384.336.262.262,0,0,0,.055,0,.387.387,0,0,0,.332-.435,30.073,30.073,0,0,1-.281-3.825m53.335,5.93a8.206,8.206,0,0,0-3.853-1.2.39.39,0,0,0-.047.779,7.386,7.386,0,0,1,3.493,1.084.384.384,0,0,0,.2.059.389.389,0,0,0,.206-.72m-7.334-.415a.389.389,0,0,0-.487-.257,18.3,18.3,0,0,0-3.628,1.6.389.389,0,0,0,.19.728.4.4,0,0,0,.19-.051,17.667,17.667,0,0,1,3.477-1.531.392.392,0,0,0,.257-.487m-43.726,5.7a30.708,30.708,0,0,1-1.23-3.636.389.389,0,0,0-.752.2A32.015,32.015,0,0,0,735,87.262a.392.392,0,0,0,.506.214.392.392,0,0,0,.214-.506m36.878-2.1a.39.39,0,0,0-.546-.075c-.977.748-1.986,1.6-3,2.532a.392.392,0,0,0,.265.676.4.4,0,0,0,.265-.1c.993-.918,1.982-1.756,2.939-2.484a.387.387,0,0,0,.075-.546m18.66,3.3a13.377,13.377,0,0,0-1.63-3.643.388.388,0,1,0-.649.427,12.52,12.52,0,0,1,1.531,3.43.392.392,0,0,0,.372.285.5.5,0,0,0,.107-.016.39.39,0,0,0,.269-.483m-24.432,1.895a.392.392,0,0,0-.55.016c-.593.629-1.195,1.294-1.8,1.978-.273.313-.542.633-.8.953a.394.394,0,0,0,.059.55.4.4,0,0,0,.245.083.384.384,0,0,0,.3-.142c.253-.313.518-.625.783-.93.593-.68,1.191-1.337,1.776-1.958a.392.392,0,0,0-.016-.55m-27.4,3.62a35.724,35.724,0,0,1-2.045-3.252.386.386,0,0,0-.526-.154.392.392,0,0,0-.154.53,35.126,35.126,0,0,0,2.093,3.327.383.383,0,0,0,.317.162.391.391,0,0,0,.225-.071.387.387,0,0,0,.091-.542m52.48-1.6a.39.39,0,1,0-.779.044c.02.356.032.716.032,1.072a19.886,19.886,0,0,1-.19,2.734.394.394,0,0,0,.336.439h.051a.384.384,0,0,0,.384-.336,20.7,20.7,0,0,0,.194-2.832c0-.372-.008-.752-.028-1.12m-47.425,7.39c-.938-.886-1.839-1.82-2.67-2.769a.393.393,0,0,0-.55-.04.389.389,0,0,0-.036.55c.847.969,1.764,1.923,2.726,2.825a.384.384,0,0,0,.265.107.406.406,0,0,0,.285-.123.388.388,0,0,0-.02-.55M761.936,96.1a.388.388,0,0,0-.534.131,31.282,31.282,0,0,0-1.844,3.473.388.388,0,0,0,.2.514.369.369,0,0,0,.158.036.4.4,0,0,0,.356-.229,30.044,30.044,0,0,1,1.8-3.386.392.392,0,0,0-.131-.538m28.649,3.3a.384.384,0,0,0-.491.241,18.588,18.588,0,0,1-1.574,3.462.391.391,0,0,0,.135.534.4.4,0,0,0,.2.051.386.386,0,0,0,.336-.19,19.272,19.272,0,0,0,1.642-3.608.387.387,0,0,0-.245-.491m-40.051,4.826c-1.076-.7-2.132-1.456-3.137-2.239a.387.387,0,1,0-.479.609c1.021.8,2.093,1.571,3.193,2.283a.372.372,0,0,0,.21.063.39.39,0,0,0,.214-.716m8.114-1.1a.387.387,0,0,0-.487.253,36.494,36.494,0,0,0-.965,3.81.393.393,0,0,0,.309.459.454.454,0,0,0,.075,0,.385.385,0,0,0,.38-.313,34.922,34.922,0,0,1,.945-3.727.389.389,0,0,0-.257-.487m-1.325,4.743c-1.171-.5-2.342-1.068-3.469-1.673a.388.388,0,1,0-.368.684c1.147.617,2.338,1.191,3.533,1.705a.413.413,0,0,0,.154.032.389.389,0,0,0,.15-.748m29.456-1.753a.388.388,0,0,0-.55.008,14.336,14.336,0,0,1-2.959,2.342.39.39,0,0,0,.2.724.408.408,0,0,0,.2-.055,15.134,15.134,0,0,0,3.117-2.469.388.388,0,0,0-.008-.55m-22.138,4.15c-1.23-.281-2.48-.625-3.711-1.033a.39.39,0,1,0-.245.74c1.258.411,2.532.767,3.782,1.048a.353.353,0,0,0,.087.012.389.389,0,0,0,.087-.767m15.654-.008a.39.39,0,0,0-.491-.245,22.192,22.192,0,0,1-3.719.862.39.39,0,0,0,.055.775c.02,0,.04,0,.059,0a23.415,23.415,0,0,0,3.845-.894.391.391,0,0,0,.249-.494m-8.027.89H772.2a32.359,32.359,0,0,1-3.766-.225.388.388,0,1,0-.091.771,33.01,33.01,0,0,0,3.857.233h.071a.39.39,0,0,0,0-.779m-15.211-.423a.392.392,0,0,0-.423.348c-.123,1.27-.19,2.587-.206,3.92a.392.392,0,0,0,.388.392h0a.39.39,0,0,0,.388-.384c.012-1.313.079-2.607.2-3.853a.39.39,0,0,0-.352-.423m.257,8.134a.387.387,0,0,0-.411-.364.4.4,0,0,0-.364.415c.083,1.266.21,2.575.38,3.893a.392.392,0,0,0,.388.34.192.192,0,0,0,.047,0,.388.388,0,0,0,.336-.435c-.166-1.3-.293-2.6-.376-3.845m1.792,11.453c-.3-1.278-.574-2.552-.807-3.786a.388.388,0,1,0-.764.142c.233,1.246.506,2.536.815,3.825a.389.389,0,0,0,.38.3.391.391,0,0,0,.376-.479m2.12,7.453c-.408-1.242-.787-2.492-1.135-3.707a.389.389,0,0,0-.748.214c.348,1.226.736,2.48,1.147,3.738a.386.386,0,0,0,.368.265.332.332,0,0,0,.123-.02.388.388,0,0,0,.245-.491m2.666,7.291c-.487-1.211-.953-2.429-1.393-3.62a.387.387,0,1,0-.728.265c.439,1.2.91,2.429,1.4,3.647a.4.4,0,0,0,.364.241.365.365,0,0,0,.142-.028.388.388,0,0,0,.218-.506m3.09,7.117c-.55-1.183-1.088-2.374-1.594-3.541a.389.389,0,1,0-.712.313c.506,1.167,1.048,2.366,1.6,3.556a.388.388,0,1,0,.7-.328m3.446,6.967c-.605-1.155-1.2-2.322-1.764-3.462a.388.388,0,1,0-.7.344c.566,1.147,1.163,2.314,1.768,3.477a.391.391,0,0,0,.348.21.407.407,0,0,0,.178-.044.392.392,0,0,0,.166-.526m3.742,6.816c-.653-1.131-1.294-2.271-1.907-3.39a.389.389,0,1,0-.68.376c.617,1.124,1.258,2.267,1.911,3.4a.386.386,0,0,0,.336.2.375.375,0,0,0,.194-.051.389.389,0,0,0,.146-.53m4,6.666c-.688-1.1-1.373-2.215-2.029-3.315a.389.389,0,0,0-.669.4c.665,1.1,1.349,2.223,2.041,3.327a.379.379,0,0,0,.328.182.355.355,0,0,0,.206-.059.385.385,0,0,0,.123-.534m4.245,6.519c-.716-1.056-1.44-2.148-2.152-3.24a.387.387,0,1,0-.649.423c.712,1.1,1.44,2.192,2.16,3.252a.392.392,0,0,0,.32.174.4.4,0,0,0,.218-.067.389.389,0,0,0,.1-.542m4.514,6.349c-.008-.012-.878-1.151-2.3-3.149a.387.387,0,0,0-.542-.095.391.391,0,0,0-.091.542c1.428,2.014,2.306,3.165,2.314,3.173a.388.388,0,0,0,.309.154.407.407,0,0,0,.237-.079.39.39,0,0,0,.071-.546" transform="translate(-442.82 -25.649)" fill="#66192d"/>
      <path id="Path_28044" data-name="Path 28044" d="M1112.845,89.7a13.9,13.9,0,0,0-3.885-.854.389.389,0,0,0-.056.775,13.133,13.133,0,0,1,3.672.807.328.328,0,0,0,.134.028.39.39,0,0,0,.135-.756m-7.394-.245a.387.387,0,0,0-.479-.269,6.349,6.349,0,0,0-3.438,2.164.39.39,0,0,0,.068.546.384.384,0,0,0,.241.079.391.391,0,0,0,.3-.146,5.6,5.6,0,0,1,3.03-1.895.385.385,0,0,0,.273-.479M1119.4,94.07a21.5,21.5,0,0,0-3.039-2.528.39.39,0,0,0-.439.645,20.626,20.626,0,0,1,2.932,2.433.371.371,0,0,0,.273.115.4.4,0,0,0,.277-.115.388.388,0,0,0,0-.55m-17.628,4.811a10.293,10.293,0,0,1-.716-3.584l0-.067a.4.4,0,0,0-.384-.4.387.387,0,0,0-.4.384V95.3a11.1,11.1,0,0,0,.763,3.857.383.383,0,0,0,.364.253.4.4,0,0,0,.135-.024.39.39,0,0,0,.229-.5m22.359,1.468a32.4,32.4,0,0,0-2.152-3.3.39.39,0,0,0-.625.467,31.924,31.924,0,0,1,2.1,3.212.387.387,0,1,0,.672-.384m-18.245,4.9a23.317,23.317,0,0,1-2.369-2.995.39.39,0,0,0-.653.427,23.778,23.778,0,0,0,2.457,3.1.387.387,0,1,0,.565-.53m21.414,2.279c-.412-1.25-.882-2.484-1.4-3.667a.388.388,0,0,0-.514-.2.383.383,0,0,0-.2.51c.51,1.159.969,2.37,1.373,3.6a.391.391,0,0,0,.372.265.309.309,0,0,0,.118-.02.387.387,0,0,0,.25-.491m-15.472,2.548a31.3,31.3,0,0,1-3.134-2.219.387.387,0,1,0-.487.6,31.662,31.662,0,0,0,3.208,2.279.389.389,0,0,0,.412-.661m6.935,3.28a34.705,34.705,0,0,1-3.56-1.448.389.389,0,1,0-.332.7,35.377,35.377,0,0,0,3.64,1.48.375.375,0,0,0,.126.024.391.391,0,0,0,.127-.76m28.364.249a.39.39,0,0,0-.482-.265c-.431.123-.859.241-1.286.352a.39.39,0,0,0,.1.767.289.289,0,0,0,.1-.016q.646-.172,1.305-.356a.392.392,0,0,0,.265-.483m-18.783-2.291a.389.389,0,0,0-.76.17c.285,1.254.511,2.532.673,3.8a.388.388,0,0,0,.384.336.211.211,0,0,0,.051,0,.385.385,0,0,0,.336-.435c-.166-1.286-.4-2.587-.684-3.865m-2.1,3.806c-1.278-.174-2.552-.407-3.786-.7a.388.388,0,1,0-.174.756c1.254.3,2.552.534,3.857.712.019,0,.036,0,.052,0a.389.389,0,0,0,.051-.775m15.349-.566c-1.274.249-2.556.451-3.814.6a.389.389,0,0,0,.047.775c.016,0,.032,0,.047,0,1.274-.154,2.575-.356,3.869-.609a.388.388,0,0,0,.309-.455.394.394,0,0,0-.459-.309m-7.655.91c-.633.028-1.27.04-1.9.04-.668,0-1.313-.016-1.962-.044a.388.388,0,0,0-.032.775c.656.032,1.321.044,1.982.044h.012c.633,0,1.282-.012,1.923-.036a.39.39,0,1,0-.027-.779m-4.6,3.632a.4.4,0,0,0-.4-.376.384.384,0,0,0-.376.4c.008.344.015.688.015,1.029,0,.949-.04,1.895-.11,2.813a.387.387,0,0,0,.356.419h.032a.394.394,0,0,0,.388-.356c.075-.942.111-1.907.111-2.876,0-.348,0-.7-.012-1.052m-.946,7.366a.386.386,0,0,0-.459.3,28.414,28.414,0,0,1-1,3.7.39.39,0,0,0,.241.495.469.469,0,0,0,.126.02.386.386,0,0,0,.368-.261,29.938,29.938,0,0,0,1.033-3.8.388.388,0,0,0-.3-.455m-2.453,7.354a.389.389,0,0,0-.527.162,23.437,23.437,0,0,1-2.041,3.224.386.386,0,0,0,.075.546.362.362,0,0,0,.233.079.377.377,0,0,0,.309-.154,24.015,24.015,0,0,0,2.112-3.335.382.382,0,0,0-.162-.522m-4.578,6.243a.384.384,0,0,0-.546-.02,22.971,22.971,0,0,1-3,2.358.385.385,0,0,0-.111.538.379.379,0,0,0,.325.174.393.393,0,0,0,.213-.063,23.657,23.657,0,0,0,3.106-2.437.388.388,0,0,0,.016-.55m-59.905,4.229c-2.3-.744-3.636-1.282-3.651-1.286a.388.388,0,0,0-.289.72c.012.008,1.377.554,3.7,1.305a.419.419,0,0,0,.119.02.389.389,0,0,0,.119-.76m53.52.142a.389.389,0,0,0-.518-.194c-1.151.526-2.35,1.021-3.568,1.46a.389.389,0,0,0,.134.756.382.382,0,0,0,.131-.024c1.238-.447,2.457-.949,3.627-1.484a.389.389,0,0,0,.194-.514m-46.052,1.946c-1.258-.3-2.52-.629-3.754-.973a.388.388,0,1,0-.21.748c1.242.348,2.516.676,3.781.981a.359.359,0,0,0,.091.008.387.387,0,0,0,.091-.764m38.773.767a.391.391,0,0,0-.479-.273c-1.218.34-2.48.645-3.754.906a.387.387,0,0,0,.079.767.244.244,0,0,0,.075-.008c1.294-.261,2.571-.57,3.81-.914a.392.392,0,0,0,.269-.479m-31.173.752c-1.262-.2-2.544-.435-3.814-.688a.389.389,0,0,0-.459.3.394.394,0,0,0,.3.459c1.282.253,2.576.487,3.845.692a.326.326,0,0,0,.064,0,.388.388,0,0,0,.059-.771m7.694.91c-1.266-.095-2.563-.222-3.857-.376a.388.388,0,0,0-.091.771c1.3.158,2.611.285,3.889.38h.028a.388.388,0,0,0,.031-.775m15.441-.384c-1.25.174-2.544.313-3.845.411a.388.388,0,0,0,.031.775h.028c1.317-.1,2.623-.241,3.889-.415a.386.386,0,0,0,.332-.439.39.39,0,0,0-.435-.332m-7.706.6c-1.29.028-2.575.02-3.869-.016a.39.39,0,0,0-.023.779c.755.02,1.511.032,2.255.032.55,0,1.1-.008,1.654-.02a.389.389,0,0,0,.384-.4.394.394,0,0,0-.4-.38" transform="translate(-639.017 -53.701)" fill="#66192d"/>
      <path id="Path_28045" data-name="Path 28045" d="M973.568,419.429c-1.31.024-2.623.083-3.905.17a.39.39,0,0,0,.028.779c.008,0,.02,0,.028,0,1.266-.087,2.568-.142,3.865-.17a.386.386,0,0,0,.38-.4.377.377,0,0,0-.4-.38m7.817.313c-1.282-.15-2.6-.249-3.909-.293a.388.388,0,1,0-.028.775c1.294.044,2.587.142,3.845.289a.178.178,0,0,0,.043,0,.389.389,0,0,0,.047-.775m-15.61.229c-1.3.158-2.6.356-3.861.582a.389.389,0,0,0,.067.771.364.364,0,0,0,.067,0c1.254-.225,2.54-.419,3.821-.578a.385.385,0,0,0,.34-.431.391.391,0,0,0-.435-.34m23.277,1.377c-1.23-.38-2.512-.708-3.8-.977a.388.388,0,0,0-.158.76c1.262.265,2.516.585,3.727.961a.4.4,0,0,0,.115.016.388.388,0,0,0,.115-.76m-30.5.3a.386.386,0,0,0-.471-.285c-1.27.3-2.54.657-3.77,1.036a.388.388,0,0,0,.115.76.368.368,0,0,0,.115-.02c1.215-.372,2.469-.716,3.727-1.021a.388.388,0,0,0,.285-.471m37.721,2.761a37.33,37.33,0,0,0-3.533-1.713.389.389,0,1,0-.3.716,35.827,35.827,0,0,1,3.461,1.677.394.394,0,0,0,.186.047.379.379,0,0,0,.34-.2.385.385,0,0,0-.15-.526m-45.158-.514a.387.387,0,0,0-.5-.222c-1.222.463-2.433.977-3.608,1.515a.4.4,0,0,0-.19.518.39.39,0,0,0,.356.225.415.415,0,0,0,.162-.036c1.155-.534,2.354-1.036,3.556-1.5a.389.389,0,0,0,.225-.5m51.567,5.044a33.3,33.3,0,0,0-3.078-2.449.389.389,0,0,0-.447.637,32.912,32.912,0,0,1,3.007,2.389.375.375,0,0,0,.257.1.388.388,0,0,0,.261-.676m-58.64-1.832a.391.391,0,0,0-.53-.15c-1.147.629-2.279,1.305-3.363,2.01a.391.391,0,0,0,.214.716.385.385,0,0,0,.214-.063c1.064-.692,2.18-1.361,3.311-1.982a.393.393,0,0,0,.154-.53M937.5,431.3a.391.391,0,0,0-.546-.075c-1.048.8-2.065,1.65-3.015,2.508a.388.388,0,0,0,.257.676.378.378,0,0,0,.261-.1c.938-.847,1.938-1.677,2.967-2.465a.387.387,0,0,0,.075-.546m70.334,3.572a29.373,29.373,0,0,0-2.385-3.133.384.384,0,0,0-.546-.04.389.389,0,0,0-.04.55,29.09,29.09,0,0,1,2.322,3.05.384.384,0,0,0,.324.174.394.394,0,0,0,.214-.063.389.389,0,0,0,.111-.538m115.6,3.212a25.511,25.511,0,0,0-3.94.214.388.388,0,0,0-.336.435.392.392,0,0,0,.388.336.242.242,0,0,0,.051,0,25.426,25.426,0,0,1,3.818-.206.388.388,0,1,0,.02-.775M931.69,436.468a.388.388,0,0,0-.55.024,25.654,25.654,0,0,0-2.5,3.078.387.387,0,0,0,.115.538.4.4,0,0,0,.21.059.391.391,0,0,0,.328-.174,25.375,25.375,0,0,1,2.417-2.975.388.388,0,0,0-.024-.55m199.462,3.165a21.408,21.408,0,0,0-3.79-1.124.394.394,0,0,0-.459.309.385.385,0,0,0,.3.455,20.649,20.649,0,0,1,3.655,1.084.37.37,0,0,0,.146.028.39.39,0,0,0,.142-.752m-15.037-.281a.391.391,0,0,0-.483-.269,29.988,29.988,0,0,0-3.711,1.3.392.392,0,0,0-.21.51.388.388,0,0,0,.511.206,29.36,29.36,0,0,1,3.619-1.266.4.4,0,0,0,.273-.483M1011.142,442a24.613,24.613,0,0,0-1.385-3.695.388.388,0,1,0-.7.328,23.524,23.524,0,0,1,1.341,3.58.393.393,0,0,0,.376.281.333.333,0,0,0,.107-.016.386.386,0,0,0,.265-.479m97.788.277a.393.393,0,0,0-.534-.146,36.764,36.764,0,0,0-3.3,2.136.389.389,0,1,0,.459.629,36.025,36.025,0,0,1,3.224-2.089.389.389,0,0,0,.146-.53m-6.333,4.49a.388.388,0,0,0-.55-.032c-.958.858-1.9,1.78-2.8,2.749a.39.39,0,0,0,.285.653.388.388,0,0,0,.285-.127c.882-.945,1.808-1.855,2.745-2.694a.389.389,0,0,0,.032-.55m-90.707-.886a.388.388,0,0,0-.772.075c.063.661.1,1.321.1,1.974,0,.613-.032,1.23-.091,1.832a.393.393,0,0,0,.352.427h.036a.39.39,0,0,0,.388-.352c.059-.629.091-1.27.091-1.907,0-.677-.036-1.369-.1-2.049m85.362,6.516a.39.39,0,0,0-.546.067c-.791,1.009-1.563,2.077-2.295,3.177a.385.385,0,0,0,.111.538.373.373,0,0,0,.213.063.39.39,0,0,0,.324-.17c.72-1.084,1.479-2.136,2.259-3.129a.39.39,0,0,0-.067-.546m-86.4.835a.389.389,0,0,0-.491.253,17.755,17.755,0,0,1-1.527,3.477.386.386,0,0,0,.146.53.371.371,0,0,0,.19.051.388.388,0,0,0,.341-.2,18.638,18.638,0,0,0,1.594-3.628.388.388,0,0,0-.253-.487m82.036,5.6a.387.387,0,0,0-.53.142c-.633,1.112-1.242,2.279-1.82,3.465a.386.386,0,0,0,.182.518.354.354,0,0,0,.166.04.388.388,0,0,0,.352-.218c.57-1.171,1.171-2.322,1.8-3.418a.388.388,0,0,0-.147-.53m-85.723,1.183a.392.392,0,0,0-.55.036,21.285,21.285,0,0,1-2.773,2.615.39.39,0,0,0-.063.546.382.382,0,0,0,.3.15.388.388,0,0,0,.241-.083,22.384,22.384,0,0,0,2.876-2.714.389.389,0,0,0-.036-.55m-5.97,4.925a.389.389,0,0,0-.53-.146,29.747,29.747,0,0,1-3.458,1.665.39.39,0,0,0-.209.51.385.385,0,0,0,.36.241.39.39,0,0,0,.146-.032,31.273,31.273,0,0,0,3.545-1.709.393.393,0,0,0,.146-.53m88.251.858a.387.387,0,0,0-.506.21c-.491,1.183-.958,2.413-1.393,3.651a.388.388,0,0,0,.237.495.38.38,0,0,0,.131.024.4.4,0,0,0,.368-.261c.427-1.226.89-2.441,1.372-3.612a.385.385,0,0,0-.21-.506m-95.363,2.255a.39.39,0,0,0-.511-.206,29.829,29.829,0,0,0-3.517,1.768.39.39,0,0,0-.138.53.386.386,0,0,0,.534.138,29.211,29.211,0,0,1,3.426-1.721.39.39,0,0,0,.206-.51m-6.734,3.845a.389.389,0,0,0-.546-.067,30.294,30.294,0,0,0-2.931,2.631.388.388,0,0,0,.008.55.383.383,0,0,0,.273.111.4.4,0,0,0,.277-.115,28.625,28.625,0,0,1,2.852-2.563.386.386,0,0,0,.067-.546m99.482,1.215a.391.391,0,0,0-.483.265c-.36,1.226-.7,2.492-1.017,3.77a.388.388,0,0,0,.285.471.379.379,0,0,0,.091.012.389.389,0,0,0,.38-.3c.309-1.266.649-2.524,1.009-3.738a.393.393,0,0,0-.265-.483m-104.973,4.265a.39.39,0,0,0-.546.075,31.732,31.732,0,0,0-2.156,3.3.39.39,0,0,0,.146.53.409.409,0,0,0,.19.047.383.383,0,0,0,.34-.194,30.761,30.761,0,0,1,2.1-3.212.385.385,0,0,0-.075-.542m103.074,3.276a.386.386,0,0,0-.463.293c-.293,1.278-.6,2.544-.918,3.766a.389.389,0,0,0,.376.487.384.384,0,0,0,.376-.293c.321-1.226.633-2.5.922-3.79a.386.386,0,0,0-.293-.463m-107,3.418a.385.385,0,0,0-.506.21,32.779,32.779,0,0,0-1.29,3.715.387.387,0,0,0,.269.479.336.336,0,0,0,.107.016.384.384,0,0,0,.372-.285,33.021,33.021,0,0,1,1.258-3.628.384.384,0,0,0-.21-.506m105.06,4.11a.391.391,0,0,0-.487.261c-.376,1.258-.775,2.5-1.183,3.687a.387.387,0,0,0,.242.495.442.442,0,0,0,.126.02.4.4,0,0,0,.368-.261c.411-1.2.814-2.449,1.194-3.719a.39.39,0,0,0-.261-.483m-107.247,3.331a.392.392,0,0,0-.447.324,33.249,33.249,0,0,0-.38,3.912.389.389,0,0,0,.372.4h.015a.385.385,0,0,0,.388-.372,33.337,33.337,0,0,1,.372-3.822.389.389,0,0,0-.32-.447m104.739,4.027a.387.387,0,0,0-.506.218c-.483,1.214-.993,2.409-1.519,3.556a.391.391,0,0,0,.356.55.384.384,0,0,0,.352-.225c.53-1.159,1.048-2.37,1.535-3.6a.388.388,0,0,0-.218-.5m-104.177,7.88a32.937,32.937,0,0,1-.534-3.8.389.389,0,0,0-.775.063,32.916,32.916,0,0,0,.55,3.893.385.385,0,0,0,.38.313.487.487,0,0,0,.075-.008.388.388,0,0,0,.3-.459m100.969-.8a.387.387,0,0,0-.526.158c-.609,1.151-1.254,2.279-1.914,3.355a.39.39,0,0,0,.126.534.384.384,0,0,0,.206.055.379.379,0,0,0,.328-.182c.673-1.092,1.325-2.231,1.942-3.394a.39.39,0,0,0-.162-.526m-98.548,8.07a31.254,31.254,0,0,1-1.432-3.56.39.39,0,0,0-.74.245,31.93,31.93,0,0,0,1.472,3.647.379.379,0,0,0,.348.222.423.423,0,0,0,.17-.036.39.39,0,0,0,.182-.518m94.513-1.436a.388.388,0,0,0-.542.091c-.752,1.048-1.547,2.073-2.362,3.046a.388.388,0,0,0,.048.546.379.379,0,0,0,.249.091.4.4,0,0,0,.3-.138c.827-.985,1.634-2.026,2.4-3.094a.384.384,0,0,0-.091-.542m-90.386,7.888a31.323,31.323,0,0,1-2.263-3.1.39.39,0,1,0-.657.419,31.347,31.347,0,0,0,2.322,3.173.376.376,0,0,0,.3.142.4.4,0,0,0,.249-.091.385.385,0,0,0,.052-.546m85.441-1.907a.388.388,0,0,0-.55,0c-.9.914-1.847,1.8-2.813,2.627a.389.389,0,0,0-.043.55.381.381,0,0,0,.3.134.393.393,0,0,0,.254-.091c.981-.847,1.946-1.745,2.86-2.674a.388.388,0,0,0,0-.55m-5.847,5.1a.4.4,0,0,0-.546-.087c-1.025.744-2.109,1.46-3.212,2.124a.391.391,0,0,0-.13.534.385.385,0,0,0,.332.19.374.374,0,0,0,.2-.059c1.124-.677,2.219-1.4,3.264-2.156a.392.392,0,0,0,.091-.546M988.427,522.4a32.219,32.219,0,0,1-2.939-2.469.389.389,0,0,0-.534.566,33.748,33.748,0,0,0,3.006,2.528.4.4,0,0,0,.233.079.391.391,0,0,0,.233-.7m67.418,2a.385.385,0,0,0-.522-.174c-1.127.566-2.31,1.1-3.509,1.594a.388.388,0,0,0,.146.748.41.41,0,0,0,.15-.032c1.214-.5,2.413-1.04,3.56-1.614a.39.39,0,0,0,.174-.522m-60.8,1.9a37.077,37.077,0,0,1-3.414-1.776.389.389,0,0,0-.392.672,38.033,38.033,0,0,0,3.481,1.812.389.389,0,0,0,.324-.708m53.647,1.1a.39.39,0,0,0-.491-.245c-1.195.4-2.441.767-3.7,1.1a.388.388,0,0,0,.1.763.4.4,0,0,0,.1-.012c1.278-.336,2.54-.712,3.75-1.112a.393.393,0,0,0,.245-.495m-46.392,1.456c-1.258-.324-2.5-.7-3.687-1.12a.39.39,0,0,0-.257.736c1.207.423,2.469.807,3.75,1.135a.266.266,0,0,0,.1.016.39.39,0,0,0,.1-.767m38.9.578a.386.386,0,0,0-.459-.3c-1.23.249-2.512.479-3.806.673a.39.39,0,0,0,.059.775.3.3,0,0,0,.059-.008c1.305-.2,2.6-.423,3.845-.68a.384.384,0,0,0,.3-.459m-31.308.8c-1.294-.142-2.579-.328-3.821-.55a.39.39,0,0,0-.138.767c1.258.226,2.564.411,3.873.558h.044a.389.389,0,0,0,.043-.775m23.206.067c-1.25.131-2.548.237-3.857.32a.39.39,0,0,0,.024.779c.012,0,.02,0,.028,0,1.317-.083,2.623-.19,3.889-.324a.388.388,0,1,0-.083-.771m-15.476.447c-1.258-.047-2.559-.115-3.873-.2a.39.39,0,0,0-.047.779c1.317.083,2.627.146,3.893.194h.016a.388.388,0,0,0,.012-.775m7.754.047c-1.013.024-2.045.04-3.09.04-.261,0-.526,0-.787,0a.39.39,0,0,0,0,.779h.827c1.032,0,2.069-.012,3.074-.04a.383.383,0,0,0,.375-.4.39.39,0,0,0-.4-.376" transform="translate(-561.233 -253.504)" fill="#66192d"/>
      <path id="Path_28046" data-name="Path 28046" d="M1318.131,622.592c-1.361-1.966-2.31-3.161-2.318-3.173a.39.39,0,0,0-.609.487c.012.012.946,1.183,2.291,3.129a.383.383,0,0,0,.321.17.4.4,0,0,0,.221-.071.391.391,0,0,0,.095-.542m4.162,6.626c-.629-1.112-1.306-2.243-2.006-3.359a.387.387,0,0,0-.534-.123.391.391,0,0,0-.123.538c.692,1.1,1.361,2.227,1.986,3.327a.389.389,0,1,0,.677-.384m3.485,7.01c-.495-1.159-1.048-2.354-1.646-3.552a.388.388,0,0,0-.7.344c.594,1.187,1.139,2.37,1.626,3.513a.391.391,0,0,0,.356.237.429.429,0,0,0,.154-.032.39.39,0,0,0,.206-.51m2.492,7.433c-.285-1.214-.653-2.484-1.092-3.77a.386.386,0,0,0-.49-.245.391.391,0,0,0-.245.495c.431,1.266.791,2.508,1.072,3.7a.389.389,0,0,0,.38.3.635.635,0,0,0,.087-.008.39.39,0,0,0,.289-.471m-2.742,2.188a14.557,14.557,0,0,0-3.818,1.128.388.388,0,0,0,.158.744.379.379,0,0,0,.158-.032,13.686,13.686,0,0,1,3.612-1.068.39.39,0,1,0-.111-.771m7.789,1.234a14.192,14.192,0,0,0-3.8-1.2.387.387,0,0,0-.447.32.392.392,0,0,0,.32.447,13.418,13.418,0,0,1,3.592,1.135.419.419,0,0,0,.166.036.388.388,0,0,0,.166-.74m-4.367.455a.389.389,0,0,0-.431-.344.394.394,0,0,0-.344.431,24.075,24.075,0,0,1,.15,2.627c0,.4-.012.8-.036,1.191a.392.392,0,0,0,.368.411h.02a.387.387,0,0,0,.388-.368c.024-.4.036-.819.036-1.234a25.753,25.753,0,0,0-.15-2.714m-10.108,1.543a.39.39,0,0,0-.546-.079,22.1,22.1,0,0,0-2.931,2.655.388.388,0,0,0,.02.55.393.393,0,0,0,.55-.02,21.316,21.316,0,0,1,2.829-2.56.388.388,0,0,0,.079-.546m20.888,2.575a21.645,21.645,0,0,0-3.015-2.556.389.389,0,0,0-.451.633,20.862,20.862,0,0,1,2.908,2.465.387.387,0,0,0,.55.008.388.388,0,0,0,.008-.55m-26.268,2.995a.387.387,0,0,0-.538.107,22.688,22.688,0,0,0-1.907,3.469.387.387,0,0,0,.2.51.359.359,0,0,0,.154.032.387.387,0,0,0,.356-.233,22.162,22.162,0,0,1,1.84-3.347.388.388,0,0,0-.107-.538m30.323,3.766a16.2,16.2,0,0,0-1.622-3.628.391.391,0,0,0-.534-.131.384.384,0,0,0-.131.534,15.625,15.625,0,0,1,1.543,3.454.389.389,0,0,0,.372.273.4.4,0,0,0,.115-.016.389.389,0,0,0,.257-.487m-15.618-3.493a.391.391,0,0,0-.483.269,15.008,15.008,0,0,1-1.456,3.485.384.384,0,0,0,.138.53.386.386,0,0,0,.534-.138,15.826,15.826,0,0,0,1.535-3.667.388.388,0,0,0-.269-.479m-3.691,6.745a.388.388,0,0,0-.55,0,17.844,17.844,0,0,1-2.959,2.381.39.39,0,0,0,.214.716.371.371,0,0,0,.21-.063,18.455,18.455,0,0,0,3.086-2.488.392.392,0,0,0,0-.55m-13.47,4.015a4.255,4.255,0,0,1-.5-2.188,8.654,8.654,0,0,1,.115-1.345.388.388,0,0,0-.324-.443.384.384,0,0,0-.443.324,9.163,9.163,0,0,0-.123,1.464,5.065,5.065,0,0,0,.6,2.583.4.4,0,0,0,.336.194.4.4,0,0,0,.2-.055.392.392,0,0,0,.138-.534m33.488-3.359a.382.382,0,0,0-.411-.364.393.393,0,0,0-.364.415c.028.415.044.843.044,1.266a21.665,21.665,0,0,1-.158,2.544.384.384,0,0,0,.336.431.187.187,0,0,0,.047,0,.392.392,0,0,0,.388-.34,21.613,21.613,0,0,0,.166-2.639c0-.443-.016-.886-.048-1.317m-26.375,3.75a.388.388,0,0,0-.514-.2,11.57,11.57,0,0,1-3.588,1.048.388.388,0,0,0,.032.775h.032a12.384,12.384,0,0,0,3.845-1.112.393.393,0,0,0,.194-.514m25.2,3.592a.389.389,0,0,0-.479.269,31.455,31.455,0,0,1-1.266,3.628.385.385,0,0,0,.21.506.332.332,0,0,0,.15.032.4.4,0,0,0,.36-.237,32.234,32.234,0,0,0,1.294-3.719.384.384,0,0,0-.269-.479m-2.892,7.208a.386.386,0,0,0-.526.154c-.708,1.282-1.238,2.045-1.242,2.053a.388.388,0,0,0,.095.542.395.395,0,0,0,.542-.1,24.788,24.788,0,0,0,1.286-2.12.391.391,0,0,0-.154-.53" transform="translate(-791.601 -374.291)" fill="#66192d"/>
      <path id="Path_28047" data-name="Path 28047" d="M1421,156.061c-1.286-.04-2.611-.016-3.92.063a.388.388,0,0,0,.02.775h.024c1.29-.079,2.587-.1,3.853-.059a.39.39,0,0,0,.024-.779m7.774.953c-1.27-.277-2.572-.5-3.865-.657a.389.389,0,0,0-.095.771c1.27.154,2.548.372,3.794.645a.3.3,0,0,0,.083.012.39.39,0,0,0,.083-.771m7.465,2.389c-1.2-.514-2.441-.973-3.675-1.369a.388.388,0,1,0-.237.74c1.214.388,2.425.839,3.608,1.345a.387.387,0,0,0,.51-.206.39.39,0,0,0-.206-.51m6.9,3.715c-1.092-.72-2.223-1.4-3.367-2.014a.389.389,0,0,0-.368.684c1.12.605,2.231,1.27,3.307,1.978a.375.375,0,0,0,.214.063.383.383,0,0,0,.324-.174.389.389,0,0,0-.111-.538m6.14,4.866c-.949-.894-1.946-1.756-2.963-2.563a.39.39,0,1,0-.487.609c1,.8,1.982,1.642,2.916,2.52a.387.387,0,0,0,.269.107.375.375,0,0,0,.281-.123.388.388,0,0,0-.016-.55m5.23,5.839c-.783-1.036-1.622-2.057-2.492-3.03a.389.389,0,0,0-.582.518c.859.957,1.681,1.958,2.453,2.979a.377.377,0,0,0,.309.154.387.387,0,0,0,.313-.621m4.15,6.646c-.581-1.151-1.23-2.3-1.927-3.414a.391.391,0,0,0-.538-.123.385.385,0,0,0-.123.534c.684,1.1,1.321,2.223,1.9,3.355a.39.39,0,0,0,.348.214.386.386,0,0,0,.174-.04.392.392,0,0,0,.17-.526m-13.652,6.516a5.216,5.216,0,0,0-3.675-1.764.38.38,0,0,0-.411.364.392.392,0,0,0,.368.411,4.462,4.462,0,0,1,3.141,1.511.388.388,0,0,0,.289.127.378.378,0,0,0,.261-.1.385.385,0,0,0,.028-.55m16.477.807a36.025,36.025,0,0,0-1.222-3.734.388.388,0,0,0-.724.281,35.389,35.389,0,0,1,1.195,3.655.385.385,0,0,0,.376.289.423.423,0,0,0,.1-.012.39.39,0,0,0,.277-.479m-23.574-1.5a.384.384,0,0,0-.518-.182,14.551,14.551,0,0,0-3.3,2.239.389.389,0,0,0-.036.55.394.394,0,0,0,.293.131.375.375,0,0,0,.257-.1,13.7,13.7,0,0,1,3.117-2.12.386.386,0,0,0,.182-.518m8.944,4.269a.391.391,0,0,0-.752.214,17.773,17.773,0,0,1,.593,3.75.389.389,0,0,0,.388.364h.024a.386.386,0,0,0,.364-.411,18.857,18.857,0,0,0-.617-3.916m-14.89.633a.39.39,0,0,0-.542.079,21.257,21.257,0,0,0-2.061,3.378.4.4,0,0,0,.182.522.37.37,0,0,0,.17.04.39.39,0,0,0,.348-.222,20.406,20.406,0,0,1,1.982-3.252.387.387,0,0,0-.079-.546m30.291.455a.389.389,0,0,0-.771.1,24.9,24.9,0,0,1,.221,3.248c0,.19,0,.38-.008.57a.389.389,0,0,0,.38.4h.008a.389.389,0,0,0,.388-.38c.008-.194.008-.392.008-.589a25.734,25.734,0,0,0-.225-3.351M1447.1,198a.38.38,0,0,0-.411.368c-.067,1.195-.2,2.488-.38,3.837a.391.391,0,0,0,.332.439c.016,0,.036,0,.052,0a.392.392,0,0,0,.388-.336c.186-1.373.317-2.682.388-3.9a.392.392,0,0,0-.368-.411m-18.629.091a.39.39,0,0,0-.471.281,16.775,16.775,0,0,0-.53,3.936.392.392,0,0,0,.384.4h0a.394.394,0,0,0,.392-.384,16.272,16.272,0,0,1,.5-3.754.388.388,0,0,0-.281-.475m33.238.965a.39.39,0,0,0-.467.293c-.087.384-.186.767-.3,1.135-.261.854-.546,1.705-.847,2.528a.387.387,0,0,0,.229.5.42.42,0,0,0,.135.024.388.388,0,0,0,.364-.253c.309-.835.6-1.7.862-2.571.119-.384.222-.787.313-1.187a.39.39,0,0,0-.293-.467m-31.589,10.5a13.981,13.981,0,0,1-1.432-3.489.387.387,0,0,0-.471-.281.393.393,0,0,0-.281.475,14.843,14.843,0,0,0,1.511,3.687.39.39,0,0,0,.336.194.389.389,0,0,0,.336-.585m16-3.845a.389.389,0,0,0-.459.3c-.249,1.234-.546,2.5-.882,3.762a.388.388,0,0,0,.277.475.428.428,0,0,0,.1.016.392.392,0,0,0,.376-.293c.34-1.274.641-2.556.894-3.806a.394.394,0,0,0-.3-.459m13,.669a.39.39,0,0,0-.518.182,35.551,35.551,0,0,1-1.835,3.378.391.391,0,0,0,.126.538.395.395,0,0,0,.534-.127,36.725,36.725,0,0,0,1.879-3.454.39.39,0,0,0-.186-.518m-24.163,9.079a25.19,25.19,0,0,1-2.619-2.789.394.394,0,0,0-.55-.055.389.389,0,0,0-.055.546,26,26,0,0,0,2.7,2.872.378.378,0,0,0,.261.1.388.388,0,0,0,.261-.676m20.14-2.441a.385.385,0,0,0-.546.055,22.526,22.526,0,0,1-2.647,2.749.39.39,0,0,0,.253.684.4.4,0,0,0,.257-.095,23.259,23.259,0,0,0,2.738-2.848.389.389,0,0,0-.055-.546m-10.923.222a.387.387,0,0,0-.49.249c-.388,1.2-.819,2.425-1.282,3.651a.387.387,0,0,0,.225.5.4.4,0,0,0,.135.024.385.385,0,0,0,.364-.249c.471-1.238.906-2.48,1.3-3.691a.383.383,0,0,0-.249-.487m-2.662,5.823a12.184,12.184,0,0,1-3.5-1.357.389.389,0,1,0-.384.676,13.038,13.038,0,0,0,3.723,1.444.533.533,0,0,0,.079.008.39.39,0,0,0,.079-.771m7.8-.926a.391.391,0,0,0-.526-.166,11.67,11.67,0,0,1-3.549,1.191.388.388,0,0,0,.059.771.361.361,0,0,0,.063,0,12.458,12.458,0,0,0,3.786-1.266.392.392,0,0,0,.166-.526m-7.849,2.389a.389.389,0,0,0-.51.206c-.5,1.167-1.044,2.358-1.606,3.537a.39.39,0,0,0,.182.518.438.438,0,0,0,.17.036.379.379,0,0,0,.348-.222c.57-1.187,1.112-2.385,1.618-3.564a.386.386,0,0,0-.2-.51m-3.327,7.05a.387.387,0,0,0-.526.162c-.589,1.127-1.215,2.275-1.855,3.406a.389.389,0,0,0,.15.53.371.371,0,0,0,.19.051.392.392,0,0,0,.34-.2c.641-1.139,1.27-2.294,1.863-3.43a.386.386,0,0,0-.162-.522m-3.806,6.781a.389.389,0,0,0-.534.135c-.657,1.084-1.349,2.192-2.057,3.291a.388.388,0,0,0,.653.419c.712-1.1,1.408-2.219,2.069-3.311a.385.385,0,0,0-.13-.534m-4.2,6.559a.392.392,0,0,0-.542.1c-.72,1.06-1.468,2.128-2.227,3.185a.387.387,0,0,0,.316.613.383.383,0,0,0,.317-.162c.76-1.056,1.515-2.132,2.239-3.2a.387.387,0,0,0-.1-.538m-4.526,6.334a.391.391,0,0,0-.546.079c-.771,1.025-1.567,2.061-2.37,3.078a.389.389,0,0,0,.067.546.385.385,0,0,0,.237.083.4.4,0,0,0,.309-.146c.8-1.025,1.606-2.065,2.381-3.094a.391.391,0,0,0-.079-.546m-4.8,6.132a.389.389,0,0,0-.546.055c-.815.993-1.654,1.994-2.5,2.979a.393.393,0,0,0,.044.55.382.382,0,0,0,.546-.044c.847-.989,1.689-2,2.508-2.991a.394.394,0,0,0-.055-.55m-5.048,5.934a.384.384,0,0,0-.546.036c-.854.961-1.733,1.931-2.607,2.884a.388.388,0,0,0,.02.55.4.4,0,0,0,.265.1.388.388,0,0,0,.285-.127c.882-.957,1.764-1.931,2.619-2.9a.389.389,0,0,0-.036-.55m-5.266,5.744a.392.392,0,0,0-.55.012c-.906.949-1.82,1.887-2.714,2.789a.386.386,0,0,0,.273.661.389.389,0,0,0,.277-.115c.9-.906,1.816-1.847,2.726-2.8a.388.388,0,0,0-.012-.55M1405,270.6a.388.388,0,0,0-.55-.008c-1.768,1.705-2.836,2.654-2.848,2.662a.39.39,0,0,0,.261.68.382.382,0,0,0,.257-.1c.012-.008,1.088-.969,2.868-2.686a.384.384,0,0,0,.012-.55" transform="translate(-847.05 -94.314)" fill="#66192d"/>
      <path id="Path_28048" data-name="Path 28048" d="M691.771,698.082s9.938-18.818,22.032-21.8,29.939,2.662,22.694,5.795c-3.712,1.6-7.677,1.507-10.948,2.4a20.945,20.945,0,0,0-6.449,2.931s15.018-2.487,15.526,1.887c.421,3.62-15.751,8.518-15.751,8.518s18.509-3.134,15.37,1.581S719,706.743,719,706.743s24.874-.372,21.1,5.018-20.557.174-22.1,5.665-1.256,24.689-17.042,22.258Z" transform="translate(-418.106 -408.237)" fill="#f18c7e"/>
      <path id="Path_28049" data-name="Path 28049" d="M745.962,1358.844H659.781c-2.409-22.011-3.984-41.107-5-57.235l-.032-.522a24.439,24.439,0,0,1,.214-4.688c.044-.3.095-.585.154-.87a14.181,14.181,0,0,1,6.1-9.427c12.125-8.189,38.773-1.733,58.6,4.945,5.843,1.966,11.093,3.952,15.2,5.59,5.447,2.168,8.893,3.723,9.071,3.8h0l0,0,1.088,40.976Z" transform="translate(-395.713 -774.999)" fill="#ff443c"/>
      <path id="Path_28050" data-name="Path 28050" d="M947.2,1292.79h-86.32c-2.453-22.711-4.007-42.262-4.98-58.592-.075-1.222-.143-2.429-.21-3.616q-.154-2.771-.289-5.416c-.391-7.754-.645-14.653-.8-20.694-.542-20.892.063-31.5.063-31.5l72.229,15.974,17.378,3.841.167,6.187.728,27.5.237,8.865.186,7.093v.02l.934,35.09Z" transform="translate(-516.387 -708.944)" fill="#ff443c"/>
      <path id="Path_28051" data-name="Path 28051" d="M949.4,1409.222c-.19.127-17.355,11.6-24.282,25.8H923.9c6.931-14.72,24.7-26.592,24.9-26.723Z" transform="translate(-558.406 -851.178)" fill="#66192d"/>
      <path id="Path_28052" data-name="Path 28052" d="M850.574,653.978l-5.667-16.984-1.649-4.944-9.7-29.072L832.284,631.9l-.764,17.358-.242,5.495c-.164,3.729-2.613,4.513-5.592,7.755-1.207,1.313-8.932,9.276-.165,12.872,10.921,4.482,31.338-2.3,39.1-11.192-.06-.013-12.216-4.718-14.048-10.206" transform="translate(-496.448 -364.442)" fill="#fdad9b"/>
      <path id="Path_28053" data-name="Path 28053" d="M785.629,579.571c2.412-17.059,16.717-29.382,31.952-27.525s25.63,17.192,23.218,34.252-16.717,29.382-31.952,27.525-25.63-17.192-23.218-34.251" transform="translate(-474.624 -333.546)" fill="#fdad9b"/>
      <path id="Path_28054" data-name="Path 28054" d="M779.911,545.139c-15.907.555-23.622-7.969-23.806-15.86-.235-10.12,6.627-19.083,14.617-15.322s4.56-5.462,12.243-6.442c14.357-1.83,17.052,7.652,28.8,8.114,15.5.609,33.17,24.589,20.181,42.093,0,0-39.474-13.021-52.037-12.583" transform="translate(-456.986 -306.602)" fill="#66192d"/>
      <path id="Path_28055" data-name="Path 28055" d="M780.487,566.261s17,15.2,14.754,23.746-1.674,11.9,8.253,16.461,1.161,11.968,14.389,12.5,29.435-13.982,29.431-37.847a34.455,34.455,0,0,0-8.231-22.01Z" transform="translate(-471.726 -337.93)" fill="#66192d"/>
      <path id="Path_28056" data-name="Path 28056" d="M794.244,632.376a6.028,6.028,0,0,1,7.909-1.7c2.442,1.6,2.86,4.951.934,7.488a6.028,6.028,0,0,1-7.909,1.7c-2.442-1.6-2.86-4.951-.934-7.488" transform="translate(-479.309 -380.677)" fill="#fdad9b"/>
      <path id="Path_28057" data-name="Path 28057" d="M956.77,642.07a.394.394,0,0,1-.384-.3c-.768-3.208-4.075-5.055-4.109-5.073a.395.395,0,0,1,.379-.693c.148.081,3.647,2.028,4.5,5.583a.4.4,0,0,1-.292.476.416.416,0,0,1-.092.011" transform="translate(-575.432 -384.371)" fill="#66192d"/>
      <path id="Path_28058" data-name="Path 28058" d="M952.467,626.424a.395.395,0,0,1-.022-.789c.043,0,4.348-.293,4.963-3.374a.4.4,0,0,1,.775.154c-.734,3.682-5.49,4-5.692,4.008h-.024" transform="translate(-575.432 -375.904)" fill="#66192d"/>
      <path id="Path_28059" data-name="Path 28059" d="M781.965,512.762a3.209,3.209,0,0,1-.853-.121,11.4,11.4,0,0,1-3.257-1.61c-1.773-1.142-3.3-2.127-6.633-1.13a.395.395,0,0,1-.227-.756c3.677-1.1,5.513.08,7.287,1.222a10.8,10.8,0,0,0,3.04,1.514,1.966,1.966,0,0,0,1.724-.249c1.737-1.188,2.146-4.955,2.15-4.993a.395.395,0,1,1,.786.081c-.017.17-.453,4.172-2.49,5.564a2.657,2.657,0,0,1-1.526.479" transform="translate(-465.819 -305.999)" fill="#66192d"/>
      <path id="Path_28060" data-name="Path 28060" d="M877.968,518.127c-5.617,0-9.991-3.786-10.193-3.964a.395.395,0,0,1,.522-.593c.052.046,5.271,4.553,11.361,3.642a.395.395,0,0,1,.117.781,12.182,12.182,0,0,1-1.806.133" transform="translate(-524.401 -310.345)" fill="#66192d"/>
      <path id="Path_28061" data-name="Path 28061" d="M804.972,651.812a4.057,4.057,0,0,1-1.093-.132.19.19,0,0,1,.115-.362c.146.046,3.6,1.069,6.039-3.449a.19.19,0,0,1,.335.18c-1.743,3.227-4.055,3.763-5.4,3.763" transform="translate(-485.784 -391.513)" fill="#66192d"/>
      <path id="Path_28062" data-name="Path 28062" d="M654.425,1283.122s115.384-6.3,170.141,6.9l.816-15.61L748.6,1251.674l-61.988,1.524-19.043,4.062-13.439,20.752Z" transform="translate(-395.358 -756.513)" fill="#66192d"/>
      <path id="Path_28063" data-name="Path 28063" d="M814.326,783.832s-10.156-43.669-72.28-43.666c-108.261.005-77.894,88.306-87.911,228.69,0,0,69.8-15.127,170.8,5.005,0,0,9.832-76.029-2.872-140.3-3.354-16.971-2.747-34.973-7.735-49.729" transform="translate(-395.359 -447.358)" fill="#786ab5"/>
      <path id="Path_28064" data-name="Path 28064" d="M647.586,740.159s-34.733.506-60.557,24.881-59.082,57.95-66.138,77.266c-8.689,23.785,7.306,47.652,27.618,48.16s38.52-14.218,38.52-14.218Z" transform="translate(-313.364 -447.354)" fill="#786ab5"/>
      <path id="Path_28065" data-name="Path 28065" d="M591.754,719.663S524.206,794.8,521.159,837.454c-2.5,35.04,90.388-45.7,97.5-61.951s-3.677-37.538-3.677-37.538Z" transform="translate(-314.958 -434.966)" fill="#786ab5"/>
      <path id="Path_28066" data-name="Path 28066" d="M1059.468,885.242c-10.156-75.154-95.748-117.6-95.748-117.6l-18.253,94.265,35.649,11.313a28.463,28.463,0,0,1,14.723,43.5c-14.194,20.044-22.488,46.92-7.829,41.971,25.05-8.458,76.535-40.449,71.457-73.456" transform="translate(-571.44 -463.966)" fill="#786ab5"/>
      <path id="Path_28067" data-name="Path 28067" d="M573.684,849.081l-.679-.345c.365-.718,36.887-72.039,72.415-88.277l.317.693c-35.287,16.127-71.689,87.213-72.053,87.929" transform="translate(-346.324 -459.623)" fill="#66192d"/>
      <path id="Path_28068" data-name="Path 28068" d="M1082.4,1072.948l-.76-.042c3.013-55.069-6.734-111.442-6.833-112.005l.75-.131c.1.564,9.86,57.023,6.843,112.178" transform="translate(-649.612 -580.691)" fill="#66192d"/>
      <path id="Path_28069" data-name="Path 28069" d="M660.747,1035.854l-.386-.656c20.406-12.037,46.964-43.751,47.23-44.07l.585.488c-.267.32-26.908,32.134-47.429,44.239" transform="translate(-399.122 -599.039)" fill="#66192d"/>
      <path id="Path_28070" data-name="Path 28070" d="M1053.457,376.21a2.434,2.434,0,1,1,2.434,2.434,2.434,2.434,0,0,1-2.434-2.434" transform="translate(-636.709 -225.912)" fill="#f22525"/>
      <path id="Path_28071" data-name="Path 28071" d="M848.7,171.454a2.434,2.434,0,1,1,2.434,2.434,2.434,2.434,0,0,1-2.434-2.434" transform="translate(-512.954 -102.158)" fill="#f22525"/>
      <path id="Path_28072" data-name="Path 28072" d="M572.221,342.586a2.434,2.434,0,1,1,2.434,2.434,2.434,2.434,0,0,1-2.434-2.434" transform="translate(-345.85 -205.59)" fill="#f22525"/>
      <path id="Path_28073" data-name="Path 28073" d="M703.391,521.345a2.434,2.434,0,1,1,2.434,2.434,2.434,2.434,0,0,1-2.434-2.434" transform="translate(-425.129 -313.631)" fill="#f22525"/>
      <path id="Path_28074" data-name="Path 28074" d="M873.438,414.92a2.434,2.434,0,1,1,2.434,2.434,2.434,2.434,0,0,1-2.434-2.434" transform="translate(-527.905 -249.308)" fill="#f22525"/>
      <path id="Path_28075" data-name="Path 28075" d="M915.168,478.536a2.434,2.434,0,1,1,2.434,2.434,2.434,2.434,0,0,1-2.434-2.434" transform="translate(-553.127 -287.758)" fill="#f22525"/>
      <path id="Path_28076" data-name="Path 28076" d="M357.116,454.233a2.434,2.434,0,1,1,2.434,2.434,2.434,2.434,0,0,1-2.434-2.434" transform="translate(-215.841 -273.069)" fill="#f22525"/>
      <path id="Path_28077" data-name="Path 28077" d="M1429.7,468.7a.348.348,0,0,1-.251-.588c2.328-2.429,6.826-2.9,8.261-2.985-1.2-3.908-5.676-6.885-5.723-6.915a.348.348,0,1,1,.382-.581c.206.135,5.067,3.371,6.13,7.742a.347.347,0,0,1-.331.43c-.057,0-5.684.147-8.217,2.791a.348.348,0,0,1-.251.107" transform="translate(-863.902 -276.557)" fill="#f22525"/>
      <path id="Path_28078" data-name="Path 28078" d="M1430.615,154.046a.343.343,0,0,1-.166-.042c-.217-.118-5.328-2.94-6.75-7.208a.348.348,0,0,1,.294-.456c.057-.006,5.652-.617,7.958-3.461a.348.348,0,0,1,.54.438c-2.118,2.613-6.563,3.452-7.986,3.659,1.52,3.79,6.227,6.391,6.277,6.418a.348.348,0,0,1-.167.653" transform="translate(-860.472 -86.28)" fill="#f22525"/>
      <path id="Path_28079" data-name="Path 28079" d="M1048.392,220.552a.344.344,0,0,1-.186-.054c-.208-.132-5.119-3.291-6.251-7.645a.348.348,0,0,1,.324-.435c.057,0,5.68-.237,8.172-2.92a.348.348,0,0,1,.51.473c-2.289,2.465-6.779,3-8.213,3.115,1.262,3.884,5.785,6.794,5.832,6.825a.348.348,0,0,1-.187.641" transform="translate(-629.75 -126.555)" fill="#f22525"/>
      <path id="Path_28080" data-name="Path 28080" d="M279.963,137.76a.347.347,0,0,1-.339-.275c-.707-3.289,1.428-7.276,2.159-8.514-3.906-1.193-8.884.841-8.935.863a.348.348,0,0,1-.267-.642c.228-.095,5.632-2.306,9.848-.736a.348.348,0,0,1,.171.515c-.031.047-3.065,4.789-2.3,8.369a.347.347,0,0,1-.267.413.335.335,0,0,1-.073.008" transform="translate(-164.618 -77.301)" fill="#f22525"/>
      <path id="Path_28081" data-name="Path 28081" d="M155.52,587.045a.348.348,0,0,1-.345-.307c-.006-.056-.661-5.393-3.609-8.219-.724,1.243-3.161,5.052-6.377,6.041a.348.348,0,1,1-.2-.665c3.5-1.078,6.157-6.039,6.184-6.089a.348.348,0,0,1,.532-.1c3.428,2.913,4.136,8.709,4.164,8.954a.347.347,0,0,1-.305.385l-.041,0" transform="translate(-87.481 -349.116)" fill="#f22525"/>
      <path id="Path_28082" data-name="Path 28082" d="M331.8,790.91a.348.348,0,0,1-.3-.526c.028-.048,2.773-4.673,2.167-8.712-1.332.541-5.589,2.067-8.739.883a.347.347,0,1,1,.244-.65c3.433,1.288,8.564-1.017,8.616-1.04a.347.347,0,0,1,.484.244c.933,4.4-2.049,9.42-2.176,9.632a.347.347,0,0,1-.3.168" transform="translate(-196.251 -471.937)" fill="#f22525"/>
    </g>
  </g>
</svg>
