<?xml version="1.0" encoding="utf-8"?>
<!-- Generator: Adobe Illustrator 25.3.0, SVG Export Plug-In . SVG Version: 6.00 Build 0)  -->
<svg version="1.1" id="Layer_1" xmlns="http://www.w3.org/2000/svg" xmlns:xlink="http://www.w3.org/1999/xlink" x="0px" y="0px"
	 viewBox="0 0 309.4 352.8" style="enable-background:new 0 0 309.4 352.8;" xml:space="preserve">
<style type="text/css">
	.st0{opacity:0.38;fill:#E5E5E5;}
	.st1{fill:#6F9DBF;}
	.st2{opacity:0.38;}
	.st3{fill:#E5E5E5;}
	.st4{fill:#FFFFFF;}
	.st5{fill:#424242;}
	.st6{fill:#B35730;}
	.st7{fill:#E6E6E6;}
	.st8{fill:#F2F2F2;}
	.st9{fill:#FFD3BA;}
	.st10{opacity:0.15;fill:#F2F2F2;}
	.st11{fill:#FDDBBB;}
	.st12{fill:#808080;}
	.st13{fill:url(#SVGID_1_);}
</style>
<g>
	<path class="st0" d="M29.9,170c-0.1-0.8-0.1-1.3-0.1-1.9c0-9.6,7.7-17.3,17.3-17.3c1.2,0,2.4,0.1,3.5,0.4
		c3.8-7.4,11.5-12.5,20.4-12.5c10.9,0,20.1,7.7,22.3,17.9c0.1,0,0.2,0,0.3,0c7.9,0,14.3,5.8,15.2,13.5H29.9z"/>
	<polygon class="st1" points="0.2,253.5 29.4,253.5 29.4,276 51.4,276 51.4,188.2 55.3,188.2 55.3,174.9 59.3,174.9 59.3,157.5 
		79.7,157.5 79.7,174.9 83.7,174.9 83.7,188.2 87.3,188.2 87.3,235.4 127.5,235.4 127.5,250.3 157.1,250.3 157.1,215.4 197.2,215.4 
		197.2,199.7 219.7,199.7 219.7,249.4 227.9,249.4 227.9,190.5 257.3,190.5 257.3,182.1 273.1,182.1 273.1,244.9 287.2,244.9 
		287.2,262.7 309.6,262.7 309.6,353 0.2,353 	"/>
	<g class="st2">
		<path class="st3" d="M102.2,25.3c0.2-0.9,0.3-1.9,0.3-2.8c0-7.6-6.2-13.8-13.8-13.8C83,8.7,78.1,12.1,76,17
			c-1.5-0.9-3.3-1.5-5.2-1.5c-5.4,0-9.8,4.4-9.8,9.8H102.2z"/>
	</g>
	<path class="st0" d="M233.8,65.8c0-0.4-0.1-0.8-0.1-1.1c0-5.3,4.3-9.6,9.6-9.6c0.7,0,1.3,0.1,1.9,0.2c2.1-4.1,6.4-6.9,11.3-6.9
		c6,0,11.1,4.2,12.4,9.9c0.1,0,0.1,0,0.2,0c4.3,0,7.9,3.2,8.4,7.5H233.8z"/>
	<g class="st2">
		<path class="st3" d="M241.2,172.8c0.2-0.9,0.3-1.9,0.3-2.8c0-7.6-6.2-13.8-13.8-13.8c-5.7,0-10.6,3.4-12.7,8.4
			c-1.5-0.9-3.3-1.5-5.2-1.5c-5.4,0-9.8,4.4-9.8,9.8H241.2z"/>
	</g>
	<polygon class="st4" points="180.6,265 114.9,265 130.2,280.2 57.4,353 126.7,353 165,314.8 180.6,330.3 	"/>
	<g>
		<g>
			<polygon class="st5" points="177.9,136.6 197.6,146.9 215.5,107.7 213.5,106.2 196.6,132.5 177.6,116.2 			"/>
			<g>
				<path class="st6" d="M157.6,103.1h-0.8c-0.2,0-0.4,0.2-0.4,0.4v4.3c0,0.2,0.2,0.4,0.4,0.4h0.8c0.2,0,0.4-0.2,0.4-0.4v-4.3
					C158.1,103.3,157.9,103.1,157.6,103.1z"/>
				<rect x="158.1" y="103.6" class="st7" width="12.9" height="4.2"/>
				<path class="st8" d="M187.4,110.8h-16c-0.2,0-0.4-0.2-0.4-0.4V101c0-0.2,0.2-0.4,0.4-0.4h16V110.8z"/>
				<path class="st4" d="M215.7,112.4h-27.9c-0.2,0-0.4-0.2-0.4-0.4V99.4c0-0.2,0.2-0.4,0.4-0.4h27.9V112.4z"/>
				<path class="st6" d="M219,113.6h-2.9c-0.2,0-0.4-0.2-0.4-0.4V98.2c0-0.2,0.2-0.4,0.4-0.4h2.9c0.2,0,0.4,0.2,0.4,0.4v14.9
					C219.5,113.4,219.3,113.6,219,113.6z"/>
				<path class="st6" d="M157.6,103.1h-0.8c-0.2,0-0.4,0.2-0.4,0.4v4.3c0,0.2,0.2,0.4,0.4,0.4h0.8c0.2,0,0.4-0.2,0.4-0.4v-4.3
					C158.1,103.3,157.9,103.1,157.6,103.1z"/>
				<rect x="158.1" y="103.6" class="st7" width="12.9" height="4.2"/>
				<path class="st8" d="M187.4,110.8h-16c-0.2,0-0.4-0.2-0.4-0.4V101c0-0.2,0.2-0.4,0.4-0.4h16V110.8z"/>
				<path class="st4" d="M215.7,112.4h-27.9c-0.2,0-0.4-0.2-0.4-0.4V99.4c0-0.2,0.2-0.4,0.4-0.4h27.9V112.4z"/>
				<path class="st6" d="M219,113.6h-2.9c-0.2,0-0.4-0.2-0.4-0.4V98.2c0-0.2,0.2-0.4,0.4-0.4h2.9c0.2,0,0.4,0.2,0.4,0.4v14.9
					C219.5,113.4,219.3,113.6,219,113.6z"/>
				<path class="st6" d="M157.6,103.1h-0.8c-0.2,0-0.4,0.2-0.4,0.4v4.3c0,0.2,0.2,0.4,0.4,0.4h0.8c0.2,0,0.4-0.2,0.4-0.4v-4.3
					C158.1,103.3,157.9,103.1,157.6,103.1z"/>
				<rect x="158.1" y="103.6" class="st7" width="12.9" height="4.2"/>
				<path class="st8" d="M187.4,110.8h-16c-0.2,0-0.4-0.2-0.4-0.4V101c0-0.2,0.2-0.4,0.4-0.4h16V110.8z"/>
				<path class="st4" d="M215.7,112.4h-27.9c-0.2,0-0.4-0.2-0.4-0.4V99.4c0-0.2,0.2-0.4,0.4-0.4h27.9V112.4z"/>
				<path class="st6" d="M219,113.6h-2.9c-0.2,0-0.4-0.2-0.4-0.4V98.2c0-0.2,0.2-0.4,0.4-0.4h2.9c0.2,0,0.4,0.2,0.4,0.4v14.9
					C219.5,113.4,219.3,113.6,219,113.6z"/>
				<g>
					<path class="st8" d="M156.4,105.7v2.1c0,0.2,0.2,0.4,0.4,0.4h0.8c0.2,0,0.4-0.2,0.4-0.4v0h12.9v2.5c0,0.2,0.2,0.4,0.4,0.4h16
						v1.2c0,0.2,0.2,0.4,0.4,0.4h27.9v0.7c0,0.2,0.2,0.4,0.4,0.4h2.9c0.2,0,0.4-0.2,0.4-0.4v-7.5H156.4z"/>
				</g>
				<g>
					<g>
						<polygon class="st5" points="168.7,263.1 176.4,222.5 178.6,182.7 177.6,116.2 156.1,114.3 145,115.7 124.5,126.5 
							136.4,188.9 137.3,225.8 129.6,265 136.7,265 133,262.9 148,225.4 158.8,190.1 166,225.1 165.7,265 172.9,265 						"/>
					</g>
				</g>
				<path class="st7" d="M175.3,109.5c-0.5-0.2-1.3,0.4-1.8,1.3h2.3C175.9,110.1,175.7,109.6,175.3,109.5z"/>
				<path class="st9" d="M175.2,111.6c-0.5,1.1-1.3,1.7-1.9,1.5c-0.6-0.2-0.7-1.3-0.2-2.4c0.5-1.1,1.3-1.7,1.9-1.5
					C175.5,109.4,175.6,110.5,175.2,111.6z"/>
				<polygon class="st5" points="127.5,139.5 159.5,158.8 175.3,111.6 173,110.6 156.1,144.2 140.8,129 				"/>
				<polygon class="st10" points="140.8,129 156.1,144.2 173,110.6 174,111 156.3,148.2 				"/>
				<polygon class="st8" points="127.5,139.5 159.5,158.8 173.9,115.9 174.9,116 160.5,161.8 				"/>
			</g>
		</g>
		<g>
			<polygon class="st11" points="144.7,104.7 145,115.7 156.1,114.3 153.6,103.4 			"/>
			<path class="st5" d="M146.3,105.9l0.1,3.3c0,0-1-0.5-1.1,0.3c-0.2,1.1,1.1,0.7,1.1,0.7c-0.1,2.1-0.6,3.8-1.3,5.5
				c0,0-4.1-10.9-0.4-11.1c0.4-6.1,10.3,0.3,11.6-4.5C157.4,104,155,106.1,146.3,105.9z"/>
			<polygon class="st4" points="145,115.7 151.8,125.8 156.1,114.3 			"/>
			<polygon class="st6" points="151.3,115.7 149.8,115.9 149.4,117 150.3,118.1 149.5,122.4 151.8,125.8 153.2,122 151.4,118 
				152,116.5 			"/>
			<polygon class="st12" points="151.8,125.8 156.8,119.9 155.7,118.2 157.4,116.6 156.1,114.3 			"/>
			<polygon class="st12" points="151.8,125.8 145.6,121.3 146.2,119.4 144.2,118.2 145,115.7 			"/>
		</g>
		<polygon class="st8" points="197.6,146.9 177.8,131 177.9,136.6 		"/>
		<polygon class="st8" points="209.5,112.4 207.8,115.1 212,115.3 213.3,112.4 		"/>
	</g>
	<linearGradient id="SVGID_1_" gradientUnits="userSpaceOnUse" x1="154.875" y1="163.9351" x2="154.875" y2="353.0016">
		<stop  offset="0.4756" style="stop-color:#FFFFFF"/>
		<stop  offset="0.6789" style="stop-color:#FAFAFA"/>
		<stop  offset="0.9139" style="stop-color:#ECECEC"/>
		<stop  offset="0.9961" style="stop-color:#E6E6E6"/>
	</linearGradient>
	<polygon class="st13" points="287.2,244.9 273.1,244.9 273.1,182.1 257.3,182.1 257.3,190.5 227.9,190.5 227.9,249.4 219.7,249.4 
		219.7,199.7 197.2,199.7 197.2,215.4 157.1,215.4 157.1,250.3 127.5,250.3 127.5,235.4 87.3,235.4 87.3,188.2 83.7,188.2 
		83.7,174.9 79.7,174.9 79.7,163.9 59.3,163.9 59.3,174.9 55.3,174.9 55.3,188.2 51.4,188.2 51.4,276 29.4,276 29.4,253.5 
		0.2,253.5 0.2,353 309.6,353 309.6,262.7 287.2,262.7 	"/>
</g>
</svg>
