<svg id="Group_1932" data-name="Group 1932" xmlns="http://www.w3.org/2000/svg" xmlns:xlink="http://www.w3.org/1999/xlink" width="84.749" height="76.055" viewBox="0 0 84.749 76.055">
  <defs>
    <clipPath id="clip-path">
      <rect id="Rectangle_113" data-name="Rectangle 113" width="84.749" height="76.055" fill="none"/>
    </clipPath>
    <clipPath id="clip-path-3">
      <rect id="Rectangle_103" data-name="Rectangle 103" width="62.443" height="35.61" fill="none"/>
    </clipPath>
  </defs>
  <g id="Group_1931" data-name="Group 1931" clip-path="url(#clip-path)">
    <path id="Path_2659" data-name="Path 2659" d="M38.118,48.125l-6.68-.842-6.677.842L24.3,50.631H38.578Z" transform="translate(4.705 6.792)" fill="#90a4ae"/>
    <path id="Path_2660" data-name="Path 2660" d="M38.8,50.21H24.521L23.15,57.674H40.173Z" transform="translate(4.482 7.213)" fill="#b0bec5"/>
    <g id="Group_1930" data-name="Group 1930">
      <g id="Group_1929" data-name="Group 1929" clip-path="url(#clip-path)">
        <path id="Path_2661" data-name="Path 2661" d="M48.72,59.228l-.812-1.188c-.955-.6-6.426-.94-6.426-.94h-.03l-.067-.361H24.361l-.068.361h-.027s-5.473.337-6.429.94l-.812,1.188c-.333.21.007.568.538.568H48.183c.531,0,.871-.358.537-.568" transform="translate(3.271 8.15)" fill="#cfd8dc"/>
        <path id="Path_2662" data-name="Path 2662" d="M72.006,9.815H.281A.275.275,0,0,0,0,10.084V53.467a.275.275,0,0,0,.281.27H72.007a.275.275,0,0,0,.281-.27V10.085a.275.275,0,0,0-.282-.27" transform="translate(0 1.41)" fill="#cfd8dc"/>
        <rect id="Rectangle_102" data-name="Rectangle 102" width="64.53" height="37.84" transform="translate(3.879 14.266)" fill="#68787a"/>
        <path id="Path_2663" data-name="Path 2663" d="M49.389,13.123H4.042V49.279H66.485V13.123Z" transform="translate(0.783 1.885)" fill="#2a445d"/>
        <g id="Group_1928" data-name="Group 1928" transform="translate(4.825 15.555)" opacity="0.41" style="mix-blend-mode: overlay;isolation: isolate">
          <g id="Group_1927" data-name="Group 1927">
            <g id="Group_1926" data-name="Group 1926" clip-path="url(#clip-path-3)">
              <path id="Path_2664" data-name="Path 2664" d="M4.042,13.6v35.61H66.485v-.257Z" transform="translate(-4.042 -13.601)" fill="#bdbdbd"/>
            </g>
          </g>
        </g>
        <path id="Path_2665" data-name="Path 2665" d="M52.011,8.847l-.24-2.55-2-.151c-.15-.414.622-2.057.38-2.446l.184-.325L48.436,1.569,46.818,2.675a7.014,7.014,0,0,0-1.283-.57L45.372.217,42.709,0l-.493,1.83a7.087,7.087,0,0,0-1.38.357L39.457.853,39.393.9,37.27,2.326l.847,1.7A6.57,6.57,0,0,0,37.3,5.154l-1.954-.17-.685,2.474,1.8.787A6.306,6.306,0,0,0,36.6,9.6l-1.625,1.08L36.111,13l1.928-.512a6.634,6.634,0,0,0,.994.939l-.525,1.847,2.424,1.077,1.145-1.6a7.267,7.267,0,0,0,1.374.108l.844,1.752,2.581-.668-.1-.987-.1-.949c.193-.105.383-.22.566-.342s.378-.27.555-.416l1.829.827,1.527-2.1L49.71,10.612a6.3,6.3,0,0,0,.351-1.272Zm-6.253,2.794a4.3,4.3,0,0,1-.559.312,4.372,4.372,0,0,1-5.378-1.3,3.976,3.976,0,0,1,1.035-5.687,4.239,4.239,0,0,1,.52-.3A4.37,4.37,0,0,1,46.79,5.953a3.976,3.976,0,0,1-1.032,5.689" transform="translate(6.712)" fill="#17c5cc"/>
        <path id="Path_2666" data-name="Path 2666" d="M66.158,8.379l-.48-2.519-2.011.024a6.374,6.374,0,0,0-.7-1.151l1-1.658L61.909,1.44,60.4,2.684a7.091,7.091,0,0,0-1.331-.456L58.728.362,56.055.376l-.316,1.865a7.066,7.066,0,0,0-1.34.476L52.9,1.508l-.058.048L50.859,3.165l1,1.622a6.546,6.546,0,0,0-.7,1.193H49.2L48.75,8.5l1.869.627a6.286,6.286,0,0,0,.261,1.337l-1.516,1.216,1.35,2.21,1.872-.677a6.751,6.751,0,0,0,1.079.847l-.349,1.886,2.517.861.988-1.688a7.212,7.212,0,0,0,1.379-.013l1.007,1.672,2.5-.89-.192-.973-.185-.937c.18-.122.359-.253.53-.391s.351-.3.513-.462l1.9.664L65.6,11.568l-1.568-1.232a6.309,6.309,0,0,0,.23-1.3ZM60.195,11.7a4.424,4.424,0,0,1-6.005-.47,3.966,3.966,0,0,1,.489-5.755,4.223,4.223,0,0,1,.492-.339,4.388,4.388,0,0,1,5.513.809,3.965,3.965,0,0,1-.489,5.755" transform="translate(9.439 0.052)" fill="#f62f48"/>
        <path id="Path_2667" data-name="Path 2667" d="M65.138,23.651l-.327-3.473-2.73-.206a8.634,8.634,0,0,0-.8-1.642l1.57-2.132L60.27,13.739l-2.2,1.506a9.531,9.531,0,0,0-1.746-.775L56.1,11.9l-3.627-.3L51.8,14.094a9.67,9.67,0,0,0-1.879.487l-1.88-1.817-.086.058-2.891,1.949,1.153,2.317a8.9,8.9,0,0,0-1.108,1.535l-2.663-.233-.932,3.37,2.454,1.07a8.512,8.512,0,0,0,.183,1.844l-2.213,1.47L43.484,29.3l2.625-.7a9.223,9.223,0,0,0,1.355,1.277L46.748,32.4l3.3,1.467,1.56-2.172a9.934,9.934,0,0,0,1.87.145l1.151,2.387,3.512-.91-.134-1.344-.131-1.292c.261-.143.519-.3.77-.467s.514-.367.754-.565l2.491,1.125,2.079-2.86L62,26.054a8.771,8.771,0,0,0,.479-1.731Zm-8.517,3.8a6.031,6.031,0,0,1-8.084-1.348,5.416,5.416,0,0,1,1.406-7.746,5.886,5.886,0,0,1,.71-.4,5.953,5.953,0,0,1,7.374,1.75,5.412,5.412,0,0,1-1.406,7.746" transform="translate(8.038 1.667)" fill="#f4cd25"/>
        <path id="Path_2668" data-name="Path 2668" d="M48.521,34.847v32.9A3.671,3.671,0,0,0,51.946,71.6H71.93a3.67,3.67,0,0,0,3.423-3.858v-32.9a3.672,3.672,0,0,0-3.425-3.858H51.944a3.671,3.671,0,0,0-3.423,3.858" transform="translate(9.395 4.452)" fill="#b0bec5"/>
        <path id="Path_2669" data-name="Path 2669" d="M51.64,34.9h-.418V62.805H71.606V34.9Z" transform="translate(9.918 5.013)" fill="#2a445d"/>
        <path id="Path_2670" data-name="Path 2670" d="M60.015,62.127a1.81,1.81,0,1,1-1.887,1.808,1.848,1.848,0,0,1,1.887-1.808" transform="translate(11.255 8.925)" fill="#d8e0e7"/>
        <path id="Path_2671" data-name="Path 2671" d="M58.925,33.025a.355.355,0,1,1,.006-.71l3.489.017h0a.355.355,0,1,1-.006.71l-3.49-.017Z" transform="translate(11.339 4.642)" fill="#929497"/>
        <path id="Path_2672" data-name="Path 2672" d="M57.51,34.017a.355.355,0,1,1,.006-.71l6.226.03h0a.355.355,0,1,1-.006.71l-6.226-.03Z" transform="translate(11.064 4.785)" fill="#929497"/>
        <path id="Path_2673" data-name="Path 2673" d="M55.256,32.491a.863.863,0,1,1-.9.862.881.881,0,0,1,.9-.862" transform="translate(10.525 4.667)" fill="#929497"/>
        <path id="Path_2674" data-name="Path 2674" d="M43.607,17.268H12.442V45.706H34.393l9.215-6.956Z" transform="translate(2.409 2.481)" fill="#0ec0c0"/>
        <path id="Path_2675" data-name="Path 2675" d="M41.4,18.782H14.03V43.758H33.311L41.4,37.649Z" transform="translate(2.717 2.698)" fill="#fff"/>
        <rect id="Rectangle_104" data-name="Rectangle 104" width="23.501" height="2.992" transform="translate(18.242 33.785)" fill="#306b88"/>
        <rect id="Rectangle_105" data-name="Rectangle 105" width="23.501" height="2.992" transform="translate(18.242 24.602)" fill="#306b88"/>
        <rect id="Rectangle_106" data-name="Rectangle 106" width="23.501" height="2.991" transform="translate(18.242 29.194)" fill="#306b88"/>
        <rect id="Rectangle_107" data-name="Rectangle 107" width="23.501" height="2.991" transform="translate(18.242 38.376)" fill="#306b88"/>
        <path id="Path_2676" data-name="Path 2676" d="M40.047,36.052l-9.215,6.956V36.052Z" transform="translate(5.97 5.179)" fill="#2dd"/>
        <path id="Path_2677" data-name="Path 2677" d="M68.727,36.875H53.944V60.081H64.356l4.371-5.676Z" transform="translate(10.445 5.297)" fill="#0ec0c0"/>
        <path id="Path_2678" data-name="Path 2678" d="M67.681,38.111H54.7V58.492h9.144l3.839-4.985Z" transform="translate(10.591 5.475)" fill="#fff"/>
        <rect id="Rectangle_108" data-name="Rectangle 108" width="11.148" height="2.441" transform="translate(65.997 53.627)" fill="#306b88"/>
        <rect id="Rectangle_109" data-name="Rectangle 109" width="11.148" height="2.441" transform="translate(65.997 46.134)" fill="#306b88"/>
        <rect id="Rectangle_110" data-name="Rectangle 110" width="11.148" height="2.441" transform="translate(65.997 49.88)" fill="#306b88"/>
        <rect id="Rectangle_111" data-name="Rectangle 111" width="11.148" height="2.441" transform="translate(65.997 57.374)" fill="#306b88"/>
        <path id="Path_2679" data-name="Path 2679" d="M67.038,52.2,62.667,57.88V52.2Z" transform="translate(12.134 7.499)" fill="#2dd"/>
        <path id="Path_2680" data-name="Path 2680" d="M55.283,53.591l-7.544-4.172V52.5H8.8V38.669a1.171,1.171,0,0,0-2.341,0v14.95a1.146,1.146,0,0,0,1.17,1.121H47.739v3.025Z" transform="translate(1.251 5.394)" fill="#f62f48"/>
      </g>
    </g>
  </g>
</svg>
