<svg id="Group_18089" data-name="Group 18089" xmlns="http://www.w3.org/2000/svg" xmlns:xlink="http://www.w3.org/1999/xlink" width="38.497" height="35" viewBox="0 0 38.497 35">
  <defs>
    <clipPath id="clip-path">
      <rect id="Rectangle_5031" data-name="Rectangle 5031" width="38.497" height="35" fill="none"/>
    </clipPath>
  </defs>
  <g id="Group_16303" data-name="Group 16303">
    <g id="Group_16302" data-name="Group 16302" clip-path="url(#clip-path)">
      <path id="Path_24174" data-name="Path 24174" d="M38.328,29.184H2.771A.771.771,0,0,1,2,28.413V2.771A.77.77,0,0,1,2.771,2H38.328a.771.771,0,0,1,.771.771V28.413a.771.771,0,0,1-.771.771" transform="translate(-1.361 -1.36)" fill="#edf2f8"/>
      <rect id="Rectangle_5027" data-name="Rectangle 5027" width="33.06" height="22.958" transform="translate(2.546 3.064)" fill="#4f88ff"/>
      <rect id="Rectangle_5028" data-name="Rectangle 5028" width="31.223" height="22.04" transform="translate(4.383 3.982)" fill="#74aaff"/>
      <path id="Path_24175" data-name="Path 24175" d="M71.152,48.883l.322-1.324a2.568,2.568,0,0,0-.132-1.61l-2.818-6.63a2.237,2.237,0,0,0-2.671-1.276L59.336,39.9l-2.084-4.468a1.956,1.956,0,0,0-2.388-1.064,1.9,1.9,0,0,0-1.092,2.6L57.848,45.7,55.3,44.645a1.956,1.956,0,0,0-2.48.826,1.9,1.9,0,0,0,.947,2.654l9.309,4.694,1.25,2.681,8.144-3.8Z" transform="translate(-35.772 -23.307)" fill="#ff9f91"/>
      <path id="Path_24176" data-name="Path 24176" d="M67.566,54.463l6.9-3.215-1.1-2.365.321-1.324a2.562,2.562,0,0,0-.131-1.61l-2.818-6.63a2.237,2.237,0,0,0-2.671-1.276L61.544,39.9,59.46,35.433A1.949,1.949,0,0,0,56.985,34.4a1.886,1.886,0,0,0,.032,1.527l3.555,7.623a1.757,1.757,0,0,1-.35,1.985l-.167.167L57.5,44.645a2.035,2.035,0,0,0-1.537,0,1.9,1.9,0,0,0,1.041,2.447l9.309,4.694Z" transform="translate(-37.979 -23.307)" fill="#ffbfb4"/>
      <rect id="Rectangle_5029" data-name="Rectangle 5029" width="9.584" height="2.576" transform="translate(27.874 32.033) rotate(-25.055)" fill="#ffc960"/>
      <rect id="Rectangle_5030" data-name="Rectangle 5030" width="1.399" height="2.576" transform="translate(27.875 32.033) rotate(-25.053)" fill="#ffaa4c"/>
      <path id="Path_24177" data-name="Path 24177" d="M30.473,32.236A6.236,6.236,0,1,1,24.236,26a6.236,6.236,0,0,1,6.236,6.236" transform="translate(-12.243 -17.685)" fill="#ffc960"/>
      <path id="Path_24178" data-name="Path 24178" d="M36.682,38.835,31.71,41.7a.474.474,0,0,1-.71-.412V35.553a.474.474,0,0,1,.71-.413l4.971,2.869a.477.477,0,0,1,0,.825" transform="translate(-21.086 -23.859)" fill="#e23b3b"/>
      <path id="Path_24179" data-name="Path 24179" d="M31.71,35.141a.474.474,0,0,0-.71.413v5.22a.475.475,0,0,0,.071-.029l4.971-2.869a.47.47,0,0,0,.153-.146Z" transform="translate(-21.086 -23.859)" fill="#ff5f5f"/>
      <path id="Path_24180" data-name="Path 24180" d="M80.475,25.959h-8a.48.48,0,0,1,0-.959h8a.48.48,0,1,1,0,.959" transform="translate(-48.974 -17.005)" fill="#4f88ff"/>
      <path id="Path_24181" data-name="Path 24181" d="M80.475,35.959h-8a.48.48,0,0,1,0-.959h8a.48.48,0,1,1,0,.959" transform="translate(-48.974 -23.807)" fill="#4f88ff"/>
    </g>
  </g>
  <g id="Group_16305" data-name="Group 16305">
    <g id="Group_16304" data-name="Group 16304" clip-path="url(#clip-path)">
      <path id="Path_24182" data-name="Path 24182" d="M62.945,54.192a.479.479,0,0,1-.435-.277l-.82-1.759-9.145-4.612a2.382,2.382,0,0,1-1.169-3.315,2.444,2.444,0,0,1,3.088-1.044l1.41.586L52.32,36.152A2.381,2.381,0,0,1,53.687,32.9a2.441,2.441,0,0,1,2.983,1.313l1.911,4.1L64.7,36.566a2.72,2.72,0,0,1,3.244,1.55l2.818,6.629a3.068,3.068,0,0,1,.156,1.911l-.282,1.16.878,1.884a.48.48,0,0,1-.87.406l-.95-2.036a.482.482,0,0,1-.032-.316l.322-1.323a2.1,2.1,0,0,0-.107-1.309l-2.818-6.63a1.76,1.76,0,0,0-2.1-1L58.45,39.346a.479.479,0,0,1-.566-.259L55.8,34.619a1.477,1.477,0,0,0-1.792-.815,1.423,1.423,0,0,0-.818,1.943l4.075,8.738a.48.48,0,0,1-.619.646l-2.551-1.06a1.477,1.477,0,0,0-1.872.608,1.422,1.422,0,0,0,.707,1.986l.032.015,9.309,4.694a.48.48,0,0,1,.218.225l.89,1.91a.48.48,0,0,1-.434.682" transform="translate(-34.754 -22.29)" fill="#252d32"/>
      <path id="Path_24183" data-name="Path 24183" d="M86.494,92.912a.479.479,0,0,1-.435-.277L84.89,90.129a.48.48,0,0,1,.232-.637l9.235-4.306a.479.479,0,0,1,.637.232l1.169,2.506a.48.48,0,0,1-.232.637L86.7,92.867a.481.481,0,0,1-.2.045m-.531-2.753.763,1.636,8.365-3.9-.763-1.636Z" transform="translate(-57.711 -57.912)" fill="#252d32"/>
      <path id="Path_24184" data-name="Path 24184" d="M37.056,28.463a.48.48,0,0,1,0-.959.363.363,0,0,0,.362-.362V1.321a.363.363,0,0,0-.362-.362H1.321a.363.363,0,0,0-.362.362v25.82a.363.363,0,0,0,.362.362H24.146a.48.48,0,0,1,0,.959H1.321A1.323,1.323,0,0,1,0,27.142V1.321A1.323,1.323,0,0,1,1.321,0H37.056a1.323,1.323,0,0,1,1.321,1.321v25.82a1.323,1.323,0,0,1-1.321,1.321" fill="#252d32"/>
      <path id="Path_24185" data-name="Path 24185" d="M25.31,79.64H9.32a.32.32,0,1,1,0-.64H25.31a.32.32,0,1,1,0,.64" transform="translate(-6.122 -53.735)" fill="#252d32"/>
      <path id="Path_24186" data-name="Path 24186" d="M30.907,41.475A.911.911,0,0,1,30,40.566v-5.66a.907.907,0,0,1,1.36-.785l4.9,2.83a.907.907,0,0,1,0,1.571l-4.9,2.83a.905.905,0,0,1-.453.123m0-6.836a.275.275,0,0,0-.135.036.262.262,0,0,0-.134.232v5.66a.264.264,0,0,0,.134.232.261.261,0,0,0,.267,0l4.9-2.83a.267.267,0,0,0,0-.462l-4.9-2.83a.26.26,0,0,0-.132-.037" transform="translate(-20.406 -23.125)" fill="#252d32"/>
      <path id="Path_24187" data-name="Path 24187" d="M22.876,37.752a6.876,6.876,0,1,1,6.251-9.743.32.32,0,0,1-.582.267,6.237,6.237,0,1,0,.516,3.4.32.32,0,0,1,.635.081,6.886,6.886,0,0,1-6.82,6" transform="translate(-10.883 -16.325)" fill="#252d32"/>
    </g>
  </g>
</svg>
