<svg id="Group_18085" data-name="Group 18085" xmlns="http://www.w3.org/2000/svg" xmlns:xlink="http://www.w3.org/1999/xlink" width="44.026" height="35" viewBox="0 0 44.026 35">
  <defs>
    <clipPath id="clip-path">
      <rect id="Rectangle_5042" data-name="Rectangle 5042" width="44.026" height="35" fill="none"/>
    </clipPath>
  </defs>
  <g id="Group_16313" data-name="Group 16313">
    <g id="Group_16312" data-name="Group 16312" clip-path="url(#clip-path)">
      <path id="Path_24208" data-name="Path 24208" d="M23.494,9.985a4.466,4.466,0,0,1-2.776,1.308,4.466,4.466,0,0,1,.819-2.958,4.467,4.467,0,0,1,2.776-1.308,4.468,4.468,0,0,1-.82,2.957" transform="translate(-13.311 -4.518)" fill="#ffc960"/>
      <path id="Path_24209" data-name="Path 24209" d="M23.515,9.985a4.466,4.466,0,0,1-2.776,1.308l3.6-4.265a4.468,4.468,0,0,1-.82,2.957" transform="translate(-13.332 -4.518)" fill="#ffaa4c"/>
      <path id="Path_24210" data-name="Path 24210" d="M17.966,27.638A4.465,4.465,0,0,1,14.9,27.61,4.465,4.465,0,0,1,16.92,25.3a4.465,4.465,0,0,1,3.069.028,4.465,4.465,0,0,1-2.023,2.308" transform="translate(-9.577 -16.09)" fill="#ffc960"/>
      <path id="Path_24211" data-name="Path 24211" d="M17.966,28.179a4.465,4.465,0,0,1-3.069-.028l5.091-2.279a4.465,4.465,0,0,1-2.023,2.307" transform="translate(-9.577 -16.632)" fill="#ffaa4c"/>
      <path id="Path_24212" data-name="Path 24212" d="M15.826,43.116a4.466,4.466,0,0,1-3.04.42,4.467,4.467,0,0,1,1.665-2.578,4.466,4.466,0,0,1,3.04-.42,4.467,4.467,0,0,1-1.665,2.578" transform="translate(-8.22 -25.995)" fill="#ffc960"/>
      <path id="Path_24213" data-name="Path 24213" d="M15.826,43.3a4.466,4.466,0,0,1-3.04.42l4.705-3A4.467,4.467,0,0,1,15.826,43.3" transform="translate(-8.22 -26.176)" fill="#ffaa4c"/>
      <path id="Path_24214" data-name="Path 24214" d="M5.539,37.072A4.466,4.466,0,0,1,5.8,40.13a4.467,4.467,0,0,1-2.485-1.8,4.468,4.468,0,0,1-.256-3.058,4.467,4.467,0,0,1,2.485,1.8" transform="translate(-1.859 -22.674)" fill="#ffc960"/>
      <path id="Path_24215" data-name="Path 24215" d="M5.831,37.072a4.466,4.466,0,0,1,.256,3.058L3.346,35.271a4.467,4.467,0,0,1,2.485,1.8" transform="translate(-2.151 -22.674)" fill="#ffaa4c"/>
      <path id="Path_24216" data-name="Path 24216" d="M19.1,57.01a4.467,4.467,0,0,1-2.818,1.216A4.467,4.467,0,0,1,17.2,55.3a4.465,4.465,0,0,1,2.817-1.216A4.466,4.466,0,0,1,19.1,57.01" transform="translate(-10.467 -34.766)" fill="#ffc960"/>
      <path id="Path_24217" data-name="Path 24217" d="M19.11,57.01a4.467,4.467,0,0,1-2.817,1.216l3.734-4.145a4.466,4.466,0,0,1-.916,2.929" transform="translate(-10.474 -34.766)" fill="#ffaa4c"/>
      <path id="Path_24218" data-name="Path 24218" d="M28.852,69.374a4.467,4.467,0,0,1-2.329,2A3.68,3.68,0,0,1,28.857,66.3a4.467,4.467,0,0,1,0,3.069" transform="translate(-16.869 -42.625)" fill="#ffc960"/>
      <path id="Path_24219" data-name="Path 24219" d="M29.363,69.374a4.467,4.467,0,0,1-2.329,2L29.367,66.3a4.467,4.467,0,0,1,0,3.069" transform="translate(-17.379 -42.625)" fill="#ffaa4c"/>
      <path id="Path_24220" data-name="Path 24220" d="M12.571,76.593a4.466,4.466,0,0,1,2.419,1.888,4.468,4.468,0,0,1-3.009.6,4.468,4.468,0,0,1-2.419-1.888,4.465,4.465,0,0,1,3.009-.6" transform="translate(-6.147 -49.187)" fill="#ffc960"/>
      <path id="Path_24221" data-name="Path 24221" d="M12.571,76.593a4.466,4.466,0,0,1,2.419,1.888L9.562,77.195a4.465,4.465,0,0,1,3.009-.6" transform="translate(-6.147 -49.187)" fill="#ffaa4c"/>
      <path id="Path_24222" data-name="Path 24222" d="M4.08,58.036a4.465,4.465,0,0,1,1.927,2.388,4.465,4.465,0,0,1-3.067-.1,4.467,4.467,0,0,1-1.927-2.389,4.466,4.466,0,0,1,3.067.1" transform="translate(-0.651 -37.095)" fill="#ffc960"/>
      <path id="Path_24223" data-name="Path 24223" d="M4.08,58.036a4.465,4.465,0,0,1,1.927,2.388L1.013,57.939a4.466,4.466,0,0,1,3.067.1" transform="translate(-0.651 -37.095)" fill="#ffaa4c"/>
      <path id="Path_24224" data-name="Path 24224" d="M10.543,18.831a4.466,4.466,0,0,1-.47,3.032,4.466,4.466,0,0,1-1.992-2.334,4.468,4.468,0,0,1,.47-3.033,4.465,4.465,0,0,1,1.992,2.335" transform="translate(-5.123 -10.605)" fill="#ffc960"/>
      <path id="Path_24225" data-name="Path 24225" d="M11.593,18.831a4.466,4.466,0,0,1-.47,3.032L9.6,16.5a4.465,4.465,0,0,1,1.992,2.335" transform="translate(-6.172 -10.605)" fill="#ffaa4c"/>
      <path id="Path_24226" data-name="Path 24226" d="M93.265,9.985a4.466,4.466,0,0,0,2.776,1.308,4.466,4.466,0,0,0-.819-2.958,4.467,4.467,0,0,0-2.776-1.308,4.468,4.468,0,0,0,.82,2.957" transform="translate(-59.422 -4.518)" fill="#ffc960"/>
      <path id="Path_24227" data-name="Path 24227" d="M93.265,9.985a4.466,4.466,0,0,0,2.776,1.308l-3.6-4.265a4.468,4.468,0,0,0,.82,2.957" transform="translate(-59.422 -4.518)" fill="#ffaa4c"/>
      <path id="Path_24228" data-name="Path 24228" d="M96.142,27.638a4.465,4.465,0,0,0,3.069-.028,3.68,3.68,0,0,0-5.092-2.279,4.468,4.468,0,0,0,2.024,2.308" transform="translate(-60.504 -16.09)" fill="#ffc960"/>
      <path id="Path_24229" data-name="Path 24229" d="M96.142,28.179a4.465,4.465,0,0,0,3.069-.028l-5.092-2.279a4.468,4.468,0,0,0,2.024,2.307" transform="translate(-60.504 -16.632)" fill="#ffaa4c"/>
      <path id="Path_24230" data-name="Path 24230" d="M98.978,43.116a4.466,4.466,0,0,0,3.04.42,3.68,3.68,0,0,0-4.705-3,4.467,4.467,0,0,0,1.665,2.578" transform="translate(-62.558 -25.995)" fill="#ffc960"/>
      <path id="Path_24231" data-name="Path 24231" d="M98.978,43.3a4.466,4.466,0,0,0,3.04.42l-4.705-3A4.467,4.467,0,0,0,98.978,43.3" transform="translate(-62.558 -26.176)" fill="#ffaa4c"/>
      <path id="Path_24232" data-name="Path 24232" d="M112.215,37.072a4.466,4.466,0,0,0-.256,3.058,4.467,4.467,0,0,0,2.485-1.8,4.468,4.468,0,0,0,.256-3.058,4.467,4.467,0,0,0-2.485,1.8" transform="translate(-71.869 -22.674)" fill="#ffc960"/>
      <path id="Path_24233" data-name="Path 24233" d="M112.215,37.072a4.466,4.466,0,0,0-.256,3.058l2.741-4.859a4.467,4.467,0,0,0-2.485,1.8" transform="translate(-71.869 -22.674)" fill="#ffaa4c"/>
      <path id="Path_24234" data-name="Path 24234" d="M97.434,57.01a4.468,4.468,0,0,0,2.818,1.216,3.68,3.68,0,0,0-3.734-4.145,4.466,4.466,0,0,0,.916,2.929" transform="translate(-62.045 -34.766)" fill="#ffc960"/>
      <path id="Path_24235" data-name="Path 24235" d="M97.434,57.01a4.468,4.468,0,0,0,2.818,1.216l-3.734-4.145a4.466,4.466,0,0,0,.916,2.929" transform="translate(-62.045 -34.766)" fill="#ffaa4c"/>
      <path id="Path_24236" data-name="Path 24236" d="M89.2,69.374a4.467,4.467,0,0,0,2.329,2A3.681,3.681,0,0,0,89.2,66.3a4.466,4.466,0,0,0,0,3.069" transform="translate(-57.159 -42.625)" fill="#ffc960"/>
      <path id="Path_24237" data-name="Path 24237" d="M89.2,69.374a4.467,4.467,0,0,0,2.329,2L89.2,66.3a4.466,4.466,0,0,0,0,3.069" transform="translate(-57.159 -42.625)" fill="#ffaa4c"/>
      <path id="Path_24238" data-name="Path 24238" d="M100.93,76.593a4.466,4.466,0,0,0-2.419,1.888,3.68,3.68,0,0,0,5.429-1.286,4.465,4.465,0,0,0-3.009-.6" transform="translate(-63.329 -49.187)" fill="#ffc960"/>
      <path id="Path_24239" data-name="Path 24239" d="M100.93,76.593a4.466,4.466,0,0,0-2.419,1.888l5.429-1.286a4.465,4.465,0,0,0-3.009-.6" transform="translate(-63.329 -49.187)" fill="#ffaa4c"/>
      <path id="Path_24240" data-name="Path 24240" d="M110.2,58.036a4.467,4.467,0,0,0-1.927,2.388,3.679,3.679,0,0,0,4.994-2.486,4.466,4.466,0,0,0-3.067.1" transform="translate(-69.607 -37.095)" fill="#ffc960"/>
      <path id="Path_24241" data-name="Path 24241" d="M110.2,58.036a4.467,4.467,0,0,0-1.927,2.388l4.994-2.486a4.466,4.466,0,0,0-3.067.1" transform="translate(-69.607 -37.095)" fill="#ffaa4c"/>
      <path id="Path_24242" data-name="Path 24242" d="M107.892,18.831a4.466,4.466,0,0,0,.47,3.032,4.466,4.466,0,0,0,1.992-2.334,4.468,4.468,0,0,0-.47-3.033,4.465,4.465,0,0,0-1.992,2.335" transform="translate(-69.287 -10.605)" fill="#ffc960"/>
      <path id="Path_24243" data-name="Path 24243" d="M107.892,18.831a4.466,4.466,0,0,0,.47,3.032l1.521-5.367a4.465,4.465,0,0,0-1.992,2.335" transform="translate(-69.287 -10.605)" fill="#ffaa4c"/>
      <rect id="Rectangle_5038" data-name="Rectangle 5038" width="3.571" height="2.5" transform="translate(22.062 0.357)" fill="#ff5f5f"/>
      <path id="Path_24244" data-name="Path 24244" d="M51.2,18V15.5L47.6,13l-3.545,2.5V18H39.773V31.929H55.487V18Z" transform="translate(-25.568 -8.357)" fill="#c5d5f0"/>
      <path id="Path_24245" data-name="Path 24245" d="M51.2,19H49.773V15.507L47.6,14l-3.545,2.5V19H39.773V31.143H54.058V19Z" transform="translate(-25.568 -9)" fill="#dce6f6"/>
      <rect id="Rectangle_5039" data-name="Rectangle 5039" width="2.857" height="3.929" transform="translate(20.633 19.643)" fill="#74aaff"/>
      <path id="Path_24246" data-name="Path 24246" d="M60.344,21.786A1.786,1.786,0,1,1,58.559,20a1.786,1.786,0,0,1,1.786,1.786" transform="translate(-36.497 -12.857)" fill="#d5e1ef"/>
      <path id="Path_24247" data-name="Path 24247" d="M62.63,22.429A1.429,1.429,0,1,1,61.2,21a1.429,1.429,0,0,1,1.429,1.429" transform="translate(-38.425 -13.5)" fill="#fff"/>
      <rect id="Rectangle_5040" data-name="Rectangle 5040" width="1.071" height="3.929" transform="translate(20.633 19.643)" fill="#4f88ff"/>
      <rect id="Rectangle_5041" data-name="Rectangle 5041" width="1.071" height="2.5" transform="translate(22.062 0.357)" fill="#e23b3b"/>
      <path id="Path_24248" data-name="Path 24248" d="M55.13,76.714h-15a.357.357,0,1,1,0-.714h15a.357.357,0,1,1,0,.714" transform="translate(-25.568 -48.857)" fill="#c5d5f0"/>
      <path id="Path_24249" data-name="Path 24249" d="M57.987,86.714H50.13a.357.357,0,0,1,0-.714h7.857a.357.357,0,0,1,0,.714" transform="translate(-31.997 -55.286)" fill="#c5d5f0"/>
    </g>
  </g>
  <g id="Group_16315" data-name="Group 16315">
    <g id="Group_16314" data-name="Group 16314" clip-path="url(#clip-path)">
      <path id="Path_24250" data-name="Path 24250" d="M28.987,46.463A18.217,18.217,0,0,1,13.758,18.253a.536.536,0,1,1,.895.589A17.143,17.143,0,1,0,43.2,18.667a.536.536,0,0,1,.888-.6,18.217,18.217,0,0,1-15.1,28.4" transform="translate(-6.925 -11.463)" fill="#252d32"/>
      <path id="Path_24251" data-name="Path 24251" d="M20,10.943a.356.356,0,0,1-.352-.3,4.777,4.777,0,0,1,.774-3.4A4.774,4.774,0,0,1,23.592,5.8a.353.353,0,0,1,.369.3,4.778,4.778,0,0,1-.774,3.4,4.778,4.778,0,0,1-3.173,1.443H20m3.289-4.391a3.8,3.8,0,0,0-2.314,1.142,3.789,3.789,0,0,0-.653,2.5,3.8,3.8,0,0,0,2.314-1.142,3.788,3.788,0,0,0,.653-2.5" transform="translate(-12.599 -3.728)" fill="#252d32"/>
      <path id="Path_24252" data-name="Path 24252" d="M15.733,27.475a5.5,5.5,0,0,1-2.115-.461.357.357,0,0,1-.187-.438A4.778,4.778,0,0,1,15.7,23.929a4.764,4.764,0,0,1,3.48.2.357.357,0,0,1,.187.438A4.777,4.777,0,0,1,17.1,27.214a3.468,3.468,0,0,1-1.365.261m-1.495-.985a3.805,3.805,0,0,0,2.579.066,3.787,3.787,0,0,0,1.74-1.905,3.8,3.8,0,0,0-2.579-.066,3.784,3.784,0,0,0-1.74,1.9" transform="translate(-8.622 -15.214)" fill="#252d32"/>
      <path id="Path_24253" data-name="Path 24253" d="M9.23,21.511a.361.361,0,0,1-.159-.037,4.777,4.777,0,0,1-2.322-2.6,4.775,4.775,0,0,1,.662-3.422.357.357,0,0,1,.459-.126,4.773,4.773,0,0,1,2.322,2.6,4.775,4.775,0,0,1-.662,3.422.356.356,0,0,1-.3.164M7.437,18.685a3.789,3.789,0,0,0,1.656,1.978,3.805,3.805,0,0,0,.41-2.548,3.79,3.79,0,0,0-1.656-1.978,3.8,3.8,0,0,0-.41,2.547" transform="translate(-4.266 -9.828)" fill="#252d32"/>
      <path id="Path_24254" data-name="Path 24254" d="M13.531,43.27a5.539,5.539,0,0,1-1.323-.157.357.357,0,0,1-.26-.4,4.78,4.78,0,0,1,1.773-3,4.777,4.777,0,0,1,3.462-.408.357.357,0,0,1,.26.4,4.776,4.776,0,0,1-1.773,3,3.917,3.917,0,0,1-2.139.565m-.8-.781a3.8,3.8,0,0,0,2.552-.383,3.789,3.789,0,0,0,1.382-2.179,3.8,3.8,0,0,0-2.552.383,3.79,3.79,0,0,0-1.382,2.179" transform="translate(-7.678 -25.166)" fill="#252d32"/>
      <path id="Path_24255" data-name="Path 24255" d="M15.625,57.933a.357.357,0,0,1-.356-.319,4.774,4.774,0,0,1,.938-3.357,4.773,4.773,0,0,1,3.237-1.287.357.357,0,0,1,.356.319,4.773,4.773,0,0,1-.938,3.357,4.772,4.772,0,0,1-3.237,1.288M19.1,53.707a3.806,3.806,0,0,0-2.367,1.029,3.786,3.786,0,0,0-.773,2.461,3.8,3.8,0,0,0,2.366-1.028,3.785,3.785,0,0,0,.773-2.461" transform="translate(-9.804 -34.052)" fill="#252d32"/>
      <path id="Path_24256" data-name="Path 24256" d="M4.993,39.726a.352.352,0,0,1-.077-.009,4.776,4.776,0,0,1-2.885-1.956,4.773,4.773,0,0,1-.191-3.48.359.359,0,0,1,.415-.235A4.776,4.776,0,0,1,5.14,36a4.775,4.775,0,0,1,.191,3.48.357.357,0,0,1-.338.243M2.43,34.839a3.806,3.806,0,0,0,.223,2.571,3.787,3.787,0,0,0,2.088,1.515,3.808,3.808,0,0,0-.223-2.571A3.787,3.787,0,0,0,2.43,34.839" transform="translate(-1.023 -21.882)" fill="#252d32"/>
      <path id="Path_24257" data-name="Path 24257" d="M3.724,60.445A3.594,3.594,0,0,1,2.131,60.1,4.774,4.774,0,0,1,.014,57.333a.357.357,0,0,1,.211-.428A4.775,4.775,0,0,1,3.71,56.9a4.777,4.777,0,0,1,2.118,2.769.357.357,0,0,1-.211.427,5.566,5.566,0,0,1-1.893.35M.815,57.462a3.8,3.8,0,0,0,1.631,2,3.78,3.78,0,0,0,2.579.077,3.8,3.8,0,0,0-1.631-2,3.787,3.787,0,0,0-2.579-.077" transform="translate(0 -36.357)" fill="#252d32"/>
      <path id="Path_24258" data-name="Path 24258" d="M25.688,70.86a.358.358,0,0,1-.329-.218,4.777,4.777,0,0,1-.064-3.485,4.779,4.779,0,0,1,2.734-2.162.359.359,0,0,1,.431.2,4.776,4.776,0,0,1,.064,3.485,4.779,4.779,0,0,1-2.734,2.162.371.371,0,0,1-.1.015M27.913,65.8a3.105,3.105,0,0,0-2.007,4.243,3.8,3.8,0,0,0,1.972-1.664,3.784,3.784,0,0,0,.035-2.579" transform="translate(-16.057 -41.773)" fill="#252d32"/>
      <path id="Path_24259" data-name="Path 24259" d="M12.4,78.814a3.207,3.207,0,0,1-.731-.083A4.776,4.776,0,0,1,8.985,76.51a.357.357,0,0,1,.109-.464,4.79,4.79,0,0,1,3.394-.791,4.778,4.778,0,0,1,2.686,2.221.356.356,0,0,1-.109.463,5.205,5.205,0,0,1-2.663.875m-.568-.778a3.8,3.8,0,0,0,2.53-.506,3.808,3.808,0,0,0-2.039-1.58,3.8,3.8,0,0,0-2.53.506,3.806,3.806,0,0,0,2.039,1.58" transform="translate(-5.748 -48.325)" fill="#252d32"/>
      <path id="Path_24260" data-name="Path 24260" d="M95.336,10.941A4.782,4.782,0,0,1,92.146,9.5a4.776,4.776,0,0,1-.774-3.4.346.346,0,0,1,.369-.3,4.774,4.774,0,0,1,3.173,1.443,4.777,4.777,0,0,1,.774,3.4.357.357,0,0,1-.352.3M92.048,6.549a3.8,3.8,0,0,0,.652,2.5,3.785,3.785,0,0,0,2.313,1.142,3.806,3.806,0,0,0-.652-2.5,3.787,3.787,0,0,0-2.313-1.142" transform="translate(-58.709 -3.726)" fill="#252d32"/>
      <path id="Path_24261" data-name="Path 24261" d="M96.79,27.476a3.468,3.468,0,0,1-1.365-.261,4.78,4.78,0,0,1-2.267-2.648.357.357,0,0,1,.187-.438,4.774,4.774,0,0,1,3.48-.2,4.778,4.778,0,0,1,2.267,2.648.357.357,0,0,1-.187.438,5.5,5.5,0,0,1-2.115.461m-2.824-2.824A3.8,3.8,0,0,0,95.7,26.558a3.8,3.8,0,0,0,2.579-.066,3.106,3.106,0,0,0-4.318-1.84" transform="translate(-59.875 -15.215)" fill="#252d32"/>
      <path id="Path_24262" data-name="Path 24262" d="M107.439,21.511a.357.357,0,0,1-.3-.164,4.773,4.773,0,0,1-.662-3.422,4.771,4.771,0,0,1,2.322-2.6.357.357,0,0,1,.459.126,4.773,4.773,0,0,1,.662,3.422,4.773,4.773,0,0,1-2.322,2.6.355.355,0,0,1-.159.038m1.383-5.374a3.806,3.806,0,0,0-1.658,1.978,3.789,3.789,0,0,0,.409,2.547,3.806,3.806,0,0,0,1.657-1.978,3.789,3.789,0,0,0-.409-2.547" transform="translate(-68.377 -9.828)" fill="#252d32"/>
      <path id="Path_24263" data-name="Path 24263" d="M99.837,43.27a3.92,3.92,0,0,1-2.139-.565,4.776,4.776,0,0,1-1.772-3,.357.357,0,0,1,.26-.4,4.778,4.778,0,0,1,3.462.408,4.776,4.776,0,0,1,1.772,3,.357.357,0,0,1-.26.4,5.526,5.526,0,0,1-1.323.157m-1.749-1.163a3.8,3.8,0,0,0,2.551.383,3.105,3.105,0,0,0-3.932-2.561,3.8,3.8,0,0,0,1.382,2.179" transform="translate(-61.664 -25.167)" fill="#252d32"/>
      <path id="Path_24264" data-name="Path 24264" d="M99.422,57.934a4.771,4.771,0,0,1-3.237-1.287,4.774,4.774,0,0,1-.938-3.357.356.356,0,0,1,.354-.319,4.771,4.771,0,0,1,3.239,1.287,4.774,4.774,0,0,1,.938,3.357.357.357,0,0,1-.354.319Zm-3.479-4.226A3.105,3.105,0,0,0,99.082,57.2a3.1,3.1,0,0,0-3.138-3.489" transform="translate(-61.218 -34.053)" fill="#252d32"/>
      <path id="Path_24265" data-name="Path 24265" d="M111.1,39.725a.357.357,0,0,1-.338-.243,4.775,4.775,0,0,1,.191-3.48,4.776,4.776,0,0,1,2.885-1.956.358.358,0,0,1,.415.235,4.775,4.775,0,0,1-.191,3.48,4.776,4.776,0,0,1-2.885,1.956.352.352,0,0,1-.077.009m2.563-4.886a3.806,3.806,0,0,0-2.088,1.515,3.79,3.79,0,0,0-.224,2.57,3.8,3.8,0,0,0,2.089-1.515,3.806,3.806,0,0,0,.223-2.57" transform="translate(-71.043 -21.881)" fill="#252d32"/>
      <path id="Path_24266" data-name="Path 24266" d="M109.037,60.444a5.573,5.573,0,0,1-1.893-.35.357.357,0,0,1-.211-.428,3.925,3.925,0,0,1,5.6-2.761.357.357,0,0,1,.211.427,4.775,4.775,0,0,1-2.117,2.769,3.59,3.59,0,0,1-1.592.342m-1.3-.907a3.106,3.106,0,0,0,4.21-2.075,3.106,3.106,0,0,0-4.21,2.075" transform="translate(-68.734 -36.357)" fill="#252d32"/>
      <path id="Path_24267" data-name="Path 24267" d="M90.629,70.86a.386.386,0,0,1-.1-.014,4.778,4.778,0,0,1-2.734-2.163,4.775,4.775,0,0,1,.064-3.485.36.36,0,0,1,.431-.2,4.779,4.779,0,0,1,2.734,2.162,4.779,4.779,0,0,1-.064,3.485.358.358,0,0,1-.329.218M88.405,65.8a3.106,3.106,0,0,0,2.006,4.242A3.1,3.1,0,0,0,88.405,65.8" transform="translate(-56.235 -41.773)" fill="#252d32"/>
      <path id="Path_24268" data-name="Path 24268" d="M99.571,78.813a5.213,5.213,0,0,1-2.663-.874.357.357,0,0,1-.109-.463,3.926,3.926,0,0,1,6.081-1.43.357.357,0,0,1,.109.464,4.776,4.776,0,0,1-2.686,2.221,3.2,3.2,0,0,1-.731.082m-1.963-1.284a3.107,3.107,0,0,0,4.57-1.073,3.107,3.107,0,0,0-4.57,1.073" transform="translate(-62.2 -48.325)" fill="#252d32"/>
      <path id="Path_24269" data-name="Path 24269" d="M54.38,31.357H38.309a.536.536,0,0,1-.536-.536V16.536A.536.536,0,0,1,38.309,16h3.75V14.036a.536.536,0,0,1,.238-.446l3.746-2.5a.536.536,0,0,1,.594,0l3.754,2.5a.535.535,0,0,1,.239.446V16h3.75a.536.536,0,0,1,.536.536V30.821a.536.536,0,0,1-.536.536M38.844,30.286h15V17.071h-3.75a.536.536,0,0,1-.536-.536V14.323L46.341,12.18,43.13,14.322v2.213a.536.536,0,0,1-.536.536h-3.75Z" transform="translate(-24.283 -7.071)" fill="#252d32"/>
      <path id="Path_24270" data-name="Path 24270" d="M61.13,4.929a.357.357,0,0,1-.357-.357V1.357a.357.357,0,1,1,.714,0V4.571a.357.357,0,0,1-.357.357" transform="translate(-39.068 -0.643)" fill="#252d32"/>
      <path id="Path_24271" data-name="Path 24271" d="M64.7,3.214H61.13a.357.357,0,0,1-.357-.357V.357A.357.357,0,0,1,61.13,0H64.7a.357.357,0,0,1,.357.357v2.5a.357.357,0,0,1-.357.357M61.487,2.5h2.857V.714H61.487Z" transform="translate(-39.068)" fill="#252d32"/>
      <path id="Path_24272" data-name="Path 24272" d="M45.13,35.786a.357.357,0,0,1-.357-.357V34.357a.357.357,0,0,1,.714,0v1.071a.357.357,0,0,1-.357.357" transform="translate(-28.783 -21.857)" fill="#252d32"/>
      <path id="Path_24273" data-name="Path 24273" d="M51.13,35.786a.357.357,0,0,1-.357-.357V34.357a.357.357,0,0,1,.714,0v1.071a.357.357,0,0,1-.357.357" transform="translate(-32.64 -21.857)" fill="#252d32"/>
      <path id="Path_24274" data-name="Path 24274" d="M58.13,35.786a.357.357,0,0,1-.357-.357V34.357a.357.357,0,1,1,.714,0v1.071a.357.357,0,0,1-.357.357" transform="translate(-37.14 -21.857)" fill="#252d32"/>
      <path id="Path_24275" data-name="Path 24275" d="M64.13,35.786a.357.357,0,0,1-.357-.357V34.357a.357.357,0,1,1,.714,0v1.071a.357.357,0,0,1-.357.357" transform="translate(-40.997 -21.857)" fill="#252d32"/>
      <path id="Path_24276" data-name="Path 24276" d="M45.13,45.786a.357.357,0,0,1-.357-.357V44.357a.357.357,0,0,1,.714,0v1.071a.357.357,0,0,1-.357.357" transform="translate(-28.783 -28.286)" fill="#252d32"/>
      <path id="Path_24277" data-name="Path 24277" d="M51.13,45.786a.357.357,0,0,1-.357-.357V44.357a.357.357,0,0,1,.714,0v1.071a.357.357,0,0,1-.357.357" transform="translate(-32.64 -28.286)" fill="#252d32"/>
      <path id="Path_24278" data-name="Path 24278" d="M58.13,45.786a.357.357,0,0,1-.357-.357V44.357a.357.357,0,0,1,.714,0v1.071a.357.357,0,0,1-.357.357" transform="translate(-37.14 -28.286)" fill="#252d32"/>
      <path id="Path_24279" data-name="Path 24279" d="M64.13,45.786a.357.357,0,0,1-.357-.357V44.357a.357.357,0,1,1,.714,0v1.071a.357.357,0,0,1-.357.357" transform="translate(-40.997 -28.286)" fill="#252d32"/>
      <path id="Path_24280" data-name="Path 24280" d="M45.13,55.786a.357.357,0,0,1-.357-.357V54.357a.357.357,0,0,1,.714,0v1.071a.357.357,0,0,1-.357.357" transform="translate(-28.783 -34.714)" fill="#252d32"/>
      <path id="Path_24281" data-name="Path 24281" d="M51.13,55.786a.357.357,0,0,1-.357-.357V54.357a.357.357,0,0,1,.714,0v1.071a.357.357,0,0,1-.357.357" transform="translate(-32.64 -34.714)" fill="#252d32"/>
      <path id="Path_24282" data-name="Path 24282" d="M71.13,35.786a.357.357,0,0,1-.357-.357V34.357a.357.357,0,1,1,.714,0v1.071a.357.357,0,0,1-.357.357" transform="translate(-45.497 -21.857)" fill="#252d32"/>
      <path id="Path_24283" data-name="Path 24283" d="M77.13,35.786a.357.357,0,0,1-.357-.357V34.357a.357.357,0,1,1,.714,0v1.071a.357.357,0,0,1-.357.357" transform="translate(-49.354 -21.857)" fill="#252d32"/>
      <path id="Path_24284" data-name="Path 24284" d="M71.13,45.786a.357.357,0,0,1-.357-.357V44.357a.357.357,0,0,1,.714,0v1.071a.357.357,0,0,1-.357.357" transform="translate(-45.497 -28.286)" fill="#252d32"/>
      <path id="Path_24285" data-name="Path 24285" d="M77.13,45.786a.357.357,0,0,1-.357-.357V44.357a.357.357,0,1,1,.714,0v1.071a.357.357,0,0,1-.357.357" transform="translate(-49.354 -28.286)" fill="#252d32"/>
      <path id="Path_24286" data-name="Path 24286" d="M71.13,55.786a.357.357,0,0,1-.357-.357V54.357a.357.357,0,1,1,.714,0v1.071a.357.357,0,0,1-.357.357" transform="translate(-45.497 -34.714)" fill="#252d32"/>
      <path id="Path_24287" data-name="Path 24287" d="M77.13,55.786a.357.357,0,0,1-.357-.357V54.357a.357.357,0,1,1,.714,0v1.071a.357.357,0,0,1-.357.357" transform="translate(-49.354 -34.714)" fill="#252d32"/>
      <path id="Path_24288" data-name="Path 24288" d="M59.987,58.643H57.13a.357.357,0,0,1-.357-.357V54.357A.357.357,0,0,1,57.13,54h2.857a.357.357,0,0,1,.357.357v3.929a.357.357,0,0,1-.357.357m-2.5-.714H59.63V54.714H57.487Z" transform="translate(-36.497 -34.714)" fill="#252d32"/>
      <path id="Path_24289" data-name="Path 24289" d="M57.916,23.286a2.143,2.143,0,1,1,2.143-2.143,2.145,2.145,0,0,1-2.143,2.143m0-3.571a1.429,1.429,0,1,0,1.429,1.429,1.43,1.43,0,0,0-1.429-1.429" transform="translate(-35.854 -12.214)" fill="#252d32"/>
    </g>
  </g>
</svg>
