<?xml version="1.0" encoding="utf-8"?>
<!-- Generator: Adobe Illustrator 25.2.2, SVG Export Plug-In . SVG Version: 6.00 Build 0)  -->
<svg version="1.1" id="Layer_1" xmlns="http://www.w3.org/2000/svg" xmlns:xlink="http://www.w3.org/1999/xlink" x="0px" y="0px"
	 viewBox="0 0 700 440" style="enable-background:new 0 0 700 440;" xml:space="preserve">
<style type="text/css">
	.st0{fill:#E9EAEB;}
	.st1{fill:#EFAD00;}
	.st2{fill:#FFFFFF;stroke:#263238;stroke-linecap:round;stroke-linejoin:round;stroke-miterlimit:10;}
	.st3{fill:none;stroke:#263238;stroke-width:3;stroke-linecap:round;stroke-linejoin:round;stroke-miterlimit:10;}
	.st4{fill:none;stroke:#263238;stroke-linecap:round;stroke-linejoin:round;stroke-miterlimit:10;}
	.st5{fill:#263238;stroke:#263238;stroke-linecap:round;stroke-linejoin:round;stroke-miterlimit:10;}
	.st6{fill:#263238;}
	.st7{opacity:0.5;}
	.st8{opacity:0.3;}
	.st9{fill:none;stroke:#000000;stroke-miterlimit:10;}
	.st10{fill:#263238;stroke:#263238;stroke-miterlimit:10;}
	.st11{fill:none;stroke:#263238;stroke-width:2;stroke-linecap:round;stroke-linejoin:round;stroke-miterlimit:10;}
	.st12{fill:#DBDBDB;stroke:#263238;stroke-linecap:round;stroke-linejoin:round;stroke-miterlimit:10;}
	.st13{fill:#949494;stroke:#263238;stroke-linecap:round;stroke-linejoin:round;stroke-miterlimit:10;}
	.st14{opacity:0.3;fill:none;stroke:#000000;stroke-linecap:round;stroke-linejoin:round;stroke-miterlimit:10;}
	.st15{opacity:0.3;fill:none;stroke:#000000;stroke-width:2;stroke-linecap:round;stroke-linejoin:round;stroke-miterlimit:10;}
	.st16{fill:none;stroke:#000000;stroke-linecap:round;stroke-linejoin:round;stroke-miterlimit:10;}
	.st17{fill:#FFFFFF;stroke:#263238;stroke-miterlimit:10;}
	.st18{fill:none;stroke:#263238;stroke-miterlimit:10;}
	.st19{fill:#FFFFFF;}
	.st20{opacity:0.2;}
	.st21{fill:#FDFFFE;stroke:#263238;stroke-miterlimit:10;}
	.st22{fill:none;stroke:#263238;stroke-width:2;stroke-linecap:round;stroke-miterlimit:10;}
	.st23{fill:#FAFFFD;stroke:#263238;stroke-miterlimit:10;}
	.st24{fill:#9E9E9E;stroke:#263238;stroke-miterlimit:10;}
	.st25{opacity:0.2;fill:#263238;}
	.st26{fill:#263238;stroke:#263238;stroke-linejoin:round;stroke-miterlimit:10;}
	.st27{fill:#FFFFFF;stroke:#263238;stroke-linejoin:round;stroke-miterlimit:10;}
</style>
<g>
	<path class="st0" d="M688.36,167.32c0,0-13.81-73.01-91.37-113.82c-77.56-40.8-172.12-30.06-211.43,15.03
		c-39.31,45.1-36.12,124.55-77.56,122.41c-41.44-2.15-57.37-59.06-114.75-22.55c-57.37,36.51-27.62,85.9-31.87,117.04
		c-4.25,31.14-53.12-17.18-92.44-4.29C29.62,294.02,11.55,330.53,15.8,352S0.93,400.32,0.93,400.32h693.8
		C694.73,400.32,705.36,260.73,688.36,167.32z"/>
	<g>
		<path class="st1" d="M115.74,294.53c2.84,1.24,9.78,1.08,9.79,1.08c0.07,0-1.49-4.55-1.62-4.82c-1.52-3.19-6.34-8.45-10.26-7.92
			c-2.82,0.38-4.4,3.21-3.76,5.87C110.53,291.46,113.32,293.47,115.74,294.53z"/>
		<path class="st1" d="M118.13,314.64c2.95,0.43,9.14-1.37,9.64-1.51c0.98,3.47,2.26,6.95,3.76,10.4c0.85,1.97,1.77,3.94,2.72,5.89
			c-0.57-0.83-1.08-1.56-1.16-1.66c-2.31-2.67-8.35-6.48-11.99-4.93c-2.62,1.11-3.39,4.25-2.07,6.65c1.34,2.45,4.57,3.66,7.18,4.04
			c2.65,0.39,7.96-1.04,9.37-1.44c0.37,0.75,0.73,1.5,1.11,2.24c1.79,3.57,3.6,7.13,5.27,10.68c0.59,1.25,1.12,2.5,1.66,3.75
			c-0.5-0.74-0.93-1.35-1.01-1.44c-2.31-2.67-8.35-6.48-11.99-4.93c-2.62,1.11-3.39,4.25-2.07,6.65c1.35,2.45,4.57,3.66,7.18,4.04
			c2.53,0.37,7.45-0.9,9.11-1.37c0.51,1.3,1.03,2.6,1.46,3.87c0.28,0.88,0.61,1.71,0.84,2.61c0.25,0.89,0.49,1.76,0.73,2.63
			c0.41,1.69,0.83,3.43,1.19,5.09c0.25,1.15,0.48,2.25,0.7,3.36c-0.57-1.25-1.74-3.67-1.86-3.86c-1.88-2.99-7.27-7.66-11.1-6.69
			c-2.76,0.7-4,3.69-3.06,6.26c0.96,2.62,3.96,4.31,6.48,5.08c2.78,0.85,8.93,0.07,9.7-0.03c0.37,1.84,0.71,3.63,1,5.32
			c0.66,3.74,1.16,7.1,1.54,9.93h2.59c-0.45-2.94-1.04-6.44-1.82-10.36c-0.37-1.87-0.8-3.86-1.26-5.89
			c0.46-0.18,3.09-1.24,5.41-2.54c2.02,2.19,7.21,4.76,7.89,5.09c-0.71,1.74-1.41,3.42-2.1,4.99c-1.43,3.3-2.8,6.23-4,8.72h2.8
			c1.03-2.3,2.17-4.91,3.36-7.81c0.72-1.76,1.46-3.66,2.2-5.61c0.74,0.16,6.83,1.39,9.67,0.75c2.57-0.58,5.69-2.04,6.84-4.58
			c1.13-2.49,0.12-5.56-2.58-6.47c-3.75-1.26-9.47,3-11.57,5.84c-0.12,0.17-1.26,2.14-1.96,3.39c0.3-0.8,0.6-1.57,0.89-2.4
			c0.6-1.63,1.15-3.28,1.75-5.05c0.26-0.86,0.52-1.74,0.78-2.62c0.28-0.87,0.47-1.82,0.7-2.74c0.51-2.14,0.92-4.34,1.29-6.56
			c1.43,0.52,6.53,2.3,9.18,2.11c2.63-0.19,5.93-1.15,7.46-3.49c1.49-2.29,0.96-5.48-1.57-6.79c-3.52-1.81-9.82,1.53-12.32,4.02
			c-0.16,0.15-1.75,2.15-2.61,3.26c0.21-1.34,0.43-2.67,0.59-4.03c0.49-3.92,0.86-7.91,1.25-11.88c0.12-1.22,0.25-2.43,0.38-3.64
			c0.51,0.19,6.53,2.43,9.49,2.22c2.63-0.18,5.93-1.15,7.46-3.49c1.49-2.29,0.96-5.48-1.57-6.79c-3.52-1.81-9.82,1.53-12.32,4.02
			c-0.19,0.19-2.48,3.05-3.03,3.81c0.28-2.67,0.59-5.33,1-7.94c0.56-3.6,1.31-7.11,2.28-10.45c0.24,0.09,6.51,2.46,9.54,2.24
			c2.63-0.19,5.93-1.15,7.46-3.49c1.49-2.29,0.96-5.48-1.57-6.79c-3.52-1.81-9.82,1.53-12.32,4.02c-0.2,0.2-2.66,3.28-3.07,3.87
			c0.06-0.2,0.1-0.41,0.16-0.61c1.09-3.55,2.58-6.86,4.14-9.89c0.9-1.76,1.86-3.39,2.83-4.96c1.12,0.56,6.29,3.07,9.04,3.18
			c2.64,0.11,6.02-0.49,7.8-2.65c1.74-2.11,1.56-5.34-0.82-6.92c-3.3-2.19-9.93,0.44-12.69,2.64c-0.15,0.12-1.54,1.51-2.54,2.53
			c0.45-0.7,0.9-1.43,1.34-2.09c1.65-2.49,3.32-4.67,4.82-6.59c0.86-1.08,1.66-2.05,2.41-2.94c1.39-0.02,6.99-0.19,9.43-1.34
			c2.39-1.12,5.12-3.21,5.7-5.95c0.57-2.68-1.08-5.46-3.91-5.76c-3.93-0.42-8.61,4.97-10.05,8.19c-0.12,0.28-1.57,4.86-1.49,4.86
			c0,0,0.07,0,0.08,0c-0.75,0.85-1.53,1.76-2.37,2.78c-1.54,1.89-3.26,4.04-4.98,6.51c-1.72,2.46-3.52,5.18-5.16,8.22
			c-1.65,3.04-3.22,6.33-4.41,9.92c-0.01,0.04-0.02,0.08-0.04,0.13c0.02-1.16-0.03-4.4-0.06-4.65c-0.45-3.5-3.39-10.01-7.28-10.73
			c-2.8-0.52-5.18,1.68-5.4,4.4c-0.23,2.78,1.79,5.57,3.76,7.33c2.22,1.98,8.38,3.9,8.87,4.05c-1.1,3.43-1.95,7.04-2.6,10.75
			c-0.38,2.12-0.69,4.26-0.98,6.41c-0.01-1-0.03-1.9-0.05-2.02c-0.45-3.5-3.39-10.01-7.28-10.73c-2.8-0.52-5.18,1.68-5.4,4.4
			c-0.23,2.78,1.79,5.57,3.76,7.33c2,1.78,7.22,3.53,8.6,3.97c-0.1,0.83-0.21,1.65-0.31,2.48c-0.47,3.97-0.93,7.93-1.5,11.81
			c-0.2,1.37-0.44,2.7-0.69,4.04c-0.01-0.89-0.03-1.64-0.05-1.75c-0.45-3.5-3.39-10.01-7.28-10.73c-2.8-0.52-5.18,1.68-5.4,4.4
			c-0.23,2.78,1.79,5.57,3.76,7.33c1.9,1.7,6.71,3.35,8.35,3.89c-0.29,1.36-0.58,2.73-0.92,4.04c-0.25,0.89-0.44,1.76-0.74,2.64
			c-0.28,0.87-0.56,1.74-0.84,2.6c-0.59,1.63-1.2,3.32-1.82,4.9c-0.42,1.1-0.85,2.14-1.27,3.19c0.21-1.36,0.58-4.02,0.58-4.25
			c0.05-2.35-0.78-6.16-2.44-8.84c0.01-0.35-0.01-0.69-0.06-1.04c-0.43-2.7-2.97-4.71-5.73-3.97c-3.82,1.02-6.25,7.73-6.43,11.26
			c-0.01,0.21,0.13,2.48,0.23,3.91c-0.19-0.83-0.37-1.64-0.58-2.49c-0.4-1.69-0.85-3.37-1.33-5.17c-0.26-0.86-0.53-1.73-0.79-2.62
			c-0.25-0.88-0.62-1.78-0.92-2.67c-0.76-2.07-1.62-4.13-2.54-6.18c1.48-0.35,6.72-1.69,8.82-3.3c2.09-1.61,4.31-4.23,4.29-7.03
			c-0.02-2.74-2.22-5.1-5.06-4.79c-3.93,0.43-7.35,6.69-8.06,10.15c-0.04,0.22-0.28,2.76-0.38,4.15c-0.56-1.23-1.12-2.46-1.73-3.69
			c-1.76-3.54-3.65-7.07-5.52-10.6c-0.57-1.08-1.13-2.16-1.69-3.25c0.53-0.12,6.79-1.57,9.14-3.38c2.09-1.61,4.31-4.23,4.29-7.03
			c-0.02-2.73-2.22-5.1-5.06-4.79c-3.93,0.43-7.35,6.69-8.06,10.15c-0.05,0.26-0.38,3.92-0.42,4.85c-1.24-2.38-2.45-4.77-3.55-7.18
			c-1.52-3.31-2.83-6.65-3.86-9.97c0.25-0.06,6.79-1.54,9.2-3.39c2.09-1.61,4.31-4.23,4.29-7.03c-0.02-2.73-2.22-5.1-5.06-4.79
			c-3.93,0.43-7.35,6.69-8.06,10.15c-0.06,0.27-0.41,4.21-0.42,4.92c-0.06-0.2-0.15-0.4-0.2-0.59c-1.05-3.56-1.63-7.15-2-10.53
			c-0.22-1.96-0.32-3.85-0.38-5.7c1.25-0.15,6.93-0.91,9.29-2.34c2.26-1.37,4.75-3.74,5.04-6.51c0.28-2.72-1.65-5.32-4.5-5.32
			c-3.96-0.01-8.04,5.85-9.13,9.21c-0.06,0.18-0.46,2.11-0.72,3.51c-0.01-0.83-0.04-1.69-0.04-2.49c0.01-2.99,0.19-5.73,0.38-8.16
			c0.12-1.38,0.25-2.62,0.39-3.78c1.14-0.79,5.72-4.02,7.13-6.33c1.37-2.25,2.5-5.5,1.47-8.1c-1-2.54-3.91-3.96-6.44-2.65
			c-3.51,1.82-4.44,8.89-3.86,12.38c0.05,0.3,1.38,4.92,1.44,4.88c0,0,0.06-0.04,0.07-0.05c-0.15,1.12-0.31,2.31-0.45,3.63
			c-0.24,2.43-0.49,5.17-0.56,8.17c-0.08,3-0.08,6.26,0.23,9.7c0.31,3.44,0.8,7.05,1.8,10.71c0.01,0.04,0.03,0.08,0.04,0.12
			c-0.62-0.98-2.45-3.65-2.62-3.84c-2.31-2.67-8.35-6.48-11.99-4.93c-2.62,1.11-3.39,4.26-2.07,6.65
			C112.3,313.05,115.52,314.26,118.13,314.64z"/>
		<path class="st1" d="M185.98,296.06c0.06,0.04,1.26-4.62,1.31-4.92c0.49-3.5-0.63-10.55-4.19-12.27
			c-2.57-1.24-5.44,0.25-6.37,2.82c-0.96,2.62,0.26,5.84,1.69,8.06C180.09,292.35,185.97,296.05,185.98,296.06z"/>
	</g>
	<g>
		<path class="st1" d="M635.01,346.03c1.7,0.74,5.85,0.65,5.85,0.65c0.04,0-0.89-2.72-0.97-2.88c-0.91-1.91-3.79-5.05-6.14-4.74
			c-1.69,0.23-2.63,1.92-2.25,3.51C631.9,344.19,633.56,345.4,635.01,346.03z"/>
		<path class="st1" d="M636.44,358.06c1.76,0.26,5.47-0.82,5.76-0.9c0.59,2.08,1.35,4.16,2.25,6.22c0.51,1.18,1.06,2.35,1.63,3.52
			c-0.34-0.5-0.64-0.94-0.69-0.99c-1.38-1.6-4.99-3.87-7.17-2.95c-1.57,0.67-2.03,2.54-1.24,3.98c0.8,1.46,2.73,2.19,4.29,2.42
			c1.58,0.23,4.76-0.62,5.6-0.86c0.22,0.45,0.44,0.89,0.66,1.34c1.07,2.14,2.15,4.27,3.15,6.39c0.35,0.75,0.67,1.5,0.99,2.24
			c-0.3-0.44-0.56-0.81-0.6-0.86c-1.38-1.6-4.99-3.87-7.17-2.95c-1.57,0.67-2.03,2.54-1.24,3.98c0.81,1.46,2.73,2.19,4.29,2.42
			c1.51,0.22,4.45-0.54,5.45-0.82c0.31,0.78,0.61,1.55,0.88,2.32c0.17,0.53,0.36,1.02,0.5,1.56c0.15,0.53,0.29,1.05,0.44,1.57
			c0.24,1.01,0.5,2.05,0.71,3.04c0.15,0.69,0.29,1.35,0.42,2.01c-0.34-0.75-1.04-2.2-1.11-2.31c-1.12-1.79-4.35-4.58-6.64-4
			c-1.65,0.42-2.39,2.21-1.83,3.74c0.57,1.57,2.37,2.58,3.88,3.04c1.66,0.51,5.34,0.04,5.8-0.02c0.22,1.1,0.42,2.17,0.6,3.18
			c0.39,2.24,0.69,4.24,0.92,5.94h1.55c-0.27-1.76-0.62-3.85-1.09-6.2c-0.22-1.12-0.48-2.31-0.75-3.53
			c0.28-0.11,1.85-0.74,3.24-1.52c1.21,1.31,4.31,2.85,4.72,3.04c-0.42,1.04-0.84,2.04-1.26,2.99c-0.86,1.98-1.67,3.73-2.39,5.22
			h1.68c0.62-1.37,1.3-2.94,2.01-4.67c0.43-1.05,0.88-2.19,1.32-3.35c0.45,0.09,4.09,0.83,5.78,0.45c1.54-0.35,3.4-1.22,4.09-2.74
			c0.67-1.49,0.07-3.33-1.55-3.87c-2.24-0.75-5.67,1.79-6.92,3.49c-0.07,0.1-0.76,1.28-1.17,2.03c0.18-0.48,0.36-0.94,0.53-1.44
			c0.36-0.98,0.69-1.96,1.04-3.02c0.15-0.52,0.31-1.04,0.47-1.57c0.17-0.52,0.28-1.09,0.42-1.64c0.31-1.28,0.55-2.59,0.77-3.92
			c0.86,0.31,3.91,1.37,5.49,1.26c1.57-0.11,3.55-0.69,4.46-2.09c0.89-1.37,0.57-3.28-0.94-4.06c-2.1-1.08-5.87,0.92-7.37,2.41
			c-0.09,0.09-1.05,1.28-1.56,1.95c0.13-0.8,0.25-1.6,0.36-2.41c0.29-2.35,0.51-4.73,0.74-7.11c0.07-0.73,0.15-1.45,0.23-2.18
			c0.3,0.11,3.9,1.45,5.68,1.33c1.57-0.11,3.55-0.69,4.46-2.09c0.89-1.37,0.57-3.28-0.94-4.06c-2.1-1.08-5.87,0.91-7.37,2.41
			c-0.11,0.11-1.48,1.83-1.81,2.28c0.17-1.6,0.35-3.19,0.6-4.75c0.33-2.15,0.78-4.25,1.36-6.25c0.14,0.05,3.89,1.47,5.71,1.34
			c1.57-0.11,3.55-0.69,4.46-2.09c0.89-1.37,0.57-3.28-0.94-4.06c-2.1-1.08-5.87,0.91-7.37,2.41c-0.12,0.12-1.59,1.96-1.83,2.32
			c0.04-0.12,0.06-0.25,0.09-0.36c0.65-2.13,1.55-4.1,2.48-5.91c0.54-1.05,1.11-2.03,1.69-2.97c0.67,0.34,3.76,1.83,5.4,1.9
			c1.58,0.06,3.6-0.3,4.66-1.59c1.04-1.26,0.93-3.2-0.49-4.14c-1.97-1.31-5.94,0.26-7.59,1.58c-0.09,0.07-0.92,0.9-1.52,1.51
			c0.27-0.42,0.54-0.86,0.8-1.25c0.99-1.49,1.99-2.79,2.88-3.94c0.51-0.65,0.99-1.22,1.44-1.76c0.83-0.01,4.18-0.12,5.64-0.8
			c1.43-0.67,3.06-1.92,3.41-3.56c0.34-1.6-0.65-3.27-2.34-3.45c-2.35-0.25-5.15,2.97-6.01,4.9c-0.07,0.17-0.94,2.91-0.89,2.91
			c0,0,0.04,0,0.05,0c-0.45,0.51-0.92,1.05-1.42,1.66c-0.92,1.13-1.95,2.42-2.98,3.89c-1.03,1.47-2.11,3.1-3.09,4.92
			c-0.98,1.82-1.93,3.78-2.64,5.93c-0.01,0.02-0.01,0.05-0.02,0.07c0.01-0.69-0.02-2.63-0.04-2.78c-0.27-2.1-2.03-5.98-4.35-6.42
			c-1.68-0.31-3.1,1-3.23,2.63c-0.14,1.66,1.07,3.33,2.25,4.38c1.33,1.19,5.01,2.33,5.31,2.42c-0.66,2.05-1.16,4.21-1.56,6.43
			c-0.23,1.27-0.41,2.55-0.59,3.84c-0.01-0.6-0.02-1.14-0.03-1.21c-0.27-2.1-2.03-5.98-4.35-6.41c-1.68-0.31-3.1,1-3.23,2.63
			c-0.14,1.66,1.07,3.33,2.25,4.38c1.19,1.07,4.32,2.11,5.15,2.37c-0.06,0.49-0.13,0.99-0.19,1.48c-0.28,2.37-0.56,4.75-0.9,7.06
			c-0.12,0.82-0.27,1.62-0.41,2.42c-0.01-0.53-0.02-0.98-0.03-1.05c-0.27-2.1-2.03-5.98-4.35-6.41c-1.68-0.31-3.1,1-3.23,2.63
			c-0.14,1.66,1.07,3.33,2.25,4.38c1.14,1.02,4.01,2.01,5,2.33c-0.17,0.82-0.34,1.63-0.55,2.42c-0.15,0.53-0.26,1.05-0.44,1.58
			c-0.17,0.52-0.34,1.04-0.5,1.56c-0.36,0.98-0.72,1.99-1.09,2.93c-0.25,0.66-0.51,1.28-0.76,1.91c0.13-0.81,0.35-2.41,0.35-2.54
			c0.03-1.4-0.47-3.69-1.46-5.29c0.01-0.21-0.01-0.41-0.04-0.62c-0.26-1.61-1.78-2.81-3.42-2.38c-2.29,0.61-3.74,4.62-3.84,6.73
			c-0.01,0.12,0.07,1.48,0.14,2.34c-0.12-0.5-0.22-0.98-0.35-1.49c-0.24-1.01-0.51-2.01-0.79-3.09c-0.16-0.52-0.31-1.04-0.47-1.56
			c-0.15-0.53-0.37-1.06-0.55-1.6c-0.45-1.24-0.97-2.47-1.52-3.7c0.89-0.21,4.02-1.01,5.27-1.98c1.25-0.96,2.58-2.53,2.57-4.2
			c-0.01-1.64-1.33-3.05-3.02-2.87c-2.35,0.26-4.39,4-4.82,6.07c-0.03,0.13-0.17,1.65-0.23,2.48c-0.34-0.74-0.67-1.47-1.03-2.21
			c-1.05-2.12-2.18-4.23-3.3-6.34c-0.34-0.65-0.68-1.29-1.01-1.94c0.32-0.07,4.06-0.94,5.47-2.02c1.25-0.96,2.58-2.53,2.57-4.2
			c-0.01-1.64-1.33-3.05-3.02-2.87c-2.35,0.26-4.39,4-4.82,6.07c-0.03,0.16-0.23,2.34-0.25,2.9c-0.74-1.43-1.47-2.85-2.12-4.29
			c-0.91-1.98-1.69-3.98-2.31-5.96c0.15-0.03,4.06-0.92,5.5-2.03c1.25-0.96,2.58-2.53,2.57-4.2c-0.01-1.64-1.33-3.05-3.02-2.87
			c-2.35,0.26-4.39,4-4.82,6.07c-0.03,0.16-0.24,2.52-0.25,2.94c-0.04-0.12-0.09-0.24-0.12-0.35c-0.63-2.13-0.97-4.28-1.2-6.3
			c-0.13-1.17-0.19-2.31-0.23-3.41c0.75-0.09,4.15-0.54,5.56-1.4c1.35-0.82,2.84-2.23,3.01-3.9c0.17-1.63-0.99-3.18-2.69-3.18
			c-2.37,0-4.81,3.5-5.46,5.51c-0.04,0.11-0.27,1.26-0.43,2.1c-0.01-0.5-0.03-1.01-0.02-1.49c0-1.79,0.12-3.43,0.23-4.88
			c0.07-0.82,0.15-1.57,0.23-2.26c0.68-0.47,3.42-2.4,4.26-3.78c0.82-1.35,1.49-3.29,0.88-4.85c-0.6-1.52-2.34-2.37-3.85-1.58
			c-2.1,1.09-2.66,5.32-2.31,7.4c0.03,0.18,0.82,2.94,0.86,2.92c0,0,0.03-0.02,0.04-0.03c-0.09,0.67-0.18,1.38-0.27,2.17
			c-0.14,1.45-0.29,3.09-0.34,4.89c-0.05,1.79-0.05,3.75,0.14,5.8c0.18,2.06,0.48,4.22,1.07,6.4c0.01,0.02,0.02,0.05,0.02,0.07
			c-0.37-0.58-1.47-2.19-1.57-2.3c-1.38-1.6-4.99-3.87-7.17-2.95c-1.57,0.67-2.03,2.55-1.24,3.98
			C632.96,357.11,634.88,357.83,636.44,358.06z"/>
		<path class="st1" d="M677.02,346.95c0.04,0.02,0.76-2.76,0.78-2.94c0.29-2.09-0.38-6.31-2.51-7.34c-1.53-0.74-3.25,0.15-3.81,1.69
			c-0.57,1.57,0.15,3.5,1.01,4.82C673.5,344.73,677.02,346.94,677.02,346.95z"/>
	</g>
	<g>
		<g>
			<path class="st2" d="M246.37,382.49h-63.76c-5.65,0-10.23,4.58-10.23,10.23v1.12c0,5.65,4.58,10.23,10.23,10.23h63.76
				c0,0-3.41-5.12-3.41-10.93C242.97,387.33,246.37,382.49,246.37,382.49z"/>
			<path class="st2" d="M216.1,382.49h-63.76c-5.65,0-10.23,4.58-10.23,10.23v1.12c0,5.65,4.58,10.23,10.23,10.23h63.76
				c0,0-3.41-5.12-3.41-10.93C212.7,387.33,216.1,382.49,216.1,382.49z"/>
			<path class="st2" d="M142.11,392.72v1.12c0,4.11,2.42,7.64,5.92,9.27l1.4,0.06v-19.1l-0.83-0.86
				C144.81,384.7,142.11,388.39,142.11,392.72z"/>
			<path class="st3" d="M246.37,382.49h-94.03c-5.65,0-10.23,4.58-10.23,10.23v1.12c0,5.65,4.58,10.23,10.23,10.23h94.03"/>
			<g>
				<line class="st4" x1="149.75" y1="387.25" x2="180.94" y2="387.25"/>
				<line class="st4" x1="185.4" y1="390.12" x2="190.17" y2="390.12"/>
				<line class="st4" x1="155.8" y1="390.12" x2="181.26" y2="390.12"/>
				<line class="st4" x1="149.75" y1="396.48" x2="165.66" y2="396.48"/>
				<line class="st4" x1="197.49" y1="399.98" x2="200.99" y2="399.98"/>
				<line class="st4" x1="175.21" y1="399.98" x2="194.63" y2="399.98"/>
				<line class="st4" x1="155.8" y1="399.98" x2="169.48" y2="399.98"/>
			</g>
		</g>
		<g>
			<path class="st2" d="M183.24,382.49H93.92c-5.65,0-10.23,4.58-10.23,10.23v1.12c0,5.65,4.58,10.23,10.23,10.23h89.32
				c0,0-3.41-5.12-3.41-10.93C179.84,387.33,183.24,382.49,183.24,382.49z"/>
			<g>
				<line class="st4" x1="128.92" y1="385.89" x2="128.92" y2="401.33"/>
				<line class="st4" x1="129.4" y1="388.3" x2="154.98" y2="388.3"/>
				<line class="st4" x1="129.4" y1="392.16" x2="164.63" y2="392.16"/>
				<line class="st4" x1="140.26" y1="396.5" x2="149.43" y2="396.5"/>
				<line class="st4" x1="161.01" y1="399.4" x2="133.5" y2="399.4"/>
			</g>
			<path class="st5" d="M124.47,393.84v-1.12c0-5.65,4.58-10.23,10.23-10.23H93.92c-5.65,0-10.23,4.58-10.23,10.23v1.12
				c0,5.65,4.58,10.23,10.23,10.23h40.78C129.05,404.07,124.47,399.49,124.47,393.84z"/>
			<path class="st3" d="M178.54,382.49H93.92c-5.65,0-10.23,4.58-10.23,10.23v1.12c0,5.65,4.58,10.23,10.23,10.23h84.62"/>
			<path class="st3" d="M185.14,382.49h-50.2c-5.65,0-10.23,4.58-10.23,10.23v1.12c0,5.65,4.58,10.23,10.23,10.23h50.2"/>
		</g>
		<g>
			<path class="st2" d="M236.23,361.25h-63.76c-5.65,0-10.23,4.58-10.23,10.23v1.12c0,5.65,4.58,10.23,10.23,10.23h63.76
				c0,0-3.41-5.12-3.41-10.93C232.83,366.09,236.23,361.25,236.23,361.25z"/>
			<path class="st2" d="M205.96,361.25H142.2c-5.65,0-10.23,4.58-10.23,10.23v1.12c0,5.65,4.58,10.23,10.23,10.23h63.76
				c0,0-3.41-5.12-3.41-10.93C202.56,366.09,205.96,361.25,205.96,361.25z"/>
			<path class="st2" d="M131.97,371.48v1.12c0,4.11,2.42,7.64,5.92,9.27l1.4,0.06v-19.1l-0.83-0.86
				C134.67,363.45,131.97,367.15,131.97,371.48z"/>
			<path class="st3" d="M236.23,361.25H142.2c-5.65,0-10.23,4.58-10.23,10.23v1.12c0,5.65,4.58,10.23,10.23,10.23h94.03"/>
			<g>
				<line class="st4" x1="139.61" y1="366.01" x2="170.8" y2="366.01"/>
				<line class="st4" x1="175.26" y1="368.87" x2="180.03" y2="368.87"/>
				<line class="st4" x1="145.66" y1="368.87" x2="171.12" y2="368.87"/>
				<line class="st4" x1="139.61" y1="375.24" x2="155.52" y2="375.24"/>
				<line class="st4" x1="187.35" y1="378.74" x2="190.86" y2="378.74"/>
				<line class="st4" x1="165.07" y1="378.74" x2="184.49" y2="378.74"/>
				<line class="st4" x1="145.66" y1="378.74" x2="159.34" y2="378.74"/>
			</g>
		</g>
	</g>
	<g>
		<g>
			<g>
				<path class="st4" d="M282.08,131.82h-26.91c-1.14,0-2.06-0.92-2.06-2.06v-7.82c0-1.14,0.92-2.06,2.06-2.06h36.07
					c1.14,0,2.06,0.92,2.06,2.06v3.07"/>
				<path class="st4" d="M281.83,144.54v-16.73c0-1.48,1.2-2.68,2.68-2.68h35.72c1.48,0,2.68,1.2,2.68,2.68v20.03"/>
				<path class="st4" d="M322.9,164.34v20.86c0,1.48-1.2,2.68-2.68,2.68h-35.72c-1.48,0-2.68-1.2-2.68-2.68v-36.65"/>
				<line class="st4" x1="284.36" y1="134.91" x2="320.35" y2="134.91"/>
				<line class="st4" x1="301.55" y1="145.76" x2="320.35" y2="145.76"/>
				<line class="st4" x1="284.36" y1="145.76" x2="298.62" y2="145.76"/>
				<line class="st4" x1="284.36" y1="156.62" x2="320.35" y2="156.62"/>
				<line class="st4" x1="313.9" y1="167.47" x2="320.35" y2="167.47"/>
				<line class="st4" x1="284.36" y1="167.47" x2="310.66" y2="167.47"/>
				<line class="st4" x1="284.36" y1="178.32" x2="320.35" y2="178.32"/>
				<line class="st4" x1="260.37" y1="125.58" x2="279.98" y2="125.58"/>
			</g>
			<g>
				<g>
					<path class="st6" d="M328.25,165.42c-1.5,0-2.99-0.57-4.14-1.68l-3.83-3.8c-0.46-0.46-0.54-1.17-0.2-1.72
						c0.22-0.35,0.58-0.59,1-0.64c0.41-0.05,0.82,0.08,1.13,0.36l0.76,0.71l-3.85-7.94c-0.19-0.4-0.21-0.86-0.05-1.28
						c0.16-0.42,0.47-0.75,0.88-0.93c0.81-0.35,1.75,0,2.13,0.8l1.46,2.81c0.29-0.34,0.64-0.54,1.03-0.59
						c0.62-0.09,1.2,0.21,1.52,0.44c0.3-0.37,0.67-0.59,1.08-0.65c0.51-0.07,0.98,0.13,1.29,0.31c0.21-0.47,0.6-0.71,1.13-0.68
						c0.51,0.03,0.99,0.34,1.25,0.82l2.72,5.01c1.33,2.63,0.57,5.78-1.8,7.51C330.7,165.05,329.47,165.42,328.25,165.42z
						 M321.26,158.19c-0.03,0-0.07,0-0.1,0.01c-0.23,0.03-0.43,0.16-0.55,0.35c-0.19,0.31-0.15,0.7,0.11,0.95l3.83,3.8
						c1.86,1.8,4.73,2,6.83,0.48c2.13-1.55,2.81-4.37,1.62-6.72l-2.72-5c-0.16-0.29-0.44-0.48-0.74-0.5
						c-0.25-0.01-0.52,0.05-0.61,0.61l-0.09,0.57l-0.43-0.39c0,0-0.58-0.51-1.17-0.43c-0.32,0.04-0.6,0.26-0.84,0.64l-0.2,0.32
						l-0.27-0.26c-0.01-0.01-0.64-0.59-1.28-0.49c-0.34,0.05-0.65,0.3-0.9,0.74l-0.29,0.51l-1.94-3.81c-0.24-0.5-0.82-0.72-1.33-0.5
						c-0.26,0.11-0.45,0.32-0.55,0.58c-0.1,0.26-0.09,0.54,0.03,0.8l5.24,10.87l-3.12-2.92
						C321.64,158.26,321.46,158.19,321.26,158.19z"/>
				</g>
				<g>
					<path class="st6" d="M324.9,156.39c-0.12,0-0.23-0.07-0.29-0.19l-1.42-3.35c-0.07-0.16,0.01-0.34,0.16-0.41
						c0.16-0.07,0.34,0.01,0.41,0.16l1.42,3.35c0.07,0.16-0.01,0.34-0.16,0.41C324.98,156.39,324.94,156.39,324.9,156.39z"/>
				</g>
				<g>
					<path class="st6" d="M327.38,155.66c-0.12,0-0.24-0.07-0.29-0.19l-1.24-2.94c-0.07-0.16,0.01-0.34,0.16-0.41
						c0.16-0.07,0.34,0.01,0.41,0.16l1.24,2.94c0.07,0.16-0.01,0.34-0.16,0.41C327.46,155.65,327.42,155.66,327.38,155.66z"/>
				</g>
				<g>
					<path class="st6" d="M329.82,155.02c-0.12,0-0.23-0.07-0.28-0.18l-1.19-2.57c-0.07-0.16,0-0.34,0.15-0.41
						c0.15-0.07,0.34,0,0.41,0.15l1.19,2.57c0.07,0.16,0,0.34-0.15,0.41C329.91,155.01,329.86,155.02,329.82,155.02z"/>
				</g>
			</g>
		</g>
		
			<rect x="302.32" y="113.86" transform="matrix(0.7071 -0.7071 0.7071 0.7071 7.0583 249.4919)" class="st4" width="4.73" height="4.73"/>
		<path class="st4" d="M275.83,143.48c0-1.37-1.11-2.48-2.48-2.48c-1.37,0-2.48,1.11-2.48,2.48c0,1.37,1.11,2.48,2.48,2.48
			C274.72,145.95,275.83,144.84,275.83,143.48z"/>
	</g>
	
		<rect x="606.3" y="65.33" transform="matrix(0.7071 -0.7071 0.7071 0.7071 128.5754 454.6385)" class="st4" width="13.58" height="13.58"/>
	
		<rect x="275.28" y="329" transform="matrix(0.7071 -0.7071 0.7071 0.7071 -154.8243 297.7998)" class="st4" width="13.58" height="13.58"/>
	
		<rect x="233.46" y="310.31" transform="matrix(0.7071 -0.7071 0.7071 0.7071 -153.8542 262.753)" class="st4" width="13.58" height="13.58"/>
	
		<rect x="591.54" y="81.65" transform="matrix(0.7071 -0.7071 0.7071 0.7071 113.9903 445.8996)" class="st4" width="7.4" height="7.4"/>
	<circle class="st4" cx="596.98" cy="297.31" r="3.88"/>
	<circle class="st4" cx="275.18" cy="263.7" r="3.88"/>
	<circle class="st4" cx="446.3" cy="79.87" r="3.88"/>
	<g>
		<path class="st5" d="M551.31,395.76l0.32,0.31h0.72C551.66,395.92,551.31,395.76,551.31,395.76z"/>
	</g>
	<g class="st7">
		<path class="st6" d="M77.36,96.4H28.11c-1,0-1.81,0.81-1.81,1.81v6.36c0,1,1.55,1,1.55,0V98.2c0-0.14,0.12-0.26,0.26-0.26h49.25
			c0.14,0,0.26,0.12,0.26,0.26v37.76c0,0.14-0.12,0.26-0.26,0.26h-9.92v-1.61h7.79c0.43,0,0.77-0.35,0.77-0.77v-8.11
			c0-1-1.55-1-1.55,0v7.33h-7.01v-3.44c0.03,0,0.05,0,0.07,0.01c0.64,0.06,1.44,0.13,2-0.43c0.55-0.55,0.48-1.35,0.43-2
			c-0.06-0.69,0-0.88,0.54-1.32c1.37-1.14,1.39-2.35,0-3.51c-0.53-0.44-0.6-0.63-0.54-1.32c0.15-1.73-0.66-2.58-2.42-2.43
			c-0.69,0.06-0.88,0-1.32-0.54c-1.13-1.37-2.35-1.39-3.51,0c-0.44,0.53-0.63,0.6-1.32,0.54c-1.73-0.15-2.58,0.66-2.42,2.43
			c0.06,0.69,0,0.88-0.54,1.32c-1.37,1.14-1.39,2.35,0,3.51c0.53,0.44,0.6,0.63,0.54,1.32c-0.16,1.86,0.72,2.57,2.5,2.42v3.44H31.02
			V101.1h43.43v20.49c0,1,1.55,1,1.55,0v-21.27c0-0.43-0.35-0.77-0.77-0.77H30.25c-0.43,0-0.77,0.35-0.77,0.77v33.51
			c0,0.43,0.35,0.77,0.77,0.77h31.2v1.61H28.11c-0.14,0-0.26-0.12-0.26-0.26v-27.48c0-1-1.55-1-1.55,0v27.48
			c0,1,0.81,1.81,1.81,1.81h33.34v3.51c0.11,0.64,0.48,0.87,1.1,0.7l1.89-0.88l1.89,0.88c0.47,0.22,1.1-0.13,1.1-0.7v-3.51h9.92
			c1,0,1.81-0.81,1.81-1.81V98.2C79.17,97.21,78.36,96.4,77.36,96.4L77.36,96.4z M61.24,128.09c-0.78,0.07-0.81,0.03-0.75-0.75
			c0.1-1.19-0.17-1.88-1.09-2.65c-0.63-0.52-0.63-0.6,0-1.13c0.92-0.76,1.19-1.46,1.09-2.65c-0.07-0.77-0.03-0.82,0.75-0.75
			c1.19,0.1,1.88-0.17,2.64-1.09c0.52-0.63,0.6-0.63,1.12,0c0.76,0.92,1.45,1.19,2.64,1.09c0.78-0.07,0.81-0.03,0.75,0.75
			c-0.1,1.19,0.17,1.88,1.09,2.65c0.63,0.52,0.63,0.6,0,1.13c-0.92,0.76-1.19,1.46-1.09,2.65c0.07,0.77,0.03,0.82-0.74,0.75
			c-0.49-0.04-1.04-0.09-1.52,0.11c-0.47,0.2-0.8,0.59-1.12,0.98c-0.15,0.18-0.43,0.51-0.56,0.57c-0.13-0.06-0.41-0.39-0.56-0.57
			c-0.32-0.39-0.65-0.78-1.12-0.98C62.27,128.05,61.76,128.01,61.24,128.09L61.24,128.09z M64.77,139.54c-0.21-0.1-0.45-0.1-0.65,0
			L63,140.06v-9.54c0.37,0.4,0.82,0.78,1.45,0.78c0.62,0,1.08-0.38,1.45-0.78v9.53L64.77,139.54z"/>
		<path class="st6" d="M36.35,107.59h26.69c1,0,1-1.55,0-1.55H36.35C35.35,106.04,35.35,107.59,36.35,107.59z"/>
		<path class="st6" d="M69.9,111.52c0-0.43-0.35-0.77-0.77-0.77H36.35c-1,0-1,1.55,0,1.55h32.78
			C69.56,112.3,69.9,111.95,69.9,111.52z"/>
		<path class="st6" d="M55.75,116.23c0-0.43-0.35-0.77-0.77-0.77H36.35c-1,0-1,1.55,0,1.55h18.62
			C55.4,117.01,55.75,116.66,55.75,116.23z"/>
		<path class="st6" d="M45.58,127.03c-0.42,0-0.84,0-1.27,0c-0.81,0-1.26-0.22-1.43-1.08c-0.15-0.79-1.29-0.69-1.49,0
			c-0.09,0.3-0.56,1.17-0.96,1.1c-0.22-0.04-0.31-0.37-0.39-0.54c-0.15-0.33-0.27-0.69-0.36-1.04c-0.41-1.5-0.49-3.07-0.74-4.6
			c-0.15-0.89-1.5-0.64-1.52,0.21c-0.07,2.68-0.51,5.33-1.46,7.84c-0.35,0.93,1.14,1.34,1.49,0.41c0.37-0.97,0.66-1.96,0.89-2.97
			c0.12,0.37,0.27,0.73,0.44,1.08c0.45,0.89,1.37,1.42,2.36,1.02c0.35-0.14,0.67-0.39,0.95-0.69c0.73,0.84,1.82,0.81,2.84,0.81
			c1.53,0,3.07-0.01,4.6-0.01c1,0,1-1.55,0-1.55C48.21,127.02,46.89,127.02,45.58,127.03L45.58,127.03z"/>
		<path class="st6" d="M64.45,127.16c1.67,0,3.02-1.36,3.02-3.02c0-1.67-1.36-3.02-3.02-3.02c-1.67,0-3.02,1.36-3.02,3.02
			S62.78,127.16,64.45,127.16z M64.45,122.66c0.81,0,1.48,0.66,1.48,1.48s-0.66,1.48-1.48,1.48s-1.48-0.66-1.48-1.48
			C62.97,123.32,63.63,122.66,64.45,122.66z"/>
	</g>
	<g class="st7">
		<g>
			<path class="st6" d="M96.4,232.36c0.51-0.78,0.41-1.79-0.23-2.46c-0.28-0.3-0.4-0.71-0.32-1.11c0.19-0.91-0.26-1.82-1.1-2.21
				c-0.37-0.17-0.63-0.52-0.7-0.92c-0.15-0.92-0.9-1.6-1.82-1.66c-0.41-0.03-0.78-0.26-0.98-0.61c-0.47-0.8-1.42-1.17-2.3-0.89
				c-0.39,0.12-0.82,0.04-1.14-0.21c-0.73-0.58-1.74-0.58-2.47,0c-0.32,0.25-0.74,0.33-1.14,0.21c-0.89-0.28-1.83,0.09-2.3,0.89
				c-0.21,0.35-0.57,0.58-0.98,0.61c-0.93,0.06-1.68,0.75-1.83,1.66c-0.07,0.4-0.33,0.75-0.7,0.92c-0.84,0.39-1.29,1.3-1.1,2.21
				c0.08,0.4-0.03,0.82-0.32,1.11c-0.64,0.67-0.74,1.68-0.23,2.46c0.22,0.34,0.26,0.77,0.11,1.15c-0.36,0.86-0.08,1.83,0.68,2.38
				c0.33,0.24,0.52,0.63,0.51,1.03c-0.02,0.93,0.59,1.74,1.49,1.97c0.27,0.07,0.5,0.22,0.66,0.43l-2.07,4.99
				c-0.29,0.7,0.37,1.42,1.09,1.2l2.26-0.69c0.07-0.02,0.14,0.01,0.17,0.07l1.11,2.09c0.35,0.67,1.33,0.62,1.62-0.08l2.15-5.2
				c0.03,0,0.06,0,0.08,0l2.15,5.2c0.29,0.7,1.26,0.74,1.62,0.08l1.11-2.09c0.03-0.06,0.1-0.09,0.17-0.07l2.26,0.69
				c0.72,0.22,1.38-0.5,1.09-1.2l-2.07-4.99c0.17-0.21,0.4-0.36,0.66-0.43c0.9-0.23,1.51-1.04,1.49-1.97
				c-0.01-0.41,0.18-0.8,0.51-1.03c0.75-0.54,1.03-1.52,0.68-2.38C96.14,233.13,96.18,232.7,96.4,232.36L96.4,232.36z M83.69,246.6
				c-0.05,0.11-0.2,0.12-0.26,0.01l-1.11-2.09c-0.2-0.38-0.64-0.56-1.05-0.44l-2.26,0.69c-0.12,0.04-0.22-0.08-0.18-0.19l1.83-4.43
				c0.41,0.57,1.1,0.88,1.83,0.8c0.41-0.05,0.81,0.11,1.08,0.42c0.39,0.45,0.94,0.69,1.5,0.69c0.18,0,0.35-0.02,0.53-0.07
				L83.69,246.6z M94.15,244.79l-2.26-0.69c-0.41-0.13-0.85,0.06-1.05,0.44l-1.11,2.09c-0.06,0.11-0.21,0.1-0.26-0.01l-1.91-4.61
				c0.73,0.2,1.51-0.02,2.03-0.61c0.27-0.31,0.67-0.46,1.08-0.42c0.73,0.09,1.42-0.23,1.83-0.8l1.83,4.43
				C94.38,244.71,94.27,244.82,94.15,244.79L94.15,244.79z M95.77,231.95c-0.36,0.55-0.42,1.24-0.17,1.85
				c0.22,0.53,0.05,1.14-0.42,1.48c-0.53,0.38-0.84,1-0.83,1.66c0.01,0.58-0.37,1.08-0.93,1.23c-0.52,0.14-0.96,0.48-1.23,0.94
				c0,0,0,0,0,0c-0.06,0.1-0.1,0.2-0.14,0.31c-0.2,0.54-0.73,0.88-1.31,0.81c-0.65-0.08-1.3,0.17-1.73,0.67
				c-0.38,0.44-1,0.55-1.51,0.28c-0.17-0.09-0.36-0.16-0.55-0.19c0,0,0,0,0,0c-0.25-0.05-0.51-0.05-0.76,0c0,0,0,0,0,0
				c-0.19,0.04-0.37,0.1-0.55,0.19c-0.51,0.27-1.13,0.15-1.51-0.28c-0.38-0.44-0.93-0.68-1.5-0.68c-0.08,0-0.15,0-0.23,0.01
				c-0.57,0.07-1.11-0.27-1.31-0.81c-0.04-0.11-0.09-0.21-0.14-0.31c0,0,0,0,0,0c-0.26-0.46-0.7-0.8-1.23-0.94
				c-0.56-0.14-0.94-0.65-0.93-1.23c0.02-0.66-0.29-1.28-0.83-1.66c-0.47-0.34-0.64-0.95-0.42-1.48c0.25-0.61,0.19-1.3-0.17-1.85
				c-0.32-0.48-0.26-1.11,0.14-1.53c0.45-0.47,0.64-1.14,0.51-1.78c-0.12-0.57,0.16-1.13,0.69-1.38c0.59-0.28,1.01-0.83,1.12-1.48
				c0.09-0.57,0.56-1,1.14-1.04c0.66-0.04,1.25-0.41,1.58-0.98c0.29-0.5,0.88-0.73,1.43-0.56c0.63,0.19,1.31,0.07,1.82-0.34
				c0.45-0.36,1.08-0.36,1.54,0c0.51,0.41,1.2,0.54,1.82,0.34c0.55-0.17,1.14,0.06,1.43,0.56c0.33,0.57,0.92,0.93,1.58,0.98
				c0.58,0.04,1.04,0.47,1.14,1.04c0.11,0.65,0.52,1.2,1.12,1.48c0.52,0.25,0.8,0.81,0.69,1.38c-0.14,0.64,0.05,1.31,0.51,1.78
				C96.03,230.83,96.09,231.46,95.77,231.95L95.77,231.95z"/>
			<path class="st6" d="M79.48,231.45c0.21,0.03,0.39-0.12,0.42-0.33c0.41-3.37,3.29-5.9,6.68-5.9c3.4,0,6.27,2.54,6.68,5.91
				c0.02,0.19,0.18,0.33,0.37,0.33c0.02,0,0.03,0,0.05,0c0.21-0.03,0.35-0.21,0.33-0.42c-0.46-3.74-3.65-6.57-7.43-6.57
				c-3.77,0-6.97,2.82-7.43,6.56C79.13,231.24,79.27,231.43,79.48,231.45L79.48,231.45z"/>
			<path class="st6" d="M93.68,232.46c-0.2-0.02-0.39,0.12-0.42,0.33c-0.41,3.37-3.29,5.91-6.68,5.91c-3.4,0-6.27-2.54-6.68-5.9
				c-0.03-0.21-0.21-0.35-0.42-0.33c-0.21,0.03-0.35,0.21-0.33,0.42c0.46,3.74,3.65,6.56,7.43,6.56c3.78,0,6.97-2.82,7.43-6.57
				C94.04,232.67,93.89,232.48,93.68,232.46z"/>
			<path class="st6" d="M91.88,230.41c-0.1-0.29-0.36-0.49-0.66-0.5l-2.94-0.11l-1.01-2.76c-0.11-0.29-0.37-0.48-0.68-0.48
				s-0.58,0.19-0.68,0.48l-1.01,2.76l-2.94,0.11c-0.31,0.01-0.57,0.21-0.66,0.5s0,0.61,0.24,0.8l2.32,1.81l-0.81,2.83
				c-0.08,0.3,0.02,0.61,0.27,0.79c0.25,0.18,0.58,0.19,0.83,0.01l2.44-1.64l2.44,1.64c0.26,0.17,0.58,0.17,0.83-0.01
				c0.25-0.18,0.36-0.49,0.27-0.79l-0.81-2.83l2.32-1.81C91.88,231.01,91.97,230.7,91.88,230.41L91.88,230.41z M88.84,232.44
				c-0.23,0.18-0.33,0.49-0.25,0.77l0.79,2.78l-2.4-1.61c-0.12-0.08-0.26-0.12-0.41-0.12c-0.14,0-0.28,0.04-0.41,0.12l-2.4,1.61
				l0.79-2.78c0.08-0.29-0.02-0.59-0.25-0.77l-2.28-1.78l2.89-0.1c0.3-0.01,0.55-0.2,0.66-0.48l0.99-2.72l0.99,2.72
				c0.1,0.28,0.36,0.47,0.66,0.48l2.89,0.1L88.84,232.44z"/>
		</g>
	</g>
	<g>
		<circle class="st4" cx="146.61" cy="175.37" r="3.88"/>
	</g>
	<g class="st7">
		<path class="st6" d="M234.89,12.55l4.31,2.24v3.73c0,0.52,0.34,1.24,1.99,1.79c1.11,0.37,2.58,0.57,4.13,0.57
			c1.55,0,3.02-0.2,4.13-0.57c1.64-0.54,1.99-1.27,1.99-1.79c0,0,0-0.01,0-0.01V14.8l1.26-0.66v2.53c0,0.28,0.22,0.5,0.5,0.5
			c0.28,0,0.5-0.22,0.5-0.5v-3.05l2.05-1.07c0.17-0.09,0.27-0.26,0.27-0.44s-0.1-0.36-0.27-0.44l-10.19-5.31
			c-0.14-0.08-0.32-0.08-0.46,0l-10.19,5.31c-0.17,0.09-0.27,0.26-0.27,0.44S234.72,12.47,234.89,12.55z M250.43,17.17
			c-0.26-0.15-0.59-0.29-0.99-0.43c-1.11-0.37-2.58-0.57-4.13-0.57s-3.02,0.2-4.13,0.57c-0.4,0.13-0.73,0.28-0.99,0.43v-3.73
			c0-0.16,0.35-0.52,1.3-0.84c1.01-0.33,2.37-0.52,3.81-0.52s2.8,0.18,3.81,0.52c0.95,0.32,1.3,0.67,1.3,0.84L250.43,17.17
			L250.43,17.17z M249.13,19.36c-1.01,0.33-2.37,0.52-3.81,0.52c-1.45,0-2.8-0.18-3.81-0.52c-0.95-0.32-1.3-0.67-1.3-0.84
			c0-0.16,0.35-0.52,1.3-0.84c1.01-0.33,2.37-0.52,3.81-0.52c1.45,0,2.8,0.18,3.81,0.52c0.95,0.31,1.3,0.67,1.3,0.83v0v0
			C250.42,18.69,250.08,19.05,249.13,19.36L249.13,19.36z M253.69,12.49v-0.77l0.74,0.38L253.69,12.49z M245.31,7.37l7.38,3.84v1.81
			l-1.26,0.66v-0.24c0-0.52-0.34-1.24-1.99-1.79c-1.11-0.37-2.58-0.57-4.13-0.57s-3.02,0.2-4.13,0.57
			c-1.64,0.54-1.99,1.27-1.99,1.79v0.24l-3-1.56L245.31,7.37z"/>
		<path class="st6" d="M256.48,21.92h-23.46c-0.28,0-0.5,0.22-0.5,0.5c0,0.26,0.2,0.48,0.46,0.5c0.01,0,0.03,0,0.04,0
			c0.15,0.03,0.64,0.76,0.64,2.22c0,1.46-0.48,2.19-0.63,2.22c-0.28,0-0.5,0.22-0.5,0.5c0,0.28,0.22,0.5,0.5,0.5h9.85v2.67
			c0,0.17,0.09,0.33,0.24,0.42c0.15,0.09,0.33,0.1,0.48,0.02l1.73-0.85l1.73,0.85c0.07,0.03,0.14,0.05,0.22,0.05
			c0.09,0,0.18-0.03,0.26-0.08c0.15-0.09,0.24-0.25,0.24-0.42v-2.67h8.71c1.07,0,1.63-1.62,1.63-3.22
			C258.11,23.54,257.55,21.92,256.48,21.92L256.48,21.92z M245.31,27.28c-1.18,0-2.15-0.96-2.15-2.15c0-1.18,0.96-2.15,2.15-2.15
			c1.18,0,2.15,0.96,2.15,2.15S246.5,27.28,245.31,27.28z M234.23,22.92h8.85c-0.56,0.57-0.91,1.35-0.91,2.22
			c0,0.87,0.35,1.66,0.92,2.23h-8.86c0.28-0.61,0.42-1.42,0.42-2.22C234.65,24.33,234.51,23.52,234.23,22.92L234.23,22.92z
			 M246.77,30.23l-1.23-0.6c-0.14-0.07-0.3-0.07-0.44,0l-1.23,0.6v-1.87h2.91L246.77,30.23L246.77,30.23z M256.48,27.36h-8.94
			c0.57-0.57,0.92-1.36,0.92-2.23c0-0.86-0.35-1.65-0.91-2.22h8.93c0.15,0.03,0.64,0.76,0.64,2.22
			C257.11,26.6,256.63,27.33,256.48,27.36L256.48,27.36z"/>
	</g>
	<g>
		<g class="st8">
			<rect x="487.99" y="84.61" class="st9" width="91.85" height="120.62"/>
			<rect x="504.85" y="106.74" class="st9" width="58.14" height="76.35"/>
		</g>
		<rect x="223.31" y="71.08" class="st10" width="243.17" height="216.46"/>
		<rect x="218.7" y="65.81" class="st2" width="243.17" height="216.46"/>
		<g>
			<g>
				
					<rect x="414.52" y="141.08" transform="matrix(-1 -1.224647e-16 1.224647e-16 -1 841.124 294.2569)" class="st2" width="12.09" height="12.09"/>
				
					<rect x="430.34" y="141.08" transform="matrix(-1 -1.224647e-16 1.224647e-16 -1 872.7818 294.2569)" class="st2" width="12.09" height="12.09"/>
				<line class="st2" x1="409.68" y1="147.85" x2="348.25" y2="147.85"/>
			</g>
			<g>
				
					<rect x="414.52" y="169.62" transform="matrix(-1 -1.224647e-16 1.224647e-16 -1 841.124 351.3314)" class="st2" width="12.09" height="12.09"/>
				
					<rect x="430.34" y="169.62" transform="matrix(-1 -1.224647e-16 1.224647e-16 -1 872.7818 351.3314)" class="st2" width="12.09" height="12.09"/>
				<line class="st2" x1="409.68" y1="176.39" x2="348.25" y2="176.39"/>
			</g>
			<g>
				
					<rect x="414.52" y="198.16" transform="matrix(-1 -1.224647e-16 1.224647e-16 -1 841.124 408.406)" class="st2" width="12.09" height="12.09"/>
				
					<rect x="430.34" y="198.16" transform="matrix(-1 -1.224647e-16 1.224647e-16 -1 872.7818 408.406)" class="st2" width="12.09" height="12.09"/>
				<line class="st2" x1="409.68" y1="204.93" x2="348.25" y2="204.93"/>
			</g>
			<g>
				
					<rect x="298.92" y="141.08" transform="matrix(-1 -1.224647e-16 1.224647e-16 -1 609.9238 294.2569)" class="st2" width="12.09" height="12.09"/>
				
					<rect x="314.74" y="141.08" transform="matrix(-1 -1.224647e-16 1.224647e-16 -1 641.5816 294.2569)" class="st2" width="12.09" height="12.09"/>
				<line class="st2" x1="294.08" y1="147.85" x2="232.65" y2="147.85"/>
			</g>
			<g>
				
					<rect x="298.92" y="169.62" transform="matrix(-1 -1.224647e-16 1.224647e-16 -1 609.9238 351.3314)" class="st2" width="12.09" height="12.09"/>
				
					<rect x="314.74" y="169.62" transform="matrix(-1 -1.224647e-16 1.224647e-16 -1 641.5816 351.3314)" class="st2" width="12.09" height="12.09"/>
				<line class="st2" x1="294.08" y1="176.39" x2="232.65" y2="176.39"/>
			</g>
			<g>
				
					<rect x="298.92" y="198.16" transform="matrix(-1 -1.224647e-16 1.224647e-16 -1 609.9238 408.406)" class="st2" width="12.09" height="12.09"/>
				
					<rect x="314.74" y="198.16" transform="matrix(-1 -1.224647e-16 1.224647e-16 -1 641.5816 408.406)" class="st2" width="12.09" height="12.09"/>
				<line class="st2" x1="294.08" y1="204.93" x2="232.65" y2="204.93"/>
			</g>
			<rect x="236.46" y="251.83" class="st2" width="13.32" height="13.32"/>
			<rect x="290.83" y="251.83" class="st2" width="13.32" height="13.32"/>
			<rect x="347.36" y="251.83" class="st2" width="13.32" height="13.32"/>
			<polyline class="st11" points="318.72,145.13 320.78,149.26 330.76,139.62 			"/>
			<polyline class="st11" points="318.72,173.35 320.78,177.48 330.76,167.84 			"/>
			<polyline class="st11" points="301.51,202.94 303.58,207.07 313.56,197.43 			"/>
			<polyline class="st11" points="433.65,144.79 435.71,148.91 445.69,139.28 			"/>
			<polyline class="st11" points="416.99,173.69 419.06,177.82 429.03,168.18 			"/>
			<polyline class="st11" points="416.99,202.68 419.06,206.81 429.03,197.18 			"/>
		</g>
		<rect x="218.7" y="65.81" class="st5" width="243.17" height="33.82"/>
		<rect x="452.71" y="65.81" class="st12" width="9.16" height="216.46"/>
		<rect x="452.71" y="98.34" class="st13" width="9.16" height="41.78"/>
		<g>
			<rect x="218.7" y="65.81" class="st12" width="243.17" height="16.44"/>
			<rect x="231.02" y="70.61" class="st2" width="95.9" height="6.85"/>
			<g>
				<line class="st4" x1="447.51" y1="70.92" x2="455.92" y2="70.92"/>
				<line class="st4" x1="447.51" y1="74.48" x2="455.92" y2="74.48"/>
				<line class="st4" x1="447.51" y1="78.05" x2="455.92" y2="78.05"/>
			</g>
		</g>
		<g>
			<path class="st6" d="M246.83,248.62h-2.09l-0.36-2.39h-2.54l-0.36,2.39h-1.9l2.11-13.17h3.03L246.83,248.62z M242.11,244.44h1.99
				l-1-6.66L242.11,244.44z"/>
		</g>
		<g>
			<path class="st6" d="M300.33,238.47v0.47c0,1.35-0.41,2.22-1.34,2.65c1.11,0.43,1.54,1.43,1.54,2.82v1.07
				c0,2.03-1.07,3.12-3.14,3.12h-3.26v-13.17h3.12C299.41,235.44,300.33,236.44,300.33,238.47z M296.21,237.33v3.48h0.81
				c0.77,0,1.24-0.34,1.24-1.39v-0.73c0-0.94-0.32-1.35-1.05-1.35H296.21z M296.21,242.69v4.05h1.19c0.7,0,1.07-0.32,1.07-1.3v-1.15
				c0-1.22-0.4-1.6-1.34-1.6H296.21z"/>
		</g>
		<g>
			<path class="st6" d="M357.4,243.71v1.75c0,2.11-1.05,3.31-3.09,3.31c-2.03,0-3.09-1.2-3.09-3.31v-6.85
				c0-2.11,1.05-3.31,3.09-3.31c2.03,0,3.09,1.2,3.09,3.31v1.28h-1.96v-1.41c0-0.94-0.41-1.3-1.07-1.3c-0.66,0-1.07,0.36-1.07,1.3
				v7.11c0,0.94,0.41,1.28,1.07,1.28c0.66,0,1.07-0.34,1.07-1.28v-1.88H357.4z"/>
		</g>
		<line class="st2" x1="233.58" y1="228.42" x2="391.65" y2="228.42"/>
		<g>
			
				<rect x="493.2" y="49.42" transform="matrix(-1 -1.224647e-16 1.224647e-16 -1 1003.8487 116.2993)" class="st14" width="17.45" height="17.45"/>
			
				<rect x="516.05" y="49.42" transform="matrix(-1 -1.224647e-16 1.224647e-16 -1 1049.5452 116.2993)" class="st14" width="17.45" height="17.45"/>
			<polyline class="st15" points="496.94,56.33 499.92,62.29 508.68,52.65 			"/>
		</g>
		<g>
			
				<rect x="229.01" y="305.45" transform="matrix(-1 -1.224647e-16 1.224647e-16 -1 475.4804 628.3577)" class="st14" width="17.45" height="17.45"/>
			
				<rect x="251.86" y="305.45" transform="matrix(-1 -1.224647e-16 1.224647e-16 -1 521.1768 628.3577)" class="st14" width="17.45" height="17.45"/>
			<polyline class="st15" points="232.76,312.35 235.74,318.31 244.5,308.68 			"/>
		</g>
		<g>
			
				<rect x="311.69" y="305.45" transform="matrix(-1 -1.224647e-16 1.224647e-16 -1 640.8365 628.3577)" class="st14" width="17.45" height="17.45"/>
			
				<rect x="334.54" y="305.45" transform="matrix(-1 -1.224647e-16 1.224647e-16 -1 686.5329 628.3577)" class="st14" width="17.45" height="17.45"/>
			<polyline class="st15" points="315.44,312.35 318.42,318.31 327.17,308.68 			"/>
		</g>
		<g class="st8">
			
				<ellipse transform="matrix(0.9872 -0.1596 0.1596 0.9872 -3.1974 54.3694)" class="st16" cx="336.97" cy="47.1" rx="11.2" ry="11.2"/>
			<polyline class="st16" points="340.1,51.14 336.97,47.1 336.97,40.72 			"/>
		</g>
		<g class="st8">
			<g>
				<path d="M546.02,261.93h-1.66l-0.28-1.9h-2.02l-0.28,1.9h-1.51l1.67-10.45h2.4L546.02,261.93z M542.28,258.61h1.58l-0.79-5.28
					L542.28,258.61z"/>
			</g>
			<g>
				<path d="M569.38,253.88v0.37c0,1.07-0.33,1.76-1.06,2.1c0.88,0.34,1.22,1.13,1.22,2.24v0.85c0,1.61-0.85,2.48-2.49,2.48h-2.58
					v-10.45h2.48C568.65,251.48,569.38,252.27,569.38,253.88z M566.12,252.97v2.76h0.64c0.61,0,0.99-0.27,0.99-1.1v-0.58
					c0-0.75-0.25-1.07-0.84-1.07H566.12z M566.12,257.22v3.21h0.94c0.55,0,0.85-0.25,0.85-1.03v-0.91c0-0.97-0.31-1.27-1.06-1.27
					H566.12z"/>
			</g>
			<g>
				<path d="M593.03,258.03v1.39c0,1.67-0.84,2.63-2.45,2.63c-1.61,0-2.45-0.96-2.45-2.63v-5.43c0-1.67,0.84-2.63,2.45-2.63
					c1.61,0,2.45,0.96,2.45,2.63V255h-1.55v-1.12c0-0.75-0.33-1.03-0.85-1.03c-0.52,0-0.85,0.28-0.85,1.03v5.64
					c0,0.75,0.33,1.02,0.85,1.02c0.52,0,0.85-0.27,0.85-1.02v-1.49H593.03z"/>
			</g>
			<rect x="536.61" y="267.62" class="st9" width="12.69" height="12.69"/>
			<rect x="560.21" y="267.62" class="st9" width="12.69" height="12.69"/>
			<rect x="583.81" y="267.62" class="st9" width="12.69" height="12.69"/>
		</g>
		<g>
			<g>
				<path class="st17" d="M495.7,414.32l5.74-87.21l4.23-41.46l-11.62-12.94l-5.81-4.23c0,0-8.19,7.13-14,8.72
					c-5.81,1.58-11.36,3.17-11.36,3.17s-19.81,37.24-21.39,54.14c-1.58,16.9-4.23,79.49-4.23,79.49l2.2,0.32H495.7z"/>
				<path class="st18" d="M468.48,342.42c0,0-0.99-0.51,0.99-5.61"/>
				<path class="st10" d="M466.15,279.45c0,0,1.63,11.15,1.63,21.25c0,0,5.94-2.38,10.7-10.7c4.76-8.32,6.75-13.96,6.75-13.96
					L466.15,279.45z"/>
				<path class="st17" d="M495.7,414.32l5.16-78.41c-5.06,2.58-15.06,6.86-26.09,7.04c-13.22,0.22-29.58-10.04-29.58-10.04
					l-3.68,1.44c0,0.05-0.01,0.1-0.02,0.14c-1.58,16.9-4.23,79.49-4.23,79.49l2.2,0.32H495.7z"/>
			</g>
			<g>
				<path class="st19" d="M487.13,370.45c0,20.2,0.69,39.63,0.86,43.87h38.93c0.54-6.3,3.89-45.44,5.61-59.53
					c1.88-15.34,14.22-38.19,14.22-46.33c0-8.14,2.5-6.89-8.77-12.84c-11.27-5.95-36.14-18.79-39.58-20.35
					c-3.44-1.57-7.2-5.32-7.2-5.32s1.25,7.83,0.94,29.12C491.83,320.35,487.13,347.59,487.13,370.45z"/>
				<g class="st20">
					<path d="M491.2,269.95c0,0,0.52,3.23,0.8,11.16v-10.41C491.51,270.25,491.2,269.95,491.2,269.95z"/>
					<path d="M542.39,320.91v2.69c0.31-0.8,0.61-1.6,0.89-2.37v-0.32h0.12c0.11-0.3,0.22-0.6,0.33-0.89h-0.44v-11.15h3.45
						c0.01-0.14,0.02-0.28,0.02-0.41c0-0.17,0-0.32,0-0.48h-3.48v-9.48c-0.28-0.16-0.57-0.33-0.89-0.51v9.99h-9.36v-11.15h7.24
						c-0.52-0.28-1.08-0.57-1.68-0.89h-5.56v-2.92c-0.29-0.15-0.59-0.31-0.89-0.47v3.39h-9.36v-8.26c-0.3-0.15-0.59-0.31-0.89-0.46
						v8.72h-9.36V284.8h4.67c-0.58-0.3-1.16-0.6-1.73-0.89h-2.94v-1.51c-0.3-0.15-0.6-0.31-0.89-0.46v1.97h-9.36v-6.74
						c-0.31-0.16-0.61-0.31-0.89-0.45v7.18h-9.28c0.01,0.29,0.01,0.59,0.02,0.89h9.26v11.15h-9.19c0,0.3,0,0.59-0.01,0.89h9.2v11.15
						h-9.36v-4.23c-0.18,4.34-0.5,8.89-0.89,13.56v2.71h-0.23c-0.03,0.3-0.05,0.59-0.08,0.89h0.31v11.15h-1.38
						c-0.03,0.3-0.06,0.59-0.09,0.89h1.47v11.15h-2.54c-0.03,0.3-0.05,0.59-0.08,0.89h2.61v11.15h-3.47
						c-0.02,0.3-0.04,0.6-0.06,0.89h3.53v11.15h-3.95c0,0.3-0.01,0.6-0.01,0.89h3.96v11.15h-3.93c0,0.3,0.01,0.6,0.01,0.89h3.92
						v11.15h-3.75c0.01,0.3,0.01,0.6,0.02,0.89h3.73v21.18h0.89v-21.18h9.36v21.18h0.89v-21.18h9.36v21.18h0.89v-21.18h9.36v21.18
						h0.89v-21.18h6c0.03-0.3,0.05-0.59,0.08-0.89h-6.08V381.1h7.09c0.03-0.3,0.06-0.59,0.08-0.89h-7.18v-11.15h8.24
						c0.03-0.3,0.06-0.59,0.09-0.89h-8.33v-11.15h9.36v1.18c0.14-1.25,0.27-2.4,0.4-3.41c0.12-1,0.29-2.03,0.5-3.09v-6.72h1.67
						c0.09-0.3,0.17-0.59,0.26-0.89h-1.94v-11.15h5.79c0.11-0.3,0.22-0.6,0.34-0.89h-6.13v-11.15H542.39z M533.03,308.87h9.36v11.15
						h-9.36V308.87z M501.37,392.25h-9.36V381.1h9.36V392.25z M501.37,380.21h-9.36v-11.15h9.36V380.21z M501.37,368.17h-9.36
						v-11.15h9.36V368.17z M501.37,356.13h-9.36v-11.15h9.36V356.13z M501.37,344.1h-9.36v-11.15h9.36V344.1z M501.37,332.06h-9.36
						v-11.15h9.36V332.06z M501.37,320.02h-9.36v-11.15h9.36V320.02z M511.62,392.25h-9.36V381.1h9.36V392.25z M511.62,380.21h-9.36
						v-11.15h9.36V380.21z M511.62,368.17h-9.36v-11.15h9.36V368.17z M511.62,356.13h-9.36v-11.15h9.36V356.13z M511.62,344.1h-9.36
						v-11.15h9.36V344.1z M511.62,332.06h-9.36v-11.15h9.36V332.06z M511.62,320.02h-9.36v-11.15h9.36V320.02z M511.62,307.98h-9.36
						v-11.15h9.36V307.98z M511.62,295.94h-9.36V284.8h9.36V295.94z M521.88,392.25h-9.36V381.1h9.36V392.25z M521.88,380.21h-9.36
						v-11.15h9.36V380.21z M521.88,368.17h-9.36v-11.15h9.36V368.17z M521.88,356.13h-9.36v-11.15h9.36V356.13z M521.88,344.1h-9.36
						v-11.15h9.36V344.1z M521.88,332.06h-9.36v-11.15h9.36V332.06z M521.88,320.02h-9.36v-11.15h9.36V320.02z M521.88,307.98h-9.36
						v-11.15h9.36V307.98z M532.13,356.13h-9.36v-11.15h9.36V356.13z M532.13,344.1h-9.36v-11.15h9.36V344.1z M532.13,332.06h-9.36
						v-11.15h9.36V332.06z M532.13,320.02h-9.36v-11.15h9.36V320.02z M532.13,307.98h-9.36v-11.15h9.36V307.98z"/>
				</g>
				<path class="st18" d="M487.13,370.45c0,20.2,0.69,39.63,0.86,43.87h38.93c0.54-6.3,3.89-45.44,5.61-59.53
					c1.88-15.34,14.22-38.19,14.22-46.33c0-8.14,2.5-6.89-8.77-12.84c-11.27-5.95-36.14-18.79-39.58-20.35
					c-3.44-1.57-7.2-5.32-7.2-5.32s1.25,7.83,0.94,29.12C491.83,320.35,487.13,347.59,487.13,370.45z"/>
				<path class="st10" d="M491.2,269.95c0,0,1.25,7.83,0.94,29.12c-0.08,5.37-0.44,11.12-0.93,17.08c1.07-1.47,4.52-6.17,5.31-6.44
					c0.94-0.31,5.95,4.38,10.02,5.01c4.07,0.63,5.64,0.63,1.25-4.07s-6.26-18.47-7.83-28.8c-0.44-2.89-0.95-4.99-1.46-6.53
					c-0.03-0.01-0.08-0.03-0.11-0.05C494.96,273.71,491.2,269.95,491.2,269.95z"/>
				<g>
					<path class="st18" d="M516.9,366.79c2.88-1.31,5.15-2.44,5.15-2.44l1.06,8.19c0,0-15.58,6.87-24.3,7.39
						c-8.72,0.53-9.51,0.79-9.51,0.79l0.26-7.92"/>
					<path class="st18" d="M509.09,369.98c1.6-0.53,3.47-1.29,5.29-2.08"/>
					<path class="st18" d="M492.46,372c0,0,8.11-0.19,13.6-1.24"/>
					<line class="st18" x1="523.1" y1="372.53" x2="523.63" y2="378.87"/>
				</g>
			</g>
			<g>
				<path class="st19" d="M403.63,414.32h43.8c0.1-3.43,1.37-47.07,2.22-69.33c0.89-23.18,16.63-58.35,16.63-58.35
					s2.1-4.96-0.13-7.19c-2.23-2.23-7.58-1.34-11.59,1.78c-4.01,3.12-41.02,19.17-43.25,21.4c-2.23,2.23-1.78,9.81-2.68,18.73
					c-0.89,8.92-15.61,70.45-15.61,70.45s-4.01,0.89-5.35,1.78c-1.34,0.89-1.34,3.57-1.34,3.57s1.78,0.45,7.13,3.12
					C398.39,402.73,402.93,412.72,403.63,414.32z"/>
				<path class="st20" d="M460.35,296.83v4.55c0.3-0.82,0.6-1.61,0.89-2.38v-2.17h0.83c0.12-0.3,0.23-0.6,0.35-0.89h-1.18V284.8
					h5.62c0.07-0.28,0.13-0.58,0.18-0.89h-5.8v-5.6c-0.29,0.04-0.59,0.09-0.89,0.16v5.44h-9.36v-0.61c-0.28,0.15-0.58,0.3-0.89,0.46
					v0.15h-0.3c-0.56,0.28-1.16,0.58-1.78,0.89h2.09v11.15h-9.36v-7.65c-0.3,0.14-0.59,0.28-0.89,0.42v7.23h-9.36v-2.85
					c-0.3,0.14-0.6,0.28-0.89,0.42v2.43h-5.18c-0.64,0.3-1.27,0.6-1.89,0.89h7.07v11.15h-9.36v-10.06c-0.3,0.14-0.6,0.29-0.89,0.43
					v9.63h-9.36v-2.25c-0.51,2.42-0.65,5.84-0.89,9.81v4.47h-0.32c-0.03,0.3-0.05,0.59-0.08,0.89h0.4v11.15h-2.4
					c-0.06,0.29-0.12,0.59-0.19,0.89h2.59v11.15h-5c-0.07,0.3-0.13,0.59-0.2,0.89h5.2v11.15h-7.71c-0.07,0.3-0.14,0.59-0.2,0.89
					h7.92v11.15h-9.36v-4.86c-0.3,1.3-0.6,2.59-0.89,3.85v1.01h-0.23c-0.07,0.3-0.14,0.6-0.21,0.89h0.44v11.15h-3.05
					c-0.07,0.3-0.14,0.6-0.21,0.89h3.26v11.15h-7.57c-0.87,0.24-1.9,0.55-2.7,0.89h0.02v4.85c0.27,0.11,0.56,0.24,0.89,0.38v-5.23
					h9.36v12.47c0.31,0.44,0.6,0.89,0.89,1.35v-13.82h9.36v21.18h0.89v-21.18h9.36v21.18h0.89v-21.18h9.36v21.18h0.89v-21.18h9.36
					v21.18h0.89v-21.18h7.32c0.01-0.29,0.02-0.59,0.03-0.89h-7.35V381.1h7.7c0.01-0.3,0.02-0.59,0.03-0.89h-7.72v-11.15h8.08
					c0.01-0.3,0.02-0.59,0.03-0.89h-8.11v-11.15h8.48c0.01-0.3,0.02-0.6,0.03-0.89h-8.51v-11.15h8.92c0.01-0.29,0.03-0.59,0.04-0.89
					h-8.96v-11.15h9.36v6.58c0.23-1.9,0.53-3.85,0.89-5.83v-0.76h0.14c0.06-0.3,0.11-0.59,0.17-0.89h-0.31v-11.15h2.99
					c0.08-0.3,0.17-0.6,0.25-0.89h-3.24v-11.15h6.71c0.1-0.3,0.2-0.6,0.3-0.89h-7.01v-11.15H460.35z M450.99,284.8h9.36v11.15h-9.36
					V284.8z M409.08,392.25h-9.36V381.1h9.36V392.25z M409.08,380.21h-9.36v-11.15h9.36V380.21z M419.33,392.25h-9.36V381.1h9.36
					V392.25z M419.33,380.21h-9.36v-11.15h9.36V380.21z M419.33,368.17h-9.36v-11.15h9.36V368.17z M419.33,356.13h-9.36v-11.15h9.36
					V356.13z M419.33,344.1h-9.36v-11.15h9.36V344.1z M419.33,332.06h-9.36v-11.15h9.36V332.06z M419.33,320.02h-9.36v-11.15h9.36
					V320.02z M429.59,392.25h-9.36V381.1h9.36V392.25z M429.59,380.21h-9.36v-11.15h9.36V380.21z M429.59,368.17h-9.36v-11.15h9.36
					V368.17z M429.59,356.13h-9.36v-11.15h9.36V356.13z M429.59,344.1h-9.36v-11.15h9.36V344.1z M429.59,332.06h-9.36v-11.15h9.36
					V332.06z M429.59,320.02h-9.36v-11.15h9.36V320.02z M439.84,392.25h-9.36V381.1h9.36V392.25z M439.84,380.21h-9.36v-11.15h9.36
					V380.21z M439.84,368.17h-9.36v-11.15h9.36V368.17z M439.84,356.13h-9.36v-11.15h9.36V356.13z M439.84,344.1h-9.36v-11.15h9.36
					V344.1z M439.84,332.06h-9.36v-11.15h9.36V332.06z M439.84,320.02h-9.36v-11.15h9.36V320.02z M439.84,307.98h-9.36v-11.15h9.36
					V307.98z M450.1,332.06h-9.36v-11.15h9.36V332.06z M450.1,320.02h-9.36v-11.15h9.36V320.02z M450.1,307.98h-9.36v-11.15h9.36
					V307.98z"/>
				<path class="st18" d="M403.63,414.32h43.8c0.1-3.43,1.37-47.07,2.22-69.33c0.89-23.18,16.63-58.35,16.63-58.35
					s2.1-4.96-0.13-7.19c-2.23-2.23-7.58-1.34-11.59,1.78c-4.01,3.12-41.02,19.17-43.25,21.4c-2.23,2.23-1.78,9.81-2.68,18.73
					c-0.89,8.92-15.61,70.45-15.61,70.45s-4.01,0.89-5.35,1.78c-1.34,0.89-1.34,3.57-1.34,3.57s1.78,0.45,7.13,3.12
					C398.39,402.73,402.93,412.72,403.63,414.32z"/>
				<path class="st10" d="M386.34,397.15c0,0,1.78,0.45,7.13,3.12s10.25,14.27,10.25,14.27h8.64c0.54-1.62,1.87-7.53-4.18-14.71
					c-7.13-8.47-15.16-8.03-15.16-8.03s-4.01,0.89-5.35,1.78C386.34,394.48,386.34,397.15,386.34,397.15z"/>
				<path class="st10" d="M460.76,278.38c-1.92,5.07-6.46,16.55-10.22,22.02c-4.9,7.13-13.82,12.93-10.7,15.61
					c3.12,2.68,12.04-5.8,12.04-5.8s2.23,6.24,2.68,8.03c0.02,0.07,0.06,0.15,0.12,0.22c4.9-16.85,11.6-31.83,11.6-31.83
					s2.1-4.96-0.13-7.19C464.99,278.29,462.98,277.98,460.76,278.38z"/>
				<path class="st18" d="M428.2,321.43c0.31-2.31,0.5-4.05,0.5-4.97"/>
				<path class="st18" d="M421.11,415.43c0,0,1.34-28.53,1.34-45.03c0-11.89,3.24-31.88,5.05-44.12"/>
				<path class="st18" d="M423.34,364.16c0,0,7.13,2.23,10.7,2.68c3.57,0.45,10.7,1.34,10.7,1.34l-0.81,10.1
					c0,0-0.52-0.29-8.55-2.97c-8.03-2.68-12.93-4.9-12.93-4.9"/>
				<path class="st18" d="M443.93,378.27c0,0-0.52,19.77-0.52,22.45s-8.03,0.89-8.03,0.89"/>
			</g>
			<g>
				<path class="st21" d="M450.34,268.97c0,0,8.41,12.09,15.94,17.67s13.94-2.23,18.96-10.6c5.02-8.36,8.36-14.5,10.87-21.75
					c2.51-7.25,0-19.24-10.04-28.72c-10.04-9.48-33.46-23.42-39.31-16.17c-5.86,7.25-11.43,23.14-7.53,36.81
					C443.13,259.87,450.34,268.97,450.34,268.97z"/>
				<path class="st22" d="M446.8,242.96c0,0,4.69-1.63,9.73,0"/>
				<path class="st6" d="M453.99,250.42c0.26,1.45-0.07,2.72-0.76,2.85c-0.68,0.12-1.45-0.95-1.71-2.4
					c-0.26-1.45,0.07-2.72,0.76-2.85C452.96,247.9,453.73,248.97,453.99,250.42z"/>
				<path class="st6" d="M478.8,250.8c0.26,1.45-0.07,2.72-0.76,2.85c-0.68,0.12-1.45-0.95-1.71-2.4c-0.26-1.45,0.07-2.72,0.76-2.85
					C477.77,248.28,478.53,249.35,478.8,250.8z"/>
				<path class="st18" d="M460.42,270.46c0,0,4.18,1.67,10.04,1.39c5.86-0.28,10.87-4.46,10.87-4.46"/>
				<path class="st5" d="M447.63,215.56c0,0,12.38,28.25,13.93,29.03c1.55,0.77,4.64-8.51,4.64-8.51s4.26,7.74,9.29,10.06
					c5.03,2.32,6.58-1.55,6.58-1.55s5.42,3.1,7.35,4.64c1.94,1.55,1.94,1.55,1.94,1.55l1.93,6.97c0,0-5.81,18.96-3.87,21.29
					c1.94,2.32,12.77-0.77,12.77-0.77s-2.71,3.87,0.77,3.87c3.48,0,9.68,0.77,18.58-11.22c8.9-12,9.68-31.35,9.68-31.35
					s4.26,4.64,4.64-1.16c0.39-5.81-5.03-15.48-5.03-15.48s8.51,8.51,7.74-0.39c-0.77-8.9-5.81-18.96-7.74-21.29
					c-1.94-2.32-13.55-8.9-13.55-8.9s4.64-0.77,1.16-6.19c-3.48-5.42-16.25-6.97-20.9-6.97c-4.64,0-14.32,1.55-14.32,1.55
					s6.19-12-0.39-12.77c-6.58-0.77-18.19,12-18.19,12s-11.61-9.29-15.09-7.35c-3.48,1.94-1.16,4.64-1.16,4.64
					s-15.09,1.16-19.35,7.74c-4.26,6.58,0.77,10.45,0.77,10.45s-27.09,18.58-22.83,25.54c4.26,6.97,12,0.39,12,0.39
					s-10.84,27.86-9.29,29.8c1.55,1.94,8.9-0.77,8.9-0.77s-0.39,22.45,5.42,24.77c5.81,2.32,6.97-1.94,6.97-1.94s3.1,3.1,10.06,3.48
					c6.97,0.39,9.29-7.74,9.29-7.74s-7.74-18.19-7.35-33.28C443.37,220.59,447.63,215.56,447.63,215.56z"/>
				<g>
					<path class="st23" d="M463.21,248.16c0,0-2.79,14.5-0.56,17.57c2.23,3.07,10.04,0,10.6-1.67L463.21,248.16z"/>
					<ellipse class="st18" cx="451.64" cy="248.99" rx="11.01" ry="8.09"/>
					<ellipse class="st18" cx="478.13" cy="248.44" rx="11.01" ry="8.09"/>
					<path class="st18" d="M463.21,248.16c0,0,2.23-1.67,3.9,0.28"/>
				</g>
			</g>
			<g>
				<path class="st24" d="M371.45,402.45c0,0,14-3.95,18.31-4.67c4.31-0.72,12.93,7.18,14.36,11.49c1.44,4.31-0.4,5.27-0.4,5.27
					l-28.68-0.96L371.45,402.45z"/>
				<g>
					<path class="st24" d="M376.52,401.05c0,0,10.56,3.96,13.21,5.55c2.64,1.58,1.85,4.75,0.26,6.34c-1.58,1.58-5.55,3.17-6.6,3.17
						c-1.06,0-4.23,0.26-7.39,0s-6.07,0.26-8.72,0.26c-2.64,0-10.56-0.79-10.56-0.79l-2.38-1.58c0,0-4.49,1.32-7.92,2.64
						c-3.43,1.32-2.38-1.58,0.26-3.7c2.64-2.11,9.24-7.39,10.3-7.92c1.06-0.53,14.53-4.49,14.53-4.49L376.52,401.05z"/>
					<path class="st24" d="M380.48,402.11c0,0-6.87-3.17-8.72-3.17c-1.85,0-15.05,4.49-16.9,5.81c-1.85,1.32-3.7,14-2.38,14.79
						c1.32,0.79,2.38-1.58,2.64-3.17c0.26-1.58,3.96-10.04,3.96-10.04l-2.64,13.47c0,0,1.06,2.11,2.11,0.26
						c1.06-1.85,7.66-14.53,8.19-15.32c0.53-0.79,2.38-1.85,2.38-1.85s-1.32,5.81-2.38,11.36c-1.06,5.55-0.26,7.13,1.32,7.39
						c1.58,0.26,2.38-3.43,3.17-5.28c0.79-1.85,4.23-12.41,4.23-12.41"/>
					<path class="st24" d="M388.14,407.39c0,0-7.92,8.19-8.98,10.04s-1.06,2.11,1.85,2.11s11.88-5.81,12.68-6.6
						c0.79-0.79,0.53-3.17-1.32-4.75C390.52,406.6,388.14,407.39,388.14,407.39z"/>
				</g>
			</g>
			<g>
				<g>
					<path class="st24" d="M437.58,406.48c0,0-10.56,3.41-13.16,5.36c-2.6,1.95-6.34,4.06-5.53,4.71c0.81,0.65,3.41,0,4.23-0.65
						c0.81-0.65,4.55-1.3,4.55-1.3s4.39-2.6,7.8-4.71C438.88,407.78,441.48,405.51,437.58,406.48z"/>
					<path class="st24" d="M495.9,388.6c0,0-29.43,5.32-40.07,9.08c-10.64,3.76-14.88,6.35-20.2,10.1
						c-5.32,3.76-16.11,10.87-14.55,12.13c1.57,1.25,7.2-3.13,8.14-4.07c0.94-0.94,7.83-3.76,7.83-3.76l4.6-2.35
						c0,0-6.92,8.54-9.43,10.73c-2.5,2.19-0.81,3.52,1.07,2.89c1.88-0.63,5.43-4.35,5.43-4.35l11.48-7.54c0,0-4.7,6.57-6.89,8.45
						c-2.19,1.88,2.5,3.44,3.44,1.88c0.94-1.57,5.64-5.64,5.64-5.64s7.83-4.07,9.71-5.64c1.88-1.57,6.57-5.95,6.57-5.95l35.06,2.82
						c0,0,2.19-1.25,0.94-8.45C503.41,391.73,495.9,388.6,495.9,388.6z"/>
				</g>
				<g>
					<path class="st19" d="M519.69,333.19l17.22,42.58l-27.86,9.71l7.83,22.85c0,0,20.01,0.05,35.66-0.89
						c15.65-0.94,26.64-10.38,24.14-21.66c-2.5-11.27-11.9-27.55-19.41-46.96c-7.51-19.41-5.19-30.99-8.63-36.94
						c-3.44-5.95-13.15-7.51-13.15-7.51l-5.32-0.94"/>
					<path class="st25" d="M574.04,397.63v-4.49h2.33c0.09-0.29,0.18-0.59,0.25-0.89h-2.58V381.1h1.3c-0.1-0.29-0.21-0.59-0.31-0.89
						h-0.99v-2.73c-0.28-0.74-0.58-1.49-0.89-2.26v4.98h-9.36v-11.15h6.72c-0.13-0.3-0.26-0.59-0.4-0.89h-6.33v-11.15h1.25
						c-0.14-0.3-0.27-0.59-0.41-0.89h-0.84v-1.86c-0.3-0.66-0.59-1.32-0.89-1.99v3.85h-9.36v-11.15h6.22
						c-0.12-0.3-0.25-0.59-0.37-0.89h-5.85v-11.15h1.67c-0.09-0.3-0.19-0.6-0.28-0.89h-1.39V327c-0.34-1.41-0.64-2.76-0.89-4.05
						v9.11h-9.36v-11.15h8.99c-0.05-0.3-0.11-0.6-0.15-0.89h-8.83v-11.15h7.32c-0.04-0.3-0.09-0.6-0.14-0.89h-7.18v-10.91
						c-0.81-0.44-1.62-0.81-2.41-1.13h-7.84v-2l-0.89-0.16v2.16h-2.63l-0.23,0.89h2.87v11.15h-5.8l-0.23,0.89h6.04v11.15h-8.97
						l-0.23,0.89h9.21v11.15h-9.36V321.5l-0.89,3.39v7.17h-1.89l-0.23,0.89h2.12v5.64l0.89,2.2v-7.85h9.36v11.15h-8.03l0.36,0.89
						h7.67v11.15h-3.16l0.36,0.89h2.8v6.92l0.89,2.21v-9.13h9.36v11.15h-8.55l0.36,0.89h8.19v11.15h-9.36v-3.09l-0.89,0.31v2.78
						h-7.98l-2.56,0.89h0.28v11.15h-9.36v-7.98l-0.89,0.31v7.67h-0.25l1.15,3.35v-2.45h9.36v15.17c0.29,0,0.59,0,0.89-0.01v-15.16
						h9.36v15.04c0.3-0.01,0.59-0.01,0.89-0.02v-15.02h9.36v14.77c0.3-0.01,0.59-0.02,0.89-0.03v-14.74h9.36v14.29
						c0.3-0.02,0.6-0.04,0.89-0.07v-14.22h9.36v12.23c0.3-0.11,0.6-0.22,0.89-0.34v-11.9h9.36v5.6
						C573.47,398.38,573.76,398.01,574.04,397.63z M532.13,392.25h-9.36V381.1h9.36V392.25z M542.39,392.25h-9.36V381.1h9.36V392.25
						z M542.39,356.13h-9.36v-11.15h9.36V356.13z M542.39,344.1h-9.36v-11.15h9.36V344.1z M542.39,332.06h-9.36v-11.15h9.36V332.06z
						 M542.39,320.02h-9.36v-11.15h9.36V320.02z M542.39,307.98h-9.36v-11.15h9.36V307.98z M552.64,392.25h-9.36V381.1h9.36V392.25z
						 M552.64,380.21h-9.36v-11.15h9.36V380.21z M552.64,368.17h-9.36v-11.15h9.36V368.17z M552.64,356.13h-9.36v-11.15h9.36V356.13
						z M552.64,344.1h-9.36v-11.15h9.36V344.1z M562.9,392.25h-9.36V381.1h9.36V392.25z M562.9,380.21h-9.36v-11.15h9.36V380.21z
						 M562.9,368.17h-9.36v-11.15h9.36V368.17z M563.79,392.25V381.1h9.36v11.15H563.79z"/>
					<path class="st18" d="M519.69,333.19l17.22,42.58l-27.86,9.71l7.83,22.85c0,0,20.01,0.05,35.66-0.89
						c15.65-0.94,26.64-10.38,24.14-21.66c-2.5-11.27-11.9-27.55-19.41-46.96c-7.51-19.41-5.19-30.99-8.63-36.94
						c-3.44-5.95-13.15-7.51-13.15-7.51l-5.32-0.94"/>
					<path class="st18" d="M553.68,371.44c-7.76,1.27-16.77,4.33-16.77,4.33s11.9-7.83,18.47-8.45"/>
					<path class="st18" d="M561.65,371.07c-1.05-0.18-2.32-0.21-3.72-0.13"/>
					<path class="st10" d="M517.19,382.03c0,0,6.33,6.05,8.2,10.75c1.88,4.7,1.19,17.43-0.07,18.68c-1.25,1.25-24.55,1.1-28.39-3.7
						c-1-1.25,5.84-4.13,2.4-11.02c-3.44-6.89-5.01-7.51-5.01-7.51s-2.82-1.57,2.5-5.01C502.16,380.78,514.37,378.27,517.19,382.03z
						"/>
				</g>
			</g>
		</g>
		<g>
			<g>
				<polygon class="st26" points="572.7,430.29 549.59,430.29 546.7,384.61 575.59,384.61 				"/>
				<g>
					<rect x="545.42" y="384.67" class="st27" width="31.45" height="6.65"/>
					<polygon class="st27" points="576.87,384.93 545.42,384.93 548.56,380.99 573.72,380.99 					"/>
				</g>
			</g>
			<polygon class="st27" points="573.55,416.89 574.7,398.69 547.59,398.69 548.74,416.89 			"/>
		</g>
		<g>
			<g>
				<g>
					<polygon class="st26" points="439.51,433.34 467.98,425.81 467.98,429.66 439.51,437.65 					"/>
					<polygon class="st27" points="467.98,425.81 319.08,425.81 290.29,433.34 439.51,433.34 					"/>
				</g>
				<rect x="290.29" y="347.29" class="st27" width="149.21" height="90.36"/>
				<path class="st5" d="M439.51,360.36c-32.46,1.54-51.8,31.46-80.51,51.51c-26.18,18.28-58.51,21.37-68.7,21.89v3.89h149.21
					V360.36z"/>
			</g>
			<rect x="290.29" y="433.34" class="st17" width="149.21" height="4.31"/>
		</g>
	</g>
</g>
</svg>
