<svg id="Group_18087" data-name="Group 18087" xmlns="http://www.w3.org/2000/svg" xmlns:xlink="http://www.w3.org/1999/xlink" width="33.386" height="35" viewBox="0 0 33.386 35">
  <defs>
    <clipPath id="clip-path">
      <rect id="Rectangle_5036" data-name="Rectangle 5036" width="33.386" height="35" fill="none"/>
    </clipPath>
  </defs>
  <rect id="Rectangle_5033" data-name="Rectangle 5033" width="25.757" height="33.446" transform="translate(0.559 0.777)" fill="#ffc960"/>
  <g id="Group_16308" data-name="Group 16308">
    <g id="Group_16307" data-name="Group 16307" clip-path="url(#clip-path)">
      <path id="Path_24188" data-name="Path 24188" d="M67.033,56.213,63.853,42.825a1.782,1.782,0,1,0-3.47.819l1.071,4.939.007.34A7.255,7.255,0,0,0,63.585,53.9l.207.207.972,2.917Z" transform="translate(-40.783 -28.018)" fill="#ffaa4c"/>
      <rect id="Rectangle_5034" data-name="Rectangle 5034" width="7.933" height="2.268" transform="translate(24.461 28.321) rotate(-16.404)" fill="#74aaff"/>
      <path id="Path_24189" data-name="Path 24189" d="M72,90.211a.6.6,0,0,1-.788-.384l-1.023-3.259a.719.719,0,0,1,.487-.893l.936-.275a.719.719,0,0,1,.893.487L74,89.462Z" transform="translate(-47.424 -57.703)" fill="#ffaa4c"/>
      <rect id="Rectangle_5035" data-name="Rectangle 5035" width="1.788" height="2.268" transform="translate(24.461 28.321) rotate(-16.402)" fill="#4f88ff"/>
      <path id="Path_24190" data-name="Path 24190" d="M74.922,40.972l-.324-1.3.866-5.409a7.137,7.137,0,0,0-1.044-4.987L70.06,22.5V34.167a1.049,1.049,0,0,1-1.418-.731l-.789-3.744a1.782,1.782,0,1,0-3.47.819l1.071,4.939.007.34a7.255,7.255,0,0,0,2.123,4.977l.207.207.648,1.944Z" transform="translate(-43.486 -15.208)" fill="#ffbfb4"/>
      <path id="Path_24191" data-name="Path 24191" d="M82,35.667V24l1.3,2.269v8.1a1.3,1.3,0,0,1-1.3,1.3" transform="translate(-55.426 -16.222)" fill="#ff9f91"/>
      <path id="Path_24192" data-name="Path 24192" d="M34.856,18.972H24.486a.486.486,0,0,1,0-.972h10.37a.486.486,0,0,1,0,.972" transform="translate(-16.222 -12.167)" fill="#ffaa4c"/>
      <path id="Path_24193" data-name="Path 24193" d="M31.338,29.972H14.486a.486.486,0,0,1,0-.972H31.338a.486.486,0,0,1,0,.972" transform="translate(-9.463 -19.602)" fill="#ffaa4c"/>
      <path id="Path_24194" data-name="Path 24194" d="M30.366,40.972H14.486a.486.486,0,0,1,0-.972h15.88a.486.486,0,1,1,0,.972" transform="translate(-9.463 -27.037)" fill="#ffaa4c"/>
      <path id="Path_24195" data-name="Path 24195" d="M22.722,66.422l-2.1-4.2c.342-.062.709-.1.878-.331.267-.367-.091-1.069.052-1.51.138-.426.845-.78.845-1.252s-.707-.826-.845-1.252c-.144-.441.215-1.143-.052-1.51s-1.05-.245-1.421-.515-.487-1.049-.928-1.193c-.426-.138-.981.419-1.453.419s-1.027-.558-1.452-.419c-.441.143-.561.925-.928,1.193s-1.151.144-1.421.515.091,1.069-.052,1.51c-.138.426-.845.78-.845,1.252s.707.826.845,1.252c.144.441-.215,1.143.052,1.51s1.05.245,1.421.515c.009.008-1.994,4.014-1.994,4.014l3.33.908,1.434-3.457,1.42,3.457Z" transform="translate(-8.787 -36.931)" fill="#ff5f5f"/>
      <path id="Path_24196" data-name="Path 24196" d="M24.509,62.755A2.755,2.755,0,1,1,21.755,60a2.755,2.755,0,0,1,2.755,2.755" transform="translate(-12.843 -40.556)" fill="#e23b3b"/>
      <path id="Path_24197" data-name="Path 24197" d="M18,80.62l2.917.972.648-1.944-1.17.39a1.133,1.133,0,0,1-1.264-.4L18.648,79Z" transform="translate(-12.167 -53.398)" fill="#e23b3b"/>
      <path id="Path_24198" data-name="Path 24198" d="M28.831,80.562,31.8,79.477,30.877,78l-1.3,1.3-1.16-.188Z" transform="translate(-19.211 -52.722)" fill="#e23b3b"/>
      <path id="Path_24199" data-name="Path 24199" d="M25.565,64.782A1.782,1.782,0,1,1,23.782,63a1.782,1.782,0,0,1,1.782,1.782" transform="translate(-14.87 -42.583)" fill="#ff5f5f"/>
    </g>
  </g>
  <g id="Group_16310" data-name="Group 16310">
    <g id="Group_16309" data-name="Group 16309" clip-path="url(#clip-path)">
      <path id="Path_24200" data-name="Path 24200" d="M26.412,35H.486A.486.486,0,0,1,0,34.514V.486A.486.486,0,0,1,.486,0H26.412A.486.486,0,0,1,26.9.486V18.634a.486.486,0,0,1-.972,0V.972H.972V34.028H25.926V30.949a.486.486,0,0,1,.972,0v3.565a.486.486,0,0,1-.486.486" fill="#252d32"/>
      <path id="Path_24201" data-name="Path 24201" d="M66.924,54.523a.487.487,0,0,1-.461-.332l-.612-1.836-.125-.126a7.7,7.7,0,0,1-2.265-5.31l-.006-.293-1.061-4.893A2.268,2.268,0,0,1,66.811,40.7l.792,3.756a.55.55,0,0,0,.287.36.557.557,0,0,0,.472.021.486.486,0,0,1,.367.9,1.535,1.535,0,0,1-2.074-1.07l-.791-3.755a1.3,1.3,0,0,0-2.521.607l1.073,4.948a.489.489,0,0,1,.011.092l.007.34a6.737,6.737,0,0,0,1.98,4.643l.207.207a.485.485,0,0,1,.117.19l.648,1.944a.486.486,0,0,1-.461.64" transform="translate(-42.133 -26.329)" fill="#252d32"/>
      <path id="Path_24202" data-name="Path 24202" d="M85.347,40.445a.486.486,0,0,1-.471-.368l-.324-1.3a.487.487,0,0,1-.008-.195l.865-5.409a6.64,6.64,0,0,0-.973-4.647l-4.358-6.78a.486.486,0,0,1,.818-.526L85.253,28a7.614,7.614,0,0,1,1.115,5.326l-.85,5.311.3,1.2a.486.486,0,0,1-.354.589.5.5,0,0,1-.118.015" transform="translate(-54.074 -14.195)" fill="#252d32"/>
      <path id="Path_24203" data-name="Path 24203" d="M74.3,84.44a.486.486,0,0,1-.466-.349l-.755-2.561a.486.486,0,0,1,.329-.6l7.981-2.353a.486.486,0,0,1,.6.329l.755,2.561a.485.485,0,0,1-.329.6L74.44,84.42a.486.486,0,0,1-.137.02m-.151-2.718.48,1.628,7.049-2.078-.48-1.628Z" transform="translate(-49.384 -53.096)" fill="#252d32"/>
      <path id="Path_24204" data-name="Path 24204" d="M18.331,63.27a1.852,1.852,0,0,1-.783-.251,1.484,1.484,0,0,0-.524-.191,1.486,1.486,0,0,0-.524.191,1.388,1.388,0,0,1-1.028.213,1.411,1.411,0,0,1-.725-.8,1.451,1.451,0,0,0-.294-.443,1.459,1.459,0,0,0-.519-.146,1.406,1.406,0,0,1-.973-.44,1.4,1.4,0,0,1-.118-1.055,1.466,1.466,0,0,0,.02-.546,1.432,1.432,0,0,0-.324-.407,1.1,1.1,0,0,1,0-1.891,1.424,1.424,0,0,0,.324-.407,1.468,1.468,0,0,0-.02-.546,1.4,1.4,0,0,1,.118-1.054,1.407,1.407,0,0,1,.974-.44,1.463,1.463,0,0,0,.519-.146,1.446,1.446,0,0,0,.293-.442,1.412,1.412,0,0,1,.726-.8,1.39,1.39,0,0,1,1.028.213,1.48,1.48,0,0,0,.524.191,1.478,1.478,0,0,0,.524-.191,1.383,1.383,0,0,1,1.028-.213,1.411,1.411,0,0,1,.726.8,1.436,1.436,0,0,0,.294.443,1.454,1.454,0,0,0,.519.147,1.4,1.4,0,0,1,.973.44,1.4,1.4,0,0,1,.119,1.055,1.465,1.465,0,0,0-.02.546,1.424,1.424,0,0,0,.324.407,1.1,1.1,0,0,1,0,1.891,1.432,1.432,0,0,0-.324.407,1.471,1.471,0,0,0,.02.547,1.4,1.4,0,0,1-.119,1.054,1.409,1.409,0,0,1-.974.44,1.461,1.461,0,0,0-.519.146,1.449,1.449,0,0,0-.293.442,1.411,1.411,0,0,1-.726.8.788.788,0,0,1-.245.038m-2.613-8.985a.148.148,0,0,0-.047.006c-.121.039-.243.273-.351.48a1.824,1.824,0,0,1-.486.666,1.84,1.84,0,0,1-.791.261c-.228.039-.486.083-.559.183s-.033.354,0,.58a1.865,1.865,0,0,1,0,.839,1.8,1.8,0,0,1-.478.66c-.165.168-.352.358-.352.492s.187.324.352.492a1.794,1.794,0,0,1,.478.66,1.864,1.864,0,0,1,0,.839c-.033.227-.07.484,0,.58s.331.144.558.183a1.84,1.84,0,0,1,.791.261,1.823,1.823,0,0,1,.487.667c.108.206.23.44.351.48s.35-.083.542-.178a1.886,1.886,0,0,1,.811-.258,1.885,1.885,0,0,1,.811.258c.193.1.431.212.542.178s.243-.274.351-.48a1.832,1.832,0,0,1,.486-.666A1.846,1.846,0,0,1,20,61.208c.228-.039.485-.083.558-.183s.034-.354,0-.58a1.861,1.861,0,0,1,0-.839,1.8,1.8,0,0,1,.478-.66c.165-.168.352-.359.352-.492s-.187-.324-.352-.492a1.8,1.8,0,0,1-.478-.66,1.859,1.859,0,0,1,0-.839c.033-.227.07-.484,0-.58s-.331-.145-.558-.183a1.84,1.84,0,0,1-.791-.261,1.831,1.831,0,0,1-.487-.667c-.108-.207-.23-.44-.351-.48s-.349.082-.542.177a1.88,1.88,0,0,1-.811.258,1.882,1.882,0,0,1-.811-.258,1.508,1.508,0,0,0-.495-.184" transform="translate(-8.111 -36.254)" fill="#252d32"/>
      <path id="Path_24205" data-name="Path 24205" d="M51.361,73.972h-.972V73h.972Zm-1.944,0h-.972V73h.972Zm-1.944,0H46.5V73h.972Z" transform="translate(-31.431 -49.343)" fill="#252d32"/>
      <path id="Path_24206" data-name="Path 24206" d="M16.565,83.509a.331.331,0,0,1-.093-.014l-3.241-.972a.324.324,0,0,1-.2-.455l1.944-3.889a.324.324,0,1,1,.58.29l-1.772,3.544,2.592.777,1.508-3.619a.324.324,0,0,1,.6.25l-1.62,3.889a.324.324,0,0,1-.3.2" transform="translate(-8.787 -52.722)" fill="#252d32"/>
      <path id="Path_24207" data-name="Path 24207" d="M29.289,83.509a.324.324,0,0,1-.3-.2l-1.455-3.493a.324.324,0,0,1,.6-.249l1.343,3.223,2.592-.777L30.3,78.469a.324.324,0,1,1,.58-.29l1.944,3.889a.324.324,0,0,1-.2.455l-3.241.972a.331.331,0,0,1-.093.014" transform="translate(-18.594 -52.722)" fill="#252d32"/>
    </g>
  </g>
</svg>
