<svg xmlns="http://www.w3.org/2000/svg" width="34.758" height="35" viewBox="0 0 34.758 35">
  <g id="Group_16317" data-name="Group 16317" transform="translate(-1 -0.739)">
    <path id="Path_24290" data-name="Path 24290" d="M33.313,53l2.237,5.44H2L4.237,53Z" transform="translate(-0.396 -23.306)" fill="#8197bf"/>
    <ellipse id="Ellipse_205" data-name="Ellipse 205" cx="6" cy="1.5" rx="6" ry="1.5" transform="translate(10.593 31)" fill="#7083a6"/>
    <circle id="Ellipse_206" data-name="Ellipse 206" cx="2.116" cy="2.116" r="2.116" transform="translate(14.043 9.885)" fill="#ffdbac"/>
    <path id="Path_24291" data-name="Path 24291" d="M20.028,26.045v6.649l-.6,9.672h2.116l1.511-9.672,1.511,9.672h2.116l-.6-9.672V26.649l6.649-5.44L30.909,20l-4.836,3.022H20.028a2.418,2.418,0,0,0-1.934.967l-2.366,3.154a1.209,1.209,0,0,0-.01,1.437l4.311,5.927.6-2.418-2.418-4.231Z" transform="translate(-6.906 -10.254)" fill="#7cb2f8"/>
    <path id="Path_24292" data-name="Path 24292" d="M45.627,7.294l1.121,2.27,2.506.365L47.44,11.7l.428,2.5-2.241-1.178-2.241,1.178.428-2.5L42,9.929l2.506-.365Z" transform="translate(-18.936 -2.489)" fill="#d98285"/>
    <path id="Path_24293" data-name="Path 24293" d="M28.138,14.627H23.907L23,11.6l1.813,1.209L26.022,11l1.209,1.813L29.045,11.6Z" transform="translate(-9.852 -4.461)" fill="#ffe66d"/>
    <path id="Path_24294" data-name="Path 24294" d="M33.467,32.064a.561.561,0,0,0-.512-.33H19.886L19.5,25.616v-5.3l5.961-4.838a.554.554,0,0,0-.044-.893l-1.682-1.112a.564.564,0,0,0-.608-.009l-4.349,2.7h-1.04a2.458,2.458,0,0,0,.461-3.353.555.555,0,0,0,.436-.38l.841-2.781a.554.554,0,0,0-.2-.607.564.564,0,0,0-.645-.015l-1.215.8L16.6,8.623a.585.585,0,0,0-.933,0l-.81,1.206-1.215-.8A.564.564,0,0,0,13,9.04a.554.554,0,0,0-.2.607l.841,2.781a.555.555,0,0,0,.44.381,2.459,2.459,0,0,0,.462,3.352H13.333a2.841,2.841,0,0,0-2.242,1.112L8.9,20.178a1.658,1.658,0,0,0-.015,1.984l3.783,5.154-.279,4.417H3.8a.561.561,0,0,0-.512.33L1.048,37.069a.552.552,0,0,0,.042.529.562.562,0,0,0,.47.253H35.2a.562.562,0,0,0,.47-.253.552.552,0,0,0,.042-.529ZM14.318,10.807l.386.256a.563.563,0,0,0,.778-.154l.655-.976.655.974a.563.563,0,0,0,.778.154l.386-.256-.274.907h-3.09Zm3.22,3.436a1.4,1.4,0,1,1-1.4-1.39,1.4,1.4,0,0,1,1.4,1.39ZM9.792,21.509a.557.557,0,0,1,0-.667l2.192-2.9a1.709,1.709,0,0,1,1.345-.67H18.94a.564.564,0,0,0,.3-.085L23.414,14.6l.75.5-5.58,4.529a.554.554,0,0,0-.206.43v5.6l.525,8.308h-.886L16.69,25.53a.561.561,0,0,0-1.108,0l-1.328,8.428h-.886l.525-8.342V19.5a.556.556,0,0,0-.346-.514.564.564,0,0,0-.611.12l-1.682,1.668a.553.553,0,0,0-.09.667l1.608,2.794v1.339Zm6.741,10.224H15.74l.4-2.515Zm-3.76-10.893v1.151l-.422-.732Zm-10.35,15.9,1.744-3.893h8.149l-.1,1.634a.554.554,0,0,0,.151.416.563.563,0,0,0,.409.175h1.962a.559.559,0,0,0,.554-.47l.276-1.754h1.143l.276,1.754a.559.559,0,0,0,.554.471H19.5a.563.563,0,0,0,.409-.175.554.554,0,0,0,.151-.416l-.1-1.634H32.591l1.744,3.893ZM31.246,9.123a.559.559,0,0,0-.452-.379L28.76,8.451l-.907-1.827a.586.586,0,0,0-1.006,0l-.909,1.827-2.033.293a.559.559,0,0,0-.452.378.553.553,0,0,0,.142.57l1.47,1.423-.347,2.008a.554.554,0,0,0,.223.544.564.564,0,0,0,.59.042l1.816-.948,1.818.945a.564.564,0,0,0,.59-.042.554.554,0,0,0,.223-.544l-.347-2.008L31.1,9.693A.553.553,0,0,0,31.246,9.123Zm-2.607,1.4a.553.553,0,0,0-.161.492l.205,1.186-1.074-.559a.565.565,0,0,0-.521,0l-1.072.559.205-1.186a.553.553,0,0,0-.161-.492l-.868-.839,1.2-.174a.56.56,0,0,0,.422-.3l.537-1.078.537,1.078a.56.56,0,0,0,.422.3l1.2.174Z" transform="translate(0 -2.112)"/>
    <rect id="Rectangle_5044" data-name="Rectangle 5044" width="1" height="2" transform="translate(26.671 0.739)"/>
    <rect id="Rectangle_5045" data-name="Rectangle 5045" width="1.813" height="1.209" transform="matrix(0.601, -0.799, 0.799, 0.601, 29.479, 3.543)"/>
    <rect id="Rectangle_5046" data-name="Rectangle 5046" width="1.209" height="1.813" transform="matrix(0.799, -0.601, 0.601, 0.799, 22.756, 2.822)"/>
  </g>
</svg>
