<svg xmlns="http://www.w3.org/2000/svg" width="53.5" height="50" viewBox="0 0 53.5 50">
  <g id="Group_19333" data-name="Group 19333" transform="translate(-0.168 -2)">
    <path id="Path_28859" data-name="Path 28859" d="M25.34,18.223l1.143.454V23.59h0a2.564,2.564,0,1,0,1.282,0h0v-4.4l3.846,1.529v7.6a2.208,2.208,0,0,0,1.76,2.069,58.016,58.016,0,0,0,9.88.811,58.336,58.336,0,0,0,10.328-.775,2.246,2.246,0,0,0,1.75-2.1v-7.6L61.6,18.223c1.311-.521,1.316-1.387.013-1.925L45.727,9.741a7.121,7.121,0,0,0-4.736.009L25.324,16.288C24.022,16.831,24.03,17.7,25.34,18.223Zm3.066,7.848a1.282,1.282,0,1,1-1.282-1.282A1.282,1.282,0,0,1,28.406,26.07Zm-1.629-2.538.031,0Zm.663,0,.032,0-.032,0Zm26.607,4.792a.985.985,0,0,1-.7.843,56.994,56.994,0,0,1-10.1.754,56.5,56.5,0,0,1-9.657-.791.94.94,0,0,1-.7-.806V21.225l8.194,3.257a7.462,7.462,0,0,0,4.765,0l8.195-3.257ZM41.484,10.933a5.884,5.884,0,0,1,3.754-.008l15.33,6.328L45.379,23.291a6.228,6.228,0,0,1-3.818,0l-15.2-6.044Zm19.935-6.69a.962.962,0,1,0-.962-.962A.962.962,0,0,0,61.419,4.244Zm0-1.442a.481.481,0,1,1-.481.481.481.481,0,0,1,.481-.481ZM38.662,3.923a.962.962,0,1,0-.962-.962.962.962,0,0,0,.962.962Zm0-1.442a.481.481,0,1,1-.481.481.481.481,0,0,1,.481-.481ZM67.188,14.5a.641.641,0,1,0-.641-.641.641.641,0,0,0,.641.641Zm0-.962a.321.321,0,1,1-.321.321A.321.321,0,0,1,67.188,13.538Zm-12.179-1.6a.641.641,0,1,0-.641-.641A.641.641,0,0,0,55.009,11.936Zm0-.962a.321.321,0,1,1-.321.321.321.321,0,0,1,.321-.321ZM30.97,12.9a.641.641,0,1,0-.641-.641.641.641,0,0,0,.641.641Zm0-.962a.321.321,0,1,1-.321.321.321.321,0,0,1,.321-.321Z" transform="translate(-16.552)" fill="#2d4356"/>
    <ellipse id="Ellipse_528" data-name="Ellipse 528" cx="0.514" cy="1.029" rx="0.514" ry="1.029" transform="translate(0.168 45.519)" fill="#2d4356"/>
    <path id="Path_28860" data-name="Path 28860" d="M7.6,139H6.641a.641.641,0,0,0,0,1.282H7.6A.641.641,0,0,0,7.6,139Zm47.756,0H54.4a.641.641,0,0,0,0,1.282h.962a.641.641,0,0,0,0-1.282Z" transform="translate(-4.082 -93.09)" fill="#2d4356"/>
    <ellipse id="Ellipse_529" data-name="Ellipse 529" cx="0.514" cy="1.029" rx="0.514" ry="1.029" transform="translate(52.639 45.519)" fill="#2d4356"/>
    <path id="Path_28861" data-name="Path 28861" d="M58.5,109.712H45.7l.517-1.265,2.007-.07c1.109-.039,1.4-1.013.658-2.176l-.8-1.254,7,.7a2.516,2.516,0,0,0,.252.013,2.275,2.275,0,0,0,2.3-2.323V98.2A2.257,2.257,0,0,0,55.345,95.9a2.538,2.538,0,0,0-.267.014l-14.837,1.57a2.566,2.566,0,0,0-2.165-1.2H35.513a2.566,2.566,0,0,0-2.134,1.148L19.152,95.913a2.538,2.538,0,0,0-.269-.014A2.255,2.255,0,0,0,16.6,98.2v5.128a2.273,2.273,0,0,0,2.3,2.321q.125,0,.254-.013l14.3-1.435a2.484,2.484,0,0,1-.189-.3,2.616,2.616,0,0,0,.189.3l-.341.034-3.3,5.147-.017.027-.593-1.452-.314-.767-.829-.029-1.75-.061a1.985,1.985,0,0,1,.119-.212l1.357-2.117-1.627.163-.809,1.262c-.745,1.163-.451,2.137.658,2.176l2.007.07.517,1.265h-12.8a.646.646,0,1,0,0,1.282H29.418a.729.729,0,0,0,.205.032.854.854,0,0,0,.213-.032H44.395a.854.854,0,0,0,.213.032.728.728,0,0,0,.205-.032H58.5a.646.646,0,1,0,0-1.282Zm-39.475-5.346c-.042,0-.085.006-.126.006a.994.994,0,0,1-1.016-1.039V98.2a.979.979,0,0,1,1-1.024,1.259,1.259,0,0,1,.133.007l13.941,1.487h0c0,.057-.009.114-.009.171v3.846a2.49,2.49,0,0,0,.023.274h0Zm14.2-6.673-.024.05ZM33.1,98l-.008.021L33.1,98Zm.027,5.594c.016.04.033.079.051.119-.017-.04-.036-.078-.051-.119Zm-.1-.314.012.047c0-.016-.008-.031-.012-.047Zm14.777,3.61a1.984,1.984,0,0,1,.119.212l-1.75.061-.829.029-.314.767-.593,1.452-.017-.027-3.29-5.133,5.322.53h0Zm7.41-9.706a1.261,1.261,0,0,1,.132-.007.981.981,0,0,1,1,1.026v5.128a1,1,0,0,1-1.018,1.041c-.041,0-.083,0-.125-.006l-14.58-1.452h0c.007-.074.018-.147.018-.223V98.846c0-.04,0-.078-.006-.117ZM40.4,97.768l0-.005Zm-.046,6.094a2.465,2.465,0,0,1-.178.3,2.6,2.6,0,0,0,.178-.3Zm.22-.617-.005.023.005-.023Zm-.09.313c-.011.032-.026.061-.038.092.013-.031.026-.061.038-.092Zm-6.253-4.711a1.283,1.283,0,0,1,1.282-1.282h2.564a1.283,1.283,0,0,1,1.282,1.282v3.846a1.273,1.273,0,0,1-.228.727l-.06,0,.028.043a1.277,1.277,0,0,1-1.021.515H35.513a1.283,1.283,0,0,1-1.282-1.282Zm-.019,6.05a2.539,2.539,0,0,0,1.3.36h2.564a2.551,2.551,0,0,0,1.735-.684l3.294,5.139H31.125Z" transform="translate(-10.197 -63.801)" fill="#2d4356"/>
    <path id="Path_28862" data-name="Path 28862" d="M9.414,23.321l.477-.627-.3-.171-.306.7h-.01l-.311-.7-.306.176.471.612v.01l-.737-.1v.341l.742-.1v.01l-.477.612.286.181.326-.707h.01l.3.7.316-.18-.481-.6v-.01l.757.09v-.341l-.757.1Z" transform="translate(-5.706 -13.946)" fill="#0bceb2"/>
    <path id="Path_28863" data-name="Path 28863" d="M60.032,17.894v-.006l.436.052v-.2l-.436.058V17.8l.274-.361-.173-.1-.176.4h-.006l-.179-.4-.177.1.272.352V17.8l-.425-.055v.2l.428-.055v.006l-.275.352.165.1.188-.407h.006l.173.4.182-.1Z" transform="translate(-40.396 -10.421)" fill="#0bceb2"/>
    <path id="Path_28864" data-name="Path 28864" d="M30.032,7.8l.274-.361-.173-.1-.176.4h-.006l-.179-.4-.177.1.272.352V7.8l-.425-.055v.2l.428-.055v.006l-.275.352.165.1.188-.407h.006l.173.4.182-.1-.277-.347V7.888l.436.052v-.2l-.436.058Z" transform="translate(-20.011 -3.626)" fill="#0bceb2"/>
    <path id="Path_28865" data-name="Path 28865" d="M145.3,23.534V23.2l-.743.1v-.01l.468-.615-.3-.167-.3.688h-.01l-.3-.684-.3.172.463.6v.01l-.723-.094v.334l.728-.093v.01l-.467.6.28.177.32-.694h.01l.3.689.31-.177-.472-.59v-.01Z" transform="translate(-97.547 -13.934)" fill="#0bceb2"/>
    <path id="Path_28866" data-name="Path 28866" d="M106.967,10.813l.242.153.276-.6h.008l.255.594.267-.153-.407-.509v-.009l.641.077v-.288l-.641.085v-.008l.4-.53-.254-.144-.259.594h-.008l-.263-.59-.259.149.4.518v.008l-.624-.08v.288l.628-.081V10.3Z" transform="translate(-72.535 -5.083)" fill="#0bceb2"/>
    <path id="Path_28867" data-name="Path 28867" d="M70.485,148H67.822a.643.643,0,0,0,0,1.282h2.663a.643.643,0,0,0,0-1.282Zm-19.231,0H48.592a.643.643,0,0,0,0,1.282h2.663a.643.643,0,0,0,0-1.282Zm14.694,0H53.128a.641.641,0,0,0,0,1.282h5.109v.641H55.692a.641.641,0,0,0,0,1.282h8.013a.641.641,0,0,0,0-1.282H60.84v-.641h5.109a.641.641,0,0,0,0-1.282Z" transform="translate(-32.62 -99.205)" fill="#0bceb2"/>
  </g>
</svg>
