<svg xmlns="http://www.w3.org/2000/svg" width="85.427" height="50" viewBox="0 0 85.427 50">
  <g id="Group_18376" data-name="Group 18376" transform="translate(-40.471 -222.5)">
    <g id="XMLID_3_" transform="translate(40.471 250.128)">
      <g id="Group_18376-2" data-name="Group 18376" transform="translate(0 0)">
        <path id="Path_27000" data-name="Path 27000" d="M929.521,553.464c.312-.445,1.889-.327,1.889-.327a1.82,1.82,0,0,0-1.061.788,12.585,12.585,0,0,0-2.35-.452,6.067,6.067,0,0,0,1-.689,3.133,3.133,0,0,1,.948-.122C929.383,553.136,929.521,553.464,929.521,553.464Z" transform="translate(-847.301 -549.943)" fill="#e5e5e5"/>
        <path id="Path_27001" data-name="Path 27001" d="M122.1,525.04a6.188,6.188,0,0,1-1.017.689,13.035,13.035,0,0,1,2.392.452c1.208.362,2.421.994,2.421,2.07,0,2.143-6.9,4.177-6.9,4.177s3.179,2.422-7.539,5.544a62.4,62.4,0,0,1-16.378,2.344v-.085c.06-1.308,1.029-1.189,1.029-1.189a2.694,2.694,0,0,0-2.786.327,1.242,1.242,0,0,0-.847-1.516c.333,1.4-.271,1.726-.271,1.726-.485-1.183-2.7-.941-2.7-.941,1.189.351,1.48,1.047,1.512,1.572l-.089-.008s-7.993,2.765-22.435,4.1S41.7,541.718,40.61,537.5s4.541-4.344,6.176-5.072-3.361-1.057-3.27-2.038,6.54-2.676,6.54-2.676a80.737,80.737,0,0,1,12.9-1.673c5,0,2.482,1.316,2.482,1.316s43.568-5.709,52.378-5.112C123.869,522.653,123.146,524.145,122.1,525.04Z" transform="translate(-40.471 -522.2)" fill="#e5e5e5"/>
        <path id="Path_27002" data-name="Path 27002" d="M586.814,698.859s-.952-.119-1.011,1.189v.085c-2.179.025-3.629-.078-3.987-.106-.032-.525-.318-1.221-1.485-1.572,0,0,2.172-.242,2.648.941,0,0,.593-.329.266-1.726a1.241,1.241,0,0,1,.832,1.516A2.61,2.61,0,0,1,586.814,698.859Z" transform="translate(-531.223 -682.017)" fill="#e5e5e5"/>
      </g>
    </g>
    <path id="Path_27003" data-name="Path 27003" d="M896.033,483.166a10.215,10.215,0,0,0-.27-1.417,8.638,8.638,0,0,1,0-1.215c.017-.3.1-.859.444-.982.424-.153.5.295.838-.176.482-.681.032-1.581.269-2.32.087-.273.427-.658.771-.492.387.188.073.633.622.448.2-.069.354-.294.613-.348a2.7,2.7,0,0,1,.813-.01,2.207,2.207,0,0,1,1.419.938c.608,1.079-.73,1-1.417,1.114-.271.043-.8.118-.949.39-.261.48.456.614.726.9.983,1.05-1.02.908-1.526.893-.365-.01-.725,0-.849.4s.294.643.18,1.072a1.393,1.393,0,0,1-1.686.8" transform="translate(-777.451 -230.884)" fill="#295fc5"/>
    <path id="Path_27004" data-name="Path 27004" d="M398.227,523.6c.035-.469.358-.8.357-1.281a1.866,1.866,0,0,0-.265-.95,1.3,1.3,0,0,0-.984-.623c-.317-.054-.733.007-.85-.4-.042-.147.078-.378.091-.535a1.511,1.511,0,0,0-.089-.624c-.27-.881-1.042-.927-1.6-.265-.663.793-1.026,1.6-.1,2.329.326.256.889.537,1.016.969.161.548-.447.454-.65.9-.3.654.2.674.66.748.764.123.073.37.186.84.407.126,1.419.808,1.821.591a2.071,2.071,0,0,0,.535-2.01" transform="translate(-321.6 -269.003)" fill="#3e89fc"/>
    <g id="Group_18379" data-name="Group 18379" transform="translate(56.768 231.301)">
      <g id="Group_18378" data-name="Group 18378" transform="translate(0 0)">
        <g id="XMLID_1_">
          <g id="Group_18377" data-name="Group 18377">
            <path id="Path_27005" data-name="Path 27005" d="M771.259,370.15v20.794l-13.1,3.39V372.719Z" transform="translate(-708.909 -364.887)" fill="#f4ac38"/>
            <path id="Path_27006" data-name="Path 27006" d="M658.776,316.413l-13.1,2.569-11.017-5.62,11.895-2.212Z" transform="translate(-596.427 -311.15)" fill="#ffc962"/>
            <path id="Path_27007" data-name="Path 27007" d="M645.677,341.57v21.615l-5.292-2.978v-9.783l-5.725-2.466V335.95Z" transform="translate(-596.427 -333.738)" fill="#e28529"/>
            <path id="Path_27008" data-name="Path 27008" d="M565.1,519.45v3.937l-13.1,3.39V512.236l7.374-1.446v5.438Z" transform="translate(-521.141 -492.981)" fill="#f4ac38"/>
            <path id="Path_27009" data-name="Path 27009" d="M640.385,498.2v9.783l-5.725-3.222v-5.438Z" transform="translate(-596.427 -481.514)" fill="#f4ac38"/>
            <path id="Path_27010" data-name="Path 27010" d="M640.385,473.026l-5.725,1.123V470.56Z" transform="translate(-596.427 -456.339)" fill="#ffc962"/>
            <path id="Path_27011" data-name="Path 27011" d="M446.891,442v3.589l-7.374,1.446-11.017-5.62,11.895-2.212Z" transform="translate(-408.658 -427.777)" fill="#ffc962"/>
            <path id="Path_27012" data-name="Path 27012" d="M439.517,469.62v14.541l-6.743-3.795v-.946L428.5,477.2V464Z" transform="translate(-408.658 -450.365)" fill="#e28529"/>
            <path id="Path_27013" data-name="Path 27013" d="M342.669,640.292v5.762l-13.1,3.39v-7.529l11.852-2.325Z" transform="translate(-318.553 -610.291)" fill="#f4ac38"/>
            <path id="Path_27014" data-name="Path 27014" d="M463.677,636.85v.946l-1.247-.7Z" transform="translate(-439.561 -607.795)" fill="#f4ac38"/>
            <path id="Path_27015" data-name="Path 27015" d="M432.774,614.162l-1.247.244-3.027-1.7v-.764Z" transform="translate(-408.658 -585.107)" fill="#ffc962"/>
            <path id="Path_27016" data-name="Path 27016" d="M228.939,578.33l-11.852,2.325-11.017-5.62,13.047-2.7,6.795,3.534v.764Z" transform="translate(-206.07 -549.031)" fill="#ffc962"/>
            <path id="Path_27017" data-name="Path 27017" d="M217.087,608.27V615.8l-11.017-6.2V602.65Z" transform="translate(-206.07 -576.646)" fill="#e28529"/>
          </g>
        </g>
      </g>
    </g>
    <g id="Group_18381" data-name="Group 18381" transform="translate(48.531 222.5)">
      <g id="XMLID_4_" transform="translate(0 0)">
        <g id="Group_18380" data-name="Group 18380">
          <path id="Path_27018" data-name="Path 27018" d="M404.6,222.5l-4.059,6.2v-2.81l-23.063,14.043-.636-2.664,22.807-13.074-1.249-1.472Z" transform="translate(-354.894 -222.5)" fill="#e22953"/>
          <path id="Path_27019" data-name="Path 27019" d="M340.162,598.245a1.167,1.167,0,0,1,.758,1.137c-.045.111-5.442.045-5.531,0a15.777,15.777,0,0,1,.4-2.093,6.562,6.562,0,0,0,2.231.266l-.089.444A15.3,15.3,0,0,1,340.162,598.245Z" transform="translate(-317.131 -563.128)" fill="#1e1950"/>
          <path id="Path_27020" data-name="Path 27020" d="M270.155,483.66s7.95,3.978,7.906,5.048a34.849,34.849,0,0,1-1.806,5.352s-.058,0-.156,0a6.563,6.563,0,0,1-2.231-.266.227.227,0,0,1-.088-.093l1.115-4.148-7.449-1.9-.054-.019.952-2.759h0a6.105,6.105,0,0,0,1.823-1.145Z" transform="translate(-255.208 -459.728)" fill="#403882"/>
          <path id="Path_27021" data-name="Path 27021" d="M358.2,482.73c.312.54.345,2.379.078,2.256s-1-1.672-1.1-1.695c0,0,.235,1,.089.971a3.87,3.87,0,0,1-.978-.955,1.323,1.323,0,0,1,.134-.5,3.329,3.329,0,0,0,.215-1.511A7.84,7.84,0,0,1,358.2,482.73Z" transform="translate(-336.177 -457.691)" fill="#fda181"/>
          <path id="Path_27022" data-name="Path 27022" d="M354.335,479.214a3.329,3.329,0,0,1-.215,1.511,1.323,1.323,0,0,0-.134.5,1.074,1.074,0,0,1-.226-.481,2.18,2.18,0,0,0,.3-1.731h0S354.168,479.089,354.335,479.214Z" transform="translate(-333.873 -455.629)" fill="#f77556"/>
          <path id="Path_27023" data-name="Path 27023" d="M188.812,370.28a2.18,2.18,0,0,1-.3,1.731,1.63,1.63,0,0,1-.112.142,22.3,22.3,0,0,1-4.091-3.109v0a29.275,29.275,0,0,1-.84-6.5,40.392,40.392,0,0,0-.158,5.158,27.809,27.809,0,0,0,.262,3l.011.075a6.105,6.105,0,0,1-1.823,1.145h0a15.4,15.4,0,0,1-5.737,1.186s-.042-2.53.03-4.775c.31-1.259.888-3.258,1.251-4.492-.327.639-.736,1.44-1.109,2.181-.478.949-.9,1.8-1.02,2.093-.319.773-.93,3.524-.93,3.524a2.616,2.616,0,0,1-.4.117,4.632,4.632,0,0,1-1.462.039l-.054-.008a35.844,35.844,0,0,1,.535-3.732c.223-.64,2.439-6.824,2.751-7.241a8.364,8.364,0,0,1,2.041-1.135l2.507.715.642,1.03h0l-.469.965-.616,6.334.408,1.249.871-1.189.55-6.393-.509-.965.4-1.1,1.893-.684a1.875,1.875,0,0,1,.7.375c.149.238.847,6.1.847,6.1s2.29,3.226,3.91,4.088C188.789,370.189,188.8,370.222,188.812,370.28Z" transform="translate(-168.628 -347.029)" fill="#3e89fc"/>
          <path id="Path_27024" data-name="Path 27024" d="M296.193,398.761a5.6,5.6,0,0,1-1-1.343,40.4,40.4,0,0,1,.158-5.158A29.276,29.276,0,0,0,296.193,398.761Z" transform="translate(-280.511 -376.748)" fill="#295fc5"/>
          <path id="Path_27025" data-name="Path 27025" d="M276.343,357.235l-1.893.684.045-.123,1.164-.8S276,357.1,276.343,357.235Z" transform="translate(-261.638 -344.748)" fill="#295fc5"/>
          <path id="Path_27026" data-name="Path 27026" d="M287.509,309.8a2.6,2.6,0,0,1-.64.5l-.16-1.276c.01.024.019.044.026.057A4.985,4.985,0,0,0,287.509,309.8Z" transform="translate(-272.804 -301.146)" fill="#f77556"/>
          <path id="Path_27027" data-name="Path 27027" d="M277.874,326.461a.066.066,0,0,1,0,.093.583.583,0,0,1-.426.128,1.791,1.791,0,0,1-.574-.11.067.067,0,0,1,.043-.127c.646.219.858.019.86.017A.067.067,0,0,1,277.874,326.461Z" transform="translate(-263.807 -316.976)"/>
          <path id="Path_27028" data-name="Path 27028" d="M252.159,291.762s.194,1.368,0,1.427-1.294.3-1.294.3a2.084,2.084,0,0,1-1.02-.216,2.24,2.24,0,0,0,1.109.786c.031.189.065.375.089.47l-.714,1.458-1.591-1.695c0-.134-.14-1.12-.14-1.12l.765-.233-.045-.952s-.432.03-.535-.594.342-.635.5-.467.283.318.283.318l.386-.163-.252-1.115a.49.49,0,0,1-.4-.476c-.029-.773,2.215-.817,2.215-.817s.072.31.163.679c-.408-.138-.859.278-.878.3a.088.088,0,0,0,0,.126.089.089,0,0,0,.065.029.087.087,0,0,0,.061-.024c.115-.108.47-.361.731-.247a.09.09,0,0,0,.071,0c.1.385.205.79.271.957Zm0,.39a.066.066,0,0,0,0-.093.067.067,0,0,0-.095,0s-.214.2-.86-.017a.067.067,0,0,0-.043.127,1.791,1.791,0,0,0,.574.11A.583.583,0,0,0,252.164,292.152Zm-.471-1.824c0-.111-.05-.2-.112-.2s-.112.09-.112.2.05.2.112.2S251.693,290.438,251.693,290.327Z" transform="translate(-238.094 -282.767)" fill="#fda181"/>
          <path id="Path_27029" data-name="Path 27029" d="M269.784,354.568l-1.164.8-.331.227h0l-.288.2.714-1.458Z" transform="translate(-255.763 -342.318)" fill="#3e89fc"/>
          <path id="Path_27030" data-name="Path 27030" d="M283.206,296.3a.088.088,0,0,1,.046.117.089.089,0,0,1-.046.046c-.016-.062-.031-.122-.046-.18A.313.313,0,0,1,283.206,296.3Z" transform="translate(-269.571 -289.698)"/>
          <path id="Path_27031" data-name="Path 27031" d="M273.9,295.993c.014.058.029.119.045.18a.09.09,0,0,1-.071,0c-.26-.114-.616.139-.731.247a.087.087,0,0,1-.061.024.089.089,0,0,1-.065-.029.088.088,0,0,1,0-.126C273.046,296.272,273.5,295.855,273.9,295.993Z" transform="translate(-260.316 -289.412)"/>
          <ellipse id="Ellipse_509" data-name="Ellipse 509" cx="0.112" cy="0.201" rx="0.112" ry="0.201" transform="translate(13.376 7.36)" fill="#231f20"/>
          <path id="Path_27032" data-name="Path 27032" d="M234.235,274.323c.075.431-.134.58-.134.58s-2.244.045-2.215.817a.49.49,0,0,0,.4.476l.252,1.115-.386.163s-.119-.149-.283-.318-.609-.158-.5.467.535.594.535.594l.045.952-.765.233-.113.035a5.311,5.311,0,0,0-.148-.684,11.2,11.2,0,0,0-1.427-2.066c-.1-.149.3-.55.3-.55-.6-1,.729-2.2,2.2-2.5S234.161,273.891,234.235,274.323Z" transform="translate(-220.676 -269)" fill="#1e1950"/>
          <path id="Path_27033" data-name="Path 27033" d="M217.674,497.34l-.952,2.759-2.272,6.587-.2-.07-.312-6.267-.937-.335-1.241.06.178-1.549A15.4,15.4,0,0,0,217.674,497.34Z" transform="translate(-204.54 -472.175)" fill="#295fc5"/>
          <path id="Path_27034" data-name="Path 27034" d="M256.489,379.68l.509.965-.55,6.393-.871,1.189-.408-1.249.616-6.334.469-.965h0l.147.236Z" transform="translate(-244.078 -365.297)" fill="#1e1950"/>
          <path id="Path_27035" data-name="Path 27035" d="M271.571,365.92l-.045.123-.286.1Z" transform="translate(-258.714 -352.86)" fill="#1e1950"/>
          <path id="Path_27036" data-name="Path 27036" d="M261.426,367.3l-.4,1.1-.086.236-.147-.236-.642-1.03.437.125h0l.262.1.288-.2h0Z" transform="translate(-248.614 -354.107)" fill="#1e1950"/>
          <path id="Path_27037" data-name="Path 27037" d="M263.59,340.466s.043.288.089.57a2.24,2.24,0,0,1-1.109-.786A2.084,2.084,0,0,0,263.59,340.466Z" transform="translate(-250.818 -329.525)" fill="#f77556"/>
          <path id="Path_27038" data-name="Path 27038" d="M237.419,351.67l1.591,1.695-.262-.1h0l-.474-.184-2.1-.815Z" transform="translate(-226.773 -339.899)" fill="#3e89fc"/>
          <path id="Path_27039" data-name="Path 27039" d="M260.214,367.654l-.437-.125-.037-.059Z" transform="translate(-248.24 -354.269)" fill="#1e1950"/>
          <path id="Path_27040" data-name="Path 27040" d="M234.52,359.145l.037.059-2.507-.715c.221-.1.368-.159.368-.159Z" transform="translate(-223.02 -345.957)" fill="#295fc5"/>
          <path id="Path_27041" data-name="Path 27041" d="M193.748,682.069a.681.681,0,0,1,.245,1.053,43.562,43.562,0,0,1-5.4,0,16.881,16.881,0,0,1,.246-2.192,8.833,8.833,0,0,0,2.431.123l-.046.508A12.058,12.058,0,0,1,193.748,682.069Z" transform="translate(-183.429 -639.142)" fill="#1e1950"/>
          <path id="Path_27042" data-name="Path 27042" d="M194.878,601.4l-.327.949-1.517,6.155a1.061,1.061,0,0,1-.222.05,8.833,8.833,0,0,1-2.431-.123l-.111-.016,1.4-6.862v-.046l1.978-.013,1.026-.164Z" transform="translate(-184.967 -566.643)" fill="#295fc5"/>
          <path id="Path_27043" data-name="Path 27043" d="M226.607,527.665l.312,6.267-1.026.164-.223-6.766Z" transform="translate(-217.21 -499.47)" fill="#e28529"/>
          <path id="Path_27044" data-name="Path 27044" d="M139.29,527.33l.223,6.766-1.978.013-6.706.045.179-6.423s2.238,2.345,3.692,2.669h0l.084.809h.58V530.4l-.006-.021C136.771,529.946,139.29,527.33,139.29,527.33Z" transform="translate(-130.83 -499.469)" fill="#f4ac38"/>
          <path id="Path_27045" data-name="Path 27045" d="M139.88,527.39l1.241-.06s-2.519,2.616-3.931,3.05a1.569,1.569,0,0,1-.172.043,1.225,1.225,0,0,1-.485-.022c-1.454-.324-3.692-2.669-3.692-2.669l2.448-.119h.1v-.005l3.887-.188Z" transform="translate(-132.661 -499.531)" fill="#ffc962"/>
          <path id="Path_27046" data-name="Path 27046" d="M214.232,408.941c.373-.741.781-1.542,1.109-2.181-.363,1.234-.941,3.233-1.251,4.492C214.117,410.385,214.161,409.561,214.232,408.941Z" transform="translate(-206.663 -389.943)" fill="#295fc5"/>
          <path id="Path_27047" data-name="Path 27047" d="M191.593,511.83v1.47l-.372.015.045-1.117-.986.015.2-.339.3-.029Z" transform="translate(-184.977 -485.467)" fill="#e28529"/>
          <path id="Path_27048" data-name="Path 27048" d="M174.863,498.683a1.562,1.562,0,0,1,.12.788l-.3.029-.2.339h0l-.054.093a.9.9,0,0,1-1.056.535c-.156-.039-.257-.315-.321-.667-.024-.131-.044-.273-.059-.418-.043-.409-.054-.838-.056-1.1a7.118,7.118,0,0,1,1.713.028A2.3,2.3,0,0,1,174.863,498.683Z" transform="translate(-169.183 -473.109)" fill="#fda181"/>
          <path id="Path_27049" data-name="Path 27049" d="M174.394,495.48a2.4,2.4,0,0,1,.251.314,7.118,7.118,0,0,0-1.713-.028c0-.153,0-.247,0-.247A4.633,4.633,0,0,0,174.394,495.48Z" transform="translate(-169.175 -470.621)" fill="#f77556"/>
          <path id="Path_27050" data-name="Path 27050" d="M174.894,561.541v.809h-.58l-.084-.809h0a1.226,1.226,0,0,0,.485.022,1.57,1.57,0,0,0,.172-.043Z" transform="translate(-170.358 -530.639)" fill="#fff"/>
          <path id="Path_27051" data-name="Path 27051" d="M159.53,511.094l-1.091-.062-.051,1.377-.1.005h-.2s.066-1.666.066-1.739a7.709,7.709,0,0,1,1.315,0C159.486,510.821,159.506,510.963,159.53,511.094Z" transform="translate(-155.658 -484.385)" fill="#e28529"/>
        </g>
      </g>
    </g>
    <g id="Group_18382" data-name="Group 18382" transform="translate(56.322 238.452)">
      <path id="Path_27052" data-name="Path 27052" d="M215,400.953a.066.066,0,0,1-.03-.007.067.067,0,0,1-.029-.09l1.479-2.9a.067.067,0,1,1,.119.061l-1.479,2.9A.067.067,0,0,1,215,400.953Z" transform="translate(-214.93 -397.916)" fill="#231f20"/>
    </g>
    <g id="Group_18383" data-name="Group 18383" transform="translate(63.577 237.708)">
      <path id="Path_27053" data-name="Path 27053" d="M294.921,395.048h0a.067.067,0,0,1-.066-.068c0-.19.085-4.673.161-5.362a.067.067,0,1,1,.133.015c-.076.683-.159,5.3-.16,5.35A.067.067,0,0,1,294.921,395.048Z" transform="translate(-294.854 -389.558)" fill="#231f20"/>
    </g>
    <g id="Group_18384" data-name="Group 18384" transform="translate(74.461 252.106)">
      <path id="Path_27054" data-name="Path 27054" d="M415.824,552.1h-.013a.067.067,0,0,1-.053-.078,5.936,5.936,0,0,0-1.165-4,.067.067,0,1,1,.112-.073,5.947,5.947,0,0,1,1.184,4.1A.067.067,0,0,1,415.824,552.1Z" transform="translate(-414.583 -547.916)" fill="#231f20"/>
    </g>
    <g id="Group_18385" data-name="Group 18385" transform="translate(119.051 246.656)">
      <path id="Path_27055" data-name="Path 27055" d="M904.317,493.372h-.008a.067.067,0,0,1-.059-.074c.005-.043.525-4.315,3.072-5.442a.067.067,0,0,1,.054.122c-2.479,1.1-2.989,5.292-2.994,5.335A.067.067,0,0,1,904.317,493.372Z" transform="translate(-904.25 -487.85)" fill="#231f20"/>
    </g>
    <path id="Path_27056" data-name="Path 27056" d="M701.262,615.834c-.294-.5-1.174-1.28-.637-1.975.185-.239.615-.143.728-.521.1-.344-.229-.673-.225-1.028,0-.44.149-.632.545-.637.495-.005.406.177.625-.344.288-.687,1.2-1.491,1.674-.447.185.407.067.516-.12.812-.245.388-.371.53-.09.917.175.241.617.419.492.814-.136.426-.587.223-.894.31-.977.278-.208,1.2-.444,1.789-.2.489-1.468.582-1.7.176" transform="translate(-599.988 -352.57)" fill="#3e89fc"/>
    <g id="Group_18386" data-name="Group 18386" transform="translate(101.09 260.527)">
      <path id="Path_27057" data-name="Path 27057" d="M707.75,644.538a.067.067,0,0,1-.067-.061,6.18,6.18,0,0,1,1.219-3.95.067.067,0,1,1,.1.084,6.04,6.04,0,0,0-1.19,3.855.067.067,0,0,1-.061.072Z" transform="translate(-707.677 -640.502)" fill="#231f20"/>
    </g>
    <path id="Path_27058" data-name="Path 27058" d="M661.553,642.384a1.172,1.172,0,0,1-1.016.166c-.451-.24-.084-.438-.188-.747-.112-.335-.682-.387-.94-.612-.378-.33-.276-.717-.041-1.126.261-.455.5-.392.98-.145a3.106,3.106,0,0,1,1.116.958c.07.148-.031.389.041.526s.344.124.45.276c.237.341-.165.619-.447.7" transform="translate(-562.458 -379.29)" fill="#295fc5"/>
    <g id="Group_18387" data-name="Group 18387" transform="translate(97.965 261.534)">
      <path id="Path_27059" data-name="Path 27059" d="M674.744,654.782a.067.067,0,0,1-.066-.058c0-.023-.32-2.334-1.39-2.848a.067.067,0,1,1,.058-.121c1.135.545,1.452,2.853,1.465,2.951a.067.067,0,0,1-.057.075Z" transform="translate(-673.25 -651.749)" fill="#231f20"/>
    </g>
    <ellipse id="Ellipse_510" data-name="Ellipse 510" cx="1.606" cy="0.44" rx="1.606" ry="0.44" transform="translate(46.346 263.568)" fill="#fff"/>
    <ellipse id="Ellipse_511" data-name="Ellipse 511" cx="1.279" cy="0.393" rx="1.279" ry="0.393" transform="translate(49.126 265.035)" fill="#fff"/>
    <ellipse id="Ellipse_512" data-name="Ellipse 512" cx="0.636" cy="0.195" rx="0.636" ry="0.195" transform="translate(51.047 259.942)" fill="#fff"/>
    <ellipse id="Ellipse_513" data-name="Ellipse 513" cx="0.636" cy="0.195" rx="0.636" ry="0.195" transform="translate(109.461 261.673)" fill="#fff"/>
  </g>
</svg>
