<svg xmlns="http://www.w3.org/2000/svg" xmlns:xlink="http://www.w3.org/1999/xlink" width="33.882" height="32" viewBox="0 0 33.882 32">
  <defs>
    <clipPath id="clip-path">
      <rect id="Rectangle_317" data-name="Rectangle 317" width="33.882" height="32" fill="none"/>
    </clipPath>
  </defs>
  <g id="Group_16754" data-name="Group 16754" transform="translate(-0.793 0.445)">
    <rect id="Rectangle_314" data-name="Rectangle 314" width="2.49" height="0.83" transform="translate(27.693 9.746)" fill="#64b5f6"/>
    <g id="Group_16753" data-name="Group 16753" transform="translate(0.793 -0.445)">
      <g id="Group_16752" data-name="Group 16752" transform="translate(0 0)" clip-path="url(#clip-path)">
        <path id="Path_2139" data-name="Path 2139" d="M31.907,31.055v.277a1.383,1.383,0,0,1-1.383,1.383H13.373a1.383,1.383,0,0,1-1.383-1.383V17.5H9.5V34.651H34.4v-3.6Z" transform="translate(-5.007 -7.309)" fill="#64b5f6"/>
        <rect id="Rectangle_315" data-name="Rectangle 315" width="34.856" height="2.213" rx="1" transform="translate(-0.487 29.002)" fill="none" stroke="#37474f" stroke-linecap="round" stroke-linejoin="round" stroke-width="1"/>
        <path id="Path_2140" data-name="Path 2140" d="M54.15,16.99V15.053A.553.553,0,0,0,53.6,14.5H50" transform="translate(-23.1 -5.969)" fill="none" stroke="#37474f" stroke-linecap="round" stroke-linejoin="round" stroke-width="1"/>
        <path id="Path_2141" data-name="Path 2141" d="M10.65,14.5h-3.6a.553.553,0,0,0-.553.553V34.418a.553.553,0,0,0,.553.553h27.11a.553.553,0,0,0,.553-.553v-4.7" transform="translate(-3.667 -5.969)" fill="none" stroke="#37474f" stroke-linecap="round" stroke-linejoin="round" stroke-width="1"/>
        <rect id="Rectangle_316" data-name="Rectangle 316" width="4.979" height="2.213" transform="translate(14.451 29.002)" fill="none" stroke="#37474f" stroke-linecap="round" stroke-linejoin="round" stroke-width="1"/>
        <path id="Path_2142" data-name="Path 2142" d="M16,2.16V1.053A.553.553,0,0,1,16.553.5h16.6a.553.553,0,0,1,.553.553V23.461a.553.553,0,0,1-.553.553h-16.6A.553.553,0,0,1,16,23.461V7.139" transform="translate(-7.911 0.285)" fill="#ffca28"/>
        <path id="Path_2143" data-name="Path 2143" d="M16,2.16V1.053A.553.553,0,0,1,16.553.5h16.6a.553.553,0,0,1,.553.553V23.461a.553.553,0,0,1-.553.553h-16.6A.553.553,0,0,1,16,23.461V7.139" transform="translate(-7.911 0.285)" fill="none" stroke="#37474f" stroke-linecap="round" stroke-linejoin="round" stroke-width="1"/>
        <line id="Line_18" data-name="Line 18" y1="1.66" transform="translate(8.089 4.105)" fill="#ffca28"/>
        <line id="Line_19" data-name="Line 19" y1="1.66" transform="translate(8.089 4.105)" fill="none" stroke="#37474f" stroke-linecap="round" stroke-linejoin="round" stroke-width="1"/>
        <path id="Path_2144" data-name="Path 2144" d="M52.49,18.33V17.5H50" transform="translate(-23.1 -7.309)" fill="none" stroke="#37474f" stroke-linecap="round" stroke-linejoin="round" stroke-width="1"/>
        <path id="Path_2145" data-name="Path 2145" d="M11.99,17.5H9.5V34.651H34.4v-3.6" transform="translate(-5.007 -7.309)" fill="none" stroke="#37474f" stroke-linecap="round" stroke-linejoin="round" stroke-width="1"/>
        <path id="Path_2146" data-name="Path 2146" d="M52.778,23.49H39.5V22.383A1.383,1.383,0,0,1,40.883,21H51.4a1.383,1.383,0,0,1,1.383,1.383Z" transform="translate(-18.409 -8.873)" fill="#ef5350"/>
        <path id="Path_2147" data-name="Path 2147" d="M52.778,23.49H39.5V22.383A1.383,1.383,0,0,1,40.883,21H51.4a1.383,1.383,0,0,1,1.383,1.383Z" transform="translate(-18.409 -8.873)" fill="none" stroke="#37474f" stroke-linecap="round" stroke-linejoin="round" stroke-width="1"/>
        <line id="Line_20" data-name="Line 20" x2="5.533" transform="translate(11.962 5.211)" fill="#ef5350"/>
        <line id="Line_21" data-name="Line 21" x2="5.533" transform="translate(11.962 5.211)" fill="none" stroke="#37474f" stroke-linecap="round" stroke-linejoin="round" stroke-width="1"/>
        <line id="Line_22" data-name="Line 22" x2="7.746" transform="translate(13.622 6.871)" fill="#ef5350"/>
        <line id="Line_23" data-name="Line 23" x2="7.746" transform="translate(13.622 6.871)" fill="none" stroke="#37474f" stroke-linecap="round" stroke-linejoin="round" stroke-width="1"/>
        <line id="Line_24" data-name="Line 24" x2="5.533" transform="translate(11.962 10.744)" fill="#ef5350"/>
        <line id="Line_25" data-name="Line 25" x2="5.533" transform="translate(11.962 10.744)" fill="none" stroke="#37474f" stroke-linecap="round" stroke-linejoin="round" stroke-width="1"/>
        <line id="Line_26" data-name="Line 26" x2="4.979" transform="translate(13.622 12.404)" fill="#ef5350"/>
        <line id="Line_27" data-name="Line 27" x2="4.979" transform="translate(13.622 12.404)" fill="none" stroke="#37474f" stroke-linecap="round" stroke-linejoin="round" stroke-width="1"/>
        <line id="Line_28" data-name="Line 28" x2="5.533" transform="translate(11.962 16.277)" fill="#ef5350"/>
        <line id="Line_29" data-name="Line 29" x2="5.533" transform="translate(11.962 16.277)" fill="none" stroke="#37474f" stroke-linecap="round" stroke-linejoin="round" stroke-width="1"/>
        <line id="Line_30" data-name="Line 30" x2="4.979" transform="translate(13.622 17.936)" fill="#ef5350"/>
        <line id="Line_31" data-name="Line 31" x2="4.979" transform="translate(13.622 17.936)" fill="none" stroke="#37474f" stroke-linecap="round" stroke-linejoin="round" stroke-width="1"/>
        <path id="Path_2148" data-name="Path 2148" d="M51.4,33.522H40.883A1.383,1.383,0,0,1,39.5,32.139V25.5H52.778v6.639A1.383,1.383,0,0,1,51.4,33.522" transform="translate(-18.409 -10.883)" fill="#fff"/>
        <path id="Path_2149" data-name="Path 2149" d="M51.4,33.522H40.883A1.383,1.383,0,0,1,39.5,32.139V25.5H52.778v6.639A1.383,1.383,0,0,1,51.4,33.522Z" transform="translate(-18.409 -10.883)" fill="none" stroke="#37474f" stroke-linecap="round" stroke-linejoin="round" stroke-width="1"/>
        <path id="Path_2150" data-name="Path 2150" d="M46.713,29.75,44.5,31.41l2.213,1.66" transform="translate(-20.643 -12.782)" fill="none" stroke="#37474f" stroke-linecap="round" stroke-linejoin="round" stroke-width="1"/>
        <path id="Path_2151" data-name="Path 2151" d="M54.5,33.07l2.213-1.66L54.5,29.75" transform="translate(-25.11 -12.782)" fill="none" stroke="#37474f" stroke-linecap="round" stroke-linejoin="round" stroke-width="1"/>
        <line id="Line_32" data-name="Line 32" x1="1.107" y2="4.426" transform="translate(27.177 16.415)" fill="none" stroke="#37474f" stroke-linecap="round" stroke-linejoin="round" stroke-width="1"/>
      </g>
    </g>
  </g>
</svg>
