<svg id="Group_18944" data-name="Group 18944" xmlns="http://www.w3.org/2000/svg" xmlns:xlink="http://www.w3.org/1999/xlink" width="510.708" height="345.545" viewBox="0 0 510.708 345.545">
  <defs>
    <clipPath id="clip-path">
      <rect id="Rectangle_6542" data-name="Rectangle 6542" width="510.708" height="345.545" fill="none"/>
    </clipPath>
    <clipPath id="clip-path-2">
      <rect id="Rectangle_6541" data-name="Rectangle 6541" width="510.709" height="345.545" fill="none"/>
    </clipPath>
    <clipPath id="clip-path-3">
      <rect id="Rectangle_6538" data-name="Rectangle 6538" width="14.776" height="43.204" fill="none"/>
    </clipPath>
    <clipPath id="clip-path-4">
      <rect id="Rectangle_6539" data-name="Rectangle 6539" width="7.752" height="14.449" fill="none"/>
    </clipPath>
  </defs>
  <g id="Group_18952" data-name="Group 18952" clip-path="url(#clip-path)">
    <rect id="Rectangle_6532" data-name="Rectangle 6532" width="106.067" height="108.669" transform="translate(54.708 234.091)" fill="#da8b39"/>
    <rect id="Rectangle_6533" data-name="Rectangle 6533" width="99.585" height="108.669" transform="translate(43.381 234.091)" fill="#edcb76"/>
    <rect id="Rectangle_6534" data-name="Rectangle 6534" width="92.012" height="61.226" transform="translate(193.265 281.548)" fill="#da8b39"/>
    <rect id="Rectangle_6535" data-name="Rectangle 6535" width="87.338" height="61.226" transform="translate(180.164 281.548)" fill="#edcb76"/>
    <rect id="Rectangle_6536" data-name="Rectangle 6536" width="83.133" height="18.039" transform="translate(322.547 324.646)" fill="#da8b39"/>
    <rect id="Rectangle_6537" data-name="Rectangle 6537" width="81.082" height="18.039" transform="translate(310.385 324.646)" fill="#edcb76"/>
    <g id="Group_18951" data-name="Group 18951" transform="translate(0 0.001)">
      <g id="Group_18950" data-name="Group 18950" clip-path="url(#clip-path-2)">
        <path id="Path_28101" data-name="Path 28101" d="M1329.64,759.675c9.324,8.84,19.058,20.395,22.882,32.174l1.481-.937a27.178,27.178,0,0,0-.5-5.335c.586,1.166,1.556,3.058,2.09,4.327l9.063-5.742-1.252-2.283a14.723,14.723,0,0,1,1.938,1.848l4.6-2.913,7.884-6.726-1.292-2.356a14.6,14.6,0,0,1,1.914,1.824l2.469-2.105,1.329-1.134.172-.146c-2.534-4.015-8.334-10.99-8.444-11.125,1.717.628,7.247,6.555,10,9.794l1.586-1.353c-9.993-16.653-22.655-22.561-32.772-24.449a15.225,15.225,0,0,1-3.71-1.188c-3.541-1.672-9.631-5.035-12.177-9.32-4.48-7.532-16.048-7.056-16.835-4.923,0,0-1.535,1.683-1.635,5.714-.018.8-1.434,14.375,11.206,26.355" transform="translate(-1057.943 -582.778)" fill="#d25c2a"/>
        <path id="Path_28102" data-name="Path 28102" d="M1346.7,808.007s2.952,5.483-.492,9.911c0,0,2.888,4.157,4.4,4.171,2.609.024,7.71-7.033,7.71-7.033a97.825,97.825,0,0,0-4.6-9.374Z" transform="translate(-1080.276 -646.526)" fill="#d4959a"/>
        <path id="Path_28103" data-name="Path 28103" d="M1331.129,762.287s9.717,1.718,10.694-4.35,2.889-9.932-3.274-11.286-7.744.767-8.563,2.713-1.36,12.319,1.143,12.923" transform="translate(-1066.708 -598.813)" fill="#e5b0b4"/>
        <path id="Path_28104" data-name="Path 28104" d="M1329.99,735.873s12.785,9.841,11.717,16.459c-1,6.217,5.216,4.945,6.749,4.776,5.76-.634,7.873-.661,10.935,1.166,1.148.685-5.107-6.145-7.312-8.976-5.865-7.533-8.037-13.7-9.208-14.434-7.976-4.993-12.881,1.009-12.881,1.009" transform="translate(-1067.261 -588.105)" fill="#d25c2a"/>
        <path id="Path_28105" data-name="Path 28105" d="M1593.965,1458.416l3.613,9.734-3.652,1.772-6.332-7.1Z" transform="translate(-1273.976 -1170.318)" fill="#e5b0b4"/>
        <path id="Path_28106" data-name="Path 28106" d="M1616.775,1491.912l2.78,3.385-6.995,10.453s-2.911-5.819,4.215-13.838" transform="translate(-1293.538 -1197.197)" fill="#d25c2a"/>
        <path id="Path_28107" data-name="Path 28107" d="M1354.4,1063.71l23.381-5.187s3.78,5.531,15.168,50.119l17.869,29.876-9.863,5.861-22.557-30.034Z" transform="translate(-1086.844 -849.42)" fill="#333381"/>
        <path id="Path_28108" data-name="Path 28108" d="M1130.112,887.88l-.994-1.581a4.605,4.605,0,0,0-4.32-3.868s-1.6-.023-1.12,1.068.449.62,1.094,2.169a4.331,4.331,0,0,0,3.125,2.836l1.584,1.623Z" transform="translate(-901.632 -708.115)" fill="#e5b0b4"/>
        <path id="Path_28109" data-name="Path 28109" d="M1545.327,1023.006h0a1.113,1.113,0,0,1,.01-.156,27.257,27.257,0,0,0-.494-3.038l4.115.261c.055.024.6,1.232.8,1.6a.689.689,0,0,1,.075.263l.19,2.3a.612.612,0,0,1-.46.644l-.572.145a1.142,1.142,0,0,1-.2.051,1.117,1.117,0,0,1-.63-.082l-2.165-.964a1.129,1.129,0,0,1-.666-1.027" transform="translate(-1239.672 -818.357)" fill="#e5b0b4"/>
        <path id="Path_28110" data-name="Path 28110" d="M1143.637,858.243a65.745,65.745,0,0,0,4.508,7.444c2.765,3.916,6.4,7.906,9.719,7.875,6.013-.058,17.656-12.259,17.682-12.216a.375.375,0,0,1,.049.172c.081.945-1.515,4.33,2.107,14.074,1.395,3.751,6.251,10.282,7.569,16.186l18.567-4.117,4.814-1.07c-.218-.381-.652-1.256-1.489-3.095-1.1-2.422-2.742-5.891-2.742-9.56a78.84,78.84,0,0,1,.928-13.7c0-.005,0-.009,0-.015a59.757,59.757,0,0,0,10.623,4.718s4.516,8.874,7.076,15.073c.3.72,4.294-.234,4.294-.234S1225,860.9,1222.377,858.74c-4.778-3.925-12.52-13.14-21.128-14.283,0,0,.173-.606-7.616.343-1.249.152.326,4.988-5.232,5.584-5.149.551-3.421-4.053-3.376-4.173-.083.017-5.457,1.157-7.571,1.773-2.079.606-3,.425-4.673,1.811a130.969,130.969,0,0,0-14.955,14.865,87.639,87.639,0,0,0-11.71-8.188Z" transform="translate(-917.72 -677.488)" fill="#dde3f2"/>
        <path id="Path_28111" data-name="Path 28111" d="M1421.155,940.421c.45,1.8,3.2,5.324,5.329,7.477l4.814-1.07c-.218-.381-.652-1.256-1.488-3.095-1.1-2.422-2.742-5.892-2.742-9.56a78.8,78.8,0,0,1,.928-13.7c-.581-.669-1.166-1.172-1.592-1.14-1.218.094-5.9,18.464-5.248,21.088" transform="translate(-1140.366 -737.725)" fill="#ced4ea"/>
        <path id="Path_28112" data-name="Path 28112" d="M1166.458,916.82c2.765,3.916,6.4,7.906,9.719,7.875,6.014-.058,17.725-12.115,17.731-12.044.707-.924.6-3.364.357-4.515-.385-1.84-13.84,13.934-17.276,14s-8.941-5.815-10.531-5.312" transform="translate(-936.033 -728.621)" fill="#ced4ea"/>
        <path id="Path_28113" data-name="Path 28113" d="M1174.5,1357.045l-7.292,8.3-3.506-2.525,3.45-9.52Z" transform="translate(-933.822 -1085.969)" fill="#e5b0b4"/>
        <path id="Path_28114" data-name="Path 28114" d="M1139,1401.427l-1.66,4.053-12.521-1.194s3.74-5.324,14.18-2.859" transform="translate(-902.623 -1124.064)" fill="#d25c2a"/>
        <path id="Path_28115" data-name="Path 28115" d="M1232.311,1075.651a26.133,26.133,0,0,0-4.112-13.354l.016-.006-3.415-4.347-21.006,4.848s4,3.557,1.969,5.327l-25.49,13.771-16.433,39.1,12.857,5.175,18.73-32.856s37.491-5.185,36.883-17.661" transform="translate(-933.933 -848.955)" fill="#555ca3"/>
        <path id="Path_28116" data-name="Path 28116" d="M581.984,87.762s-9.864,7.7-27.378,7.629c-14.25-.054-33.563-5.247-56.75-23.906a51.049,51.049,0,0,0-16.292-8.754q-.663-.217-1.33-.416-1.062-.318-2.129-.592-1.668-.432-3.341-.762c-.139-.029-.28-.057-.419-.083-.366-.07-.733-.138-1.1-.2-16.583-2.885-32.971.956-41.44,3.574-1.71.529-3.1,1.007-4.1,1.372-1.145.415-1.784.679-1.82.693l.542-.8,35.948-52.838s.719-.4,2.06-1.024h0c.489-.226,1.06-.482,1.71-.758.937-.4,2.035-.838,3.282-1.294,12.661-4.624,40.614-10.866,69.3,9a96.523,96.523,0,0,1,13.517,11.4s16.869,15.152,46.65,3.948c0,0-23.206,18.638-16.916,53.8" transform="translate(-341.755 -3.929)" fill="#d25c2a"/>
        <path id="Path_28117" data-name="Path 28117" d="M440.872,517.049s51.7-1.971,58.288-11.089c0,0-24.074-11.558-18.581-36L443.4,466s-5.982,42.674-2.526,51.049" transform="translate(-352.918 -373.946)" fill="#2b295e"/>
        <path id="Path_28118" data-name="Path 28118" d="M856.494,917.027l4.553-1.247,7.212,11.477s-7.006.307-11.765-10.23" transform="translate(-687.3 -734.875)" fill="#221e50"/>
        <path id="Path_28119" data-name="Path 28119" d="M522.425,1098.583l2.081,4.237-9.916,9.242s-1.619-6.823,7.835-13.479" transform="translate(-412.852 -881.567)" fill="#221e50"/>
        <path id="Path_28120" data-name="Path 28120" d="M673.085,216.829l-.25-3.721a6.956,6.956,0,0,1-.894-8.712s1.393-1.976,2.3-.421.36,1.1,1.68,3.261.721,5.182.248,6.244l.456,2.964Z" transform="translate(-538.283 -163.202)" fill="#ad7041"/>
        <path id="Path_28121" data-name="Path 28121" d="M511.594,411.708a13.781,13.781,0,0,0,1.091-6l8.344-5.734c.722,7.083,1.976,8.985,1.911,11.776,0,.072-11.373.028-11.346-.045" transform="translate(-410.532 -320.965)" fill="#9e5f32"/>
        <path id="Path_28122" data-name="Path 28122" d="M501.759,361.489s9.872,2.425,11.288-3.746,3.643-10.014-2.6-11.823-8.012.264-8.986,2.209-2.233,12.571.3,13.361" transform="translate(-401.447 -277.028)" fill="#ad7041"/>
        <path id="Path_28123" data-name="Path 28123" d="M516.14,339.626a10.379,10.379,0,0,0-8.571-10.416c-6.17-1.4-1.993-6.322-1.216-7.093,0,0,4.7,1.275,9.5,2.719,10.076,3.032,1.464,13.629.286,14.79" transform="translate(-404.64 -258.486)" fill="#2b295e"/>
        <path id="Path_28124" data-name="Path 28124" d="M409.467,737.16s-8.51,15.556-11.4,20.925c-11.94,22.142-10.812,26.411-10.812,26.411s9.807,12.31,13.031,15.806c3.49,3.783,13.823,13.308,13.823,13.308l9.966-5.763s-6.844-11.252-9.634-15c-1.946-2.617-9.31-10.467-9.31-10.467s5.945-5.8,12.168-11c8.876-7.413,20.207-30.4,20.207-30.4Z" transform="translate(-310.728 -591.54)" fill="#2b295e"/>
        <path id="Path_28125" data-name="Path 28125" d="M513.371,689.289s15.148,58.068,21.7,60.868c11.35,4.851,50.205-9.757,50.205-9.757l-2.984-9.784s-10.035.131-17.327.257c-5.141.089-15.641,2.335-15.641,2.335s-3.444-32.2-9.021-41.506c-8.669-14.462-26.931-2.413-26.931-2.413" transform="translate(-411.958 -549.35)" fill="#333381"/>
        <path id="Path_28126" data-name="Path 28126" d="M455.734,499.679a1.416,1.416,0,0,0,1.336.945,170.116,170.116,0,0,0,17.139,1.367c.65,0,1.263-.013,1.828-.043a98.909,98.909,0,0,0,12.548-1.324,1.233,1.233,0,0,0,.945-2.027c-1.47-1.743-3.572-4.915-6.01-10.6-3.3-7.7-.945-22.886,1.305-33.256,1.364-6.285,2.688-10.8,2.688-10.8-4.585-1.664-10.868-2.3-16.969-2.562-.925.506-4.692,2.74-8.2,2.071-1.861-.355-1.969-1.082-1.807-1.521-8.432.256-9.778,3.8-9.778,3.8-10.288,18.968,3,48.349,4.975,53.941" transform="translate(-358.613 -354.192)" fill="#dde3f2"/>
        <path id="Path_28127" data-name="Path 28127" d="M578.825,295.069s10.363-7.723,13.205-10.63l7.064-27.476,3.438-.052s1.629,26.889.97,28.8C600.14,295.474,583.6,311,583.6,311Z" transform="translate(-464.483 -206.162)" fill="#dde3f2"/>
        <path id="Path_28128" data-name="Path 28128" d="M582.865,556.226a.7.7,0,0,0-.065.042c.65,0,1.263-.013,1.828-.042a98.924,98.924,0,0,0,12.548-1.324,1.233,1.233,0,0,0,.945-2.027c-1.47-1.743-3.572-4.915-6.01-10.6-3.3-7.7-.945-22.886,1.306-33.257l-9.9.484s-2.735,21.406-.259,29.781,1.93,15.531-.39,16.938" transform="translate(-467.205 -408.47)" fill="#ced4ea"/>
        <path id="Path_28129" data-name="Path 28129" d="M570.413,295.37s8.375,50.717,25.791,61.352c0,0,10.967-12.031,9.97-15.421,0,0-19.149-14.793-19.747-21.415s-1.452-14.432-1.034-14.9,11.146-12.617,11.359-16.467,1.047-28.111,1.047-28.111-4.82.451-6.182,0c0,0-5.9,25.574-7.1,27.1s-9.764,8.838-10.74,8.5-2.834-1.3-3.369-.63" transform="translate(-457.732 -208.966)" fill="#555ca3"/>
        <path id="Path_28130" data-name="Path 28130" d="M321.137,470.444c.775-1.4-1.343,11.994-1.012,18.374q.018.351.04.693c0,.064.007.126.01.189a48.492,48.492,0,0,0,1.457,9.8s6.166,2.855,8.781,2.517c0,0-8.806-26.543-4.549-44.038,0,0,6.737-12.9,11.3-13.849l-11.712,2.342s-6.868,8.81-8.864,11.9c-1.666,2.575-5.787,10.747-5.787,10.747l-6.338-7.211-6.843-6.246-3.215,2.848s7.992,21.908,17.637,22.321c.964.041,4-1.206,9.094-10.38" transform="translate(-236.249 -356.394)" fill="#555ca3"/>
        <path id="Path_28131" data-name="Path 28131" d="M570.364,437.4s4.387,6.78,5.185,7.511l-1.305,1.728,1.7.828s.886,16.789,1.684,19.2c0,0-7.622-27.428-7.268-29.267" transform="translate(-457.684 -350.995)" fill="#333381"/>
        <path id="Path_28132" data-name="Path 28132" d="M460.1,443.016c.178.028-11.838,10.058-12.937,19.728,0,0-1.467-2.6,1.524-9.182,0,0,2.127-5.118,2.194-6.248l2.192-.066-1.527-.731s6.165-3.937,7.28-3.8a3.443,3.443,0,0,1,1.275.3" transform="translate(-358.545 -355.26)" fill="#333381"/>
        <path id="Path_28133" data-name="Path 28133" d="M670.33,646.517a9.4,9.4,0,0,0,4.086-3.536,22.157,22.157,0,0,0,1.707-2.71c-.026.051-2.864,4.962-5.879,6Z" transform="translate(-537.842 -513.79)" fill="#2b295e"/>
        <path id="Path_28134" data-name="Path 28134" d="M424.8,673.867c0,.064.007.126.011.189a8.238,8.238,0,0,0,4.336.4l-.065-.258a5.368,5.368,0,0,1-1.29.144,11.5,11.5,0,0,1-2.992-.47" transform="translate(-340.886 -540.75)" fill="#2b295e"/>
        <path id="Path_28135" data-name="Path 28135" d="M630.307,770.183c.133.4,4.786,25.923,5.451,30.709l.8,4.254s-.067,2.061,1.4,1.728,16.418-2.122,20.14-2.191,15.687-.667,15.687-.667-12.452.909-13.383.909a22.58,22.58,0,0,0-3.19.133c-.532.133-14.889,1.048-17.371,1.853s-3.279.391-3.279,0a13.616,13.616,0,0,0-.665-2.872c-.31-.8-1.861-11.92-2.194-13.017s-3.39-20.838-3.39-20.838" transform="translate(-505.795 -618.04)" fill="#2b295e"/>
        <path id="Path_28136" data-name="Path 28136" d="M585.958,760.264c.356,0,.562-.017.573-.018l-.037-.4a12.189,12.189,0,0,1-9.016-2.711,12.977,12.977,0,0,0,8.48,3.126" transform="translate(-463.402 -607.572)" fill="#2b295e"/>
        <path id="Path_28137" data-name="Path 28137" d="M275.365,3.394l-2.692,4.34h0l-32.63,52.593-1.006,1.622L214.249,101.9l-3.669,5.912-18.2,29.333-5.466-3.391,20.647-33.279,4.28-6.9,19.984-32.21L269.9,0Z" transform="translate(-149.991 -0.003)" fill="#edcb76"/>
        <path id="Path_28138" data-name="Path 28138" d="M289.8,472.3s-2.2-1.562-4.777,1.562a3.49,3.49,0,0,0,.448,5.3s3.594.39,4.329-6.867" transform="translate(-227.883 -378.688)" fill="#ad7041"/>
        <path id="Path_28139" data-name="Path 28139" d="M1989.592,1613.166l-2.588,4.969-16.242-2.934s5.438-6.35,18.83-2.035" transform="translate(-1581.453 -1293.292)" fill="#221e50"/>
        <path id="Path_28140" data-name="Path 28140" d="M2041.9,1189.811l-27.254,31.571-14.438,51.319,14.009,4,18.447-42.161s16.14-14.681,19.512-17.582c5.471-4.707,16.695-25.311,16.695-25.311Z" transform="translate(-1605.081 -954.773)" fill="#2b295e"/>
        <path id="Path_28141" data-name="Path 28141" d="M2068.314,1193.23l-2.446,1.858a7.579,7.579,0,0,0-5.712,7.643s.2,2.626,1.913,1.68.952-.826,3.4-2.107,4.215-3.555,4.2-5.534l2.43-2.832Z" transform="translate(-1653.188 -957.517)" fill="#e5b0b4"/>
        <path id="Path_28142" data-name="Path 28142" d="M2119.109,902.909l-3.905,17.254-5.339,23.581-9.436,12.914-5.049,6.909-4.718-2.573,9.72-21.013c.894-9.148,5.794-31.952,7.719-33.307,3.383-2.383,11.007-3.764,11.007-3.764" transform="translate(-1677.668 -724.547)" fill="#f0d170"/>
        <g id="Group_18946" data-name="Group 18946" transform="translate(422.761 188.907)" opacity="0.2">
          <g id="Group_18945" data-name="Group 18945">
            <g id="Group_18944-2" data-name="Group 18944" clip-path="url(#clip-path-3)">
              <path id="Path_28143" data-name="Path 28143" d="M2154.875,963l-5.339,23.581-9.436,12.914c1.113-5.172,6.789-11.828,7.959-13.39,1.287-1.715-1.858-25.016,1.716-28.876s5,5.432,5,5.432Z" transform="translate(-2140.1 -956.288)" fill="#dc8d39"/>
            </g>
          </g>
        </g>
        <path id="Path_28144" data-name="Path 28144" d="M2238.62,844.286a87.2,87.2,0,0,1,1.791,9.937s5.215,4.508,7.385,4.1c1.885-.356,4.08-6.34,4.08-6.34s-2.078-2.951-4.129-11.346Z" transform="translate(-1796.398 -674.575)" fill="#d4959a"/>
        <path id="Path_28145" data-name="Path 28145" d="M2224.828,805.956s10.409,2.186,11.67-4.317,3.454-10.6-3.138-12.271-8.368.56-9.317,2.628-1.889,13.224.786,13.96" transform="translate(-1783.924 -632.965)" fill="#e5b0b4"/>
        <path id="Path_28146" data-name="Path 28146" d="M2235.414,774.907s.635-8.848-8.758-10.055-3.914-9.386,4.325-9.381c0,0-1.344,2.977,3.626,4.291,10.431,2.757,1.973,13.915.807,15.146" transform="translate(-1782.839 -606.233)" fill="#555ca3"/>
        <path id="Path_28147" data-name="Path 28147" d="M2342.428,1705.885l-1.663,5.349h-16.5s4.222-7.215,18.168-5.349" transform="translate(-1865.12 -1368.653)" fill="#221e50"/>
        <path id="Path_28148" data-name="Path 28148" d="M2260.989,1292.777s-6.694-85.293-15.009-101.017l-25.064-1.811.477,15.438a9.657,9.657,0,0,1,4.079,3.893l21.389,83.329Z" transform="translate(-1782.191 -954.884)" fill="#333381"/>
        <path id="Path_28149" data-name="Path 28149" d="M2303.833,1232.678a12.275,12.275,0,0,1-10.422-5.308l.334-.195a20.612,20.612,0,0,0,4.857,4.082,12.86,12.86,0,0,0,5.23,1.421" transform="translate(-1840.365 -984.756)" fill="#221e50"/>
        <path id="Path_28150" data-name="Path 28150" d="M2354.472,1359.636c-.137-7.737-.712-16.849-1.778-26.277-.163-1.441-.339-2.923-.524-4.4-.2-1.633-.421-3.285-.644-4.911a7.5,7.5,0,0,0-.592-1.77,7.214,7.214,0,0,1-.548-1.608c-.892-6.173-1.974-11.781-2.928-16.73q-.376-1.947-.731-3.814c-2.126-11.259-3.292-17.645-3.3-17.709.008.064.809,6.479,2.938,17.753q.353,1.871.731,3.816c.954,4.944,2.035,10.547,2.926,16.71a7.511,7.511,0,0,0,.579,1.718,7.2,7.2,0,0,1,.56,1.657c.223,1.624.439,3.274.643,4.906.185,1.479.361,2.959.524,4.4,1.064,9.415,1.906,18.563,2.043,26.287Z" transform="translate(-1880.501 -1029.083)" fill="#2b295e"/>
        <path id="Path_28151" data-name="Path 28151" d="M2213.363,960.4c-.165.06-3.645,2.43-19.584.286-3.535-.475-7.415-.686-9.006-5.1-3.285-10.584-6.035-52.724-5.861-52.8a48.951,48.951,0,0,1,13.33-4.217,4.6,4.6,0,0,0,3.871,2.406c2.412.067,5.952-1.8,7.844-2.909a52.871,52.871,0,0,1,7.548,1.147c.242.054,1.162,9.666,1.784,21.162.184,3.415.343,7,.449,10.542.413,13.766,2.28,28.517-.375,29.477" transform="translate(-1748.479 -720.662)" fill="#f0d170"/>
        <g id="Group_18949" data-name="Group 18949" transform="translate(457.508 197.336)" opacity="0.2">
          <g id="Group_18948" data-name="Group 18948">
            <g id="Group_18947" data-name="Group 18947" clip-path="url(#clip-path-4)">
              <path id="Path_28152" data-name="Path 28152" d="M2323.747,1011.88c-2.552,1.165-7.525,2.976-7.737-.47-.285-4.646,3.5-12.151,5-12.436.875-.168,1.727,1.2,2.284,2.364.185,3.415.343,7,.449,10.542" transform="translate(-2315.996 -998.959)" fill="#dc8d39"/>
            </g>
          </g>
        </g>
        <rect id="Rectangle_6540" data-name="Rectangle 6540" width="23.241" height="30.932" transform="translate(442.709 214.358) rotate(-23.879)" fill="#d25c2a"/>
        <path id="Path_28153" data-name="Path 28153" d="M2265.869,1136.138l-.76.946a7.625,7.625,0,0,0-9.34,2.218s-1.543,2.154.393,2.532,1.268-.024,3.982.563,5.547-.027,6.808-1.569l1.39-1.722Z" transform="translate(-1809.692 -911.703)" fill="#e5b0b4"/>
        <path id="Path_28154" data-name="Path 28154" d="M2305.267,898.069s10.84.088,12.289,1.16,15.937,25.086,16.178,34.306c0,0-8.989,9.495-25.409,15.069l-3.288-3.324s12.379-12.52,18.281-14.807c0,0-9.767-9.911-11.913-15.248s-6.139-17.157-6.139-17.157" transform="translate(-1849.695 -720.663)" fill="#f0d170"/>
        <path id="Path_28155" data-name="Path 28155" d="M509.324,1735.011h-189.4c-.66-.025-1.339-.041-2.046-.041H17.9a1.366,1.366,0,0,0-.137-.028H1.4a1.407,1.407,0,0,0-1.4,1.369s-.008.008-.008.013v.084c0,.009.015.016.016.025a1.4,1.4,0,0,0,1.388,1.329H317.876c.449,0,.882-.01,1.314-.021H509.324a1.359,1.359,0,0,0,1.385-1.324v-.083a1.359,1.359,0,0,0-1.385-1.324" transform="translate(0 -1392.218)" fill="#b7bed4"/>
      </g>
    </g>
  </g>
</svg>
