<svg xmlns="http://www.w3.org/2000/svg" xmlns:xlink="http://www.w3.org/1999/xlink" width="1366" height="318.01" viewBox="0 0 1366 318.01">
  <defs>
    <clipPath id="clip-path">
      <rect id="base" width="1366" height="318.01" fill="#4d7698"/>
    </clipPath>
    <clipPath id="clip-path-2">
      <rect id="crop" width="212.88" height="233.482" fill="none"/>
    </clipPath>
  </defs>
  <g id="Group_19077" data-name="Group 19077" transform="translate(0 -6174.85)">
    <g id="Newsletter" transform="translate(0 -1212.17)">
      <g id="Base-2" data-name="Base" transform="translate(0 7387.02)">
        <g id="base-3" data-name="base">
          <path id="base-4" data-name="base" d="M0,0H1366V318.01H0Z" fill="#4d7698"/>
          <g id="Clip" clip-path="url(#clip-path)">
            <ellipse id="base-5" data-name="base" cx="211.117" cy="234.998" rx="211.117" ry="234.998" transform="translate(1015.254 -260.431)" fill="#fff" opacity="0.102"/>
            <g id="lines" transform="translate(839.506 -114.05)" clip-path="url(#clip-path-2)">
              <g id="Group_28" data-name="Group 28" transform="translate(-752.165 -78.393)" style="mix-blend-mode: overlay;isolation: isolate">
                <g id="Group_10" data-name="Group 10" transform="translate(768.791 159.76)">
                  <path id="Path_29" data-name="Path 29" d="M23.052,130.943l125.561-29.621c-3.781,1.5-7.773,2.973-11.914,4.418L40.4,128.458Q31.935,129.774,23.052,130.943Z" transform="translate(-23.052 -101.321)" fill="#fff"/>
                </g>
                <g id="Group_11" data-name="Group 11" transform="translate(690.255 138.938)">
                  <path id="Path_30" data-name="Path 30" d="M-85.84,133.128l244.73-57.735c-1.2.835-2.431,1.671-3.751,2.5L-76.567,132.555Q-81.159,132.863-85.84,133.128Z" transform="translate(85.84 -75.394)" fill="#fff"/>
                </g>
                <g id="Group_12" data-name="Group 12" transform="translate(633.807 123.469)">
                  <path id="Path_31" data-name="Path 31" d="M-164.108,131.409,154.986,56.131q-.9,1.03-1.891,2.06L-156.635,131.26C-159.126,131.317-161.617,131.359-164.108,131.409Z" transform="translate(164.108 -56.131)" fill="#fff"/>
                </g>
                <g id="Group_13" data-name="Group 13" transform="translate(585.851 110.145)">
                  <path id="Path_32" data-name="Path 32" d="M-230.6,128.219l375.9-88.68c-.27.6-.54,1.211-.87,1.812L-224.118,128.3C-226.248,128.276-228.409,128.255-230.6,128.219Z" transform="translate(230.6 -39.539)" fill="#fff"/>
                </g>
                <g id="Group_14" data-name="Group 14" transform="translate(542.667 98.131)">
                  <path id="Path_33" data-name="Path 33" d="M-290.476,124.225,131.912,24.579a10.357,10.357,0,0,1-.18,1.657L-284.5,124.43C-286.484,124.374-288.465,124.3-290.476,124.225Z" transform="translate(290.476 -24.579)" fill="#fff"/>
                </g>
                <g id="Group_15" data-name="Group 15" transform="translate(502.754 87.044)">
                  <path id="Path_34" data-name="Path 34" d="M-345.816,119.68,115.824,10.773a13.678,13.678,0,0,1,.3,1.543L-340.294,119.991C-342.125,119.892-343.956,119.793-345.816,119.68Z" transform="translate(345.816 -10.773)" fill="#fff"/>
                </g>
                <g id="Group_16" data-name="Group 16" transform="translate(465.272 76.729)">
                  <path id="Path_35" data-name="Path 35" d="M-397.787,114.75,97.4-2.072c.27.474.51.956.75,1.437l-490.72,115.767C-394.305,115-396.046,114.884-397.787,114.75Z" transform="translate(397.787 2.072)" fill="#fff"/>
                </g>
                <g id="Group_17" data-name="Group 17" transform="translate(428.96 67.073)">
                  <path id="Path_36" data-name="Path 36" d="M-448.134,109.72,76.707-14.1a12.878,12.878,0,0,1,1.11,1.338l-520.76,122.853C-444.683,109.967-446.393,109.84-448.134,109.72Z" transform="translate(448.134 14.097)" fill="#fff"/>
                </g>
                <g id="Group_18" data-name="Group 18" transform="translate(392.168 57.975)">
                  <path id="Path_37" data-name="Path 37" d="M-499.147,104.926,53.393-25.425c.48.418.96.842,1.47,1.267l-548.7,129.445Q-496.491,105.1-499.147,104.926Z" transform="translate(499.147 25.425)" fill="#fff"/>
                </g>
                <g id="Group_19" data-name="Group 19" transform="translate(354.806 49.43)">
                  <path id="Path_38" data-name="Path 38" d="M-550.951,100.4,27.518-36.066q.945.595,1.8,1.189L-545.519,100.734C-547.35,100.621-549.15,100.508-550.951,100.4Z" transform="translate(550.951 36.066)" fill="#fff"/>
                </g>
                <g id="Group_20" data-name="Group 20" transform="translate(316.843 41.395)">
                  <path id="Path_39" data-name="Path 39" d="M-603.587,96.159-.69-46.072C0-45.7.69-45.336,1.38-44.96L-598.125,96.47C-599.956,96.371-601.786,96.265-603.587,96.159Z" transform="translate(603.587 46.072)" fill="#fff"/>
                </g>
                <g id="Group_21" data-name="Group 21" transform="translate(277.951 33.855)">
                  <path id="Path_40" data-name="Path 40" d="M-657.513,92.242l626.094-147.7c.81.347,1.591.694,2.371,1.048L-651.9,92.525C-653.792,92.426-655.652,92.334-657.513,92.242Z" transform="translate(657.513 55.461)" fill="#fff"/>
                </g>
                <g id="Group_22" data-name="Group 22" transform="translate(238.008 26.825)">
                  <path id="Path_41" data-name="Path 41" d="M-712.9,88.7-64.714-64.215q1.4.488,2.7.977L-707.1,88.946C-709.054,88.854-710.974,88.776-712.9,88.7Z" transform="translate(712.895 64.215)" fill="#fff"/>
                </g>
                <g id="Group_23" data-name="Group 23" transform="translate(196.714 20.297)">
                  <path id="Path_42" data-name="Path 42" d="M-770.15,85.6l669.488-157.94c.99.3,1.981.6,3,.906L-764.118,85.788Z" transform="translate(770.15 72.343)" fill="#fff"/>
                </g>
                <g id="Group_24" data-name="Group 24" transform="translate(153.65 14.322)">
                  <path id="Path_43" data-name="Path 43" d="M-823.587,83.183c-2.1-.042-4.2-.085-6.272-.12L-139.574-79.784c1.11.269,2.221.545,3.3.821Z" transform="translate(829.859 79.784)" fill="#fff"/>
                </g>
                <g id="Group_25" data-name="Group 25" transform="translate(107.885 8.913)">
                  <path id="Path_44" data-name="Path 44" d="M-886.531,81.3c-2.281-.014-4.531-.021-6.782-.014L-181.992-86.519c1.26.241,2.491.481,3.721.736Z" transform="translate(893.314 86.519)" fill="#fff"/>
                </g>
                <g id="Group_26" data-name="Group 26" transform="translate(58.009 4.106)">
                  <path id="Path_45" data-name="Path 45" d="M-954.966,80.479c-2.521.042-5.012.1-7.5.156l733.919-173.14c1.38.219,2.731.432,4.081.651Z" transform="translate(962.469 92.505)" fill="#fff"/>
                </g>
                <g id="Group_27" data-name="Group 27">
                  <path id="Path_46" data-name="Path 46" d="M-1033.777,81.532c-3.061.17-6.122.354-9.123.545l761.738-179.7c1.5.17,3.031.354,4.5.538Z" transform="translate(1042.9 97.619)" fill="#fff"/>
                </g>
              </g>
            </g>
          </g>
        </g>
      </g>
    </g>
    <path id="Rectangle_6422" data-name="Rectangle 6422" d="M0,0H680a70,70,0,0,1,70,70v97a70,70,0,0,1-70,70H0a0,0,0,0,1,0,0V0A0,0,0,0,1,0,0Z" transform="translate(0 6215)" fill="#fcecdb" opacity="0.1"/>
  </g>
</svg>
