<svg xmlns="http://www.w3.org/2000/svg" xmlns:xlink="http://www.w3.org/1999/xlink" width="36" height="32" viewBox="0 0 36 32">
  <defs>
    <clipPath id="clip-path">
      <rect id="Rectangle_313" data-name="Rectangle 313" width="36" height="32" transform="translate(-0.129 -0.363)" fill="none"/>
    </clipPath>
  </defs>
  <g id="Group_16751" data-name="Group 16751" transform="translate(0.129 0.363)">
    <g id="Group_16751-2" data-name="Group 16751" clip-path="url(#clip-path)">
      <path id="Path_2124" data-name="Path 2124" d="M38.162,21.137H50.079a.558.558,0,0,0,.558-.558V5.5" transform="translate(-16.85 -2.428)" fill="none" stroke="#37474f" stroke-linecap="round" stroke-linejoin="round" stroke-width="1"/>
      <path id="Path_2125" data-name="Path 2125" d="M22.5,18v8.1a.559.559,0,0,0,.558.558h4.054" transform="translate(-9.934 -7.948)" fill="none" stroke="#37474f" stroke-linecap="round" stroke-linejoin="round" stroke-width="1"/>
      <line id="Line_4" data-name="Line 4" y1="1.955" transform="translate(12.566 3.072)" fill="#64b5f6"/>
      <line id="Line_5" data-name="Line 5" y1="1.955" transform="translate(12.566 3.072)" fill="none" stroke="#37474f" stroke-linecap="round" stroke-linejoin="round" stroke-width="1"/>
      <line id="Line_6" data-name="Line 6" y1="1.675" transform="translate(12.566 6.702)" fill="#ffca28"/>
      <line id="Line_7" data-name="Line 7" y1="1.675" transform="translate(12.566 6.702)" fill="none" stroke="#37474f" stroke-linecap="round" stroke-linejoin="round" stroke-width="1"/>
      <path id="Path_2126" data-name="Path 2126" d="M43.514.5H20.058a.559.559,0,0,0-.558.558v.558a.559.559,0,0,0,.558.558H43.514a.559.559,0,0,0,.558-.558V1.058A.559.559,0,0,0,43.514.5" transform="translate(-8.61 -0.221)" fill="#64b5f6"/>
      <rect id="Rectangle_311" data-name="Rectangle 311" width="24.573" height="1.675" rx="0.838" transform="translate(10.89 0.279)" fill="none" stroke="#37474f" stroke-linecap="round" stroke-linejoin="round" stroke-width="1"/>
      <path id="Path_2127" data-name="Path 2127" d="M.5,45.785V37.55A2.793,2.793,0,0,1,2.159,35l3.368-1.5L7.2,35.993l1.673-2.5L11,34.458A5.591,5.591,0,0,1,12.648,35.6l2.045,2.045,2.962-2.962,1.975,1.974L15.682,40.6a1.4,1.4,0,0,1-1.975,0l-2.594-2.594,0,7.777" transform="translate(-0.221 -14.789)" fill="#ffca28"/>
      <circle id="Ellipse_525" data-name="Ellipse 525" cx="4.468" cy="4.468" r="4.468" transform="translate(2.513 9.215)" fill="none" stroke="#37474f" stroke-linecap="round" stroke-linejoin="round" stroke-width="1"/>
      <path id="Path_2128" data-name="Path 2128" d="M12.066,18.385l.333-.277a4.467,4.467,0,0,0-7.9,2.86h.422A11.17,11.17,0,0,0,12.066,18.385Z" transform="translate(-1.987 -7.286)" fill="none" stroke="#37474f" stroke-linecap="round" stroke-linejoin="round" stroke-width="1"/>
      <path id="Path_2129" data-name="Path 2129" d="M11.18,32.239A4.448,4.448,0,0,1,9.5,31.91V32.8l1.677,2.492,1.674-2.5v-.881A4.455,4.455,0,0,1,11.18,32.239Z" transform="translate(-4.195 -14.089)" fill="none" stroke="#37474f" stroke-linecap="round" stroke-linejoin="round" stroke-width="1"/>
      <path id="Path_2130" data-name="Path 2130" d="M.5,45.785V37.55A2.793,2.793,0,0,1,2.159,35l3.368-1.5L7.2,35.993l1.673-2.5L11,34.458A5.591,5.591,0,0,1,12.648,35.6l2.045,2.045,2.962-2.962,1.975,1.974L15.682,40.6a1.4,1.4,0,0,1-1.975,0l-2.594-2.594,0,7.777" transform="translate(-0.221 -14.789)" fill="none" stroke="#37474f" stroke-linecap="round" stroke-linejoin="round" stroke-width="1"/>
      <line id="Line_8" data-name="Line 8" y2="6.699" transform="translate(3.072 24.296)" fill="none" stroke="#37474f" stroke-linecap="round" stroke-linejoin="round" stroke-width="1"/>
      <path id="Path_2131" data-name="Path 2131" d="M12.792,44.688l-1.391,1.4-1.4-1.4.838-6.72h1.117Z" transform="translate(-4.415 -16.764)" fill="#64b5f6"/>
      <path id="Path_2132" data-name="Path 2132" d="M12.792,44.688l-1.391,1.4-1.4-1.4.838-6.72h1.117Z" transform="translate(-4.415 -16.764)" fill="none" stroke="#37474f" stroke-linecap="round" stroke-linejoin="round" stroke-width="1"/>
      <path id="Path_2133" data-name="Path 2133" d="M9.279,33.5,9,35.994h3.909l-.279-2.5-1.673,2.5Z" transform="translate(-3.974 -14.79)" fill="none" stroke="#37474f" stroke-linecap="round" stroke-linejoin="round" stroke-width="1"/>
      <path id="Path_2134" data-name="Path 2134" d="M32.631,33.878h0a1.4,1.4,0,0,1,1.978,1.971v0" transform="translate(-14.407 -14.778)" fill="none" stroke="#37474f" stroke-linecap="round" stroke-linejoin="round" stroke-width="1"/>
      <rect id="Rectangle_312" data-name="Rectangle 312" width="8.936" height="6.702" rx="1" transform="translate(23.177 24.294)" fill="none" stroke="#37474f" stroke-linecap="round" stroke-linejoin="round" stroke-width="1"/>
      <path id="Path_2135" data-name="Path 2135" d="M32.058,53.5h5.026v1.117H32.058a.558.558,0,0,1,0-1.117Z" transform="translate(-13.908 -23.622)" fill="none" stroke="#37474f" stroke-linecap="round" stroke-linejoin="round" stroke-width="1"/>
      <line id="Line_9" data-name="Line 9" x2="20.105" transform="translate(14.799 30.995)" fill="none" stroke="#37474f" stroke-linecap="round" stroke-linejoin="round" stroke-width="1"/>
      <circle id="Ellipse_526" data-name="Ellipse 526" cx="1" cy="1" r="1" transform="translate(26.871 26.637)" fill="none" stroke="#37474f" stroke-linecap="round" stroke-linejoin="round" stroke-width="1"/>
      <circle id="Ellipse_527" data-name="Ellipse 527" cx="3.351" cy="3.351" r="3.351" transform="translate(16.196 6.981)" fill="none" stroke="#37474f" stroke-linecap="round" stroke-linejoin="round" stroke-width="1"/>
      <path id="Path_2136" data-name="Path 2136" d="M34.72,18.22a3.351,3.351,0,1,1-2.37-5.72v3.351Z" transform="translate(-12.804 -5.519)" fill="none" stroke="#37474f" stroke-linecap="round" stroke-linejoin="round" stroke-width="1"/>
      <path id="Path_2137" data-name="Path 2137" d="M35,12.5a3.351,3.351,0,0,1,3.351,3.351H35Z" transform="translate(-15.453 -5.519)" fill="#ef5350"/>
      <path id="Path_2138" data-name="Path 2138" d="M35,12.5a3.351,3.351,0,0,1,3.351,3.351H35Z" transform="translate(-15.453 -5.519)" fill="none" stroke="#37474f" stroke-linecap="round" stroke-linejoin="round" stroke-width="1"/>
      <line id="Line_10" data-name="Line 10" x2="4.468" transform="translate(25.69 9.773)" fill="#ef5350"/>
      <line id="Line_11" data-name="Line 11" x2="4.468" transform="translate(25.69 9.773)" fill="none" stroke="#37474f" stroke-linecap="round" stroke-linejoin="round" stroke-width="1"/>
      <line id="Line_12" data-name="Line 12" x2="1.955" transform="translate(25.69 7.54)" fill="#ef5350"/>
      <line id="Line_13" data-name="Line 13" x2="1.955" transform="translate(25.69 7.54)" fill="none" stroke="#37474f" stroke-linecap="round" stroke-linejoin="round" stroke-width="1"/>
      <line id="Line_14" data-name="Line 14" x2="4.468" transform="translate(25.69 11.449)" fill="#ef5350"/>
      <line id="Line_15" data-name="Line 15" x2="4.468" transform="translate(25.69 11.449)" fill="none" stroke="#37474f" stroke-linecap="round" stroke-linejoin="round" stroke-width="1"/>
      <line id="Line_16" data-name="Line 16" x2="4.468" transform="translate(25.69 13.124)" fill="#ef5350"/>
      <line id="Line_17" data-name="Line 17" x2="4.468" transform="translate(25.69 13.124)" fill="none" stroke="#37474f" stroke-linecap="round" stroke-linejoin="round" stroke-width="1"/>
    </g>
  </g>
</svg>
