<svg xmlns="http://www.w3.org/2000/svg" width="31.62" height="29.245" viewBox="0 0 31.62 29.245">
  <g id="Application" transform="translate(-4.75 -14)">
    <path id="Path_2097" data-name="Path 2097" d="M107.205,192.768H100.03l.927-3.87.215-.9h4.89l.215.9Z" transform="translate(-83.059 -151.681)" fill="#72c2e9"/>
    <path id="Path_2098" data-name="Path 2098" d="M112.581,188.9H107.26l.215-.9h4.89Z" transform="translate(-89.361 -151.681)" fill="#4ba5c8"/>
    <rect id="Rectangle_304" data-name="Rectangle 304" width="30.977" height="21.998" rx="10" transform="translate(5.071 14.321)" fill="#72c2e9"/>
    <rect id="Rectangle_305" data-name="Rectangle 305" width="18.15" height="27.129" transform="translate(34.124 16.245) rotate(90)" fill="#efefef"/>
    <path id="Path_2099" data-name="Path 2099" d="M58.319,54.876v6.038L56.812,60.8l.231,3.037.874-.874.4.4V65.9a.641.641,0,0,1-.641.641H43.311a.641.641,0,0,1-.641-.641V54.871a.641.641,0,0,1,.641-.641H57.677a.641.641,0,0,1,.641.646Z" transform="translate(-33.056 -35.07)" fill="#f0c020"/>
    <path id="Path_2100" data-name="Path 2100" d="M148.325,99.479l-1.507-.114.231,3.037.874-.874.4.4V103.2l-.4-.4-.239.239a.9.9,0,0,1-1.53-.567l-.231-3.035a.9.9,0,0,1,.963-.963l1.439.109Z" transform="translate(-123.062 -73.635)" fill="#e8a61e"/>
    <path id="Path_2101" data-name="Path 2101" d="M81.938,54.27H70.5l.8,1.889a.641.641,0,0,0,.59.385H82.579V54.911A.641.641,0,0,0,81.938,54.27Z" transform="translate(-57.316 -35.105)" fill="#fb5e3d"/>
    <path id="Path_2102" data-name="Path 2102" d="M53.147,53.739H29.866a.321.321,0,1,1,0-.641h22.96V37.321a.321.321,0,1,1,.641,0v16.1A.321.321,0,0,1,53.147,53.739Zm-24.564,0h-.513a.321.321,0,1,1,0-.641h.513a.321.321,0,1,1,0,.641Z" transform="translate(-20.05 -20.05)" fill="#fff"/>
    <rect id="Rectangle_306" data-name="Rectangle 306" width="12.334" height="1.838" rx="0.919" transform="translate(14.392 41.087)" fill="#72c2e9"/>
    <rect id="Rectangle_307" data-name="Rectangle 307" width="2.882" height="2.882" rx="1.441" transform="translate(28.544 19.165)" fill="#fb5e3d"/>
    <rect id="Rectangle_308" data-name="Rectangle 308" width="2.882" height="2.882" rx="1.441" transform="translate(28.544 23.879)" fill="#13bf6d"/>
    <rect id="Rectangle_309" data-name="Rectangle 309" width="2.882" height="2.882" rx="1.441" transform="translate(28.544 28.593)" fill="#f0c020"/>
    <path id="Path_2103" data-name="Path 2103" d="M156.523,107.992l-1.061,1.061-1.035-1.036-.4-.4-.874.874-.231-3.037,1.507.114,1.53.117-.872.874Z" transform="translate(-129.164 -79.72)" fill="#efefef"/>
    <rect id="Rectangle_310" data-name="Rectangle 310" width="9.492" height="3.717" rx="1.859" transform="translate(12.692 23.043)" fill="#efefef"/>
    <path id="Path_2104" data-name="Path 2104" d="M36.368,15.6a1.606,1.606,0,0,0-1.6-1.6H6.353a1.606,1.606,0,0,0-1.6,1.6V35.036a1.606,1.606,0,0,0,1.6,1.6h4.563a.321.321,0,1,0,0-.641H6.353a.966.966,0,0,1-.962-.962V15.6a.966.966,0,0,1,.962-.962H34.765a.966.966,0,0,1,.962.962V35.036a.966.966,0,0,1-.962.962H13.481a.321.321,0,1,0,0,.641h4.233l-.989,4.126H15.314a1.24,1.24,0,0,0,0,2.479h10.5a1.24,1.24,0,0,0,0-2.479H24.4l-.989-4.126H34.766a1.606,1.606,0,0,0,1.6-1.6Zm-10.56,25.8a.6.6,0,0,1,0,1.2H15.31a.6.6,0,0,1,0-1.2Zm-2.068-.641H17.378l.989-4.126h4.384Z"/>
    <circle id="Ellipse_523" data-name="Ellipse 523" cx="0.321" cy="0.321" r="0.321" transform="translate(11.878 35.998)"/>
    <circle id="Ellipse_524" data-name="Ellipse 524" cx="0.321" cy="0.321" r="0.321" transform="translate(33.803 20.67)"/>
    <path id="Path_2105" data-name="Path 2105" d="M47.52,29.321A.319.319,0,0,0,47.2,29H20.071a.322.322,0,0,0-.321.321v18.15a.321.321,0,0,0,.321.321H47.2a.319.319,0,0,0,.321-.321V35.349a.321.321,0,0,0-.641,0v11.8H20.391V29.641H46.879v3.143a.321.321,0,1,0,.641,0Z" transform="translate(-13.076 -13.076)"/>
    <path id="Path_2106" data-name="Path 2106" d="M191.274,52.732a.962.962,0,0,0-.962-.962h-1.6a.962.962,0,0,0-.962.962v1.6a.962.962,0,0,0,.962.962h1.6a.962.962,0,0,0,.962-.962Zm-.641,1.6a.321.321,0,0,1-.321.321h-1.6a.321.321,0,0,1-.321-.321v-1.6a.321.321,0,0,1,.321-.321h1.6a.321.321,0,0,1,.321.321Z" transform="translate(-159.527 -32.925)"/>
    <path id="Path_2107" data-name="Path 2107" d="M191.274,89.462a.962.962,0,0,0-.962-.962h-1.6a.962.962,0,0,0-.962.962v1.6a.962.962,0,0,0,.962.962h1.6a.962.962,0,0,0,.962-.962Zm-.641,1.6a.321.321,0,0,1-.321.321h-1.6a.321.321,0,0,1-.321-.321v-1.6a.321.321,0,0,1,.321-.321h1.6a.321.321,0,0,1,.321.321Z" transform="translate(-159.527 -64.944)"/>
    <path id="Path_2108" data-name="Path 2108" d="M190.312,125.27h-1.6a.962.962,0,0,0-.962.962v1.6a.962.962,0,0,0,.962.962h1.6a.962.962,0,0,0,.962-.962v-1.6A.962.962,0,0,0,190.312,125.27Zm.321,2.565a.321.321,0,0,1-.321.321h-1.6a.321.321,0,0,1-.321-.321v-1.6a.321.321,0,0,1,.321-.321h1.6a.321.321,0,0,1,.321.321Z" transform="translate(-159.527 -96.997)"/>
    <path id="Path_2109" data-name="Path 2109" d="M53.421,64h-.85a.321.321,0,0,0,0,.641h.85a.321.321,0,1,0,0-.641Z" transform="translate(-41.407 -43.587)"/>
    <path id="Path_2110" data-name="Path 2110" d="M55.5,51.77H41.132a.962.962,0,0,0-.962.962V63.763a.962.962,0,0,0,.962.962H55.5a.962.962,0,0,0,.962-.962V62l.487.489a.322.322,0,0,0,.454,0l1.061-1.061a.323.323,0,0,0,0-.454L57.25,59.76l.641-.641a.321.321,0,0,0-.2-.546l-1.234-.094V52.732a.962.962,0,0,0-.957-.962Zm0,.641a.321.321,0,0,1,.321.321v1.312H45.447a.321.321,0,0,1-.3-.192l-.608-1.437Zm.321,11.347a.321.321,0,0,1-.321.321H41.132a.321.321,0,0,1-.321-.321V52.727a.321.321,0,0,1,.321-.321h2.715l.714,1.687a.958.958,0,0,0,.885.587H55.819v3.738l-1.162-.087a.319.319,0,0,0-.344.344l.231,3.037a.321.321,0,0,0,.546.2l.641-.641.082.082Zm1.131-4.6-.385.385a.323.323,0,0,0,0,.454L57.776,61.2l-.6.6L56.368,61h0l-.4-.4a.322.322,0,0,0-.454,0l-.385.385-.15-1.969Z" transform="translate(-30.877 -32.925)"/>
    <path id="Path_2111" data-name="Path 2111" d="M73.6,82H64.875a.707.707,0,0,0-.705.705v2.95a.705.705,0,0,0,.705.705H73.6a.705.705,0,0,0,.705-.705v-2.95A.707.707,0,0,0,73.6,82Zm.064,3.653a.064.064,0,0,1-.064.064H64.875a.064.064,0,0,1-.064-.064V82.7a.064.064,0,0,1,.064-.064H73.6a.064.064,0,0,1,.064.064Z" transform="translate(-51.798 -59.278)"/>
    <path id="Path_2112" data-name="Path 2112" d="M66.442,123.5H64.491a.321.321,0,0,0,0,.641h1.951a.321.321,0,1,0,0-.641Z" transform="translate(-51.798 -95.455)"/>
    <path id="Path_2113" data-name="Path 2113" d="M66.442,134.63H64.491a.321.321,0,1,0,0,.641h1.951a.321.321,0,1,0,0-.641Z" transform="translate(-51.798 -105.157)"/>
    <path id="Path_2114" data-name="Path 2114" d="M95.84,123.5h-1.95a.321.321,0,0,0,0,.641h1.95a.321.321,0,0,0,0-.641Z" transform="translate(-77.427 -95.455)"/>
    <path id="Path_2115" data-name="Path 2115" d="M95.84,134.63h-1.95a.321.321,0,1,0,0,.641h1.95a.321.321,0,1,0,0-.641Z" transform="translate(-77.427 -105.157)"/>
    <path id="Path_2116" data-name="Path 2116" d="M125.232,123.5h-1.951a.321.321,0,0,0,0,.641h1.951a.321.321,0,0,0,0-.641Z" transform="translate(-103.047 -95.455)"/>
    <path id="Path_2117" data-name="Path 2117" d="M125.232,134.63h-1.951a.321.321,0,1,0,0,.641h1.951a.321.321,0,1,0,0-.641Z" transform="translate(-103.047 -105.157)"/>
    <path id="Path_2118" data-name="Path 2118" d="M91.764,102.041a.321.321,0,1,0,.454,0A.332.332,0,0,0,91.764,102.041Z" transform="translate(-75.771 -76.669)"/>
    <path id="Path_2119" data-name="Path 2119" d="M101.264,102.041a.321.321,0,1,0,.454,0A.332.332,0,0,0,101.264,102.041Z" transform="translate(-84.052 -76.669)"/>
    <path id="Path_2120" data-name="Path 2120" d="M110.764,102.041a.321.321,0,1,0,.454,0A.332.332,0,0,0,110.764,102.041Z" transform="translate(-92.334 -76.669)"/>
    <path id="Path_2121" data-name="Path 2121" d="M150.881,61.271h.064a.321.321,0,1,0,0-.641h-.064a.321.321,0,1,0,0,.641Z" transform="translate(-127.107 -40.649)"/>
    <path id="Path_2122" data-name="Path 2122" d="M139.321,61.271h.064a.321.321,0,0,0,0-.641h-.064a.321.321,0,1,0,0,.641Z" transform="translate(-117.03 -40.649)"/>
    <path id="Path_2123" data-name="Path 2123" d="M127.761,61.271h.064a.321.321,0,0,0,0-.641h-.064a.321.321,0,0,0,0,.641Z" transform="translate(-106.953 -40.649)"/>
  </g>
</svg>
