<svg id="Group_1934" data-name="Group 1934" xmlns="http://www.w3.org/2000/svg" xmlns:xlink="http://www.w3.org/1999/xlink" width="110.024" height="75.343" viewBox="0 0 110.024 75.343">
  <defs>
    <clipPath id="clip-path">
      <rect id="Rectangle_120" data-name="Rectangle 120" width="110.024" height="75.343" fill="none"/>
    </clipPath>
  </defs>
  <g id="Group_1933" data-name="Group 1933" clip-path="url(#clip-path)">
    <path id="Path_2681" data-name="Path 2681" d="M83.386,0H12.452a2.073,2.073,0,0,0-2.071,2.073V44.624A2.074,2.074,0,0,0,12.452,46.7h28.39v3.38H26.58a1.689,1.689,0,0,0-1.687,1.692v1.268a1.688,1.688,0,0,0,1.687,1.691H69.26a1.69,1.69,0,0,0,1.691-1.691V51.768a1.69,1.69,0,0,0-1.691-1.692H55V46.7H83.386a2.074,2.074,0,0,0,2.071-2.071V2.073A2.073,2.073,0,0,0,83.386,0" transform="translate(7.187 -0.001)" fill="#14b0bf"/>
    <rect id="Rectangle_114" data-name="Rectangle 114" width="64.523" height="39.559" transform="translate(22.9 3.635)" fill="#d5ecfc"/>
    <path id="Path_2682" data-name="Path 2682" d="M1.662,58.213A1.666,1.666,0,0,1,0,56.543V25.909a1.664,1.664,0,0,1,1.662-1.667H50.781a1.669,1.669,0,0,1,1.67,1.667V56.543a1.671,1.671,0,0,1-1.67,1.67Z" transform="translate(0 16.782)" fill="#284962"/>
    <rect id="Rectangle_115" data-name="Rectangle 115" width="42.968" height="26.143" transform="translate(5.446 44.938)" fill="#fff"/>
    <path id="Path_2683" data-name="Path 2683" d="M2.23,36.308A1.47,1.47,0,1,1,3.7,34.837,1.469,1.469,0,0,1,2.23,36.308" transform="translate(0.525 23.1)" fill="#fff"/>
    <path id="Path_2684" data-name="Path 2684" d="M1.926,41.076a.586.586,0,0,1-.587-.587V37.055a.589.589,0,1,1,1.178,0v3.434a.59.59,0,0,1-.591.587" transform="translate(0.927 25.244)" fill="#fff"/>
    <path id="Path_2685" data-name="Path 2685" d="M1.926,33.976a.584.584,0,0,1-.587-.587v-3.43a.589.589,0,1,1,1.178,0v3.43a.588.588,0,0,1-.591.587" transform="translate(0.927 20.331)" fill="#fff"/>
    <path id="Path_2686" data-name="Path 2686" d="M21.242,33.09a3.782,3.782,0,1,1-3.782-3.782,3.779,3.779,0,0,1,3.782,3.782" transform="translate(9.469 20.289)" fill="#ffb700"/>
    <path id="Path_2687" data-name="Path 2687" d="M25.328,45.719H11.964c.6-6.515,3.363-11.445,6.681-11.445s6.084,4.93,6.683,11.445" transform="translate(8.283 23.727)" fill="#ffb700"/>
    <path id="Path_2688" data-name="Path 2688" d="M23.826,38.457l-.875-.736a5.542,5.542,0,1,0-8.746-.33l-.929.668a6.683,6.683,0,1,1,10.55.4" transform="translate(8.323 19.025)" fill="#14b0bf"/>
    <path id="Path_2689" data-name="Path 2689" d="M20.8,33.267a3.938,3.938,0,0,1-4.749-.359l.445-.5a3.259,3.259,0,0,0,4.053.218Z" transform="translate(11.112 22.433)" fill="#14b0bf"/>
    <path id="Rectangle_116" data-name="Rectangle 116" d="M.239,0h.867a.239.239,0,0,1,.239.239v2.5a.24.24,0,0,1-.24.24H.24A.24.24,0,0,1,0,2.738V.239A.239.239,0,0,1,.239,0Z" transform="matrix(0.234, -0.972, 0.972, 0.234, 26.525, 55.889)" fill="#285a73"/>
    <path id="Path_2690" data-name="Path 2690" d="M13.732,32.1a.927.927,0,0,0-1.286-.293l-.638.4a.935.935,0,0,0-.293,1.288l1.628,2.591a.933.933,0,0,0,1.288.293l.636-.4a.927.927,0,0,0,.294-1.284Z" transform="translate(7.872 21.916)" fill="#285a73"/>
    <path id="Path_2691" data-name="Path 2691" d="M22.121,32.783a.926.926,0,0,0-.413-.584l-.636-.4a.954.954,0,0,0-1.288.293l-1.628,2.593a.916.916,0,0,0-.12.7.926.926,0,0,0,.411.582l.64.4a.948.948,0,0,0,.5.142.929.929,0,0,0,.79-.437L22,33.487a.93.93,0,0,0,.118-.7" transform="translate(12.47 21.92)" fill="#285a73"/>
    <path id="Rectangle_117" data-name="Rectangle 117" d="M.983,0H51.467a.986.986,0,0,1,.986.986v32a.987.987,0,0,1-.987.987H.985A.985.985,0,0,1,0,32.985v-32A.983.983,0,0,1,.983,0Z" transform="translate(57.569 41.373)" fill="#284962"/>
    <rect id="Rectangle_118" data-name="Rectangle 118" width="42.969" height="26.141" transform="translate(61.608 45.288)" fill="#fff"/>
    <path id="Path_2692" data-name="Path 2692" d="M63.988,33.659a1.471,1.471,0,1,1-1.471,1.471,1.472,1.472,0,0,1,1.471-1.471" transform="translate(43.281 23.302)" fill="#fff"/>
    <path id="Path_2693" data-name="Path 2693" d="M63.568,29.574a.588.588,0,0,1,.587.589v3.432a.588.588,0,1,1-1.176,0V30.163a.589.589,0,0,1,.589-.589" transform="translate(43.601 20.474)" fill="#fff"/>
    <path id="Path_2694" data-name="Path 2694" d="M63.568,36.672a.588.588,0,0,1,.587.591v3.43a.588.588,0,0,1-1.176,0v-3.43a.59.59,0,0,1,.589-.591" transform="translate(43.601 25.388)" fill="#fff"/>
    <path id="Path_2695" data-name="Path 2695" d="M54.437,33.236a3.788,3.788,0,1,1-3.789-3.789,3.788,3.788,0,0,1,3.789,3.789" transform="translate(32.442 20.386)" fill="#d93d15"/>
    <path id="Path_2696" data-name="Path 2696" d="M58.53,45.881H45.146c.6-6.524,3.368-11.459,6.69-11.459s6.1,4.935,6.695,11.459" transform="translate(31.255 23.83)" fill="#d93d15"/>
    <path id="Path_2697" data-name="Path 2697" d="M57.025,38.611l-.877-.738a5.549,5.549,0,1,0-8.761-.33l-.932.668a6.7,6.7,0,1,1,10.57.4" transform="translate(31.295 19.118)" fill="#285a73"/>
    <path id="Path_2698" data-name="Path 2698" d="M53.993,33.411a3.94,3.94,0,0,1-4.755-.355l.447-.508a3.28,3.28,0,0,0,2.082.822,3.247,3.247,0,0,0,1.977-.6Z" transform="translate(34.088 22.533)" fill="#285a73"/>
    <path id="Path_2699" data-name="Path 2699" d="M49.536,32.457a.407.407,0,0,0-.489.3l-.127.52a.407.407,0,0,0,.3.489l2.114.509a.409.409,0,0,0,.489-.3l.127-.52a.412.412,0,0,0-.3-.491Z" transform="translate(33.86 22.462)" fill="#14b0bf"/>
    <path id="Path_2700" data-name="Path 2700" d="M46.916,32.239a.933.933,0,0,0-1.288-.293l-.64.4a.939.939,0,0,0-.415.584.928.928,0,0,0,.122.706l1.63,2.594a.931.931,0,0,0,1.29.293l.638-.4a.935.935,0,0,0,.294-1.29Z" transform="translate(30.842 22.016)" fill="#14b0bf"/>
    <path id="Path_2701" data-name="Path 2701" d="M55.319,32.928a.926.926,0,0,0-.413-.584l-.64-.4a.955.955,0,0,0-1.29.293l-1.63,2.6a.936.936,0,0,0,.293,1.29l.64.4a.945.945,0,0,0,.5.144.931.931,0,0,0,.79-.438L55.2,33.634a.934.934,0,0,0,.118-.706" transform="translate(35.448 22.019)" fill="#14b0bf"/>
    <path id="Path_2702" data-name="Path 2702" d="M40.469,11.846a5.612,5.612,0,1,1-5.612-5.612,5.611,5.611,0,0,1,5.612,5.612" transform="translate(20.247 4.315)" fill="#284962"/>
    <path id="Path_2703" data-name="Path 2703" d="M46.533,30.58H26.7c.888-9.665,4.989-16.977,9.914-16.977s9.027,7.312,9.915,16.977" transform="translate(18.487 9.417)" fill="#284962"/>
    <path id="Path_2704" data-name="Path 2704" d="M44.3,19.809l-1.3-1.092a8.221,8.221,0,1,0-12.978-.491l-1.378.992a9.915,9.915,0,1,1,15.656.591" transform="translate(18.548 2.438)" fill="#f99a24"/>
    <path id="Path_2705" data-name="Path 2705" d="M39.81,12.106a5.839,5.839,0,0,1-7.043-.528l.662-.75a4.846,4.846,0,0,0,6.011.323Z" transform="translate(22.685 7.496)" fill="#f99a24"/>
    <path id="Rectangle_119" data-name="Rectangle 119" d="M.353,0H1.64a.355.355,0,0,1,.355.355V4.063a.357.357,0,0,1-.357.357H.356A.356.356,0,0,1,0,4.064V.353A.353.353,0,0,1,.353,0Z" transform="translate(54.504 19.885) rotate(-76.467)" fill="#d93d15"/>
    <path id="Path_2706" data-name="Path 2706" d="M29.254,10.558l1.367.234a1.713,1.713,0,0,0,3.27-.024l.036.036a1.466,1.466,0,0,1,.976-.613h.012a1.216,1.216,0,0,1,.907.589,1.7,1.7,0,0,0,1.635,1.2A1.723,1.723,0,0,0,39.1,10.734l1.364-.425-.024-.553-1.283.366a1.708,1.708,0,0,0-1.7-1.589,1.729,1.729,0,0,0-1.7,1.376,1.5,1.5,0,0,0-.846-.3H34.9a1.711,1.711,0,0,0-.954.354,1.718,1.718,0,0,0-3.41.234l-1.284-.212Z" transform="translate(20.253 5.906)" fill="#fff"/>
    <path id="Path_2707" data-name="Path 2707" d="M29.326,10.368a1.382,1.382,0,0,0-1.907-.433l-.948.6a1.382,1.382,0,0,0-.433,1.909l2.415,3.845a1.384,1.384,0,0,0,1.909.433l.946-.594a1.383,1.383,0,0,0,.438-1.907Z" transform="translate(17.878 6.73)" fill="#d93d15"/>
    <path id="Path_2708" data-name="Path 2708" d="M41.774,11.389a1.38,1.38,0,0,0-.613-.863l-.948-.594a1.412,1.412,0,0,0-1.909.433L35.89,14.213a1.383,1.383,0,0,0,.433,1.906l.949.6a1.384,1.384,0,0,0,1.906-.433L41.6,12.434a1.376,1.376,0,0,0,.178-1.046" transform="translate(24.699 6.734)" fill="#d93d15"/>
    <path id="Path_2709" data-name="Path 2709" d="M34.433,14.931A1.328,1.328,0,1,1,33.106,13.6a1.328,1.328,0,0,1,1.327,1.328" transform="translate(22 9.417)" fill="#fff"/>
    <path id="Path_2710" data-name="Path 2710" d="M32.872,14.824l-1.234,1.961,1.74,5.4,1.6-5.4L33.7,14.824Z" transform="translate(21.903 10.262)" fill="#fff"/>
    <path id="Path_2711" data-name="Path 2711" d="M55.122,19.562c0-3.031-2.97-5.486-6.634-5.486s-6.634,2.456-6.634,5.486,2.97,5.485,6.634,5.485a7.965,7.965,0,0,0,1.361-.115,35.755,35.755,0,0,1,1.242,4.517l.575-5.07a5.437,5.437,0,0,0,3.456-4.816" transform="translate(28.976 9.744)" fill="#fff"/>
    <path id="Path_2712" data-name="Path 2712" d="M25.084,13.792c-3.9,0-7.069,2.225-7.069,4.969a3.928,3.928,0,0,0,1.029,2.569l-3.493,3.31,5.732-1.7a9.3,9.3,0,0,0,3.8.784c3.9,0,7.067-2.224,7.067-4.965s-3.165-4.969-7.067-4.969" transform="translate(10.766 9.548)" fill="#fff"/>
  </g>
</svg>
