<svg xmlns="http://www.w3.org/2000/svg" xmlns:xlink="http://www.w3.org/1999/xlink" width="306.895" height="184.846" viewBox="0 0 306.895 184.846">
  <defs>
    <clipPath id="clip-path">
      <rect id="Rectangle_6874" data-name="Rectangle 6874" width="306.895" height="184.846" fill="none"/>
    </clipPath>
    <clipPath id="clip-path-2">
      <rect id="Rectangle_6865" data-name="Rectangle 6865" width="306.897" height="184.846" fill="none"/>
    </clipPath>
    <clipPath id="clip-path-3">
      <rect id="Rectangle_6864" data-name="Rectangle 6864" width="20.784" height="20.784" fill="none"/>
    </clipPath>
    <clipPath id="clip-path-4">
      <path id="Path_29385" data-name="Path 29385" d="M798.714,438.6c-8.45,1.239-6.2,10.682-13.044,16.384-5.272,4.391-16.713,3.893-22.183,14.635-2.9,5.693-2.681,12.857-5.206,19.02h53.876c-.157-7.736-6.279-13.338-6.738-18.472-.688-7.688,3.981-13.356,4.98-20.3.806-5.6-2.687-11.422-9.676-11.422a13.809,13.809,0,0,0-2.009.151" transform="translate(-758.281 -438.445)" fill="none"/>
    </clipPath>
    <linearGradient id="linear-gradient" x1="-3.67" y1="1.405" x2="-3.665" y2="1.405" gradientUnits="objectBoundingBox">
      <stop offset="0" stop-color="#2060b3"/>
      <stop offset="1" stop-color="#367ad1"/>
    </linearGradient>
    <clipPath id="clip-path-6">
      <rect id="Rectangle_6871" data-name="Rectangle 6871" width="35.25" height="35.25" fill="none"/>
    </clipPath>
    <clipPath id="clip-path-7">
      <rect id="Rectangle_6872" data-name="Rectangle 6872" width="13.731" height="10.693" fill="none"/>
    </clipPath>
  </defs>
  <g id="Group_20026" data-name="Group 20026" opacity="0.25">
    <g id="Group_20024" data-name="Group 20024" clip-path="url(#clip-path)">
      <g id="Group_20013" data-name="Group 20013">
        <g id="Group_20012" data-name="Group 20012" clip-path="url(#clip-path-2)">
          <path id="Path_29368" data-name="Path 29368" d="M484.863,202.776s-19.505-66.112-21.07-80.695,9.342-10.064,9.342-10.064-9.175-27.788-2.54-34.383,12.62,5.7,12.62,5.7S485.223,49.6,492.3,49.587c13.176-.023,12.916,36.789,12.916,36.789s3.363-14.412,10.418-10.461c10.64,5.958-4.618,34.84-4.618,34.84s13.557.01,18.319,6.846c8.544,12.265-44.469,85.175-44.469,85.175" transform="translate(-342.736 -36.656)" fill="#50bfa5"/>
          <path id="Path_29369" data-name="Path 29369" d="M282.669,327.721s-56.23-9.4-68.461-19.366-.125-14.456-.125-14.456-28.247-14.481-27.92-24.327,14.36-4.841,14.36-4.841-23.8-27.14-18.166-32.294c10.5-9.6,38.011,18.612,38.011,18.612s-8.17-13.417.434-15.54c12.976-3.2,22.553,29.881,22.553,29.881s-2.433-13.065,6.515-11.325c16.054,3.122,32.8,73.655,32.8,73.655" transform="translate(-134.165 -170.351)" fill="#50bfa5"/>
          <path id="Path_29370" data-name="Path 29370" d="M252.317,254.066c-8.97-1.622-6.514,11.325-6.514,11.325s-9.577-33.083-22.554-29.881c-8.6,2.123-.434,15.54-.434,15.54S195.3,222.837,184.8,232.438l100.123,95.3c-1.782-9.1-17.571-70.952-32.61-73.671" transform="translate(-136.613 -170.352)" fill="#3c8f7c"/>
          <path id="Path_29371" data-name="Path 29371" d="M286.94,501.8s-29.612-30.115-44.525-33.251-12.23,7.474-12.23,7.474-29.587-25.874-36.443-19.6.56,12.321.56,12.321-24.645-4.367-28.173,3.72c-5.421,12.427,35.11,19.191,35.11,19.191s-16.985,1.177-13.046,8.969c5.94,11.751,98.746,1.18,98.746,1.18" transform="translate(-122.439 -336.672)" fill="#355389"/>
          <path id="Path_29372" data-name="Path 29372" d="M167.544,472.09c3.528-8.087,28.172-3.721,28.172-3.721s-7.416-6.052-.56-12.321,35.523,16.086,35.523,16.086-6.759-12.92,8.153-9.784,49.522,39.08,49.522,39.08Z" transform="translate(-123.854 -336.305)" fill="#466eb6"/>
          <path id="Path_29373" data-name="Path 29373" d="M306.818,612.629c0,3.562-18.675,6.45-41.712,6.45s-41.712-2.888-41.712-6.45,18.675-6.45,41.712-6.45,41.712,2.888,41.712,6.45" transform="translate(-165.139 -448.105)" fill="#8db5e8"/>
          <path id="Path_29374" data-name="Path 29374" d="M188.731,621.946c0,1.747-22.711,3.163-50.726,3.163s-50.726-1.416-50.726-3.163,22.711-3.163,50.726-3.163,50.726,1.416,50.726,3.163" transform="translate(-64.519 -457.423)" fill="#8db5e8"/>
          <path id="Path_29375" data-name="Path 29375" d="M109.651,251.62c.427,26.646,10.309,47.957,22.438,47.957s22.011-21.311,22.438-47.957Z" transform="translate(-81.057 -186.005)" fill="#ffc291"/>
          <path id="Path_29376" data-name="Path 29376" d="M170.9,452.966c-6.895-1.316-10.888-10.238-10.888-21.05q0-.992.054-1.962H154.7q.053.969.055,1.962c0,10.811-3.994,19.734-10.888,21.05H170.9Z" transform="translate(-106.353 -317.835)" fill="#ffc291"/>
          <rect id="Rectangle_6862" data-name="Rectangle 6862" width="27.03" height="5.027" transform="translate(37.517 135.13)" fill="#f0996e"/>
          <path id="Path_29377" data-name="Path 29377" d="M152.994,537.474H123.7a5.585,5.585,0,0,0-5.585,5.585h40.46a5.585,5.585,0,0,0-5.585-5.585" transform="translate(-87.317 -397.317)" fill="#ffc291"/>
          <path id="Path_29378" data-name="Path 29378" d="M162.219,251.62c-2.584,21.158-11.309,36.724-21.675,36.724-4.209,0-8.148-2.567-11.514-7.033,4.118,11.15,10.376,18.266,17.385,18.266,12.129,0,22.011-21.311,22.438-47.957Z" transform="translate(-95.383 -186.005)" fill="#f0996e"/>
          <path id="Path_29379" data-name="Path 29379" d="M69.015,271.224c-11.119-4.013-19.757-19.343-21.486-38.513h7.744a40.405,40.405,0,0,0,6.7,13.176q-.349-3.056-.522-6.254a38.413,38.413,0,0,1-4-9.861h-13.2c1.2,23.643,12.589,42.6,27.025,45.284a38.816,38.816,0,0,1-2.261-3.83" transform="translate(-32.712 -169.854)" fill="#ffc291"/>
          <path id="Path_29380" data-name="Path 29380" d="M245.769,271.224c11.119-4.013,19.757-19.343,21.486-38.513h-7.744a40.4,40.4,0,0,1-6.7,13.176q.348-3.056.522-6.254a38.413,38.413,0,0,0,4-9.861h13.2c-1.2,23.643-12.589,42.6-27.025,45.284a38.818,38.818,0,0,0,2.261-3.83" transform="translate(-180.008 -169.854)" fill="#f0996e"/>
          <rect id="Rectangle_6863" data-name="Rectangle 6863" width="45.484" height="18.781" transform="translate(28.29 145.743)" fill="#f0996e"/>
          <g id="Group_20011" data-name="Group 20011" transform="translate(40.64 74.864)" opacity="0.5">
            <g id="Group_20010" data-name="Group 20010">
              <g id="Group_20009" data-name="Group 20009" clip-path="url(#clip-path-3)">
                <path id="Path_29381" data-name="Path 29381" d="M176.63,297.478a10.392,10.392,0,1,1-10.392-10.392,10.392,10.392,0,0,1,10.392,10.392" transform="translate(-155.846 -287.086)" fill="#fff"/>
              </g>
            </g>
          </g>
          <path id="Path_29382" data-name="Path 29382" d="M766.818,317.864c7.051,10.446,6.278,28.5-2.981,45.128s-24.2,26.795-36.791,26.3c-7.051-10.446-6.278-28.5,2.981-45.128s24.2-26.795,36.791-26.3" transform="translate(-533.974 -234.962)" fill="#6c9fe0"/>
          <path id="Path_29383" data-name="Path 29383" d="M722.432,407.187a.867.867,0,0,1-.765-1.274l36.792-69.2-2.613-7.345a.867.867,0,0,1,1.635-.582l2.081,5.852,4.342-8.168a.867.867,0,1,1,1.531.814L753.11,350.465l12.253-2.952a.889.889,0,0,1,.2-.024.867.867,0,0,1,.2,1.711l-13.748,3.311L723.2,406.727a.866.866,0,0,1-.766.46" transform="translate(-533.402 -240.996)" fill="#b3cdee"/>
          <path id="Path_29384" data-name="Path 29384" d="M588.13,604.188c0,5.207-31.8,9.427-71.035,9.427s-71.035-4.221-71.035-9.427,31.8-9.427,71.035-9.427,71.035,4.221,71.035,9.427" transform="translate(-329.74 -439.665)" fill="#8db5e8"/>
        </g>
      </g>
      <g id="Group_20015" data-name="Group 20015" transform="translate(197.737 114.333)">
        <g id="Group_20014" data-name="Group 20014" clip-path="url(#clip-path-4)">
          <rect id="Rectangle_6866" data-name="Rectangle 6866" width="53.876" height="50.19" transform="translate(0 0)" fill="url(#linear-gradient)"/>
        </g>
      </g>
      <g id="Group_20023" data-name="Group 20023">
        <g id="Group_20022" data-name="Group 20022" clip-path="url(#clip-path-2)">
          <path id="Path_29386" data-name="Path 29386" d="M522.931,491.675H417.659v1.487h.716c1.547,0,1.854,3.358,1.854,7.366,0,3.79-.365,7.366-1.975,7.366h-.594v1.487H522.745c2.058,0,2.585-3.706,2.585-8.307,0-4.833-.279-9.4-2.4-9.4" transform="translate(-308.746 -363.461)" fill="#f23e6e"/>
          <path id="Path_29387" data-name="Path 29387" d="M478.038,491.675H417.659v1.487h.716c1.547,0,1.854,3.358,1.854,7.366,0,3.79-.364,7.366-1.975,7.366h-.595v1.487h60.192c1.9,0,2.527-3.3,2.527-8.63,0-5.255-.434-9.077-2.34-9.077" transform="translate(-308.746 -363.461)" fill="#bf2251"/>
          <path id="Path_29388" data-name="Path 29388" d="M478.673,497.378H420.224c1.547,0,1.854,3.358,1.854,7.366,0,3.743-.356,7.275-1.917,7.362l58.391,0c1.611,0,1.976-3.576,1.976-7.366,0-4.008-.307-7.366-1.854-7.366" transform="translate(-310.595 -367.677)" fill="#dadada"/>
          <path id="Path_29389" data-name="Path 29389" d="M497.293,449.993c-.945,0-1.534-2.4-1.534-5.757,0-3.051.6-5.1,1.534-5.1h1.229V437.5h-103.8c-1.093,0-2.279,2.071-2.279,7.063,0,4.826,1.32,7.063,2.432,7.063H498.522v-1.636Z" transform="translate(-290.109 -323.415)" fill="#3c5685"/>
          <path id="Path_29390" data-name="Path 29390" d="M637.7,449.993c-.945,0-1.534-2.4-1.534-5.757,0-3.051.6-5.1,1.534-5.1h1.229V437.5H582.381v14.126h56.545v-1.636Z" transform="translate(-430.513 -323.415)" fill="#232e4d"/>
          <path id="Path_29391" data-name="Path 29391" d="M500.37,448.875c0-3.051.6-5.1,1.534-5.1H400.22c-.929,0-1.534,2.045-1.534,5.1,0,3.354.589,5.757,1.534,5.757H501.9c-.945,0-1.534-2.4-1.534-5.757" transform="translate(-294.721 -328.054)" fill="#fff"/>
          <path id="Path_29392" data-name="Path 29392" d="M628.33,448.875c0-3.051.6-5.1,1.534-5.1H573.319c-.929,0-1.534,2.045-1.534,5.1,0,3.354.589,5.757,1.534,5.757h56.545c-.945,0-1.534-2.4-1.534-5.757" transform="translate(-422.68 -328.054)" fill="#dadada"/>
          <path id="Path_29393" data-name="Path 29393" d="M474.786,520.163l-54.627,0c1.562-.086,1.918-3.619,1.918-7.362,0-1.23-.029-2.4-.114-3.43,15.089-1.827,35.59-1.677,45.945,2.849,4.385,1.917,7.53,4.934,6.878,7.948" transform="translate(-310.594 -375.729)" fill="#fff"/>
          <path id="Path_29394" data-name="Path 29394" d="M483.918,546.679c-.026.1-.051.187-.078.276H425.389q.041-.133.078-.276Z" transform="translate(-314.46 -404.121)" fill="#878787"/>
          <path id="Path_29395" data-name="Path 29395" d="M485.275,539.484c-.009.094-.02.186-.031.276H426.8c.011-.09.021-.182.031-.276Z" transform="translate(-315.5 -398.803)" fill="#878787"/>
          <path id="Path_29396" data-name="Path 29396" d="M485.813,532.289c0,.094-.006.184-.011.276H427.353c0-.092.008-.184.012-.276Z" transform="translate(-315.912 -393.484)" fill="#878787"/>
          <rect id="Rectangle_6867" data-name="Rectangle 6867" width="58.449" height="0.276" transform="translate(111.483 136.929)" fill="#878787"/>
          <path id="Path_29397" data-name="Path 29397" d="M526.208,369.758h-102v1.95h.631c1.651,0,1.947,4.05,1.947,6.883s-.289,6.883-1.947,6.883h-.631v1.95h102c2.129,0,2.258-5.2,2.258-8.833s-.129-8.833-2.258-8.833" transform="translate(-313.591 -273.336)" fill="#3c5685"/>
          <path id="Path_29398" data-name="Path 29398" d="M490.909,369.758H424.214v1.95h.63c1.652,0,1.947,4.05,1.947,6.883s-.289,6.883-1.947,6.883h-.63v1.95h66.695c2.129,0,2.767-5.2,2.767-8.833s-.638-8.833-2.767-8.833" transform="translate(-313.592 -273.336)" fill="#2a3d5e"/>
          <path id="Path_29399" data-name="Path 29399" d="M491.6,377.234H426.631c1.652,0,1.947,4.05,1.947,6.883S428.289,391,426.631,391H491.6c1.658,0,1.947-4.05,1.947-6.883s-.3-6.883-1.947-6.883" transform="translate(-315.378 -278.863)" fill="#dadada"/>
          <path id="Path_29400" data-name="Path 29400" d="M404,309.49H504.194v1.734h-.619c-1.623,0-1.912,3.6-1.912,6.124s.283,6.124,1.912,6.124h.619v1.734H404c-2.091,0-2.218-4.623-2.218-7.858s.127-7.858,2.218-7.858" transform="translate(-297.011 -228.784)" fill="#f23e6e"/>
          <path id="Path_29401" data-name="Path 29401" d="M549.087,309.49h61.989v1.734h-.619c-1.622,0-1.912,3.6-1.912,6.124s.284,6.124,1.912,6.124h.619v1.734H549.087c-2.091,0-2.718-4.623-2.718-7.858s.627-7.858,2.718-7.858" transform="translate(-403.892 -228.784)" fill="#bf2251"/>
          <path id="Path_29402" data-name="Path 29402" d="M555.5,316.141h60.294c-1.623,0-1.913,3.6-1.913,6.124s.284,6.124,1.913,6.124H555.5c-1.629,0-1.912-3.6-1.912-6.124s.29-6.124,1.912-6.124" transform="translate(-409.226 -233.701)" fill="#dadada"/>
          <path id="Path_29403" data-name="Path 29403" d="M781.823,491.675h-7.93c2.12,0,2.4,4.566,2.4,9.4,0,4.6-.527,8.307-2.585,8.307h7.93c2.058,0,2.586-3.706,2.586-8.307,0-4.833-.279-9.4-2.4-9.4" transform="translate(-571.947 -363.461)" fill="#fad189"/>
          <path id="Path_29404" data-name="Path 29404" d="M487.384,399.74v0c-12.412,0-43.474,0-59.276,0h-1.48c1.658,0,1.948-4.049,1.948-6.884a30,30,0,0,0-.135-3.007c17.2-1.435,39.495-1.154,50.986,2.75,5.073,1.722,8.706,4.433,7.957,7.14" transform="translate(-315.375 -287.601)" fill="#fff"/>
          <path id="Path_29405" data-name="Path 29405" d="M822.244,547.6H787.512c1.486-8.818,11.581-18.9,25.924-24.834,14.428-5.972,28.778-5.942,36.021-.662-1.393,8.855-11.523,19.018-25.951,24.99q-.631.262-1.262.506" transform="translate(-582.152 -383.079)" fill="#6bc6dd"/>
          <path id="Path_29406" data-name="Path 29406" d="M812.325,554.347l-.133-.6,20.949-9.831,2.321-16.48.183-.062c.314-.107.63-.209.944-.31l.476-.152-2.287,16.236,3.8-1.785,1.8-12.674a.758.758,0,0,1,.748-.651.744.744,0,0,1,.109.008.761.761,0,0,1,.641.854l-1.657,11.7,24.821-11.648a.75.75,0,0,1,.322-.072.757.757,0,0,1,.322,1.442l-13.469,6.32,6.108,1.98a.758.758,0,0,1-.234,1.478.809.809,0,0,1-.223-.034l-7.656-2.483-35.733,16.766Z" transform="translate(-600.396 -389.51)" fill="#f6f6f6"/>
          <path id="Path_29407" data-name="Path 29407" d="M501.918,576.467c-1.9,0-2.092-4.311-2.092-7.588,0-4.163.2-7.589,2.092-7.589h.568v-1.712H381.617c-1.408,0-2.6,3.374-2.6,9.3,0,5,.7,9.3,2.6,9.3H502.486v-1.713Z" transform="translate(-280.181 -413.656)" fill="#2a3d5e"/>
          <path id="Path_29408" data-name="Path 29408" d="M616.526,576.467c-1.9,0-2.092-4.311-2.092-7.588,0-4.163.2-7.589,2.092-7.589h.568v-1.712h-80.44c-1.409,0-2.6,3.374-2.6,9.3,0,5,.7,9.3,2.6,9.3h80.44v-1.713Z" transform="translate(-394.789 -413.656)" fill="#232e4d"/>
          <path id="Path_29409" data-name="Path 29409" d="M620.028,573.733c0-4.163.2-7.588,2.092-7.588H544.008c-1.887,0-2.386,3.426-2.386,7.588,0,3.278.489,7.588,2.386,7.588H622.12c-1.9,0-2.092-4.311-2.092-7.588" transform="translate(-400.383 -418.511)" fill="#dadada"/>
          <path id="Path_29410" data-name="Path 29410" d="M660.831,594.615H594.383c-1.036-1.319-.12-4.643,3.762-5.836,16.121-4.953,42.056-6.27,60.6-2.393,0,.21,0,.425,0,.64,0,3.278.195,7.589,2.092,7.589" transform="translate(-439.094 -431.804)" fill="#fff"/>
          <path id="Path_29411" data-name="Path 29411" d="M651.684,617.215H583.741q-.03-.136-.051-.276H651.6c.025.1.052.186.08.276" transform="translate(-431.481 -456.06)" fill="#878787"/>
          <path id="Path_29412" data-name="Path 29412" d="M651.168,609.808H583.5q.014-.138.037-.276h67.6c.009.092.019.186.031.276" transform="translate(-431.342 -450.584)" fill="#878787"/>
          <path id="Path_29413" data-name="Path 29413" d="M671.066,697.6c0,.931-22.415,1.686-50.064,1.686s-50.064-.755-50.064-1.686,22.414-1.686,50.064-1.686,50.064.755,50.064,1.686" transform="translate(-422.054 -514.439)" fill="#8db5e8"/>
          <path id="Path_29414" data-name="Path 29414" d="M931.127,671.976c0,.98-19.407,1.775-43.347,1.775s-43.347-.795-43.347-1.775,19.407-1.775,43.347-1.775,43.347.795,43.347,1.775" transform="translate(-624.231 -495.432)" fill="#8db5e8"/>
          <rect id="Rectangle_6868" data-name="Rectangle 6868" width="58.725" height="16.73" transform="translate(226.553 159.94)" fill="#f7a94a"/>
          <path id="Path_29415" data-name="Path 29415" d="M1111.162,621.7l-17.18,8.365v-16.73Z" transform="translate(-808.704 -453.396)" fill="#ffda99"/>
          <path id="Path_29416" data-name="Path 29416" d="M1138.747,635.132l5.507,2.681-5.507,2.681Z" transform="translate(-841.796 -469.508)" fill="#2a3d5e"/>
          <rect id="Rectangle_6869" data-name="Rectangle 6869" width="58.725" height="0.556" transform="translate(226.553 172.316)" fill="#fff"/>
          <rect id="Rectangle_6870" data-name="Rectangle 6870" width="58.725" height="0.556" transform="translate(226.553 163.738)" fill="#fff"/>
          <path id="Path_29417" data-name="Path 29417" d="M743.858,568.183a20.189,20.189,0,0,0,20.189,20.189h4.13a20.189,20.189,0,0,0,0-40.378h-4.13a20.189,20.189,0,0,0-20.189,20.189m6.694,0a15.668,15.668,0,1,1,15.56,17.5,17.627,17.627,0,0,1-15.56-17.5" transform="translate(-549.882 -405.093)" fill="#3c5685"/>
          <g id="Group_20018" data-name="Group 20018" transform="translate(198.605 145.464)" opacity="0.4">
            <g id="Group_20017" data-name="Group 20017">
              <g id="Group_20016" data-name="Group 20016" clip-path="url(#clip-path-6)">
                <path id="Path_29418" data-name="Path 29418" d="M761.609,575.451a17.625,17.625,0,1,0,17.625-17.625,17.625,17.625,0,0,0-17.625,17.625" transform="translate(-761.609 -557.826)" fill="#37bae6"/>
              </g>
            </g>
          </g>
          <path id="Path_29419" data-name="Path 29419" d="M759.7,568.183a20.189,20.189,0,1,0,20.189-20.189A20.189,20.189,0,0,0,759.7,568.183m2.564,0a17.625,17.625,0,1,1,17.625,17.625,17.625,17.625,0,0,1-17.625-17.625" transform="translate(-561.589 -405.093)" fill="#2a3d5e"/>
          <path id="Path_29420" data-name="Path 29420" d="M582.051,653.641l44.767-12.52-1.18-4.4-45.027,11.55Z" transform="translate(-429.205 -470.682)" fill="#2060b3"/>
          <path id="Path_29421" data-name="Path 29421" d="M750.218,639.2c.328,1.223,1.173,2.053,1.883,1.855s1.01-1.335.686-2.543-1.157-2.041-1.866-1.859-1.031,1.324-.7,2.547" transform="translate(-554.487 -470.611)" fill="#2060b3"/>
          <path id="Path_29422" data-name="Path 29422" d="M575.607,684.085c.4,1.495,1.59,2.465,2.648,2.169s1.573-1.723,1.178-3.195-1.563-2.448-2.618-2.177-1.608,1.708-1.207,3.2" transform="translate(-425.408 -503.295)" fill="#367ad1"/>
          <g id="Group_20021" data-name="Group 20021" transform="translate(204.442 147.217)" opacity="0.75">
            <g id="Group_20020" data-name="Group 20020">
              <g id="Group_20019" data-name="Group 20019" clip-path="url(#clip-path-7)">
                <path id="Path_29423" data-name="Path 29423" d="M797.443,565.941c1.151,1.78-1.348,4.333-4.958,6.667s-6.964,3.564-8.114,1.784.386-5.821,4-8.155,7.926-2.076,9.077-.3" transform="translate(-783.995 -564.546)" fill="#fff"/>
              </g>
            </g>
          </g>
          <path id="Path_29424" data-name="Path 29424" d="M408.134,559.577h8.331c-2.227,0-2.52,4.8-2.52,9.875,0,4.834.554,8.727,2.716,8.727H408.33c-2.162,0-2.716-3.893-2.716-8.727,0-5.078.293-9.875,2.52-9.875" transform="translate(-299.842 -413.656)" fill="#fad189"/>
          <path id="Path_29425" data-name="Path 29425" d="M400.295,253.192a1.573,1.573,0,1,1-1.573-1.574,1.573,1.573,0,0,1,1.573,1.574" transform="translate(-293.584 -186.004)" fill="#fff"/>
          <path id="Path_29426" data-name="Path 29426" d="M42.438,164.124l2.115,1.9,2.765-.664-1.154,2.6,1.487,2.424-2.829-.295-1.847,2.163-.594-2.781-2.628-1.088,2.462-1.424Z" transform="translate(-29.387 -121.325)" fill="#ffc291"/>
          <path id="Path_29427" data-name="Path 29427" d="M190.5,107.007l1.561,3.34,3.636.608-2.694,2.516.546,3.646-3.226-1.785-3.3,1.645.7-3.619-2.584-2.629,3.659-.452Z" transform="translate(-136.864 -79.102)" fill="#ffc291"/>
          <path id="Path_29428" data-name="Path 29428" d="M298.4,181.673l-2.238,2.012-2.926-.7,1.222,2.75-1.573,2.566,2.993-.312,1.954,2.289.628-2.943,2.781-1.151-2.6-1.507Z" transform="translate(-216.509 -134.298)" fill="#ffc291"/>
          <path id="Path_29429" data-name="Path 29429" d="M131.768,205.573a3.2,3.2,0,1,1-3.2-3.2,3.2,3.2,0,0,1,3.2,3.2" transform="translate(-92.67 -149.597)" fill="#ffc291"/>
          <path id="Path_29430" data-name="Path 29430" d="M108.661,106.3a2.158,2.158,0,1,1-2.158-2.158,2.158,2.158,0,0,1,2.158,2.158" transform="translate(-77.134 -76.985)" fill="#ffc291"/>
          <path id="Path_29431" data-name="Path 29431" d="M4.316,260.254A2.158,2.158,0,1,1,2.158,258.1a2.158,2.158,0,0,1,2.158,2.158" transform="translate(0 -190.792)" fill="#ffc291"/>
          <path id="Path_29432" data-name="Path 29432" d="M269.959,151.084a2.158,2.158,0,1,1-2.158-2.158,2.158,2.158,0,0,1,2.158,2.158" transform="translate(-196.37 -110.091)" fill="#dadada"/>
          <path id="Path_29433" data-name="Path 29433" d="M217,208.342a2.789,2.789,0,1,1-2.789-2.789A2.789,2.789,0,0,1,217,208.342" transform="translate(-156.29 -151.951)" fill="#dadada"/>
          <path id="Path_29434" data-name="Path 29434" d="M36.644,321.224a1.695,1.695,0,1,1-1.695-1.695,1.695,1.695,0,0,1,1.695,1.695" transform="translate(-24.583 -236.205)" fill="#dadada"/>
          <path id="Path_29435" data-name="Path 29435" d="M151.274,161.443a1.695,1.695,0,1,1-1.695-1.695,1.695,1.695,0,0,1,1.695,1.695" transform="translate(-109.321 -118.09)" fill="#dadada"/>
          <path id="Path_29436" data-name="Path 29436" d="M159.822,1.695A1.695,1.695,0,1,1,158.128,0a1.695,1.695,0,0,1,1.695,1.695" transform="translate(-115.64 0)" fill="#dadada"/>
          <path id="Path_29437" data-name="Path 29437" d="M295.2,605.388a1.836,1.836,0,1,1-1.836-1.836,1.836,1.836,0,0,1,1.836,1.836" transform="translate(-215.508 -446.164)" fill="#b3cdee"/>
          <path id="Path_29438" data-name="Path 29438" d="M377.031,532.414a1.342,1.342,0,1,1-1.342-1.342,1.342,1.342,0,0,1,1.342,1.342" transform="translate(-276.728 -392.584)" fill="#b3cdee"/>
          <path id="Path_29439" data-name="Path 29439" d="M274.9,511.131a1.218,1.218,0,1,1-1.218-1.218,1.218,1.218,0,0,1,1.218,1.218" transform="translate(-201.412 -376.943)" fill="#f6f6f6"/>
          <path id="Path_29440" data-name="Path 29440" d="M932.523,501.3a1.374,1.374,0,1,1-1.374-1.374,1.374,1.374,0,0,1,1.374,1.374" transform="translate(-687.317 -369.559)" fill="#f6f6f6"/>
          <path id="Path_29441" data-name="Path 29441" d="M628.438,334.684h-57.4c-.9-1.26-.1-4.439,3.286-5.579,13.889-4.672,36.123-5.96,52.266-2.431-.046.649-.062,1.3-.062,1.889,0,2.52.283,6.122,1.911,6.122" transform="translate(-421.873 -239.996)" fill="#fff"/>
          <path id="Path_29442" data-name="Path 29442" d="M622.035,356.186H563.973c0-.091-.007-.184,0-.277h57.987c.024.1.051.188.077.277" transform="translate(-416.902 -263.098)" fill="#878787"/>
          <path id="Path_29443" data-name="Path 29443" d="M622.536,348.995H565.123c.031-.093.066-.186.106-.277h57.278c.009.093.018.186.029.277" transform="translate(-417.756 -257.783)" fill="#878787"/>
          <path id="Path_29444" data-name="Path 29444" d="M625.455,341.8H569.233c.075-.093.155-.184.237-.275h55.981c0,.091,0,.181,0,.275" transform="translate(-420.794 -252.465)" fill="#878787"/>
          <path id="Path_29445" data-name="Path 29445" d="M1006.819,387.568l-.991,3.992-6.6-.885-2.169,5.658-5.047.145.073,2.555,6.75-.193,2.056-5.362,6.865.921,1.492-6.007Z" transform="translate(-733.325 -286.502)" fill="#f48c7f"/>
          <path id="Path_29446" data-name="Path 29446" d="M762.244,194.537l4.982,2.024,4.016-3.734,5.424,2.665,3.051-5.3,6.266,2.743,3.411-4.531,6.461,1.654-.626,2.445-4.83-1.236-3.6,4.78-6.023-2.637-3.1,5.385-5.985-2.941-3.922,3.647-4.617-1.877-2.074,2.933-2.061-1.457Z" transform="translate(-561.085 -139.277)" fill="#50bfa5"/>
          <path id="Path_29447" data-name="Path 29447" d="M529.582,239.086l8.7-.247a167.472,167.472,0,0,1,60.522,9.5l2.132.753s12.648-10.694,3.674-22.83a249.33,249.33,0,0,1-63.291-11.714l-7.055-2.792Z" transform="translate(-391.483 -156.536)" fill="#466eb6"/>
          <path id="Path_29448" data-name="Path 29448" d="M530.967,211.721c1.395.242,1.467,6.543.16,14.073s-3.479,13.5-4.873,13.255-1.484-6.6-.177-14.131,3.5-13.439,4.891-13.2" transform="translate(-388.206 -156.505)" fill="#86b1f2"/>
          <path id="Path_29449" data-name="Path 29449" d="M535.761,211.778l-.03,0s-1.289,16.4-4.162,20.846l2.671.4a66.383,66.383,0,0,0,1.632-7.177c1.292-7.444,1.237-13.685-.112-14.062" transform="translate(-392.952 -156.551)" fill="#355389"/>
          <path id="Path_29450" data-name="Path 29450" d="M675.668,249.386c1.318,1.274,6.443,7.338-.474,19.011q2.171.322,4.332.7c4.114-7.651,3.712-13.322,2.585-16.81-.179-.551-.444-1.267-.672-1.794q-2.892-.519-5.77-1.106" transform="translate(-499.123 -184.354)" fill="#b75742"/>
          <path id="Path_29451" data-name="Path 29451" d="M631.972,312.759l-14.123,13.27,6-.519,1.606,5.451,9.582-16.311Z" transform="translate(-456.732 -231.201)" fill="#b75742"/>
          <path id="Path_29452" data-name="Path 29452" d="M689.044,316.634l3.672,13.326,2.1-4.735,4.016,1.355-6.68-11.171Z" transform="translate(-509.362 -233.16)" fill="#b75742"/>
          <path id="Path_29453" data-name="Path 29453" d="M673.508,292.234a6.364,6.364,0,1,1-.8-8.828,6.269,6.269,0,0,1,.8,8.828" transform="translate(-489.667 -208.34)" fill="#f47458"/>
          <path id="Path_29454" data-name="Path 29454" d="M1000.716,273l-1.8-4.263-4.533-.931a.636.636,0,0,1-.288-1.1l3.5-3.032-.515-4.6a.636.636,0,0,1,.96-.615l3.964,2.389,4.215-1.911a.636.636,0,0,1,.882.723l-1.047,4.508,3.12,3.418a.636.636,0,0,1-.415,1.062l-4.611.4-2.287,4.024a.636.636,0,0,1-1.139-.066" transform="translate(-734.699 -190.993)" fill="#f7cc7f"/>
        </g>
      </g>
    </g>
  </g>
</svg>
