<?xml version="1.0" encoding="utf-8"?>
<!-- Generator: Adobe Illustrator 25.2.3, SVG Export Plug-In . SVG Version: 6.00 Build 0)  -->
<svg version="1.1" id="Layer_1" xmlns="http://www.w3.org/2000/svg" xmlns:xlink="http://www.w3.org/1999/xlink" x="0px" y="0px"
	 viewBox="0 0 324.5 152.4" style="enable-background:new 0 0 324.5 152.4;" xml:space="preserve">
<style type="text/css">
	.st0{fill:#AFAFAF;}
	.st1{font-family:'ArialMT';}
	.st2{font-size:25.8568px;}
	.st3{font-size:25.875px;}
	.st4{fill:none;stroke:#B2B2B2;stroke-width:1.0811;stroke-miterlimit:10;}
	.st5{stroke:#B2B2B2;stroke-width:1.4415;}
	.st6{fill:#BCBCBC;}
	.st7{fill:#B2B2B2;}
	.st8{fill:#FFFFFF;}
	.st9{fill:#CBCBCB;}
	.st10{opacity:0.5;}
	.st11{fill:#666666;}
	.st12{fill:#808080;}
</style>
<g>
	<path class="st0" d="M58.7,105.4H40.5c-2,0-4.3,0-4.1-2.9c0.2-2.5,2.5-2,4.2-2.1c12.6,0,25.1,0,37.7,0c1.7,0,3.9-0.3,4.1,2.1
		c0.2,2.9-2.2,2.7-4.2,2.7C71.6,105.4,65.2,105.4,58.7,105.4z"/>
	<path class="st0" d="M84.4,120.9c-2.9,0-5.9,0-8.8,0c-1.4,0-2.8-0.6-2.6-2.4c0.1-1.2,1.1-2.1,2.3-2.1c0.1,0,0.1,0,0.2,0
		c6.3,0,12.5,0,18.7,0c1.4,0,2.9,0.6,2.6,2.4c-0.2,1.8-1.6,2-3.1,2L84.4,120.9C84.4,120.8,84.4,120.9,84.4,120.9z"/>
	<path class="st0" d="M55.4,138.5c-2.9,0-5.9,0-8.8,0c-1.3,0-2.4-0.5-2.5-1.9s1-2.1,2.2-2.1c6-0.1,12.1-0.1,18.1,0
		c1.1,0,2.5,0.3,2.5,1.8c0.1,1.9-1.4,2.1-2.9,2.1C61.2,138.5,58.3,138.5,55.4,138.5z"/>
	<path class="st0" d="M63.2,120.9c-1.7-0.1-3.9,0.1-3.8-2.3c0.1-2.4,2.2-2.2,4-2.2c1.7,0,3.9-0.2,3.8,2.3S64.9,120.8,63.2,120.9z"/>
	<path class="st0" d="M10.4,101.3c2,0.3,4.5-0.3,4.3,2.3c-0.2,2.6-2.6,1.8-4.3,1.8c-1.7,0-3.6,0.5-3.7-1.8
		C6.6,100.8,9.3,102,10.4,101.3z"/>
	<path class="st0" d="M30.9,134.4c1.4,0.2,3.4-0.1,3.3,2.1c0,1.7-1.5,2-3,2c-1.4,0-3.3,0-3.4-2.1C28,134.5,29.6,134.5,30.9,134.4z"
		/>
	<path class="st0" d="M25.4,105.5c-1.8-0.2-2.9-1-2.9-2.5c0-1.9,1.3-2.7,3.1-2.6c1.3,0,2.4,1,2.4,2.3c0,0.1,0,0.3,0,0.4
		C27.8,104.5,26.7,105.5,25.4,105.5z"/>
	<path class="st0" d="M268,106h18.2c2,0,4.3,0,4.1-2.9c-0.2-2.5-2.5-2-4.2-2.1c-12.6,0-25.1,0-37.7,0c-1.7,0-3.9-0.3-4.1,2.1
		c-0.2,2.9,2.2,2.7,4.2,2.7C255.1,106,261.6,106,268,106z"/>
	<path class="st0" d="M242.3,121.4c2.9,0,5.9,0,8.8,0c1.4,0,2.8-0.6,2.6-2.4c-0.1-1.2-1.2-2.1-2.4-2c0,0-0.1,0-0.1,0
		c-6.3,0-12.5,0-18.7,0c-1.4,0-2.9,0.6-2.6,2.4c0.2,1.8,1.6,2,3.1,2L242.3,121.4L242.3,121.4z"/>
	<path class="st0" d="M271.4,139c2.9,0,5.9,0,8.8,0c1.3,0,2.4-0.5,2.5-1.9c0.1-1.4-1-2.1-2.2-2.1c-6-0.1-12.1-0.1-18.1,0
		c-1.1,0-2.5,0.3-2.5,1.8c-0.1,1.9,1.4,2.1,2.9,2.1C265.5,139.1,268.5,139,271.4,139L271.4,139z"/>
	<path class="st0" d="M263.5,121.5c1.7-0.1,3.9,0.1,3.8-2.3c-0.1-2.4-2.2-2.2-4-2.2s-3.9-0.2-3.8,2.3
		C259.6,121.7,261.7,121.4,263.5,121.5L263.5,121.5z"/>
	<path class="st0" d="M316.4,102c-2,0.3-4.5-0.3-4.3,2.3s2.6,1.8,4.3,1.8s3.6,0.5,3.7-1.8C320.1,101.3,317.5,102.5,316.4,102z"/>
	<path class="st0" d="M295.8,134.9c-1.4,0.2-3.4-0.1-3.3,2.1c0,1.7,1.5,2,3,2s3.3,0,3.4-2.1C298.8,135,297.2,135.1,295.8,134.9
		L295.8,134.9z"/>
	<path class="st0" d="M301.4,106c1.8-0.2,2.9-1,2.9-2.5c0-1.9-1.3-2.7-3.1-2.6c-1.3,0-2.4,1-2.4,2.3c0,0.1,0,0.3,0,0.4
		C298.9,105,300,106.1,301.4,106L301.4,106z"/>
	<text transform="matrix(0.9507 0.3102 -0.3102 0.9507 246.6619 64.7572)" class="st0 st1 st2">+</text>
	<text transform="matrix(0.9848 -0.1736 0.1736 0.9848 134.133 19.715)" class="st0 st1 st3">+</text>
	<text transform="matrix(1 0 0 1 53.1633 54.2377)" class="st0 st1 st3">+</text>
	<polygon class="st4" points="90.3,49.2 85.6,59.3 79.6,49.6 	"/>
	<polygon class="st4" points="198.5,25.4 198.7,14.3 208.1,20.6 	"/>
	<circle class="st5" cx="48.7" cy="72.4" r="4.9"/>
	<circle class="st5" cx="37.8" cy="119.4" r="4.9"/>
	<circle class="st5" cx="163.2" cy="25.7" r="3"/>
	<circle class="st5" cx="219.2" cy="20.1" r="3"/>
	<path class="st6" d="M220.2,146.3h-88.4c-1.8,0-3.2-1.4-3.2-3.2V68.6c0-1.8,1.4-3.2,3.2-3.2h68.9l2.8-5.9c0.4-0.7,1.1-1.2,1.9-1.2
		l14.8,0.1c1.8,0,3.2,1.4,3.2,3.2v81.5C223.4,144.9,222,146.3,220.2,146.3z"/>
	<path class="st7" d="M183.6,86h-45.3c-1.1,0-2-0.9-2-2V59.4c0-1.1,0.9-2,2-2h45.3c1.1,0,2,0.9,2,2v24.6
		C185.7,85.1,184.7,86,183.6,86z"/>
	<circle class="st8" cx="197.3" cy="86.7" r="14.5"/>
	<path class="st9" d="M207.4,97.1c-2.6,2.6-6.2,4.1-10.1,4.1c-8,0-14.5-6.5-14.5-14.5c0-1.3,0.2-2.5,0.5-3.7H101
		c-1.6,0-2.9,1.3-2.9,2.9l19.5,59.4c0,1.6,1.3,2.9,2.9,2.9h99.8c1.6,0,2.9-1.3,2.9-2.9L207.4,97.1z"/>
	<g class="st10">
		<g>
			<path class="st11" d="M197.8,86.7l4.4-4.4c0.2-0.2,0.2-0.4,0-0.6c-0.2-0.2-0.4-0.2-0.6,0l-4.4,4.4l-4.4-4.4
				c-0.2-0.2-0.4-0.2-0.6,0c-0.2,0.2-0.2,0.4,0,0.6l4.4,4.4l-4.4,4.4c-0.2,0.2-0.2,0.4,0,0.6c0.1,0.1,0.2,0.1,0.3,0.1s0.2,0,0.3-0.1
				l4.4-4.4l4.4,4.4c0.1,0.1,0.2,0.1,0.3,0.1s0.2,0,0.3-0.1c0.2-0.2,0.2-0.4,0-0.6L197.8,86.7z"/>
		</g>
	</g>
	<path class="st12" d="M155.7,77.9c0.2-0.2,5.6-4,11,0l0.9-1.3c-6.4-4.8-12.8,0-12.9,0L155.7,77.9z"/>
	<polygon class="st12" points="149.9,68.7 151.4,67.2 152.8,68.7 154,67.5 152.5,66.1 154,64.6 152.8,63.5 151.4,65 149.9,63.5 
		148.8,64.6 150.3,66.1 148.8,67.5 	"/>
	<polygon class="st12" points="169.8,68.7 171.3,67.2 172.7,68.7 173.8,67.5 172.4,66.1 173.8,64.6 172.7,63.5 171.3,65 169.8,63.5 
		168.7,64.6 170.2,66.1 168.7,67.5 	"/>
</g>
</svg>
