<svg xmlns="http://www.w3.org/2000/svg" width="38.172" height="34.992" viewBox="0 0 38.172 34.992"><defs><style>.a{opacity:0.5;}.b{fill:#cfd8dc;}</style></defs><g class="a" transform="translate(0 -21.329)"><path class="b" d="M36.253,24.647l-1.4-1.4a6.555,6.555,0,0,0-9.27,0h0L7.72,41.114a4.635,4.635,0,0,0,0,6.555l.932.932a4.794,4.794,0,0,0,6.555,0L28.4,35.41a.8.8,0,0,0-1.105-1.144l-.02.02-13.19,13.19a3.151,3.151,0,0,1-4.306,0l-.932-.932a3.044,3.044,0,0,1,0-4.305h0L26.709,24.373a5.09,5.09,0,0,1,7.021,0l1.4,1.4a4.966,4.966,0,0,1,0,7.021L15.207,52.714a6.885,6.885,0,0,1-9.736,0L3.607,50.851a6.885,6.885,0,0,1,0-9.736L18.854,25.869a.8.8,0,1,0-1.105-1.144l-.02.02L2.482,39.989a8.474,8.474,0,0,0,0,11.985h0l1.864,1.864a8.474,8.474,0,0,0,11.985,0h0L36.253,33.917a6.555,6.555,0,0,0,0-9.27Z" transform="translate(0 0)"/><path d="M10.338,56.321a8.43,8.43,0,0,1-5.993-2.483L2.482,51.976a8.474,8.474,0,0,1,0-11.985h0L17.729,24.744a.8.8,0,1,1,1.144,1.105l-.02.02L3.606,41.114a6.885,6.885,0,0,0,0,9.736l1.864,1.864a6.885,6.885,0,0,0,9.736,0L35.128,32.792a4.966,4.966,0,0,0,0-7.021l-1.4-1.4a5.09,5.09,0,0,0-7.021,0L8.844,42.238a3.044,3.044,0,0,0,0,4.305h0l.932.932a3.151,3.151,0,0,0,4.306,0l13.19-13.19a.8.8,0,0,1,1.144,1.105l-.02.02L15.206,48.6a4.794,4.794,0,0,1-6.555,0l-.932-.932a4.635,4.635,0,0,1,0-6.555L25.585,23.249a6.555,6.555,0,0,1,9.27,0h0l1.4,1.4a6.555,6.555,0,0,1,0,9.27h0L16.331,53.838A8.43,8.43,0,0,1,10.338,56.321Z" transform="translate(0 0)"/></g></svg>