<svg xmlns="http://www.w3.org/2000/svg" width="53.018" height="50" viewBox="0 0 53.018 50">
  <g id="Group_19331" data-name="Group 19331" transform="translate(0 -4.782)">
    <circle id="Ellipse_530" data-name="Ellipse 530" cx="0.631" cy="0.631" r="0.631" transform="translate(0 49.102)" fill="#2d4356"/>
    <path id="Path_28868" data-name="Path 28868" d="M7.578,145.218H6.631a.631.631,0,1,0,0,1.262h.947a.631.631,0,1,0,0-1.262Zm47.022,0h-.947a.631.631,0,1,0,0,1.262H54.6a.631.631,0,1,0,0-1.262Z" transform="translate(-4.106 -96.116)" fill="#2d4356"/>
    <circle id="Ellipse_531" data-name="Ellipse 531" cx="0.631" cy="0.631" r="0.631" transform="translate(51.756 49.102)" fill="#2d4356"/>
    <path id="Path_28869" data-name="Path 28869" d="M66.033,74.51H63.411a.633.633,0,0,0,0,1.262h2.622a.633.633,0,0,0,0-1.262Zm-18.935,0H44.476a.633.633,0,0,0,0,1.262H47.1a.633.633,0,0,0,0-1.262Zm14.468,0H48.943a.631.631,0,1,0,0,1.262h5.03V76.4H51.468a.631.631,0,1,0,0,1.262h7.89a.631.631,0,1,0,0-1.262H56.536v-.631h5.03a.631.631,0,1,0,0-1.262ZM55.255,38.218a2.84,2.84,0,1,0,2.84,2.84A2.84,2.84,0,0,0,55.255,38.218Zm0,4.418a1.578,1.578,0,1,1,1.578-1.578A1.578,1.578,0,0,1,55.255,42.636ZM53.677,48a.631.631,0,0,0-.631.631v7.574a.631.631,0,0,0,1.262,0V48.632A.631.631,0,0,0,53.677,48Zm3.156-3.156a.631.631,0,0,0-.631.631V53.05a.631.631,0,1,0,1.262,0V45.476a.631.631,0,0,0-.631-.631ZM45.156,70.881a.631.631,0,0,0,.631-.631V62.676a.631.631,0,1,0-1.262,0V70.25a.631.631,0,0,0,.631.631Zm-2.525-9.468a.631.631,0,0,0,.631-.631V53.208a.631.631,0,1,0-1.262,0v7.574a.631.631,0,0,0,.631.631Zm22.722,9.468a.631.631,0,0,0,.631-.631V62.676a.631.631,0,1,0-1.262,0V70.25a.631.631,0,0,0,.631.631ZM67.878,61.1a.631.631,0,0,0,.631-.631V52.893a.631.631,0,1,0-1.262,0v7.574a.631.631,0,0,0,.631.631Z" transform="translate(-28.745 -22.884)" fill="#0bceb2"/>
    <path id="Path_28870" data-name="Path 28870" d="M49.619,49.1H36.768V18.174a8.205,8.205,0,0,0-16.41,0V49.1H7.506a.637.637,0,1,0,0,1.262H49.619a.637.637,0,1,0,0-1.262Zm-28-30.927a6.943,6.943,0,0,1,13.886,0V49.1H33.454a2.039,2.039,0,0,0,.158-.789V18.174a5.049,5.049,0,1,0-10.1,0V48.313a2.039,2.039,0,0,0,.158.789H21.62ZM29.667,49.1h-2.21a2.039,2.039,0,0,0,.158-.789V38.056a.947.947,0,1,1,1.894,0V48.313a2.039,2.039,0,0,0,.158.789Zm1.1-.789V38.056a2.209,2.209,0,1,0-4.418,0V48.313a.789.789,0,0,1-1.578,0V18.174a3.787,3.787,0,0,1,7.574,0V48.313a.789.789,0,0,1-1.578,0ZM3.947,10.121A.947.947,0,1,0,3,9.174a.947.947,0,0,0,.947.947Zm0-1.42a.473.473,0,1,1-.473.473A.473.473,0,0,1,3.947,8.7ZM53.178,21.33a.631.631,0,1,0,.631.631A.631.631,0,0,0,53.178,21.33Zm0,.947a.316.316,0,1,1,.316-.316.316.316,0,0,1-.316.316Zm-10.2,1.578a.631.631,0,1,0,.631.631A.631.631,0,0,0,42.974,23.855Zm0,.947a.316.316,0,1,1,.316-.316.316.316,0,0,1-.316.316ZM51.381,4.782a.631.631,0,1,0,.631.631.631.631,0,0,0-.631-.631Zm0,.947a.316.316,0,1,1,.316-.316A.316.316,0,0,1,51.381,5.729Zm-33.548,0a.631.631,0,1,0-.631.631A.631.631,0,0,0,17.833,5.729Zm-.947,0a.316.316,0,1,1,.316.316A.316.316,0,0,1,16.886,5.729Z" transform="translate(-2.053)" fill="#2d4356"/>
    <path id="Path_28871" data-name="Path 28871" d="M8.7,68.527l.469-.617-.3-.168-.3.691h-.01l-.306-.686-.3.173.464.6v.01L7.7,68.438v.335l.731-.093v.01l-.469.6.281.178.321-.7h.01l.3.691.311-.178L8.7,68.695v-.01l.745.089v-.335l-.745.1Z" transform="translate(-5.267 -43.091)" fill="#0bceb2"/>
    <path id="Path_28872" data-name="Path 28872" d="M44.822,44.187l-.27.347.162.1.185-.4H44.9l.17.4.179-.1-.273-.341v-.006l.429.051v-.193l-.429.057v-.005l.27-.356-.17-.1-.174.4H44.9l-.176-.4-.174.1.268.347V44.1l-.418-.054v.193l.421-.054Z" transform="translate(-30.389 -26.596)" fill="#0bceb2"/>
    <path id="Path_28873" data-name="Path 28873" d="M138.924,35.034V34.7l-.731.1v-.01l.46-.605-.291-.165-.3.678h-.01l-.3-.673-.3.17.455.591v.01l-.712-.092v.329l.717-.092v.01l-.46.591.276.175.315-.683h.009l.291.678.305-.174-.465-.581v-.01Z" transform="translate(-93.905 -20.012)" fill="#0bceb2"/>
    <path id="Path_28874" data-name="Path 28874" d="M114.9,19.363l.4-.522-.251-.142-.255.585h-.009l-.259-.581-.255.146.393.51v.008l-.614-.08v.284l.618-.08V19.5l-.4.509.238.151.272-.589h.008l.251.585.263-.15-.4-.5V19.5l.631.075v-.284l-.631.084Z" transform="translate(-78.055 -9.525)" fill="#0bceb2"/>
  </g>
</svg>
