<?xml version="1.0" encoding="utf-8"?>
<!-- Generator: Adobe Illustrator 25.3.0, SVG Export Plug-In . SVG Version: 6.00 Build 0)  -->
<svg version="1.1" id="Layer_1" xmlns="http://www.w3.org/2000/svg" xmlns:xlink="http://www.w3.org/1999/xlink" x="0px" y="0px"
	 viewBox="0 0 461 260.5" style="enable-background:new 0 0 461 260.5;" xml:space="preserve">
<style type="text/css">
	.st0{opacity:0.3;}
	.st1{fill:#D1EBFF;}
	.st2{opacity:0.2;}
	.st3{fill:#E5E5E5;}
	.st4{fill:#A8CFF0;}
	.st5{opacity:0.4;fill:#A8CFF0;}
	.st6{fill:#2672AB;}
	.st7{fill:#F9B69E;}
	.st8{fill:#001A46;}
	.st9{fill:#022652;}
	.st10{fill:#084C94;}
	.st11{fill:#FCCDB7;}
	.st12{fill:#03336E;}
	.st13{fill:#F0F8FF;}
	.st14{opacity:0.5;fill:#084C94;}
	.st15{fill:#08488C;}
	.st16{fill:#3F92D1;}
</style>
<g>
	<g class="st0">
		<path class="st1" d="M410.6,29.3c0,0-0.1,0-0.1,0c-0.3-0.1-0.5-0.4-0.4-0.7l6.2-24.1l-71.5,6.2c-0.3,0-0.6-0.2-0.6-0.5
			c0-0.3,0.2-0.6,0.5-0.6L417,3.3c0.2,0,0.4,0.1,0.5,0.2c0.1,0.1,0.2,0.3,0.1,0.5l-6.4,24.8C411.1,29.1,410.9,29.3,410.6,29.3z"/>
	</g>
	<g class="st2">
		<path class="st3" d="M403.8,37.9c-0.1,0-0.1,0-0.2,0c-0.4-0.1-0.6-0.5-0.5-0.9l0.4-1.6c0.1-0.4,0.5-0.6,0.9-0.5
			c0.4,0.1,0.6,0.5,0.5,0.9l-0.4,1.6C404.4,37.6,404.1,37.9,403.8,37.9z M405.3,32c-0.1,0-0.1,0-0.2,0c-0.4-0.1-0.6-0.5-0.5-0.9
			l0.7-2.8c0.1-0.4,0.5-0.6,0.9-0.5c0.4,0.1,0.6,0.5,0.5,0.9l-0.7,2.8C405.9,31.8,405.6,32,405.3,32z M407.1,24.9
			c-0.1,0-0.1,0-0.2,0c-0.4-0.1-0.6-0.5-0.5-0.9l0.7-2.8c0.1-0.4,0.5-0.6,0.9-0.5c0.4,0.1,0.6,0.5,0.5,0.9l-0.7,2.8
			C407.7,24.7,407.4,24.9,407.1,24.9z M409,17.8c-0.1,0-0.1,0-0.2,0c-0.4-0.1-0.6-0.5-0.5-0.9l0.7-2.8c0.1-0.4,0.5-0.6,0.9-0.5
			c0.4,0.1,0.6,0.5,0.5,0.9l-0.7,2.8C409.6,17.6,409.3,17.8,409,17.8z M321.4,17.5c-0.4,0-0.7-0.3-0.7-0.7c0-0.4,0.3-0.8,0.7-0.8
			l2.9-0.3c0.4-0.1,0.8,0.3,0.8,0.7c0,0.4-0.3,0.8-0.7,0.8L321.4,17.5C321.4,17.5,321.4,17.5,321.4,17.5z M328.7,16.8
			c-0.4,0-0.7-0.3-0.7-0.7c0-0.4,0.3-0.8,0.7-0.8l2.9-0.3c0.4,0,0.8,0.3,0.8,0.7c0,0.4-0.3,0.8-0.7,0.8L328.7,16.8
			C328.7,16.8,328.7,16.8,328.7,16.8z M336,16.2c-0.4,0-0.7-0.3-0.7-0.7c0-0.4,0.3-0.8,0.7-0.8l2.9-0.3c0.4,0,0.8,0.3,0.8,0.7
			c0,0.4-0.3,0.8-0.7,0.8L336,16.2C336,16.2,336,16.2,336,16.2z M343.3,15.6c-0.4,0-0.7-0.3-0.7-0.7c0-0.4,0.3-0.8,0.7-0.8l2.9-0.3
			c0.4-0.1,0.8,0.3,0.8,0.7c0,0.4-0.3,0.8-0.7,0.8L343.3,15.6C343.3,15.6,343.3,15.6,343.3,15.6z M350.6,14.9
			c-0.4,0-0.7-0.3-0.7-0.7c0-0.4,0.3-0.8,0.7-0.8l2.9-0.3c0.4,0,0.8,0.3,0.8,0.7c0,0.4-0.3,0.8-0.7,0.8L350.6,14.9
			C350.7,14.9,350.6,14.9,350.6,14.9z M357.9,14.3c-0.4,0-0.7-0.3-0.7-0.7c0-0.4,0.3-0.8,0.7-0.8l2.9-0.3c0.4,0,0.8,0.3,0.8,0.7
			c0,0.4-0.3,0.8-0.7,0.8L357.9,14.3C358,14.3,358,14.3,357.9,14.3z M365.2,13.7c-0.4,0-0.7-0.3-0.7-0.7c0-0.4,0.3-0.8,0.7-0.8
			l2.9-0.3c0.4,0,0.8,0.3,0.8,0.7c0,0.4-0.3,0.8-0.7,0.8L365.2,13.7C365.3,13.7,365.3,13.7,365.2,13.7z M372.6,13
			c-0.4,0-0.7-0.3-0.7-0.7c0-0.4,0.3-0.8,0.7-0.8l2.9-0.3c0.4-0.1,0.8,0.3,0.8,0.7c0,0.4-0.3,0.8-0.7,0.8L372.6,13
			C372.6,13,372.6,13,372.6,13z M379.9,12.4c-0.4,0-0.7-0.3-0.7-0.7c0-0.4,0.3-0.8,0.7-0.8l2.9-0.3c0.4,0,0.8,0.3,0.8,0.7
			c0,0.4-0.3,0.8-0.7,0.8L379.9,12.4C379.9,12.4,379.9,12.4,379.9,12.4z M387.2,11.8c-0.4,0-0.7-0.3-0.7-0.7c0-0.4,0.3-0.8,0.7-0.8
			l2.9-0.3c0.4,0,0.8,0.3,0.8,0.7c0,0.4-0.3,0.8-0.7,0.8L387.2,11.8C387.2,11.8,387.2,11.8,387.2,11.8z M394.5,11.2
			c-0.4,0-0.7-0.3-0.7-0.7c0-0.4,0.3-0.8,0.7-0.8l2.9-0.3c0.4-0.1,0.8,0.3,0.8,0.7c0,0.4-0.3,0.8-0.7,0.8L394.5,11.2
			C394.5,11.2,394.5,11.2,394.5,11.2z M410.8,10.7c-0.1,0-0.1,0-0.2,0c-0.4-0.1-0.6-0.5-0.5-0.9l-0.9,0.1c-0.4,0-0.8-0.3-0.8-0.7
			c0-0.4,0.3-0.8,0.7-0.8l1.9-0.2c0.2,0,0.5,0.1,0.6,0.3c0.2,0.2,0.2,0.4,0.2,0.7l-0.3,1C411.4,10.5,411.1,10.7,410.8,10.7z
			 M401.8,10.5c-0.4,0-0.7-0.3-0.7-0.7c0-0.4,0.3-0.8,0.7-0.8l2.9-0.3c0.4,0,0.8,0.3,0.8,0.7c0,0.4-0.3,0.8-0.7,0.8L401.8,10.5
			C401.9,10.5,401.8,10.5,401.8,10.5z"/>
	</g>
	<path class="st4" d="M401,17.5L304,25.9l22.6,13.1l-66.1,38.2c11.4-2.1,23.4-3.1,35.9-3.1c12.9,0,25.8,1.2,38.3,3.3l29.2-16.9
		l22.6,13L401,17.5z"/>
	<g>
		<path class="st4" d="M435.1,153.3l-29.9-58l-16.7,9.6c-31.2-16.7-71.6-23.9-108.1-21c16.1,9.9,27.7,20.2,34.9,31
			c12.6,1.9,25.2,5.7,36.2,11.4l-16.8,9.7L435.1,153.3z"/>
		<path class="st4" d="M232.6,119.1l-22.2-12.7l-73.6,42.5c3.5-0.1,7.2-0.2,11.1-0.2c8,0,16.9,0.3,26.5,0.9
			c13.9,0.9,24.9,1.4,32.8,1.6l38.1-22C242.8,125.9,238.5,122.5,232.6,119.1z"/>
	</g>
	<g class="st0">
		<path class="st1" d="M151.4,54.4c-0.2,0-0.4-0.1-0.5-0.3l-12.3-23.7c-0.1-0.2-0.1-0.4,0-0.6c0.1-0.2,0.3-0.2,0.5-0.2l84,14.4
			c0.3,0.1,0.5,0.3,0.4,0.6c-0.1,0.3-0.3,0.5-0.6,0.4l-82.9-14.3l11.7,22.8c0.1,0.3,0,0.6-0.2,0.7C151.6,54.4,151.5,54.4,151.4,54.4
			z"/>
	</g>
	<g class="st2">
		<path class="st3" d="M161.8,64.7c-0.3,0-0.5-0.1-0.7-0.4l-1.3-2.6c-0.2-0.4,0-0.8,0.3-1c0.4-0.2,0.8,0,1,0.3l1.3,2.6
			c0.2,0.4,0,0.8-0.3,1C162,64.7,161.9,64.7,161.8,64.7z M158.4,58.2c-0.3,0-0.5-0.1-0.7-0.4l-1.3-2.6c-0.2-0.4,0-0.8,0.3-1
			c0.4-0.2,0.8,0,1,0.3l1.3,2.6c0.2,0.4,0,0.8-0.3,1C158.6,58.2,158.5,58.2,158.4,58.2z M235.2,52c0,0-0.1,0-0.1,0l-2.9-0.5
			c-0.4-0.1-0.7-0.4-0.6-0.8c0.1-0.4,0.4-0.7,0.8-0.6l2.9,0.5c0.4,0.1,0.7,0.4,0.6,0.8C235.8,51.7,235.5,52,235.2,52z M155,51.7
			c-0.3,0-0.5-0.1-0.7-0.4l-1.3-2.6c-0.2-0.4,0-0.8,0.3-1c0.4-0.2,0.8,0,1,0.3l1.3,2.6c0.2,0.4,0,0.8-0.3,1
			C155.3,51.7,155.1,51.7,155,51.7z M227.9,50.7c0,0-0.1,0-0.1,0l-2.9-0.5c-0.4-0.1-0.7-0.4-0.6-0.8c0.1-0.4,0.4-0.7,0.8-0.6
			l2.9,0.5c0.4,0.1,0.7,0.4,0.6,0.8C228.6,50.5,228.3,50.7,227.9,50.7z M220.7,49.5c0,0-0.1,0-0.1,0l-2.9-0.5
			c-0.4-0.1-0.7-0.4-0.6-0.8c0.1-0.4,0.4-0.7,0.8-0.6l2.9,0.5c0.4,0.1,0.7,0.4,0.6,0.8C221.4,49.2,221.1,49.5,220.7,49.5z
			 M213.5,48.2c0,0-0.1,0-0.1,0l-2.9-0.5c-0.4-0.1-0.7-0.4-0.6-0.8c0.1-0.4,0.4-0.7,0.8-0.6l2.9,0.5c0.4,0.1,0.7,0.4,0.6,0.8
			C214.1,48,213.8,48.2,213.5,48.2z M206.2,47c0,0-0.1,0-0.1,0l-2.9-0.5c-0.4-0.1-0.7-0.4-0.6-0.8c0.1-0.4,0.4-0.7,0.8-0.6l2.9,0.5
			c0.4,0.1,0.7,0.4,0.6,0.8C206.9,46.7,206.6,47,206.2,47z M199,45.7c0,0-0.1,0-0.1,0l-2.9-0.5c-0.4-0.1-0.7-0.4-0.6-0.8
			c0.1-0.4,0.4-0.7,0.8-0.6l2.9,0.5c0.4,0.1,0.7,0.4,0.6,0.8C199.7,45.5,199.3,45.7,199,45.7z M151.7,45.2c-0.3,0-0.5-0.1-0.7-0.4
			l-1.3-2.6c-0.2-0.4,0-0.8,0.3-1c0.4-0.2,0.8,0,1,0.3l1.3,2.6c0.2,0.4,0,0.8-0.3,1C151.9,45.1,151.8,45.2,151.7,45.2z M191.8,44.5
			c0,0-0.1,0-0.1,0l-2.9-0.5c-0.4-0.1-0.7-0.4-0.6-0.8c0.1-0.4,0.4-0.7,0.8-0.6l2.9,0.5c0.4,0.1,0.7,0.4,0.6,0.8
			C192.4,44.3,192.1,44.5,191.8,44.5z M184.5,43.3c0,0-0.1,0-0.1,0l-2.9-0.5c-0.4-0.1-0.7-0.4-0.6-0.8c0.1-0.4,0.4-0.7,0.8-0.6
			l2.9,0.5c0.4,0.1,0.7,0.4,0.6,0.8C185.2,43,184.9,43.3,184.5,43.3z M177.3,42c0,0-0.1,0-0.1,0l-2.9-0.5c-0.4-0.1-0.7-0.4-0.6-0.8
			c0.1-0.4,0.4-0.7,0.8-0.6l2.9,0.5c0.4,0.1,0.7,0.4,0.6,0.8C177.9,41.8,177.6,42,177.3,42z M170.1,40.8c0,0-0.1,0-0.1,0l-2.9-0.5
			c-0.4-0.1-0.7-0.4-0.6-0.8c0.1-0.4,0.4-0.7,0.8-0.6l2.9,0.5c0.4,0.1,0.7,0.4,0.6,0.8C170.7,40.5,170.4,40.8,170.1,40.8z
			 M162.8,39.5c0,0-0.1,0-0.1,0l-2.9-0.5c-0.4-0.1-0.7-0.4-0.6-0.8c0.1-0.4,0.4-0.7,0.8-0.6l2.9,0.5c0.4,0.1,0.7,0.4,0.6,0.8
			C163.5,39.3,163.2,39.5,162.8,39.5z M148.3,38.6c-0.3,0-0.5-0.1-0.7-0.4l-0.9-1.8c-0.1-0.2-0.1-0.5,0.1-0.8
			c0.2-0.2,0.4-0.3,0.7-0.3l0.9,0.2c0.4,0.1,0.7,0.4,0.6,0.8c0,0.2-0.2,0.4-0.4,0.5l0.3,0.6c0.2,0.4,0,0.8-0.3,1
			C148.5,38.6,148.4,38.6,148.3,38.6z M155.6,38.3c0,0-0.1,0-0.1,0l-2.9-0.5c-0.4-0.1-0.7-0.4-0.6-0.8c0.1-0.4,0.4-0.7,0.8-0.6
			l2.9,0.5c0.4,0.1,0.7,0.4,0.6,0.8C156.2,38,155.9,38.3,155.6,38.3z"/>
	</g>
	<path class="st5" d="M314.6,138.8c-1.9-17.4-16.5-33.9-43.6-49.6l-26.6-15.8l17.1-9.9L161.2,46.2l29.9,58l16.7-9.6l29.5,16.5
		c12.4,7.2,19.1,14.8,19.9,22.8c0.8,8-3.3,14.6-12.5,19.9c-6.6,3.8-14.7,6.1-24.3,6.8c-6.1,0.4-21.7-0.1-46.6-1.6
		c-24.9-1.5-44.1-1-57.6,1.4c-13.5,2.5-27.2,7.7-41,15.7c-1.3,0.8-5,3-11,6.6l42.9,24.8c12.7-7.6,22.8-12.1,30.2-13.6
		c7.4-1.5,20.2-1.8,38.5-0.8c35.2,1.9,60.4,1.9,75.5,0c15.1-1.9,27.9-5.9,38.2-11.9C308.2,170.3,316.6,156.2,314.6,138.8z"/>
	<g>
		<path class="st1" d="M53.8,257c-0.3,0-0.6-0.2-0.6-0.6c0-0.3,0.2-0.6,0.6-0.6c12.9,0,25.2-3,34.6-8.4c5.7-3.3,10-7.2,13.1-11.8
			c0.2-0.3,0.5-0.3,0.8-0.2c0.3,0.2,0.3,0.5,0.2,0.8c-3.1,4.7-7.6,8.7-13.4,12.1C79.3,253.9,66.8,257,53.8,257z"/>
	</g>
	<g>
		<path class="st3" d="M55.3,252.7c-0.4,0-0.7-0.3-0.7-0.7c0-0.4,0.3-0.7,0.7-0.7c1,0,1.9-0.1,2.9-0.1c0.4,0,0.8,0.3,0.8,0.7
			c0,0.4-0.3,0.8-0.7,0.8C57.3,252.7,56.3,252.7,55.3,252.7C55.3,252.7,55.3,252.7,55.3,252.7z M50.9,252.7
			C50.9,252.7,50.9,252.7,50.9,252.7c-1,0-2-0.1-3-0.2c-0.4,0-0.7-0.4-0.7-0.8c0-0.4,0.4-0.7,0.8-0.7c1,0.1,1.9,0.1,2.9,0.2
			c0.4,0,0.7,0.4,0.7,0.8C51.6,252.4,51.3,252.7,50.9,252.7z M62.6,252.3c-0.4,0-0.7-0.3-0.7-0.7c0-0.4,0.2-0.8,0.6-0.8
			c1-0.1,1.9-0.2,2.9-0.4c0.4-0.1,0.8,0.2,0.8,0.6c0.1,0.4-0.2,0.8-0.6,0.8C64.7,252,63.7,252.1,62.6,252.3
			C62.7,252.3,62.6,252.3,62.6,252.3z M43.6,252.1C43.5,252.1,43.5,252.1,43.6,252.1c-1.1-0.1-2.1-0.3-3-0.5
			c-0.4-0.1-0.7-0.4-0.6-0.8c0.1-0.4,0.4-0.7,0.8-0.6c0.9,0.2,1.9,0.3,2.9,0.4c0.4,0.1,0.7,0.4,0.6,0.8
			C44.2,251.8,43.9,252.1,43.6,252.1z M69.8,251.1c-0.3,0-0.6-0.2-0.7-0.6c-0.1-0.4,0.2-0.8,0.6-0.9c1-0.2,1.9-0.4,2.8-0.7
			c0.4-0.1,0.8,0.1,0.9,0.5c0.1,0.4-0.1,0.8-0.5,0.9c-0.9,0.3-1.9,0.5-2.9,0.7C69.9,251.1,69.9,251.1,69.8,251.1z M36.3,250.8
			c-0.1,0-0.1,0-0.2,0c-1-0.2-1.9-0.5-2.9-0.8c-0.4-0.1-0.6-0.5-0.5-0.9c0.1-0.4,0.5-0.6,0.9-0.5c0.9,0.3,1.9,0.5,2.8,0.7
			c0.4,0.1,0.6,0.5,0.5,0.9C37,250.5,36.7,250.8,36.3,250.8z M76.9,249.1c-0.3,0-0.6-0.2-0.7-0.5c-0.1-0.4,0.1-0.8,0.5-0.9
			c0.9-0.3,1.8-0.6,2.7-1c0.4-0.1,0.8,0,1,0.4c0.1,0.4,0,0.8-0.4,1c-0.9,0.4-1.8,0.7-2.8,1C77.1,249.1,77,249.1,76.9,249.1z
			 M29.3,248.7c-0.1,0-0.2,0-0.3,0c-0.9-0.3-1.9-0.7-2.8-1.1c-0.4-0.2-0.5-0.6-0.4-1c0.2-0.4,0.6-0.5,1-0.4c0.9,0.4,1.8,0.7,2.7,1.1
			c0.4,0.1,0.6,0.6,0.4,0.9C29.9,248.5,29.6,248.7,29.3,248.7z M83.7,246.3c-0.3,0-0.5-0.1-0.7-0.4c-0.2-0.4,0-0.8,0.3-1
			c0.9-0.4,1.7-0.9,2.6-1.4c0.3-0.2,0.8-0.1,1,0.3c0.2,0.4,0.1,0.8-0.3,1c-0.9,0.5-1.7,1-2.6,1.4C83.9,246.3,83.8,246.3,83.7,246.3z
			 M22.6,245.7c-0.1,0-0.2,0-0.3-0.1c-0.6-0.3-1.2-0.7-1.8-1c-0.4-0.2-0.5-0.7-0.3-1c0.2-0.3,0.7-0.5,1-0.3c0.6,0.3,1.2,0.7,1.8,1
			c0.4,0.2,0.5,0.6,0.3,1C23.1,245.6,22.8,245.7,22.6,245.7z M90,242.5c-0.2,0-0.5-0.1-0.6-0.3c-0.2-0.3-0.2-0.8,0.2-1
			c0.8-0.6,1.6-1.2,2.3-1.8c0.3-0.3,0.8-0.2,1,0.1c0.3,0.3,0.2,0.8-0.1,1c-0.8,0.6-1.5,1.2-2.4,1.8C90.3,242.5,90.1,242.5,90,242.5z
			 M95.5,237.7c-0.2,0-0.4-0.1-0.5-0.2c-0.3-0.3-0.3-0.7-0.1-1c0.7-0.7,1.3-1.5,1.8-2.2c0.2-0.3,0.7-0.4,1-0.2
			c0.3,0.2,0.4,0.7,0.2,1c-0.6,0.8-1.2,1.6-1.9,2.3C95.9,237.6,95.7,237.7,95.5,237.7z M99.7,231.7c-0.1,0-0.2,0-0.3-0.1
			c-0.4-0.2-0.5-0.6-0.3-1c0.4-0.9,0.8-1.7,1.1-2.6c0.1-0.4,0.6-0.6,0.9-0.5c0.4,0.1,0.6,0.6,0.5,0.9c-0.3,0.9-0.7,1.9-1.2,2.8
			C100.2,231.5,99.9,231.7,99.7,231.7z M101.8,224.7c0,0-0.1,0-0.1,0c-0.4-0.1-0.7-0.4-0.6-0.8c0.1-0.9,0.2-1.9,0.2-2.8
			c0-0.4,0.3-0.7,0.7-0.7c0.4,0,0.7,0.3,0.7,0.7c0,1-0.1,2-0.2,3C102.5,224.4,102.2,224.7,101.8,224.7z"/>
	</g>
	
		<ellipse transform="matrix(5.421071e-03 -1 1 5.421071e-03 -167.6781 273.209)" class="st5" cx="53.5" cy="220.9" rx="23.8" ry="41.2"/>
	<g>
		<path class="st6" d="M30.2,104.1c-2.7-7.8-10.7-21.4-12.4-25.2c-1.7-3.8-4.5-11.5-1.5-13.6c3.2-2.2,11.2-4,14.6-4.8
			c2.8-0.7,9.6-2.5,9.7,1.5c0.2,3.6-1.3,7.6-3.3,8c-1.9,0.4-7.7,2.2-8.3,2.4c-0.6,0.2,1.4,3,2.3,4.4c0.9,1.4,5.2,8.8,6.7,9.9
			c1.4,1.1,4.4,2.6,4.4,2.6L31,104.7L30.2,104.1z"/>
		<path class="st7" d="M67.4,156.3c0.2,2.4,1.1,4.6,1.7,5.9c0.7,1.5,1,3.2,1.7,2.9c0.8-0.3-0.2-7.2-0.2-7.2L67.4,156.3z"/>
		<path class="st8" d="M30.7,217.3c0,0-0.8,3-0.2,4.2c0.6,1.3,3.3,2.3,5.6,1.2c2.2-1.1,3.2-3.3,4-3.9c0.8-0.6,5.6-1.1,9.1-4.1
			c3.5-3,3-6.3-0.5-6.3s-9.9,1.6-12.2,3C34.2,212.8,30.7,217.3,30.7,217.3z"/>
		<path class="st9" d="M32.4,220.5c2.5,0.5,5.7-1.7,7.2-2.9c1.5-1.3,4.1-0.6,7.5-3.3c3.4-2.7,4.6-4.5,3-5.4
			c-1.6-0.9-7.2-0.6-11.6,1.7c-4.4,2.4-7.4,4.1-7.4,4.1s-1.1,3.3-0.5,4C31.2,219.4,31,220.2,32.4,220.5z"/>
		<path class="st6" d="M32.4,145.1c0,0-1.9,8.1-0.6,18.3c1.3,10.2-0.7,30.7-1.2,38c-0.4,7.3-3,16.2,0.7,18c2.1,1.1,5.9,0.4,8.9-3
			c3-3.4,3.6-6.7,3.2-7.4c-0.4-0.6-0.9-3.4,0.3-9.4c1.2-6,3.5-20.6,3.3-25.4c-0.2-4.8-1.9-27.1-1.9-27.1L32.4,145.1z"/>
		<path class="st10" d="M47,174.3c0.2,4.8-2.2,19.4-3.3,25.4c-1.2,6-0.6,8.8-0.3,9.4c0.4,0.6-0.3,3.9-3.2,7.4
			c-1.2,1.3-2.4,2.2-3.7,2.8c1.3-2.4,3.2-7.4,3.2-15.6c0-12.4,2.6-28.1,2.9-36.7c0.2-5-1-14.6-1-20.7l3.5,1
			C45.1,147.3,46.8,169.6,47,174.3z"/>
		<path class="st8" d="M49.5,227.9c0,0-1.3,3.9,0.3,4.7s4.1,1.3,6.2,0.4c2-0.9,2.9-1.8,5-1.8c2.2,0,10.5-4.1,12.1-6.2
			c1.6-2,0-4.4-4-4.1s-9.7,0.8-10.8,1.1C57.3,222.5,49.5,227.9,49.5,227.9z"/>
		<path class="st9" d="M51.3,230.8c3.8,0.4,5-0.6,8.4-1.3c3.5-0.7,13.3-4.7,13.1-6.9c-0.2-2.2-2.4-1.7-4.4-1.6
			c-1.9,0.2-8,0.6-8.5,0.6c-0.5,0-10.4,4.5-10.4,4.5s-0.7,3.2-0.1,3.7C50.2,230.2,50.3,230.7,51.3,230.8z"/>
		<path class="st6" d="M44,147.8c0,0-2.2,4.8-0.1,13.2c2.2,8.3,4.7,18.2,4.8,28.8c0.1,10.6-1.2,37.9,0.4,39.4c1.6,1.5,7.3,2,9.6,0.4
			c3.7-2.7,5.7-6.6,5.4-8c-0.4-1.3-3.2-6.2-2.2-10.5c1-4.3,4.3-19.2,3.7-29.3c-0.6-10.1-2.3-36.6-2.3-36.6L44,147.8z"/>
		<path class="st11" d="M53.2,64.2c2.4,1.2,4.8,3.1,4.9,9.1c0.1,6,0.2,8.8-1,9.6c-1.2,0.8-2.1,0-2.3,1.7C54.5,86.2,55,89,55,89
			L42,86c0,0,0.9-2.1,0.1-4.2c-0.8-2.2-4.6-6.3-1.7-12.5C43.2,63.1,50.4,62.8,53.2,64.2z"/>
		<path class="st12" d="M58.2,69.2c0,1.1-0.7,3-2.3,3.1c-1.6,0.1-2.4,2-2,2.9c0.4,0.9,0.1,1.1,0.1,1.1s-1.2-0.5-1.7,0.5
			c-0.5,1,0.2,3,0.5,3.8c0.4,0.8-2.3,3.2-4.5,3.3c-2.2,0.2-5.2-0.1-6.2-1.2c-1-1.1-4.5-5-3.2-11.1C40.2,65.6,45.8,62,51,63
			C56.2,64,58.2,67.6,58.2,69.2z"/>
		<path class="st13" d="M57.1,92.3c0,0-1.4-4.9-4.3-5.5c-2.9-0.6-5.5-0.2-7.5-1.1c-2-0.9-3-2.6-3-2.6s-2.3,0.6-0.6,2.7
			C43.4,87.8,57.1,92.3,57.1,92.3z"/>
		<path class="st10" d="M56.4,146.1l6.8-0.9c0,0,1.7,26.4,2.3,36.6c0.6,10.1-2.7,25-3.7,29.3c-1,4.3,1.9,9.1,2.2,10.5
			c0.3,1.2-1.3,4.6-4.4,7.2c0.5-5.7,0-11.6-0.3-15.6c-0.4-4.7,3.1-21.6,2.1-31.7C60.6,172.8,57.3,151.5,56.4,146.1z"/>
		<path class="st6" d="M46.3,87.7c-2.7-0.9-5.5-2.6-5.5-2.6s-4.1-0.1-6.5,0.3c-2.4,0.4-6,2.6-5.8,7.1c0.2,4.5,1.2,10.2,2.7,16.5
			c1.5,6.3,1.4,10.8,0.3,17.1c-1.1,6.3-5.1,20-4.8,21.5c0.3,1.5,3.7,6.8,11.5,9.6c7.8,2.7,20.9,3.4,26.1-2.6c5.3-6-1.5-26.8-1.8-37
			c-0.3-10.2,3.4-14.4-0.9-19.7c-4.3-5.3-9.1-8.4-11.9-9.1C46.9,88,46.3,87.7,46.3,87.7z"/>
		<path class="st14" d="M63.6,104C63.6,104,63.6,104,63.6,104c-3.5-3.5-8.3-7.5-11.7-2.5c-4.4,6.5-2.7,12.2-1.7,24
			c1.1,11.8,3.7,16.6,3.3,25.3c-0.1,3.1-0.5,5.9-0.9,8.2c4.7-0.3,9.1-1.7,11.6-4.6c2.5-2.9,2.3-9,1.3-15.8c-1.1-4.1-2.4-8-3.7-10.9
			C58.7,120.4,63.5,107.5,63.6,104z"/>
		<g>
			<polygon class="st12" points="60,176.3 60,201.5 57,199.7 57,174.5 			"/>
			<polygon class="st9" points="59.9,176.3 59.9,201.5 90.6,183.9 90.6,158.6 			"/>
			<path class="st4" d="M73.8,185.2v1.7c0,0.6,0.7,1,1.2,0.7l2.3-1.3c0.5-0.3,0.8-0.8,0.8-1.4v-1.3c0-0.6-0.7-1-1.2-0.7l-2.7,1.6
				C74,184.7,73.8,184.9,73.8,185.2z"/>
			<g>
				<path class="st15" d="M59.9,176.3v7.7c0,1,0.8,1.8,1.8,1.8l12.4,0c1.4,0,2.7-0.6,3.5-1.7L89,169.8c1-1.2,1.5-2.7,1.5-4.3v-6.8
					L59.9,176.3z"/>
			</g>
			<polygon class="st15" points="90.6,158.6 59.9,176.3 57,174.5 87.6,156.8 			"/>
			<path class="st12" d="M71.4,161l4-2.3c1-0.6,1.8-0.6,2.5-0.2l1,0.5l-0.1,0.7c0.1,0.3,0.1,0.6,0.1,0.9v2.6l-0.9,0.5l-0.2,1.2
				l-1-0.5v-2.3c0-1.1-0.8-1.5-1.7-1l-3.1,1.8c-0.9,0.5-1.7,1.9-1.7,3v2.3l-1,0.6L69,170l-1-0.5v-2.6C68,164.7,69.5,162,71.4,161z"
				/>
			<path class="st9" d="M79.8,161.1v2.6l-2.1,1.2v-2.3c0-1.1-0.8-1.5-1.7-1l-3.1,1.8c-0.9,0.5-1.7,1.9-1.7,3v2.3L69,170v-2.6
				c0-2.2,1.5-4.8,3.4-5.9l4-2.3C78.3,158.1,79.8,159,79.8,161.1z"/>
			<polygon class="st16" points="59.9,184.8 59.6,176.5 57,174.5 60,175.8 81,164.2 60.3,176.3 			"/>
		</g>
		<path class="st9" d="M38.8,72.2c1.1,0.9,3,2,6.2,2.6c3.3,0.6,6.6,0.1,8.9-0.5c-0.1,0.4-0.1,0.7,0,1c0.4,0.9,0.1,1.1,0.1,1.1
			s-1.2-0.5-1.7,0.5c-0.5,1,0.2,3,0.5,3.8c0.4,0.8-2.3,3.2-4.5,3.3c-2.2,0.2-5.2-0.1-6.2-1.2C41.2,81.7,37.9,78,38.8,72.2z"/>
		<path class="st11" d="M72.3,149.5c0,0,3.3,4.1,4.9,6.9c0.8,1.5,0.8,1.8,0.4,4.9c-0.2,1.4-0.5,2.5-1.2,2.6c-0.4,0-0.1-0.8-0.1-0.8
			s-0.1,1.4-1.1,1.7c-0.9,0.2-0.4-0.9-0.4-0.9s-0.3,1.5-1.2,1.7c-0.9,0.2-0.4-1-0.4-1s-0.3,1.6-1.1,1.9c-0.8,0.3-0.9-0.2-0.9-1.3
			c0-1.3-0.6-2.4-1.7-4.5c-1.2-2.2-2.3-3.2-2.1-5.2c0.1-2.1-1.6-3.8-1.6-3.8L72.3,149.5z"/>
		<path class="st6" d="M59.7,98.6c-4.2-1.5-8.3,1.1-9.3,5.5c-1,4.4,1.1,20.9,2.8,25.5c1.7,4.6,12.1,25.2,12.1,25.2s3.6-0.5,5.9-1.5
			c2.3-1,3.3-3.1,3.3-3.1s-7.2-17.8-8.5-21.9c-1.4-4.1-0.9-14.6-1.3-19.2C64.2,103.5,63.8,100,59.7,98.6z"/>
		<path class="st14" d="M66.1,128.4c-1.4-4.1-0.9-14.6-1.3-19.2c-0.5-5.7-1-9.1-5-10.5c-0.1,0-0.3-0.1-0.4-0.1
			c1.6,2,0.7,5.6,1.1,9.9c0.5,5.1-0.1,16.6,1.4,21.1c1.4,4.2,9.5,20.6,10.6,23.2c1.5-1.1,2.2-2.4,2.2-2.4S67.4,132.5,66.1,128.4z"/>
		<path class="st13" d="M38.5,60.6c-1.7-0.3-3.8,0.6-3.7,4c0.2,4.3,3.5,6,4.7,2.1C40.6,62.8,40.5,60.9,38.5,60.6z"/>
		<g>
			<path class="st11" d="M36,62c1.1-1.2,4.9-0.8,7.2-0.1c1.9,0.5,3.6,1.1,4.4,2.1c0.8,1,1.8,2.5,1.1,3.1c-0.4,0.3-0.8-0.3-0.8-0.3
				s0.4,1-0.2,1.4c-0.6,0.4-1.9-0.7-1.9-0.7s1.6,1.3,0.8,2.1c-0.8,0.7-2.6-0.8-2.6-0.8l-0.1,0.1c0,0,0.8,1.1,0.2,1.5
				c-0.6,0.4-2-0.1-3-1c-1-0.8-2.4-0.9-3.6-1.2c-0.8-0.2-1.4-0.5-1.8-1.6C35.4,65.6,34.5,63.7,36,62z"/>
			<g>
				<path class="st7" d="M47.6,68.3c-0.9-0.7-3-2.4-3-2.4l1.3,1.6C45.8,67.5,46.9,68.4,47.6,68.3z"/>
				<path class="st7" d="M48.8,67.1L48.8,67.1c-0.3-0.3-0.7-0.6-1.1-0.9c-1.1-1-1.4-1.4-1.4-1.4l1,1.6c0.2,0.2,0.4,0.4,0.6,0.6
					c0-0.1,0-0.1,0-0.1S48.3,67.5,48.8,67.1z"/>
				<path class="st7" d="M43.4,67.8c-0.6-0.6-0.8-0.9-0.8-0.9l0.7,1.5l0.5,0.5l0.1-0.1c0,0,1.4,1.2,2.3,1
					C45.3,69.2,43.8,68.2,43.4,67.8z"/>
				<path class="st7" d="M40.4,68.1c-0.6-0.6-3.7-0.8-4.7-1.5l0,0c0.3,1,1,1.4,1.8,1.6c1.2,0.3,2.6,0.3,3.6,1.2c1,0.8,2.4,1.4,3,1
					l0,0l0,0c-0.1,0-0.1-0.1-0.2-0.1C43,69.9,41,68.7,40.4,68.1z"/>
			</g>
		</g>
		<path class="st14" d="M31.3,76.7c-0.9-1.4-2.9-4.2-2.3-4.4c0.6-0.2,6.4-2,8.3-2.4c0.3-0.1,0.5-0.2,0.8-0.3
			c-1.5,0.2-2.4-0.4-2.8-0.8c-0.5-0.5-1.6-2-1.6-2l-9.9,4.3c0,0,6.4,7.3,7.5,9.8c1.2,2.5,2.9,6.1,7.2,6.3l2.7-1.2c0,0,0.7-1,0.1-2.1
			c-0.2-0.3-4.1,1.7-4.4,1.3C34.9,82.6,32,77.8,31.3,76.7z"/>
		<path class="st10" d="M57.5,92.7c-1.3-1.7-3.8-3.9-6.1-4.2c-2.3-0.3-6.8-1.2-8.3-2.3c-1.7-1.3-1.9-2.3-1.9-2.3l-3.5,1.3
			c0,0-0.3,4.2,4.6,5.7c4.9,1.5,10.4,1.4,14,3.5c3.4,2,5.4,3.9,5.4,3.9L57.5,92.7z"/>
		<path class="st6" d="M57.5,92.7c-1.3-1.7-3.8-3.9-6.1-4.2c-2.3-0.3-6.8-1.2-8.3-2.3c-1.7-1.3-1.9-2.3-1.9-2.3l-3.5,1.3
			c0,0,0,3.4,4.9,4.9c4.9,1.5,11.3,1.9,14.4,4.2c3.1,2.3,4.7,3.9,4.7,3.9L57.5,92.7z"/>
		<path class="st10" d="M55.1,91.8l1.9,2.4c0,0,0,0,0,0c3.1,2.3,4.7,3.9,4.7,3.9l-4.2-5.4c-1.3-1.7-3.8-3.9-6.1-4.2l0,0
			C52.9,89.3,54.3,90.7,55.1,91.8z"/>
		<path class="st10" d="M38,84.9c0.1,0.7,0.7,3.4,4.9,4.7c4.9,1.5,11.3,1.9,14.4,4.2c1.2,0.9,2.1,1.6,2.8,2.3l1.5,1.9
			c0,0-1.6-1.6-4.7-3.9c-3.1-2.3-9.5-2.7-14.4-4.2c-4.9-1.5-4.9-4.9-4.9-4.9L38,84.9z"/>
	</g>
	<g class="st0">
		<path class="st1" d="M457.1,170C457.1,170,457.1,170,457.1,170l-32.9-5.6c-0.3-0.1-0.5-0.3-0.4-0.6c0.1-0.3,0.3-0.5,0.6-0.4
			l31.7,5.4l-26-50.4c-0.1-0.3,0-0.6,0.2-0.7c0.3-0.1,0.6,0,0.7,0.2l26.5,51.4c0.1,0.2,0.1,0.4,0,0.6
			C457.5,169.9,457.3,170,457.1,170z"/>
	</g>
	<g class="st2">
		<path class="st3" d="M448.9,164.1c0,0-0.1,0-0.1,0l-1.3-0.2c-0.4-0.1-0.7-0.4-0.6-0.8c0.1-0.4,0.4-0.6,0.7-0.6l-0.1-0.1
			c-0.2-0.4,0-0.8,0.3-1c0.4-0.2,0.8,0,1,0.3l0.7,1.4c0.1,0.2,0.1,0.5-0.1,0.8C449.3,164,449.1,164.1,448.9,164.1z M443.2,163.1
			c0,0-0.1,0-0.1,0l-2.9-0.5c-0.4-0.1-0.7-0.4-0.6-0.8c0.1-0.4,0.4-0.7,0.8-0.6l2.9,0.5c0.4,0.1,0.7,0.4,0.6,0.8
			C443.9,162.9,443.6,163.1,443.2,163.1z M436,161.9c0,0-0.1,0-0.1,0l-2.9-0.5c-0.4-0.1-0.7-0.4-0.6-0.8c0.1-0.4,0.4-0.7,0.8-0.6
			l2.9,0.5c0.4,0.1,0.7,0.4,0.6,0.8C436.6,161.6,436.3,161.9,436,161.9z M428.7,160.6c0,0-0.1,0-0.1,0l-2.9-0.5
			c-0.4-0.1-0.7-0.4-0.6-0.8c0.1-0.4,0.4-0.7,0.8-0.6l2.9,0.5c0.4,0.1,0.7,0.4,0.6,0.8C429.4,160.4,429.1,160.6,428.7,160.6z
			 M421.5,159.4c0,0-0.1,0-0.1,0l-2.9-0.5c-0.4-0.1-0.7-0.4-0.6-0.8c0.1-0.4,0.4-0.7,0.8-0.6l2.9,0.5c0.4,0.1,0.7,0.4,0.6,0.8
			C422.2,159.1,421.9,159.4,421.5,159.4z M446.1,158.8c-0.3,0-0.5-0.1-0.7-0.4l-1.3-2.6c-0.2-0.4,0-0.8,0.3-1c0.4-0.2,0.8,0,1,0.3
			l1.3,2.6c0.2,0.4,0,0.8-0.3,1C446.4,158.8,446.3,158.8,446.1,158.8z M414.3,158.1c0,0-0.1,0-0.1,0l-2.9-0.5
			c-0.4-0.1-0.7-0.4-0.6-0.8c0.1-0.4,0.4-0.7,0.8-0.6l2.9,0.5c0.4,0.1,0.7,0.4,0.6,0.8C414.9,157.9,414.6,158.1,414.3,158.1z
			 M407,156.9c0,0-0.1,0-0.1,0l-1.8-0.3c-0.4-0.1-0.7-0.4-0.6-0.8c0.1-0.4,0.4-0.7,0.8-0.6l1.8,0.3c0.4,0.1,0.7,0.4,0.6,0.8
			C407.7,156.7,407.4,156.9,407,156.9z M442.8,152.3c-0.3,0-0.5-0.1-0.7-0.4l-1.3-2.6c-0.2-0.4,0-0.8,0.3-1c0.4-0.2,0.8,0,1,0.3
			l1.3,2.6c0.2,0.4,0,0.8-0.3,1C443,152.2,442.9,152.3,442.8,152.3z M439.4,145.7c-0.3,0-0.5-0.1-0.7-0.4l-1.3-2.6
			c-0.2-0.4,0-0.8,0.3-1c0.4-0.2,0.8,0,1,0.3l1.3,2.6c0.2,0.4,0,0.8-0.3,1C439.6,145.7,439.5,145.7,439.4,145.7z M436.1,139.2
			c-0.3,0-0.5-0.1-0.7-0.4l-1.3-2.6c-0.2-0.4,0-0.8,0.3-1c0.4-0.2,0.8,0,1,0.3l1.3,2.6c0.2,0.4,0,0.8-0.3,1
			C436.3,139.2,436.2,139.2,436.1,139.2z M432.7,132.7c-0.3,0-0.5-0.1-0.7-0.4l-1.3-2.6c-0.2-0.4,0-0.8,0.3-1c0.4-0.2,0.8,0,1,0.3
			l1.3,2.6c0.2,0.4,0,0.8-0.3,1C432.9,132.7,432.8,132.7,432.7,132.7z M429.3,126.2c-0.3,0-0.5-0.1-0.7-0.4l-1.3-2.6
			c-0.2-0.4,0-0.8,0.3-1c0.4-0.2,0.8,0,1,0.3l1.3,2.6c0.2,0.4,0,0.8-0.3,1C429.5,126.1,429.4,126.2,429.3,126.2z M426,119.6
			c-0.3,0-0.5-0.1-0.7-0.4l-1.3-2.6c-0.2-0.4,0-0.8,0.3-1c0.4-0.2,0.8,0,1,0.3l1.3,2.6c0.2,0.4,0,0.8-0.3,1
			C426.2,119.6,426.1,119.6,426,119.6z M422.6,113.1c-0.3,0-0.5-0.1-0.7-0.4l-1.3-2.6c-0.2-0.4,0-0.8,0.3-1c0.4-0.2,0.8,0,1,0.3
			l1.3,2.6c0.2,0.4,0,0.8-0.3,1C422.8,113.1,422.7,113.1,422.6,113.1z M419.2,106.6c-0.3,0-0.5-0.1-0.7-0.4l-1.3-2.6
			c-0.2-0.4,0-0.8,0.3-1c0.4-0.2,0.8,0,1,0.3l1.3,2.6c0.2,0.4,0,0.8-0.3,1C419.5,106.6,419.3,106.6,419.2,106.6z M415.9,100.1
			c-0.3,0-0.5-0.1-0.7-0.4l-1.3-2.6c-0.2-0.4,0-0.8,0.3-1c0.4-0.2,0.8,0,1,0.3l1.3,2.6c0.2,0.4,0,0.8-0.3,1
			C416.1,100,416,100.1,415.9,100.1z"/>
	</g>
</g>
</svg>
