<svg xmlns="http://www.w3.org/2000/svg" width="51.485" height="50" viewBox="0 0 51.485 50">
  <g id="Group_19332" data-name="Group 19332" transform="translate(0 -2.423)">
    <circle id="Ellipse_532" data-name="Ellipse 532" cx="0.613" cy="0.613" r="0.613" transform="translate(0 46.907)" fill="#2d4356"/>
    <path id="Path_28875" data-name="Path 28875" d="M7.532,147.577H6.613a.613.613,0,0,0,0,1.226h.919a.613.613,0,0,0,0-1.226Zm45.662,0h-.919a.613.613,0,0,0,0,1.226h.919a.613.613,0,0,0,0-1.226Z" transform="translate(-4.161 -100.67)" fill="#2d4356"/>
    <circle id="Ellipse_533" data-name="Ellipse 533" cx="0.613" cy="0.613" r="0.613" transform="translate(50.259 46.907)" fill="#2d4356"/>
    <path id="Path_28876" data-name="Path 28876" d="M69.5,155.577H66.953a.615.615,0,0,0,0,1.226H69.5a.615.615,0,0,0,0-1.226Zm-18.388,0H48.566a.615.615,0,0,0,0,1.226h2.546a.615.615,0,0,0,0-1.226Zm14.05,0H52.9a.613.613,0,1,0,0,1.226h4.885v.613H55.355a.613.613,0,0,0,0,1.226h7.661a.613.613,0,0,0,0-1.226h-2.74V156.8h4.885a.613.613,0,1,0,0-1.226Z" transform="translate(-33.29 -106.218)" fill="#0bceb2"/>
    <path id="Path_28877" data-name="Path 28877" d="M61.929,45.029a9.423,9.423,0,0,0,6.719-2.793A9.543,9.543,0,0,0,66.939,27.4,2.917,2.917,0,0,0,65.7,24.6a1.226,1.226,0,0,0-1.508.181l-.487.489A3.759,3.759,0,0,0,60.9,23.577h-.017a1.226,1.226,0,0,0-.932,2.022c.2.233.273.36.274.525a9.531,9.531,0,0,0,1.7,18.905Zm-5.851-15.4a8.226,8.226,0,0,1,5.16-2.4,2.179,2.179,0,0,0-.354-2.422s1.648.023,2.508,2.517l1.672-1.678a1.85,1.85,0,0,1,.47,2.382,8.292,8.292,0,0,1,4.544,6.037c-6.252,1.488-8.143-4.57-8.222-4.834a.613.613,0,0,0-1.15-.072,5.552,5.552,0,0,1-6.541,3.474,8.274,8.274,0,0,1,1.914-3ZM53.829,33.8a6.794,6.794,0,0,0,7.377-2.971,7.814,7.814,0,0,0,6.953,4.7,9.368,9.368,0,0,0,2.039-.238A8.275,8.275,0,1,1,53.829,33.8Z" transform="translate(-36.354 -14.671)" fill="#2d4356"/>
    <path id="Path_28878" data-name="Path 28878" d="M79.145,74.913A2.812,2.812,0,0,0,81.1,74.13a.613.613,0,0,0-.852-.882,1.607,1.607,0,0,1-2.213,0,.613.613,0,1,0-.852.882A2.812,2.812,0,0,0,79.145,74.913Z" transform="translate(-53.403 -49.001)" fill="#0bceb2"/>
    <path id="Path_28879" data-name="Path 28879" d="M56.593,100.419h-4.2V88.161a5.492,5.492,0,0,0-2.145-4.352V82.032a2.455,2.455,0,0,0-2.452-2.452H45.342a10.516,10.516,0,0,1-1.229,1.762v1.3H42.8a10.727,10.727,0,0,1-1.839,1.226h3.157v16.549H28.178V83.87H31a10.727,10.727,0,0,1-1.839-1.226h-.981v-.925a10.755,10.755,0,0,1-1.566-2.139H24.5a2.455,2.455,0,0,0-2.452,2.452v1.777A5.492,5.492,0,0,0,19.9,88.161v12.258H15.7a.618.618,0,1,0,0,1.226H56.593a.618.618,0,1,0,0-1.226Zm-32.092,0H21.129V88.161A4.291,4.291,0,0,1,24.5,83.978Zm0-17.689a5.492,5.492,0,0,0-1.226.362v-1.06A1.226,1.226,0,0,1,24.5,80.806Zm2.452,17.689H25.726V80.806h1.226ZM47.791,80.806a1.226,1.226,0,0,1,1.226,1.226v1.06a5.492,5.492,0,0,0-1.226-.362Zm-1.226,19.613H45.339V80.806h1.226Zm4.6,0H47.791V83.978a4.291,4.291,0,0,1,3.371,4.183Z" transform="translate(-10.403 -53.511)" fill="#2d4356"/>
    <path id="Path_28880" data-name="Path 28880" d="M75.333,93.58l-2,5.421a.616.616,0,0,1-.478.392.53.53,0,0,1-.1.009.61.61,0,0,1-.478-.23L70.3,96.7l-.129.074,1.894,13.359H70.831l-1.8-12.7a1.2,1.2,0,0,1-1.116,0l-1.8,12.7H64.874L66.768,96.77l-.129-.074-1.98,2.476a.61.61,0,0,1-.478.23.53.53,0,0,1-.1-.009A.616.616,0,0,1,63.605,99l-2-5.421h1.306l1.465,3.978L66.029,95.5a1.2,1.2,0,0,1,.031-.178l.184-.714a10.239,10.239,0,0,0,1.226.162l-.224.861,1.226.708L69.7,95.63l-.23-.889a11.517,11.517,0,0,0,1.214-.2l.2.781a1.2,1.2,0,0,1,.031.178l1.649,2.059,1.465-3.978Z" transform="translate(-42.729 -63.221)" fill="#0bceb2"/>
    <path id="Path_28881" data-name="Path 28881" d="M18.208,16.723a.919.919,0,1,0-.919-.919.919.919,0,0,0,.919.919Zm0-1.379a.46.46,0,1,1-.46.46A.46.46,0,0,1,18.208,15.343Zm26.815-1.691a.613.613,0,1,0,.613.613A.613.613,0,0,0,45.024,13.652Zm0,.919a.306.306,0,1,1,.306-.306A.306.306,0,0,1,45.024,14.571Zm7.2,7.463a.613.613,0,1,0,.613.613A.613.613,0,0,0,52.225,22.034Zm0,.919a.306.306,0,1,1,.306-.306.306.306,0,0,1-.306.306Zm-4.7-20.53a.613.613,0,1,0,.613.613.613.613,0,0,0-.613-.613Zm0,.919a.306.306,0,1,1,.306-.306.306.306,0,0,1-.306.306ZM8.921,3.649a.613.613,0,1,0-.613.613A.613.613,0,0,0,8.921,3.649ZM8,3.649a.306.306,0,1,1,.306.306A.306.306,0,0,1,8,3.649Z" transform="translate(-5.337)" fill="#2d4356"/>
    <path id="Path_28882" data-name="Path 28882" d="M8.9,46.793l.455-.6-.288-.163-.292.671h-.01l-.3-.667-.293.168.451.585V46.8l-.705-.091v.326l.71-.091v.009l-.456.585.273.173.312-.676h.01l.288.671.3-.173-.46-.576v-.009l.724.086v-.326l-.724.1Z" transform="translate(-5.491 -30.244)" fill="#0bceb2"/>
    <path id="Path_28883" data-name="Path 28883" d="M55.266,8.953,55,9.29l.158.1L55.34,9h.006l.165.387.174-.1-.265-.331V8.95l.417.05V8.813l-.417.055V8.862l.262-.345-.165-.094-.169.386h-.006l-.171-.384-.169.1.26.337v.006l-.406-.052V9l.409-.052Z" transform="translate(-38.046 -4.161)" fill="#0bceb2"/>
    <path id="Path_28884" data-name="Path 28884" d="M157.251,24.56v-.32l-.71.094v-.009l.447-.588-.282-.16-.287.658h-.009l-.291-.654-.287.165.442.574v.009l-.691-.089v.32l.7-.089v.009l-.447.574.268.169.306-.663h.009l.282.659.3-.169-.451-.564v-.009Z" transform="translate(-107.902 -14.671)" fill="#0bceb2"/>
    <path id="Path_28885" data-name="Path 28885" d="M114.875,19.7l.386-.507-.244-.138-.247.568h-.008l-.251-.564-.248.142.382.5v.008l-.6-.077v.276l.6-.077v.008l-.386.495.231.146.264-.572h.008l.244.568.256-.146-.39-.487v-.008l.612.073V19.63l-.612.081Z" transform="translate(-79.096 -11.537)" fill="#0bceb2"/>
  </g>
</svg>
