<?xml version="1.0" encoding="utf-8"?>
<!-- Generator: Adobe Illustrator 25.2.2, SVG Export Plug-In . SVG Version: 6.00 Build 0)  -->
<svg version="1.1" id="Layer_1" xmlns="http://www.w3.org/2000/svg" xmlns:xlink="http://www.w3.org/1999/xlink" x="0px" y="0px"
	 viewBox="0 0 240.02 497.19" style="enable-background:new 0 0 240.02 497.19;" xml:space="preserve">
<style type="text/css">
	.st0{opacity:0.15;}
	.st1{clip-path:url(#SVGID_2_);}
	.st2{fill:none;stroke:#BE2020;stroke-width:2;stroke-miterlimit:10;}
</style>
<g class="st0">
	<defs>
		
			<rect id="SVGID_1_" x="-128.26" y="129.85" transform="matrix(-1.069475e-10 1 -1 -1.069475e-10 368.9773 128.3895)" class="st0" width="497.1" height="237.67"/>
	</defs>
	<clipPath id="SVGID_2_">
		<use xlink:href="#SVGID_1_"  style="overflow:visible;"/>
	</clipPath>
	<g class="st1">
		<path class="st2" d="M-45.67,554.25c0,0,38.54-84.72,133.77-69.66c106.77,16.89,152.66-80.95,126.21-147.79
			c-26.45-66.83-124.51-62.2-127.52-189.2C83.71,17.76-39.62-9.59-39.62-9.59"/>
		<path class="st2" d="M-74.39,456.36c0,0,81.39-36.71,162.37-23.53s90.45-46.07,80.98-69.66c-19.65-48.95-124.7-58.36-131.5-137.43
			C32.35,166.3,72.98,86.42-19.22,44.07"/>
		<path class="st2" d="M-38.11,416.82c0,0,83.19,13.22,68.34-45.18c-17.02-66.94-57-65.89-19.22-150.61
			C24.45,190.9,28.4,69.48-45.67,93.96"/>
		<ellipse class="st2" cx="102.84" cy="374.46" rx="37.41" ry="25.42"/>
	</g>
</g>
</svg>
