<svg xmlns="http://www.w3.org/2000/svg" width="43.4" height="39.628" viewBox="0 0 43.4 39.628">
  <g id="camera" transform="translate(2911.553 -1131.858)" opacity="0.499">
    <g id="Group_4061" data-name="Group 4061">
      <g id="Group_4060" data-name="Group 4060">
        <path id="Path_2290" data-name="Path 2290" d="M-2871.928,1141.293h-5.981l-3.452-3.775h-13.21v5.661h-5.66v5.664h-5.661v18.869a3.786,3.786,0,0,0,3.774,3.774h30.191a3.785,3.785,0,0,0,3.774-3.774v-22.646A3.784,3.784,0,0,0-2871.928,1141.293Zm-15.095,24.53a9.435,9.435,0,0,1-9.435-9.435,9.435,9.435,0,0,1,9.435-9.435,9.435,9.435,0,0,1,9.435,9.435,9.438,9.438,0,0,1-9.435,9.434Z" fill="#6c6c6c"/>
        <path id="Path_2291" data-name="Path 2291" d="M-2905.892,1146.953h3.774v-5.66h5.661v-3.775h-5.661v-5.66h-3.774v5.66h-5.661v3.775h5.661Z" fill="#6c6c6c"/>
        <path id="Path_2292" data-name="Path 2292" d="M-2887.023,1150.35a6.032,6.032,0,0,0-6.038,6.025v.013h0a6.038,6.038,0,0,0,6.038,6.038,6.039,6.039,0,0,0,6.039-6.038A6.039,6.039,0,0,0-2887.023,1150.35Z" fill="#6c6c6c"/>
      </g>
    </g>
  </g>
</svg>
