<svg xmlns="http://www.w3.org/2000/svg" width="26.653" height="18.658" viewBox="0 0 26.653 18.658">
  <g id="Group_226" data-name="Group 226" transform="translate(2942.411 -1205.763)">
    <g id="Group_225" data-name="Group 225">
      <g id="Group_224" data-name="Group 224">
        <g id="Group_223" data-name="Group 223">
          <path id="Path_234" data-name="Path 234" d="M-2917.979,1205.763h-22.211a2.224,2.224,0,0,0-2.221,2.221V1222.2a2.225,2.225,0,0,0,2.221,2.222h22.211a2.1,2.1,0,0,0,.372-.033,2.215,2.215,0,0,0,1.849-2.189v-14.215A2.224,2.224,0,0,0-2917.979,1205.763Zm-22.211,17.769a1.333,1.333,0,0,1-1.327-1.215l8.857-5.791,9.007,7.006Zm23.544-1.333a1.331,1.331,0,0,1-1.115,1.314,1.221,1.221,0,0,1-.218.019h-4.228l-5.885-4.58,5.263-4.209,6.183,3.71Zm0-4.782-5.991-3.594a.443.443,0,0,0-.506.034l-5.671,4.535-3.552-2.762a.444.444,0,0,0-.515-.021l-8.641,5.65v-13.275a1.332,1.332,0,0,1,1.332-1.332h22.211a1.332,1.332,0,0,1,1.333,1.332Z" fill="#a5a5a5"/>
          <path id="Path_235" data-name="Path 235" d="M-2929.084,1208.429a2.666,2.666,0,0,0-2.666,2.665,2.668,2.668,0,0,0,2.666,2.665,2.665,2.665,0,0,0,2.665-2.665A2.665,2.665,0,0,0-2929.084,1208.429Zm0,4.442a1.777,1.777,0,0,1-1.777-1.777,1.777,1.777,0,0,1,1.777-1.777,1.778,1.778,0,0,1,1.777,1.777A1.778,1.778,0,0,1-2929.084,1212.871Z" fill="#a5a5a5"/>
        </g>
      </g>
    </g>
  </g>
</svg>
