<svg id="Group_1923" data-name="Group 1923" xmlns="http://www.w3.org/2000/svg" xmlns:xlink="http://www.w3.org/1999/xlink" width="88.034" height="75" viewBox="0 0 88.034 75">
  <defs>
    <clipPath id="clip-path">
      <rect id="Rectangle_96" data-name="Rectangle 96" width="88.034" height="75" fill="none"/>
    </clipPath>
    <clipPath id="clip-path-3">
      <rect id="Rectangle_93" data-name="Rectangle 93" width="31.715" height="19.216" fill="none"/>
    </clipPath>
    <clipPath id="clip-path-4">
      <rect id="Rectangle_94" data-name="Rectangle 94" width="23.724" height="38.042" fill="none"/>
    </clipPath>
  </defs>
  <g id="Group_1922" data-name="Group 1922" clip-path="url(#clip-path)">
    <g id="Group_1921" data-name="Group 1921" transform="translate(0 0)">
      <g id="Group_1920" data-name="Group 1920" clip-path="url(#clip-path)">
        <path id="Path_2610" data-name="Path 2610" d="M63.494,16.867,63.055,12l-3.661-.287c-.272-.789,1.135-3.921.693-4.663l.337-.619L56.965,2.992,54.006,5.1a12.447,12.447,0,0,0-2.341-1.087l-.3-3.6L46.5,0l-.9,3.488a12.486,12.486,0,0,0-2.52.68L40.561,1.626l-.115.081L36.569,4.435l1.547,3.243a12.635,12.635,0,0,0-1.487,2.149L33.059,9.5l-1.251,4.715,3.291,1.5a12.474,12.474,0,0,0,.247,2.58l-2.97,2.059,2.075,4.417,3.522-.975a12.437,12.437,0,0,0,1.817,1.787l-.96,3.522,4.428,2.052,2.091-3.039a12.76,12.76,0,0,0,2.51.2L49.4,31.664l4.71-1.275-.18-1.88-.176-1.81c.35-.2.7-.419,1.033-.652q.531-.377,1.012-.793l3.341,1.577,2.79-4-2.64-2.6a12.429,12.429,0,0,0,.643-2.425ZM52.072,22.192a7.911,7.911,0,0,1-1.021.6A7.777,7.777,0,0,1,43.115,9.462a7.876,7.876,0,0,1,.953-.562,7.777,7.777,0,0,1,8,13.292" transform="translate(7.401 0)" fill="#184f78"/>
        <path id="Path_2611" data-name="Path 2611" d="M71.513,25.218l-.39-4.314-3.248-.255a10.972,10.972,0,0,0-.955-2.04l1.869-2.648-3.071-3.055L63.1,14.777a11.183,11.183,0,0,0-2.078-.964l-.265-3.193-4.316-.369-.8,3.1a11.188,11.188,0,0,0-2.236.6l-2.237-2.257-.1.073-3.442,2.421,1.372,2.877a11.248,11.248,0,0,0-1.319,1.907l-3.168-.29L43.4,22.868l2.921,1.33a10.946,10.946,0,0,0,.217,2.289L43.9,28.314l1.84,3.919,3.126-.865a10.938,10.938,0,0,0,1.611,1.586l-.852,3.126L53.556,37.9l1.855-2.7a11.328,11.328,0,0,0,2.227.18l1.37,2.965,4.18-1.13-.161-1.668-.155-1.606c.311-.178.618-.371.916-.579.314-.222.613-.456.9-.7l2.965,1.4,2.475-3.554-2.343-2.3a11.14,11.14,0,0,0,.571-2.151ZM61.378,29.944a7.149,7.149,0,0,1-.9.529,6.852,6.852,0,1,1,.9-.529" transform="translate(10.098 2.385)" fill="#f62f48"/>
        <path id="Path_2612" data-name="Path 2612" d="M3.936,18H6V31.1H3.087V20.07a3.971,3.971,0,0,1-1.36.471A9.163,9.163,0,0,1,0,20.708V19.637a7.834,7.834,0,0,0,2.287-.513A3.889,3.889,0,0,0,3.936,18" transform="translate(0 4.188)" fill="#78909c"/>
        <path id="Path_2613" data-name="Path 2613" d="M8.029,21.339a3.176,3.176,0,0,1,1.042-2.6q1.039-.858,3.963-.858t3.986.854a3.146,3.146,0,0,1,1.061,2.6V27.6a3.542,3.542,0,0,1-1.026,2.748q-1.03.943-4.007.942t-4-.933A3.551,3.551,0,0,1,8.029,27.6Zm7.136-.081q0-1.9-1.542-2.046c-.161-.015-.392-.023-.694-.023a4.08,4.08,0,0,0-.872.091,1.345,1.345,0,0,0-.765.528,2.354,2.354,0,0,0-.346,1.442v6.444q0,1.771.836,2.113a2.659,2.659,0,0,0,1.027.179c.4,0,.687-.011.857-.03a1.712,1.712,0,0,0,.581-.149q.921-.373.92-2.12V21.258Z" transform="translate(1.868 4.16)" fill="#78909c"/>
        <path id="Path_2614" data-name="Path 2614" d="M18.54,21.339a3.176,3.176,0,0,1,1.042-2.6q1.039-.858,3.963-.858t3.986.854a3.146,3.146,0,0,1,1.061,2.6V27.6a3.546,3.546,0,0,1-1.026,2.748q-1.028.943-4.007.942t-4-.933A3.555,3.555,0,0,1,18.54,27.6Zm7.136-.081q0-1.9-1.543-2.046c-.16-.015-.391-.023-.693-.023a4.08,4.08,0,0,0-.872.091,1.345,1.345,0,0,0-.765.528,2.353,2.353,0,0,0-.348,1.442v6.444q0,1.771.837,2.113a2.659,2.659,0,0,0,1.027.179c.4,0,.687-.011.855-.03a1.719,1.719,0,0,0,.582-.149q.921-.373.92-2.12V21.258Z" transform="translate(4.314 4.16)" fill="#78909c"/>
        <path id="Path_2615" data-name="Path 2615" d="M32.366,18h2.068V31.1H31.518V20.07a3.981,3.981,0,0,1-1.36.471,9.164,9.164,0,0,1-1.727.168V19.637a7.826,7.826,0,0,0,2.285-.513A3.881,3.881,0,0,0,32.366,18" transform="translate(6.615 4.188)" fill="#78909c"/>
        <path id="Path_2616" data-name="Path 2616" d="M36.458,21.339a3.177,3.177,0,0,1,1.043-2.6q1.037-.858,3.963-.858t3.986.854a3.146,3.146,0,0,1,1.061,2.6V27.6a3.546,3.546,0,0,1-1.026,2.748q-1.03.943-4.009.942t-4-.933A3.551,3.551,0,0,1,36.458,27.6Zm7.137-.081q0-1.9-1.543-2.046c-.161-.015-.391-.023-.7-.023a4.074,4.074,0,0,0-.869.091,1.337,1.337,0,0,0-.765.528,2.353,2.353,0,0,0-.348,1.442v6.444q0,1.771.836,2.113a2.663,2.663,0,0,0,1.027.179c.4,0,.687-.011.857-.03a1.712,1.712,0,0,0,.581-.149q.921-.373.921-2.12V21.258Z" transform="translate(8.483 4.16)" fill="#78909c"/>
        <path id="Path_2617" data-name="Path 2617" d="M46.969,21.339a3.18,3.18,0,0,1,1.042-2.6q1.039-.858,3.966-.858t3.984.854a3.143,3.143,0,0,1,1.061,2.6V27.6A3.542,3.542,0,0,1,56,30.345q-1.026.943-4.007.942t-4-.933A3.551,3.551,0,0,1,46.969,27.6Zm7.136-.081q0-1.9-1.542-2.046c-.161-.015-.392-.023-.694-.023a4.085,4.085,0,0,0-.87.091,1.344,1.344,0,0,0-.767.528,2.362,2.362,0,0,0-.346,1.442v6.444q0,1.771.836,2.113a2.659,2.659,0,0,0,1.027.179c.4,0,.688-.011.857-.03a1.712,1.712,0,0,0,.581-.149q.921-.373.92-2.12V21.258Z" transform="translate(10.929 4.16)" fill="#78909c"/>
        <path id="Path_2618" data-name="Path 2618" d="M1.748,35.965a3.173,3.173,0,0,1,1.042-2.6q1.039-.86,3.963-.859t3.986.855a3.144,3.144,0,0,1,1.061,2.6v6.258a3.547,3.547,0,0,1-1.026,2.749q-1.028.941-4.007.942t-4-.934a3.554,3.554,0,0,1-1.018-2.756Zm7.136-.081q0-1.9-1.542-2.046c-.161-.015-.392-.022-.694-.022a4.081,4.081,0,0,0-.872.09,1.351,1.351,0,0,0-.765.528,2.356,2.356,0,0,0-.346,1.443v6.443q0,1.771.836,2.114a2.66,2.66,0,0,0,1.027.178,8.517,8.517,0,0,0,.857-.03,1.737,1.737,0,0,0,.581-.148q.921-.374.92-2.121V35.884Z" transform="translate(0.407 7.563)" fill="#78909c"/>
        <path id="Path_2619" data-name="Path 2619" d="M12.258,35.965a3.174,3.174,0,0,1,1.043-2.6q1.039-.86,3.964-.859t3.985.855a3.144,3.144,0,0,1,1.061,2.6v6.258a3.551,3.551,0,0,1-1.026,2.749q-1.028.941-4.009.942t-4-.934a3.555,3.555,0,0,1-1.019-2.756Zm7.137-.081q0-1.9-1.543-2.046c-.161-.015-.391-.022-.694-.022a4.077,4.077,0,0,0-.87.09,1.343,1.343,0,0,0-.765.528,2.355,2.355,0,0,0-.348,1.443v6.443q0,1.771.837,2.114a2.655,2.655,0,0,0,1.027.178,8.471,8.471,0,0,0,.855-.03,1.743,1.743,0,0,0,.582-.148q.919-.374.92-2.121V35.884Z" transform="translate(2.852 7.563)" fill="#78909c"/>
        <path id="Path_2620" data-name="Path 2620" d="M26.085,32.626h2.068v13.1H25.237V34.7a3.953,3.953,0,0,1-1.36.472,9.283,9.283,0,0,1-1.727.166V34.263a7.786,7.786,0,0,0,2.285-.513,3.881,3.881,0,0,0,1.649-1.124" transform="translate(5.154 7.591)" fill="#78909c"/>
        <path id="Path_2621" data-name="Path 2621" d="M33.494,32.626h2.067v13.1H32.644V34.7a3.936,3.936,0,0,1-1.358.472,9.283,9.283,0,0,1-1.727.166V34.263a7.786,7.786,0,0,0,2.285-.513,3.881,3.881,0,0,0,1.649-1.124" transform="translate(6.878 7.591)" fill="#78909c"/>
        <path id="Path_2622" data-name="Path 2622" d="M37.586,35.965a3.173,3.173,0,0,1,1.042-2.6q1.039-.86,3.966-.859t3.985.855a3.143,3.143,0,0,1,1.06,2.6v6.258a3.547,3.547,0,0,1-1.026,2.749q-1.026.941-4.007.942t-4-.934a3.551,3.551,0,0,1-1.019-2.756Zm7.136-.081q0-1.9-1.542-2.046c-.161-.015-.392-.022-.694-.022a4.077,4.077,0,0,0-.87.09,1.349,1.349,0,0,0-.767.528,2.364,2.364,0,0,0-.346,1.443v6.443q0,1.771.836,2.114a2.66,2.66,0,0,0,1.027.178,8.483,8.483,0,0,0,.857-.03,1.737,1.737,0,0,0,.581-.148q.921-.374.92-2.121V35.884Z" transform="translate(8.745 7.563)" fill="#78909c"/>
        <path id="Path_2623" data-name="Path 2623" d="M52.443,32.626H54.51v13.1H51.594V34.7a3.953,3.953,0,0,1-1.36.472,9.263,9.263,0,0,1-1.727.166V34.263a7.794,7.794,0,0,0,2.287-.513,3.889,3.889,0,0,0,1.649-1.124" transform="translate(11.287 7.591)" fill="#78909c"/>
        <path id="Path_2624" data-name="Path 2624" d="M5.116,47.253H7.183v13.1H4.268V49.321a3.953,3.953,0,0,1-1.36.472,9.283,9.283,0,0,1-1.727.166V48.889a7.786,7.786,0,0,0,2.285-.513,3.89,3.89,0,0,0,1.649-1.123" transform="translate(0.275 10.995)" fill="#78909c"/>
        <path id="Path_2625" data-name="Path 2625" d="M9.209,50.591a3.177,3.177,0,0,1,1.042-2.6q1.039-.86,3.964-.859t3.986.855a3.145,3.145,0,0,1,1.06,2.6v6.258A3.545,3.545,0,0,1,18.236,59.6q-1.026.941-4.007.942t-4-.934a3.549,3.549,0,0,1-1.019-2.756Zm7.137-.081q0-1.9-1.543-2.046c-.161-.015-.392-.022-.694-.022a4.167,4.167,0,0,0-.87.09,1.343,1.343,0,0,0-.765.528,2.357,2.357,0,0,0-.348,1.443v6.443q0,1.771.836,2.114a2.66,2.66,0,0,0,1.027.178,8.482,8.482,0,0,0,.857-.03,1.737,1.737,0,0,0,.581-.148q.921-.374.921-2.121V50.51Z" transform="translate(2.143 10.966)" fill="#78909c"/>
        <path id="Path_2626" data-name="Path 2626" d="M23.036,47.253H25.1v13.1H22.187V49.321a3.953,3.953,0,0,1-1.36.472,9.264,9.264,0,0,1-1.727.166V48.889a7.794,7.794,0,0,0,2.287-.513,3.9,3.9,0,0,0,1.649-1.123" transform="translate(4.444 10.995)" fill="#78909c"/>
        <path id="Path_2627" data-name="Path 2627" d="M27.129,50.591a3.173,3.173,0,0,1,1.042-2.6q1.039-.86,3.963-.859t3.986.855a3.142,3.142,0,0,1,1.061,2.6v6.258A3.545,3.545,0,0,1,36.156,59.6q-1.028.941-4.007.942t-4-.934a3.549,3.549,0,0,1-1.019-2.756Zm7.136-.081q0-1.9-1.542-2.046c-.161-.015-.392-.022-.694-.022a4.141,4.141,0,0,0-.87.09,1.35,1.35,0,0,0-.767.528,2.367,2.367,0,0,0-.346,1.443v6.443q0,1.771.836,2.114a2.66,2.66,0,0,0,1.027.178,8.482,8.482,0,0,0,.857-.03,1.737,1.737,0,0,0,.581-.148q.921-.374.92-2.121V50.51Z" transform="translate(6.312 10.966)" fill="#78909c"/>
        <path id="Path_2628" data-name="Path 2628" d="M39.184,50.591a3.173,3.173,0,0,1,1.042-2.6c.693-.573.11-.859,2.06-.859s5.182.285,5.89.855a3.142,3.142,0,0,1,1.061,2.6v6.258A3.545,3.545,0,0,1,48.211,59.6q-1.026.941-4.007.942t-4-.934a3.549,3.549,0,0,1-1.019-2.756Zm7.136-.081q0-1.9-1.542-2.046c-.161-.015-.392-.022-.694-.022a4.179,4.179,0,0,0-.872.09,1.351,1.351,0,0,0-.765.528A2.367,2.367,0,0,0,42.1,50.5v6.443q0,1.771.836,2.114a2.66,2.66,0,0,0,1.027.178,8.5,8.5,0,0,0,.857-.03,1.737,1.737,0,0,0,.581-.148q.921-.374.92-2.121V50.51Z" transform="translate(9.117 10.966)" fill="#78909c"/>
        <path id="Path_2629" data-name="Path 2629" d="M53.011,47.253h2.067v13.1H52.162V49.321a3.953,3.953,0,0,1-1.36.472,9.264,9.264,0,0,1-1.727.166V48.889a7.794,7.794,0,0,0,2.287-.513,3.9,3.9,0,0,0,1.649-1.123" transform="translate(11.419 10.995)" fill="#78909c"/>
        <path id="Path_2630" data-name="Path 2630" d="M44.539,46.726l1.993-3.661a.439.439,0,0,1,.584-.088l11.164,5.665c.308.157.477.441.372.634l-2.321,4.26c-.1.194-.435.207-.733.033L44.782,47.264a.439.439,0,0,1-.243-.537" transform="translate(10.356 9.984)" fill="#b1bac3"/>
        <path id="Path_2631" data-name="Path 2631" d="M52.637,52.159l2.777-5.1c.095-.174.433-.176.747,0l3.247,1.768c.316.173.5.456.4.632l-2.776,5.1c-.095.175-.431.178-.748,0l-3.246-1.766c-.317-.173-.5-.456-.4-.632" transform="translate(12.242 10.919)" fill="#788f9b"/>
        <path id="Path_2632" data-name="Path 2632" d="M53.059,52.882l3.146-5.775c.142-.26.7-.242,1.246.042L74.64,55.94c.726.378,1.188.937,1.023,1.239L72,63.9c-.166.3-.886.217-1.6-.187L53.771,53.907c-.534-.3-.852-.764-.711-1.026" transform="translate(12.338 10.918)" fill="#0ec0c0"/>
        <path id="Path_2633" data-name="Path 2633" d="M49.94,44.416,47.5,48.9l.518.3,3.968,2.315.519.3,2.606-4.785Z" transform="translate(11.052 10.335)" fill="#788f9b"/>
        <path id="Path_2634" data-name="Path 2634" d="M47.593,50.087l3.283-6.03a.54.54,0,0,1,.733-.089l2.977,1.622c.29.158.435.456.323.663l-3.284,6.029a.54.54,0,0,1-.732.09L47.916,50.75c-.291-.158-.435-.456-.323-.663" transform="translate(11.065 10.208)" fill="#0ec0c0"/>
        <g id="Group_1916" data-name="Group 1916" transform="translate(55.288 53.351)" opacity="0.54" style="mix-blend-mode: overlay;isolation: isolate">
          <g id="Group_1915" data-name="Group 1915">
            <g id="Group_1914" data-name="Group 1914" clip-path="url(#clip-path-3)">
              <path id="Path_2635" data-name="Path 2635" d="M46.289,43.28,76.567,59.859,75.131,62.5,44.852,45.918Z" transform="translate(-44.852 -43.28)" fill="#b1bac3"/>
            </g>
          </g>
        </g>
        <path id="Path_2636" data-name="Path 2636" d="M43.531,61.915A24.787,24.787,0,1,0,11.054,48.724,24.789,24.789,0,0,0,43.531,61.915m-1.39-3.294A21.212,21.212,0,1,1,53.428,30.828,21.212,21.212,0,0,1,42.141,58.621" transform="translate(2.116 3.324)" fill="#b1bac3"/>
        <path id="Path_2637" data-name="Path 2637" d="M41.366,57.3a20.5,20.5,0,1,0-26.86-10.909A20.5,20.5,0,0,0,41.366,57.3m.312,2.006A21.934,21.934,0,1,1,53.312,30.578,21.916,21.916,0,0,1,41.677,59.3" transform="translate(2.615 3.993)" fill="#788f9b"/>
        <g id="Group_1919" data-name="Group 1919" transform="translate(16.336 24.088)" opacity="0.34">
          <g id="Group_1918" data-name="Group 1918">
            <g id="Group_1917" data-name="Group 1917" clip-path="url(#clip-path-4)">
              <path id="Path_2638" data-name="Path 2638" d="M18.02,50.609a18.972,18.972,0,0,1-4.741-11.6c-.174-4.574.462-9.047,3.283-12.74a19.01,19.01,0,0,1,4.6-4.3,18.471,18.471,0,0,1,2.687-1.476c.7-.312,2.177-.477,2.724-.952A22.483,22.483,0,0,0,19.9,28.424a15.726,15.726,0,0,0,1.554,13.532,14.876,14.876,0,0,0,4.872,4.9c2.2,1.337,4.823,1.321,7,2.566a7.166,7.166,0,0,1,3.327,3.461c1.785,4.6-4.27,5.1-7.283,4.488A20.637,20.637,0,0,1,18.02,50.609" transform="translate(-13.253 -19.541)" fill="#f0f1f1"/>
            </g>
          </g>
        </g>
      </g>
    </g>
  </g>
</svg>
