<svg id="Group_1925" data-name="Group 1925" xmlns="http://www.w3.org/2000/svg" xmlns:xlink="http://www.w3.org/1999/xlink" width="72.586" height="75.083" viewBox="0 0 72.586 75.083">
  <defs>
    <clipPath id="clip-path">
      <rect id="Rectangle_101" data-name="Rectangle 101" width="72.586" height="75.083" fill="none"/>
    </clipPath>
  </defs>
  <g id="Group_1924" data-name="Group 1924" clip-path="url(#clip-path)">
    <path id="Path_2639" data-name="Path 2639" d="M4.126,57.654l1.1-2.449v-6.65a10.455,10.455,0,0,1,2.033-6.2l7.185-9.766,8.209-5.473L24.744,45.7,23.371,56.058l-6.45,7.026Z" transform="translate(0.389 2.557)" fill="#e9b28a"/>
    <path id="Path_2640" data-name="Path 2640" d="M65.809,12.98h-47.9A5.634,5.634,0,0,0,12.29,18.6V51.385A5.634,5.634,0,0,0,17.908,57h47.9a5.634,5.634,0,0,0,5.618-5.617V18.6a5.634,5.634,0,0,0-5.618-5.617" transform="translate(1.158 1.224)" fill="#b0bec5"/>
    <path id="Path_2641" data-name="Path 2641" d="M16.633,16.744h-.355V52.528H64.86V16.744Z" transform="translate(1.534 1.578)" fill="#2a445d"/>
    <path id="Path_2642" data-name="Path 2642" d="M65.731,33.274a2.087,2.087,0,1,1-2.086-2.086,2.087,2.087,0,0,1,2.086,2.086" transform="translate(5.802 2.94)" fill="#cfd8dc"/>
    <path id="Path_2643" data-name="Path 2643" d="M16.4,33.239a1.686,1.686,0,1,1-1.686-1.685A1.686,1.686,0,0,1,16.4,33.239" transform="translate(1.228 2.974)" fill="#90a4ae"/>
    <rect id="Rectangle_97" data-name="Rectangle 97" width="7.702" height="14.015" transform="translate(23.917 34.638)" fill="#a6dae8"/>
    <rect id="Rectangle_98" data-name="Rectangle 98" width="7.702" height="21.352" transform="translate(33.144 27.301)" fill="#f94e63"/>
    <rect id="Rectangle_99" data-name="Rectangle 99" width="7.702" height="28.141" transform="translate(42.371 20.512)" fill="#17c5cc"/>
    <rect id="Rectangle_100" data-name="Rectangle 100" width="7.701" height="16.083" transform="translate(51.598 32.57)" fill="#ffd740"/>
    <path id="Path_2644" data-name="Path 2644" d="M26.438,42.42a.658.658,0,0,0,0,.067,1.547,1.547,0,0,1-.013.2,1.989,1.989,0,0,1-.338.863c-.022.033-.046.066-.07.1a2.423,2.423,0,0,1-1.676.915H18.424L16.2,53.632l.64,3.458,2.152-.432L12.883,59.25,8.42,53.92l2.736-14.692H16.2l5.609.936.647.109,3.236.539a2.387,2.387,0,0,1,.748,1.607" transform="translate(0.794 3.698)" fill="#e9b28a"/>
    <path id="Path_2645" data-name="Path 2645" d="M2.628,56.779l1.639-3.569,13.3,7.415-2.2,4.111Z" transform="translate(0.248 5.016)" fill="#fff"/>
    <path id="Path_2646" data-name="Path 2646" d="M11.8,60.151,9.516,64.6C6.109,62.613,2.591,60.637,0,59.262l2.523-4.295Z" transform="translate(0 5.181)" fill="#16405e"/>
    <path id="Path_2647" data-name="Path 2647" d="M16.553,62.82l-2.284,4.653c-1.684-1.036-3.61-2.178-5.573-3.32L10.98,59.7Z" transform="translate(0.82 5.628)" fill="#1c4d6b"/>
    <path id="Path_2648" data-name="Path 2648" d="M25.24,42.33a.658.658,0,0,0,0,.067c0,.039-.007.078-.011.119a2.112,2.112,0,0,1-.287.836,8.847,8.847,0,0,1-1.485-.21c-2.789-.9-2.367-2.528-2.2-2.959l3.236.539a2.387,2.387,0,0,1,.748,1.607" transform="translate(1.992 3.788)" fill="#f1c3a4"/>
    <path id="Path_2649" data-name="Path 2649" d="M63.238,63.68c-.09.073-.434.057-.544.071l-1.05.136c-1.067.139-.866.524-1.929.662-2.2.285-4.442.219-6.633.557-1.995.309-3.006-1.017-4.3-2.463-2.128-2.369-5.355-4.5-6.406-7.6a23.628,23.628,0,0,1-1.179-3.862,20.468,20.468,0,0,0-.434-3.164c-.31-1.007-1.485-2.883.3-2.826a3.934,3.934,0,0,1,1.6.351,4.545,4.545,0,0,1,1.625,2.249c.225.648.135,1.327.361,1.964a9.279,9.279,0,0,0,1.391,2.282,37.217,37.217,0,0,0-.6-6.2q-.345-2.659-.693-5.319l-.988-7.578-.005-.046c-.061-.48-.173-.984-.188-1.467a.843.843,0,0,1,.178-.511,1.221,1.221,0,0,1,.092-.121l.013-.015a3.338,3.338,0,0,1,.237-.243,2.357,2.357,0,0,1,2.688-.373,2.542,2.542,0,0,1,.285.159l.016.011a1.357,1.357,0,0,1,.3.258.871.871,0,0,1,.188.415c.043.271.069.537.106.811.223,1.729.432,3.46.651,5.19.149,1.181.242,2.385.453,3.556.19,1.049.479,2.736.881,3.127-.055-.268.089-.695.044-1.017-.047-.341-.1-.683-.143-1.025a6.043,6.043,0,0,1-.162-2.02c.274-1.066,1.922-1.485,2.822-1.036.944.472,1.1,1.752,1.322,2.656.067.265.5,1.246.62.816a22.458,22.458,0,0,1,.478-2.819,2.036,2.036,0,0,1,2.7-.554c1.28.7,1.3,2.771,1.442,4.027.221-.225.118-1.151.32-1.432a2,2,0,0,1,1.4-.718c2.091-.137,2.017,2.376,2.346,3.808a38.352,38.352,0,0,1,.968,7.861,24.654,24.654,0,0,1-.1,3.888c-.16,1.107-.89,2.078-.943,3.211a17.448,17.448,0,0,0,.351,2.907c.063.487.113.887.135,1.054.02.147.086.313,0,.386" transform="translate(3.779 2.818)" fill="#e6af87"/>
    <path id="Path_2650" data-name="Path 2650" d="M46.007,33.793c-.869.244-1.758-.523-1.981-1.7l-.182-.987c-.013-.08-.027-.169-.033-.249a3.109,3.109,0,0,1,.237-.242,2.355,2.355,0,0,1,2.688-.373,2.3,2.3,0,0,1,.283.159l.016.01.144.789a2.214,2.214,0,0,1-1.174,2.6" transform="translate(4.13 2.826)" fill="#f1c3a4"/>
    <path id="Path_2651" data-name="Path 2651" d="M62.6,58.6,48.19,60.525l.973,3.8L63.319,61.96Z" transform="translate(4.542 5.524)" fill="#fff"/>
    <path id="Path_2652" data-name="Path 2652" d="M65.6,66.093,53.491,68.4l-1.273-5.449L64.081,60.8Z" transform="translate(4.922 5.731)" fill="#1c4d6b"/>
    <path id="Path_2653" data-name="Path 2653" d="M53.927,68.216l-4.987.951-1.351-5.488,5.066-.913Z" transform="translate(4.486 5.917)" fill="#16405e"/>
    <path id="Path_2654" data-name="Path 2654" d="M22.613,28.823a1.147,1.147,0,0,1-.949-1.789L31.981,11.8a1.148,1.148,0,0,1,1.761-.167L44.5,22.392,56.514,2.518A1.146,1.146,0,1,1,58.476,3.7L45.7,24.831a1.146,1.146,0,0,1-1.792.217L33.1,14.237,23.563,28.319a1.146,1.146,0,0,1-.95.5" transform="translate(2.023 0.185)" fill="#f62f48"/>
    <path id="Path_2655" data-name="Path 2655" d="M26.25,26.206a3.439,3.439,0,1,1-3.439-3.439,3.439,3.439,0,0,1,3.439,3.439" transform="translate(1.826 2.146)" fill="#f94e63"/>
    <path id="Path_2656" data-name="Path 2656" d="M35.637,12.718A3.439,3.439,0,1,1,32.2,9.279a3.44,3.44,0,0,1,3.439,3.439" transform="translate(2.711 0.875)" fill="#f94e63"/>
    <path id="Path_2657" data-name="Path 2657" d="M46.113,22a3.439,3.439,0,1,1-3.439-3.439A3.439,3.439,0,0,1,46.113,22" transform="translate(3.698 1.75)" fill="#f94e63"/>
    <path id="Path_2658" data-name="Path 2658" d="M57.787,3.439A3.439,3.439,0,1,1,54.348,0a3.438,3.438,0,0,1,3.439,3.439" transform="translate(4.799 0)" fill="#f94e63"/>
  </g>
</svg>
