<svg xmlns="http://www.w3.org/2000/svg" width="59.417" height="50" viewBox="0 0 59.417 50">
  <g id="Group_18398" data-name="Group 18398" transform="translate(-22.091 -106.5)">
    <g id="Group_18397" data-name="Group 18397" transform="translate(22.091 106.5)">
      <ellipse id="Ellipse_514" data-name="Ellipse 514" cx="24.54" cy="1.683" rx="24.54" ry="1.683" transform="translate(4.079 40.203)" fill="#e5e5e5"/>
      <ellipse id="Ellipse_515" data-name="Ellipse 515" cx="29.709" cy="3.854" rx="29.709" ry="3.854" transform="translate(0 42.292)" fill="#e5e5e5"/>
      <g id="XMLID_2_" transform="translate(31.116 22.819)">
        <g id="Group_18390" data-name="Group 18390">
          <g id="Group_18389" data-name="Group 18389">
            <g id="XMLID_5_">
              <g id="Group_18388" data-name="Group 18388">
                <path id="Path_27060" data-name="Path 27060" d="M570.745,602.969s2.389-.175,2.358,2.7c-.028,2.559-1.9,2.7-2.312,2.7-.05,0-.078,0-.078,0H552.5v-.9h18.183a1.744,1.744,0,0,0,1.334-1.69c.062-1.865-1.458-1.865-1.458-1.865H552.5v-.933h18.245Z" transform="translate(-550.39 -594.715)" fill="#3e89fc"/>
                <path id="Path_27061" data-name="Path 27061" d="M882.88,771.67a.062.062,0,0,1,0,.124v-.124Z" transform="translate(-860.267 -752.949)"/>
                <path id="Path_27062" data-name="Path 27062" d="M882.88,782a.062.062,0,0,1,0,.124V782Z" transform="translate(-860.267 -762.638)"/>
                <path id="Path_27063" data-name="Path 27063" d="M882.88,793.67a.062.062,0,0,1,0,.124v-.124Z" transform="translate(-860.267 -773.584)"/>
                <path id="Path_27064" data-name="Path 27064" d="M562.4,759.831v.9H542.684s-1.432-.241-1.485-1.553a1.588,1.588,0,0,1,1.623-1.715H562.4v.882H542.57a.062.062,0,1,0,0,.124H562.4v.517H543.75a.062.062,0,1,0,0,.124H562.4v.6H546.728a.062.062,0,0,0,0,.124Z" transform="translate(-539.788 -739.621)" fill="#e5e5e5"/>
                <path id="Path_27065" data-name="Path 27065" d="M645.065,793.732v.062H629.392a.062.062,0,1,1,0-.124h15.673Z" transform="translate(-622.452 -773.584)"/>
                <path id="Path_27066" data-name="Path 27066" d="M600.044,782.062v.062H581.392a.062.062,0,1,1,0-.124h18.651Z" transform="translate(-577.431 -762.638)"/>
                <path id="Path_27067" data-name="Path 27067" d="M582.223,771.794H562.392a.062.062,0,1,1,0-.124h19.831v.124Z" transform="translate(-559.61 -752.949)"/>
                <path id="Path_27068" data-name="Path 27068" d="M577.612,618.03s1.52,0,1.458,1.865a1.744,1.744,0,0,1-1.334,1.69H560.02v-.869h16.9a.062.062,0,1,0,0-.124h-16.9v-.738h15.017a.062.062,0,1,0,0-.124H560.02v-.792H575.6a.062.062,0,0,0,0-.124H560.02v-.784Z" transform="translate(-557.443 -608.844)" fill="#e5e5e5"/>
                <path id="Path_27069" data-name="Path 27069" d="M766.554,689.92a5.657,5.657,0,0,1,0,3.262l-5.554.032V689.92h5.554Z" transform="translate(-745.951 -676.272)" fill="#a9d9ff"/>
                <path id="Path_27070" data-name="Path 27070" d="M576.919,659.33a.062.062,0,1,1,0,.124h-16.9v-.124Z" transform="translate(-557.443 -647.581)"/>
                <path id="Path_27071" data-name="Path 27071" d="M575.6,630.67a.062.062,0,0,1,0,.124H560.02v-.124Z" transform="translate(-557.443 -620.699)"/>
                <path id="Path_27072" data-name="Path 27072" d="M575.037,645.44a.062.062,0,1,1,0,.124H560.02v-.124Z" transform="translate(-557.443 -634.553)"/>
                <path id="Path_27073" data-name="Path 27073" d="M624.689,689.92v3.295l-6.91.04H615.67V689.92Z" transform="translate(-609.64 -676.272)" fill="#fff"/>
                <path id="Path_27074" data-name="Path 27074" d="M532.773,478.251v0H520.61v.683H518.5V470h14.273Zm-3.382-3.39v-1.882h-2.524v1.882Zm-5.4,1.1v-3.648H519.8v3.648Z" transform="translate(-518.5 -470)" fill="#a9d9ff"/>
                <rect id="Rectangle_6279" data-name="Rectangle 6279" width="2.524" height="1.882" transform="translate(8.367 2.979)" fill="#fff"/>
                <path id="Path_27075" data-name="Path 27075" d="M526.875,693.252v0h-3.2a2.98,2.98,0,0,0-.554.034l-1.869.011a5.932,5.932,0,0,1,0-3.379h5.627Z" transform="translate(-520.845 -676.272)" fill="#a9d9ff"/>
                <rect id="Rectangle_6280" data-name="Rectangle 6280" width="4.189" height="3.648" transform="translate(1.303 2.317)" fill="#fff"/>
                <path id="Path_27076" data-name="Path 27076" d="M559.082,659.392v.062a.062.062,0,0,1,0-.124Z" transform="translate(-556.505 -647.581)"/>
                <path id="Path_27077" data-name="Path 27077" d="M559.082,645.5v.062a.062.062,0,0,1,0-.124Z" transform="translate(-556.505 -634.553)"/>
                <path id="Path_27078" data-name="Path 27078" d="M559.082,630.732v.062a.062.062,0,0,1,0-.124Z" transform="translate(-556.505 -620.699)"/>
                <path id="Path_27079" data-name="Path 27079" d="M522.954,746.222c.053,1.313,1.485,1.553,1.485,1.553h20.237v.83H524.4a2.438,2.438,0,0,1-2.659-2.477,2.239,2.239,0,0,1,2.07-2.444l5.868-.034h14.993v.857h-20.1A1.588,1.588,0,0,0,522.954,746.222Z" transform="translate(-521.543 -726.668)" fill="#295fc5"/>
              </g>
            </g>
          </g>
        </g>
      </g>
      <g id="XMLID_3_" transform="translate(4.519 19.513)">
        <g id="Group_18393" data-name="Group 18393">
          <g id="Group_18392" data-name="Group 18392">
            <g id="XMLID_6_">
              <g id="Group_18391" data-name="Group 18391">
                <path id="Path_27080" data-name="Path 27080" d="M181.678,418v7.923H169V418Zm-2.379,3.786v-1.713h-3.018v1.713Zm-5.086.827v-1.654H172.93v-1.221h-2.606v1.489h1.3v1.386Z" transform="translate(-164.402 -418)" fill="#e5e5e5"/>
                <rect id="Rectangle_6281" data-name="Rectangle 6281" width="3.018" height="1.713" transform="translate(11.879 2.072)" fill="#fff"/>
                <path id="Path_27081" data-name="Path 27081" d="M167.207,706.33l-.547,4.117h-5.792l-.538-4.117h1.215l.011.024a.062.062,0,0,0,.057.038.067.067,0,0,0,.024-.005.062.062,0,0,0,.038-.057h1.758v0a.062.062,0,0,0,.062.06h0a.062.062,0,0,0,.06-.062h1.427a.062.062,0,0,0,.062.061h0a.062.062,0,0,0,.061-.062Z" transform="translate(-156.27 -688.437)" fill="#a9d9ff"/>
                <path id="Path_27082" data-name="Path 27082" d="M213.916,465.67v1.654H211.33v-1.386h1.3v-.269Z" transform="translate(-204.105 -462.712)" fill="#a9d9ff"/>
                <path id="Path_27083" data-name="Path 27083" d="M247.442,632.673l-.022.04a.712.712,0,0,1-.032-.07c-.006-.016-.012-.033-.017-.05h-.02s0-.006,0-.01a4.509,4.509,0,0,1,2.019-1.906.062.062,0,1,1,.053.112A4.395,4.395,0,0,0,247.442,632.673Z" transform="translate(-237.89 -617.472)"/>
                <path id="Path_27084" data-name="Path 27084" d="M244.6,596.529a7.146,7.146,0,0,0-.168-.795,2.9,2.9,0,0,1,.119-1.217,1.846,1.846,0,0,1,1.556-1.163,3.41,3.41,0,0,0,.684,0c.332-.078.371-.377.459-.638a.922.922,0,0,1,1.549-.123,1.654,1.654,0,0,1,.243,1.262,2.428,2.428,0,0,1-.8,1.153c-.419.282-.964.163-1.367.5a.834.834,0,0,0-.253.709c.048.281.267.48.29.781.048.635-.707.693-1.184.574a1.446,1.446,0,0,1-.636-.45,1.8,1.8,0,0,1-.426-.459l.022-.04a4.394,4.394,0,0,1,1.982-1.885.062.062,0,0,0-.053-.112A4.51,4.51,0,0,0,244.6,596.529Z" transform="translate(-235.137 -581.419)" fill="#a9d9ff"/>
                <path id="Path_27085" data-name="Path 27085" d="M235.33,664.273a6.225,6.225,0,0,1,.729-2.752l.018-.031s0,.007,0,.01h.02c.006.017.011.033.017.05a.733.733,0,0,0,.032.07,6.1,6.1,0,0,0-.691,2.651h-.124Z" transform="translate(-226.616 -646.379)"/>
                <path id="Path_27086" data-name="Path 27086" d="M235.392,706.33h.062a.062.062,0,0,1-.061.062h0a.062.062,0,0,1-.062-.061h.062Z" transform="translate(-226.616 -688.437)"/>
                <path id="Path_27087" data-name="Path 27087" d="M144.066,574.665a.984.984,0,0,1,.191,1.308c-.29.469-1.012,1.046-1.6.874,0-.006,0-.012,0-.019-.3-1.7-.959-3.941-2.4-4.96a.062.062,0,1,0-.072.1c1.4.991,2.048,3.189,2.345,4.865a8.25,8.25,0,0,1-2.227-.494c-.441-.161-1-.517-.952-1.054a.953.953,0,0,1,.477-.657c.174-.128.36-.273.29-.523s-.382-.274-.6-.367a2.094,2.094,0,0,1-.843-.563,1.356,1.356,0,0,1,.244-2.049,2.207,2.207,0,0,1,2.11-.245c.657.248,1.491.828,1.489,1.578,0,.57-.248,1.013.232,1.464C143.132,574.286,143.647,574.361,144.066,574.665Z" transform="translate(-135.62 -561.245)" fill="#3e89fc"/>
                <path id="Path_27088" data-name="Path 27088" d="M192.936,447.221v.269H190.33V446h2.606Z" transform="translate(-184.408 -444.262)" fill="#fff"/>
                <path id="Path_27089" data-name="Path 27089" d="M210.392,706.33h.062a.062.062,0,0,1-.06.062h0a.062.062,0,0,1-.062-.06v0Z" transform="translate(-203.167 -688.437)"/>
                <path id="Path_27090" data-name="Path 27090" d="M206.466,671.514a17.514,17.514,0,0,0-.253-2.289s0-.01,0-.015l.063,0,.048,0,.016.005a17.473,17.473,0,0,1,.253,2.289v0h-.124Z" transform="translate(-199.303 -653.62)"/>
                <path id="Path_27091" data-name="Path 27091" d="M179.978,706.33h.062a.062.062,0,0,1-.038.057.067.067,0,0,1-.024.005.062.062,0,0,1-.057-.038l-.011-.024Z" transform="translate(-174.635 -688.437)"/>
                <path id="Path_27092" data-name="Path 27092" d="M168.023,589.114a.062.062,0,0,1,.072-.1c1.439,1.019,2.1,3.26,2.4,4.96,0,.006,0,.012,0,.019l-.016-.005-.048,0-.063,0C170.071,592.3,169.423,590.1,168.023,589.114Z" transform="translate(-163.461 -578.389)"/>
                <path id="Path_27093" data-name="Path 27093" d="M163.274,684.242a.372.372,0,0,0,.035-.051l0,0,.012.009.032.026a3.66,3.66,0,0,1,1.071,1.313.057.057,0,0,1,0,.024h-.13a3.7,3.7,0,0,0-1.025-1.241l-.008-.006.025-.014.022-.028Z" transform="translate(-159.028 -667.672)"/>
                <path id="Path_27094" data-name="Path 27094" d="M99.115,647.8l.012.009.022.017a2.054,2.054,0,0,1-.637.29,5.006,5.006,0,0,1-1.056.088,2.9,2.9,0,0,1-1.551-.451,1.9,1.9,0,0,1-.988-1.244,1.067,1.067,0,0,1,1.192-1.2c.192.045.23.251.319.395a.431.431,0,0,0,.393.228c.511.051.954-.343,1.484-.146a1.536,1.536,0,0,1,.915,1.114,1.289,1.289,0,0,1-.032.8,4.371,4.371,0,0,0-1.991-.838.062.062,0,1,0-.02.123A4.237,4.237,0,0,1,99.115,647.8Z" transform="translate(-94.907 -631.178)" fill="#295fc5"/>
                <path id="Path_27095" data-name="Path 27095" d="M132.668,671.615l-.012-.009a4.236,4.236,0,0,0-1.937-.815.062.062,0,1,1,.02-.123,4.371,4.371,0,0,1,1.991.838.37.37,0,0,1-.035.051l.042.033-.022.028-.025.014Z" transform="translate(-128.448 -654.987)"/>
              </g>
            </g>
          </g>
        </g>
      </g>
      <g id="XMLID_1_" transform="translate(16.414)">
        <g id="Group_18396" data-name="Group 18396">
          <g id="Group_18395" data-name="Group 18395">
            <g id="XMLID_4_">
              <g id="Group_18394" data-name="Group 18394">
                <path id="Path_27096" data-name="Path 27096" d="M708.2,285l-.248,1.117L703.73,285Z" transform="translate(-677.667 -273.862)" fill="#e22953"/>
                <path id="Path_27097" data-name="Path 27097" d="M705.765,182.712l-2.265,1.179,1.458-1.661Z" transform="translate(-677.451 -177.53)" fill="#e22953"/>
                <path id="Path_27098" data-name="Path 27098" d="M671.327,350.041l-.621.673L669,347.75Z" transform="translate(-645.092 -332.693)" fill="#e22953"/>
                <path id="Path_27099" data-name="Path 27099" d="M643.951,112l-2.451,2.948,1.179-3.444Z" transform="translate(-619.299 -111.19)" fill="#e22953"/>
                <path id="Path_27100" data-name="Path 27100" d="M537.143,339.251v.007a.062.062,0,0,0,.123.006q.491.057.909.127a.062.062,0,1,0,.122.021h0a12.4,12.4,0,0,1,2.007.5c.193.069.289.113.289.113l-.388.9-.2-.056a18.605,18.605,0,0,0-5.086-.642c-.15,0-.231.007-.231.007l-.07-1.117q.222,0,.434,0C535.832,339.137,536.529,339.185,537.143,339.251Z" transform="translate(-519.05 -324.604)" fill="#a9d9ff"/>
                <path id="Path_27101" data-name="Path 27101" d="M606.43,261.408a2.628,2.628,0,0,1,.273-.576.759.759,0,0,1,.63-.292c.232,0,.423.085.456.2s-.092.266-.341.413A2.022,2.022,0,0,1,606.43,261.408Z" transform="translate(-586.405 -250.928)" fill="#ffc962"/>
                <path id="Path_27102" data-name="Path 27102" d="M605.68,259.89a2.633,2.633,0,0,0-.273.576,2.023,2.023,0,0,0,1.017-.252c.248-.147.372-.3.341-.413s-.224-.2-.456-.2A.759.759,0,0,0,605.68,259.89Zm-.34.58a2.814,2.814,0,0,1,.289-.616c.456-.647,1.872-.207.827.413a2.122,2.122,0,0,1-1.075.261.055.055,0,0,0-.005-.025.056.056,0,0,0-.006-.011.038.038,0,0,0-.008-.009l-.009-.007-.007-.005Z" transform="translate(-585.383 -249.986)"/>
                <path id="Path_27103" data-name="Path 27103" d="M605.066,275.94c0,.012-.009.025-.012.037h-.044A.061.061,0,0,0,605.066,275.94Z" transform="translate(-585.073 -265.368)"/>
                <path id="Path_27104" data-name="Path 27104" d="M605.84,274.97a.053.053,0,0,1,.006.011A.033.033,0,0,0,605.84,274.97Z" transform="translate(-585.852 -264.459)"/>
                <path id="Path_27105" data-name="Path 27105" d="M605.062,274.614a.032.032,0,0,1,.006.011.055.055,0,0,1,.005.025h-.062l.02-.058.007,0,.007,0,.009.007A.037.037,0,0,1,605.062,274.614Z" transform="translate(-585.073 -264.103)"/>
                <path id="Path_27106" data-name="Path 27106" d="M604.32,259.531a2.827,2.827,0,0,1,.3-.647.883.883,0,0,1,.732-.344c.3,0,.527.118.575.295.034.124-.007.321-.4.552a2.175,2.175,0,0,1-1.121.27h0c0-.012.008-.025.012-.037a.055.055,0,0,0,.006-.025,2.122,2.122,0,0,0,1.075-.261c1.045-.621-.372-1.06-.827-.413a2.815,2.815,0,0,0-.289.616.037.037,0,0,0-.015,0h-.048Z" transform="translate(-584.426 -249.053)"/>
                <path id="Path_27107" data-name="Path 27107" d="M519.42,188.079a2.175,2.175,0,0,0,1.121-.27c.39-.231.431-.428.4-.552-.048-.177-.279-.295-.575-.295a.883.883,0,0,0-.732.344,2.818,2.818,0,0,0-.3.647,4.239,4.239,0,0,1-1.448-.324,4.485,4.485,0,0,0-.085-.907.5.5,0,0,0-.5-.32.512.512,0,0,0-.406.178.436.436,0,0,0-.065.392c.059.23.414.513.931.739.03.915.018,2.179.014,2.485l-.177-.021a.062.062,0,0,0-.048.015.061.061,0,0,0-.021.047v1.232a5.612,5.612,0,0,1-2.394-1.344,4.445,4.445,0,0,1-1.424-3.4c.113-2.61,2.616-4.621,5.591-4.493s5.295,2.349,5.182,4.958a4.69,4.69,0,0,1-3.037,4.049,5.961,5.961,0,0,1-2.554.444l-.093,0,.259-1.262a.063.063,0,0,0-.011-.049.061.061,0,0,0-.043-.025l-.159-.019a20.23,20.23,0,0,1,.571-2.245Z" transform="translate(-499.436 -177.527)" fill="#ffc962"/>
                <path id="Path_27108" data-name="Path 27108" d="M605.579,274.717l-.009-.007Z" transform="translate(-585.598 -264.215)"/>
                <path id="Path_27109" data-name="Path 27109" d="M605.457,274.635l-.007,0Z" transform="translate(-585.486 -264.14)"/>
                <path id="Path_27110" data-name="Path 27110" d="M605.347,274.592l-.007,0Z" transform="translate(-585.383 -264.103)"/>
                <path id="Path_27111" data-name="Path 27111" d="M605.073,274.531h0Z" transform="translate(-585.13 -264.046)"/>
                <path id="Path_27112" data-name="Path 27112" d="M604.71,275.53h.062a.054.054,0,0,1-.006.025.061.061,0,0,1-.056.037h0a.051.051,0,0,1-.019,0C604.7,275.568,604.7,275.549,604.71,275.53Z" transform="translate(-584.773 -264.984)"/>
                <path id="Path_27113" data-name="Path 27113" d="M604.071,274.53h.006a.038.038,0,0,1,.015,0l-.021.058-.062,0a.049.049,0,0,1,0-.019l0-.009A.063.063,0,0,1,604.071,274.53Z" transform="translate(-584.135 -264.046)"/>
                <path id="Path_27114" data-name="Path 27114" d="M604.184,274.511a.063.063,0,0,0-.054.032c0-.011.007-.023.012-.034Z" transform="translate(-584.248 -264.028)"/>
                <path id="Path_27115" data-name="Path 27115" d="M604.69,276.474h-.02v0A.05.05,0,0,0,604.69,276.474Z" transform="translate(-584.754 -265.865)"/>
                <path id="Path_27116" data-name="Path 27116" d="M604.071,275.5c-.007.019-.014.039-.02.058a.057.057,0,0,1-.031-.023.058.058,0,0,1-.011-.037Z" transform="translate(-584.134 -264.956)"/>
                <path id="Path_27117" data-name="Path 27117" d="M603.975,275.2a.049.049,0,0,0,0,.019h0Z" transform="translate(-584.097 -264.675)"/>
                <path id="Path_27118" data-name="Path 27118" d="M603.664,275.537a.057.057,0,0,0,.031.023v0l-.065,0c.007-.021.014-.042.021-.061h0A.059.059,0,0,0,603.664,275.537Z" transform="translate(-583.778 -264.956)"/>
                <path id="Path_27119" data-name="Path 27119" d="M582.46,271.8a20.506,20.506,0,0,0-.565,2.233l-.824-.1c0-.277.016-1.521-.012-2.446A4.309,4.309,0,0,0,582.46,271.8Z" transform="translate(-562.609 -261.193)" fill="#ffc962"/>
                <path id="Path_27120" data-name="Path 27120" d="M594,327.909l.093,0a5.961,5.961,0,0,0,2.554-.444h0l-.758,1.515a12.4,12.4,0,0,0-2.007-.5Z" transform="translate(-574.633 -313.681)" fill="#ffc962"/>
                <path id="Path_27121" data-name="Path 27121" d="M595.1,312.8l-.259,1.262-.062,0,.26-1.271-.163-.019c0-.009.006-.029.011-.061l.159.019a.061.061,0,0,1,.043.025A.063.063,0,0,1,595.1,312.8Z" transform="translate(-575.478 -299.842)"/>
                <path id="Path_27122" data-name="Path 27122" d="M578.562,312.61l-.248,1.212a5.973,5.973,0,0,1-1.023-.168V312.46l.171.02.949.112Z" transform="translate(-559.074 -299.608)" fill="#ffc962"/>
                <path id="Path_27123" data-name="Path 27123" d="M545.072,420.855c.2.031.155.512-.465,1.055a6.694,6.694,0,0,1-2.148.9c-.26-.212-.624-.472-.838-.622,0,0,.66-1.784.846-1.613s.155.9.155.9S544.871,420.824,545.072,420.855Z" transform="translate(-525.617 -400.965)" fill="#fda181"/>
                <path id="Path_27124" data-name="Path 27124" d="M596.163,276.521a20.255,20.255,0,0,0-.571,2.245l-.061-.007a20.318,20.318,0,0,1,.567-2.238h.065Z" transform="translate(-576.182 -265.91)"/>
                <path id="Path_27125" data-name="Path 27125" d="M593.77,314.975l.248-1.212-.151-.018h0a.062.062,0,0,0,.061-.05v0l.163.019-.26,1.271Z" transform="translate(-574.531 -300.761)"/>
                <path id="Path_27126" data-name="Path 27126" d="M593.08,334.484l-.118.577-.061-.011.117-.57Z" transform="translate(-573.716 -320.255)"/>
                <path id="Path_27127" data-name="Path 27127" d="M594.53,278.723a20.522,20.522,0,0,1,.565-2.233l.065,0a20.333,20.333,0,0,0-.567,2.238Z" transform="translate(-575.244 -265.881)"/>
                <path id="Path_27128" data-name="Path 27128" d="M595.413,312.6c-.006.032-.01.052-.011.061l-.062-.007s0-.021.012-.061Z" transform="translate(-576.003 -299.732)"/>
                <path id="Path_27129" data-name="Path 27129" d="M594.351,312.526s0-.021.01-.056l.062.007c-.007.04-.012.061-.012.061l-.061-.007S594.351,312.528,594.351,312.526Z" transform="translate(-575.075 -299.619)"/>
                <path id="Path_27130" data-name="Path 27130" d="M594.391,313.518a.061.061,0,0,1-.05-.068l.062.007.062.007v0a.062.062,0,0,1-.061.05Z" transform="translate(-575.066 -300.538)"/>
                <path id="Path_27131" data-name="Path 27131" d="M592.036,334.4l.063.005-.117.57-.061-.01v0Z" transform="translate(-572.797 -320.18)"/>
                <path id="Path_27132" data-name="Path 27132" d="M581.242,310.91l.824.1c-.007.035-.011.055-.011.056s0,0,0,0l-.814-.095a.023.023,0,0,0,0-.007S581.242,310.945,581.242,310.91Z" transform="translate(-562.779 -298.156)"/>
                <path id="Path_27133" data-name="Path 27133" d="M577.28,331.7a5.972,5.972,0,0,0,1.023.168l-.115.562v0q-.418-.07-.909-.127a.021.021,0,0,0,0-.007Z" transform="translate(-559.063 -317.648)" fill="#ffc962"/>
                <path id="Path_27134" data-name="Path 27134" d="M591.962,343.51l.061.011h0a.062.062,0,1,1-.122-.021Z" transform="translate(-572.777 -328.713)"/>
                <path id="Path_27135" data-name="Path 27135" d="M580.98,269.29a4.239,4.239,0,0,0,1.448.324c0,.011-.008.022-.012.034l0,.009-.006.019a4.272,4.272,0,0,1-1.424-.317c0-.009,0-.017,0-.026v0C580.981,269.317,580.981,269.3,580.98,269.29Z" transform="translate(-562.534 -259.133)"/>
                <path id="Path_27136" data-name="Path 27136" d="M581.03,270.39a4.272,4.272,0,0,0,1.424.317c-.007.02-.014.04-.021.061a4.308,4.308,0,0,1-1.4-.31Z" transform="translate(-562.581 -260.164)"/>
                <path id="Path_27137" data-name="Path 27137" d="M580.312,310.853a.024.024,0,0,1,0,.007l-.061-.007s0-.022,0-.063l.062.007C580.312,310.832,580.312,310.851,580.312,310.853Z" transform="translate(-561.85 -298.044)"/>
                <path id="Path_27138" data-name="Path 27138" d="M580.063,273.535c0-.292.017-1.54-.013-2.465l.063.026c.029.925.016,2.169.012,2.446Z" transform="translate(-561.662 -260.799)"/>
                <path id="Path_27139" data-name="Path 27139" d="M580.1,270.421l-.063-.026s0,0,0-.006a.065.065,0,0,0,.034-.011.059.059,0,0,0,.022-.027l.006,0Z" transform="translate(-561.653 -260.127)"/>
                <path id="Path_27140" data-name="Path 27140" d="M580.93,269.994a.061.061,0,0,0,.005-.024c0,.009,0,.017,0,.026Z" transform="translate(-562.488 -259.771)"/>
                <path id="Path_27141" data-name="Path 27141" d="M580.4,269.056c0,.013,0,.027,0,.04a.065.065,0,0,0-.04-.056h0Z" transform="translate(-561.953 -258.899)"/>
                <path id="Path_27142" data-name="Path 27142" d="M580.01,269.97l.057.024a.058.058,0,0,1-.022.027.066.066,0,0,1-.034.011Z" transform="translate(-561.625 -259.771)"/>
                <path id="Path_27143" data-name="Path 27143" d="M579.313,310.687c0,.04,0,.063,0,.063l-.062-.007c0-.01,0-.031,0-.062Z" transform="translate(-560.912 -297.941)"/>
                <path id="Path_27144" data-name="Path 27144" d="M580.99,312.085l-.949-.112h.013a.062.062,0,0,0,.061-.055l.813.095a.061.061,0,0,0,.05.068h.012Z" transform="translate(-561.653 -299.103)"/>
                <path id="Path_27145" data-name="Path 27145" d="M579.045,273.115c0-.307.016-1.571-.014-2.485l.037.016.027.011c.03.925.017,2.173.013,2.465Z" transform="translate(-560.706 -260.387)"/>
                <path id="Path_27146" data-name="Path 27146" d="M579.97,268.968a.054.054,0,0,1,.024,0,.064.064,0,0,1,.04.056v0a.06.06,0,0,1,0,.024l-.057-.024C579.972,269.009,579.971,268.989,579.97,268.968Z" transform="translate(-561.587 -258.832)"/>
                <path id="Path_27147" data-name="Path 27147" d="M579.647,270.9l-.027-.011a.065.065,0,0,0,.024,0h0S579.647,270.9,579.647,270.9Z" transform="translate(-561.259 -260.634)"/>
                <path id="Path_27148" data-name="Path 27148" d="M579.147,269.032l-.057-.025a.062.062,0,0,1,.031-.032l.011,0,.012,0C579.146,268.99,579.146,269.011,579.147,269.032Z" transform="translate(-560.762 -258.833)"/>
                <path id="Path_27149" data-name="Path 27149" d="M579.6,269l-.011,0Z" transform="translate(-561.231 -258.862)"/>
                <path id="Path_27150" data-name="Path 27150" d="M579.048,269.652a.061.061,0,0,1-.038-.055.059.059,0,0,1,0-.015.035.035,0,0,1,0-.012h0l.057.025c0,.02,0,.041,0,.062h0A.065.065,0,0,1,579.048,269.652Z" transform="translate(-560.687 -259.396)"/>
                <path id="Path_27151" data-name="Path 27151" d="M579.25,311.68l.062.007.061.007a.062.062,0,0,1-.061.055H579.3a.062.062,0,0,1-.049-.061Z" transform="translate(-560.912 -298.879)"/>
                <path id="Path_27152" data-name="Path 27152" d="M579.01,270.01a.061.061,0,0,0,.038.055l-.037-.016C579.011,270.035,579.011,270.022,579.01,270.01Z" transform="translate(-560.687 -259.808)"/>
                <path id="Path_27153" data-name="Path 27153" d="M579.034,269.58a.036.036,0,0,0,0,.012A.042.042,0,0,1,579.034,269.58Z" transform="translate(-560.706 -259.405)"/>
                <path id="Path_27154" data-name="Path 27154" d="M566.553,252.578c-.441-.2-.76-.451-.806-.632a.318.318,0,0,1,.042-.285.388.388,0,0,1,.308-.13.384.384,0,0,1,.379.235A3.941,3.941,0,0,1,566.553,252.578Z" transform="translate(-548.234 -242.48)" fill="#ffc962"/>
                <path id="Path_27155" data-name="Path 27155" d="M576.29,311.33l.184.022v.007a.062.062,0,0,0,.049.061l-.171-.02v1.194l-.062-.016Z" transform="translate(-558.135 -298.549)"/>
                <path id="Path_27156" data-name="Path 27156" d="M576.29,332.064v-.614l.062.016v.6a.024.024,0,0,1,0,.007Z" transform="translate(-558.135 -317.414)"/>
                <path id="Path_27157" data-name="Path 27157" d="M575.359,310.334l.177.021c0,.031,0,.052,0,.062l-.184-.022v1.249l-.062-.017V310.4a.061.061,0,0,1,.021-.047A.062.062,0,0,1,575.359,310.334Z" transform="translate(-557.198 -297.615)"/>
                <path id="Path_27158" data-name="Path 27158" d="M575.352,331.2v.614l-.062-.007v-.624Z" transform="translate(-557.198 -317.161)"/>
                <path id="Path_27159" data-name="Path 27159" d="M575.352,341.237l.061.007a.062.062,0,0,1-.123-.006v-.007Z" transform="translate(-557.198 -326.585)"/>
                <path id="Path_27160" data-name="Path 27160" d="M539.1,310.864v.624c-.614-.066-1.311-.114-2.09-.127l-.3-1.841A5.612,5.612,0,0,0,539.1,310.864Z" transform="translate(-521.012 -296.851)" fill="#ffc962"/>
                <path id="Path_27161" data-name="Path 27161" d="M560.794,106.5l-.136,2.824-.638-2.824Z" transform="translate(-542.875 -106.5)" fill="#e22953"/>
                <path id="Path_27162" data-name="Path 27162" d="M545.311,373.1a21.075,21.075,0,0,1,4.15.538l-.013.055-.155.8a29.836,29.836,0,0,0-3.972-.528l-.012-.817Z" transform="translate(-529.078 -356.464)" fill="#295fc5"/>
                <path id="Path_27163" data-name="Path 27163" d="M565.539,250.83a.384.384,0,0,0-.379-.235.388.388,0,0,0-.308.13.318.318,0,0,0-.042.285c.046.182.365.43.805.632A3.938,3.938,0,0,0,565.539,250.83Zm-.789.2c-.145-.57.7-.65.848-.215a4.58,4.58,0,0,1,.081.867l-.012,0-.011,0a.062.062,0,0,0-.031.032C565.149,251.5,564.8,251.238,564.75,251.026Z" transform="translate(-547.296 -241.546)"/>
                <path id="Path_27164" data-name="Path 27164" d="M564.657,249.869c-.145-.434-.992-.355-.848.215.054.212.4.477.874.689h0a.04.04,0,0,0,0,.012.056.056,0,0,0,0,.015c0,.012,0,.025,0,.038-.517-.227-.872-.509-.931-.739a.436.436,0,0,1,.065-.392.512.512,0,0,1,.406-.178.5.5,0,0,1,.5.32,4.482,4.482,0,0,1,.085.907l-.036-.015h0a.054.054,0,0,0-.024,0A4.565,4.565,0,0,0,564.657,249.869Z" transform="translate(-546.355 -240.605)"/>
                <path id="Path_27165" data-name="Path 27165" d="M529,444.873c.214.15.578.41.838.622a1.373,1.373,0,0,1,.3.294c.021.045-.17.222-.485.473a9.864,9.864,0,0,0-1.491-1.1c.387-.241.657-.412.657-.412Z" transform="translate(-512.992 -423.643)" fill="#a9d9ff"/>
                <path id="Path_27166" data-name="Path 27166" d="M544.539,357.706l-.326.847c-.073-.019-.146-.037-.22-.055a21.069,21.069,0,0,0-4.15-.538c-.148,0-.23,0-.23,0l-.132-.918v-.078a18.606,18.606,0,0,1,5.086.642Z" transform="translate(-523.61 -341.33)" fill="#3e89fc"/>
                <path id="Path_27167" data-name="Path 27167" d="M491.937,149.14l.552,2.536-1.589-2.256Z" transform="translate(-478.045 -146.494)" fill="#e22953"/>
                <path id="Path_27168" data-name="Path 27168" d="M461.7,319.5l-2.265,1.753-.434-.809Z" transform="translate(-448.124 -306.208)" fill="#e22953"/>
                <path id="Path_27169" data-name="Path 27169" d="M430.359,234.112l-3.549-.493.26-1.119Z" transform="translate(-417.932 -224.681)" fill="#e22953"/>
                <path id="Path_27170" data-name="Path 27170" d="M447.37,475.3c-.527.109-2.156-.993-2.156-.993l-.048-.015a1.924,1.924,0,0,0,.079-.342,4.4,4.4,0,0,0-.364-1.178,6.271,6.271,0,0,0,2.62,2.48A.675.675,0,0,1,447.37,475.3Z" transform="translate(-434.881 -449.911)" fill="#295fc5"/>
                <path id="Path_27171" data-name="Path 27171" d="M427.612,864.29a3.434,3.434,0,0,0,1.779,0l.033.307s1.815.372,2.172.5.295.806.295.806l-4.391-.264Z" transform="translate(-418.579 -817.002)" fill="#1e1950"/>
                <path id="Path_27172" data-name="Path 27172" d="M412.864,590.932h0c.271-.04.541-.092.8-.156,2.281-.559,2.374-.776,2.374-.776a82.414,82.414,0,0,1-.5,10.074s-.088,6.325-.305,6.915c0,0-.039.014-.11.034a3.432,3.432,0,0,1-1.779,0c-.037-.01-.074-.021-.112-.033,0,0,.02-5.88.114-6.687s-1.019-7.121-1.019-7.121l-.038-.01C412.624,591.871,412.864,590.932,412.864,590.932Z" transform="translate(-404.313 -559.733)" fill="#403882"/>
                <path id="Path_27173" data-name="Path 27173" d="M399.976,404.25s1.7.31.732,1.7c-.33.017-.815.06-1.182.094l-.513.05-.169-.667-.094-.372S399.929,404.529,399.976,404.25Z" transform="translate(-391.613 -385.669)" fill="#1e1950"/>
                <path id="Path_27174" data-name="Path 27174" d="M401,447.6v.331l-1.053-.667Z" transform="translate(-392.739 -425.998)" fill="#295fc5"/>
                <path id="Path_27175" data-name="Path 27175" d="M396.947,433.19l.351,1.209-1.053-.336-.245-.078.434-.745Z" transform="translate(-389.034 -412.805)" fill="#a9d9ff"/>
                <path id="Path_27176" data-name="Path 27176" d="M364.378,349.915c.057-.012.084-.111.06-.22s-.089-.187-.146-.175-.084.111-.061.22S364.321,349.927,364.378,349.915Zm.634-.374c.024.109.09.187.147.175s.084-.111.06-.22-.089-.187-.146-.174S364.988,349.432,365.012,349.541Zm-.125.376a4.165,4.165,0,0,0,.268.8l.269-.341A2.071,2.071,0,0,1,364.887,349.917Zm-2.4.75a.463.463,0,0,1,.528-.465l.022-.4a3.226,3.226,0,0,0,.8-.784L363.9,349a1.083,1.083,0,0,1,.311,0,.062.062,0,0,0,.026-.122,1.1,1.1,0,0,0-.307-.006,1.347,1.347,0,0,0,.153-1.12,1.3,1.3,0,0,1,1.151.877,1.308,1.308,0,0,0-.326.107.062.062,0,0,0,.029.117.067.067,0,0,0,.029-.007,1.179,1.179,0,0,1,.3-.1h.009c.066.2.138.421.211.647a8.531,8.531,0,0,1,.477,1.863c-.047.279-1.226.807-1.226.807a1.215,1.215,0,0,1-.791-.07,1.3,1.3,0,0,0,.886.443l.169.667-.434.745-1.164-.357a3.049,3.049,0,0,0-.171-2.4S362.455,351.194,362.486,350.667Zm2.629.812a.705.705,0,0,0,.236-.486,2.8,2.8,0,0,1-.962.124S364.9,351.624,365.116,351.478Z" transform="translate(-357.599 -332.687)" fill="#fda181"/>
                <path id="Path_27177" data-name="Path 27177" d="M401.717,383.125l-.269.341a4.167,4.167,0,0,1-.268-.8A2.07,2.07,0,0,0,401.717,383.125Z" transform="translate(-393.893 -365.438)" fill="#f77556"/>
                <path id="Path_27178" data-name="Path 27178" d="M394.132,400a.7.7,0,0,1-.236.486c-.215.145-.726-.362-.726-.362A2.8,2.8,0,0,0,394.132,400Z" transform="translate(-386.38 -381.687)" fill="#fff"/>
                <path id="Path_27179" data-name="Path 27179" d="M407.064,361.715a.846.846,0,0,0-.235.009l-.019-.06-.007-.021-.013-.038.009,0a.943.943,0,0,1,.28-.011.062.062,0,1,1-.015.123Z" transform="translate(-399.154 -345.671)"/>
                <path id="Path_27180" data-name="Path 27180" d="M403.219,373.443c-.057.012-.123-.066-.147-.175s0-.207.061-.22.123.066.146.174S403.276,373.431,403.219,373.443Z" transform="translate(-395.659 -356.416)" fill="#231f20"/>
                <path id="Path_27181" data-name="Path 27181" d="M401.39,362.01a1.18,1.18,0,0,0-.3.1.066.066,0,0,1-.029.007.062.062,0,0,1-.029-.117,1.308,1.308,0,0,1,.326-.107l.013.038.007.021.019.06Z" transform="translate(-393.724 -345.956)"/>
                <path id="Path_27182" data-name="Path 27182" d="M386.791,416.19l.094.372a1.3,1.3,0,0,1-.886-.442A1.215,1.215,0,0,0,386.791,416.19Z" transform="translate(-379.655 -396.802)" fill="#f77556"/>
                <path id="Path_27183" data-name="Path 27183" d="M374.709,440.607l-.6.951-.606-.951h0l-.2-.317h0l.245-.039Z" transform="translate(-367.743 -419.424)" fill="#a9d9ff"/>
                <path id="Path_27184" data-name="Path 27184" d="M390.543,376.25c.057-.012.123.066.146.175s0,.207-.06.22-.123-.066-.147-.175S390.486,376.263,390.543,376.25Z" transform="translate(-383.85 -359.419)" fill="#231f20"/>
                <path id="Path_27185" data-name="Path 27185" d="M377.217,447.489,376.57,446l.606.951.6-.951.245.078Z" transform="translate(-370.81 -424.815)" fill="#295fc5"/>
                <path id="Path_27186" data-name="Path 27186" d="M384.673,365.8a1.083,1.083,0,0,0-.311,0l-.062.016c.018-.025.035-.052.052-.078h0c.014-.022.027-.044.04-.067a1.1,1.1,0,0,1,.307.006.062.062,0,1,1-.026.122Z" transform="translate(-378.06 -349.494)"/>
                <path id="Path_27187" data-name="Path 27187" d="M376.752,365.935a1.129,1.129,0,0,0-.393.17.062.062,0,0,1-.087,0,.062.062,0,0,1,0-.088,1.391,1.391,0,0,1,.519-.222l.009,0,.046,0c-.013.023-.027.045-.04.067h0C376.786,365.883,376.77,365.909,376.752,365.935Z" transform="translate(-370.512 -349.612)"/>
                <path id="Path_27188" data-name="Path 27188" d="M301.728,441.3a4.092,4.092,0,0,0-.231-.689l.143-.068a8.135,8.135,0,0,0,.767-2.331c-.042-.227-.754-1.967-1.133-2.883l-.233-.561-.05-.01-.366,1.789-.562,1.06,1.236,2.3a3.514,3.514,0,0,0-1.4.688c-.578-.937-1.638-2.665-1.649-2.789-.016-.171,2.11-5.1,2.188-5.2a1.674,1.674,0,0,1,.406-.109c.573-.119,1.6-.288,2.063-.364h0l.2.317h0l.647,1.489.8-1.411,1.053.667v-.331l-.351-1.209c.367-.034.851-.076,1.182-.094a1.46,1.46,0,0,1,.369,0c.109.062,2.793,2.855,2.979,2.839.132-.011,1.779-1.03,2.725-1.62a9.867,9.867,0,0,1,1.491,1.1,34.047,34.047,0,0,1-4.039,2.707,6.271,6.271,0,0,1-2.62-2.48,4.4,4.4,0,0,1,.364,1.178,1.921,1.921,0,0,1-.079.342c-.145.481-.433,1.178-.433,1.178a21.654,21.654,0,0,1,1.877,4.577s-.093.217-2.374.776c-.263.065-.533.116-.8.156a16.646,16.646,0,0,1-4.249,0C301.7,441.858,301.726,441.363,301.728,441.3Z" transform="translate(-297.349 -411.249)" fill="#3e89fc"/>
                <path id="Path_27189" data-name="Path 27189" d="M331.724,338.345c-.031.527.745.419.745.419a3.048,3.048,0,0,1,.171,2.4l-.245.039c-.467.076-1.491.246-2.063.364h0s-.562,0-.639-.884,1.039-1.334,1.148-1.877-.605-.993-.481-1.862.822-1.97,2.824-2.3,2.289,1.44,1.54,2.419c-.073-.226-.145-.447-.211-.647a.847.847,0,0,1,.235-.009.062.062,0,1,0,.015-.123.941.941,0,0,0-.28.011l-.009,0a1.3,1.3,0,0,0-1.151-.878,1.347,1.347,0,0,1-.153,1.12l-.046,0-.009,0a1.391,1.391,0,0,0-.519.222.062.062,0,0,0,0,.087.061.061,0,0,0,.087,0,1.127,1.127,0,0,1,.393-.17,3.226,3.226,0,0,1-.8.784l-.022.4A.462.462,0,0,0,331.724,338.345Z" transform="translate(-326.837 -320.368)" fill="#1e1950"/>
                <path id="Path_27190" data-name="Path 27190" d="M326.222,566.11l.34.633-.143.068-1.048.495-.182.086-.368-.593A3.514,3.514,0,0,1,326.222,566.11Z" transform="translate(-322.271 -537.43)" fill="#a9d9ff"/>
                <path id="Path_27191" data-name="Path 27191" d="M334.736,577.4a4.091,4.091,0,0,1,.231.689c0,.063-.032.558-.077,1.026a2.4,2.4,0,0,1-.155.867.843.843,0,0,1-.278-.178,2,2,0,0,1-.6-.815,3.573,3.573,0,0,1-.174-1.094Z" transform="translate(-330.589 -548.011)" fill="#fda181"/>
                <path id="Path_27192" data-name="Path 27192" d="M323.71,615.04c.047-.884.23-9.215.254-9.332a.843.843,0,0,0,.278.178,2.394,2.394,0,0,0,.155-.867,16.642,16.642,0,0,0,4.249,0h0s-.24.939-.574,2.238c-.717,2.786-1.866,7.226-2,7.6a18.7,18.7,0,0,1-1.458,5.767s-.05.016-.14.035a3.482,3.482,0,0,1-1.7-.083c-.087-.027-.176-.057-.266-.092C322.5,620.481,323.664,615.925,323.71,615.04Z" transform="translate(-320.095 -573.821)" fill="#295fc5"/>
                <path id="Path_27193" data-name="Path 27193" d="M286.42,855.67a3.481,3.481,0,0,0,1.7.083l-.171,1.722-4.2.078a2.256,2.256,0,0,1,.124-.76,9.089,9.089,0,0,1,2.281-.636Z" transform="translate(-283.75 -808.917)" fill="#1e1950"/>
                <path id="Path_27194" data-name="Path 27194" d="M336.975,483.1l.233.561h0l-.647,1.218.366-1.789Z" transform="translate(-333.283 -459.59)" fill="#295fc5"/>
              </g>
            </g>
          </g>
        </g>
      </g>
    </g>
    <path id="Path_27195" data-name="Path 27195" d="M634.849,213.684a3.148,3.148,0,0,0-1.034-1.821c-.132-.091-.571-.3-.736-.157-.272.241.131.656.281.819a4.334,4.334,0,0,1,.694.867,4.952,4.952,0,0,0,.33.757c.452.58.683-.154.424-.589" transform="translate(-572.779 -98.63)" fill="#fff"/>
    <path id="Path_27196" data-name="Path 27196" d="M657.612,270.333a2.123,2.123,0,0,0-.166.869.313.313,0,0,0,.574.083c.286-.393-.322-1.253-.49-.745" transform="translate(-595.704 -153.611)" fill="#fff"/>
  </g>
</svg>
