<svg id="Group_23910" data-name="Group 23910" xmlns="http://www.w3.org/2000/svg" xmlns:xlink="http://www.w3.org/1999/xlink" width="123.453" height="123.455" viewBox="0 0 123.453 123.455">
  <defs>
    <clipPath id="clip-path">
      <path id="Path_31364" data-name="Path 31364" d="M136.765,105.4A28.847,28.847,0,1,1,165.8,134.05h-.2A28.845,28.845,0,0,1,136.765,105.4M159.39,43.764l-2.964,14.448a47.369,47.369,0,0,0-8.771,2.6l-10.211-11.2-8.238,4.83,4.9,14.714a48.082,48.082,0,0,0-5.876,6.128l-15.1-4.8-4.716,8.3L120.4,89.426a47.343,47.343,0,0,0-1.993,7.809l-15.9,3.483.064,9.548,15.892,3.262a47.562,47.562,0,0,0,2.022,7.684l-12.062,11,4.827,8.234,15.206-5.057a48.263,48.263,0,0,0,5.685,5.887l-4.85,15.252,8.3,4.72,10.271-11.572a47.494,47.494,0,0,0,8.377,2.492l3.286,14.985,9.546-.064,2.964-14.446a47.624,47.624,0,0,0,9.169-2.167l9.813,10.761,8.238-4.83-4.42-13.279a48,48,0,0,0,7.286-6.963l13.213,4.2,4.72-8.3-10.044-8.915a47.418,47.418,0,0,0,2.841-10.145l13.108-2.872-.065-9.548L212.94,97.932a47.692,47.692,0,0,0-2.777-10.283l9.879-9.007-4.829-8.236-12.738,4.237a48.3,48.3,0,0,0-7.466-7.225l4.162-13.093-8.3-4.718L181.6,60.054a47.744,47.744,0,0,0-9.579-2.3L168.936,43.7Z" transform="translate(-102.504 -43.7)" fill="#d9e1e7"/>
    </clipPath>
  </defs>
  <g id="Group_23909" data-name="Group 23909" clip-path="url(#clip-path)">
    <rect id="Rectangle_8854" data-name="Rectangle 8854" width="123.453" height="123.455" transform="translate(0 0)" fill="#d9e1e7"/>
  </g>
</svg>
