<?xml version="1.0" encoding="utf-8"?>
<!-- Generator: Adobe Illustrator 25.3.0, SVG Export Plug-In . SVG Version: 6.00 Build 0)  -->
<svg version="1.1" id="Layer_1" xmlns="http://www.w3.org/2000/svg" xmlns:xlink="http://www.w3.org/1999/xlink" x="0px" y="0px"
	 viewBox="0 0 57.6 62.2" style="enable-background:new 0 0 57.6 62.2;" xml:space="preserve">
<style type="text/css">
	.st0{fill:#F2E094;}
	.st1{fill:#FFCE6C;}
</style>
<g>
	<g>
		<path class="st0" d="M1.3,12.9l7,6.2l-2,9.1c-0.1,0.6,0.5,1.1,1.1,0.8l8-4.8l8,4.8c0.6,0.3,1.2-0.2,1.1-0.8l-2-9.1l7-6.2
			c0.5-0.4,0.2-1.2-0.4-1.3l-9.3-0.9l-3.7-8.6c-0.3-0.6-1.1-0.6-1.4,0l-3.7,8.6l-9.3,0.9C1.1,11.7,0.9,12.5,1.3,12.9z"/>
		<path class="st1" d="M12.9,6.4c3.7,4.1,8.5,11.3,8.7,21.5l1.8,1.1c0.6,0.3,1.2-0.2,1.1-0.8l-2-9.1l7-6.2c0.5-0.4,0.2-1.2-0.4-1.3
			l-9.3-0.9l-3.7-8.6c-0.3-0.6-1.1-0.6-1.4,0L12.9,6.4z"/>
	</g>
	<g>
		<path class="st0" d="M4.2,47.5L7.1,52l-2.6,4.7C4.3,57,4.6,57.4,5,57.3l5.2-1.4l3.7,3.9c0.3,0.3,0.7,0.1,0.7-0.3l0.3-5.3l4.8-2.3
			c0.3-0.2,0.3-0.6,0-0.8l-5-1.9L14,44c0-0.4-0.5-0.5-0.8-0.2l-3.4,4.1l-5.2-1C4.3,46.8,4,47.2,4.2,47.5z"/>
		<path class="st1" d="M11.6,45.8C13,48.6,14.5,53.3,13,59l0.8,0.9c0.3,0.3,0.7,0.1,0.7-0.3l0.3-5.3l4.8-2.3c0.3-0.2,0.3-0.6,0-0.8
			l-5-1.9L14,44c0-0.4-0.5-0.5-0.8-0.2L11.6,45.8z"/>
	</g>
	<g>
		<path class="st0" d="M42.5,34.9l2.5,3.8l-2.2,4c-0.2,0.3,0.1,0.6,0.4,0.5l4.4-1.2l3.1,3.3c0.2,0.2,0.6,0.1,0.6-0.2l0.3-4.5
			l4.1-1.9c0.3-0.1,0.3-0.5,0-0.7l-4.2-1.6l-0.6-4.5c0-0.3-0.4-0.4-0.6-0.2l-2.9,3.5l-4.5-0.8C42.6,34.3,42.3,34.6,42.5,34.9z"/>
		<path class="st1" d="M48.8,33.4c1.2,2.4,2.5,6.4,1.2,11.2l0.7,0.7c0.2,0.2,0.6,0.1,0.6-0.2l0.3-4.5l4.1-1.9c0.3-0.1,0.3-0.5,0-0.7
			l-4.2-1.6l-0.6-4.5c0-0.3-0.4-0.4-0.6-0.2L48.8,33.4z"/>
	</g>
</g>
</svg>
