<svg xmlns="http://www.w3.org/2000/svg" width="60.56" height="60.557" viewBox="0 0 60.56 60.557">
  <g id="Group_196" data-name="Group 196" transform="translate(-2099.5 -1962.769)">
    <g id="Group_195" data-name="Group 195">
      <path id="Path_217" data-name="Path 217" d="M2160.06,1985.979c0-.021-.011-.039-.012-.059a.971.971,0,0,0-.041-.206,1.115,1.115,0,0,0-.058-.175.953.953,0,0,0-.1-.151.978.978,0,0,0-.137-.159c-.016-.015-.023-.034-.04-.047l-9.7-7.539v-7.813a3.028,3.028,0,0,0-3.028-3.028H2136l-4.38-3.4a3,3,0,0,0-3.681,0l-4.38,3.4H2112.62a3.028,3.028,0,0,0-3.028,3.028v7.813l-9.7,7.539c-.017.013-.024.032-.04.047a.992.992,0,0,0-.137.159.889.889,0,0,0-.1.151.981.981,0,0,0-.058.175.936.936,0,0,0-.041.2c0,.02-.012.038-.012.059V2020.3a3,3,0,0,0,.168.953,1,1,0,0,0,1.111,1.514,3,3,0,0,0,1.748.561h54.5a3.01,3.01,0,0,0,1.754-.569,1,1,0,0,0,1.107-1.505,2.988,2.988,0,0,0,.167-.954v-34.319Zm-30.886-20.985a.968.968,0,0,1,1.2,0l2.328,1.808h-5.854Zm-26.4,56.313,26.4-20.5a.969.969,0,0,1,1.2,0l26.405,20.5Zm55.265-1.577-26.424-20.521a2.993,2.993,0,0,0-3.678,0l-26.423,20.521v-32.213l16.541,12.844a1.01,1.01,0,1,0,1.237-1.6l-16.8-13.049,7.1-5.517v7.8a1.01,1.01,0,0,0,2.019,0V1969.83a1.01,1.01,0,0,1,1.009-1.01h34.318a1.01,1.01,0,0,1,1.01,1.01V1988a1.009,1.009,0,0,0,2.018,0v-7.8l7.1,5.517-16.834,13.072a1.01,1.01,0,0,0,1.239,1.6l16.57-12.866Z" fill="#6d6d6d"/>
      <path id="Path_218" data-name="Path 218" d="M2119.686,1975.886h20.187a1.01,1.01,0,0,0,0-2.019h-20.187a1.01,1.01,0,1,0,0,2.019Z" fill="#2bc389"/>
      <path id="Path_219" data-name="Path 219" d="M2140.882,1980.933a1.009,1.009,0,0,0-1.009-1.01h-20.187a1.01,1.01,0,1,0,0,2.019h20.187A1.009,1.009,0,0,0,2140.882,1980.933Z" fill="#2bc389"/>
      <path id="Path_220" data-name="Path 220" d="M2140.882,1986.989a1.008,1.008,0,0,0-1.009-1.009h-9.084a1.009,1.009,0,1,0,0,2.018h9.084A1.009,1.009,0,0,0,2140.882,1986.989Z" fill="#2bc389"/>
    </g>
  </g>
</svg>
