<svg xmlns="http://www.w3.org/2000/svg" width="260.301" height="251.325" viewBox="0 0 260.301 251.325">
  <g id="_002-data" data-name="002-data" opacity="0.224">
    <g id="Group_2599" data-name="Group 2599" transform="translate(49.367 47.448)">
      <path id="Path_2119" data-name="Path 2119" d="M0,3.824,8.126,0,79.933,152.592l-8.126,3.824Zm0,0" transform="translate(40.819 0.007)" fill="#4a4a4a"/>
      <path id="Path_2120" data-name="Path 2120" d="M0,152.608,71.776,0,79.9,3.822,8.128,156.429Zm0,0" transform="translate(40.832 0)" fill="#4a4a4a"/>
      <path id="Path_2121" data-name="Path 2121" d="M157.078,8.976H4.488A4.488,4.488,0,1,1,4.488,0h152.59a4.488,4.488,0,1,1,0,8.976Zm0,0" transform="translate(0 73.727)" fill="#4a4a4a"/>
    </g>
    <path id="Path_2122" data-name="Path 2122" d="M98.735,49.367A49.367,49.367,0,1,1,49.367,0,49.367,49.367,0,0,1,98.735,49.367Zm0,0" transform="translate(80.783 76.295)" fill="#5f7bad"/>
    <path id="Path_2123" data-name="Path 2123" d="M53.855,26.928A26.928,26.928,0,1,1,26.928,0,26.929,26.929,0,0,1,53.855,26.928Zm0,0" transform="translate(0 98.735)" fill="#ef7559"/>
    <path id="Path_2124" data-name="Path 2124" d="M53.855,26.928A26.928,26.928,0,1,1,26.928,0,26.929,26.929,0,0,1,53.855,26.928Zm0,0" transform="translate(206.445 98.735)" fill="#60a2d7"/>
    <path id="Path_2125" data-name="Path 2125" d="M53.855,26.928A26.928,26.928,0,1,1,26.928,0,26.929,26.929,0,0,1,53.855,26.928Zm0,0" transform="translate(53.855 0)" fill="#8cb28c"/>
    <path id="Path_2126" data-name="Path 2126" d="M53.855,26.928A26.928,26.928,0,1,1,26.928,0,26.929,26.929,0,0,1,53.855,26.928Zm0,0" transform="translate(152.59 0)" fill="#ee638c"/>
    <path id="Path_2127" data-name="Path 2127" d="M53.855,26.928A26.928,26.928,0,1,1,26.928,0,26.929,26.929,0,0,1,53.855,26.928Zm0,0" transform="translate(53.855 197.469)" fill="#92aeba"/>
    <path id="Path_2128" data-name="Path 2128" d="M53.855,26.928A26.928,26.928,0,1,1,26.928,0,26.929,26.929,0,0,1,53.855,26.928Zm0,0" transform="translate(152.59 197.469)" fill="#f7cc38"/>
  </g>
</svg>
