<?xml version="1.0" encoding="utf-8"?>
<!-- Generator: Adobe Illustrator 25.2.3, SVG Export Plug-In . SVG Version: 6.00 Build 0)  -->
<svg version="1.1" id="Layer_1" xmlns="http://www.w3.org/2000/svg" xmlns:xlink="http://www.w3.org/1999/xlink" x="0px" y="0px"
	 viewBox="0 0 44 42" style="enable-background:new 0 0 44 42;" xml:space="preserve">
<style type="text/css">
	.st0{fill:#3B4145;}
	.st1{fill:#525A61;}
	.st2{fill:#FFB751;}
	.st3{fill:#FFD764;}
</style>
<g>
	<path class="st0" d="M27.3,4.8l14.8,25.6c0.5,0.9,0.9,2,0.9,3.2c0,3.5-2.9,6.4-6.4,6.4H21.7l-5.1-19.2l5.1-19.2
		C24.1,1.6,26.2,2.9,27.3,4.8z"/>
	<path class="st1" d="M16.2,4.8L1.4,30.4c-0.5,0.9-0.9,2-0.9,3.2c0,3.5,2.9,6.4,6.4,6.4h14.8V1.6C19.4,1.6,17.3,2.9,16.2,4.8z"/>
	<path class="st2" d="M39.9,31.7L25.1,6.1c-0.7-1.2-1.9-1.9-3.2-1.9l12.7,33.3h2c2.1,0,3.8-1.7,3.8-3.8C40.4,33,40.2,32.3,39.9,31.7
		z"/>
	<path class="st3" d="M37.4,31.7c0.3,0.6,0.4,1.2,0.4,1.9c0,2.1-1.5,3.8-3.3,3.8H6.9c-2.1,0-3.8-1.7-3.8-3.8c0-0.7,0.2-1.3,0.5-1.9
		L18.4,6.1c0.7-1.2,2-1.9,3.3-1.9c0,0,0.1,0,0.1,0c1.1,0,2.2,0.8,2.8,1.9L37.4,31.7z"/>
	<path class="st0" d="M21.7,28.9v4.3c1.2,0,2.1-1,2.1-2.1C23.9,29.9,22.9,28.9,21.7,28.9z"/>
	<path class="st1" d="M21.7,28.9c0.2,0,0.4,1,0.4,2.1s-0.2,2.1-0.4,2.1c-1.2,0-2.1-1-2.1-2.1C19.6,29.9,20.6,28.9,21.7,28.9z"/>
	<path class="st0" d="M21.7,10.6v15.8c1.2,0,2.1-1,2.1-2.1V12.7C23.9,11.5,22.9,10.6,21.7,10.6z"/>
	<path class="st1" d="M21.7,10.6c0.2,0,0.4,1,0.4,2.1v11.5c0,1.2-0.2,2.1-0.4,2.1c-1.2,0-2.1-1-2.1-2.1V12.7
		C19.6,11.5,20.6,10.6,21.7,10.6z"/>
</g>
</svg>
