<?xml version="1.0" encoding="UTF-8" standalone="no"?>
<!DOCTYPE svg PUBLIC "-//W3C//DTD SVG 1.1//EN"
 "http://www.w3.org/Graphics/SVG/1.1/DTD/svg11.dtd">
<!-- Generated by graphviz version 2.47.0 (20210316.0004)
 -->
<!-- Title: dependencies Pages: 1 -->
<svg width="1624pt" height="284pt"
 viewBox="0.00 0.00 1624.00 284.00" xmlns="http://www.w3.org/2000/svg" xmlns:xlink="http://www.w3.org/1999/xlink">
<g id="graph0" class="graph" transform="scale(1 1) rotate(0) translate(4 280)">
<title>dependencies</title>
<polygon fill="white" stroke="transparent" points="-4,4 -4,-280 1620,-280 1620,4 -4,4"/>
<text text-anchor="start" x="787.01" y="-42.4" font-family="sans-serif" font-weight="bold" font-size="14.00">Legend</text>
<polygon fill="#ffffb3" stroke="transparent" points="574,-10 574,-30 594,-30 594,-10 574,-10"/>
<text text-anchor="start" x="597.63" y="-15.4" font-family="sans-serif" font-size="14.00"> &#160;Declarations</text>
<polygon fill="#8dd3c7" stroke="transparent" points="687,-10 687,-30 707,-30 707,-10 687,-10"/>
<text text-anchor="start" x="710.73" y="-15.4" font-family="sans-serif" font-size="14.00"> &#160;Module</text>
<polygon fill="#80b1d3" stroke="transparent" points="773,-10 773,-30 793,-30 793,-10 773,-10"/>
<text text-anchor="start" x="796.78" y="-15.4" font-family="sans-serif" font-size="14.00"> &#160;Bootstrap</text>
<polygon fill="#fdb462" stroke="transparent" points="870,-10 870,-30 890,-30 890,-10 870,-10"/>
<text text-anchor="start" x="893.67" y="-15.4" font-family="sans-serif" font-size="14.00"> &#160;Providers</text>
<polygon fill="#fb8072" stroke="transparent" points="966,-10 966,-30 986,-30 986,-10 966,-10"/>
<text text-anchor="start" x="989.73" y="-15.4" font-family="sans-serif" font-size="14.00"> &#160;Exports</text>
<g id="clust1" class="cluster">
<title>cluster_SharedModule</title>
<polygon fill="none" stroke="black" stroke-dasharray="1,5" points="8,-70 8,-268 1608,-268 1608,-70 8,-70"/>
</g>
<g id="clust2" class="cluster">
<title>cluster_SharedModule_declarations</title>
<polygon fill="none" stroke="black" points="146,-78 146,-130 1600,-130 1600,-78 146,-78"/>
</g>
<g id="clust13" class="cluster">
<title>cluster_SharedModule_exports</title>
<polygon fill="none" stroke="black" points="66,-208 66,-260 1550,-260 1550,-208 66,-208"/>
</g>
<g id="clust12" class="cluster">
<title>cluster_SharedModule_imports</title>
<polygon fill="none" stroke="black" points="16,-78 16,-130 138,-130 138,-78 16,-78"/>
</g>
<!-- AssessmentsListComponent -->
<g id="node1" class="node">
<title>AssessmentsListComponent</title>
<polygon fill="#ffffb3" stroke="black" points="1592.15,-122 1417.85,-122 1417.85,-86 1592.15,-86 1592.15,-122"/>
<text text-anchor="middle" x="1505" y="-99.8" font-family="Times,serif" font-size="14.00">AssessmentsListComponent</text>
</g>
<!-- SharedModule -->
<g id="node10" class="node">
<title>SharedModule</title>
<polygon fill="#8dd3c7" stroke="black" points="810.42,-187 807.42,-191 786.42,-191 783.42,-187 711.58,-187 711.58,-151 810.42,-151 810.42,-187"/>
<text text-anchor="middle" x="761" y="-164.8" font-family="Times,serif" font-size="14.00">SharedModule</text>
</g>
<!-- AssessmentsListComponent&#45;&gt;SharedModule -->
<g id="edge1" class="edge">
<title>AssessmentsListComponent&#45;&gt;SharedModule</title>
<path fill="none" stroke="black" d="M1479.88,-122.22C1479.88,-140.83 1479.88,-167 1479.88,-167 1479.88,-167 820.41,-167 820.41,-167"/>
<polygon fill="black" stroke="black" points="820.41,-163.5 810.41,-167 820.41,-170.5 820.41,-163.5"/>
</g>
<!-- DomainCardsComponent -->
<g id="node2" class="node">
<title>DomainCardsComponent</title>
<polygon fill="#ffffb3" stroke="black" points="1399.59,-122 1240.41,-122 1240.41,-86 1399.59,-86 1399.59,-122"/>
<text text-anchor="middle" x="1320" y="-99.8" font-family="Times,serif" font-size="14.00">DomainCardsComponent</text>
</g>
<!-- DomainCardsComponent&#45;&gt;SharedModule -->
<g id="edge2" class="edge">
<title>DomainCardsComponent&#45;&gt;SharedModule</title>
<path fill="none" stroke="black" d="M1293.38,-122.02C1293.38,-139.37 1293.38,-163 1293.38,-163 1293.38,-163 820.61,-163 820.61,-163"/>
<polygon fill="black" stroke="black" points="820.61,-159.5 810.61,-163 820.61,-166.5 820.61,-159.5"/>
</g>
<!-- DomainListComponent -->
<g id="node3" class="node">
<title>DomainListComponent</title>
<polygon fill="#ffffb3" stroke="black" points="1222.21,-122 1073.79,-122 1073.79,-86 1222.21,-86 1222.21,-122"/>
<text text-anchor="middle" x="1148" y="-99.8" font-family="Times,serif" font-size="14.00">DomainListComponent</text>
</g>
<!-- DomainListComponent&#45;&gt;SharedModule -->
<g id="edge3" class="edge">
<title>DomainListComponent&#45;&gt;SharedModule</title>
<path fill="none" stroke="black" d="M1119.88,-122.01C1119.88,-138.05 1119.88,-159 1119.88,-159 1119.88,-159 820.52,-159 820.52,-159"/>
<polygon fill="black" stroke="black" points="820.52,-155.5 810.52,-159 820.52,-162.5 820.52,-155.5"/>
</g>
<!-- ExaminationComponent -->
<g id="node4" class="node">
<title>ExaminationComponent</title>
<polygon fill="#ffffb3" stroke="black" points="1055.38,-122 902.62,-122 902.62,-86 1055.38,-86 1055.38,-122"/>
<text text-anchor="middle" x="979" y="-99.8" font-family="Times,serif" font-size="14.00">ExaminationComponent</text>
</g>
<!-- ExaminationComponent&#45;&gt;SharedModule -->
<g id="edge4" class="edge">
<title>ExaminationComponent&#45;&gt;SharedModule</title>
<path fill="none" stroke="black" d="M949.38,-122.12C949.38,-136.78 949.38,-155 949.38,-155 949.38,-155 820.49,-155 820.49,-155"/>
<polygon fill="black" stroke="black" points="820.49,-151.5 810.49,-155 820.49,-158.5 820.49,-151.5"/>
</g>
<!-- FooterComponent -->
<g id="node5" class="node">
<title>FooterComponent</title>
<polygon fill="#ffffb3" stroke="black" points="884.88,-122 767.12,-122 767.12,-86 884.88,-86 884.88,-122"/>
<text text-anchor="middle" x="826" y="-99.8" font-family="Times,serif" font-size="14.00">FooterComponent</text>
</g>
<!-- FooterComponent&#45;&gt;SharedModule -->
<g id="edge5" class="edge">
<title>FooterComponent&#45;&gt;SharedModule</title>
<path fill="none" stroke="black" d="M788.64,-122.11C788.64,-122.11 788.64,-140.99 788.64,-140.99"/>
<polygon fill="black" stroke="black" points="785.14,-140.99 788.64,-150.99 792.14,-140.99 785.14,-140.99"/>
</g>
<!-- GoalsComponent -->
<g id="node6" class="node">
<title>GoalsComponent</title>
<polygon fill="#ffffb3" stroke="black" points="748.99,-122 635.01,-122 635.01,-86 748.99,-86 748.99,-122"/>
<text text-anchor="middle" x="692" y="-99.8" font-family="Times,serif" font-size="14.00">GoalsComponent</text>
</g>
<!-- GoalsComponent&#45;&gt;SharedModule -->
<g id="edge6" class="edge">
<title>GoalsComponent&#45;&gt;SharedModule</title>
<path fill="none" stroke="black" d="M730.39,-122.11C730.39,-122.11 730.39,-140.99 730.39,-140.99"/>
<polygon fill="black" stroke="black" points="726.89,-140.99 730.39,-150.99 733.89,-140.99 726.89,-140.99"/>
</g>
<!-- HeaderComponent -->
<g id="node7" class="node">
<title>HeaderComponent</title>
<polygon fill="#ffffb3" stroke="black" points="616.74,-122 495.26,-122 495.26,-86 616.74,-86 616.74,-122"/>
<text text-anchor="middle" x="556" y="-99.8" font-family="Times,serif" font-size="14.00">HeaderComponent</text>
</g>
<!-- HeaderComponent&#45;&gt;SharedModule -->
<g id="edge7" class="edge">
<title>HeaderComponent&#45;&gt;SharedModule</title>
<path fill="none" stroke="black" d="M591.06,-122.12C591.06,-136.78 591.06,-155 591.06,-155 591.06,-155 701.39,-155 701.39,-155"/>
<polygon fill="black" stroke="black" points="701.39,-158.5 711.39,-155 701.39,-151.5 701.39,-158.5"/>
</g>
<!-- HeaderImageComponent -->
<g id="node8" class="node">
<title>HeaderImageComponent</title>
<polygon fill="#ffffb3" stroke="black" points="477.22,-122 320.78,-122 320.78,-86 477.22,-86 477.22,-122"/>
<text text-anchor="middle" x="399" y="-99.8" font-family="Times,serif" font-size="14.00">HeaderImageComponent</text>
</g>
<!-- HeaderImageComponent&#45;&gt;SharedModule -->
<g id="edge8" class="edge">
<title>HeaderImageComponent&#45;&gt;SharedModule</title>
<path fill="none" stroke="black" d="M449.87,-122.01C449.87,-138.05 449.87,-159 449.87,-159 449.87,-159 701.7,-159 701.7,-159"/>
<polygon fill="black" stroke="black" points="701.7,-162.5 711.7,-159 701.7,-155.5 701.7,-162.5"/>
</g>
<!-- PartnersListComponent -->
<g id="node9" class="node">
<title>PartnersListComponent</title>
<polygon fill="#ffffb3" stroke="black" points="302.48,-122 153.52,-122 153.52,-86 302.48,-86 302.48,-122"/>
<text text-anchor="middle" x="228" y="-99.8" font-family="Times,serif" font-size="14.00">PartnersListComponent</text>
</g>
<!-- PartnersListComponent&#45;&gt;SharedModule -->
<g id="edge9" class="edge">
<title>PartnersListComponent&#45;&gt;SharedModule</title>
<path fill="none" stroke="black" d="M273.19,-122.02C273.19,-139.37 273.19,-163 273.19,-163 273.19,-163 701.54,-163 701.54,-163"/>
<polygon fill="black" stroke="black" points="701.54,-166.5 711.54,-163 701.54,-159.5 701.54,-166.5"/>
</g>
<!-- AssessmentsListComponent  -->
<g id="node12" class="node">
<title>AssessmentsListComponent </title>
<polygon fill="#fb8072" stroke="black" points="1542.15,-252 1363.85,-252 1363.85,-216 1542.15,-216 1542.15,-252"/>
<text text-anchor="middle" x="1453" y="-229.8" font-family="Times,serif" font-size="14.00">AssessmentsListComponent </text>
</g>
<!-- SharedModule&#45;&gt;AssessmentsListComponent  -->
<g id="edge11" class="edge">
<title>SharedModule&#45;&gt;AssessmentsListComponent </title>
<path fill="none" stroke="black" stroke-dasharray="5,2" d="M810.23,-171C957.04,-171 1381.74,-171 1381.74,-171 1381.74,-171 1381.74,-205.78 1381.74,-205.78"/>
<polygon fill="black" stroke="black" points="1378.24,-205.78 1381.74,-215.78 1385.24,-205.78 1378.24,-205.78"/>
</g>
<!-- DomainCardsComponent  -->
<g id="node13" class="node">
<title>DomainCardsComponent </title>
<polygon fill="#fb8072" stroke="black" points="1346.09,-252 1183.91,-252 1183.91,-216 1346.09,-216 1346.09,-252"/>
<text text-anchor="middle" x="1265" y="-229.8" font-family="Times,serif" font-size="14.00">DomainCardsComponent </text>
</g>
<!-- SharedModule&#45;&gt;DomainCardsComponent  -->
<g id="edge12" class="edge">
<title>SharedModule&#45;&gt;DomainCardsComponent </title>
<path fill="none" stroke="black" stroke-dasharray="5,2" d="M810.41,-175C925.72,-175 1202.91,-175 1202.91,-175 1202.91,-175 1202.91,-205.98 1202.91,-205.98"/>
<polygon fill="black" stroke="black" points="1199.41,-205.98 1202.91,-215.98 1206.41,-205.98 1199.41,-205.98"/>
</g>
<!-- DomainListComponent  -->
<g id="node14" class="node">
<title>DomainListComponent </title>
<polygon fill="#fb8072" stroke="black" points="1165.71,-252 1014.29,-252 1014.29,-216 1165.71,-216 1165.71,-252"/>
<text text-anchor="middle" x="1090" y="-229.8" font-family="Times,serif" font-size="14.00">DomainListComponent </text>
</g>
<!-- SharedModule&#45;&gt;DomainListComponent  -->
<g id="edge13" class="edge">
<title>SharedModule&#45;&gt;DomainListComponent </title>
<path fill="none" stroke="black" stroke-dasharray="5,2" d="M810.26,-179C889.09,-179 1034.79,-179 1034.79,-179 1034.79,-179 1034.79,-205.99 1034.79,-205.99"/>
<polygon fill="black" stroke="black" points="1031.29,-205.99 1034.79,-215.99 1038.29,-205.99 1031.29,-205.99"/>
</g>
<!-- ExaminationComponent  -->
<g id="node15" class="node">
<title>ExaminationComponent </title>
<polygon fill="#fb8072" stroke="black" points="996.38,-252 839.62,-252 839.62,-216 996.38,-216 996.38,-252"/>
<text text-anchor="middle" x="918" y="-229.8" font-family="Times,serif" font-size="14.00">ExaminationComponent </text>
</g>
<!-- SharedModule&#45;&gt;ExaminationComponent  -->
<g id="edge14" class="edge">
<title>SharedModule&#45;&gt;ExaminationComponent </title>
<path fill="none" stroke="black" stroke-dasharray="5,2" d="M810.5,-183C836.23,-183 862.38,-183 862.38,-183 862.38,-183 862.38,-205.88 862.38,-205.88"/>
<polygon fill="black" stroke="black" points="858.88,-205.88 862.38,-215.88 865.88,-205.88 858.88,-205.88"/>
</g>
<!-- FooterComponent  -->
<g id="node16" class="node">
<title>FooterComponent </title>
<polygon fill="#fb8072" stroke="black" points="821.88,-252 700.12,-252 700.12,-216 821.88,-216 821.88,-252"/>
<text text-anchor="middle" x="761" y="-229.8" font-family="Times,serif" font-size="14.00">FooterComponent </text>
</g>
<!-- SharedModule&#45;&gt;FooterComponent  -->
<g id="edge15" class="edge">
<title>SharedModule&#45;&gt;FooterComponent </title>
<path fill="none" stroke="black" stroke-dasharray="5,2" d="M761,-187.11C761,-187.11 761,-205.99 761,-205.99"/>
<polygon fill="black" stroke="black" points="757.5,-205.99 761,-215.99 764.5,-205.99 757.5,-205.99"/>
</g>
<!-- GoalsComponent  -->
<g id="node17" class="node">
<title>GoalsComponent </title>
<polygon fill="#fb8072" stroke="black" points="682.99,-252 565.01,-252 565.01,-216 682.99,-216 682.99,-252"/>
<text text-anchor="middle" x="624" y="-229.8" font-family="Times,serif" font-size="14.00">GoalsComponent </text>
</g>
<!-- SharedModule&#45;&gt;GoalsComponent  -->
<g id="edge16" class="edge">
<title>SharedModule&#45;&gt;GoalsComponent </title>
<path fill="none" stroke="black" stroke-dasharray="5,2" d="M711.73,-183C685.62,-183 658.88,-183 658.88,-183 658.88,-183 658.88,-205.88 658.88,-205.88"/>
<polygon fill="black" stroke="black" points="655.38,-205.88 658.88,-215.88 662.38,-205.88 655.38,-205.88"/>
</g>
<!-- HeaderComponent  -->
<g id="node18" class="node">
<title>HeaderComponent </title>
<polygon fill="#fb8072" stroke="black" points="547.74,-252 422.26,-252 422.26,-216 547.74,-216 547.74,-252"/>
<text text-anchor="middle" x="485" y="-229.8" font-family="Times,serif" font-size="14.00">HeaderComponent </text>
</g>
<!-- SharedModule&#45;&gt;HeaderComponent  -->
<g id="edge17" class="edge">
<title>SharedModule&#45;&gt;HeaderComponent </title>
<path fill="none" stroke="black" stroke-dasharray="5,2" d="M711.64,-179C641.49,-179 521.38,-179 521.38,-179 521.38,-179 521.38,-205.99 521.38,-205.99"/>
<polygon fill="black" stroke="black" points="517.88,-205.99 521.38,-215.99 524.88,-205.99 517.88,-205.99"/>
</g>
<!-- HeaderImageComponent  -->
<g id="node19" class="node">
<title>HeaderImageComponent </title>
<polygon fill="#fb8072" stroke="black" points="404.22,-252 243.78,-252 243.78,-216 404.22,-216 404.22,-252"/>
<text text-anchor="middle" x="324" y="-229.8" font-family="Times,serif" font-size="14.00">HeaderImageComponent </text>
</g>
<!-- SharedModule&#45;&gt;HeaderImageComponent  -->
<g id="edge18" class="edge">
<title>SharedModule&#45;&gt;HeaderImageComponent </title>
<path fill="none" stroke="black" stroke-dasharray="5,2" d="M711.72,-175C605.07,-175 362.38,-175 362.38,-175 362.38,-175 362.38,-205.98 362.38,-205.98"/>
<polygon fill="black" stroke="black" points="358.88,-205.98 362.38,-215.98 365.88,-205.98 358.88,-205.98"/>
</g>
<!-- PartnersListComponent  -->
<g id="node20" class="node">
<title>PartnersListComponent </title>
<polygon fill="#fb8072" stroke="black" points="226.48,-252 73.52,-252 73.52,-216 226.48,-216 226.48,-252"/>
<text text-anchor="middle" x="150" y="-229.8" font-family="Times,serif" font-size="14.00">PartnersListComponent </text>
</g>
<!-- SharedModule&#45;&gt;PartnersListComponent  -->
<g id="edge19" class="edge">
<title>SharedModule&#45;&gt;PartnersListComponent </title>
<path fill="none" stroke="black" stroke-dasharray="5,2" d="M711.32,-171C572.36,-171 189.88,-171 189.88,-171 189.88,-171 189.88,-205.78 189.88,-205.78"/>
<polygon fill="black" stroke="black" points="186.38,-205.78 189.88,-215.78 193.38,-205.78 186.38,-205.78"/>
</g>
<!-- MaterialModule -->
<g id="node11" class="node">
<title>MaterialModule</title>
<polygon fill="#8dd3c7" stroke="black" points="130.47,-122 127.47,-126 106.47,-126 103.47,-122 23.53,-122 23.53,-86 130.47,-86 130.47,-122"/>
<text text-anchor="middle" x="77" y="-99.8" font-family="Times,serif" font-size="14.00">MaterialModule</text>
</g>
<!-- MaterialModule&#45;&gt;SharedModule -->
<g id="edge10" class="edge">
<title>MaterialModule&#45;&gt;SharedModule</title>
<path fill="none" stroke="black" d="M102.12,-122.22C102.12,-140.83 102.12,-167 102.12,-167 102.12,-167 701.75,-167 701.75,-167"/>
<polygon fill="black" stroke="black" points="701.75,-170.5 711.75,-167 701.75,-163.5 701.75,-170.5"/>
</g>
</g>
</svg>
