<?xml version="1.0" encoding="UTF-8" standalone="no"?>
<!DOCTYPE svg PUBLIC "-//W3C//DTD SVG 1.1//EN"
 "http://www.w3.org/Graphics/SVG/1.1/DTD/svg11.dtd">
<!-- Generated by graphviz version 2.47.0 (20210316.0004)
 -->
<!-- Title: dependencies Pages: 1 -->
<svg width="690pt" height="211pt"
 viewBox="0.00 0.00 690.00 211.00" xmlns="http://www.w3.org/2000/svg" xmlns:xlink="http://www.w3.org/1999/xlink">
<g id="graph0" class="graph" transform="scale(1 1) rotate(0) translate(4 207)">
<title>dependencies</title>
<polygon fill="white" stroke="transparent" points="-4,4 -4,-207 686,-207 686,4 -4,4"/>
<text text-anchor="start" x="320.01" y="-42.4" font-family="sans-serif" font-weight="bold" font-size="14.00">Legend</text>
<polygon fill="#ffffb3" stroke="transparent" points="107,-10 107,-30 127,-30 127,-10 107,-10"/>
<text text-anchor="start" x="130.63" y="-15.4" font-family="sans-serif" font-size="14.00"> &#160;Declarations</text>
<polygon fill="#8dd3c7" stroke="transparent" points="220,-10 220,-30 240,-30 240,-10 220,-10"/>
<text text-anchor="start" x="243.73" y="-15.4" font-family="sans-serif" font-size="14.00"> &#160;Module</text>
<polygon fill="#80b1d3" stroke="transparent" points="306,-10 306,-30 326,-30 326,-10 306,-10"/>
<text text-anchor="start" x="329.78" y="-15.4" font-family="sans-serif" font-size="14.00"> &#160;Bootstrap</text>
<polygon fill="#fdb462" stroke="transparent" points="403,-10 403,-30 423,-30 423,-10 403,-10"/>
<text text-anchor="start" x="426.67" y="-15.4" font-family="sans-serif" font-size="14.00"> &#160;Providers</text>
<polygon fill="#fb8072" stroke="transparent" points="499,-10 499,-30 519,-30 519,-10 499,-10"/>
<text text-anchor="start" x="522.73" y="-15.4" font-family="sans-serif" font-size="14.00"> &#160;Exports</text>
<g id="clust1" class="cluster">
<title>cluster_DashboardModule</title>
<polygon fill="none" stroke="black" stroke-dasharray="1,5" points="8,-70 8,-195 674,-195 674,-70 8,-70"/>
</g>
<g id="clust5" class="cluster">
<title>cluster_DashboardModule_imports</title>
<polygon fill="none" stroke="black" points="368,-78 368,-130 666,-130 666,-78 368,-78"/>
</g>
<g id="clust2" class="cluster">
<title>cluster_DashboardModule_declarations</title>
<polygon fill="none" stroke="black" points="16,-78 16,-130 360,-130 360,-78 16,-78"/>
</g>
<!-- HomeComponent -->
<g id="node1" class="node">
<title>HomeComponent</title>
<polygon fill="#ffffb3" stroke="black" points="351.55,-122 236.45,-122 236.45,-86 351.55,-86 351.55,-122"/>
<text text-anchor="middle" x="294" y="-99.8" font-family="Times,serif" font-size="14.00">HomeComponent</text>
</g>
<!-- DashboardModule -->
<g id="node3" class="node">
<title>DashboardModule</title>
<polygon fill="#8dd3c7" stroke="black" points="419.19,-187 416.19,-191 395.19,-191 392.19,-187 298.81,-187 298.81,-151 419.19,-151 419.19,-187"/>
<text text-anchor="middle" x="359" y="-164.8" font-family="Times,serif" font-size="14.00">DashboardModule</text>
</g>
<!-- HomeComponent&#45;&gt;DashboardModule -->
<g id="edge1" class="edge">
<title>HomeComponent&#45;&gt;DashboardModule</title>
<path fill="none" stroke="black" d="M325.34,-122.11C325.34,-122.11 325.34,-140.99 325.34,-140.99"/>
<polygon fill="black" stroke="black" points="321.84,-140.99 325.34,-150.99 328.84,-140.99 321.84,-140.99"/>
</g>
<!-- ZcontentMainRouteComponent -->
<g id="node2" class="node">
<title>ZcontentMainRouteComponent</title>
<polygon fill="#ffffb3" stroke="black" points="218.09,-122 23.91,-122 23.91,-86 218.09,-86 218.09,-122"/>
<text text-anchor="middle" x="121" y="-99.8" font-family="Times,serif" font-size="14.00">ZcontentMainRouteComponent</text>
</g>
<!-- ZcontentMainRouteComponent&#45;&gt;DashboardModule -->
<g id="edge2" class="edge">
<title>ZcontentMainRouteComponent&#45;&gt;DashboardModule</title>
<path fill="none" stroke="black" d="M121,-122.11C121,-141.34 121,-169 121,-169 121,-169 288.63,-169 288.63,-169"/>
<polygon fill="black" stroke="black" points="288.63,-172.5 298.63,-169 288.63,-165.5 288.63,-172.5"/>
</g>
<!-- DashboardRoutingModule -->
<g id="node4" class="node">
<title>DashboardRoutingModule</title>
<polygon fill="#8dd3c7" stroke="black" points="657.81,-122 654.81,-126 633.81,-126 630.81,-122 492.19,-122 492.19,-86 657.81,-86 657.81,-122"/>
<text text-anchor="middle" x="575" y="-99.8" font-family="Times,serif" font-size="14.00">DashboardRoutingModule</text>
</g>
<!-- DashboardRoutingModule&#45;&gt;DashboardModule -->
<g id="edge3" class="edge">
<title>DashboardRoutingModule&#45;&gt;DashboardModule</title>
<path fill="none" stroke="black" d="M575,-122.11C575,-141.34 575,-169 575,-169 575,-169 429.17,-169 429.17,-169"/>
<polygon fill="black" stroke="black" points="429.17,-165.5 419.17,-169 429.17,-172.5 429.17,-165.5"/>
</g>
<!-- SharedModule -->
<g id="node5" class="node">
<title>SharedModule</title>
<polygon fill="#8dd3c7" stroke="black" points="474.42,-122 471.42,-126 450.42,-126 447.42,-122 375.58,-122 375.58,-86 474.42,-86 474.42,-122"/>
<text text-anchor="middle" x="425" y="-99.8" font-family="Times,serif" font-size="14.00">SharedModule</text>
</g>
<!-- SharedModule&#45;&gt;DashboardModule -->
<g id="edge4" class="edge">
<title>SharedModule&#45;&gt;DashboardModule</title>
<path fill="none" stroke="black" d="M397.44,-122.11C397.44,-122.11 397.44,-140.99 397.44,-140.99"/>
<polygon fill="black" stroke="black" points="393.94,-140.99 397.44,-150.99 400.94,-140.99 393.94,-140.99"/>
</g>
</g>
</svg>
