<?xml version="1.0" encoding="UTF-8" standalone="no"?>
<!DOCTYPE svg PUBLIC "-//W3C//DTD SVG 1.1//EN"
 "http://www.w3.org/Graphics/SVG/1.1/DTD/svg11.dtd">
<!-- Generated by graphviz version 2.47.0 (20210316.0004)
 -->
<!-- Title: dependencies Pages: 1 -->
<svg width="840pt" height="284pt"
 viewBox="0.00 0.00 840.00 284.00" xmlns="http://www.w3.org/2000/svg" xmlns:xlink="http://www.w3.org/1999/xlink">
<g id="graph0" class="graph" transform="scale(1 1) rotate(0) translate(4 280)">
<title>dependencies</title>
<polygon fill="white" stroke="transparent" points="-4,4 -4,-280 836,-280 836,4 -4,4"/>
<text text-anchor="start" x="395.01" y="-42.4" font-family="sans-serif" font-weight="bold" font-size="14.00">Legend</text>
<polygon fill="#ffffb3" stroke="transparent" points="182,-10 182,-30 202,-30 202,-10 182,-10"/>
<text text-anchor="start" x="205.63" y="-15.4" font-family="sans-serif" font-size="14.00"> &#160;Declarations</text>
<polygon fill="#8dd3c7" stroke="transparent" points="295,-10 295,-30 315,-30 315,-10 295,-10"/>
<text text-anchor="start" x="318.73" y="-15.4" font-family="sans-serif" font-size="14.00"> &#160;Module</text>
<polygon fill="#80b1d3" stroke="transparent" points="381,-10 381,-30 401,-30 401,-10 381,-10"/>
<text text-anchor="start" x="404.78" y="-15.4" font-family="sans-serif" font-size="14.00"> &#160;Bootstrap</text>
<polygon fill="#fdb462" stroke="transparent" points="478,-10 478,-30 498,-30 498,-10 478,-10"/>
<text text-anchor="start" x="501.67" y="-15.4" font-family="sans-serif" font-size="14.00"> &#160;Providers</text>
<polygon fill="#fb8072" stroke="transparent" points="574,-10 574,-30 594,-30 594,-10 574,-10"/>
<text text-anchor="start" x="597.73" y="-15.4" font-family="sans-serif" font-size="14.00"> &#160;Exports</text>
<g id="clust1" class="cluster">
<title>cluster_OnBoardingModule</title>
<polygon fill="none" stroke="black" stroke-dasharray="1,5" points="8,-70 8,-268 824,-268 824,-70 8,-70"/>
</g>
<g id="clust2" class="cluster">
<title>cluster_OnBoardingModule_declarations</title>
<polygon fill="none" stroke="black" points="454,-78 454,-130 816,-130 816,-78 454,-78"/>
</g>
<g id="clust5" class="cluster">
<title>cluster_OnBoardingModule_imports</title>
<polygon fill="none" stroke="black" points="16,-78 16,-130 446,-130 446,-78 16,-78"/>
</g>
<g id="clust6" class="cluster">
<title>cluster_OnBoardingModule_exports</title>
<polygon fill="none" stroke="black" points="318,-208 318,-260 452,-260 452,-208 318,-208"/>
</g>
<!-- LoginComponent -->
<g id="node1" class="node">
<title>LoginComponent</title>
<polygon fill="#ffffb3" stroke="black" points="808.28,-122 693.72,-122 693.72,-86 808.28,-86 808.28,-122"/>
<text text-anchor="middle" x="751" y="-99.8" font-family="Times,serif" font-size="14.00">LoginComponent</text>
</g>
<!-- OnBoardingModule -->
<g id="node3" class="node">
<title>OnBoardingModule</title>
<polygon fill="#8dd3c7" stroke="black" points="449.26,-187 446.26,-191 425.26,-191 422.26,-187 320.74,-187 320.74,-151 449.26,-151 449.26,-187"/>
<text text-anchor="middle" x="385" y="-164.8" font-family="Times,serif" font-size="14.00">OnBoardingModule</text>
</g>
<!-- LoginComponent&#45;&gt;OnBoardingModule -->
<g id="edge1" class="edge">
<title>LoginComponent&#45;&gt;OnBoardingModule</title>
<path fill="none" stroke="black" d="M751,-122.11C751,-141.34 751,-169 751,-169 751,-169 459.59,-169 459.59,-169"/>
<polygon fill="black" stroke="black" points="459.59,-165.5 449.59,-169 459.59,-172.5 459.59,-165.5"/>
</g>
<!-- OnBoardingMainRouteComponent -->
<g id="node2" class="node">
<title>OnBoardingMainRouteComponent</title>
<polygon fill="#ffffb3" stroke="black" points="675.53,-122 462.47,-122 462.47,-86 675.53,-86 675.53,-122"/>
<text text-anchor="middle" x="569" y="-99.8" font-family="Times,serif" font-size="14.00">OnBoardingMainRouteComponent</text>
</g>
<!-- OnBoardingMainRouteComponent&#45;&gt;OnBoardingModule -->
<g id="edge2" class="edge">
<title>OnBoardingMainRouteComponent&#45;&gt;OnBoardingModule</title>
<path fill="none" stroke="black" d="M462.39,-104C451.27,-104 443.93,-104 443.93,-104 443.93,-104 443.93,-140.89 443.93,-140.89"/>
<polygon fill="black" stroke="black" points="440.43,-140.89 443.93,-150.89 447.43,-140.89 440.43,-140.89"/>
</g>
<!-- LoginComponent  -->
<g id="node7" class="node">
<title>LoginComponent </title>
<polygon fill="#fb8072" stroke="black" points="444.28,-252 325.72,-252 325.72,-216 444.28,-216 444.28,-252"/>
<text text-anchor="middle" x="385" y="-229.8" font-family="Times,serif" font-size="14.00">LoginComponent </text>
</g>
<!-- OnBoardingModule&#45;&gt;LoginComponent  -->
<g id="edge6" class="edge">
<title>OnBoardingModule&#45;&gt;LoginComponent </title>
<path fill="none" stroke="black" stroke-dasharray="5,2" d="M385,-187.11C385,-187.11 385,-205.99 385,-205.99"/>
<polygon fill="black" stroke="black" points="381.5,-205.99 385,-215.99 388.5,-205.99 381.5,-205.99"/>
</g>
<!-- MaterialModule -->
<g id="node4" class="node">
<title>MaterialModule</title>
<polygon fill="#8dd3c7" stroke="black" points="438.47,-122 435.47,-126 414.47,-126 411.47,-122 331.53,-122 331.53,-86 438.47,-86 438.47,-122"/>
<text text-anchor="middle" x="385" y="-99.8" font-family="Times,serif" font-size="14.00">MaterialModule</text>
</g>
<!-- MaterialModule&#45;&gt;OnBoardingModule -->
<g id="edge3" class="edge">
<title>MaterialModule&#45;&gt;OnBoardingModule</title>
<path fill="none" stroke="black" d="M385,-122.11C385,-122.11 385,-140.99 385,-140.99"/>
<polygon fill="black" stroke="black" points="381.5,-140.99 385,-150.99 388.5,-140.99 381.5,-140.99"/>
</g>
<!-- OnBoardingRoutingModule -->
<g id="node5" class="node">
<title>OnBoardingRoutingModule</title>
<polygon fill="#8dd3c7" stroke="black" points="313.88,-122 310.88,-126 289.88,-126 286.88,-122 140.12,-122 140.12,-86 313.88,-86 313.88,-122"/>
<text text-anchor="middle" x="227" y="-99.8" font-family="Times,serif" font-size="14.00">OnBoardingRoutingModule</text>
</g>
<!-- OnBoardingRoutingModule&#45;&gt;OnBoardingModule -->
<g id="edge4" class="edge">
<title>OnBoardingRoutingModule&#45;&gt;OnBoardingModule</title>
<path fill="none" stroke="black" d="M313.92,-104C321.33,-104 326.07,-104 326.07,-104 326.07,-104 326.07,-140.89 326.07,-140.89"/>
<polygon fill="black" stroke="black" points="322.57,-140.89 326.07,-150.89 329.57,-140.89 322.57,-140.89"/>
</g>
<!-- SharedModule -->
<g id="node6" class="node">
<title>SharedModule</title>
<polygon fill="#8dd3c7" stroke="black" points="122.42,-122 119.42,-126 98.42,-126 95.42,-122 23.58,-122 23.58,-86 122.42,-86 122.42,-122"/>
<text text-anchor="middle" x="73" y="-99.8" font-family="Times,serif" font-size="14.00">SharedModule</text>
</g>
<!-- SharedModule&#45;&gt;OnBoardingModule -->
<g id="edge5" class="edge">
<title>SharedModule&#45;&gt;OnBoardingModule</title>
<path fill="none" stroke="black" d="M73,-122.11C73,-141.34 73,-169 73,-169 73,-169 310.73,-169 310.73,-169"/>
<polygon fill="black" stroke="black" points="310.73,-172.5 320.73,-169 310.73,-165.5 310.73,-172.5"/>
</g>
</g>
</svg>
