<?xml version="1.0" encoding="UTF-8" standalone="no"?>
<!DOCTYPE svg PUBLIC "-//W3C//DTD SVG 1.1//EN"
 "http://www.w3.org/Graphics/SVG/1.1/DTD/svg11.dtd">
<!-- Generated by graphviz version 2.47.0 (20210316.0004)
 -->
<!-- Title: dependencies Pages: 1 -->
<svg width="4551pt" height="355pt"
 viewBox="0.00 0.00 4551.00 355.00" xmlns="http://www.w3.org/2000/svg" xmlns:xlink="http://www.w3.org/1999/xlink">
<g id="graph0" class="graph" transform="scale(1 1) rotate(0) translate(4 351)">
<title>dependencies</title>
<polygon fill="white" stroke="transparent" points="-4,4 -4,-351 4547,-351 4547,4 -4,4"/>
<text text-anchor="start" x="2250.51" y="-42.4" font-family="sans-serif" font-weight="bold" font-size="14.00">Legend</text>
<polygon fill="#ffffb3" stroke="transparent" points="2037.5,-10 2037.5,-30 2057.5,-30 2057.5,-10 2037.5,-10"/>
<text text-anchor="start" x="2061.13" y="-15.4" font-family="sans-serif" font-size="14.00"> &#160;Declarations</text>
<polygon fill="#8dd3c7" stroke="transparent" points="2150.5,-10 2150.5,-30 2170.5,-30 2170.5,-10 2150.5,-10"/>
<text text-anchor="start" x="2174.23" y="-15.4" font-family="sans-serif" font-size="14.00"> &#160;Module</text>
<polygon fill="#80b1d3" stroke="transparent" points="2236.5,-10 2236.5,-30 2256.5,-30 2256.5,-10 2236.5,-10"/>
<text text-anchor="start" x="2260.28" y="-15.4" font-family="sans-serif" font-size="14.00"> &#160;Bootstrap</text>
<polygon fill="#fdb462" stroke="transparent" points="2333.5,-10 2333.5,-30 2353.5,-30 2353.5,-10 2333.5,-10"/>
<text text-anchor="start" x="2357.17" y="-15.4" font-family="sans-serif" font-size="14.00"> &#160;Providers</text>
<polygon fill="#fb8072" stroke="transparent" points="2429.5,-10 2429.5,-30 2449.5,-30 2449.5,-10 2429.5,-10"/>
<text text-anchor="start" x="2453.23" y="-15.4" font-family="sans-serif" font-size="14.00"> &#160;Exports</text>
<g id="clust1" class="cluster">
<title>cluster_AppModule</title>
<polygon fill="none" stroke="black" stroke-dasharray="1,5" points="8,-70 8,-339 423,-339 423,-70 8,-70"/>
</g>
<g id="clust2" class="cluster">
<title>cluster_AppModule_declarations</title>
<polygon fill="none" stroke="black" points="16,-143 16,-195 138,-195 138,-143 16,-143"/>
</g>
<g id="clust4" class="cluster">
<title>cluster_AppModule_imports</title>
<polygon fill="none" stroke="black" points="146,-78 146,-195 415,-195 415,-78 146,-78"/>
</g>
<g id="clust6" class="cluster">
<title>cluster_AppModule_bootstrap</title>
<polygon fill="none" stroke="black" points="185,-279 185,-331 309,-331 309,-279 185,-279"/>
</g>
<g id="clust14" class="cluster">
<title>cluster_DashboardModule</title>
<polygon fill="none" stroke="black" stroke-dasharray="1,5" points="3401,-135 3401,-263 3951,-263 3951,-135 3401,-135"/>
</g>
<g id="clust15" class="cluster">
<title>cluster_DashboardModule_declarations</title>
<polygon fill="none" stroke="black" points="3599,-143 3599,-195 3943,-195 3943,-143 3599,-143"/>
</g>
<g id="clust18" class="cluster">
<title>cluster_DashboardModule_imports</title>
<polygon fill="none" stroke="black" points="3409,-143 3409,-195 3591,-195 3591,-143 3409,-143"/>
</g>
<g id="clust34" class="cluster">
<title>cluster_OnBoardingModule</title>
<polygon fill="none" stroke="black" stroke-dasharray="1,5" points="3959,-135 3959,-339 4535,-339 4535,-135 3959,-135"/>
</g>
<g id="clust35" class="cluster">
<title>cluster_OnBoardingModule_declarations</title>
<polygon fill="none" stroke="black" points="4165,-143 4165,-195 4527,-195 4527,-143 4165,-143"/>
</g>
<g id="clust38" class="cluster">
<title>cluster_OnBoardingModule_imports</title>
<polygon fill="none" stroke="black" points="3967,-143 3967,-195 4157,-195 4157,-143 3967,-143"/>
</g>
<g id="clust39" class="cluster">
<title>cluster_OnBoardingModule_exports</title>
<polygon fill="none" stroke="black" points="4213,-279 4213,-331 4347,-331 4347,-279 4213,-279"/>
</g>
<g id="clust48" class="cluster">
<title>cluster_SharedModule</title>
<polygon fill="none" stroke="black" stroke-dasharray="1,5" points="431,-203 431,-271 3393,-271 3393,-203 431,-203"/>
</g>
<g id="clust49" class="cluster">
<title>cluster_SharedModule_declarations</title>
<polygon fill="none" stroke="black" points="1931,-211 1931,-263 3385,-263 3385,-211 1931,-211"/>
</g>
<g id="clust60" class="cluster">
<title>cluster_SharedModule_exports</title>
<polygon fill="none" stroke="black" points="439,-211 439,-263 1923,-263 1923,-211 439,-211"/>
</g>
<!-- AppComponent -->
<g id="node1" class="node">
<title>AppComponent</title>
<polygon fill="#ffffb3" stroke="black" points="129.94,-187 24.06,-187 24.06,-151 129.94,-151 129.94,-187"/>
<text text-anchor="middle" x="77" y="-164.8" font-family="Times,serif" font-size="14.00">AppComponent</text>
</g>
<!-- AppModule -->
<g id="node2" class="node">
<title>AppModule</title>
<polygon fill="#8dd3c7" stroke="black" points="288.66,-255 285.66,-259 264.66,-259 261.66,-255 205.34,-255 205.34,-219 288.66,-219 288.66,-255"/>
<text text-anchor="middle" x="247" y="-232.8" font-family="Times,serif" font-size="14.00">AppModule</text>
</g>
<!-- AppComponent&#45;&gt;AppModule -->
<g id="edge1" class="edge">
<title>AppComponent&#45;&gt;AppModule</title>
<path fill="none" stroke="black" d="M129.83,-163C172.14,-163 224.48,-163 224.48,-163 224.48,-163 224.48,-208.71 224.48,-208.71"/>
<polygon fill="black" stroke="black" points="220.98,-208.71 224.48,-218.71 227.98,-208.71 220.98,-208.71"/>
</g>
<!-- AppComponent  -->
<g id="node6" class="node">
<title>AppComponent </title>
<polygon fill="#80b1d3" stroke="black" points="301.44,-323 192.56,-323 192.56,-287 301.44,-287 301.44,-323"/>
<text text-anchor="middle" x="247" y="-300.8" font-family="Times,serif" font-size="14.00">AppComponent </text>
</g>
<!-- AppModule&#45;&gt;AppComponent  -->
<g id="edge5" class="edge">
<title>AppModule&#45;&gt;AppComponent </title>
<path fill="none" stroke="black" stroke-dasharray="1,5" d="M247,-255.22C247,-255.22 247,-276.73 247,-276.73"/>
<polygon fill="black" stroke="black" points="243.5,-276.73 247,-286.73 250.5,-276.73 243.5,-276.73"/>
</g>
<!-- AppRoutingModule -->
<g id="node3" class="node">
<title>AppRoutingModule</title>
<polygon fill="#8dd3c7" stroke="black" points="282.27,-122 279.27,-126 258.27,-126 255.27,-122 153.73,-122 153.73,-86 282.27,-86 282.27,-122"/>
<text text-anchor="middle" x="218" y="-99.8" font-family="Times,serif" font-size="14.00">AppRoutingModule</text>
</g>
<!-- AppRoutingModule&#45;&gt;AppModule -->
<g id="edge2" class="edge">
<title>AppRoutingModule&#45;&gt;AppModule</title>
<path fill="none" stroke="black" d="M243.78,-122.21C243.78,-122.21 243.78,-208.58 243.78,-208.58"/>
<polygon fill="black" stroke="black" points="240.28,-208.58 243.78,-218.58 247.28,-208.58 240.28,-208.58"/>
</g>
<!-- MaterialModule -->
<g id="node4" class="node">
<title>MaterialModule</title>
<polygon fill="#8dd3c7" stroke="black" points="407.47,-122 404.47,-126 383.47,-126 380.47,-122 300.53,-122 300.53,-86 407.47,-86 407.47,-122"/>
<text text-anchor="middle" x="354" y="-99.8" font-family="Times,serif" font-size="14.00">MaterialModule</text>
</g>
<!-- MaterialModule&#45;&gt;AppModule -->
<g id="edge3" class="edge">
<title>MaterialModule&#45;&gt;AppModule</title>
<path fill="none" stroke="black" d="M305.13,-122.17C305.13,-159.85 305.13,-243 305.13,-243 305.13,-243 298.94,-243 298.94,-243"/>
<polygon fill="black" stroke="black" points="298.94,-239.5 288.94,-243 298.94,-246.5 298.94,-239.5"/>
</g>
<!-- SharedModule -->
<g id="node5" class="node">
<title>SharedModule</title>
<polygon fill="#8dd3c7" stroke="black" points="407.42,-187 404.42,-191 383.42,-191 380.42,-187 308.58,-187 308.58,-151 407.42,-151 407.42,-187"/>
<text text-anchor="middle" x="358" y="-164.8" font-family="Times,serif" font-size="14.00">SharedModule</text>
</g>
<!-- MaterialModule&#45;&gt;SharedModule -->
<g id="edge25" class="edge">
<title>MaterialModule&#45;&gt;SharedModule</title>
<path fill="none" stroke="black" d="M358,-122.11C358,-122.11 358,-140.99 358,-140.99"/>
<polygon fill="black" stroke="black" points="354.5,-140.99 358,-150.99 361.5,-140.99 354.5,-140.99"/>
</g>
<!-- OnBoardingModule -->
<g id="node13" class="node">
<title>OnBoardingModule</title>
<polygon fill="#8dd3c7" stroke="black" points="4344.26,-255 4341.26,-259 4320.26,-259 4317.26,-255 4215.74,-255 4215.74,-219 4344.26,-219 4344.26,-255"/>
<text text-anchor="middle" x="4280" y="-232.8" font-family="Times,serif" font-size="14.00">OnBoardingModule</text>
</g>
<!-- MaterialModule&#45;&gt;OnBoardingModule -->
<g id="edge12" class="edge">
<title>MaterialModule&#45;&gt;OnBoardingModule</title>
<path fill="none" stroke="black" d="M407.59,-104C844.86,-104 3810.14,-104 3810.14,-104 3810.14,-104 3810.14,-246 3810.14,-246 3810.14,-246 4205.65,-246 4205.65,-246"/>
<polygon fill="black" stroke="black" points="4205.65,-249.5 4215.65,-246 4205.65,-242.5 4205.65,-249.5"/>
</g>
<!-- SharedModule&#45;&gt;AppModule -->
<g id="edge4" class="edge">
<title>SharedModule&#45;&gt;AppModule</title>
<path fill="none" stroke="black" d="M308.6,-175C285.53,-175 263.08,-175 263.08,-175 263.08,-175 263.08,-208.73 263.08,-208.73"/>
<polygon fill="black" stroke="black" points="259.58,-208.73 263.08,-218.73 266.58,-208.73 259.58,-208.73"/>
</g>
<!-- DashboardModule -->
<g id="node9" class="node">
<title>DashboardModule</title>
<polygon fill="#8dd3c7" stroke="black" points="3662.19,-255 3659.19,-259 3638.19,-259 3635.19,-255 3541.81,-255 3541.81,-219 3662.19,-219 3662.19,-255"/>
<text text-anchor="middle" x="3602" y="-232.8" font-family="Times,serif" font-size="14.00">DashboardModule</text>
</g>
<!-- SharedModule&#45;&gt;DashboardModule -->
<g id="edge9" class="edge">
<title>SharedModule&#45;&gt;DashboardModule</title>
<path fill="none" stroke="black" d="M407.28,-153C799.27,-153 3397.34,-153 3397.34,-153 3397.34,-153 3397.34,-237 3397.34,-237 3397.34,-237 3531.7,-237 3531.7,-237"/>
<polygon fill="black" stroke="black" points="3531.7,-240.5 3541.7,-237 3531.7,-233.5 3531.7,-240.5"/>
</g>
<!-- SharedModule&#45;&gt;OnBoardingModule -->
<g id="edge14" class="edge">
<title>SharedModule&#45;&gt;OnBoardingModule</title>
<path fill="none" stroke="black" d="M341.6,-187.19C341.6,-195.28 341.6,-203 341.6,-203 341.6,-203 4258.54,-203 4258.54,-203 4258.54,-203 4258.54,-208.81 4258.54,-208.81"/>
<polygon fill="black" stroke="black" points="4255.04,-208.81 4258.54,-218.81 4262.04,-208.81 4255.04,-208.81"/>
</g>
<!-- AssessmentsListComponent  -->
<g id="node25" class="node">
<title>AssessmentsListComponent </title>
<polygon fill="#fb8072" stroke="black" points="1915.15,-255 1736.85,-255 1736.85,-219 1915.15,-219 1915.15,-255"/>
<text text-anchor="middle" x="1826" y="-232.8" font-family="Times,serif" font-size="14.00">AssessmentsListComponent </text>
</g>
<!-- SharedModule&#45;&gt;AssessmentsListComponent  -->
<g id="edge26" class="edge">
<title>SharedModule&#45;&gt;AssessmentsListComponent </title>
<path fill="none" stroke="black" stroke-dasharray="5,2" d="M407.26,-172C662.84,-172 1826,-172 1826,-172 1826,-172 1826,-208.89 1826,-208.89"/>
<polygon fill="black" stroke="black" points="1822.5,-208.89 1826,-218.89 1829.5,-208.89 1822.5,-208.89"/>
</g>
<!-- DomainCardsComponent  -->
<g id="node26" class="node">
<title>DomainCardsComponent </title>
<polygon fill="#fb8072" stroke="black" points="1719.09,-255 1556.91,-255 1556.91,-219 1719.09,-219 1719.09,-255"/>
<text text-anchor="middle" x="1638" y="-232.8" font-family="Times,serif" font-size="14.00">DomainCardsComponent </text>
</g>
<!-- SharedModule&#45;&gt;DomainCardsComponent  -->
<g id="edge27" class="edge">
<title>SharedModule&#45;&gt;DomainCardsComponent </title>
<path fill="none" stroke="black" stroke-dasharray="5,2" d="M407.39,-174C642.63,-174 1638,-174 1638,-174 1638,-174 1638,-208.78 1638,-208.78"/>
<polygon fill="black" stroke="black" points="1634.5,-208.78 1638,-218.78 1641.5,-208.78 1634.5,-208.78"/>
</g>
<!-- DomainListComponent  -->
<g id="node27" class="node">
<title>DomainListComponent </title>
<polygon fill="#fb8072" stroke="black" points="1538.71,-255 1387.29,-255 1387.29,-219 1538.71,-219 1538.71,-255"/>
<text text-anchor="middle" x="1463" y="-232.8" font-family="Times,serif" font-size="14.00">DomainListComponent </text>
</g>
<!-- SharedModule&#45;&gt;DomainListComponent  -->
<g id="edge28" class="edge">
<title>SharedModule&#45;&gt;DomainListComponent </title>
<path fill="none" stroke="black" stroke-dasharray="5,2" d="M407.27,-176C621.7,-176 1463,-176 1463,-176 1463,-176 1463,-208.7 1463,-208.7"/>
<polygon fill="black" stroke="black" points="1459.5,-208.7 1463,-218.7 1466.5,-208.7 1459.5,-208.7"/>
</g>
<!-- ExaminationComponent  -->
<g id="node28" class="node">
<title>ExaminationComponent </title>
<polygon fill="#fb8072" stroke="black" points="1369.38,-255 1212.62,-255 1212.62,-219 1369.38,-219 1369.38,-255"/>
<text text-anchor="middle" x="1291" y="-232.8" font-family="Times,serif" font-size="14.00">ExaminationComponent </text>
</g>
<!-- SharedModule&#45;&gt;ExaminationComponent  -->
<g id="edge29" class="edge">
<title>SharedModule&#45;&gt;ExaminationComponent </title>
<path fill="none" stroke="black" stroke-dasharray="5,2" d="M407.5,-178C600.39,-178 1291,-178 1291,-178 1291,-178 1291,-208.98 1291,-208.98"/>
<polygon fill="black" stroke="black" points="1287.5,-208.98 1291,-218.98 1294.5,-208.98 1287.5,-208.98"/>
</g>
<!-- FooterComponent  -->
<g id="node29" class="node">
<title>FooterComponent </title>
<polygon fill="#fb8072" stroke="black" points="1194.88,-255 1073.12,-255 1073.12,-219 1194.88,-219 1194.88,-255"/>
<text text-anchor="middle" x="1134" y="-232.8" font-family="Times,serif" font-size="14.00">FooterComponent </text>
</g>
<!-- SharedModule&#45;&gt;FooterComponent  -->
<g id="edge30" class="edge">
<title>SharedModule&#45;&gt;FooterComponent </title>
<path fill="none" stroke="black" stroke-dasharray="5,2" d="M407.43,-180C578.35,-180 1134,-180 1134,-180 1134,-180 1134,-208.96 1134,-208.96"/>
<polygon fill="black" stroke="black" points="1130.5,-208.96 1134,-218.96 1137.5,-208.96 1130.5,-208.96"/>
</g>
<!-- GoalsComponent  -->
<g id="node30" class="node">
<title>GoalsComponent </title>
<polygon fill="#fb8072" stroke="black" points="1055.99,-255 938.01,-255 938.01,-219 1055.99,-219 1055.99,-255"/>
<text text-anchor="middle" x="997" y="-232.8" font-family="Times,serif" font-size="14.00">GoalsComponent </text>
</g>
<!-- SharedModule&#45;&gt;GoalsComponent  -->
<g id="edge31" class="edge">
<title>SharedModule&#45;&gt;GoalsComponent </title>
<path fill="none" stroke="black" stroke-dasharray="5,2" d="M407.34,-182C557.23,-182 997,-182 997,-182 997,-182 997,-208.99 997,-208.99"/>
<polygon fill="black" stroke="black" points="993.5,-208.99 997,-218.99 1000.5,-208.99 993.5,-208.99"/>
</g>
<!-- HeaderComponent  -->
<g id="node31" class="node">
<title>HeaderComponent </title>
<polygon fill="#fb8072" stroke="black" points="920.74,-255 795.26,-255 795.26,-219 920.74,-219 920.74,-255"/>
<text text-anchor="middle" x="858" y="-232.8" font-family="Times,serif" font-size="14.00">HeaderComponent </text>
</g>
<!-- SharedModule&#45;&gt;HeaderComponent  -->
<g id="edge32" class="edge">
<title>SharedModule&#45;&gt;HeaderComponent </title>
<path fill="none" stroke="black" stroke-dasharray="5,2" d="M407.31,-184C533.45,-184 858,-184 858,-184 858,-184 858,-208.76 858,-208.76"/>
<polygon fill="black" stroke="black" points="854.5,-208.76 858,-218.76 861.5,-208.76 854.5,-208.76"/>
</g>
<!-- HeaderImageComponent  -->
<g id="node32" class="node">
<title>HeaderImageComponent </title>
<polygon fill="#fb8072" stroke="black" points="777.22,-255 616.78,-255 616.78,-219 777.22,-219 777.22,-255"/>
<text text-anchor="middle" x="697" y="-232.8" font-family="Times,serif" font-size="14.00">HeaderImageComponent </text>
</g>
<!-- SharedModule&#45;&gt;HeaderImageComponent  -->
<g id="edge33" class="edge">
<title>SharedModule&#45;&gt;HeaderImageComponent </title>
<path fill="none" stroke="black" stroke-dasharray="5,2" d="M407.29,-186C501.31,-186 697,-186 697,-186 697,-186 697,-208.88 697,-208.88"/>
<polygon fill="black" stroke="black" points="693.5,-208.88 697,-218.88 700.5,-208.88 693.5,-208.88"/>
</g>
<!-- PartnersListComponent  -->
<g id="node33" class="node">
<title>PartnersListComponent </title>
<polygon fill="#fb8072" stroke="black" points="599.48,-255 446.52,-255 446.52,-219 599.48,-219 599.48,-255"/>
<text text-anchor="middle" x="523" y="-232.8" font-family="Times,serif" font-size="14.00">PartnersListComponent </text>
</g>
<!-- SharedModule&#45;&gt;PartnersListComponent  -->
<g id="edge34" class="edge">
<title>SharedModule&#45;&gt;PartnersListComponent </title>
<path fill="none" stroke="black" stroke-dasharray="5,2" d="M374.4,-187.27C374.4,-205.56 374.4,-231 374.4,-231 374.4,-231 436.53,-231 436.53,-231"/>
<polygon fill="black" stroke="black" points="436.53,-234.5 446.53,-231 436.53,-227.5 436.53,-234.5"/>
</g>
<!-- HomeComponent -->
<g id="node7" class="node">
<title>HomeComponent</title>
<polygon fill="#ffffb3" stroke="black" points="3934.55,-187 3819.45,-187 3819.45,-151 3934.55,-151 3934.55,-187"/>
<text text-anchor="middle" x="3877" y="-164.8" font-family="Times,serif" font-size="14.00">HomeComponent</text>
</g>
<!-- HomeComponent&#45;&gt;DashboardModule -->
<g id="edge6" class="edge">
<title>HomeComponent&#45;&gt;DashboardModule</title>
<path fill="none" stroke="black" d="M3877,-187.02C3877,-204.37 3877,-228 3877,-228 3877,-228 3672.35,-228 3672.35,-228"/>
<polygon fill="black" stroke="black" points="3672.35,-224.5 3662.35,-228 3672.35,-231.5 3672.35,-224.5"/>
</g>
<!-- ZcontentMainRouteComponent -->
<g id="node8" class="node">
<title>ZcontentMainRouteComponent</title>
<polygon fill="#ffffb3" stroke="black" points="3801.09,-187 3606.91,-187 3606.91,-151 3801.09,-151 3801.09,-187"/>
<text text-anchor="middle" x="3704" y="-164.8" font-family="Times,serif" font-size="14.00">ZcontentMainRouteComponent</text>
</g>
<!-- ZcontentMainRouteComponent&#45;&gt;DashboardModule -->
<g id="edge7" class="edge">
<title>ZcontentMainRouteComponent&#45;&gt;DashboardModule</title>
<path fill="none" stroke="black" d="M3634.53,-187.22C3634.53,-187.22 3634.53,-208.73 3634.53,-208.73"/>
<polygon fill="black" stroke="black" points="3631.03,-208.73 3634.53,-218.73 3638.03,-208.73 3631.03,-208.73"/>
</g>
<!-- DashboardRoutingModule -->
<g id="node10" class="node">
<title>DashboardRoutingModule</title>
<polygon fill="#8dd3c7" stroke="black" points="3582.81,-187 3579.81,-191 3558.81,-191 3555.81,-187 3417.19,-187 3417.19,-151 3582.81,-151 3582.81,-187"/>
<text text-anchor="middle" x="3500" y="-164.8" font-family="Times,serif" font-size="14.00">DashboardRoutingModule</text>
</g>
<!-- DashboardRoutingModule&#45;&gt;DashboardModule -->
<g id="edge8" class="edge">
<title>DashboardRoutingModule&#45;&gt;DashboardModule</title>
<path fill="none" stroke="black" d="M3562.28,-187.22C3562.28,-187.22 3562.28,-208.73 3562.28,-208.73"/>
<polygon fill="black" stroke="black" points="3558.78,-208.73 3562.28,-218.73 3565.78,-208.73 3558.78,-208.73"/>
</g>
<!-- LoginComponent -->
<g id="node11" class="node">
<title>LoginComponent</title>
<polygon fill="#ffffb3" stroke="black" points="4519.28,-187 4404.72,-187 4404.72,-151 4519.28,-151 4519.28,-187"/>
<text text-anchor="middle" x="4462" y="-164.8" font-family="Times,serif" font-size="14.00">LoginComponent</text>
</g>
<!-- LoginComponent&#45;&gt;OnBoardingModule -->
<g id="edge10" class="edge">
<title>LoginComponent&#45;&gt;OnBoardingModule</title>
<path fill="none" stroke="black" d="M4462,-187.22C4462,-207.37 4462,-237 4462,-237 4462,-237 4354.42,-237 4354.42,-237"/>
<polygon fill="black" stroke="black" points="4354.42,-233.5 4344.42,-237 4354.42,-240.5 4354.42,-233.5"/>
</g>
<!-- OnBoardingMainRouteComponent -->
<g id="node12" class="node">
<title>OnBoardingMainRouteComponent</title>
<polygon fill="#ffffb3" stroke="black" points="4386.53,-187 4173.47,-187 4173.47,-151 4386.53,-151 4386.53,-187"/>
<text text-anchor="middle" x="4280" y="-164.8" font-family="Times,serif" font-size="14.00">OnBoardingMainRouteComponent</text>
</g>
<!-- OnBoardingMainRouteComponent&#45;&gt;OnBoardingModule -->
<g id="edge11" class="edge">
<title>OnBoardingMainRouteComponent&#45;&gt;OnBoardingModule</title>
<path fill="none" stroke="black" d="M4301.46,-187.22C4301.46,-187.22 4301.46,-208.73 4301.46,-208.73"/>
<polygon fill="black" stroke="black" points="4297.96,-208.73 4301.46,-218.73 4304.96,-208.73 4297.96,-208.73"/>
</g>
<!-- LoginComponent  -->
<g id="node15" class="node">
<title>LoginComponent </title>
<polygon fill="#fb8072" stroke="black" points="4339.28,-323 4220.72,-323 4220.72,-287 4339.28,-287 4339.28,-323"/>
<text text-anchor="middle" x="4280" y="-300.8" font-family="Times,serif" font-size="14.00">LoginComponent </text>
</g>
<!-- OnBoardingModule&#45;&gt;LoginComponent  -->
<g id="edge15" class="edge">
<title>OnBoardingModule&#45;&gt;LoginComponent </title>
<path fill="none" stroke="black" stroke-dasharray="5,2" d="M4280,-255.22C4280,-255.22 4280,-276.73 4280,-276.73"/>
<polygon fill="black" stroke="black" points="4276.5,-276.73 4280,-286.73 4283.5,-276.73 4276.5,-276.73"/>
</g>
<!-- OnBoardingRoutingModule -->
<g id="node14" class="node">
<title>OnBoardingRoutingModule</title>
<polygon fill="#8dd3c7" stroke="black" points="4148.88,-187 4145.88,-191 4124.88,-191 4121.88,-187 3975.12,-187 3975.12,-151 4148.88,-151 4148.88,-187"/>
<text text-anchor="middle" x="4062" y="-164.8" font-family="Times,serif" font-size="14.00">OnBoardingRoutingModule</text>
</g>
<!-- OnBoardingRoutingModule&#45;&gt;OnBoardingModule -->
<g id="edge13" class="edge">
<title>OnBoardingRoutingModule&#45;&gt;OnBoardingModule</title>
<path fill="none" stroke="black" d="M4062,-187.22C4062,-207.37 4062,-237 4062,-237 4062,-237 4205.48,-237 4205.48,-237"/>
<polygon fill="black" stroke="black" points="4205.48,-240.5 4215.48,-237 4205.48,-233.5 4205.48,-240.5"/>
</g>
<!-- AssessmentsListComponent -->
<g id="node16" class="node">
<title>AssessmentsListComponent</title>
<polygon fill="#ffffb3" stroke="black" points="3377.15,-255 3202.85,-255 3202.85,-219 3377.15,-219 3377.15,-255"/>
<text text-anchor="middle" x="3290" y="-232.8" font-family="Times,serif" font-size="14.00">AssessmentsListComponent</text>
</g>
<!-- AssessmentsListComponent&#45;&gt;SharedModule -->
<g id="edge16" class="edge">
<title>AssessmentsListComponent&#45;&gt;SharedModule</title>
<path fill="none" stroke="black" d="M3290,-218.8C3290,-194.64 3290,-155 3290,-155 3290,-155 417.35,-155 417.35,-155"/>
<polygon fill="black" stroke="black" points="417.35,-151.5 407.35,-155 417.35,-158.5 417.35,-151.5"/>
</g>
<!-- DomainCardsComponent -->
<g id="node17" class="node">
<title>DomainCardsComponent</title>
<polygon fill="#ffffb3" stroke="black" points="3184.59,-255 3025.41,-255 3025.41,-219 3184.59,-219 3184.59,-255"/>
<text text-anchor="middle" x="3105" y="-232.8" font-family="Times,serif" font-size="14.00">DomainCardsComponent</text>
</g>
<!-- DomainCardsComponent&#45;&gt;SharedModule -->
<g id="edge17" class="edge">
<title>DomainCardsComponent&#45;&gt;SharedModule</title>
<path fill="none" stroke="black" d="M3105,-218.85C3105,-195.24 3105,-157 3105,-157 3105,-157 417.43,-157 417.43,-157"/>
<polygon fill="black" stroke="black" points="417.43,-153.5 407.43,-157 417.43,-160.5 417.43,-153.5"/>
</g>
<!-- DomainListComponent -->
<g id="node18" class="node">
<title>DomainListComponent</title>
<polygon fill="#ffffb3" stroke="black" points="3007.21,-255 2858.79,-255 2858.79,-219 3007.21,-219 3007.21,-255"/>
<text text-anchor="middle" x="2933" y="-232.8" font-family="Times,serif" font-size="14.00">DomainListComponent</text>
</g>
<!-- DomainListComponent&#45;&gt;SharedModule -->
<g id="edge18" class="edge">
<title>DomainListComponent&#45;&gt;SharedModule</title>
<path fill="none" stroke="black" d="M2933,-218.91C2933,-195.87 2933,-159 2933,-159 2933,-159 417.42,-159 417.42,-159"/>
<polygon fill="black" stroke="black" points="417.42,-155.5 407.42,-159 417.42,-162.5 417.42,-155.5"/>
</g>
<!-- ExaminationComponent -->
<g id="node19" class="node">
<title>ExaminationComponent</title>
<polygon fill="#ffffb3" stroke="black" points="2840.38,-255 2687.62,-255 2687.62,-219 2840.38,-219 2840.38,-255"/>
<text text-anchor="middle" x="2764" y="-232.8" font-family="Times,serif" font-size="14.00">ExaminationComponent</text>
</g>
<!-- ExaminationComponent&#45;&gt;SharedModule -->
<g id="edge19" class="edge">
<title>ExaminationComponent&#45;&gt;SharedModule</title>
<path fill="none" stroke="black" d="M2764,-218.99C2764,-196.51 2764,-161 2764,-161 2764,-161 417.43,-161 417.43,-161"/>
<polygon fill="black" stroke="black" points="417.43,-157.5 407.43,-161 417.43,-164.5 417.43,-157.5"/>
</g>
<!-- FooterComponent -->
<g id="node20" class="node">
<title>FooterComponent</title>
<polygon fill="#ffffb3" stroke="black" points="2669.88,-255 2552.12,-255 2552.12,-219 2669.88,-219 2669.88,-255"/>
<text text-anchor="middle" x="2611" y="-232.8" font-family="Times,serif" font-size="14.00">FooterComponent</text>
</g>
<!-- FooterComponent&#45;&gt;SharedModule -->
<g id="edge20" class="edge">
<title>FooterComponent&#45;&gt;SharedModule</title>
<path fill="none" stroke="black" d="M2611,-218.71C2611,-196.79 2611,-163 2611,-163 2611,-163 417.42,-163 417.42,-163"/>
<polygon fill="black" stroke="black" points="417.42,-159.5 407.42,-163 417.42,-166.5 417.42,-159.5"/>
</g>
<!-- GoalsComponent -->
<g id="node21" class="node">
<title>GoalsComponent</title>
<polygon fill="#ffffb3" stroke="black" points="2533.99,-255 2420.01,-255 2420.01,-219 2533.99,-219 2533.99,-255"/>
<text text-anchor="middle" x="2477" y="-232.8" font-family="Times,serif" font-size="14.00">GoalsComponent</text>
</g>
<!-- GoalsComponent&#45;&gt;SharedModule -->
<g id="edge21" class="edge">
<title>GoalsComponent&#45;&gt;SharedModule</title>
<path fill="none" stroke="black" d="M2477,-218.83C2477,-197.5 2477,-165 2477,-165 2477,-165 417.26,-165 417.26,-165"/>
<polygon fill="black" stroke="black" points="417.26,-161.5 407.26,-165 417.26,-168.5 417.26,-161.5"/>
</g>
<!-- HeaderComponent -->
<g id="node22" class="node">
<title>HeaderComponent</title>
<polygon fill="#ffffb3" stroke="black" points="2401.74,-255 2280.26,-255 2280.26,-219 2401.74,-219 2401.74,-255"/>
<text text-anchor="middle" x="2341" y="-232.8" font-family="Times,serif" font-size="14.00">HeaderComponent</text>
</g>
<!-- HeaderComponent&#45;&gt;SharedModule -->
<g id="edge22" class="edge">
<title>HeaderComponent&#45;&gt;SharedModule</title>
<path fill="none" stroke="black" d="M2341,-218.97C2341,-198.23 2341,-167 2341,-167 2341,-167 417.51,-167 417.51,-167"/>
<polygon fill="black" stroke="black" points="417.51,-163.5 407.51,-167 417.51,-170.5 417.51,-163.5"/>
</g>
<!-- HeaderImageComponent -->
<g id="node23" class="node">
<title>HeaderImageComponent</title>
<polygon fill="#ffffb3" stroke="black" points="2262.22,-255 2105.78,-255 2105.78,-219 2262.22,-219 2262.22,-255"/>
<text text-anchor="middle" x="2184" y="-232.8" font-family="Times,serif" font-size="14.00">HeaderImageComponent</text>
</g>
<!-- HeaderImageComponent&#45;&gt;SharedModule -->
<g id="edge23" class="edge">
<title>HeaderImageComponent&#45;&gt;SharedModule</title>
<path fill="none" stroke="black" d="M2184,-218.78C2184,-198.63 2184,-169 2184,-169 2184,-169 417.31,-169 417.31,-169"/>
<polygon fill="black" stroke="black" points="417.31,-165.5 407.31,-169 417.31,-172.5 417.31,-165.5"/>
</g>
<!-- PartnersListComponent -->
<g id="node24" class="node">
<title>PartnersListComponent</title>
<polygon fill="#ffffb3" stroke="black" points="2087.48,-255 1938.52,-255 1938.52,-219 2087.48,-219 2087.48,-255"/>
<text text-anchor="middle" x="2013" y="-232.8" font-family="Times,serif" font-size="14.00">PartnersListComponent</text>
</g>
<!-- PartnersListComponent&#45;&gt;SharedModule -->
<g id="edge24" class="edge">
<title>PartnersListComponent&#45;&gt;SharedModule</title>
<path fill="none" stroke="black" d="M2013,-218.69C2013,-198.85 2013,-170 2013,-170 2013,-170 417.53,-170 417.53,-170"/>
<polygon fill="black" stroke="black" points="417.53,-166.5 407.53,-170 417.53,-173.5 417.53,-166.5"/>
</g>
</g>
</svg>
